<svg xmlns="http://www.w3.org/2000/svg" xmlns:osb="http://www.openswatchbook.org/uri/2009/osb" xmlns:svg="http://www.w3.org/2000/svg" id="svg7384" width="16" height="16" version="1.1" style="enable-background:new"><metadata id="metadata90"/><title id="title8473">Solus Symbolic Icon Theme</title><defs id="defs7386"><linearGradient id="linearGradient5606" osb:paint="solid"><stop id="stop5608" offset="0" style="stop-color:#000;stop-opacity:1"/></linearGradient><filter id="filter7554" style="color-interpolation-filters:sRGB"><feBlend id="feBlend7556" in2="BackgroundImage" mode="darken"/></filter></defs><g id="g71291" transform="translate(-725.00041,139.00335)" style="display:inline"><path id="path7981" d="m 733.0002,-138.00391 c -3.86599,0 -7,3.13401 -7,7 0,3.86599 3.13401,7 7,7 3.86599,0 7,-3.13401 7,-7 0,-3.86599 -3.13401,-7 -7,-7 z m -3,4.00391 c 0.55407,0 1,0.44945 1,1 0,0.55064 -0.44593,1 -1,1 -0.55424,0 -1,-0.44936 -1,-1 0,-0.55055 0.44576,-1 1,-1 z m 6,0 c 0.55415,0 1,0.44945 1,1 0,0.55064 -0.44585,1 -1,1 -0.55407,0 -1,-0.44936 -1,-1 0,-0.55055 0.44593,-1 1,-1 z m 0.6875,4.52734 c 0.21054,-0.01 0.6444,0.0372 0.84375,0.40625 0.2659,0.4922 -0.34375,1.125 -0.34375,1.125 0,0 -4.94695,1.35505 -4.96875,1.34375 -0.3863,-0.1995 -0.6263,-0.6356 -0.1875,-1.0625 0.03,-0.01 4.53085,-1.75825 4.53125,-1.78125 0,-0.006 0.0548,-0.0279 0.125,-0.0312 z" style="color:#bebebe;display:inline;overflow:visible;visibility:visible;fill:#4c5263;fill-opacity:1;fill-rule:nonzero;stroke:none;stroke-width:2;marker:none;enable-background:accumulate"/></g></svg>