<svg xmlns="http://www.w3.org/2000/svg" xmlns:osb="http://www.openswatchbook.org/uri/2009/osb" xmlns:svg="http://www.w3.org/2000/svg" id="svg7384" width="16" height="16" version="1.1" style="enable-background:new"><metadata id="metadata90"/><title id="title8473">Solus Symbolic Icon Theme</title><defs id="defs7386"><linearGradient id="linearGradient5606" osb:paint="solid"><stop id="stop5608" offset="0" style="stop-color:#000;stop-opacity:1"/></linearGradient><filter id="filter7554" style="color-interpolation-filters:sRGB"><feBlend id="feBlend7556" in2="BackgroundImage" mode="darken"/></filter></defs><g id="g71291" transform="translate(-705.00018,119)" style="display:inline"><path id="path5868-2" d="m 709.0002,-118 -0.75,3 9.5,0 -0.75,-3 -4,0.5 z m -1,4 -3,2 16,0 -3,-2 z" style="fill:#4c5263;fill-opacity:1;stroke:none"/><path id="path5915-3" d="m 707.0002,-111 c 0,3.3137 2.68629,6 6,6 3.31371,0 6,-2.6863 6,-6 l -12,0 z m 3.5,1.99609 5,0 c 0.277,0 0.5,0.223 0.5,0.5 0,0.277 -0.223,0.5 -0.5,0.5 l -5,0 c -0.277,0 -0.5,-0.223 -0.5,-0.5 0,-0.277 0.223,-0.5 0.5,-0.5 z" style="color:#bebebe;display:inline;overflow:visible;visibility:visible;fill:#4c5263;fill-opacity:1;fill-rule:nonzero;stroke:none;stroke-width:1;marker:none;enable-background:accumulate"/></g></svg>