<svg xmlns="http://www.w3.org/2000/svg" xmlns:osb="http://www.openswatchbook.org/uri/2009/osb" xmlns:svg="http://www.w3.org/2000/svg" id="svg7384" width="16" height="16" version="1.1" style="enable-background:new"><metadata id="metadata90"/><title id="title8473">Solus Symbolic Icon Theme</title><defs id="defs7386"><linearGradient id="linearGradient5606" osb:paint="solid"><stop id="stop5608" offset="0" style="stop-color:#000;stop-opacity:1"/></linearGradient><filter id="filter7554" style="color-interpolation-filters:sRGB"><feBlend id="feBlend7556" in2="BackgroundImage" mode="darken"/></filter></defs><g id="g71291" transform="translate(-685.00041,119.03464)" style="display:inline"><path id="path6679" d="m 693.0002,-118.03516 c -3.86599,0 -7,3.13401 -7,7 0,3.86599 3.13401,7 7,7 3.86599,0 7,-3.13401 7,-7 0,-3.86599 -3.13401,-7 -7,-7 z m -3,4.03516 c 0.55407,0 1,0.44945 1,1 0,0.18562 -0.0639,0.35073 -0.15234,0.5 -0.17385,-0.29354 -0.48036,-0.5 -0.84766,-0.5 -0.36741,0 -0.67384,0.20646 -0.84766,0.5 -0.0884,-0.14927 -0.15234,-0.31438 -0.15234,-0.5 0,-0.55055 0.44576,-1 1,-1 z m 6,0 c 0.55415,0 1,0.44945 1,1 0,0.18562 -0.0639,0.35073 -0.15234,0.5 -0.17384,-0.29354 -0.48031,-0.5 -0.84766,-0.5 -0.3673,0 -0.67381,0.20646 -0.84766,0.5 -0.0884,-0.14927 -0.15234,-0.31438 -0.15234,-0.5 0,-0.55055 0.44593,-1 1,-1 z m -7.57617,5 9.15625,0 c -0.79488,1.8213 -2.59288,2.99901 -4.58008,3 -1.98579,-0.003 -3.78186,-1.18 -4.57617,-3 z" style="color:#bebebe;display:inline;overflow:visible;visibility:visible;fill:#4c5263;fill-opacity:1;fill-rule:nonzero;stroke:none;stroke-width:1;marker:none;enable-background:accumulate"/></g></svg>