<svg xmlns="http://www.w3.org/2000/svg" xmlns:osb="http://www.openswatchbook.org/uri/2009/osb" xmlns:svg="http://www.w3.org/2000/svg" id="svg7384" width="16" height="16.001" version="1.1" style="enable-background:new"><metadata id="metadata90"/><title id="title8473">Solus Symbolic Icon Theme</title><defs id="defs7386"><linearGradient id="linearGradient6882" osb:paint="solid"><stop id="stop6884" offset="0" style="stop-color:#555;stop-opacity:1"/></linearGradient><linearGradient id="linearGradient5606" osb:paint="solid"><stop id="stop5608" offset="0" style="stop-color:#000;stop-opacity:1"/></linearGradient><filter id="filter7554" style="color-interpolation-filters:sRGB"><feBlend id="feBlend7556" in2="BackgroundImage" mode="darken"/></filter></defs><g id="layer10" transform="translate(-437.00018,223.00097)" style="display:inline;filter:url(#filter7554)"><path id="path6728-0" d="m 443.0002,-223.00097 v 1 h -1.99805 c -1.00045,0 -1.00195,1 -1.00195,1 v 12.00195 c 0,0.554 0.446,1.00014 1,1 l 8,-0.002 c 1,0 1,-0.99805 1,-0.99805 v -2.00195 h 1 c 0,0 1,0 1,-1 v -2 h -1 v -2 h -1 v 2 h -1 v -2 h -1 v 2 h -1 v 2 c 0,1 1,1 1,1 h 1 v 1.5 c 0,0.5 -0.5,0.5 -0.5,0.5 l -6.99805,0.002 c -0.5,1.4e-4 -0.5,-0.5 -0.5,-0.5 v -11.002 c 0,-0.5 0.5,-0.5 0.5,-0.5 h 7 c 0.49962,0 0.49805,0.52539 0.49805,0.52539 v 3.47461 h 1 v -4 c 0,0 0.002,-1 -0.99805,-1 h -2.00195 v -1 z" style="fill:#4f555d;fill-opacity:1;stroke:none"/><path id="rect6825-5-2" d="m 442.00215,-220.00097 v 10.00195 l 5.9961,-0.002 c -0.003,9e-5 -0.45842,0.013 -0.94532,-0.23047 -0.48851,-0.24426 -1.05273,-0.9362 -1.05273,-1.76953 v -3 h 1 v -2 h 0.99805 v -3 z" style="display:inline;opacity:1;fill:#4f555d;fill-opacity:1;stroke:none;stroke-width:2;stroke-linecap:round;stroke-linejoin:round;stroke-miterlimit:4;stroke-dasharray:none;stroke-dashoffset:0;stroke-opacity:1;enable-background:new"/></g></svg>