<svg xmlns="http://www.w3.org/2000/svg" xmlns:osb="http://www.openswatchbook.org/uri/2009/osb" xmlns:svg="http://www.w3.org/2000/svg" id="svg7384" width="16" height="16" version="1.1" style="enable-background:new"><metadata id="metadata90"/><title id="title8473">Solus Symbolic Icon Theme</title><defs id="defs7386"><linearGradient id="linearGradient6882" osb:paint="solid"><stop id="stop6884" offset="0" style="stop-color:#555;stop-opacity:1"/></linearGradient><linearGradient id="linearGradient5606" osb:paint="solid"><stop id="stop5608" offset="0" style="stop-color:#000;stop-opacity:1"/></linearGradient><filter id="filter7554" style="color-interpolation-filters:sRGB"><feBlend id="feBlend7556" in2="BackgroundImage" mode="darken"/></filter></defs><g id="layer10" transform="translate(-317.00043,263.00336)" style="display:inline;filter:url(#filter7554)"><path id="path9963" d="m 323.0002,-259.5 -1,1 h -2 c -1.5,0 -1.5,1.5 -1.5,1.5 v 6 c 0,0 0,1.5 1.5,1.5 h 10 c 1.5,0 1.5,-1.5 1.5,-1.5 v -6 c 0,-1.5 -1.5,-1.5 -1.5,-1.5 h -2 l -1,-1 z m 2,3 a 2.5,2.5 0 0 1 2.5,2.5 2.5,2.5 0 0 1 -2.5,2.5 2.5,2.5 0 0 1 -2.5,-2.5 2.5,2.5 0 0 1 2.5,-2.5 z" style="opacity:.2;fill:#4f555d;fill-opacity:1;fill-rule:evenodd;stroke:none;stroke-width:1px;stroke-linecap:butt;stroke-linejoin:miter;stroke-opacity:1"/><path id="path9961" d="m 322.79297,-260 -1,1 H 320 c -0.91667,0 -1.51264,0.53309 -1.75977,1.02734 C 317.99311,-257.4784 318,-257 318,-257 v 6 c 0,0 -0.007,0.4784 0.24023,0.97266 0.24713,0.49425 0.8431,1.02734 1.75977,1.02734 h 10 c 0.91667,0 1.51264,-0.53309 1.75977,-1.02734 C 332.00689,-250.5216 332,-251 332,-251 v -6 c 0,-0.91667 -0.53113,-1.51264 -1.02539,-1.75977 C 330.48035,-259.00689 330,-259 330,-259 h -1.79297 l -1,-1 z m 0.41406,1 h 3.58594 l 1,1 H 330 c 0,0 0.2716,0.007 0.52734,0.13477 0.25575,0.12787 0.47266,0.2819 0.47266,0.86523 v 6 c 0,0 -0.007,0.2716 -0.13477,0.52734 C 330.73736,-250.21691 330.58333,-250 330,-250 h -10 c -0.58333,0 -0.73736,-0.21691 -0.86523,-0.47266 C 319.00689,-250.7284 319,-251 319,-251 v -6 c 0,0 0.007,-0.2716 0.13477,-0.52734 C 319.26264,-257.78309 319.41667,-258 320,-258 h 2.20703 z" style="color:#000;font-style:normal;font-variant:normal;font-weight:400;font-stretch:normal;font-size:medium;line-height:normal;font-family:sans-serif;font-variant-ligatures:normal;font-variant-position:normal;font-variant-caps:normal;font-variant-numeric:normal;font-variant-alternates:normal;font-feature-settings:normal;text-indent:0;text-align:start;text-decoration:none;text-decoration-line:none;text-decoration-style:solid;text-decoration-color:#000;letter-spacing:normal;word-spacing:normal;text-transform:none;writing-mode:lr-tb;direction:ltr;text-orientation:mixed;dominant-baseline:auto;baseline-shift:baseline;text-anchor:start;white-space:normal;shape-padding:0;clip-rule:nonzero;display:inline;overflow:visible;visibility:visible;opacity:1;isolation:auto;mix-blend-mode:normal;color-interpolation:sRGB;color-interpolation-filters:linearRGB;solid-color:#000;solid-opacity:1;vector-effect:none;fill:#4f555d;fill-opacity:1;fill-rule:evenodd;stroke:none;stroke-width:1px;stroke-linecap:butt;stroke-linejoin:miter;stroke-miterlimit:4;stroke-dasharray:none;stroke-dashoffset:0;stroke-opacity:1;color-rendering:auto;image-rendering:auto;shape-rendering:auto;text-rendering:auto;enable-background:accumulate"/><path id="path9965" d="m 325,-257 c -1.65093,0 -3,1.34907 -3,3 0,1.65093 1.34907,3 3,3 1.65093,0 3,-1.34907 3,-3 0,-1.65093 -1.34907,-3 -3,-3 z m 0,1 c 1.11049,0 2,0.88951 2,2 0,1.11049 -0.88951,2 -2,2 -1.11049,0 -2,-0.88951 -2,-2 0,-1.11049 0.88951,-2 2,-2 z" style="color:#000;font-style:normal;font-variant:normal;font-weight:400;font-stretch:normal;font-size:medium;line-height:normal;font-family:sans-serif;font-variant-ligatures:normal;font-variant-position:normal;font-variant-caps:normal;font-variant-numeric:normal;font-variant-alternates:normal;font-feature-settings:normal;text-indent:0;text-align:start;text-decoration:none;text-decoration-line:none;text-decoration-style:solid;text-decoration-color:#000;letter-spacing:normal;word-spacing:normal;text-transform:none;writing-mode:lr-tb;direction:ltr;text-orientation:mixed;dominant-baseline:auto;baseline-shift:baseline;text-anchor:start;white-space:normal;shape-padding:0;clip-rule:nonzero;display:inline;overflow:visible;visibility:visible;opacity:1;isolation:auto;mix-blend-mode:normal;color-interpolation:sRGB;color-interpolation-filters:linearRGB;solid-color:#000;solid-opacity:1;vector-effect:none;fill:#4f555d;fill-opacity:1;fill-rule:nonzero;stroke:none;stroke-width:1;stroke-linecap:round;stroke-linejoin:round;stroke-miterlimit:4;stroke-dasharray:none;stroke-dashoffset:0;stroke-opacity:1;color-rendering:auto;image-rendering:auto;shape-rendering:auto;text-rendering:auto;enable-background:accumulate"/></g></svg>