<svg xmlns="http://www.w3.org/2000/svg" xmlns:osb="http://www.openswatchbook.org/uri/2009/osb" xmlns:svg="http://www.w3.org/2000/svg" id="svg7384" width="16.003" height="16" version="1.1" style="enable-background:new"><metadata id="metadata90"/><title id="title8473">Solus Symbolic Icon Theme</title><defs id="defs7386"><linearGradient id="linearGradient6882" osb:paint="solid"><stop id="stop6884" offset="0" style="stop-color:#555;stop-opacity:1"/></linearGradient><linearGradient id="linearGradient5606" osb:paint="solid"><stop id="stop5608" offset="0" style="stop-color:#000;stop-opacity:1"/></linearGradient><filter id="filter7554" style="color-interpolation-filters:sRGB"><feBlend id="feBlend7556" in2="BackgroundImage" mode="darken"/></filter></defs><g id="layer10" transform="translate(-336.99738,263)" style="display:inline;filter:url(#filter7554)"><path id="path9377" d="m 338.5002,-259.5 h 11 v 8 h -11 z" style="color:#000;font-style:normal;font-variant:normal;font-weight:400;font-stretch:normal;font-size:medium;line-height:normal;font-family:Sans;-inkscape-font-specification:Sans;text-indent:0;text-align:start;text-decoration:none;text-decoration-line:none;letter-spacing:normal;word-spacing:normal;text-transform:none;writing-mode:lr-tb;direction:ltr;baseline-shift:baseline;text-anchor:start;display:inline;overflow:visible;visibility:visible;opacity:.2;fill:#4f555d;fill-opacity:1;stroke:none;stroke-width:2;marker:none;enable-background:accumulate"/><path id="path6912" d="m 339.5002,-260 c -1.5,0 -1.5,1.5 -1.5,1.5 v 0.5 h -0.75 c 0,0 -0.25,0 -0.25,0.25 v 1.5 c 0,0.25 0.25,0.25 0.25,0.25 h 0.75 v 5.5 c 0,1.5 1.5,1.5 1.5,1.5 h 9 c 0,0 1.5,0 1.5,-1.5 v -3.69922 l 2,2.19922 h 1 v -6 h -1 l -2,2.19922 V -258.5 c 0,0 0.25,-1.5 -1.5,-1.5 z m 0,1 h 9 c 0,0 0.5,0 0.5,0.5 v 6 c 0,0.5 -0.5,0.5 -0.5,0.5 h -9 c -0.5,0 -0.5,-0.5 -0.5,-0.5 v -6 c 0,0 -0.0988,-0.51871 0.5,-0.5 z m -0.5,8 h 10 v 1 h -10 z" style="color:#000;font-style:normal;font-variant:normal;font-weight:400;font-stretch:normal;font-size:medium;line-height:normal;font-family:Sans;-inkscape-font-specification:Sans;text-indent:0;text-align:start;text-decoration:none;text-decoration-line:none;letter-spacing:normal;word-spacing:normal;text-transform:none;writing-mode:lr-tb;direction:ltr;baseline-shift:baseline;text-anchor:start;display:inline;overflow:visible;visibility:visible;fill:#4f555d;fill-opacity:1;stroke:none;stroke-width:2;marker:none;enable-background:accumulate"/><rect id="rect9989" width="10.5" height="1.5" x="338.75" y="-251.25" ry="0" style="opacity:.4;fill:#4f555d;fill-opacity:1;stroke:none;stroke-width:1;stroke-linecap:round;stroke-linejoin:round;stroke-miterlimit:4;stroke-dasharray:none;stroke-dashoffset:0;stroke-opacity:1"/></g></svg>