<svg xmlns="http://www.w3.org/2000/svg" xmlns:osb="http://www.openswatchbook.org/uri/2009/osb" xmlns:svg="http://www.w3.org/2000/svg" id="svg7384" width="16" height="16" version="1.1" style="enable-background:new"><metadata id="metadata90"/><title id="title8473">Solus Symbolic Icon Theme</title><defs id="defs7386"><linearGradient id="linearGradient5606" osb:paint="solid"><stop id="stop5608" offset="0" style="stop-color:#000;stop-opacity:1"/></linearGradient><filter id="filter7554" color-interpolation-filters="sRGB"><feBlend id="feBlend7556" in2="BackgroundImage" mode="darken"/></filter></defs><g id="layer10" transform="translate(-525.00043,159.00336)" style="display:inline;filter:url(#filter7554)"><path id="rect6288" d="m 532.0002,-158.0625 c -0.554,0 -1,0.446 -1,1 l 0,3 2,2 2,-2 0,-3 c 0,-0.554 -0.446,-1 -1,-1 l -2,0 z m -5,5.0625 c -0.554,0 -1,0.446 -1,1 l 0,2 c 0,0.554 0.44602,1.00513 1,1 l 2.9375,0 2,-2 -2,-2 -2.9375,0 z m 9.0625,0 -2,2 2,2 2.9375,0 c 0.554,0 1,-0.446 1,-1 l 0,-2 c 0,-0.554 -0.446,-1 -1,-1 l -2.9375,0 z m -3.0625,3.0625 -2,2 0,2.9375 c 0,0.554 0.446,1 1,1 l 2,0 c 0.554,0 1,-0.446 1,-1 l 0,-2.9375 -2,-2 z" style="fill:#4c5263;fill-opacity:1;stroke:none"/></g></svg>