<svg xmlns="http://www.w3.org/2000/svg" xmlns:osb="http://www.openswatchbook.org/uri/2009/osb" xmlns:svg="http://www.w3.org/2000/svg" id="svg7384" width="16" height="16" version="1.1" style="enable-background:new"><metadata id="metadata90"/><title id="title8473">Solus Symbolic Icon Theme</title><defs id="defs7386"><linearGradient id="linearGradient6882" osb:paint="solid"><stop id="stop6884" offset="0" style="stop-color:#555;stop-opacity:1"/></linearGradient><linearGradient id="linearGradient5606" osb:paint="solid"><stop id="stop5608" offset="0" style="stop-color:#000;stop-opacity:1"/></linearGradient><filter id="filter7554" style="color-interpolation-filters:sRGB"><feBlend id="feBlend7556" in2="BackgroundImage" mode="darken"/></filter></defs><g id="layer10" transform="translate(-357.00095,223.00072)" style="display:inline;filter:url(#filter7554)"><path id="rect7017" d="m 358.5002,-220.5 v 9 h 13 v -9 z m 3.5,3 a 1.5,1.5 0 0 1 1.5,1.5 1.5,1.5 0 0 1 -1.5,1.5 1.5,1.5 0 0 1 -1.5,-1.5 1.5,1.5 0 0 1 1.5,-1.5 z m 6,0 a 1.5,1.5 0 0 1 1.5,1.5 1.5,1.5 0 0 1 -1.5,1.5 1.5,1.5 0 0 1 -1.5,-1.5 1.5,1.5 0 0 1 1.5,-1.5 z" style="opacity:.2;fill:#4f555d;fill-opacity:1;stroke:none;stroke-width:2;stroke-linecap:round;stroke-linejoin:round;stroke-miterlimit:4;stroke-dasharray:none;stroke-dashoffset:0;stroke-opacity:1"/><rect id="rect7010" width="13" height="2" x="358.5" y="-211.5" style="opacity:.4;fill:#4f555d;fill-opacity:1;stroke:none;stroke-width:2;stroke-linecap:round;stroke-linejoin:round;stroke-miterlimit:4;stroke-dasharray:none;stroke-dashoffset:0;stroke-opacity:1"/><path id="path6979" d="m 359.0002,-221 c -0.554,0 -1,0.446 -1,1 v 10 c 0,0.554 0.446,1 1,1 h 12.00195 c 0,0 1,-0.001 1,-1.00195 -0.003,-2.99785 -6.3e-4,-7.38222 0,-10 0,-1 -1,-0.99805 -1,-0.99805 z m 0.5,0.99805 h 10.97656 c 0,0 0.52539,3.8e-4 0.52539,0.5 v 7 c 0,0 0,0.5 -0.5,0.5 H 359.5002 c 0,0 -0.5,0 -0.5,-0.5 v -7 c 0,-0.5 0.5,-0.5 0.5,-0.5 z m 2.5,2.00195 c -1.10457,0 -2,0.89543 -2,2 0,1.10457 0.89543,2 2,2 h 6 c 1.10457,0 2,-0.89543 2,-2 0,-1.10457 -0.89543,-2 -2,-2 -1.10457,0 -2,0.89543 -2,2 0,0.36497 0.11049,0.70546 0.28125,1 h -2.5625 c 0.17076,-0.29454 0.28125,-0.63503 0.28125,-1 0,-1.10457 -0.89543,-2 -2,-2 z m 0,1 c 0.55228,0 1,0.44772 1,1 0,0.55228 -0.44772,1 -1,1 -0.55228,0 -1,-0.44772 -1,-1 0,-0.55228 0.44772,-1 1,-1 z m 6,0 c 0.55228,0 1,0.44772 1,1 0,0.55228 -0.44772,1 -1,1 -0.55228,0 -1,-0.44772 -1,-1 0,-0.55228 0.44772,-1 1,-1 z m -9,6 h 12 v 1 h -12 z" style="fill:#4f555d;fill-opacity:1;stroke:none"/></g></svg>