<svg xmlns="http://www.w3.org/2000/svg" xmlns:osb="http://www.openswatchbook.org/uri/2009/osb" xmlns:svg="http://www.w3.org/2000/svg" id="svg7384" width="16" height="16" version="1.1" style="enable-background:new"><metadata id="metadata90"/><title id="title8473">Solus Symbolic Icon Theme</title><defs id="defs7386"><linearGradient id="linearGradient6882" osb:paint="solid"><stop id="stop6884" offset="0" style="stop-color:#555;stop-opacity:1"/></linearGradient><linearGradient id="linearGradient5606" osb:paint="solid"><stop id="stop5608" offset="0" style="stop-color:#000;stop-opacity:1"/></linearGradient><filter id="filter7554" style="color-interpolation-filters:sRGB"><feBlend id="feBlend7556" in2="BackgroundImage" mode="darken"/></filter></defs><g id="layer10" transform="translate(-457.00043,343.00339)" style="display:inline;filter:url(#filter7554)"><path id="rect2989" d="m 460.5002,-340.5 v 11 c 0,1 1,1 1,1 l 8.0156,0.0312 c 0,0 0.9951,-1e-5 1,-1 l -0.0156,-8.7812 -2.25,-2.25 z" style="opacity:.2;fill:#4f555d;fill-opacity:1;stroke:none"/><path id="path8099" d="m 460.0002,-341 v 1 10 c 0,0.83333 0.56422,1.52527 1.05273,1.76953 0.48852,0.24426 0.94727,0.23047 0.94727,0.23047 h 7 c 0,0 0.45875,0.0138 0.94727,-0.23047 0.48851,-0.24426 1.05273,-0.9362 1.05273,-1.76953 v -8 -0.44531 l -0.32422,-0.32422 -1.90625,-1.90625 L 468.44551,-341 h -0.44531 z m 1,1 h 1 v 2 h 1 v -2 h 1 v 2 h 1 v -2 h 1 v 2 h 1 v -2 h 1 0.0312 l 0.0312,0.0312 1.90625,1.90625 0.0314,0.0312 v 0.0312 8 c 0,1 -1,1 -1,1 h -7 c 0,0 -1,0 -1,-1 z" style="color:#000;font-style:normal;font-variant:normal;font-weight:400;font-stretch:normal;font-size:medium;line-height:normal;font-family:sans-serif;font-variant-ligatures:normal;font-variant-position:normal;font-variant-caps:normal;font-variant-numeric:normal;font-variant-alternates:normal;font-feature-settings:normal;text-indent:0;text-align:start;text-decoration:none;text-decoration-line:none;text-decoration-style:solid;text-decoration-color:#000;letter-spacing:normal;word-spacing:normal;text-transform:none;writing-mode:lr-tb;direction:ltr;text-orientation:mixed;dominant-baseline:auto;baseline-shift:baseline;text-anchor:start;white-space:normal;shape-padding:0;clip-rule:nonzero;display:inline;overflow:visible;visibility:visible;opacity:1;isolation:auto;mix-blend-mode:normal;color-interpolation:sRGB;color-interpolation-filters:linearRGB;solid-color:#000;solid-opacity:1;vector-effect:none;fill:#4f555d;fill-opacity:1;fill-rule:nonzero;stroke:none;stroke-width:2;stroke-linecap:butt;stroke-linejoin:miter;stroke-miterlimit:4;stroke-dasharray:none;stroke-dashoffset:0;stroke-opacity:1;color-rendering:auto;image-rendering:auto;shape-rendering:auto;text-rendering:auto;enable-background:accumulate"/></g></svg>