<svg xmlns="http://www.w3.org/2000/svg" xmlns:osb="http://www.openswatchbook.org/uri/2009/osb" xmlns:svg="http://www.w3.org/2000/svg" id="svg7384" width="16" height="16" version="1.1" style="enable-background:new"><metadata id="metadata90"/><title id="title8473">Solus Symbolic Icon Theme</title><defs id="defs7386"><linearGradient id="linearGradient6882" osb:paint="solid"><stop id="stop6884" offset="0" style="stop-color:#555;stop-opacity:1"/></linearGradient><linearGradient id="linearGradient5606" osb:paint="solid"><stop id="stop5608" offset="0" style="stop-color:#000;stop-opacity:1"/></linearGradient><filter id="filter7554" style="color-interpolation-filters:sRGB"><feBlend id="feBlend7556" in2="BackgroundImage" mode="darken"/></filter></defs><g id="layer10" transform="translate(-437.00043,343.00338)" style="display:inline;filter:url(#filter7554)"><path id="path7007" d="m 440.0002,-342 c 0,0 -2,0 -2,2 v 11 c 0,0.554 0.446,1 1,1 h 12 c 0.554,0 1,-0.446 1,-1 v -11 c 0,0 0,-2 -2,-2 z m 0,1 h 1 v 4 h 8 v -4 h 1 c 0,0 1,0 1,1 v 11 h -12 v -11 c 0,0 0,-1 1,-1 z m 2,0 h 6 v 3 h -6 z" style="fill:#4f555d;fill-opacity:1;stroke:none"/><path id="path8339" d="m 450.5002,-341.53125 -6,0.0312 h -5 c -1,0 -1,1 -1,1 v 12 l 13,-0.0312 v -12 c 0,-1 -1,-1 -1,-1 z m -8.5,0.53125 h 6 v 3 h -6 z" style="opacity:.2;fill:#4f555d;fill-opacity:1;stroke:none"/></g></svg>