<svg xmlns="http://www.w3.org/2000/svg" xmlns:osb="http://www.openswatchbook.org/uri/2009/osb" xmlns:svg="http://www.w3.org/2000/svg" id="svg7384" width="16" height="16" version="1.1" style="enable-background:new"><metadata id="metadata90"/><title id="title8473">Solus Symbolic Icon Theme</title><defs id="defs7386"><linearGradient id="linearGradient6882" osb:paint="solid"><stop id="stop6884" offset="0" style="stop-color:#555;stop-opacity:1"/></linearGradient><linearGradient id="linearGradient5606" osb:paint="solid"><stop id="stop5608" offset="0" style="stop-color:#000;stop-opacity:1"/></linearGradient><filter id="filter7554" style="color-interpolation-filters:sRGB"><feBlend id="feBlend7556" in2="BackgroundImage" mode="darken"/></filter></defs><g id="layer10" transform="translate(-417.00061,183)" style="display:inline;filter:url(#filter7554)"><path id="rect2989-2" d="m 419.0004,-181.99662 c -0.554,0 -1,0.446 -1,1 v 11 l 2,2 h 1 8 2 c 0.554,0 1,-0.446 1,-1 v -12 c 0,-0.554 -0.446,-1 -1,-1 z m -2e-4,0.99662 h 12 v 12 l -1.9998,0.003 v -5 h -8 v 5 l -0.5002,-0.003 -1.5,-1.5 z m 6.0002,8.00338 h 2 v 4 h -2 z" style="fill:#4f555d;fill-opacity:1;stroke:none"/><path id="path8337" d="m 419.0002,-181 h 12 v 12 l -1.9998,0.003 v -5 h -8 v 5 l -0.5002,-0.003 -1.5,-1.5 z" style="opacity:.2;fill:#4f555d;fill-opacity:1;stroke:none"/></g></svg>