<svg xmlns="http://www.w3.org/2000/svg" xmlns:osb="http://www.openswatchbook.org/uri/2009/osb" xmlns:svg="http://www.w3.org/2000/svg" id="svg7384" width="16" height="16.012" version="1.1" style="enable-background:new"><metadata id="metadata90"/><title id="title8473">Solus Symbolic Icon Theme</title><defs id="defs7386"><linearGradient id="linearGradient6882" osb:paint="solid"><stop id="stop6884" offset="0" style="stop-color:#555;stop-opacity:1"/></linearGradient><linearGradient id="linearGradient5606" osb:paint="solid"><stop id="stop5608" offset="0" style="stop-color:#000;stop-opacity:1"/></linearGradient><filter id="filter7554" style="color-interpolation-filters:sRGB"><feBlend id="feBlend7556" in2="BackgroundImage" mode="darken"/></filter></defs><g id="layer10" transform="translate(-337.0004,343.0033)" style="display:inline;filter:url(#filter7554)"><path id="path5124" d="m 339.0002,-341 v 12 c 0,0 0,2 2,2 h 8 c 0,0 2,0.25 2,-2 v -12 c 0,-2 -2,-2 -2,-2 h -8 c -2,0 -2,2 -2,2 z m 2,-1 h 8 c 0,0 1,0 1,1 v 10 h -10 v -10 c 0,0 0,-1 1,-1 z m 4,11.75 c 0.69036,0 1.25,0.55964 1.25,1.25 0,0.69036 -0.55964,1.25 -1.25,1.25 -0.69036,0 -1.25,-0.55964 -1.25,-1.25 0,-0.69036 0.55964,-1.25 1.25,-1.25 z" style="fill:#4f555d;fill-opacity:1;stroke:none"/><path id="path8341" d="m 341.0002,-342 h 8 c 0,0 1,0 1,1 v 10 h -10 v -10 c 0,0 0,-1 1,-1 z" style="opacity:.2;fill:#4f555d;fill-opacity:1;stroke:none"/></g></svg>