<svg xmlns="http://www.w3.org/2000/svg" xmlns:osb="http://www.openswatchbook.org/uri/2009/osb" xmlns:svg="http://www.w3.org/2000/svg" id="svg7384" width="16" height="16" version="1.1" style="enable-background:new"><metadata id="metadata90"/><title id="title8473">Solus Symbolic Icon Theme</title><defs id="defs7386"><linearGradient id="linearGradient6882" osb:paint="solid"><stop id="stop6884" offset="0" style="stop-color:#555;stop-opacity:1"/></linearGradient><linearGradient id="linearGradient5606" osb:paint="solid"><stop id="stop5608" offset="0" style="stop-color:#000;stop-opacity:1"/></linearGradient><filter id="filter7554" style="color-interpolation-filters:sRGB"><feBlend id="feBlend7556" in2="BackgroundImage" mode="darken"/></filter></defs><g id="layer10" transform="translate(-417.00021,263.01013)" style="display:inline;filter:url(#filter7554)"><path id="path7180" d="m 418.46164,-259.5 v 9 c 0,0.554 0.446,1 1,1 h 1.96876 l 1.03125,1 h 5 l 0.99995,-1 h 2.03867 c 0.554,0 1.00238,-0.44601 1,-1 l -0.0387,-9 c -0.002,-0.55399 -0.446,-1 -1,-1 h -11 c -0.554,0 -1,0.446 -1,1 z" style="opacity:.2;fill:#4f555d;fill-opacity:1;stroke:none;stroke-width:1;stroke-linecap:round;stroke-linejoin:round;stroke-miterlimit:4;stroke-dasharray:none;stroke-dashoffset:0;stroke-opacity:1"/><path id="rect7150" d="m 419.5,-261 c -0.82236,0 -1.49704,0.67788 -1.5,1.49805 l -0.0391,9 c -0.004,0.82492 0.67764,1.50195 1.5,1.50195 h 1.83203 l 0.85351,0.85352 A 0.50005,0.50005 0 0 0 422.5,-248 h 5 a 0.50005,0.50005 0 0 0 0.34766,-0.14062 L 428.73438,-249 H 430.5 c 0.82235,0 1.5,-0.67765 1.5,-1.5 v -8.96484 a 0.50005,0.50005 0 0 0 0,-0.0352 c 0,-0.82235 -0.67765,-1.5 -1.5,-1.5 z m 0,1 h 11 c 0.28565,0 0.5,0.21435 0.5,0.5 v 9 c 0,0.28565 -0.21435,0.5 -0.5,0.5 h -1.96875 a 0.50005,0.50005 0 0 0 -0.34766,0.14062 L 427.29688,-249 h -4.58985 l -0.85351,-0.85352 A 0.50005,0.50005 0 0 0 421.5,-250 h -2.03906 c -0.28565,0 -0.50122,-0.21499 -0.5,-0.49805 l 0.0391,-9 c 0.001,-0.28781 0.21436,-0.50195 0.5,-0.50195 z" style="color:#000;font-style:normal;font-variant:normal;font-weight:400;font-stretch:normal;font-size:medium;line-height:normal;font-family:sans-serif;font-variant-ligatures:normal;font-variant-position:normal;font-variant-caps:normal;font-variant-numeric:normal;font-variant-alternates:normal;font-feature-settings:normal;text-indent:0;text-align:start;text-decoration:none;text-decoration-line:none;text-decoration-style:solid;text-decoration-color:#000;letter-spacing:normal;word-spacing:normal;text-transform:none;writing-mode:lr-tb;direction:ltr;text-orientation:mixed;dominant-baseline:auto;baseline-shift:baseline;text-anchor:start;white-space:normal;shape-padding:0;clip-rule:nonzero;display:inline;overflow:visible;visibility:visible;opacity:1;isolation:auto;mix-blend-mode:normal;color-interpolation:sRGB;color-interpolation-filters:linearRGB;solid-color:#000;solid-opacity:1;vector-effect:none;fill:#4f555d;fill-opacity:1;fill-rule:nonzero;stroke:none;stroke-width:1;stroke-linecap:round;stroke-linejoin:round;stroke-miterlimit:4;stroke-dasharray:none;stroke-dashoffset:0;stroke-opacity:1;color-rendering:auto;image-rendering:auto;shape-rendering:auto;text-rendering:auto;enable-background:accumulate"/><path id="rect7163" d="m 420.5,-259 c -0.27613,3e-5 -0.49997,0.22387 -0.5,0.5 v 7 c 3e-5,0.27613 0.22387,0.49997 0.5,0.5 h 1.79297 l 0.85351,0.85352 c 0.0938,0.0938 0.22092,0.14646 0.35352,0.14648 h 3 c 0.1326,-2e-5 0.25976,-0.0527 0.35352,-0.14648 L 427.70703,-251 H 429.5 c 0.27613,-3e-5 0.49997,-0.22387 0.5,-0.5 v -7 c -3e-5,-0.27613 -0.22387,-0.49997 -0.5,-0.5 z" style="color:#000;font-style:normal;font-variant:normal;font-weight:400;font-stretch:normal;font-size:medium;line-height:normal;font-family:sans-serif;font-variant-ligatures:normal;font-variant-position:normal;font-variant-caps:normal;font-variant-numeric:normal;font-variant-alternates:normal;font-feature-settings:normal;text-indent:0;text-align:start;text-decoration:none;text-decoration-line:none;text-decoration-style:solid;text-decoration-color:#000;letter-spacing:normal;word-spacing:normal;text-transform:none;writing-mode:lr-tb;direction:ltr;text-orientation:mixed;dominant-baseline:auto;baseline-shift:baseline;text-anchor:start;white-space:normal;shape-padding:0;clip-rule:nonzero;display:inline;overflow:visible;visibility:visible;opacity:1;isolation:auto;mix-blend-mode:normal;color-interpolation:sRGB;color-interpolation-filters:linearRGB;solid-color:#000;solid-opacity:1;vector-effect:none;fill:#4f555d;fill-opacity:1;fill-rule:nonzero;stroke:none;stroke-width:1;stroke-linecap:round;stroke-linejoin:round;stroke-miterlimit:4;stroke-dasharray:none;stroke-dashoffset:0;stroke-opacity:1;color-rendering:auto;image-rendering:auto;shape-rendering:auto;text-rendering:auto;enable-background:accumulate"/></g></svg>