<svg xmlns="http://www.w3.org/2000/svg" xmlns:osb="http://www.openswatchbook.org/uri/2009/osb" xmlns:svg="http://www.w3.org/2000/svg" id="svg7384" width="16" height="16" version="1.1" style="enable-background:new"><metadata id="metadata90"/><title id="title8473">Solus Symbolic Icon Theme</title><defs id="defs7386"><linearGradient id="linearGradient5606" osb:paint="solid"><stop id="stop5608" offset="0" style="stop-color:#000;stop-opacity:1"/></linearGradient><filter id="filter7554" color-interpolation-filters="sRGB"><feBlend id="feBlend7556" in2="BackgroundImage" mode="darken"/></filter></defs><g id="layer10" transform="translate(-385.00021,159)" style="display:inline;filter:url(#filter7554)"><path id="path8593" d="m 386.0002,-149 0,2 0,1 c 0,0 0,1 1,1 l 5,0 0,2 2,0 0,-2 5,0 c 1,0 1,-1 1,-1 l 0,-1 0,-2 z m 2,1 1,0 0,1 -1,0 z" style="color:#000;fill:#4c5263;fill-opacity:1;fill-rule:nonzero;stroke:none;stroke-width:4;marker:none;visibility:visible;display:inline;overflow:visible;enable-background:accumulate"/><path id="path6413" d="m 387.0002,-154 c -0.5,0 -1,0.5 -1,1 l 0,3 14,0 0,-3 c 0,-0.5 -0.5,-1 -1,-1 z" style="fill:#4c5263;fill-opacity:1;stroke:none"/><path id="path6416" d="m 389.0002,-158 0,3 8,0 0,-3 z" style="fill:#4c5263;fill-opacity:1;stroke:none"/></g></svg>