<svg xmlns="http://www.w3.org/2000/svg" xmlns:osb="http://www.openswatchbook.org/uri/2009/osb" xmlns:svg="http://www.w3.org/2000/svg" id="svg7384" width="16" height="16" version="1.1" style="enable-background:new"><metadata id="metadata90"/><title id="title8473">Solus Symbolic Icon Theme</title><defs id="defs7386"><linearGradient id="linearGradient6882" osb:paint="solid"><stop id="stop6884" offset="0" style="stop-color:#555;stop-opacity:1"/></linearGradient><linearGradient id="linearGradient5606" osb:paint="solid"><stop id="stop5608" offset="0" style="stop-color:#000;stop-opacity:1"/></linearGradient><filter id="filter7554" style="color-interpolation-filters:sRGB"><feBlend id="feBlend7556" in2="BackgroundImage" mode="darken"/></filter></defs><g id="layer10" transform="translate(-416.99738,303)" style="display:inline;filter:url(#filter7554)"><rect id="rect9825" width="9" height="11" x="420.5" y="-301.5" style="opacity:.2;fill:#4f555d;fill-opacity:1;stroke:none;stroke-width:1;stroke-linecap:round;stroke-linejoin:miter;stroke-miterlimit:4;stroke-dasharray:none;stroke-dashoffset:0;stroke-opacity:1"/><path id="rect9814" d="m 420.59395,-302 c -0.88294,0 -1.59375,0.71081 -1.59375,1.59375 v 10.8125 c 0,0.88294 0.71081,1.59375 1.59375,1.59375 h 8.8125 c 0.88294,0 1.59375,-0.71081 1.59375,-1.59375 v -10.8125 c 0,-0.88294 -0.71081,-1.59375 -1.59375,-1.59375 z m 0.90625,1 h 7 c 0.277,0 0.5,0.223 0.5,0.5 v 9 c 0,0.277 -0.223,0.5 -0.5,0.5 h -7 c -0.277,0 -0.5,-0.223 -0.5,-0.5 v -9 c 0,-0.277 0.223,-0.5 0.5,-0.5 z m 7,11 c 0.27614,0 0.5,0.22386 0.5,0.5 0,0.27614 -0.22386,0.5 -0.5,0.5 -0.27614,0 -0.5,-0.22386 -0.5,-0.5 0,-0.27614 0.22386,-0.5 0.5,-0.5 z" style="opacity:1;fill:#4f555d;fill-opacity:1;stroke:none;stroke-width:1;stroke-linecap:round;stroke-linejoin:miter;stroke-miterlimit:4;stroke-dasharray:none;stroke-dashoffset:0;stroke-opacity:1"/><rect id="rect9827" width="6" height="1" x="422" y="-296" rx="0" ry="0" style="color:#000;display:inline;overflow:visible;visibility:visible;fill:#4f555d;fill-opacity:1;fill-rule:nonzero;stroke:none;stroke-width:2;marker:none;enable-background:accumulate"/></g></svg>