<svg xmlns="http://www.w3.org/2000/svg" xmlns:osb="http://www.openswatchbook.org/uri/2009/osb" xmlns:svg="http://www.w3.org/2000/svg" id="svg7384" width="16" height="16" version="1.1" style="enable-background:new"><metadata id="metadata90"/><title id="title8473">Solus Symbolic Icon Theme</title><defs id="defs7386"><linearGradient id="linearGradient6882" osb:paint="solid"><stop id="stop6884" offset="0" style="stop-color:#555;stop-opacity:1"/></linearGradient><linearGradient id="linearGradient5606" osb:paint="solid"><stop id="stop5608" offset="0" style="stop-color:#000;stop-opacity:1"/></linearGradient><filter id="filter7554" style="color-interpolation-filters:sRGB"><feBlend id="feBlend7556" in2="BackgroundImage" mode="darken"/></filter></defs><g id="layer10" transform="translate(-457.00168,222.99998)" style="display:inline;filter:url(#filter7554)"><path id="rect6888" d="m 460.0002,-218 v 6 h 4 v -1 h -2 a 1.0001,1.0001 0 0 1 -0.85742,-1.51367 L 463.23458,-218 Z m 6,0 v 1 h 2 a 1.0001,1.0001 0 0 1 0.85742,1.51367 L 466.76582,-212 h 3.23438 v -6 z m -1.89648,2.4375 -0.3379,0.5625 h 1.21876 a 1.0001,1.0001 0 0 1 -0.88086,-0.5625 z m 0.9121,0.5625 a 1.0001,1.0001 0 0 1 0.88086,0.5625 l 0.3379,-0.5625 z" style="opacity:.4;fill:#4f555d;fill-opacity:1;stroke:none;stroke-width:2;stroke-linecap:round;stroke-linejoin:miter;stroke-miterlimit:4;stroke-dasharray:none;stroke-dashoffset:0;stroke-opacity:1"/><path id="path6854" d="m 459.0002,-220 c -0.554,0 -1,0.44601 -1,1 v 8 c 0,0.554 0.446,1 1,1 h 5 v -1.00195 h -4.5 c 0,0 -0.5,0 -0.5,-0.5 v -7 c 0,-0.5 0.5,-0.5 0.5,-0.5 h 4.33594 L 464.43379,-220 Z m 7,0 v 0.99805 h 4.47656 c 0,0 0.52539,3.8e-4 0.52539,0.5 v 7 c 0,0 0,0.5 -0.5,0.5 h -4.33593 L 465.56661,-210 h 5.43554 c 0,0 1,-0.001 1,-1.00195 v -8 c 0,-1 -1,-0.99805 -1,-0.99805 z" style="fill:#4f555d;fill-opacity:1;stroke:none"/><path id="path6624-9-3" d="m 462.0002,-214 3,-5 v 3 h 3 l -3,5 v -3 z" style="display:inline;fill:#4f555d;fill-opacity:1;fill-rule:evenodd;stroke:none;stroke-width:1px;stroke-linecap:butt;stroke-linejoin:miter;stroke-opacity:1;enable-background:new"/></g></svg>