<svg xmlns="http://www.w3.org/2000/svg" xmlns:svg="http://www.w3.org/2000/svg" xmlns:xlink="http://www.w3.org/1999/xlink" id="svg11300" width="680" height="320" version="1.0" viewBox="0 0 680 320" style="display:inline;enable-background:new"><title id="title4162">Solus Icon Template</title><defs id="defs3"><linearGradient id="linearGradient4942"><stop id="stop4940" offset="0" style="stop-color:#999;stop-opacity:1"/><stop id="stop4938" offset="1" style="stop-color:#4d4d4d;stop-opacity:1"/></linearGradient><linearGradient id="linearGradient4948" x1="33" x2="48" y1="224" y2="224" gradientTransform="translate(0,20)" gradientUnits="userSpaceOnUse" xlink:href="#linearGradient4942"/><linearGradient id="linearGradient4985" x1="33" x2="48" y1="224" y2="224" gradientTransform="matrix(1,0,0,-1,5,409)" gradientUnits="userSpaceOnUse" xlink:href="#linearGradient4942"/><linearGradient id="linearGradient5007" x1="29.35" x2="48" y1="225.961" y2="224" gradientTransform="matrix(2.1239861,0,0,-2.1528055,-27.339514,556.45088)" gradientUnits="userSpaceOnUse" xlink:href="#linearGradient4942"/><linearGradient id="linearGradient5015" x1="31.704" x2="46.77" y1="234.323" y2="234.323" gradientTransform="matrix(2.1239861,0,0,-2.1528055,-35.339514,620.45088)" gradientUnits="userSpaceOnUse" xlink:href="#linearGradient4942"/><linearGradient id="linearGradient5081" x1="31.704" x2="46.77" y1="234.323" y2="234.323" gradientTransform="matrix(2.1239861,0,0,-2.1528055,28.660486,620.45088)" gradientUnits="userSpaceOnUse" xlink:href="#linearGradient4942"/><linearGradient id="linearGradient5083" x1="29.35" x2="48" y1="225.961" y2="224" gradientTransform="matrix(2.1239861,0,0,-2.1528055,36.660486,556.45088)" gradientUnits="userSpaceOnUse" xlink:href="#linearGradient4942"/><linearGradient id="linearGradient5085" x1="33" x2="48" y1="224" y2="224" gradientTransform="matrix(1,0,0,-1,69,409)" gradientUnits="userSpaceOnUse" xlink:href="#linearGradient4942"/><linearGradient id="linearGradient5087" x1="33" x2="48" y1="224" y2="224" gradientTransform="translate(64)" gradientUnits="userSpaceOnUse" xlink:href="#linearGradient4942"/><linearGradient id="linearGradient5135" x1="31.704" x2="46.77" y1="234.323" y2="234.323" gradientTransform="matrix(2.1239861,0,0,-2.1528055,92.66049,620.45088)" gradientUnits="userSpaceOnUse" xlink:href="#linearGradient4942"/><linearGradient id="linearGradient5137" x1="29.35" x2="48" y1="225.961" y2="224" gradientTransform="matrix(2.1239861,0,0,-2.1528055,100.66049,556.45088)" gradientUnits="userSpaceOnUse" xlink:href="#linearGradient4942"/><linearGradient id="linearGradient5139" x1="33" x2="48" y1="224" y2="224" gradientTransform="matrix(1,0,0,-1,133,409)" gradientUnits="userSpaceOnUse" xlink:href="#linearGradient4942"/><linearGradient id="linearGradient5141" x1="33" x2="48" y1="224" y2="224" gradientTransform="translate(128)" gradientUnits="userSpaceOnUse" xlink:href="#linearGradient4942"/><linearGradient id="linearGradient5195" x1="31.704" x2="46.77" y1="234.323" y2="234.323" gradientTransform="matrix(2.1239861,0,0,-2.1528055,156.66049,620.45088)" gradientUnits="userSpaceOnUse" xlink:href="#linearGradient4942"/><linearGradient id="linearGradient5197" x1="29.35" x2="48" y1="225.961" y2="224" gradientTransform="matrix(2.1239861,0,0,-2.1528055,164.66049,556.45088)" gradientUnits="userSpaceOnUse" xlink:href="#linearGradient4942"/><linearGradient id="linearGradient5199" x1="33" x2="48" y1="224" y2="224" gradientTransform="matrix(1,0,0,-1,197,409)" gradientUnits="userSpaceOnUse" xlink:href="#linearGradient4942"/><linearGradient id="linearGradient5201" x1="33" x2="48" y1="224" y2="224" gradientTransform="translate(192)" gradientUnits="userSpaceOnUse" xlink:href="#linearGradient4942"/></defs><metadata id="metadata4"/><g id="layer3" style="display:none"><rect style="display:inline;opacity:1;fill:#4f555d;fill-opacity:1;stroke:none;stroke-width:2.12916255;stroke-linecap:square;stroke-linejoin:miter;stroke-miterlimit:4;stroke-dasharray:none;stroke-dashoffset:0;stroke-opacity:1;enable-background:new" id="rect5239" width="680" height="320" x="0" y="0"/></g><g style="display:inline" id="g5228" transform="translate(0,20)"><g style="display:none" id="g5192"><rect id="rect5174" width="32" height="32" x="32" y="116" style="display:inline;overflow:visible;visibility:visible;fill:#eeeeec;fill-opacity:1;fill-rule:nonzero;stroke:none;stroke-width:2;marker:none;enable-background:accumulate"/><rect style="display:inline;overflow:visible;visibility:visible;fill:#eeeeec;fill-opacity:1;fill-rule:nonzero;stroke:none;stroke-width:2;marker:none;enable-background:accumulate" id="rect5176" width="22" height="22" x="33" y="-194.941" transform="scale(1,-1)"/><rect id="rect5178" width="16" height="16" x="32" y="220" style="display:inline;overflow:visible;visibility:visible;fill:#eeeeec;fill-opacity:1;fill-rule:nonzero;stroke:none;stroke-width:2;marker:none;enable-background:accumulate"/><rect id="rect5180" width="24" height="24" x="32" y="-196" transform="scale(1,-1)" style="display:inline;overflow:visible;visibility:visible;fill:#eeeeec;fill-opacity:1;fill-rule:nonzero;stroke:none;stroke-width:2;marker:none;enable-background:accumulate"/><text id="text5184" x="31.856" y="-65.7" xml:space="preserve" style="font-style:normal;font-variant:normal;font-weight:400;font-stretch:normal;font-size:13.33333302px;line-height:125%;font-family:monospace;-inkscape-font-specification:monospace;text-align:start;writing-mode:lr-tb;text-anchor:start;display:inline;fill:#000;fill-opacity:1;stroke:none;enable-background:new"><tspan style="font-weight:700" id="tspan5182" x="31.856" y="-65.7">actions</tspan></text><text style="font-style:normal;font-variant:normal;font-weight:400;font-stretch:normal;font-size:13.33333302px;line-height:125%;font-family:monospace;-inkscape-font-specification:monospace;text-align:start;writing-mode:lr-tb;text-anchor:start;display:inline;fill:#000;fill-opacity:1;stroke:none;enable-background:new" id="text5188" x="31.265" y="-39.901" xml:space="preserve"><tspan id="tspan5186" x="31.265" y="-39.901">format-justify-center</tspan></text><rect style="display:inline;overflow:visible;visibility:visible;fill:#eeeeec;fill-opacity:1;fill-rule:nonzero;stroke:none;stroke-width:2;marker:none;enable-background:accumulate" id="rect5190" width="48" height="48" x="44" y="32" transform="matrix(0,1,1,0,0,0)"/></g><g style="display:inline" id="g5226"><path style="opacity:.8;fill:none;fill-opacity:1;stroke:#020202;stroke-width:2;stroke-linecap:round;stroke-linejoin:round;stroke-miterlimit:4;stroke-dasharray:none;stroke-dashoffset:0;stroke-opacity:1" id="rect4900" d="m 36,243 v 1 h 8 v -1 z m -2,4 v 1 h 12 v -1 z m 3,4 v 1 h 6 v -1 z" transform="translate(0,-20)"/><path style="opacity:1;fill:url(#linearGradient4948);fill-opacity:1;stroke:none;stroke-width:2;stroke-linecap:round;stroke-linejoin:round;stroke-miterlimit:4;stroke-dasharray:none;stroke-dashoffset:0;stroke-opacity:1" id="rect4894" d="m 36,243 v 1 h 8 v -1 z m -2,4 v 1 h 12 v -1 z m 3,4 v 1 h 6 v -1 z" transform="translate(0,-20)"/><g id="g4997"><path id="path4981" d="m 40,190 v -1 h 8 v 1 z m -2,-4 v -1 h 12 v 1 z m -2,-4 v -1 h 16 v 1 z m 4,-4 v -1 h 8 v 1 z" style="opacity:.8;fill:none;fill-opacity:1;stroke:#020202;stroke-width:2;stroke-linecap:round;stroke-linejoin:round;stroke-miterlimit:4;stroke-dasharray:none;stroke-dashoffset:0;stroke-opacity:1"/><path id="path4983" d="m 40,190 v -1 h 8 v 1 z m -2,-4 v -1 h 12 v 1 z m -2,-4 v -1 h 16 v 1 z m 4,-4 v -1 h 8 v 1 z" style="opacity:1;fill:url(#linearGradient4985);fill-opacity:1;stroke:none;stroke-width:2;stroke-linecap:round;stroke-linejoin:round;stroke-miterlimit:4;stroke-dasharray:none;stroke-dashoffset:0;stroke-opacity:1"/></g><path id="path4999" d="m 47,80 v -2 h 18 v 2 z m -4,-7 v -2 h 25 v 2 z m -2,-7 0.01622,-2 H 71 l -0.01622,2 z m 6,-7 V 57.000003 H 64 V 59 Z" style="opacity:.8;fill:none;fill-opacity:1;stroke:#020202;stroke-width:2;stroke-linecap:round;stroke-linejoin:round;stroke-miterlimit:4;stroke-dasharray:none;stroke-dashoffset:0;stroke-opacity:1"/><path id="path5001" d="m 47,80 v -2 h 18 v 2 z m -4,-7 v -2 h 25 v 2 z m -2,-7 0.01622,-2 H 71 l -0.01622,2 z m 6,-7 V 57.000003 H 64 V 59 Z" style="opacity:1;fill:url(#linearGradient5007);fill-opacity:1;stroke:none;stroke-width:2;stroke-linecap:round;stroke-linejoin:round;stroke-miterlimit:4;stroke-dasharray:none;stroke-dashoffset:0;stroke-opacity:1"/><path style="opacity:.8;fill:none;fill-opacity:1;stroke:#020202;stroke-width:2;stroke-linecap:round;stroke-linejoin:round;stroke-miterlimit:4;stroke-dasharray:none;stroke-dashoffset:0;stroke-opacity:1" id="path5011" d="m 40,142 v -2 h 16 v 2 z m -3,-6 v -2 h 22 v 2 z m -2,-6 0.01622,-2 H 61 l -0.01622,2 z m 4,-6 0.0081,-2.00047 H 56 L 55.991889,124 Z"/><path style="opacity:1;fill:url(#linearGradient5015);fill-opacity:1;stroke:none;stroke-width:2;stroke-linecap:round;stroke-linejoin:round;stroke-miterlimit:4;stroke-dasharray:none;stroke-dashoffset:0;stroke-opacity:1" id="path5013" d="m 40,142 v -2 h 16 v 2 z m -3,-6 v -2 h 22 v 2 z m -2,-6 0.01622,-2 H 61 l -0.01622,2 z m 4,-6 0.0081,-2.00047 H 56 L 55.991889,124 Z"/><path style="opacity:.3;fill:#fff;fill-opacity:1;stroke:none;stroke-width:2;stroke-linecap:round;stroke-linejoin:round;stroke-miterlimit:4;stroke-dasharray:none;stroke-dashoffset:0;stroke-opacity:1" id="path5017" d="m 39.007812,142 v 1 H 56 v -1 z M 35.015625,148 35,150 h 0.0078 l 0.0078,-1 H 60.992188 L 61,148 Z M 37,154 v 1 h 22 v -1 z m 3,6 v 1 h 16 v -1 z" transform="translate(0,-20)"/><path style="opacity:.3;fill:#fff;fill-opacity:1;stroke:none;stroke-width:2;stroke-linecap:round;stroke-linejoin:round;stroke-miterlimit:4;stroke-dasharray:none;stroke-dashoffset:0;stroke-opacity:1" id="path5026" d="m 47,77 v 1 H 64.000299 V 77 Z M 41.015625,84 41,86 h 0.0078 l 0.0078,-1 H 70.992188 L 71,84 Z M 43,91 v 1 h 25 v -1 z m 4,7 v 1 h 18 v -1 z" transform="translate(0,-20)"/></g></g><g id="g5079" transform="translate(0,20)" style="display:inline"><g id="g5053" style="display:none"><rect style="display:inline;overflow:visible;visibility:visible;fill:#eeeeec;fill-opacity:1;fill-rule:nonzero;stroke:none;stroke-width:2;marker:none;enable-background:accumulate" id="rect5035" width="32" height="32" x="96" y="116"/><rect id="rect5037" width="22" height="22" x="97" y="-194.941" transform="scale(1,-1)" style="display:inline;overflow:visible;visibility:visible;fill:#eeeeec;fill-opacity:1;fill-rule:nonzero;stroke:none;stroke-width:2;marker:none;enable-background:accumulate"/><rect style="display:inline;overflow:visible;visibility:visible;fill:#eeeeec;fill-opacity:1;fill-rule:nonzero;stroke:none;stroke-width:2;marker:none;enable-background:accumulate" id="rect5039" width="16" height="16" x="96" y="220"/><rect style="display:inline;overflow:visible;visibility:visible;fill:#eeeeec;fill-opacity:1;fill-rule:nonzero;stroke:none;stroke-width:2;marker:none;enable-background:accumulate" id="rect5041" width="24" height="24" x="96" y="-196" transform="scale(1,-1)"/><text style="font-style:normal;font-variant:normal;font-weight:400;font-stretch:normal;font-size:13.33333302px;line-height:125%;font-family:monospace;-inkscape-font-specification:monospace;text-align:start;writing-mode:lr-tb;text-anchor:start;display:inline;fill:#000;fill-opacity:1;stroke:none;enable-background:new" id="text5045" x="31.856" y="-65.7" xml:space="preserve"><tspan id="tspan5043" x="31.856" y="-65.7" style="font-weight:700">actions</tspan></text><text id="text5049" x="31.265" y="-39.901" xml:space="preserve" style="font-style:normal;font-variant:normal;font-weight:400;font-stretch:normal;font-size:13.33333302px;line-height:125%;font-family:monospace;-inkscape-font-specification:monospace;text-align:start;writing-mode:lr-tb;text-anchor:start;display:inline;fill:#000;fill-opacity:1;stroke:none;enable-background:new"><tspan id="tspan5047" x="31.265" y="-39.901">format-justify-left</tspan></text><rect id="rect5051" width="48" height="48" x="44" y="96" transform="matrix(0,1,1,0,0,0)" style="display:inline;overflow:visible;visibility:visible;fill:#eeeeec;fill-opacity:1;fill-rule:nonzero;stroke:none;stroke-width:2;marker:none;enable-background:accumulate"/></g><g id="g5077" style="display:inline"><path id="path5055" d="m 98,223 v 1 h 8 v -1 z m 0,4 v 1 h 12 v -1 z m 0,4 v 1 h 6 v -1 z" style="opacity:.8;fill:none;fill-opacity:1;stroke:#020202;stroke-width:2;stroke-linecap:round;stroke-linejoin:round;stroke-miterlimit:4;stroke-dasharray:none;stroke-dashoffset:0;stroke-opacity:1"/><path id="path5057" d="m 98,223 v 1 h 8 v -1 z m 0,4 v 1 h 12 v -1 z m 0,4 v 1 h 6 v -1 z" style="opacity:1;fill:url(#linearGradient5087);fill-opacity:1;stroke:none;stroke-width:2;stroke-linecap:round;stroke-linejoin:round;stroke-miterlimit:4;stroke-dasharray:none;stroke-dashoffset:0;stroke-opacity:1"/><path id="path5059" d="m 100,190 v -1 h 8 v 1 z m 0,-4 v -1 h 12 v 1 z m 0,-4 v -1 h 16 v 1 z m 0,-4 v -1 h 8 v 1 z" style="opacity:.8;fill:none;fill-opacity:1;stroke:#020202;stroke-width:2;stroke-linecap:round;stroke-linejoin:round;stroke-miterlimit:4;stroke-dasharray:none;stroke-dashoffset:0;stroke-opacity:1"/><path id="path5061" d="m 100,190 v -1 h 8 v 1 z m 0,-4 v -1 h 12 v 1 z m 0,-4 v -1 h 16 v 1 z m 0,-4 v -1 h 8 v 1 z" style="opacity:1;fill:url(#linearGradient5085);fill-opacity:1;stroke:none;stroke-width:2;stroke-linecap:round;stroke-linejoin:round;stroke-miterlimit:4;stroke-dasharray:none;stroke-dashoffset:0;stroke-opacity:1"/><path style="opacity:.8;fill:none;fill-opacity:1;stroke:#020202;stroke-width:2;stroke-linecap:round;stroke-linejoin:round;stroke-miterlimit:4;stroke-dasharray:none;stroke-dashoffset:0;stroke-opacity:1" id="path5065" d="m 105,80 v -2 h 18 v 2 z m 0,-7 v -2 h 25 v 2 z m 0,-7 0.0162,-2 H 135 l -0.0162,2 z M 105.008,59 105,57.000003 h 16.99189 L 122,59 Z"/><path style="opacity:1;fill:url(#linearGradient5083);fill-opacity:1;stroke:none;stroke-width:2;stroke-linecap:round;stroke-linejoin:round;stroke-miterlimit:4;stroke-dasharray:none;stroke-dashoffset:0;stroke-opacity:1" id="path5067" d="m 105,80 v -2 h 18 v 2 z m 0,-7 v -2 h 25 v 2 z m 0,-7 0.0162,-2 H 135 l -0.0162,2 z M 105.008,59 105,57.000003 h 16.99189 L 122,59 Z"/><path id="path5069" d="m 99,142 v -2 h 16 v 2 z m 0,-6 v -2 h 22 v 2 z m 0,-6 0.01622,-2 H 125 l -0.0162,2 z m 0.0081,-6 -0.0078,-2.00047 h 16.99189 L 116,124 Z" style="opacity:.8;fill:none;fill-opacity:1;stroke:#020202;stroke-width:2;stroke-linecap:round;stroke-linejoin:round;stroke-miterlimit:4;stroke-dasharray:none;stroke-dashoffset:0;stroke-opacity:1"/><path id="path5071" d="m 99,142 v -2 h 16 v 2 z m 0,-6 v -2 h 22 v 2 z m 0,-6 0.01622,-2 H 125 l -0.0162,2 z m 0.0081,-6 -0.0078,-2.00047 h 16.99189 L 116,124 Z" style="opacity:1;fill:url(#linearGradient5081);fill-opacity:1;stroke:none;stroke-width:2;stroke-linecap:round;stroke-linejoin:round;stroke-miterlimit:4;stroke-dasharray:none;stroke-dashoffset:0;stroke-opacity:1"/><path id="path5073" d="m 99,122 v 1 h 16.99219 v -1 z m 0.01563,6 L 99,130 h 0.0078 l 0.0078,-1 h 25.97659 L 125,128 Z M 99,134 v 1 h 22 v -1 z m 0,6 v 1 h 16 v -1 z" style="opacity:.3;fill:#fff;fill-opacity:1;stroke:none;stroke-width:2;stroke-linecap:round;stroke-linejoin:round;stroke-miterlimit:4;stroke-dasharray:none;stroke-dashoffset:0;stroke-opacity:1"/><path id="path5075" d="m 105,57 v 1 h 16.99219 v -1 z m 0.0156,7 L 105,66 h 0.008 l 0.008,-1 h 29.97659 L 135,64 Z M 105,71 v 1 h 25 v -1 z m 0,7 v 1 h 18 v -1 z" style="opacity:.3;fill:#fff;fill-opacity:1;stroke:none;stroke-width:2;stroke-linecap:round;stroke-linejoin:round;stroke-miterlimit:4;stroke-dasharray:none;stroke-dashoffset:0;stroke-opacity:1"/></g></g><g style="display:inline" id="g5133" transform="translate(0,20)"><g style="display:none" id="g5109"><rect id="rect5091" width="32" height="32" x="-192" y="116" transform="scale(-1,1)" style="display:inline;overflow:visible;visibility:visible;fill:#eeeeec;fill-opacity:1;fill-rule:nonzero;stroke:none;stroke-width:2;marker:none;enable-background:accumulate"/><rect style="display:inline;overflow:visible;visibility:visible;fill:#eeeeec;fill-opacity:1;fill-rule:nonzero;stroke:none;stroke-width:2;marker:none;enable-background:accumulate" id="rect5093" width="22" height="22" x="-183" y="-194.941" transform="scale(-1)"/><rect id="rect5095" width="16" height="16" x="-176" y="220" transform="scale(-1,1)" style="display:inline;overflow:visible;visibility:visible;fill:#eeeeec;fill-opacity:1;fill-rule:nonzero;stroke:none;stroke-width:2;marker:none;enable-background:accumulate"/><rect id="rect5097" width="24" height="24" x="-184" y="-196" transform="scale(-1)" style="display:inline;overflow:visible;visibility:visible;fill:#eeeeec;fill-opacity:1;fill-rule:nonzero;stroke:none;stroke-width:2;marker:none;enable-background:accumulate"/><text id="text5101" x="31.856" y="-65.7" xml:space="preserve" style="font-style:normal;font-variant:normal;font-weight:400;font-stretch:normal;font-size:13.33333302px;line-height:125%;font-family:monospace;-inkscape-font-specification:monospace;text-align:start;writing-mode:lr-tb;text-anchor:start;display:inline;fill:#000;fill-opacity:1;stroke:none;enable-background:new"><tspan style="font-weight:700" id="tspan5099" x="31.856" y="-65.7">actions</tspan></text><text style="font-style:normal;font-variant:normal;font-weight:400;font-stretch:normal;font-size:13.33333302px;line-height:125%;font-family:monospace;-inkscape-font-specification:monospace;text-align:start;writing-mode:lr-tb;text-anchor:start;display:inline;fill:#000;fill-opacity:1;stroke:none;enable-background:new" id="text5105" x="31.265" y="-39.901" xml:space="preserve"><tspan id="tspan5103" x="31.265" y="-39.901">format-justify-right</tspan></text><rect style="display:inline;overflow:visible;visibility:visible;fill:#eeeeec;fill-opacity:1;fill-rule:nonzero;stroke:none;stroke-width:2;marker:none;enable-background:accumulate" id="rect5107" width="48" height="48" x="44" y="-208" transform="rotate(90)"/></g><g style="display:inline" id="g5131"><path style="opacity:.8;fill:none;fill-opacity:1;stroke:#020202;stroke-width:2;stroke-linecap:round;stroke-linejoin:round;stroke-miterlimit:4;stroke-dasharray:none;stroke-dashoffset:0;stroke-opacity:1" id="path5111" d="m 174,223 v 1 h -8 v -1 z m 0,4 v 1 h -12 v -1 z m 0,4 v 1 h -6 v -1 z"/><path style="opacity:1;fill:url(#linearGradient5141);fill-opacity:1;stroke:none;stroke-width:2;stroke-linecap:round;stroke-linejoin:round;stroke-miterlimit:4;stroke-dasharray:none;stroke-dashoffset:0;stroke-opacity:1" id="path5113" d="m 174,223 v 1 h -8 v -1 z m 0,4 v 1 h -12 v -1 z m 0,4 v 1 h -6 v -1 z"/><path style="opacity:.8;fill:none;fill-opacity:1;stroke:#020202;stroke-width:2;stroke-linecap:round;stroke-linejoin:round;stroke-miterlimit:4;stroke-dasharray:none;stroke-dashoffset:0;stroke-opacity:1" id="path5115" d="m 180,190 v -1 h -8 v 1 z m 0,-4 v -1 h -12 v 1 z m 0,-4 v -1 h -16 v 1 z m 0,-4 v -1 h -8 v 1 z"/><path style="opacity:1;fill:url(#linearGradient5139);fill-opacity:1;stroke:none;stroke-width:2;stroke-linecap:round;stroke-linejoin:round;stroke-miterlimit:4;stroke-dasharray:none;stroke-dashoffset:0;stroke-opacity:1" id="path5117" d="m 180,190 v -1 h -8 v 1 z m 0,-4 v -1 h -12 v 1 z m 0,-4 v -1 h -16 v 1 z m 0,-4 v -1 h -8 v 1 z"/><path id="path5119" d="m 199,80 v -2 h -18 v 2 z m 0,-7 v -2 h -25 v 2 z m 0,-7 -0.0162,-2 H 169 l 0.0162,2 z M 198.992,59 199,57.000003 H 182.00811 L 182,59 Z" style="opacity:.8;fill:none;fill-opacity:1;stroke:#020202;stroke-width:2;stroke-linecap:round;stroke-linejoin:round;stroke-miterlimit:4;stroke-dasharray:none;stroke-dashoffset:0;stroke-opacity:1"/><path id="path5121" d="m 199,80 v -2 h -18 v 2 z m 0,-7 v -2 h -25 v 2 z m 0,-7 -0.0162,-2 H 169 l 0.0162,2 z M 198.992,59 199,57.000003 H 182.00811 L 182,59 Z" style="opacity:1;fill:url(#linearGradient5137);fill-opacity:1;stroke:none;stroke-width:2;stroke-linecap:round;stroke-linejoin:round;stroke-miterlimit:4;stroke-dasharray:none;stroke-dashoffset:0;stroke-opacity:1"/><path style="opacity:.8;fill:none;fill-opacity:1;stroke:#020202;stroke-width:2;stroke-linecap:round;stroke-linejoin:round;stroke-miterlimit:4;stroke-dasharray:none;stroke-dashoffset:0;stroke-opacity:1" id="path5123" d="m 189,142 v -2 h -16 v 2 z m 0,-6 v -2 h -22 v 2 z m 0,-6 -0.0162,-2 H 163 l 0.0162,2 z m -0.008,-6 0.008,-2.00047 H 172.00811 L 172,124 Z"/><path style="opacity:1;fill:url(#linearGradient5135);fill-opacity:1;stroke:none;stroke-width:2;stroke-linecap:round;stroke-linejoin:round;stroke-miterlimit:4;stroke-dasharray:none;stroke-dashoffset:0;stroke-opacity:1" id="path5125" d="m 189,142 v -2 h -16 v 2 z m 0,-6 v -2 h -22 v 2 z m 0,-6 -0.0162,-2 H 163 l 0.0162,2 z m -0.008,-6 0.008,-2.00047 H 172.00811 L 172,124 Z"/><path style="opacity:.3;fill:#fff;fill-opacity:1;stroke:none;stroke-width:2;stroke-linecap:round;stroke-linejoin:round;stroke-miterlimit:4;stroke-dasharray:none;stroke-dashoffset:0;stroke-opacity:1" id="path5127" d="m 189,122 v 1 h -16.99219 v -1 z m -0.0156,6 0.0156,2 h -0.008 l -0.008,-1 H 163.00741 L 163,128 Z M 189,134 v 1 h -22 v -1 z m 0,6 v 1 h -16 v -1 z"/><path style="opacity:.3;fill:#fff;fill-opacity:1;stroke:none;stroke-width:2;stroke-linecap:round;stroke-linejoin:round;stroke-miterlimit:4;stroke-dasharray:none;stroke-dashoffset:0;stroke-opacity:1" id="path5129" d="m 199,57 v 1 h -16.99219 v -1 z m -0.0156,7 0.0156,2 h -0.008 l -0.008,-1 H 169.00741 L 169,64 Z M 199,71 v 1 h -25 v -1 z m 0,7 v 1 h -18 v -1 z"/></g></g><g id="g5185" transform="translate(0,20)" style="display:inline"><g id="g5161" style="display:none"><rect style="display:inline;overflow:visible;visibility:visible;fill:#eeeeec;fill-opacity:1;fill-rule:nonzero;stroke:none;stroke-width:2;marker:none;enable-background:accumulate" id="rect5143" width="32" height="32" x="-256" y="116" transform="scale(-1,1)"/><rect id="rect5145" width="22" height="22" x="-247" y="-194.941" transform="scale(-1)" style="display:inline;overflow:visible;visibility:visible;fill:#eeeeec;fill-opacity:1;fill-rule:nonzero;stroke:none;stroke-width:2;marker:none;enable-background:accumulate"/><rect style="display:inline;overflow:visible;visibility:visible;fill:#eeeeec;fill-opacity:1;fill-rule:nonzero;stroke:none;stroke-width:2;marker:none;enable-background:accumulate" id="rect5147" width="16" height="16" x="-240" y="220" transform="scale(-1,1)"/><rect style="display:inline;overflow:visible;visibility:visible;fill:#eeeeec;fill-opacity:1;fill-rule:nonzero;stroke:none;stroke-width:2;marker:none;enable-background:accumulate" id="rect5149" width="24" height="24" x="-248" y="-196" transform="scale(-1)"/><text style="font-style:normal;font-variant:normal;font-weight:400;font-stretch:normal;font-size:13.33333302px;line-height:125%;font-family:monospace;-inkscape-font-specification:monospace;text-align:start;writing-mode:lr-tb;text-anchor:start;display:inline;fill:#000;fill-opacity:1;stroke:none;enable-background:new" id="text5153" x="31.856" y="-65.7" xml:space="preserve"><tspan id="tspan5151" x="31.856" y="-65.7" style="font-weight:700">actions</tspan></text><text id="text5157" x="31.265" y="-39.901" xml:space="preserve" style="font-style:normal;font-variant:normal;font-weight:400;font-stretch:normal;font-size:13.33333302px;line-height:125%;font-family:monospace;-inkscape-font-specification:monospace;text-align:start;writing-mode:lr-tb;text-anchor:start;display:inline;fill:#000;fill-opacity:1;stroke:none;enable-background:new"><tspan id="tspan5155" x="31.265" y="-39.901">format-justify-fill</tspan></text><rect id="rect5159" width="48" height="48" x="44" y="-272" transform="rotate(90)" style="display:inline;overflow:visible;visibility:visible;fill:#eeeeec;fill-opacity:1;fill-rule:nonzero;stroke:none;stroke-width:2;marker:none;enable-background:accumulate"/></g><g id="g5183" style="display:inline"><path id="path5163" d="m 238,223 v 1 h -12 v -1 z m 0,4 v 1 h -12 v -1 z m 0,4 v 1 h -12 v -1 z" style="opacity:.8;fill:none;fill-opacity:1;stroke:#020202;stroke-width:2;stroke-linecap:round;stroke-linejoin:round;stroke-miterlimit:4;stroke-dasharray:none;stroke-dashoffset:0;stroke-opacity:1"/><path id="path5165" d="m 238,223 v 1 h -12 v -1 z m 0,4 v 1 h -12 v -1 z m 0,4 v 1 h -12 v -1 z" style="opacity:1;fill:url(#linearGradient5201);fill-opacity:1;stroke:none;stroke-width:2;stroke-linecap:round;stroke-linejoin:round;stroke-miterlimit:4;stroke-dasharray:none;stroke-dashoffset:0;stroke-opacity:1"/><path id="path5167" d="m 244,190 v -1 h -16 v 1 z m 0,-4 v -1 h -16 v 1 z m 0,-4 v -1 h -16 v 1 z m 0,-4 v -1 h -16 v 1 z" style="opacity:.8;fill:none;fill-opacity:1;stroke:#020202;stroke-width:2;stroke-linecap:round;stroke-linejoin:round;stroke-miterlimit:4;stroke-dasharray:none;stroke-dashoffset:0;stroke-opacity:1"/><path id="path5169" d="m 244,190 v -1 h -16 v 1 z m 0,-4 v -1 h -16 v 1 z m 0,-4 v -1 h -16 v 1 z m 0,-4 v -1 h -16 v 1 z" style="opacity:1;fill:url(#linearGradient5199);fill-opacity:1;stroke:none;stroke-width:2;stroke-linecap:round;stroke-linejoin:round;stroke-miterlimit:4;stroke-dasharray:none;stroke-dashoffset:0;stroke-opacity:1"/><path style="opacity:.8;fill:none;fill-opacity:1;stroke:#020202;stroke-width:2;stroke-linecap:round;stroke-linejoin:round;stroke-miterlimit:4;stroke-dasharray:none;stroke-dashoffset:0;stroke-opacity:1" id="path5171" d="m 263,80 v -2 h -30 v 2 z m 0,-7 v -2 h -30 v 2 z m 0,-7 -0.0162,-2 H 233 l 0.0162,2 z M 262.992,59 263,57.000003 H 233.00811 L 233,59 Z"/><path style="opacity:1;fill:url(#linearGradient5197);fill-opacity:1;stroke:none;stroke-width:2;stroke-linecap:round;stroke-linejoin:round;stroke-miterlimit:4;stroke-dasharray:none;stroke-dashoffset:0;stroke-opacity:1" id="path5173" d="m 263,80 v -2 h -30 v 2 z m 0,-7 v -2 h -30 v 2 z m 0,-7 -0.0162,-2 H 233 l 0.0162,2 z M 262.992,59 263,57.000003 H 233.00811 L 233,59 Z"/><path id="path5175" d="m 253,142 v -2 h -26 v 2 z m 0,-6 v -2 h -26 v 2 z m 0,-6 -0.0162,-2 H 227 l 0.0162,2 z m -0.008,-6 0.008,-2.00047 H 227.00811 L 227,124 Z" style="opacity:.8;fill:none;fill-opacity:1;stroke:#020202;stroke-width:2;stroke-linecap:round;stroke-linejoin:round;stroke-miterlimit:4;stroke-dasharray:none;stroke-dashoffset:0;stroke-opacity:1"/><path id="path5177" d="m 253,142 v -2 h -26 v 2 z m 0,-6 v -2 h -26 v 2 z m 0,-6 -0.0162,-2 H 227 l 0.0162,2 z m -0.008,-6 0.008,-2.00047 H 227.00811 L 227,124 Z" style="opacity:1;fill:url(#linearGradient5195);fill-opacity:1;stroke:none;stroke-width:2;stroke-linecap:round;stroke-linejoin:round;stroke-miterlimit:4;stroke-dasharray:none;stroke-dashoffset:0;stroke-opacity:1"/><path id="path5179" d="m 253,122 v 1 h -25.99219 v -1 z m -0.0156,6 0.0156,2 h -0.008 l -0.008,-1 H 227.00741 L 227,128 Z M 253,134 v 1 h -26 v -1 z m 0,6 v 1 h -26 v -1 z" style="opacity:.3;fill:#fff;fill-opacity:1;stroke:none;stroke-width:2;stroke-linecap:round;stroke-linejoin:round;stroke-miterlimit:4;stroke-dasharray:none;stroke-dashoffset:0;stroke-opacity:1"/><path id="path5181" d="m 263,57 v 1 h -29.99219 v -1 z m -0.0156,7 0.0156,2 h -0.008 l -0.008,-1 H 233.00741 L 233,64 Z M 263,71 v 1 h -30 v -1 z m 0,7 v 1 h -30 v -1 z" style="opacity:.3;fill:#fff;fill-opacity:1;stroke:none;stroke-width:2;stroke-linecap:round;stroke-linejoin:round;stroke-miterlimit:4;stroke-dasharray:none;stroke-dashoffset:0;stroke-opacity:1"/></g></g></svg>