<svg xmlns="http://www.w3.org/2000/svg" xmlns:osb="http://www.openswatchbook.org/uri/2009/osb" xmlns:svg="http://www.w3.org/2000/svg" xmlns:xlink="http://www.w3.org/1999/xlink" id="svg11300" width="400" height="320" version="1.0" viewBox="0 0 400 320" style="display:inline;enable-background:new"><title id="title4162">Solus Icon Template</title><defs id="defs3"><linearGradient id="linearGradient5183"><stop style="stop-color:#fff;stop-opacity:1" id="stop5179" offset="0"/><stop style="stop-color:#fff;stop-opacity:0" id="stop5181" offset="1"/></linearGradient><linearGradient id="linearGradient5606" osb:paint="solid"><stop style="stop-color:#000;stop-opacity:1" id="stop5608" offset="0"/></linearGradient><linearGradient id="linearGradient6882" osb:paint="solid"><stop style="stop-color:#555;stop-opacity:1" id="stop6884" offset="0"/></linearGradient><linearGradient id="linearGradient4568"><stop style="stop-color:#d9c4de;stop-opacity:1" id="stop4564" offset="0"/><stop style="stop-color:#a984b8;stop-opacity:1" id="stop4566" offset="1"/></linearGradient><linearGradient id="linearGradient5133" x1="388.202" x2="398.101" y1="-75.66" y2="-65.761" gradientUnits="userSpaceOnUse" xlink:href="#linearGradient4568"/><linearGradient id="linearGradient5149" x1="388.202" x2="398.101" y1="-75.66" y2="-65.761" gradientTransform="matrix(1.4005041,0,0,1.4005041,-185.74264,-5.6115739)" gradientUnits="userSpaceOnUse" xlink:href="#linearGradient4568"/><linearGradient id="linearGradient5153" x1="388.202" x2="398.101" y1="-75.66" y2="-65.761" gradientTransform="matrix(1.9008667,0,0,1.9008667,-416.40187,-9.8251468)" gradientUnits="userSpaceOnUse" xlink:href="#linearGradient4568"/><linearGradient id="linearGradient5157" x1="388.202" x2="398.101" y1="-75.66" y2="-65.761" gradientTransform="matrix(2.6578055,0,0,2.6578055,-753.59113,-7.2079797)" gradientUnits="userSpaceOnUse" xlink:href="#linearGradient4568"/><linearGradient id="linearGradient5161" x1="388.202" x2="398.101" y1="-75.66" y2="-65.761" gradientTransform="matrix(14.592826,0,0,14.592826,-5525.0533,1017.8266)" gradientUnits="userSpaceOnUse" xlink:href="#linearGradient4568"/><linearGradient id="linearGradient5185" x1="277.893" x2="291.328" y1="-208.596" y2="-195.161" gradientUnits="userSpaceOnUse" xlink:href="#linearGradient5183"/><linearGradient id="linearGradient5189" x1="277.893" x2="291.328" y1="-208.596" y2="-195.161" gradientTransform="matrix(0.69965754,0,0,0.69965754,127.09613,-7.6990494)" gradientUnits="userSpaceOnUse" xlink:href="#linearGradient5183"/><linearGradient id="linearGradient5193" x1="277.893" x2="291.328" y1="-208.596" y2="-195.161" gradientTransform="matrix(0.49248228,0,0,0.49248228,221.39325,-8.5368779)" gradientUnits="userSpaceOnUse" xlink:href="#linearGradient5183"/><linearGradient id="linearGradient5197" x1="277.893" x2="291.328" y1="-208.596" y2="-195.161" gradientTransform="matrix(0.3335844,0,0,0.3335844,-167.89785,458.25509)" gradientUnits="userSpaceOnUse" xlink:href="#linearGradient5183"/><filter style="color-interpolation-filters:sRGB" id="filter5205" width="1.024" height="1.024" x="-.012" y="-.012"><feGaussianBlur id="feGaussianBlur5207" stdDeviation="1.14"/></filter><filter style="color-interpolation-filters:sRGB" id="filter5211" width="1.12" height="1.12" x="-.06" y="-.06"><feGaussianBlur id="feGaussianBlur5213" stdDeviation="5.7"/></filter></defs><metadata id="metadata4"/><g id="layer1" transform="translate(0,20)" style="display:inline"><g id="layer7" style="display:none"><rect style="display:inline;overflow:visible;visibility:visible;fill:#eeeeec;fill-opacity:1;fill-rule:nonzero;stroke:none;stroke-width:2;marker:none;enable-background:accumulate" id="rect6592" width="32" height="32" x="320" y="116"/><rect id="rect6749" width="22" height="22" x="321" y="173.059" style="display:inline;overflow:visible;visibility:visible;fill:#eeeeec;fill-opacity:1;fill-rule:nonzero;stroke:none;stroke-width:2;marker:none;enable-background:accumulate"/><rect style="display:inline;overflow:visible;visibility:visible;fill:#eeeeec;fill-opacity:1;fill-rule:nonzero;stroke:none;stroke-width:2;marker:none;enable-background:accumulate" id="rect6833" width="16" height="16" x="320" y="220"/><rect style="display:inline;overflow:visible;visibility:visible;fill:#eeeeec;fill-opacity:1;fill-rule:nonzero;stroke:none;stroke-width:2;marker:none;enable-background:accumulate" id="rect8104" width="24" height="24" x="320" y="172"/><text style="font-style:normal;font-variant:normal;font-weight:400;font-stretch:normal;font-size:13.33333302px;line-height:125%;font-family:monospace;-inkscape-font-specification:monospace;text-align:start;writing-mode:lr-tb;text-anchor:start;display:inline;fill:#000;fill-opacity:1;stroke:none;enable-background:new" id="context" x="31.856" y="-65.7" xml:space="preserve"><tspan id="tspan2716" x="31.856" y="-65.7" style="font-weight:700">mimetypes</tspan></text><text id="text3021" x="31.265" y="-39.901" xml:space="preserve" style="font-style:normal;font-variant:normal;font-weight:400;font-stretch:normal;font-size:13.33333302px;line-height:125%;font-family:monospace;-inkscape-font-specification:monospace;text-align:start;writing-mode:lr-tb;text-anchor:start;display:inline;fill:#000;fill-opacity:1;stroke:none;enable-background:new"><tspan id="tspan3023" x="31.265" y="-39.901">application-x-executable</tspan></text><rect style="display:inline;overflow:visible;visibility:visible;fill:#eeeeec;fill-opacity:1;fill-rule:nonzero;stroke:none;stroke-width:1.99999976;marker:none;enable-background:accumulate" id="rect13805" width="256" height="256" x="32" y="12"/><rect id="rect6284" width="48" height="48" x="44" y="320" transform="matrix(0,1,1,0,0,0)" style="display:inline;overflow:visible;visibility:visible;fill:#eeeeec;fill-opacity:1;fill-rule:nonzero;stroke:none;stroke-width:2;marker:none;enable-background:accumulate"/></g><g id="layer9" style="display:inline"><rect id="rect5203" width="175.256" height="175.256" x="124.504" y="-101.77" rx="24" ry="24" transform="rotate(45,-1.2071068,0.5)" style="display:inline;opacity:.5;fill:#000;fill-opacity:1;stroke:#000;stroke-width:1;stroke-linecap:round;stroke-linejoin:round;stroke-miterlimit:4;stroke-dasharray:none;stroke-dashoffset:0;stroke-opacity:1;filter:url(#filter5205);enable-background:new"/><rect style="display:inline;opacity:.2;fill:#000;fill-opacity:1;stroke:#000;stroke-width:1;stroke-linecap:round;stroke-linejoin:round;stroke-miterlimit:4;stroke-dasharray:none;stroke-dashoffset:0;stroke-opacity:1;filter:url(#filter5211);enable-background:new" id="rect5209" width="175.256" height="175.256" x="124.504" y="-101.77" rx="24" ry="24" transform="rotate(45,-1.2071068,0.5)"/><rect style="display:inline;opacity:.1;fill:#000;fill-opacity:1;stroke:#000;stroke-width:1;stroke-linecap:round;stroke-linejoin:round;stroke-miterlimit:4;stroke-dasharray:none;stroke-dashoffset:0;stroke-opacity:1;enable-background:new" id="rect5169" width="16.82" height="16.82" x="357.164" y="-112.355" rx="3.361" ry="3.361" transform="rotate(45)"/><rect id="rect5171" width="22.829" height="22.829" x="320.219" y="-154.957" rx="4" ry="4" transform="rotate(45)" style="display:inline;opacity:.1;fill:#000;fill-opacity:1;stroke:#000;stroke-width:.99999994;stroke-linecap:round;stroke-linejoin:round;stroke-miterlimit:4;stroke-dasharray:none;stroke-dashoffset:0;stroke-opacity:1;enable-background:new"/><rect style="display:inline;opacity:.1;fill:#000;fill-opacity:1;stroke:#000;stroke-width:1;stroke-linecap:round;stroke-linejoin:round;stroke-miterlimit:4;stroke-dasharray:none;stroke-dashoffset:0;stroke-opacity:1;enable-background:new" id="rect5173" width="31.92" height="31.92" x="276.075" y="-210.414" rx="5" ry="5" transform="rotate(45)"/><rect style="display:inline;opacity:1;fill:url(#linearGradient5133);fill-opacity:1;stroke:#854e9b;stroke-width:.99999994;stroke-linecap:round;stroke-linejoin:round;stroke-miterlimit:4;stroke-dasharray:none;stroke-dashoffset:0;stroke-opacity:.69803922;enable-background:new" id="rect7837" width="12.01" height="12.01" x="387.146" y="-76.722" rx="2.4" ry="2.4" transform="rotate(45)"/><rect id="rect5147" width="16.82" height="16.82" x="356.457" y="-113.062" rx="3.361" ry="3.361" transform="rotate(45)" style="display:inline;opacity:1;fill:url(#linearGradient5149);fill-opacity:1;stroke:#854e9b;stroke-width:1;stroke-linecap:round;stroke-linejoin:round;stroke-miterlimit:4;stroke-dasharray:none;stroke-dashoffset:0;stroke-opacity:.69803922;enable-background:new"/><rect style="display:inline;opacity:1;fill:url(#linearGradient5153);fill-opacity:1;stroke:#854e9b;stroke-width:.99999994;stroke-linecap:round;stroke-linejoin:round;stroke-miterlimit:4;stroke-dasharray:none;stroke-dashoffset:0;stroke-opacity:.69803922;enable-background:new" id="rect5151" width="22.829" height="22.829" x="319.512" y="-155.664" rx="4" ry="4" transform="rotate(45)"/><rect id="rect5155" width="31.92" height="31.92" x="275.368" y="-211.121" rx="5" ry="5" transform="rotate(45)" style="display:inline;opacity:1;fill:url(#linearGradient5157);fill-opacity:1;stroke:#854e9b;stroke-width:1;stroke-linecap:round;stroke-linejoin:round;stroke-miterlimit:4;stroke-dasharray:none;stroke-dashoffset:0;stroke-opacity:.69803922;enable-background:new"/><rect style="display:inline;opacity:1;fill:url(#linearGradient5161);fill-opacity:1;stroke:none;stroke-width:1;stroke-linecap:round;stroke-linejoin:round;stroke-miterlimit:4;stroke-dasharray:none;stroke-dashoffset:0;stroke-opacity:.69803922;enable-background:new" id="rect5159" width="175.256" height="175.256" x="124.504" y="-101.77" rx="24" ry="24" transform="rotate(45)"/><rect style="display:inline;opacity:.4;fill:none;fill-opacity:1;stroke:url(#linearGradient5185);stroke-width:1;stroke-linecap:round;stroke-linejoin:round;stroke-miterlimit:4;stroke-dasharray:none;stroke-dashoffset:0;stroke-opacity:1;enable-background:new" id="rect5175" width="30.216" height="30.216" x="276.22" y="-210.272" rx="4.5" ry="4.5" transform="rotate(45)"/><rect id="rect5187" width="21.141" height="21.141" x="320.356" y="-154.818" rx="3.5" ry="3.5" transform="rotate(45)" style="display:inline;opacity:.4;fill:none;fill-opacity:1;stroke:url(#linearGradient5189);stroke-width:1;stroke-linecap:round;stroke-linejoin:round;stroke-miterlimit:4;stroke-dasharray:none;stroke-dashoffset:0;stroke-opacity:1;enable-background:new"/><rect style="display:inline;opacity:.4;fill:none;fill-opacity:1;stroke:url(#linearGradient5193);stroke-width:1;stroke-linecap:round;stroke-linejoin:round;stroke-miterlimit:4;stroke-dasharray:none;stroke-dashoffset:0;stroke-opacity:1;enable-background:new" id="rect5191" width="14.881" height="14.881" x="357.427" y="-112.092" rx="2.5" ry="2.5" transform="rotate(45)"/><rect id="rect5195" width="10.08" height="10.08" x="-75.755" y="388.112" rx="1.5" ry="1.5" transform="matrix(-0.70710678,0.70710678,0.70710678,0.70710678,0,0)" style="display:inline;opacity:.4;fill:none;fill-opacity:1;stroke:url(#linearGradient5197);stroke-width:.99999994;stroke-linecap:round;stroke-linejoin:round;stroke-miterlimit:4;stroke-dasharray:none;stroke-dashoffset:0;stroke-opacity:1;enable-background:new"/><path style="display:inline;opacity:.4;fill:#fbf9fc;fill-opacity:1;stroke:none;stroke-width:1;stroke-linecap:round;stroke-linejoin:round;stroke-miterlimit:4;stroke-dasharray:none;stroke-dashoffset:0;stroke-opacity:.69803922;enable-background:new" id="rect5215" d="m 160,45.994141 c -6.13486,0 -12.26986,2.349935 -16.9707,7.050781 L 53.044922,143.0293 c -4.828542,4.82854 -7.170227,11.17028 -7.039063,17.4707 0.124228,-5.96718 2.465913,-11.89755 7.039063,-16.4707 L 143.0293,54.044922 c 9.40169,-9.401692 24.53971,-9.401692 33.9414,0 l 89.98438,89.984378 c 4.57315,4.57315 6.91483,10.50352 7.03906,16.4707 0.13117,-6.30042 -2.21052,-12.64216 -7.03906,-17.4707 L 176.9707,53.044922 C 172.26986,48.344076 166.13486,45.994141 160,45.994141 Z" transform="translate(0,-20)"/></g><g id="layer2"><path style="display:inline;enable-background:accumulate;color:#000;font-style:normal;font-variant:normal;font-weight:400;font-stretch:normal;font-size:medium;line-height:normal;font-family:sans-serif;font-variant-ligatures:normal;font-variant-position:normal;font-variant-caps:normal;font-variant-numeric:normal;font-variant-alternates:normal;font-feature-settings:normal;text-indent:0;text-align:start;text-decoration:none;text-decoration-line:none;text-decoration-style:solid;text-decoration-color:#000;letter-spacing:normal;word-spacing:normal;text-transform:none;writing-mode:lr-tb;direction:ltr;text-orientation:mixed;dominant-baseline:auto;baseline-shift:baseline;text-anchor:start;white-space:normal;shape-padding:0;clip-rule:nonzero;overflow:visible;visibility:visible;opacity:.4;isolation:auto;mix-blend-mode:normal;color-interpolation:sRGB;color-interpolation-filters:linearRGB;solid-color:#000;solid-opacity:1;vector-effect:none;fill:#4e004f;fill-opacity:1;fill-rule:nonzero;stroke:none;stroke-width:1;stroke-linecap:round;stroke-linejoin:round;stroke-miterlimit:4;stroke-dasharray:none;stroke-dashoffset:0;stroke-opacity:1;color-rendering:auto;image-rendering:auto;shape-rendering:auto;text-rendering:auto" id="path9693-6" d="m 327.68709,223.6562 c -0.17313,0 -0.3125,0.13938 -0.3125,0.3125 v 0.68482 c -0.38075,0.0707 -0.73943,0.20479 -1.06568,0.39062 l -0.4419,-0.52612 c -0.11125,-0.13263 -0.30805,-0.15036 -0.44067,-0.039 l -0.47851,0.40162 c -0.13263,0.11125 -0.14913,0.30805 -0.0379,0.44067 l 0.44066,0.5249 c 0,0 -0.001,10e-4 -0.001,10e-4 -0.24036,0.29095 -0.4301,0.62377 -0.56518,0.98267 l -0.67749,-0.11963 c -0.17049,-0.0301 -0.33126,0.0834 -0.36133,0.25391 l -0.10862,0.61523 c -0.03,0.1705 0.0834,0.33127 0.25391,0.36133 l 0.67261,0.11838 c 0.004,0.39223 0.0747,0.76822 0.2002,1.11939 l -0.59448,0.34302 c -0.14994,0.0865 -0.20132,0.27609 -0.11475,0.42603 l 0.3125,0.54199 c 0.0866,0.14992 0.27731,0.20008 0.42725,0.1135 l 0.5957,-0.34424 c 0.24696,0.2887 0.54066,0.53419 0.86913,0.72876 l -0.2356,0.64696 c -0.0591,0.16269 0.0241,0.34119 0.18678,0.4004 l 0.58715,0.21363 c 0.16268,0.0591 0.34119,-0.024 0.4004,-0.18678 l 0.23437,-0.64452 c 0.18509,0.0311 0.37401,0.0513 0.56763,0.0513 0.19361,0 0.38252,-0.0201 0.56762,-0.0513 l 0.23438,0.64452 c 0.0591,0.16269 0.2377,0.24599 0.40039,0.18678 l 0.58716,-0.21363 c 0.16268,-0.0591 0.24597,-0.23771 0.18676,-0.4004 l -0.23559,-0.64696 c 0.32824,-0.19452 0.62231,-0.44022 0.86914,-0.72876 l 0.5957,0.34424 c 0.14994,0.0865 0.34069,0.0365 0.42725,-0.1135 l 0.3125,-0.54199 c 0.0866,-0.14994 0.0351,-0.33947 -0.11475,-0.42603 l -0.59449,-0.34302 c 0.12545,-0.35117 0.19699,-0.72716 0.2002,-1.11939 l 0.67261,-0.11838 c 0.17049,-0.0301 0.28397,-0.19083 0.2539,-0.36133 l -0.10862,-0.61523 c -0.03,-0.1705 -0.19206,-0.28397 -0.36255,-0.25391 l -0.67628,0.11963 c -0.13507,-0.3589 -0.32603,-0.69293 -0.5664,-0.98388 l 0.44068,-0.52491 c 0.11125,-0.13261 0.0947,-0.32939 -0.0379,-0.44068 l -0.47851,-0.4016 c -0.13262,-0.11125 -0.3294,-0.0948 -0.44067,0.0379 l -0.4419,0.52734 c -0.32644,-0.18604 -0.68464,-0.31987 -1.06568,-0.39063 v -0.68481 c 0,-0.17313 -0.13937,-0.3125 -0.3125,-0.3125 z m 0.3125,2.1875 c 1.21552,0 2.1875,0.97198 2.1875,2.1875 0,1.21553 -0.97198,2.1875 -2.1875,2.1875 -1.21553,0 -2.1875,-0.97197 -2.1875,-2.1875 0,-1.21552 0.97197,-2.1875 2.1875,-2.1875 z"/><path id="path5224" d="m 335.37464,123.0448 c -0.34626,0 -0.625,0.27876 -0.625,0.625 v 1.36964 c -0.7615,0.1414 -1.47886,0.40958 -2.13136,0.78124 l -0.8838,-1.05224 c -0.2225,-0.26526 -0.6161,-0.30072 -0.88134,-0.078 l -0.95702,0.80324 c -0.26526,0.2225 -0.29826,0.6161 -0.0758,0.88134 l 0.88132,1.0498 c 0,0 -0.002,0.002 -0.002,0.002 -0.48072,0.5819 -0.8602,1.24754 -1.13036,1.96534 l -1.35498,-0.23926 c -0.34098,-0.0602 -0.66252,0.1668 -0.72266,0.50782 l -0.21724,1.23046 c -0.06,0.341 0.1668,0.66254 0.50782,0.72266 l 1.34522,0.23676 c 0.008,0.78446 0.1494,1.53644 0.4004,2.23878 l -1.18896,0.68604 c -0.29988,0.173 -0.40264,0.55218 -0.2295,0.85206 l 0.625,1.08398 c 0.1732,0.29984 0.55462,0.40016 0.8545,0.227 l 1.1914,-0.68848 c 0.49392,0.5774 1.08132,1.06838 1.73826,1.45752 l -0.4712,1.29392 c -0.1182,0.32538 0.0482,0.68238 0.37356,0.8008 l 1.1743,0.42726 c 0.32536,0.1182 0.68238,-0.048 0.8008,-0.37356 l 0.46874,-1.28904 c 0.37018,0.0622 0.74802,0.1026 1.13526,0.1026 0.38722,0 0.76504,-0.0402 1.13524,-0.1026 l 0.46876,1.28904 c 0.1182,0.32538 0.4754,0.49198 0.80078,0.37356 l 1.17432,-0.42726 c 0.32536,-0.1182 0.49194,-0.47542 0.37352,-0.8008 l -0.47118,-1.29392 c 0.65648,-0.38904 1.24462,-0.88044 1.73828,-1.45752 l 1.1914,0.68848 c 0.29988,0.173 0.68138,0.073 0.8545,-0.227 l 0.625,-1.08398 c 0.1732,-0.29988 0.0702,-0.67894 -0.2295,-0.85206 l -1.18898,-0.68604 c 0.2509,-0.70234 0.39398,-1.45432 0.4004,-2.23878 l 1.34522,-0.23676 c 0.34098,-0.0602 0.56794,-0.38166 0.5078,-0.72266 l -0.21724,-1.23046 c -0.06,-0.341 -0.38412,-0.56794 -0.7251,-0.50782 l -1.35256,0.23926 c -0.27014,-0.7178 -0.65206,-1.38586 -1.1328,-1.96776 l 0.88136,-1.04982 c 0.2225,-0.26522 0.1894,-0.65878 -0.0758,-0.88136 l -0.95702,-0.8032 c -0.26524,-0.2225 -0.6588,-0.1896 -0.88134,0.0758 l -0.8838,1.05468 c -0.65288,-0.37208 -1.36928,-0.63974 -2.13136,-0.78126 v -1.36962 c 0,-0.34626 -0.27874,-0.625 -0.625,-0.625 z m 0.625,4.375 c 2.43104,0 4.375,1.94396 4.375,4.375 0,2.43106 -1.94396,4.375 -4.375,4.375 -2.43106,0 -4.375,-1.94394 -4.375,-4.375 0,-2.43104 1.94394,-4.375 4.375,-4.375 z" style="color:#000;font-style:normal;font-variant:normal;font-weight:400;font-stretch:normal;font-size:medium;line-height:normal;font-family:sans-serif;font-variant-ligatures:normal;font-variant-position:normal;font-variant-caps:normal;font-variant-numeric:normal;font-variant-alternates:normal;font-feature-settings:normal;text-indent:0;text-align:start;text-decoration:none;text-decoration-line:none;text-decoration-style:solid;text-decoration-color:#000;letter-spacing:normal;word-spacing:normal;text-transform:none;writing-mode:lr-tb;direction:ltr;text-orientation:mixed;dominant-baseline:auto;baseline-shift:baseline;text-anchor:start;white-space:normal;shape-padding:0;clip-rule:nonzero;display:inline;overflow:visible;visibility:visible;opacity:.4;isolation:auto;mix-blend-mode:normal;color-interpolation:sRGB;color-interpolation-filters:linearRGB;solid-color:#000;solid-opacity:1;vector-effect:none;fill:#4e004f;fill-opacity:1;fill-rule:nonzero;stroke:none;stroke-width:1;stroke-linecap:round;stroke-linejoin:round;stroke-miterlimit:4;stroke-dasharray:none;stroke-dashoffset:0;stroke-opacity:1;color-rendering:auto;image-rendering:auto;shape-rendering:auto;text-rendering:auto;enable-background:accumulate"/><path style="color:#000;font-style:normal;font-variant:normal;font-weight:400;font-stretch:normal;font-size:medium;line-height:normal;font-family:sans-serif;font-variant-ligatures:normal;font-variant-position:normal;font-variant-caps:normal;font-variant-numeric:normal;font-variant-alternates:normal;font-feature-settings:normal;text-indent:0;text-align:start;text-decoration:none;text-decoration-line:none;text-decoration-style:solid;text-decoration-color:#000;letter-spacing:normal;word-spacing:normal;text-transform:none;writing-mode:lr-tb;direction:ltr;text-orientation:mixed;dominant-baseline:auto;baseline-shift:baseline;text-anchor:start;white-space:normal;shape-padding:0;clip-rule:nonzero;display:inline;overflow:visible;visibility:visible;opacity:.4;isolation:auto;mix-blend-mode:normal;color-interpolation:sRGB;color-interpolation-filters:linearRGB;solid-color:#000;solid-opacity:1;vector-effect:none;fill:#4e004f;fill-opacity:1;fill-rule:nonzero;stroke:none;stroke-width:1;stroke-linecap:round;stroke-linejoin:round;stroke-miterlimit:4;stroke-dasharray:none;stroke-dashoffset:0;stroke-opacity:1;color-rendering:auto;image-rendering:auto;shape-rendering:auto;text-rendering:auto;enable-background:accumulate" id="path5226" d="m 331.53152,177.683 c -0.2597,0 -0.46875,0.20907 -0.46875,0.46875 v 1.02723 c -0.57113,0.10605 -1.10915,0.30718 -1.59853,0.58593 l -0.66284,-0.78918 c -0.16688,-0.19895 -0.46208,-0.22554 -0.66101,-0.0585 l -0.71776,0.60243 c -0.19895,0.16687 -0.2237,0.46207 -0.0569,0.661 l 0.661,0.78735 c 0,0 -0.002,0.001 -0.002,0.001 -0.36054,0.43643 -0.64515,0.93566 -0.84776,1.47401 l -1.01624,-0.17945 c -0.25573,-0.0452 -0.49689,0.1251 -0.542,0.38087 l -0.16293,0.92284 c -0.045,0.25575 0.1251,0.49691 0.38087,0.542 l 1.00891,0.17757 c 0.006,0.58834 0.11206,1.15233 0.3003,1.67908 l -0.89172,0.51453 c -0.22491,0.12975 -0.30198,0.41414 -0.17212,0.63905 l 0.46875,0.81298 c 0.1299,0.22488 0.41596,0.30012 0.64087,0.17025 l 0.89355,-0.51636 c 0.37044,0.43305 0.81099,0.80129 1.3037,1.09314 l -0.3534,0.97044 c -0.0887,0.24404 0.0361,0.51179 0.28017,0.6006 l 0.88072,0.32045 c 0.24402,0.0887 0.51179,-0.036 0.6006,-0.28017 l 0.35156,-0.96678 c 0.27763,0.0466 0.56101,0.0769 0.85145,0.0769 0.29041,0 0.57377,-0.0301 0.85142,-0.0769 l 0.35157,0.96678 c 0.0886,0.24403 0.35655,0.36898 0.60059,0.28017 l 0.88074,-0.32045 c 0.24402,-0.0887 0.36895,-0.35656 0.28014,-0.6006 l -0.35339,-0.97044 c 0.49236,-0.29178 0.93347,-0.66033 1.30371,-1.09314 l 0.89355,0.51636 c 0.22491,0.12975 0.51104,0.0548 0.64088,-0.17025 l 0.46875,-0.81298 c 0.1299,-0.22491 0.0527,-0.50921 -0.17213,-0.63905 l -0.89173,-0.51453 c 0.18817,-0.52675 0.29548,-1.09074 0.3003,-1.67908 l 1.00891,-0.17757 c 0.25574,-0.0451 0.42596,-0.28625 0.38085,-0.542 l -0.16293,-0.92284 c -0.045,-0.25575 -0.28809,-0.42596 -0.54382,-0.38087 l -1.01442,0.17945 c -0.20261,-0.53835 -0.48905,-1.0394 -0.8496,-1.47582 l 0.66102,-0.78737 c 0.16687,-0.19891 0.14205,-0.49408 -0.0568,-0.66102 l -0.71777,-0.6024 c -0.19893,-0.16687 -0.4941,-0.1422 -0.661,0.0568 l -0.66285,0.79101 c -0.48966,-0.27906 -1.02696,-0.4798 -1.59852,-0.58594 v -1.02722 c 0,-0.25969 -0.20906,-0.46875 -0.46875,-0.46875 z m 0.46875,3.28125 c 1.82327,0 3.28125,1.45797 3.28125,3.28125 0,1.82329 -1.45798,3.28125 -3.28125,3.28125 -1.8233,0 -3.28125,-1.45796 -3.28125,-3.28125 0,-1.82328 1.45795,-3.28125 3.28125,-3.28125 z"/><path id="path5228" d="m 343.12985,56 c -0.48251,0 -0.87092,0.388447 -0.87092,0.870926 v 1.908568 c -1.06115,0.197038 -2.06078,0.570733 -2.97003,1.088644 l -1.23154,-1.466277 c -0.31006,-0.369645 -0.85854,-0.419048 -1.22814,-0.108692 l -1.33358,1.1193 c -0.36965,0.31004 -0.41563,0.858515 -0.10572,1.228122 l 1.22812,1.462877 c 0,0 -0.004,0.0019 -0.004,0.0019 -0.66987,0.810876 -1.19867,1.738433 -1.57511,2.738674 l -1.88815,-0.333414 c -0.47514,-0.08398 -0.92321,0.232433 -1.00702,0.707647 l -0.30272,1.714614 c -0.0836,0.475178 0.23243,0.923247 0.70764,1.007023 l 1.87453,0.329921 c 0.0111,1.093121 0.20821,2.141 0.55795,3.119689 l -1.65679,0.955984 c -0.41788,0.241072 -0.56107,0.769462 -0.3198,1.187339 l 0.87093,1.510497 c 0.24135,0.417821 0.77284,0.557616 1.19072,0.31632 l 1.66019,-0.959384 c 0.68827,0.804596 1.5068,1.488777 2.42225,2.031027 l -0.65661,1.803054 c -0.1648,0.45342 0.0671,0.950893 0.52055,1.1159 l 1.63635,0.595388 c 0.45339,0.164803 0.9509,-0.06689 1.1159,-0.520549 l 0.65319,-1.796253 c 0.51583,0.08658 1.04235,0.142878 1.58198,0.142878 0.53957,0 1.06605,-0.05593 1.58191,-0.142878 l 0.65321,1.796253 c 0.16462,0.453402 0.66246,0.685556 1.11588,0.520549 l 1.6364,-0.595388 c 0.45338,-0.164803 0.6855,-0.66248 0.52049,-1.1159 l -0.65659,-1.803054 c 0.91479,-0.54212 1.73436,-1.226877 2.42226,-2.031027 l 1.6602,0.959384 c 0.41787,0.241073 0.9495,0.101817 1.19073,-0.31632 l 0.87093,-1.510497 c 0.24135,-0.417877 0.0979,-0.946099 -0.31981,-1.187339 l -1.65682,-0.955984 c 0.34962,-0.978689 0.549,-2.026568 0.55795,-3.119689 l 1.87453,-0.329921 c 0.47516,-0.0838 0.79143,-0.531845 0.70761,-1.007023 l -0.30272,-1.714614 c -0.0836,-0.475177 -0.53526,-0.791423 -1.0104,-0.707647 l -1.88477,0.333414 c -0.37644,-1.000241 -0.90864,-1.93118 -1.57853,-2.742037 l 1.22816,-1.462914 c 0.31004,-0.36957 0.26392,-0.917989 -0.10554,-1.228159 l -1.3336,-1.119245 c -0.3696,-0.31004 -0.91802,-0.264204 -1.22812,0.105533 l -1.23156,1.469678 c -0.90977,-0.518487 -1.90806,-0.891457 -2.97001,-1.088663 v -1.908549 c 0,-0.482498 -0.38843,-0.870926 -0.87092,-0.870926 z m 0.87093,6.096482 c 3.38759,0 6.09648,2.708872 6.09648,6.096481 0,3.387628 -2.70889,6.096482 -6.09648,6.096482 -3.38765,0 -6.09648,-2.708854 -6.09648,-6.096482 0,-3.387609 2.70883,-6.096481 6.09648,-6.096481 z" style="color:#000;font-style:normal;font-variant:normal;font-weight:400;font-stretch:normal;font-size:medium;line-height:normal;font-family:sans-serif;font-variant-ligatures:normal;font-variant-position:normal;font-variant-caps:normal;font-variant-numeric:normal;font-variant-alternates:normal;font-feature-settings:normal;text-indent:0;text-align:start;text-decoration:none;text-decoration-line:none;text-decoration-style:solid;text-decoration-color:#000;letter-spacing:normal;word-spacing:normal;text-transform:none;writing-mode:lr-tb;direction:ltr;text-orientation:mixed;dominant-baseline:auto;baseline-shift:baseline;text-anchor:start;white-space:normal;shape-padding:0;clip-rule:nonzero;display:inline;overflow:visible;visibility:visible;opacity:.4;isolation:auto;mix-blend-mode:normal;color-interpolation:sRGB;color-interpolation-filters:linearRGB;solid-color:#000;solid-opacity:1;vector-effect:none;fill:#4e004f;fill-opacity:1;fill-rule:nonzero;stroke:none;stroke-width:1;stroke-linecap:round;stroke-linejoin:round;stroke-miterlimit:4;stroke-dasharray:none;stroke-dashoffset:0;stroke-opacity:1;color-rendering:auto;image-rendering:auto;shape-rendering:auto;text-rendering:auto;enable-background:accumulate"/><path style="color:#000;font-style:normal;font-variant:normal;font-weight:400;font-stretch:normal;font-size:medium;line-height:normal;font-family:sans-serif;font-variant-ligatures:normal;font-variant-position:normal;font-variant-caps:normal;font-variant-numeric:normal;font-variant-alternates:normal;font-feature-settings:normal;text-indent:0;text-align:start;text-decoration:none;text-decoration-line:none;text-decoration-style:solid;text-decoration-color:#000;letter-spacing:normal;word-spacing:normal;text-transform:none;writing-mode:lr-tb;direction:ltr;text-orientation:mixed;dominant-baseline:auto;baseline-shift:baseline;text-anchor:start;white-space:normal;shape-padding:0;clip-rule:nonzero;display:inline;overflow:visible;visibility:visible;opacity:.4;isolation:auto;mix-blend-mode:normal;color-interpolation:sRGB;color-interpolation-filters:linearRGB;solid-color:#000;solid-opacity:1;vector-effect:none;fill:#4e004f;fill-opacity:1;fill-rule:nonzero;stroke:none;stroke-width:1;stroke-linecap:round;stroke-linejoin:round;stroke-miterlimit:4;stroke-dasharray:none;stroke-dashoffset:0;stroke-opacity:1;color-rendering:auto;image-rendering:auto;shape-rendering:auto;text-rendering:auto;enable-background:accumulate" id="path9614" d="m 154.99219,72.990234 c -1.70128,0 -3.00781,1.30849 -3.00781,3.009766 v 12.63672 l -1.63477,0.30469 c -5.87767,1.09149 -11.41449,3.16023 -16.45508,6.03125 l -1.44922,0.82617 -8.15429,-9.70899 v -0.0019 c -1.09371,-1.30349 -2.94679,-1.46917 -4.2461,-0.37891 l -7.66797,6.4375 c -1.29891,1.08994 -1.45573,2.93952 -0.36133,4.24414 l 8.24024,9.81641 -1.21289,1.21289 c -3.691,4.47598 -6.61747,9.60107 -8.70313,15.14258 l -0.58593,1.55469 -12.492191,-2.20703 c -1.673215,-0.29504 -3.176231,0.76612 -3.472657,2.44726 l -1.742187,9.86133 c -0.295032,1.67332 0.766133,3.17623 2.447266,3.47266 l 12.419919,2.1875 0.0117,1.66406 c 0.0481,6.05288 1.15418,11.85389 3.09375,17.2832 l 0.56055,1.57227 -10.972658,6.33203 c -1.47848,0.85457 -1.958233,2.62207 -1.107422,4.0957 l 5.00977,8.68555 c 0.84743,1.4678 2.63638,1.93928 4.11328,1.08789 l 10.98828,-6.34961 1.08008,1.26367 c 3.81297,4.45746 8.3501,8.25095 13.42968,11.25977 l 1.42774,0.8457 -4.34375,11.92774 c -0.58191,1.59945 0.19692,3.27125 1.79687,3.85351 l 9.41016,3.42383 c 1.59949,0.58191 3.27321,-0.19693 3.85547,-1.79688 l 4.32422,-11.89453 1.64258,0.27539 c 2.88605,0.48533 5.80118,0.79297 8.76562,0.79297 2.96445,0 5.87957,-0.30764 8.76562,-0.79297 l 1.64258,-0.27539 4.32422,11.89453 c 0.58182,1.5992 2.25446,2.37888 3.85352,1.79688 l 9.41211,-3.42383 c 1.59931,-0.58185 2.37888,-2.25445 1.79687,-3.85351 l -4.34375,-11.92774 1.42774,-0.8457 c 5.07603,-3.00808 9.61941,-6.80548 13.42968,-11.25977 l 1.08008,-1.26367 10.98633,6.34961 h 0.002 c 1.47697,0.85146 3.26578,0.38032 4.11328,-1.08789 L 221.5,170.82617 c 0.8508,-1.47364 0.37097,-3.24115 -1.10742,-4.0957 l -10.97266,-6.33203 0.56055,-1.57227 c 1.93947,-5.42901 3.04415,-11.22969 3.09375,-17.2832 l 0.0137,-1.66406 12.41797,-2.1875 c 1.68111,-0.29643 2.74231,-1.79935 2.44726,-3.47266 l -1.74218,-9.86133 c -0.29481,-1.67199 -1.82064,-2.74202 -3.49219,-2.44726 l -12.47266,2.20703 -0.58593,-1.55469 c -2.09017,-5.55349 -5.04319,-10.71463 -8.74805,-15.19922 l -1.06055,-1.2832 8.13477,-9.68946 h -0.002 c 1.09476,-1.30468 0.93998,-3.15407 -0.35938,-4.24414 l -7.66992,-6.4375 c -1.30482,-1.09488 -3.15443,-0.93905 -4.24414,0.35938 l -8.1543,9.73047 -1.45117,-0.82617 c -5.04357,-2.87429 -10.57211,-4.93871 -16.45508,-6.03125 l -1.63477,-0.30469 V 76 c 0,-1.70128 -1.30652,-3.009766 -3.00781,-3.009766 z m 5.00976,31.058596 c 20.54744,0 37.0586,16.51311 37.0586,37.06055 0,20.54745 -16.51116,37.05859 -37.0586,37.05859 -20.54743,0 -37.06054,-16.51115 -37.06054,-37.05859 0,-20.54745 16.5131,-37.06055 37.06054,-37.06055 z"/><path id="path5252" d="m 327.68709,224.6566 c -0.17313,0 -0.3125,0.13938 -0.3125,0.3125 v 0.68482 c -0.38075,0.0707 -0.73943,0.20479 -1.06568,0.39062 l -0.4419,-0.52612 c -0.11125,-0.13263 -0.30805,-0.15036 -0.44067,-0.039 l -0.47851,0.40162 c -0.13263,0.11125 -0.14913,0.30805 -0.0379,0.44067 l 0.44066,0.5249 c 0,0 -0.001,0.001 -0.001,0.001 -0.24036,0.29095 -0.4301,0.62377 -0.56518,0.98267 l -0.67749,-0.11963 c -0.17049,-0.0301 -0.33126,0.0834 -0.36133,0.25391 l -0.10862,0.61523 c -0.03,0.1705 0.0834,0.33127 0.25391,0.36133 l 0.67261,0.11838 c 0.004,0.39223 0.0747,0.76822 0.2002,1.11939 l -0.59448,0.34302 c -0.14994,0.0865 -0.20132,0.27609 -0.11475,0.42603 l 0.3125,0.54199 c 0.0866,0.14992 0.27731,0.20008 0.42725,0.1135 l 0.5957,-0.34424 c 0.24696,0.2887 0.54066,0.53419 0.86913,0.72876 l -0.2356,0.64696 c -0.0591,0.16269 0.0241,0.34119 0.18678,0.4004 l 0.58715,0.21363 c 0.16268,0.0591 0.34119,-0.024 0.4004,-0.18678 l 0.23437,-0.64452 c 0.18509,0.0311 0.37401,0.0513 0.56763,0.0513 0.19361,0 0.38252,-0.0201 0.56762,-0.0513 l 0.23438,0.64452 c 0.0591,0.16269 0.2377,0.24599 0.40039,0.18678 l 0.58716,-0.21363 c 0.16268,-0.0591 0.24597,-0.23771 0.18676,-0.4004 l -0.23559,-0.64696 c 0.32824,-0.19452 0.62231,-0.44022 0.86914,-0.72876 l 0.5957,0.34424 c 0.14994,0.0865 0.34069,0.0365 0.42725,-0.1135 l 0.3125,-0.54199 c 0.0866,-0.14994 0.0351,-0.33947 -0.11475,-0.42603 l -0.59449,-0.34302 c 0.12545,-0.35117 0.19699,-0.72716 0.2002,-1.11939 l 0.67261,-0.11838 c 0.17049,-0.0301 0.28397,-0.19083 0.2539,-0.36133 l -0.10862,-0.61523 c -0.03,-0.1705 -0.19206,-0.28397 -0.36255,-0.25391 l -0.67628,0.11963 c -0.13507,-0.3589 -0.32603,-0.69293 -0.5664,-0.98388 l 0.44068,-0.52491 c 0.11125,-0.13261 0.0947,-0.32939 -0.0379,-0.44068 l -0.47851,-0.4016 c -0.13262,-0.11125 -0.3294,-0.0948 -0.44067,0.0379 l -0.4419,0.52734 c -0.32644,-0.18604 -0.68464,-0.31987 -1.06568,-0.39063 v -0.68481 c 0,-0.17313 -0.13937,-0.3125 -0.3125,-0.3125 z m 0.3125,2.1875 c 1.21552,0 2.1875,0.97198 2.1875,2.1875 0,1.21553 -0.97198,2.1875 -2.1875,2.1875 -1.21553,0 -2.1875,-0.97197 -2.1875,-2.1875 0,-1.21552 0.97197,-2.1875 2.1875,-2.1875 z" style="color:#000;font-style:normal;font-variant:normal;font-weight:400;font-stretch:normal;font-size:medium;line-height:normal;font-family:sans-serif;font-variant-ligatures:normal;font-variant-position:normal;font-variant-caps:normal;font-variant-numeric:normal;font-variant-alternates:normal;font-feature-settings:normal;text-indent:0;text-align:start;text-decoration:none;text-decoration-line:none;text-decoration-style:solid;text-decoration-color:#000;letter-spacing:normal;word-spacing:normal;text-transform:none;writing-mode:lr-tb;direction:ltr;text-orientation:mixed;dominant-baseline:auto;baseline-shift:baseline;text-anchor:start;white-space:normal;shape-padding:0;clip-rule:nonzero;display:inline;overflow:visible;visibility:visible;opacity:.2;isolation:auto;mix-blend-mode:normal;color-interpolation:sRGB;color-interpolation-filters:linearRGB;solid-color:#000;solid-opacity:1;vector-effect:none;fill:#fff;fill-opacity:1;fill-rule:nonzero;stroke:none;stroke-width:1;stroke-linecap:round;stroke-linejoin:round;stroke-miterlimit:4;stroke-dasharray:none;stroke-dashoffset:0;stroke-opacity:1;color-rendering:auto;image-rendering:auto;shape-rendering:auto;text-rendering:auto;enable-background:accumulate"/><path style="color:#000;font-style:normal;font-variant:normal;font-weight:400;font-stretch:normal;font-size:medium;line-height:normal;font-family:sans-serif;font-variant-ligatures:normal;font-variant-position:normal;font-variant-caps:normal;font-variant-numeric:normal;font-variant-alternates:normal;font-feature-settings:normal;text-indent:0;text-align:start;text-decoration:none;text-decoration-line:none;text-decoration-style:solid;text-decoration-color:#000;letter-spacing:normal;word-spacing:normal;text-transform:none;writing-mode:lr-tb;direction:ltr;text-orientation:mixed;dominant-baseline:auto;baseline-shift:baseline;text-anchor:start;white-space:normal;shape-padding:0;clip-rule:nonzero;display:inline;overflow:visible;visibility:visible;opacity:.2;isolation:auto;mix-blend-mode:normal;color-interpolation:sRGB;color-interpolation-filters:linearRGB;solid-color:#000;solid-opacity:1;vector-effect:none;fill:#fff;fill-opacity:1;fill-rule:nonzero;stroke:none;stroke-width:1;stroke-linecap:round;stroke-linejoin:round;stroke-miterlimit:4;stroke-dasharray:none;stroke-dashoffset:0;stroke-opacity:1;color-rendering:auto;image-rendering:auto;shape-rendering:auto;text-rendering:auto;enable-background:accumulate" id="path5254" d="m 335.37464,124.0452 c -0.34626,0 -0.625,0.27876 -0.625,0.625 v 1.36964 c -0.7615,0.1414 -1.47886,0.40958 -2.13136,0.78124 l -0.8838,-1.05224 c -0.2225,-0.26526 -0.6161,-0.30072 -0.88134,-0.078 l -0.95702,0.80324 c -0.26526,0.2225 -0.29826,0.6161 -0.0758,0.88134 l 0.88132,1.0498 c 0,0 -0.002,0.002 -0.002,0.002 -0.48072,0.5819 -0.8602,1.24754 -1.13036,1.96534 l -1.35498,-0.23926 c -0.34098,-0.0602 -0.66252,0.1668 -0.72266,0.50782 l -0.21724,1.23046 c -0.06,0.341 0.1668,0.66254 0.50782,0.72266 l 1.34522,0.23676 c 0.008,0.78446 0.1494,1.53644 0.4004,2.23878 l -1.18896,0.68604 c -0.29988,0.173 -0.40264,0.55218 -0.2295,0.85206 l 0.625,1.08398 c 0.1732,0.29984 0.55462,0.40016 0.8545,0.227 l 1.1914,-0.68848 c 0.49392,0.5774 1.08132,1.06838 1.73826,1.45752 l -0.4712,1.29392 c -0.1182,0.32538 0.0482,0.68238 0.37356,0.8008 l 1.1743,0.42726 c 0.32536,0.1182 0.68238,-0.048 0.8008,-0.37356 l 0.46874,-1.28904 c 0.37018,0.0622 0.74802,0.1026 1.13526,0.1026 0.38722,0 0.76504,-0.0402 1.13524,-0.1026 l 0.46876,1.28904 c 0.1182,0.32538 0.4754,0.49198 0.80078,0.37356 l 1.17432,-0.42726 c 0.32536,-0.1182 0.49194,-0.47542 0.37352,-0.8008 l -0.47118,-1.29392 c 0.65648,-0.38904 1.24462,-0.88044 1.73828,-1.45752 l 1.1914,0.68848 c 0.29988,0.173 0.68138,0.073 0.8545,-0.227 l 0.625,-1.08398 c 0.1732,-0.29988 0.0702,-0.67894 -0.2295,-0.85206 l -1.18898,-0.68604 c 0.2509,-0.70234 0.39398,-1.45432 0.4004,-2.23878 l 1.34522,-0.23676 c 0.34098,-0.0602 0.56794,-0.38166 0.5078,-0.72266 l -0.21724,-1.23046 c -0.06,-0.341 -0.38412,-0.56794 -0.7251,-0.50782 l -1.35256,0.23926 c -0.27014,-0.7178 -0.65206,-1.38586 -1.1328,-1.96776 l 0.88136,-1.04982 c 0.2225,-0.26522 0.1894,-0.65878 -0.0758,-0.88136 l -0.95702,-0.8032 c -0.26524,-0.2225 -0.6588,-0.1896 -0.88134,0.0758 l -0.8838,1.05468 c -0.65288,-0.37208 -1.36928,-0.63974 -2.13136,-0.78126 v -1.36962 c 0,-0.34626 -0.27874,-0.625 -0.625,-0.625 z m 0.625,4.375 c 2.43104,0 4.375,1.94396 4.375,4.375 0,2.43106 -1.94396,4.375 -4.375,4.375 -2.43106,0 -4.375,-1.94394 -4.375,-4.375 0,-2.43104 1.94394,-4.375 4.375,-4.375 z"/><path id="path5256" d="m 331.53152,178.6834 c -0.2597,0 -0.46875,0.20907 -0.46875,0.46875 v 1.02723 c -0.57113,0.10605 -1.10915,0.30718 -1.59853,0.58593 l -0.66284,-0.78918 c -0.16688,-0.19895 -0.46208,-0.22554 -0.66101,-0.0585 l -0.71776,0.60243 c -0.19895,0.16687 -0.2237,0.46207 -0.0569,0.661 l 0.661,0.78735 c 0,0 -0.002,0.001 -0.002,0.001 -0.36054,0.43643 -0.64515,0.93566 -0.84776,1.47401 l -1.01624,-0.17945 c -0.25573,-0.0452 -0.49689,0.1251 -0.542,0.38087 l -0.16293,0.92284 c -0.045,0.25575 0.1251,0.49691 0.38087,0.542 l 1.00891,0.17757 c 0.006,0.58834 0.11206,1.15233 0.3003,1.67908 l -0.89172,0.51453 c -0.22491,0.12975 -0.30198,0.41414 -0.17212,0.63905 l 0.46875,0.81298 c 0.1299,0.22488 0.41596,0.30012 0.64087,0.17025 l 0.89355,-0.51636 c 0.37044,0.43305 0.81099,0.80129 1.3037,1.09314 l -0.3534,0.97044 c -0.0887,0.24404 0.0361,0.51179 0.28017,0.6006 l 0.88072,0.32045 c 0.24402,0.0887 0.51179,-0.036 0.6006,-0.28017 l 0.35156,-0.96678 c 0.27763,0.0466 0.56101,0.0769 0.85145,0.0769 0.29041,0 0.57377,-0.0301 0.85142,-0.0769 l 0.35157,0.96678 c 0.0886,0.24403 0.35655,0.36898 0.60059,0.28017 l 0.88074,-0.32045 c 0.24402,-0.0887 0.36895,-0.35656 0.28014,-0.6006 l -0.35339,-0.97044 c 0.49236,-0.29178 0.93347,-0.66033 1.30371,-1.09314 l 0.89355,0.51636 c 0.22491,0.12975 0.51104,0.0548 0.64088,-0.17025 l 0.46875,-0.81298 c 0.1299,-0.22491 0.0527,-0.50921 -0.17213,-0.63905 l -0.89173,-0.51453 c 0.18817,-0.52675 0.29548,-1.09074 0.3003,-1.67908 l 1.00891,-0.17757 c 0.25574,-0.0451 0.42596,-0.28625 0.38085,-0.542 l -0.16293,-0.92284 c -0.045,-0.25575 -0.28809,-0.42596 -0.54382,-0.38087 l -1.01442,0.17945 c -0.20261,-0.53835 -0.48905,-1.0394 -0.8496,-1.47582 l 0.66102,-0.78737 c 0.16687,-0.19891 0.14205,-0.49408 -0.0568,-0.66102 l -0.71777,-0.6024 c -0.19893,-0.16687 -0.4941,-0.1422 -0.661,0.0568 l -0.66285,0.79101 c -0.48966,-0.27906 -1.02696,-0.4798 -1.59852,-0.58594 v -1.02722 c 0,-0.25969 -0.20906,-0.46875 -0.46875,-0.46875 z m 0.46875,3.28125 c 1.82327,0 3.28125,1.45797 3.28125,3.28125 0,1.82329 -1.45798,3.28125 -3.28125,3.28125 -1.8233,0 -3.28125,-1.45796 -3.28125,-3.28125 0,-1.82328 1.45795,-3.28125 3.28125,-3.28125 z" style="color:#000;font-style:normal;font-variant:normal;font-weight:400;font-stretch:normal;font-size:medium;line-height:normal;font-family:sans-serif;font-variant-ligatures:normal;font-variant-position:normal;font-variant-caps:normal;font-variant-numeric:normal;font-variant-alternates:normal;font-feature-settings:normal;text-indent:0;text-align:start;text-decoration:none;text-decoration-line:none;text-decoration-style:solid;text-decoration-color:#000;letter-spacing:normal;word-spacing:normal;text-transform:none;writing-mode:lr-tb;direction:ltr;text-orientation:mixed;dominant-baseline:auto;baseline-shift:baseline;text-anchor:start;white-space:normal;shape-padding:0;clip-rule:nonzero;display:inline;overflow:visible;visibility:visible;opacity:.2;isolation:auto;mix-blend-mode:normal;color-interpolation:sRGB;color-interpolation-filters:linearRGB;solid-color:#000;solid-opacity:1;vector-effect:none;fill:#fff;fill-opacity:1;fill-rule:nonzero;stroke:none;stroke-width:1;stroke-linecap:round;stroke-linejoin:round;stroke-miterlimit:4;stroke-dasharray:none;stroke-dashoffset:0;stroke-opacity:1;color-rendering:auto;image-rendering:auto;shape-rendering:auto;text-rendering:auto;enable-background:accumulate"/><path style="color:#000;font-style:normal;font-variant:normal;font-weight:400;font-stretch:normal;font-size:medium;line-height:normal;font-family:sans-serif;font-variant-ligatures:normal;font-variant-position:normal;font-variant-caps:normal;font-variant-numeric:normal;font-variant-alternates:normal;font-feature-settings:normal;text-indent:0;text-align:start;text-decoration:none;text-decoration-line:none;text-decoration-style:solid;text-decoration-color:#000;letter-spacing:normal;word-spacing:normal;text-transform:none;writing-mode:lr-tb;direction:ltr;text-orientation:mixed;dominant-baseline:auto;baseline-shift:baseline;text-anchor:start;white-space:normal;shape-padding:0;clip-rule:nonzero;display:inline;overflow:visible;visibility:visible;opacity:.2;isolation:auto;mix-blend-mode:normal;color-interpolation:sRGB;color-interpolation-filters:linearRGB;solid-color:#000;solid-opacity:1;vector-effect:none;fill:#fff;fill-opacity:1;fill-rule:nonzero;stroke:none;stroke-width:1;stroke-linecap:round;stroke-linejoin:round;stroke-miterlimit:4;stroke-dasharray:none;stroke-dashoffset:0;stroke-opacity:1;color-rendering:auto;image-rendering:auto;shape-rendering:auto;text-rendering:auto;enable-background:accumulate" id="path5258" d="m 343.12985,57.000401 c -0.48251,0 -0.87092,0.388447 -0.87092,0.870926 v 1.908568 c -1.06115,0.197038 -2.06078,0.570733 -2.97003,1.088644 l -1.23154,-1.466277 c -0.31006,-0.369645 -0.85854,-0.419048 -1.22814,-0.108692 l -1.33358,1.1193 c -0.36965,0.31004 -0.41563,0.858515 -0.10572,1.228122 l 1.22812,1.462877 c 0,0 -0.004,0.0019 -0.004,0.0019 -0.66987,0.810876 -1.19867,1.738433 -1.57511,2.738674 l -1.88815,-0.333414 c -0.47514,-0.08398 -0.92321,0.232433 -1.00702,0.707647 l -0.30272,1.714614 c -0.0836,0.475178 0.23243,0.923247 0.70764,1.007023 l 1.87453,0.329921 c 0.0111,1.093121 0.20821,2.141 0.55795,3.119689 l -1.65679,0.955984 c -0.41788,0.241072 -0.56107,0.769462 -0.3198,1.187339 l 0.87093,1.510497 c 0.24135,0.417821 0.77284,0.557616 1.19072,0.31632 l 1.66019,-0.959384 c 0.68827,0.804596 1.5068,1.488777 2.42225,2.031027 l -0.65661,1.803054 c -0.1648,0.45342 0.0671,0.950893 0.52055,1.1159 l 1.63635,0.595388 c 0.45339,0.164803 0.9509,-0.06689 1.1159,-0.520549 l 0.65319,-1.796253 c 0.51583,0.08658 1.04235,0.142878 1.58198,0.142878 0.53957,0 1.06605,-0.05593 1.58191,-0.142878 l 0.65321,1.796253 c 0.16462,0.453402 0.66246,0.685556 1.11588,0.520549 l 1.6364,-0.595388 c 0.45338,-0.164803 0.6855,-0.66248 0.52049,-1.1159 l -0.65659,-1.803054 c 0.91479,-0.54212 1.73436,-1.226877 2.42226,-2.031027 l 1.6602,0.959384 c 0.41787,0.241073 0.9495,0.101817 1.19073,-0.31632 l 0.87093,-1.510497 c 0.24135,-0.417877 0.0979,-0.946099 -0.31981,-1.187339 l -1.65682,-0.955984 c 0.34962,-0.978689 0.549,-2.026568 0.55795,-3.119689 l 1.87453,-0.329921 c 0.47516,-0.0838 0.79143,-0.531845 0.70761,-1.007023 l -0.30272,-1.714614 c -0.0836,-0.475177 -0.53526,-0.791423 -1.0104,-0.707647 l -1.88477,0.333414 c -0.37644,-1.000241 -0.90864,-1.93118 -1.57853,-2.742037 l 1.22816,-1.462914 c 0.31004,-0.36957 0.26392,-0.917989 -0.10554,-1.228159 l -1.3336,-1.119245 c -0.3696,-0.31004 -0.91802,-0.264204 -1.22812,0.105533 l -1.23156,1.469678 c -0.90977,-0.518487 -1.90806,-0.891457 -2.97001,-1.088663 v -1.908549 c 0,-0.482498 -0.38843,-0.870926 -0.87092,-0.870926 z m 0.87093,6.096482 c 3.38759,0 6.09648,2.708872 6.09648,6.096481 0,3.387628 -2.70889,6.096482 -6.09648,6.096482 -3.38765,0 -6.09648,-2.708854 -6.09648,-6.096482 0,-3.387609 2.70883,-6.096481 6.09648,-6.096481 z"/><path id="path5260" d="m 154.99219,73.990635 c -1.70128,0 -3.00781,1.30849 -3.00781,3.009766 v 12.63672 l -1.63477,0.30469 c -5.87767,1.09149 -11.41449,3.16023 -16.45508,6.03125 l -1.44922,0.82617 -8.15429,-9.70899 v -0.002 c -1.09371,-1.30349 -2.94679,-1.46917 -4.2461,-0.37891 l -7.66797,6.4375 c -1.29891,1.08994 -1.45573,2.93952 -0.36133,4.24414 l 8.24024,9.816409 -1.21289,1.21289 c -3.691,4.47598 -6.61747,9.60107 -8.70313,15.14258 l -0.58593,1.55469 -12.492191,-2.20703 c -1.673215,-0.29504 -3.176231,0.76612 -3.472657,2.44726 l -1.742187,9.86133 c -0.295032,1.67332 0.766133,3.17623 2.447266,3.47266 l 12.419919,2.1875 0.0117,1.66406 c 0.0481,6.05288 1.15418,11.85389 3.09375,17.2832 l 0.56055,1.57227 -10.972658,6.33203 c -1.47848,0.85457 -1.958233,2.62207 -1.107422,4.0957 l 5.00977,8.68555 c 0.84743,1.4678 2.63638,1.93928 4.11328,1.08789 l 10.98828,-6.34961 1.08008,1.26367 c 3.81297,4.45746 8.3501,8.25095 13.42968,11.25977 l 1.42774,0.8457 -4.34375,11.92774 c -0.58191,1.59945 0.19692,3.27125 1.79687,3.85351 l 9.41016,3.42383 c 1.59949,0.58191 3.27321,-0.19693 3.85547,-1.79688 l 4.32422,-11.89453 1.64258,0.27539 c 2.88605,0.48533 5.80118,0.79297 8.76562,0.79297 2.96445,0 5.87957,-0.30764 8.76562,-0.79297 l 1.64258,-0.27539 4.32422,11.89453 c 0.58182,1.5992 2.25446,2.37888 3.85352,1.79688 l 9.41211,-3.42383 c 1.59931,-0.58185 2.37888,-2.25445 1.79687,-3.85351 l -4.34375,-11.92774 1.42774,-0.8457 c 5.07603,-3.00808 9.61941,-6.80548 13.42968,-11.25977 l 1.08008,-1.26367 10.98633,6.34961 h 0.002 c 1.47697,0.85146 3.26578,0.38032 4.11328,-1.08789 l 5.00974,-8.6855 c 0.8508,-1.47364 0.37097,-3.24115 -1.10742,-4.0957 l -10.97266,-6.33203 0.56055,-1.57227 c 1.93947,-5.42901 3.04415,-11.22969 3.09375,-17.2832 l 0.0137,-1.66406 12.41797,-2.1875 c 1.68111,-0.29643 2.74231,-1.79935 2.44726,-3.47266 l -1.74218,-9.86133 c -0.29481,-1.67199 -1.82064,-2.74202 -3.49219,-2.44726 l -12.47266,2.20703 -0.58593,-1.55469 c -2.09017,-5.55349 -5.04319,-10.71463 -8.74805,-15.19922 l -1.06055,-1.2832 8.13477,-9.689459 h -0.002 c 1.09476,-1.30468 0.93998,-3.15407 -0.35938,-4.24414 l -7.66992,-6.4375 c -1.30482,-1.09488 -3.15443,-0.93905 -4.24414,0.35938 l -8.1543,9.73047 -1.45117,-0.82617 c -5.04357,-2.87429 -10.57211,-4.93871 -16.45508,-6.03125 l -1.63477,-0.30469 v -12.63672 c 0,-1.70128 -1.30652,-3.009766 -3.00781,-3.009766 z m 5.00976,31.058595 c 20.54744,0 37.0586,16.51311 37.0586,37.06055 0,20.54745 -16.51116,37.05859 -37.0586,37.05859 -20.54743,0 -37.06054,-16.51115 -37.06054,-37.05859 0,-20.54745 16.5131,-37.06055 37.06054,-37.06055 z" style="color:#000;font-style:normal;font-variant:normal;font-weight:400;font-stretch:normal;font-size:medium;line-height:normal;font-family:sans-serif;font-variant-ligatures:normal;font-variant-position:normal;font-variant-caps:normal;font-variant-numeric:normal;font-variant-alternates:normal;font-feature-settings:normal;text-indent:0;text-align:start;text-decoration:none;text-decoration-line:none;text-decoration-style:solid;text-decoration-color:#000;letter-spacing:normal;word-spacing:normal;text-transform:none;writing-mode:lr-tb;direction:ltr;text-orientation:mixed;dominant-baseline:auto;baseline-shift:baseline;text-anchor:start;white-space:normal;shape-padding:0;clip-rule:nonzero;display:inline;overflow:visible;visibility:visible;opacity:.2;isolation:auto;mix-blend-mode:normal;color-interpolation:sRGB;color-interpolation-filters:linearRGB;solid-color:#000;solid-opacity:1;vector-effect:none;fill:#fff;fill-opacity:1;fill-rule:nonzero;stroke:none;stroke-width:1;stroke-linecap:round;stroke-linejoin:round;stroke-miterlimit:4;stroke-dasharray:none;stroke-dashoffset:0;stroke-opacity:1;color-rendering:auto;image-rendering:auto;shape-rendering:auto;text-rendering:auto;enable-background:accumulate"/></g></g></svg>