<svg xmlns="http://www.w3.org/2000/svg" xmlns:svg="http://www.w3.org/2000/svg" xmlns:xlink="http://www.w3.org/1999/xlink" id="svg11300" width="400" height="320" version="1.0" viewBox="0 0 400 320" style="display:inline;enable-background:new"><title id="title4162">Solus Icon Template</title><defs id="defs3"><linearGradient id="linearGradient4860"><stop style="stop-color:#000;stop-opacity:1" id="stop4856" offset="0"/><stop style="stop-color:#000;stop-opacity:0" id="stop4858" offset="1"/></linearGradient><linearGradient id="linearGradient4827"><stop style="stop-color:#fff;stop-opacity:1" id="stop4823" offset="0"/><stop style="stop-color:#fff;stop-opacity:0" id="stop4825" offset="1"/></linearGradient><linearGradient id="linearGradient4812"><stop style="stop-color:#d9d9d9;stop-opacity:1" id="stop4808" offset="0"/><stop style="stop-color:#b3b3b3;stop-opacity:1" id="stop4810" offset="1"/></linearGradient><linearGradient id="linearGradient4554"><stop style="stop-color:#fff;stop-opacity:1" id="stop4550" offset="0"/><stop style="stop-color:#f9f9f9;stop-opacity:1" id="stop4552" offset="1"/></linearGradient><linearGradient id="linearGradient4544" x1="328" x2="328" y1="221" y2="235" gradientTransform="matrix(14.25,0,0,14.25,-4514.0001,-3109.0001)" gradientUnits="userSpaceOnUse" xlink:href="#linearGradient4502"/><filter style="color-interpolation-filters:sRGB" id="filter4576" width="1.024" height="1.024" x="-.012" y="-.012"><feGaussianBlur id="feGaussianBlur4578" stdDeviation="1.14"/></filter><filter style="color-interpolation-filters:sRGB" id="filter4582" width="1.12" height="1.12" x="-.06" y="-.06"><feGaussianBlur id="feGaussianBlur4584" stdDeviation="5.7"/></filter><linearGradient id="linearGradient4502"><stop id="stop4500" offset="0" style="stop-color:#e6e6e6;stop-opacity:1"/><stop id="stop4498" offset="1" style="stop-color:#b3b3b3;stop-opacity:1"/></linearGradient><clipPath id="clipPath4776" clipPathUnits="userSpaceOnUse"><circle style="display:inline;opacity:1;fill:url(#linearGradient4780);fill-opacity:1;stroke:none;stroke-width:4.81818199;stroke-linecap:round;stroke-linejoin:miter;stroke-miterlimit:4;stroke-dasharray:none;stroke-dashoffset:0;stroke-opacity:1;enable-background:new" id="circle4778" cx="-140" cy="-160" r="106"/></clipPath><linearGradient id="linearGradient4780" x1="324" x2="364" y1="68" y2="68" gradientTransform="matrix(5.3,0,0,5.3,-1963.2001,-520.4)" gradientUnits="userSpaceOnUse" xlink:href="#linearGradient4554"/><linearGradient id="linearGradient4666" x1="328" x2="328" y1="221" y2="235" gradientTransform="matrix(0.875,0,0,0.875,41,28.5)" gradientUnits="userSpaceOnUse" xlink:href="#linearGradient4502"/><linearGradient id="linearGradient4668" x1="328" x2="328" y1="221" y2="235" gradientTransform="matrix(1.25,0,0,1.25,-78,-100.94116)" gradientUnits="userSpaceOnUse" xlink:href="#linearGradient4502"/><linearGradient id="linearGradient4670" x1="328" x2="328" y1="221" y2="235" gradientTransform="matrix(1.625,0,0,1.625,-197,-238.5)" gradientUnits="userSpaceOnUse" xlink:href="#linearGradient4502"/><linearGradient id="linearGradient4672" x1="328" x2="328" y1="221" y2="235" gradientTransform="matrix(2.625,0,0,2.625,-517.00001,-530.50002)" gradientUnits="userSpaceOnUse" xlink:href="#linearGradient4502"/><linearGradient id="linearGradient3900" x1="15" x2="33" y1="24" y2="24" gradientTransform="rotate(-90,206.00373,-114.00373)" gradientUnits="userSpaceOnUse" xlink:href="#linearGradient3894"/><linearGradient id="linearGradient3894"><stop style="stop-color:#fff;stop-opacity:1" id="stop3896" offset="0"/><stop style="stop-color:#fff;stop-opacity:0" id="stop3898" offset="1"/></linearGradient><clipPath id="clipPath3865" clipPathUnits="userSpaceOnUse"><path id="path3867" d="m 32,24 a 8,8 0 1 1 -16,0 8,8 0 1 1 16,0 z" style="opacity:.2;fill:#000;fill-opacity:1;stroke:none"/></clipPath><linearGradient id="linearGradient3887" x1="24" x2="24" y1="14" y2="33" gradientTransform="translate(320.00745,44)" gradientUnits="userSpaceOnUse" xlink:href="#linearGradient3881"/><linearGradient id="linearGradient3881"><stop style="stop-color:#2d2d2d;stop-opacity:1" id="stop3883" offset="0"/><stop style="stop-color:#3f3f3f;stop-opacity:1" id="stop3885" offset="1"/></linearGradient><clipPath id="clipPath3873" clipPathUnits="userSpaceOnUse"><path id="path3875" d="m 21,13 h 6 V 25.024233 L 25,27 l 2,2 v 6 H 21 V 22.892505 L 23,21 21,19 Z" style="fill:#555;fill-opacity:1;stroke:none"/></clipPath><clipPath id="clipPath4569" clipPathUnits="userSpaceOnUse"><path id="path4567" d="m 21,13 h 6 V 25.024233 L 25,27 l 2,2 v 6 H 21 V 22.892505 L 23,21 21,19 Z" style="fill:#555;fill-opacity:1;stroke:none"/></clipPath><clipPath id="clipPath4573" clipPathUnits="userSpaceOnUse"><path id="path4571" d="m 21,13 h 6 V 25.024233 L 25,27 l 2,2 v 6 H 21 V 22.892505 L 23,21 21,19 Z" style="fill:#555;fill-opacity:1;stroke:none"/></clipPath><linearGradient id="linearGradient4814" x1="-360" x2="-328" y1="68.017" y2="68.017" gradientTransform="translate(275.9833,-412.0167)" gradientUnits="userSpaceOnUse" xlink:href="#linearGradient4812"/><linearGradient id="linearGradient4829" x1="335" x2="353" y1="68" y2="68" gradientTransform="translate(-412,276)" gradientUnits="userSpaceOnUse" xlink:href="#linearGradient4827"/><linearGradient id="linearGradient4833" x1="335" x2="353" y1="68" y2="68" gradientTransform="matrix(2.1764706,0,0,2.1764706,-816.7059,196.00001)" gradientUnits="userSpaceOnUse" xlink:href="#linearGradient4827"/><linearGradient id="linearGradient4862" x1="-87" x2="-49" y1="344" y2="344" gradientTransform="matrix(0.94594595,0,0,0.94594595,132.32432,18.594595)" gradientUnits="userSpaceOnUse" xlink:href="#linearGradient4860"/><linearGradient id="linearGradient4866" x1="-87" x2="-49" y1="344" y2="344" gradientTransform="matrix(0.40540541,0,0,0.40540541,95.56757,-483.45946)" gradientUnits="userSpaceOnUse" xlink:href="#linearGradient4860"/><linearGradient id="linearGradient4870" x1="-360" x2="-328" y1="68.017" y2="68.017" gradientTransform="matrix(0.625,0,0,0.625,82.9833,-378.51044)" gradientUnits="userSpaceOnUse" xlink:href="#linearGradient4812"/><linearGradient id="linearGradient4874" x1="-360" x2="-328" y1="68.017" y2="68.017" gradientTransform="matrix(0.43750001,0,0,0.43750001,-33.516699,-361.75733)" gradientUnits="userSpaceOnUse" xlink:href="#linearGradient4812"/><linearGradient id="linearGradient4878" x1="-360" x2="-328" y1="68.017" y2="68.017" gradientTransform="matrix(0.31250001,0,0,0.31250001,-120.50001,-349.25523)" gradientUnits="userSpaceOnUse" xlink:href="#linearGradient4812"/><linearGradient id="linearGradient4882" x1="335" x2="353" y1="68" y2="68" gradientTransform="matrix(1.3529412,0,0,1.3529412,-597.41177,244)" gradientUnits="userSpaceOnUse" xlink:href="#linearGradient4827"/><linearGradient id="linearGradient4886" x1="335" x2="353" y1="68" y2="68" gradientTransform="translate(-528,264)" gradientUnits="userSpaceOnUse" xlink:href="#linearGradient4827"/><linearGradient id="linearGradient4890" x1="24" x2="24" y1="14" y2="33" gradientTransform="translate(311.00745,108)" gradientUnits="userSpaceOnUse" xlink:href="#linearGradient3881"/><linearGradient id="linearGradient4905" x1="-87" x2="-49" y1="344" y2="344" gradientTransform="matrix(0.37592138,0,0,0.37592138,93.562655,-473.31694)" gradientUnits="userSpaceOnUse" xlink:href="#linearGradient4860"/><linearGradient id="linearGradient4907" x1="335" x2="353" y1="68" y2="68" gradientTransform="translate(-412,276)" gradientUnits="userSpaceOnUse" xlink:href="#linearGradient4827"/><linearGradient id="linearGradient4913" x1="-365.787" x2="-322.213" y1="68.017" y2="68.017" gradientTransform="matrix(5.875,0,0,5.875,1880.9999,-559.59814)" gradientUnits="userSpaceOnUse" xlink:href="#linearGradient4812"/><linearGradient id="linearGradient4923" x1="335" x2="353" y1="68" y2="68" gradientTransform="translate(-412,276)" gradientUnits="userSpaceOnUse" xlink:href="#linearGradient4827"/><linearGradient id="linearGradient4925" x1="-87" x2="-49" y1="344" y2="344" gradientTransform="matrix(0.35735736,0,0,0.35735736,92.300295,-466.93093)" gradientUnits="userSpaceOnUse" xlink:href="#linearGradient4860"/><linearGradient id="linearGradient4929" x1="24" x2="24" y1="14" y2="33" gradientTransform="translate(307.00745,159)" gradientUnits="userSpaceOnUse" xlink:href="#linearGradient3881"/><linearGradient id="linearGradient4933" x1="24" x2="24" y1="14" y2="33" gradientTransform="matrix(0.49912653,0,0,0.49912653,315.52381,215.51485)" gradientUnits="userSpaceOnUse" xlink:href="#linearGradient3881"/><linearGradient id="linearGradient4939" x1="335" x2="353" y1="68" y2="68" gradientTransform="matrix(11.823529,0,0,11.823529,-4207.2942,-643.99998)" gradientUnits="userSpaceOnUse" xlink:href="#linearGradient4827"/><linearGradient id="linearGradient4943" x1="335" x2="353" y1="68" y2="68" gradientTransform="matrix(11,0,0,11,-3644.0001,-587.99998)" gradientUnits="userSpaceOnUse" xlink:href="#linearGradient4827"/><linearGradient id="linearGradient4947" x1="335" x2="353" y1="68" y2="68" gradientTransform="matrix(11.705882,0,0,11.705882,-3886.8236,-635.99996)" gradientUnits="userSpaceOnUse" xlink:href="#linearGradient4860"/><linearGradient id="linearGradient4953" x1="24" x2="24" y1="14" y2="33" gradientTransform="matrix(5,0,0,5,40,20.000044)" gradientUnits="userSpaceOnUse" xlink:href="#linearGradient3881"/><linearGradient id="linearGradient4967" x1="-87" x2="-49" y1="344" y2="344" gradientTransform="matrix(0.44978664,0,0,0.44978664,98.585484,-498.7266)" gradientUnits="userSpaceOnUse" xlink:href="#linearGradient4860"/><linearGradient id="linearGradient4969" x1="335" x2="353" y1="68" y2="68" gradientTransform="translate(-412,276)" gradientUnits="userSpaceOnUse" xlink:href="#linearGradient4827"/></defs><metadata id="metadata4"/><g id="layer3" style="display:none"><rect style="opacity:1;fill:#2f2f2f;fill-opacity:1;stroke:none;stroke-width:2;stroke-linecap:round;stroke-linejoin:miter;stroke-miterlimit:4;stroke-dasharray:none;stroke-dashoffset:0;stroke-opacity:1" id="rect4572" width="400" height="320" x="0" y="0" rx=".5" ry=".5"/></g><g id="layer1" transform="translate(0,20)" style="display:inline"><g id="layer7" style="display:none"><rect style="display:inline;overflow:visible;visibility:visible;fill:#eeeeec;fill-opacity:1;fill-rule:nonzero;stroke:none;stroke-width:2;marker:none;enable-background:accumulate" id="rect6592" width="32" height="32" x="320" y="116"/><rect id="rect6749" width="22" height="22" x="321" y="173.059" style="display:inline;overflow:visible;visibility:visible;fill:#eeeeec;fill-opacity:1;fill-rule:nonzero;stroke:none;stroke-width:2;marker:none;enable-background:accumulate"/><rect style="display:inline;overflow:visible;visibility:visible;fill:#eeeeec;fill-opacity:1;fill-rule:nonzero;stroke:none;stroke-width:2;marker:none;enable-background:accumulate" id="rect6833" width="16" height="16" x="320" y="220"/><rect style="display:inline;overflow:visible;visibility:visible;fill:#eeeeec;fill-opacity:1;fill-rule:nonzero;stroke:none;stroke-width:2;marker:none;enable-background:accumulate" id="rect8104" width="24" height="24" x="320" y="172"/><text style="font-style:normal;font-variant:normal;font-weight:400;font-stretch:normal;font-size:13.33333302px;line-height:125%;font-family:monospace;-inkscape-font-specification:monospace;text-align:start;writing-mode:lr-tb;text-anchor:start;display:inline;fill:#000;fill-opacity:1;stroke:none;enable-background:new" id="context" x="31.856" y="-65.7" xml:space="preserve"><tspan id="tspan2716" x="31.856" y="-65.7" style="font-weight:700">status</tspan></text><text id="text3021" x="31.265" y="-39.901" xml:space="preserve" style="font-style:normal;font-variant:normal;font-weight:400;font-stretch:normal;font-size:13.33333302px;line-height:125%;font-family:monospace;-inkscape-font-specification:monospace;text-align:start;writing-mode:lr-tb;text-anchor:start;display:inline;fill:#000;fill-opacity:1;stroke:none;enable-background:new"><tspan id="tspan3023" x="31.265" y="-39.901">dialog-password</tspan></text><rect style="display:inline;overflow:visible;visibility:visible;fill:#eeeeec;fill-opacity:1;fill-rule:nonzero;stroke:none;stroke-width:1.99999976;marker:none;enable-background:accumulate" id="rect13805" width="256" height="256" x="32" y="12"/><rect id="rect6284" width="48" height="48" x="44" y="320" transform="matrix(0,1,1,0,0,0)" style="display:inline;overflow:visible;visibility:visible;fill:#eeeeec;fill-opacity:1;fill-rule:nonzero;stroke:none;stroke-width:2;marker:none;enable-background:accumulate"/></g><g id="layer9" style="display:inline"><circle style="display:inline;opacity:.2;fill:#000;fill-opacity:1;stroke:#000;stroke-width:1;stroke-linecap:round;stroke-linejoin:miter;stroke-miterlimit:4;stroke-dasharray:none;stroke-dashoffset:0;stroke-opacity:1;filter:url(#filter4582);enable-background:new" id="circle4580" cx="160" cy="142" r="114"/><circle id="circle4572" cx="160" cy="141" r="114" style="display:inline;opacity:.5;fill:#000;fill-opacity:1;stroke:#000;stroke-width:1;stroke-linecap:round;stroke-linejoin:miter;stroke-miterlimit:4;stroke-dasharray:none;stroke-dashoffset:0;stroke-opacity:1;filter:url(#filter4576);enable-background:new"/><circle style="display:inline;opacity:1;fill:url(#linearGradient4544);fill-opacity:1;stroke:none;stroke-width:1;stroke-linecap:round;stroke-linejoin:miter;stroke-miterlimit:4;stroke-dasharray:none;stroke-dashoffset:0;stroke-opacity:1;enable-background:new" id="circle4542" cx="160" cy="140" r="114"/><circle id="circle4736" cx="-140" cy="-160" r="100" transform="matrix(0,-1,-1,0,0,0)" style="display:inline;opacity:1;fill:#4d4d4d;fill-opacity:1;stroke:none;stroke-width:4.72727299;stroke-linecap:round;stroke-linejoin:miter;stroke-miterlimit:4;stroke-dasharray:none;stroke-dashoffset:0;stroke-opacity:1;enable-background:new"/><circle id="circle4614" cx="328" cy="228" r="7" style="display:inline;opacity:.8;fill:none;fill-opacity:1;stroke:#4f555d;stroke-width:2;stroke-linecap:round;stroke-linejoin:miter;stroke-miterlimit:4;stroke-dasharray:none;stroke-dashoffset:0;stroke-opacity:1;enable-background:new"/><circle style="display:inline;opacity:.8;fill:none;fill-opacity:1;stroke:#4f555d;stroke-width:2;stroke-linecap:round;stroke-linejoin:miter;stroke-miterlimit:4;stroke-dasharray:none;stroke-dashoffset:0;stroke-opacity:1;enable-background:new" id="circle4612" cx="332" cy="184.059" r="10"/><circle id="circle4596" cx="336" cy="132" r="13" style="display:inline;opacity:.8;fill:none;fill-opacity:1;stroke:#4f555d;stroke-width:2;stroke-linecap:round;stroke-linejoin:miter;stroke-miterlimit:4;stroke-dasharray:none;stroke-dashoffset:0;stroke-opacity:1;enable-background:new"/><circle id="circle4616" cx="328" cy="229" r="7" style="display:inline;opacity:.4;fill:#272829;fill-opacity:1;stroke:none;stroke-width:1;stroke-linecap:round;stroke-linejoin:miter;stroke-miterlimit:4;stroke-dasharray:none;stroke-dashoffset:0;stroke-opacity:1;enable-background:new"/><circle style="display:inline;opacity:.4;fill:#272829;fill-opacity:1;stroke:none;stroke-width:1;stroke-linecap:round;stroke-linejoin:miter;stroke-miterlimit:4;stroke-dasharray:none;stroke-dashoffset:0;stroke-opacity:1;enable-background:new" id="circle4618" cx="332" cy="185.059" r="10"/><circle id="circle4620" cx="336" cy="133" r="13" style="display:inline;opacity:.4;fill:#272829;fill-opacity:1;stroke:none;stroke-width:1;stroke-linecap:round;stroke-linejoin:miter;stroke-miterlimit:4;stroke-dasharray:none;stroke-dashoffset:0;stroke-opacity:1;enable-background:new"/><circle style="display:inline;opacity:.8;fill:none;fill-opacity:1;stroke:#4f555d;stroke-width:2;stroke-linecap:round;stroke-linejoin:miter;stroke-miterlimit:4;stroke-dasharray:none;stroke-dashoffset:0;stroke-opacity:1;enable-background:new" id="circle4568" cx="344" cy="68" r="21"/><circle style="display:inline;opacity:.4;fill:#000;fill-opacity:1;stroke:none;stroke-width:1;stroke-linecap:round;stroke-linejoin:miter;stroke-miterlimit:4;stroke-dasharray:none;stroke-dashoffset:0;stroke-opacity:1;enable-background:new" id="circle4583" cx="344" cy="69" r="21"/><circle style="display:inline;opacity:1;fill:url(#linearGradient4666);fill-opacity:1;stroke:none;stroke-width:1;stroke-linecap:round;stroke-linejoin:miter;stroke-miterlimit:4;stroke-dasharray:none;stroke-dashoffset:0;stroke-opacity:1;enable-background:new" id="path4510" cx="328" cy="228" r="7"/><circle id="circle4528" cx="332" cy="184.059" r="10" style="display:inline;opacity:1;fill:url(#linearGradient4668);fill-opacity:1;stroke:none;stroke-width:1;stroke-linecap:round;stroke-linejoin:miter;stroke-miterlimit:4;stroke-dasharray:none;stroke-dashoffset:0;stroke-opacity:1;enable-background:new"/><circle style="display:inline;opacity:1;fill:url(#linearGradient4670);fill-opacity:1;stroke:none;stroke-width:1;stroke-linecap:round;stroke-linejoin:miter;stroke-miterlimit:4;stroke-dasharray:none;stroke-dashoffset:0;stroke-opacity:1;enable-background:new" id="circle4534" cx="336" cy="132" r="13"/><circle id="circle4538" cx="344" cy="68" r="21" style="display:inline;opacity:1;fill:url(#linearGradient4672);fill-opacity:1;stroke:none;stroke-width:1;stroke-linecap:round;stroke-linejoin:miter;stroke-miterlimit:4;stroke-dasharray:none;stroke-dashoffset:0;stroke-opacity:1;enable-background:new"/><circle style="display:inline;opacity:1;fill:#4d4d4d;fill-opacity:1;stroke:none;stroke-width:.90909094;stroke-linecap:round;stroke-linejoin:miter;stroke-miterlimit:4;stroke-dasharray:none;stroke-dashoffset:0;stroke-opacity:1;enable-background:new" id="circle4539" cx="-68.017" cy="-344" r="18" transform="matrix(0,-1,-1,0,0,0)"/><circle id="circle4646" cx="-184.059" cy="-332" r="8" transform="matrix(0,-1,-1,0,0,0)" style="display:inline;opacity:1;fill:#4d4d4d;fill-opacity:1;stroke:none;stroke-width:.909091;stroke-linecap:round;stroke-linejoin:miter;stroke-miterlimit:4;stroke-dasharray:none;stroke-dashoffset:0;stroke-opacity:1;enable-background:new"/><circle style="display:inline;opacity:1;fill:#4d4d4d;fill-opacity:1;stroke:none;stroke-width:.90909106;stroke-linecap:round;stroke-linejoin:miter;stroke-miterlimit:4;stroke-dasharray:none;stroke-dashoffset:0;stroke-opacity:1;enable-background:new" id="circle4666" cx="-228" cy="-328" r="6" transform="matrix(0,-1,-1,0,0,0)"/><circle style="display:inline;opacity:1;fill:url(#linearGradient4878);fill-opacity:1;stroke:none;stroke-width:.90909088;stroke-linecap:round;stroke-linejoin:miter;stroke-miterlimit:4;stroke-dasharray:none;stroke-dashoffset:0;stroke-opacity:1;enable-background:new" id="circle4876" cx="-228" cy="-328" r="5" transform="matrix(0,-1,-1,0,0,0)"/><circle id="circle4700" cx="-132" cy="-336" r="11" transform="matrix(0,-1,-1,0,0,0)" style="display:inline;opacity:1;fill:#4d4d4d;fill-opacity:1;stroke:none;stroke-width:.90909088;stroke-linecap:round;stroke-linejoin:miter;stroke-miterlimit:4;stroke-dasharray:none;stroke-dashoffset:0;stroke-opacity:1;enable-background:new"/><path style="display:inline;opacity:.4;fill:#fff;fill-opacity:1;stroke:none;stroke-width:1;stroke-linecap:round;stroke-linejoin:miter;stroke-miterlimit:4;stroke-dasharray:none;stroke-dashoffset:0;stroke-opacity:1;enable-background:new" id="circle4574" d="m 344,47 a 21,21 0 0 0 -21,21 21,21 0 0 0 0.0215,0.585938 A 21,21 0 0 1 344,48 21,21 0 0 1 364.97852,68.414062 21,21 0 0 0 365,68 21,21 0 0 0 344,47 Z"/><circle id="circle4752" cx="-68.017" cy="-344" r="16" transform="matrix(0,-1,-1,0,0,0)" style="display:inline;opacity:1;fill:url(#linearGradient4814);fill-opacity:1;stroke:none;stroke-width:.90909088;stroke-linecap:round;stroke-linejoin:miter;stroke-miterlimit:4;stroke-dasharray:none;stroke-dashoffset:0;stroke-opacity:1;enable-background:new"/><g id="g4895"><circle style="opacity:.1;fill:none;fill-opacity:1;stroke:url(#linearGradient4866);stroke-width:.99999994;stroke-linecap:round;stroke-linejoin:round;stroke-miterlimit:4;stroke-dasharray:none;stroke-dashoffset:0;stroke-opacity:1" id="circle4864" cx="68" cy="-344" r="7.5" transform="rotate(90)"/><circle id="path4821" cx="-68" cy="344" r="8.5" transform="rotate(-90)" style="opacity:.3;fill:none;fill-opacity:1;stroke:url(#linearGradient4829);stroke-width:1;stroke-linecap:round;stroke-linejoin:round;stroke-miterlimit:4;stroke-dasharray:none;stroke-dashoffset:0;stroke-opacity:1"/><path style="opacity:.1;fill:#000;fill-opacity:1;stroke:none" id="path3857" d="m 352.00745,68 a 8,8 0 1 1 -16,0 8,8 0 1 1 16,0 z"/></g><path style="opacity:.6;fill:#fff;fill-opacity:1;stroke:none" id="path3861" d="m 341.00745,58 h 6 v 10.024233 l -2,1.975767 2,2 v 6 h -6 V 65.892505 l 2,-1.892505 -2,-2 z"/><path id="rect3030" d="m 341.00745,57 h 6 v 12.024233 l -2,1.975767 2,2 v 6 h -6 V 66.892505 l 2,-1.892505 -2,-2 z" style="fill:url(#linearGradient3887);fill-opacity:1;stroke:none"/><circle id="circle4831" cx="-68" cy="344" r="18.5" transform="rotate(-90)" style="opacity:.3;fill:none;fill-opacity:1;stroke:url(#linearGradient4833);stroke-width:1;stroke-linecap:round;stroke-linejoin:round;stroke-miterlimit:4;stroke-dasharray:none;stroke-dashoffset:0;stroke-opacity:1"/><circle style="opacity:.3;fill:none;fill-opacity:1;stroke:url(#linearGradient4862);stroke-width:1;stroke-linecap:round;stroke-linejoin:round;stroke-miterlimit:4;stroke-dasharray:none;stroke-dashoffset:0;stroke-opacity:1" id="circle4854" cx="68" cy="344" r="17.5" transform="matrix(0,1,1,0,0,0)"/><circle style="display:inline;opacity:1;fill:url(#linearGradient4870);fill-opacity:1;stroke:none;stroke-width:.90909088;stroke-linecap:round;stroke-linejoin:miter;stroke-miterlimit:4;stroke-dasharray:none;stroke-dashoffset:0;stroke-opacity:1;enable-background:new" id="circle4868" cx="-132.017" cy="-336" r="10" transform="matrix(0,-1,-1,0,0,0)"/><g id="g4903" transform="matrix(0.64705883,0,0,0.64705883,113.41176,87.999999)" style="stroke-width:1.5454545"><circle style="opacity:.3;fill:none;fill-opacity:1;stroke:url(#linearGradient4907);stroke-width:1.5454545;stroke-linecap:round;stroke-linejoin:round;stroke-miterlimit:4;stroke-dasharray:none;stroke-dashoffset:0;stroke-opacity:1" id="circle4899" cx="-68" cy="344" r="8.5" transform="rotate(-90)"/><circle id="circle4897" cx="68" cy="-344" r="6.955" transform="rotate(90)" style="opacity:.1;fill:none;fill-opacity:1;stroke:url(#linearGradient4905);stroke-width:1.5454545;stroke-linecap:round;stroke-linejoin:round;stroke-miterlimit:4;stroke-dasharray:none;stroke-dashoffset:0;stroke-opacity:1"/><path id="path4901" d="m 351.72728,67.999999 a 7.727275,7.727275 0 1 1 -15.45455,0 7.727275,7.727275 0 1 1 15.45455,0 z" style="opacity:.1;fill:#000;fill-opacity:1;stroke:none;stroke-width:1.5454545"/></g><circle id="circle4872" cx="-184.017" cy="-332" r="7" transform="matrix(0,-1,-1,0,0,0)" style="display:inline;opacity:1;fill:url(#linearGradient4874);fill-opacity:1;stroke:none;stroke-width:.90909094;stroke-linecap:round;stroke-linejoin:miter;stroke-miterlimit:4;stroke-dasharray:none;stroke-dashoffset:0;stroke-opacity:1;enable-background:new"/><circle style="opacity:.3;fill:none;fill-opacity:1;stroke:url(#linearGradient4882);stroke-width:1;stroke-linecap:round;stroke-linejoin:round;stroke-miterlimit:4;stroke-dasharray:none;stroke-dashoffset:0;stroke-opacity:1" id="circle4880" cx="-132" cy="336" r="11.5" transform="rotate(-90)"/><circle id="circle4884" cx="-184" cy="332" r="8.5" transform="rotate(-90)" style="opacity:.3;fill:none;fill-opacity:1;stroke:url(#linearGradient4886);stroke-width:1;stroke-linecap:round;stroke-linejoin:round;stroke-miterlimit:4;stroke-dasharray:none;stroke-dashoffset:0;stroke-opacity:1"/><path style="fill:url(#linearGradient4890);fill-opacity:1;stroke:none" id="path4888" d="m 334,125 h 4 v 8.02423 l -1.5,1.47577 1.5,1.5 0.007,3 h -4 L 334,131 335.5,129.5 334,128 Z"/><circle id="circle4911" cx="-140" cy="-160" r="94" transform="matrix(0,-1,-1,0,0,0)" style="display:inline;opacity:1;fill:url(#linearGradient4913);fill-opacity:1;stroke:none;stroke-width:.90909082;stroke-linecap:round;stroke-linejoin:miter;stroke-miterlimit:4;stroke-dasharray:none;stroke-dashoffset:0;stroke-opacity:1;enable-background:new"/><g id="g4965" transform="matrix(5.5882353,0,0,5.5882353,-1762.3529,-239.99995)" style="stroke-width:.17894736"><path id="path4963" d="m 352.41053,67.999987 a 8.41053,8.41053 0 1 1 -16.82106,0 8.41053,8.41053 0 1 1 16.82106,0 z" style="opacity:.1;fill:#000;fill-opacity:1;stroke:none;stroke-width:.17894736"/><circle id="circle4959" cx="68" cy="-344" r="8.321" transform="rotate(90)" style="opacity:.1;fill:none;fill-opacity:1;stroke:url(#linearGradient4967);stroke-width:.17894736;stroke-linecap:round;stroke-linejoin:round;stroke-miterlimit:4;stroke-dasharray:none;stroke-dashoffset:0;stroke-opacity:1"/><circle style="opacity:.3;fill:none;fill-opacity:1;stroke:url(#linearGradient4969);stroke-width:.17894736;stroke-linecap:round;stroke-linejoin:round;stroke-miterlimit:4;stroke-dasharray:none;stroke-dashoffset:0;stroke-opacity:1" id="circle4961" cx="-68" cy="344" r="8.5" transform="rotate(-90)"/></g><g style="stroke-width:1.88888884" id="g4921" transform="matrix(0.52941177,0,0,0.52941177,149.88235,148)"><circle id="circle4915" cx="-68" cy="344" r="8.5" transform="rotate(-90)" style="opacity:.3;fill:none;fill-opacity:1;stroke:url(#linearGradient4923);stroke-width:1.88888884;stroke-linecap:round;stroke-linejoin:round;stroke-miterlimit:4;stroke-dasharray:none;stroke-dashoffset:0;stroke-opacity:1"/><circle style="opacity:.1;fill:none;fill-opacity:1;stroke:url(#linearGradient4925);stroke-width:1.88888884;stroke-linecap:round;stroke-linejoin:round;stroke-miterlimit:4;stroke-dasharray:none;stroke-dashoffset:0;stroke-opacity:1" id="circle4917" cx="68" cy="-344" r="6.611" transform="rotate(90)"/><path style="opacity:.1;fill:#000;fill-opacity:1;stroke:none;stroke-width:1.88888884" id="path4919" d="m 351.55556,67.997251 a 7.5555555,7.5555555 0 1 1 -15.11111,0 7.5555555,7.5555555 0 1 1 15.11111,0 z"/></g><path id="path4927" d="m 330,179 h 4 v 5.02423 L 332.5,185.5 334,187 v 2 h -4 v -5 l 1.5,-1.5 -1.5,-1.5 z" style="fill:url(#linearGradient4929);fill-opacity:1;stroke:none"/><path id="path4931" d="m 327,225 h 1.99651 v 3.00511 L 328,229 l 1,1 -4.9e-4,0.98777 H 327.003 L 327,227.99476 328,227 l -1,-1 z" style="fill:url(#linearGradient4933);fill-opacity:1;stroke:none;stroke-width:1"/><circle style="opacity:.3;fill:none;fill-opacity:1;stroke:url(#linearGradient4939);stroke-width:1;stroke-linecap:round;stroke-linejoin:round;stroke-miterlimit:4;stroke-dasharray:none;stroke-dashoffset:0;stroke-opacity:1" id="circle4937" cx="-140" cy="160" r="100.5" transform="rotate(-90)"/><circle id="circle4941" cx="140" cy="160" r="93.5" transform="matrix(0,1,1,0,0,0)" style="opacity:.3;fill:none;fill-opacity:1;stroke:url(#linearGradient4943);stroke-width:1;stroke-linecap:round;stroke-linejoin:round;stroke-miterlimit:4;stroke-dasharray:none;stroke-dashoffset:0;stroke-opacity:1"/><circle style="opacity:.2;fill:none;fill-opacity:1;stroke:url(#linearGradient4947);stroke-width:1;stroke-linecap:round;stroke-linejoin:round;stroke-miterlimit:4;stroke-dasharray:none;stroke-dashoffset:0;stroke-opacity:1" id="circle4945" cx="140" cy="160" r="99.5" transform="matrix(0,1,1,0,0,0)"/><path id="path4955" d="m 144,85 h 32 v 60 l -10,10 10,10 v 32 h -32 v -64 l 10,-10 -10,-10 z" style="fill:#fff;fill-opacity:1;stroke:none;stroke-width:1;opacity:.5"/><path style="fill:url(#linearGradient4953);fill-opacity:1;stroke:none;stroke-width:1" id="path4951" d="m 144,84 h 32 v 60 l -10,10 10,10 v 32 h -32 v -64 l 10,-10 -10,-10 z"/></g></g></svg>