<svg xmlns="http://www.w3.org/2000/svg" xmlns:svg="http://www.w3.org/2000/svg" xmlns:xlink="http://www.w3.org/1999/xlink" id="svg11300" width="400" height="320" version="1.0" viewBox="0 0 400 320" style="display:inline;enable-background:new"><title id="title4162">Solus Icon Template</title><defs id="defs3"><linearGradient id="linearGradient4741"><stop id="stop4737" offset="0" style="stop-color:#b3b3b3;stop-opacity:1"/><stop id="stop4739" offset="1" style="stop-color:#ccc;stop-opacity:1"/></linearGradient><linearGradient id="linearGradient4598"><stop style="stop-color:#fff;stop-opacity:1" id="stop4594" offset="0"/><stop style="stop-color:#fff;stop-opacity:.53515625" id="stop4596" offset="1"/></linearGradient><linearGradient id="linearGradient4771"><stop style="stop-color:#a984b8;stop-opacity:1" id="stop4767" offset="0"/><stop style="stop-color:#c5d3eb;stop-opacity:1" id="stop4769" offset="1"/></linearGradient><linearGradient id="linearGradient4773" x1="344" x2="344" y1="52" y2="84" gradientTransform="translate(0,1)" gradientUnits="userSpaceOnUse" xlink:href="#linearGradient4771"/><linearGradient id="linearGradient4805" x1="336" x2="336" y1="120" y2="144" gradientUnits="userSpaceOnUse" xlink:href="#linearGradient4771"/><linearGradient id="linearGradient4807" x1="332" x2="332" y1="176" y2="192" gradientUnits="userSpaceOnUse" xlink:href="#linearGradient4771"/><linearGradient id="linearGradient4809" x1="328" x2="328" y1="222" y2="234" gradientUnits="userSpaceOnUse" xlink:href="#linearGradient4771"/><linearGradient id="linearGradient4864" x1="336" x2="336" y1="120" y2="144" gradientTransform="matrix(8,0,0,8,-2528,-907.99996)" gradientUnits="userSpaceOnUse" xlink:href="#linearGradient4771"/><filter style="color-interpolation-filters:sRGB" id="filter4881" width="1.045" height="1.052" x="-.022" y="-.026"><feGaussianBlur id="feGaussianBlur4883" stdDeviation="2.08"/></filter><linearGradient id="linearGradient4600" x1="349" x2="357" y1="62" y2="62" gradientUnits="userSpaceOnUse" xlink:href="#linearGradient4598"/><linearGradient id="linearGradient4610" x1="-357" x2="-349" y1="62" y2="62" gradientTransform="translate(415,291)" gradientUnits="userSpaceOnUse" xlink:href="#linearGradient4598"/><linearGradient id="linearGradient4618" x1="-338.158" x2="-334.368" y1="181.105" y2="181.105" gradientTransform="translate(517.36841,155.1579)" gradientUnits="userSpaceOnUse" xlink:href="#linearGradient4598"/><linearGradient id="linearGradient4620" x1="-344.895" x2="-339.421" y1="127.263" y2="127.263" gradientTransform="translate(469.42105,214.89474)" gradientUnits="userSpaceOnUse" xlink:href="#linearGradient4598"/><linearGradient id="linearGradient4622" x1="-357" x2="-349" y1="62" y2="62" gradientTransform="translate(415,291)" gradientUnits="userSpaceOnUse" xlink:href="#linearGradient4598"/><linearGradient id="linearGradient4700" x1="336" x2="336" y1="120" y2="144" gradientTransform="matrix(8,0,0,8,-2128,-907.99996)" gradientUnits="userSpaceOnUse" xlink:href="#linearGradient4741"/><linearGradient id="linearGradient4702" x1="336" x2="336" y1="120" y2="144" gradientTransform="translate(400)" gradientUnits="userSpaceOnUse" xlink:href="#linearGradient4741"/><linearGradient id="linearGradient4704" x1="328" x2="328" y1="222" y2="234" gradientTransform="translate(400)" gradientUnits="userSpaceOnUse" xlink:href="#linearGradient4741"/><linearGradient id="linearGradient4706" x1="332" x2="332" y1="176" y2="192" gradientTransform="translate(400)" gradientUnits="userSpaceOnUse" xlink:href="#linearGradient4741"/><linearGradient id="linearGradient4708" x1="344" x2="344" y1="52" y2="84" gradientTransform="translate(400,1)" gradientUnits="userSpaceOnUse" xlink:href="#linearGradient4741"/><linearGradient id="linearGradient4897" x1="336" x2="336" y1="120" y2="144" gradientTransform="matrix(8,0,0,8,-1728,-907.99996)" gradientUnits="userSpaceOnUse" xlink:href="#linearGradient4741"/><linearGradient id="linearGradient4899" x1="336" x2="336" y1="120" y2="144" gradientTransform="translate(800)" gradientUnits="userSpaceOnUse" xlink:href="#linearGradient4741"/><linearGradient id="linearGradient4901" x1="328" x2="328" y1="222" y2="234" gradientTransform="translate(800)" gradientUnits="userSpaceOnUse" xlink:href="#linearGradient4741"/><linearGradient id="linearGradient4903" x1="332" x2="332" y1="176" y2="192" gradientTransform="translate(800)" gradientUnits="userSpaceOnUse" xlink:href="#linearGradient4741"/><linearGradient id="linearGradient4905" x1="344" x2="344" y1="52" y2="84" gradientTransform="translate(800,1)" gradientUnits="userSpaceOnUse" xlink:href="#linearGradient4741"/></defs><metadata id="metadata4"/><g id="layer2" style="display:none"><rect style="opacity:1;fill:#464f5d;fill-opacity:1;stroke:none;stroke-width:1;stroke-linecap:round;stroke-linejoin:round;stroke-miterlimit:4;stroke-dasharray:none;stroke-dashoffset:0;stroke-opacity:1" id="rect4749" width="400" height="320" x="0" y="0" rx=".5" ry=".5"/></g><g id="layer1" transform="translate(0,20)" style="display:inline"><g id="layer7" style="display:none"><rect style="display:inline;overflow:visible;visibility:visible;fill:#eeeeec;fill-opacity:1;fill-rule:nonzero;stroke:none;stroke-width:2;marker:none;enable-background:accumulate" id="rect6592" width="32" height="32" x="320" y="116"/><rect id="rect6749" width="22" height="22" x="321" y="173.059" style="display:inline;overflow:visible;visibility:visible;fill:#eeeeec;fill-opacity:1;fill-rule:nonzero;stroke:none;stroke-width:2;marker:none;enable-background:accumulate"/><rect style="display:inline;overflow:visible;visibility:visible;fill:#eeeeec;fill-opacity:1;fill-rule:nonzero;stroke:none;stroke-width:2;marker:none;enable-background:accumulate" id="rect6833" width="16" height="16" x="320" y="220"/><rect style="display:inline;overflow:visible;visibility:visible;fill:#eeeeec;fill-opacity:1;fill-rule:nonzero;stroke:none;stroke-width:2;marker:none;enable-background:accumulate" id="rect8104" width="24" height="24" x="320" y="172"/><text style="font-style:normal;font-variant:normal;font-weight:400;font-stretch:normal;font-size:13.33333302px;line-height:125%;font-family:monospace;-inkscape-font-specification:monospace;text-align:start;writing-mode:lr-tb;text-anchor:start;display:inline;fill:#000;fill-opacity:1;stroke:none;enable-background:new" id="context" x="31.856" y="-65.7" xml:space="preserve"><tspan id="tspan2716" x="31.856" y="-65.7" style="font-weight:700">mimetypes</tspan></text><text id="text3021" x="31.265" y="-39.901" xml:space="preserve" style="font-style:normal;font-variant:normal;font-weight:400;font-stretch:normal;font-size:13.33333302px;line-height:125%;font-family:monospace;-inkscape-font-specification:monospace;text-align:start;writing-mode:lr-tb;text-anchor:start;display:inline;fill:#000;fill-opacity:1;stroke:none;enable-background:new"><tspan id="tspan3023" x="31.265" y="-39.901">image-x-generic</tspan></text><rect style="display:inline;overflow:visible;visibility:visible;fill:#eeeeec;fill-opacity:1;fill-rule:nonzero;stroke:none;stroke-width:1.99999976;marker:none;enable-background:accumulate" id="rect13805" width="256" height="256" x="32" y="12"/><rect id="rect6284" width="48" height="48" x="44" y="320" transform="matrix(0,1,1,0,0,0)" style="display:inline;overflow:visible;visibility:visible;fill:#eeeeec;fill-opacity:1;fill-rule:nonzero;stroke:none;stroke-width:2;marker:none;enable-background:accumulate"/></g><g id="layer9" style="display:inline"><rect id="rect4879" width="224" height="192" x="48" y="53" rx=".5" ry=".5" style="display:inline;opacity:.4;fill:#000;fill-opacity:1;stroke:#000;stroke-width:1;stroke-linecap:round;stroke-linejoin:round;stroke-miterlimit:4;stroke-dasharray:none;stroke-dashoffset:0;stroke-opacity:1;filter:url(#filter4881);enable-background:new"/><rect style="display:inline;opacity:.02000002;fill:#000;fill-opacity:1;stroke:#000;stroke-width:3;stroke-linecap:round;stroke-linejoin:round;stroke-miterlimit:4;stroke-dasharray:none;stroke-dashoffset:0;stroke-opacity:1;enable-background:new" id="rect4825" width="29" height="25" x="321.5" y="119.5" rx="1" ry="1"/><rect id="rect4819" width="29" height="25" x="321.5" y="120.5" rx="1" ry="1" style="display:inline;opacity:.05;fill:#000;fill-opacity:1;stroke:#000;stroke-width:.99999994;stroke-linecap:round;stroke-linejoin:round;stroke-miterlimit:4;stroke-dasharray:none;stroke-dashoffset:0;stroke-opacity:1;enable-background:new"/><rect id="rect4823" width="43" height="37" x="322.5" y="50.5" rx="1.5" ry="1.5" style="display:inline;opacity:.02000002;fill:#000;fill-opacity:1;stroke:#000;stroke-width:3;stroke-linecap:round;stroke-linejoin:round;stroke-miterlimit:4;stroke-dasharray:none;stroke-dashoffset:0;stroke-opacity:1;enable-background:new"/><rect style="display:inline;opacity:.05;fill:#000;fill-opacity:1;stroke:#000;stroke-width:1;stroke-linecap:round;stroke-linejoin:round;stroke-miterlimit:4;stroke-dasharray:none;stroke-dashoffset:0;stroke-opacity:1;enable-background:new" id="rect4817" width="43" height="37" x="322.5" y="51.5" rx="1.5" ry="1.5"/><rect id="rect4827" width="21" height="18" x="321.5" y="175.5" rx="1" ry="1" style="display:inline;opacity:.02000002;fill:#000;fill-opacity:1;stroke:#000;stroke-width:3;stroke-linecap:round;stroke-linejoin:round;stroke-miterlimit:4;stroke-dasharray:none;stroke-dashoffset:0;stroke-opacity:1;enable-background:new"/><rect style="display:inline;opacity:.05;fill:#000;fill-opacity:1;stroke:#000;stroke-width:.99999982;stroke-linecap:round;stroke-linejoin:round;stroke-miterlimit:4;stroke-dasharray:none;stroke-dashoffset:0;stroke-opacity:1;enable-background:new" id="rect4821" width="21" height="18" x="321.5" y="176.5" rx="1" ry="1"/><rect style="display:inline;opacity:1;fill:#f9f9f9;fill-opacity:1;stroke:none;stroke-width:.99999988;stroke-linecap:round;stroke-linejoin:round;stroke-miterlimit:4;stroke-dasharray:none;stroke-dashoffset:0;stroke-opacity:.2;enable-background:new" id="rect4757" width="14" height="12" x="321" y="222" ry=".5"/><rect style="display:inline;opacity:1;fill:#f9f9f9;fill-opacity:1;stroke:none;stroke-width:1;stroke-linecap:round;stroke-linejoin:round;stroke-miterlimit:4;stroke-dasharray:none;stroke-dashoffset:0;stroke-opacity:.2;enable-background:new" id="rect4631" width="42" height="36" x="323" y="51" rx="1" ry="1"/><rect style="display:inline;opacity:1;fill:url(#linearGradient4773);fill-opacity:1;stroke:none;stroke-width:1;stroke-linecap:round;stroke-linejoin:round;stroke-miterlimit:4;stroke-dasharray:none;stroke-dashoffset:0;stroke-opacity:.30196078;enable-background:new" id="rect4641" width="38" height="32" x="325" y="53"/><rect id="rect4712" width="37" height="31" x="325.5" y="53.5" style="display:inline;opacity:.2;fill:none;fill-opacity:1;stroke:#000;stroke-width:1;stroke-linecap:round;stroke-linejoin:round;stroke-miterlimit:4;stroke-dasharray:none;stroke-dashoffset:0;stroke-opacity:1;enable-background:new"/><rect style="display:inline;opacity:1;fill:#f9f9f9;fill-opacity:1;stroke:none;stroke-width:.99999982;stroke-linecap:round;stroke-linejoin:round;stroke-miterlimit:4;stroke-dasharray:none;stroke-dashoffset:0;stroke-opacity:.2;enable-background:new" id="rect4732" width="20" height="17" x="322" y="176" ry=".5"/><rect id="rect4734" width="18" height="15" x="323" y="177" style="display:inline;opacity:1;fill:url(#linearGradient4807);fill-opacity:1;stroke:none;stroke-width:1;stroke-linecap:round;stroke-linejoin:round;stroke-miterlimit:4;stroke-dasharray:none;stroke-dashoffset:0;stroke-opacity:.30196078;enable-background:new"/><rect style="display:inline;opacity:.2;fill:none;fill-opacity:1;stroke:#000;stroke-width:1;stroke-linecap:round;stroke-linejoin:round;stroke-miterlimit:4;stroke-dasharray:none;stroke-dashoffset:0;stroke-opacity:1;enable-background:new" id="rect4736" width="17" height="14" x="323.5" y="177.5"/><rect id="rect4738" width="15" height="13" x="320.5" y="221.5" rx="1" ry="1" style="display:inline;opacity:.3;fill:none;fill-opacity:1;stroke:#000;stroke-width:.99999988;stroke-linecap:round;stroke-linejoin:round;stroke-miterlimit:4;stroke-dasharray:none;stroke-dashoffset:0;stroke-opacity:1;enable-background:new"/><rect style="display:inline;opacity:1;fill:url(#linearGradient4809);fill-opacity:1;stroke:none;stroke-width:1;stroke-linecap:round;stroke-linejoin:round;stroke-miterlimit:4;stroke-dasharray:none;stroke-dashoffset:0;stroke-opacity:.30196078;enable-background:new" id="rect4740" width="12" height="10" x="322" y="223"/><rect id="rect4742" width="11" height="9" x="322.5" y="223.5" style="display:inline;opacity:.2;fill:none;fill-opacity:1;stroke:#000;stroke-width:.99999994;stroke-linecap:round;stroke-linejoin:round;stroke-miterlimit:4;stroke-dasharray:none;stroke-dashoffset:0;stroke-opacity:1;enable-background:new"/><rect id="rect4751" width="43" height="37" x="322.5" y="50.5" rx="1.5" ry="1.5" style="display:inline;opacity:.3;fill:none;fill-opacity:1;stroke:#000;stroke-width:1;stroke-linecap:round;stroke-linejoin:round;stroke-miterlimit:4;stroke-dasharray:none;stroke-dashoffset:0;stroke-opacity:1;enable-background:new"/><rect style="display:inline;opacity:.3;fill:none;fill-opacity:1;stroke:#000;stroke-width:.99999994;stroke-linecap:round;stroke-linejoin:round;stroke-miterlimit:4;stroke-dasharray:none;stroke-dashoffset:0;stroke-opacity:1;enable-background:new" id="rect4753" width="29" height="25" x="321.5" y="119.5" rx="1" ry="1"/><rect id="rect4755" width="21" height="18" x="321.5" y="175.5" rx="1" ry="1" style="display:inline;opacity:.3;fill:none;fill-opacity:1;stroke:#000;stroke-width:.99999982;stroke-linecap:round;stroke-linejoin:round;stroke-miterlimit:4;stroke-dasharray:none;stroke-dashoffset:0;stroke-opacity:1;enable-background:new"/><rect id="rect4643" width="28" height="24" x="322" y="120" ry=".5" style="display:inline;opacity:1;fill:#f9f9f9;fill-opacity:1;stroke:none;stroke-width:.99999994;stroke-linecap:round;stroke-linejoin:round;stroke-miterlimit:4;stroke-dasharray:none;stroke-dashoffset:0;stroke-opacity:.2;enable-background:new"/><rect style="display:inline;opacity:1;fill:url(#linearGradient4805);fill-opacity:1;stroke:none;stroke-width:1;stroke-linecap:round;stroke-linejoin:round;stroke-miterlimit:4;stroke-dasharray:none;stroke-dashoffset:0;stroke-opacity:.30196078;enable-background:new" id="rect4724" width="26" height="22" x="323" y="121"/><rect id="rect4726" width="25" height="21" x="323.5" y="121.5" style="display:inline;opacity:.2;fill:none;fill-opacity:1;stroke:#000;stroke-width:1;stroke-linecap:round;stroke-linejoin:round;stroke-miterlimit:4;stroke-dasharray:none;stroke-dashoffset:0;stroke-opacity:1;enable-background:new"/><rect style="display:inline;opacity:1;fill:#f9f9f9;fill-opacity:1;stroke:none;stroke-width:.99999994;stroke-linecap:round;stroke-linejoin:round;stroke-miterlimit:4;stroke-dasharray:none;stroke-dashoffset:0;stroke-opacity:.2;enable-background:new" id="rect4850" width="224" height="192" x="48" y="52" rx=".5" ry=".5"/><rect id="rect4852" width="208" height="176" x="56" y="60" style="display:inline;opacity:1;fill:url(#linearGradient4864);fill-opacity:1;stroke:none;stroke-width:1;stroke-linecap:round;stroke-linejoin:round;stroke-miterlimit:4;stroke-dasharray:none;stroke-dashoffset:0;stroke-opacity:.30196078;enable-background:new"/><rect id="rect4885" width="224" height="1" x="48" y="52" rx=".5" ry=".5" style="display:inline;opacity:1;fill:#fff;fill-opacity:1;stroke:none;stroke-width:1.00000012;stroke-linecap:round;stroke-linejoin:round;stroke-miterlimit:4;stroke-dasharray:none;stroke-dashoffset:0;stroke-opacity:.2;enable-background:new"/><circle style="opacity:.8;fill:url(#linearGradient4622);fill-opacity:1;stroke:none;stroke-width:1;stroke-linecap:round;stroke-linejoin:round;stroke-miterlimit:4;stroke-dasharray:none;stroke-dashoffset:0;stroke-opacity:1" id="path4540" cx="62" cy="353" r="4" transform="matrix(0,1,1,0,0,0)"/><circle id="circle4554" cx="127.263" cy="342.158" r="2.737" transform="matrix(0,1,1,0,0,0)" style="opacity:.8;fill:url(#linearGradient4620);fill-opacity:1;stroke:none;stroke-width:1;stroke-linecap:round;stroke-linejoin:round;stroke-miterlimit:4;stroke-dasharray:none;stroke-dashoffset:0;stroke-opacity:1"/><circle style="opacity:.8;fill:url(#linearGradient4618);fill-opacity:1;stroke:none;stroke-width:1;stroke-linecap:round;stroke-linejoin:round;stroke-miterlimit:4;stroke-dasharray:none;stroke-dashoffset:0;stroke-opacity:1" id="circle4562" cx="181.105" cy="336.263" r="1.895" transform="matrix(0,1,1,0,0,0)"/><circle id="circle4568" cx="-330.842" cy="225.737" r="1.263" transform="scale(-1,1)" style="opacity:.8;fill:#fff;fill-opacity:1;stroke:none;stroke-width:1;stroke-linecap:round;stroke-linejoin:round;stroke-miterlimit:4;stroke-dasharray:none;stroke-dashoffset:0;stroke-opacity:1"/><g id="g4584" transform="matrix(5.5,0,0,5.5,-1731.5,-230.99991)" style="fill:url(#linearGradient4600);fill-opacity:1;stroke-width:.18181817"><circle style="opacity:.8;fill:url(#linearGradient4610);fill-opacity:1;stroke:none;stroke-width:.18181817;stroke-linecap:round;stroke-linejoin:round;stroke-miterlimit:4;stroke-dasharray:none;stroke-dashoffset:0;stroke-opacity:1" id="circle4580" cx="62" cy="353" r="4" transform="matrix(0,1,1,0,0,0)"/></g><g id="g4566"><path id="path4856" d="M 113.77734,152 56,209.77734 V 256 h 161.77734 l -40.44336,-40.44531 z" transform="translate(0,-20)" style="opacity:.3;fill:#4e004f;fill-opacity:1;fill-rule:evenodd;stroke:none;stroke-width:1px;stroke-linecap:butt;stroke-linejoin:miter;stroke-opacity:1"/><path id="path4558" d="M 177.33398,215.55469 217.77734,256 H 264 v -23.11133 l -52,-52 z" transform="translate(0,-20)" style="opacity:.2;fill:#4e004f;fill-opacity:1;fill-rule:evenodd;stroke:none;stroke-width:1px;stroke-linecap:butt;stroke-linejoin:miter;stroke-opacity:1"/></g><g id="g4572" transform="matrix(0.125,0,0,0.125,315.99991,113.5001)" style="stroke-width:8"><path style="opacity:.3;fill:#4e004f;fill-opacity:1;fill-rule:evenodd;stroke:none;stroke-width:8px;stroke-linecap:butt;stroke-linejoin:miter;stroke-opacity:1" id="path4568" d="M 113.77734,152 56,209.77734 V 256 h 161.77734 l -40.44336,-40.44531 z" transform="translate(0,-20)"/><path style="opacity:.2;fill:#4e004f;fill-opacity:1;fill-rule:evenodd;stroke:none;stroke-width:8px;stroke-linecap:butt;stroke-linejoin:miter;stroke-opacity:1" id="path4570" d="M 177.33398,215.55469 217.77734,256 H 264 v -23.11133 l -52,-52 z" transform="translate(0,-20)"/></g><g id="g4594"><path id="path4829" d="m 336,86 -11,11 v 8 h 30 l -8,-8 z" transform="translate(0,-20)" style="opacity:.3;fill:#4e004f;fill-opacity:1;fill-rule:evenodd;stroke:none;stroke-width:1px;stroke-linecap:butt;stroke-linejoin:miter;stroke-opacity:1"/><path id="path4586" d="m 353,91 -6,6 8,8 h 7.5 c 0,0 0.5221,-0.0802 0.5,-0.5 V 101 Z" transform="translate(0,-20)" style="opacity:.2;fill:#4e004f;fill-opacity:1;fill-rule:evenodd;stroke:none;stroke-width:1px;stroke-linecap:butt;stroke-linejoin:miter;stroke-opacity:1"/></g><g id="g4605"><g style="stroke-width:1.99993062" id="g4600" transform="matrix(0.50001734,0,0,0.50001734,159.99416,149.99886)"><path style="opacity:.3;fill:#4e004f;fill-opacity:1;fill-rule:evenodd;stroke:none;stroke-width:1px;stroke-linecap:butt;stroke-linejoin:miter;stroke-opacity:1" id="path4596" d="m 328,203 -5,5 v 4 h 14 l -3.5,-3.5 z" transform="matrix(1.9999306,0,0,1.9999306,-319.97722,-339.98593)"/><path style="opacity:.2;fill:#4e004f;fill-opacity:1;fill-rule:evenodd;stroke:none;stroke-width:1px;stroke-linecap:butt;stroke-linejoin:miter;stroke-opacity:1" id="path4598" d="m 336.5,205.5 -3,3 3.5,3.5 h 4.00001 v -2 z" transform="matrix(1.9999306,0,0,1.9999306,-319.97722,-339.98593)"/></g></g><g id="g4622" transform="matrix(0.66666631,0,0,0.66666631,106.66678,105.00006)" style="stroke-width:1.50000083"><g id="g4620" transform="matrix(0.50001734,0,0,0.50001734,159.99416,149.99886)" style="stroke-width:2.99989748"><path id="path4616" d="m 328,203 -5,5 v 4 h 14 l -3.5,-3.5 z" transform="matrix(1.9999306,0,0,1.9999306,-319.97722,-339.98593)" style="opacity:.3;fill:#4e004f;fill-opacity:1;fill-rule:evenodd;stroke:none;stroke-width:1.50000083px;stroke-linecap:butt;stroke-linejoin:miter;stroke-opacity:1"/><path id="path4618" d="m 336.5,205.5 -3,3 3.5,3.5 h 4.00001 v -2 z" transform="matrix(1.9999306,0,0,1.9999306,-319.97722,-339.98593)" style="opacity:.2;fill:#4e004f;fill-opacity:1;fill-rule:evenodd;stroke:none;stroke-width:1.50000083px;stroke-linecap:butt;stroke-linejoin:miter;stroke-opacity:1"/></g></g></g></g><g style="display:inline" id="g4688" transform="translate(0,20)"><g style="display:none" id="g4585"><rect id="rect4565" width="32" height="32" x="720" y="116" style="display:inline;overflow:visible;visibility:visible;fill:#eeeeec;fill-opacity:1;fill-rule:nonzero;stroke:none;stroke-width:2;marker:none;enable-background:accumulate"/><rect style="display:inline;overflow:visible;visibility:visible;fill:#eeeeec;fill-opacity:1;fill-rule:nonzero;stroke:none;stroke-width:2;marker:none;enable-background:accumulate" id="rect4567" width="22" height="22" x="721" y="173.059"/><rect id="rect4569" width="16" height="16" x="720" y="220" style="display:inline;overflow:visible;visibility:visible;fill:#eeeeec;fill-opacity:1;fill-rule:nonzero;stroke:none;stroke-width:2;marker:none;enable-background:accumulate"/><rect id="rect4571" width="24" height="24" x="720" y="172" style="display:inline;overflow:visible;visibility:visible;fill:#eeeeec;fill-opacity:1;fill-rule:nonzero;stroke:none;stroke-width:2;marker:none;enable-background:accumulate"/><text id="text4575" x="431.856" y="-65.7" xml:space="preserve" style="font-style:normal;font-variant:normal;font-weight:400;font-stretch:normal;font-size:13.33333302px;line-height:125%;font-family:monospace;-inkscape-font-specification:monospace;text-align:start;writing-mode:lr-tb;text-anchor:start;display:inline;fill:#000;fill-opacity:1;stroke:none;enable-background:new"><tspan style="font-weight:700" id="tspan4573" x="431.856" y="-65.7">status</tspan></text><text style="font-style:normal;font-variant:normal;font-weight:400;font-stretch:normal;font-size:13.33333302px;line-height:125%;font-family:monospace;-inkscape-font-specification:monospace;text-align:start;writing-mode:lr-tb;text-anchor:start;display:inline;fill:#000;fill-opacity:1;stroke:none;enable-background:new" id="text4579" x="431.265" y="-39.901" xml:space="preserve"><tspan id="tspan4577" x="431.265" y="-39.901">image-missing</tspan></text><rect id="rect4581" width="256" height="256" x="432" y="12" style="display:inline;overflow:visible;visibility:visible;fill:#eeeeec;fill-opacity:1;fill-rule:nonzero;stroke:none;stroke-width:1.99999976;marker:none;enable-background:accumulate"/><rect style="display:inline;overflow:visible;visibility:visible;fill:#eeeeec;fill-opacity:1;fill-rule:nonzero;stroke:none;stroke-width:2;marker:none;enable-background:accumulate" id="rect4583" width="48" height="48" x="44" y="720" transform="matrix(0,1,1,0,0,0)"/></g><g style="display:inline" id="g4686"><rect style="display:inline;opacity:.4;fill:#000;fill-opacity:1;stroke:#000;stroke-width:1;stroke-linecap:round;stroke-linejoin:round;stroke-miterlimit:4;stroke-dasharray:none;stroke-dashoffset:0;stroke-opacity:1;filter:url(#filter4881);enable-background:new" id="rect4587" width="224" height="192" x="448" y="53" rx=".5" ry=".5"/><rect id="rect4589" width="29" height="25" x="721.5" y="119.5" rx="1" ry="1" style="display:inline;opacity:.02000002;fill:#000;fill-opacity:1;stroke:#000;stroke-width:3;stroke-linecap:round;stroke-linejoin:round;stroke-miterlimit:4;stroke-dasharray:none;stroke-dashoffset:0;stroke-opacity:1;enable-background:new"/><rect style="display:inline;opacity:.05;fill:#000;fill-opacity:1;stroke:#000;stroke-width:.99999994;stroke-linecap:round;stroke-linejoin:round;stroke-miterlimit:4;stroke-dasharray:none;stroke-dashoffset:0;stroke-opacity:1;enable-background:new" id="rect4591" width="29" height="25" x="721.5" y="120.5" rx="1" ry="1"/><rect style="display:inline;opacity:.02000002;fill:#000;fill-opacity:1;stroke:#000;stroke-width:3;stroke-linecap:round;stroke-linejoin:round;stroke-miterlimit:4;stroke-dasharray:none;stroke-dashoffset:0;stroke-opacity:1;enable-background:new" id="rect4593" width="43" height="37" x="722.5" y="50.5" rx="1.5" ry="1.5"/><rect id="rect4595" width="43" height="37" x="722.5" y="51.5" rx="1.5" ry="1.5" style="display:inline;opacity:.05;fill:#000;fill-opacity:1;stroke:#000;stroke-width:1;stroke-linecap:round;stroke-linejoin:round;stroke-miterlimit:4;stroke-dasharray:none;stroke-dashoffset:0;stroke-opacity:1;enable-background:new"/><rect style="display:inline;opacity:.02000002;fill:#000;fill-opacity:1;stroke:#000;stroke-width:3;stroke-linecap:round;stroke-linejoin:round;stroke-miterlimit:4;stroke-dasharray:none;stroke-dashoffset:0;stroke-opacity:1;enable-background:new" id="rect4597" width="21" height="18" x="721.5" y="175.5" rx="1" ry="1"/><rect id="rect4599" width="21" height="18" x="721.5" y="176.5" rx="1" ry="1" style="display:inline;opacity:.05;fill:#000;fill-opacity:1;stroke:#000;stroke-width:.99999982;stroke-linecap:round;stroke-linejoin:round;stroke-miterlimit:4;stroke-dasharray:none;stroke-dashoffset:0;stroke-opacity:1;enable-background:new"/><rect id="rect4601" width="14" height="12" x="721" y="222" rx=".5" ry=".5" style="display:inline;opacity:1;fill:#f9f9f9;fill-opacity:1;stroke:none;stroke-width:.99999988;stroke-linecap:round;stroke-linejoin:round;stroke-miterlimit:4;stroke-dasharray:none;stroke-dashoffset:0;stroke-opacity:.2;enable-background:new"/><rect id="rect4603" width="42" height="36" x="723" y="51" rx="1" ry="1" style="display:inline;opacity:1;fill:#f9f9f9;fill-opacity:1;stroke:none;stroke-width:1;stroke-linecap:round;stroke-linejoin:round;stroke-miterlimit:4;stroke-dasharray:none;stroke-dashoffset:0;stroke-opacity:.2;enable-background:new"/><rect id="rect4605" width="38" height="32" x="725" y="53" rx=".5" ry=".5" style="display:inline;opacity:1;fill:url(#linearGradient4708);fill-opacity:1;stroke:none;stroke-width:1;stroke-linecap:round;stroke-linejoin:round;stroke-miterlimit:4;stroke-dasharray:none;stroke-dashoffset:0;stroke-opacity:.30196078;enable-background:new"/><rect style="display:inline;opacity:.1;fill:none;fill-opacity:1;stroke:#000;stroke-width:1;stroke-linecap:round;stroke-linejoin:round;stroke-miterlimit:4;stroke-dasharray:none;stroke-dashoffset:0;stroke-opacity:1;enable-background:new" id="rect4607" width="37" height="31" x="725.5" y="53.5"/><rect id="rect4609" width="20" height="17" x="722" y="176" rx=".5" ry=".5" style="display:inline;opacity:1;fill:#f9f9f9;fill-opacity:1;stroke:none;stroke-width:.99999982;stroke-linecap:round;stroke-linejoin:round;stroke-miterlimit:4;stroke-dasharray:none;stroke-dashoffset:0;stroke-opacity:.2;enable-background:new"/><rect style="display:inline;opacity:1;fill:url(#linearGradient4706);fill-opacity:1;stroke:none;stroke-width:1;stroke-linecap:round;stroke-linejoin:round;stroke-miterlimit:4;stroke-dasharray:none;stroke-dashoffset:0;stroke-opacity:.30196078;enable-background:new" id="rect4611" width="18" height="15" x="723" y="177" rx=".5" ry=".5"/><rect id="rect4613" width="17" height="14" x="723.5" y="177.5" style="display:inline;opacity:.1;fill:none;fill-opacity:1;stroke:#000;stroke-width:1;stroke-linecap:round;stroke-linejoin:round;stroke-miterlimit:4;stroke-dasharray:none;stroke-dashoffset:0;stroke-opacity:1;enable-background:new"/><rect style="display:inline;opacity:.3;fill:none;fill-opacity:1;stroke:#000;stroke-width:.99999988;stroke-linecap:round;stroke-linejoin:round;stroke-miterlimit:4;stroke-dasharray:none;stroke-dashoffset:0;stroke-opacity:1;enable-background:new" id="rect4615" width="15" height="13" x="720.5" y="221.5" rx="1" ry="1"/><rect id="rect4617" width="12" height="10" x="722" y="223" rx=".5" ry=".5" style="display:inline;opacity:1;fill:url(#linearGradient4704);fill-opacity:1;stroke:none;stroke-width:1;stroke-linecap:round;stroke-linejoin:round;stroke-miterlimit:4;stroke-dasharray:none;stroke-dashoffset:0;stroke-opacity:.30196078;enable-background:new"/><rect style="display:inline;opacity:.1;fill:none;fill-opacity:1;stroke:#000;stroke-width:.99999994;stroke-linecap:round;stroke-linejoin:round;stroke-miterlimit:4;stroke-dasharray:none;stroke-dashoffset:0;stroke-opacity:1;enable-background:new" id="rect4619" width="11" height="9" x="722.5" y="223.5"/><rect style="display:inline;opacity:.3;fill:none;fill-opacity:1;stroke:#000;stroke-width:1;stroke-linecap:round;stroke-linejoin:round;stroke-miterlimit:4;stroke-dasharray:none;stroke-dashoffset:0;stroke-opacity:1;enable-background:new" id="rect4621" width="43" height="37" x="722.5" y="50.5" rx="1.5" ry="1.5"/><rect id="rect4623" width="29" height="25" x="721.5" y="119.5" rx="1" ry="1" style="display:inline;opacity:.3;fill:none;fill-opacity:1;stroke:#000;stroke-width:.99999994;stroke-linecap:round;stroke-linejoin:round;stroke-miterlimit:4;stroke-dasharray:none;stroke-dashoffset:0;stroke-opacity:1;enable-background:new"/><rect style="display:inline;opacity:.3;fill:none;fill-opacity:1;stroke:#000;stroke-width:.99999982;stroke-linecap:round;stroke-linejoin:round;stroke-miterlimit:4;stroke-dasharray:none;stroke-dashoffset:0;stroke-opacity:1;enable-background:new" id="rect4625" width="21" height="18" x="721.5" y="175.5" rx="1" ry="1"/><rect style="display:inline;opacity:1;fill:#f9f9f9;fill-opacity:1;stroke:none;stroke-width:.99999994;stroke-linecap:round;stroke-linejoin:round;stroke-miterlimit:4;stroke-dasharray:none;stroke-dashoffset:0;stroke-opacity:.2;enable-background:new" id="rect4627" width="28" height="24" x="722" y="120" rx=".5" ry=".5"/><rect id="rect4629" width="26" height="22" x="723" y="121" rx=".5" ry=".5" style="display:inline;opacity:1;fill:url(#linearGradient4702);fill-opacity:1;stroke:none;stroke-width:1;stroke-linecap:round;stroke-linejoin:round;stroke-miterlimit:4;stroke-dasharray:none;stroke-dashoffset:0;stroke-opacity:.30196078;enable-background:new"/><rect style="display:inline;opacity:.1;fill:none;fill-opacity:1;stroke:#000;stroke-width:1;stroke-linecap:round;stroke-linejoin:round;stroke-miterlimit:4;stroke-dasharray:none;stroke-dashoffset:0;stroke-opacity:1;enable-background:new" id="rect4632" width="25" height="21" x="723.5" y="121.5"/><rect id="rect4634" width="224" height="192" x="448" y="52" rx=".5" ry=".5" style="display:inline;opacity:1;fill:#f9f9f9;fill-opacity:1;stroke:none;stroke-width:.99999994;stroke-linecap:round;stroke-linejoin:round;stroke-miterlimit:4;stroke-dasharray:none;stroke-dashoffset:0;stroke-opacity:.2;enable-background:new"/><rect style="display:inline;opacity:1;fill:url(#linearGradient4700);fill-opacity:1;stroke:none;stroke-width:1;stroke-linecap:round;stroke-linejoin:round;stroke-miterlimit:4;stroke-dasharray:none;stroke-dashoffset:0;stroke-opacity:.30196078;enable-background:new" id="rect4636" width="208" height="176" x="456" y="60" rx=".5" ry=".5"/><rect style="display:inline;opacity:1;fill:#fff;fill-opacity:1;stroke:none;stroke-width:1.00000012;stroke-linecap:round;stroke-linejoin:round;stroke-miterlimit:4;stroke-dasharray:none;stroke-dashoffset:0;stroke-opacity:.2;enable-background:new" id="rect4638" width="224" height="1" x="448" y="52" rx=".5" ry=".5"/><g id="g4559" aria-label="?" transform="matrix(0.70783405,0,0,0.7078341,328.30971,90.91152)" style="font-style:normal;font-variant:normal;font-weight:400;font-stretch:normal;font-size:40px;line-height:25px;font-family:Meera;-inkscape-font-specification:Meera;letter-spacing:0;word-spacing:0;display:inline;fill:#b3b3b3;fill-opacity:1;stroke:none;stroke-width:1.41276038px;stroke-linecap:butt;stroke-linejoin:miter;stroke-opacity:1;enable-background:new"><path id="path4557" d="m 589.73828,-27.902343 c -0.70313,0.677083 -1.05469,1.529948 -1.05469,2.558594 v 1.451823 h -2.82552 v -1.569011 c 0,-1.419271 0.83334,-2.845052 2.31771,-4.277344 l 2.38281,-2.304687 c 1.15885,-1.119792 1.73828,-2.363282 1.73828,-3.730469 0,-1.354167 -0.44922,-2.389323 -1.34765,-3.105469 -0.89844,-0.716145 -2.03776,-1.074218 -3.41797,-1.074218 -3.13802,0 -4.73958,1.858724 -4.80469,5.465495 h -2.51953 c 0.0651,-5.143229 2.57164,-7.770183 7.51953,-7.770183 2.13542,0 3.88021,0.559896 5.23438,1.679688 1.36719,1.119791 2.05078,2.65625 2.05078,4.609375 0,1.953125 -0.59896,3.515625 -1.79688,4.6875 z m -3.88021,9.661458 v -2.825521 h 2.82552 v 2.825521 z" style="font-style:normal;font-variant:normal;font-weight:400;font-stretch:normal;font-family:Meera;-inkscape-font-specification:Meera;opacity:.3;fill:#1a1a1a;stroke-width:1.41276038px;fill-opacity:1"/></g><g style="font-style:normal;font-variant:normal;font-weight:400;font-stretch:normal;font-size:40px;line-height:25px;font-family:Meera;-inkscape-font-specification:Meera;letter-spacing:0;word-spacing:0;display:inline;fill:#b3b3b3;fill-opacity:1;stroke:none;stroke-width:2.82552075px;stroke-linecap:butt;stroke-linejoin:miter;stroke-opacity:1;enable-background:new" id="g4603" aria-label="?" transform="matrix(0.35391703,0,0,0.35391705,523.65485,195.45576)"><path style="font-style:normal;font-variant:normal;font-weight:400;font-stretch:normal;font-family:Meera;-inkscape-font-specification:Meera;opacity:.3;fill:#1a1a1a;stroke-width:2.82552075px;fill-opacity:1" id="path4601" d="m 589.73828,-27.902343 c -0.70313,0.677083 -1.05469,1.529948 -1.05469,2.558594 v 1.451823 h -2.82552 v -1.569011 c 0,-1.419271 0.83334,-2.845052 2.31771,-4.277344 l 2.38281,-2.304687 c 1.15885,-1.119792 1.73828,-2.363282 1.73828,-3.730469 0,-1.354167 -0.44922,-2.389323 -1.34765,-3.105469 -0.89844,-0.716145 -2.03776,-1.074218 -3.41797,-1.074218 -3.13802,0 -4.73958,1.858724 -4.80469,5.465495 h -2.51953 c 0.0651,-5.143229 2.57164,-7.770183 7.51953,-7.770183 2.13542,0 3.88021,0.559896 5.23438,1.679688 1.36719,1.119791 2.05078,2.65625 2.05078,4.609375 0,1.953125 -0.59896,3.515625 -1.79688,4.6875 z m -3.88021,9.661458 v -2.825521 h 2.82552 v 2.825521 z"/></g><g id="g4625" aria-label="?" transform="matrix(0.53087555,0,0,0.53087558,423.98228,148.18364)" style="font-style:normal;font-variant:normal;font-weight:400;font-stretch:normal;font-size:40px;line-height:25px;font-family:Meera;-inkscape-font-specification:Meera;letter-spacing:0;word-spacing:0;display:inline;fill:#b3b3b3;fill-opacity:1;stroke:none;stroke-width:1.88368046px;stroke-linecap:butt;stroke-linejoin:miter;stroke-opacity:1;enable-background:new"><path id="path4623" d="m 589.73828,-27.902343 c -0.70313,0.677083 -1.05469,1.529948 -1.05469,2.558594 v 1.451823 h -2.82552 v -1.569011 c 0,-1.419271 0.83334,-2.845052 2.31771,-4.277344 l 2.38281,-2.304687 c 1.15885,-1.119792 1.73828,-2.363282 1.73828,-3.730469 0,-1.354167 -0.44922,-2.389323 -1.34765,-3.105469 -0.89844,-0.716145 -2.03776,-1.074218 -3.41797,-1.074218 -3.13802,0 -4.73958,1.858724 -4.80469,5.465495 h -2.51953 c 0.0651,-5.143229 2.57164,-7.770183 7.51953,-7.770183 2.13542,0 3.88021,0.559896 5.23438,1.679688 1.36719,1.119791 2.05078,2.65625 2.05078,4.609375 0,1.953125 -0.59896,3.515625 -1.79688,4.6875 z m -3.88021,9.661458 v -2.825521 h 2.82552 v 2.825521 z" style="font-style:normal;font-variant:normal;font-weight:400;font-stretch:normal;font-family:Meera;-inkscape-font-specification:Meera;opacity:.3;fill:#1a1a1a;stroke-width:1.88368046px;fill-opacity:1"/></g><path style="display:inline;opacity:.3;fill:#1a1a1a;fill-opacity:1;stroke:none;stroke-width:2;stroke-linecap:round;stroke-linejoin:miter;stroke-miterlimit:4;stroke-dasharray:none;stroke-dashoffset:0;stroke-opacity:1;enable-background:new" id="path4536" d="m 560.38672,99.666764 c -18.67885,0 -28.14096,9.917056 -28.38672,29.333336 h 9.51172 c 0.24579,-13.61598 6.29163,-20.63282 18.13802,-20.63282 5.21045,0 9.51193,1.35116 12.90365,4.05469 3.39167,2.70353 5.08724,6.61183 5.08724,11.72396 0,5.16129 -2.18771,9.85599 -6.5625,14.08333 l -8.9948,8.70052 c -5.60366,5.40707 -8.75,10.78923 -8.75,16.14714 v 5.92318 H 564 v -5.48047 c -0.0471,-3.88297 1.32737,-7.10279 3.98177,-9.65885 l 13.1237,-12.75652 c 4.52228,-4.42396 6.78385,-10.32204 6.78385,-17.69531 0,-7.37327 -2.58089,-13.1737 -7.74219,-17.40104 -5.11214,-4.22734 -11.69896,-6.341146 -19.76041,-6.341146 z m -1.72005,84.666666 a 6,6 0 0 0 -6,6 6,6 0 0 0 6,6 6,6 0 0 0 6,-6 6,6 0 0 0 -6,-6 z"/><path style="display:inline;opacity:.3;fill:#1a1a1a;fill-opacity:1;stroke:none;enable-background:new" id="path5701" d="m 728,225 c 1.10457,0 2,0.89543 2,2 0,1.10457 -0.89543,2 -2,2 v 1 h -1 v -2 h 1 c 0.55229,0 1,-0.44772 1,-1 0,-0.55228 -0.44771,-1 -1,-1 -0.55228,0 -1,0.44772 -1,1 h -1 c 0,-1.10457 0.89543,-2 2,-2 z m -1,6 h 1 v 1 h -1 z"/></g></g><g id="g4895" transform="translate(0,20)" style="display:inline"><g id="g4813" style="display:none"><rect style="display:inline;overflow:visible;visibility:visible;fill:#eeeeec;fill-opacity:1;fill-rule:nonzero;stroke:none;stroke-width:2;marker:none;enable-background:accumulate" id="rect4793" width="32" height="32" x="1120" y="116"/><rect id="rect4795" width="22" height="22" x="1121" y="173.059" style="display:inline;overflow:visible;visibility:visible;fill:#eeeeec;fill-opacity:1;fill-rule:nonzero;stroke:none;stroke-width:2;marker:none;enable-background:accumulate"/><rect style="display:inline;overflow:visible;visibility:visible;fill:#eeeeec;fill-opacity:1;fill-rule:nonzero;stroke:none;stroke-width:2;marker:none;enable-background:accumulate" id="rect4797" width="16" height="16" x="1120" y="220"/><rect style="display:inline;overflow:visible;visibility:visible;fill:#eeeeec;fill-opacity:1;fill-rule:nonzero;stroke:none;stroke-width:2;marker:none;enable-background:accumulate" id="rect4799" width="24" height="24" x="1120" y="172"/><text style="font-style:normal;font-variant:normal;font-weight:400;font-stretch:normal;font-size:13.33333302px;line-height:125%;font-family:monospace;-inkscape-font-specification:monospace;text-align:start;writing-mode:lr-tb;text-anchor:start;display:inline;fill:#000;fill-opacity:1;stroke:none;enable-background:new" id="text4803" x="831.856" y="-65.7" xml:space="preserve"><tspan id="tspan4801" x="831.856" y="-65.7" style="font-weight:700">status</tspan></text><text id="text4807" x="831.265" y="-39.901" xml:space="preserve" style="font-style:normal;font-variant:normal;font-weight:400;font-stretch:normal;font-size:13.33333302px;line-height:125%;font-family:monospace;-inkscape-font-specification:monospace;text-align:start;writing-mode:lr-tb;text-anchor:start;display:inline;fill:#000;fill-opacity:1;stroke:none;enable-background:new"><tspan id="tspan4805" x="831.265" y="-39.901">image-loading</tspan></text><rect style="display:inline;overflow:visible;visibility:visible;fill:#eeeeec;fill-opacity:1;fill-rule:nonzero;stroke:none;stroke-width:1.99999976;marker:none;enable-background:accumulate" id="rect4809" width="256" height="256" x="832" y="12"/><rect id="rect4811" width="48" height="48" x="44" y="1120" transform="matrix(0,1,1,0,0,0)" style="display:inline;overflow:visible;visibility:visible;fill:#eeeeec;fill-opacity:1;fill-rule:nonzero;stroke:none;stroke-width:2;marker:none;enable-background:accumulate"/></g><g id="g4893" style="display:inline"><rect id="rect4815" width="224" height="192" x="848" y="53" rx=".5" ry=".5" style="display:inline;opacity:.4;fill:#000;fill-opacity:1;stroke:#000;stroke-width:1;stroke-linecap:round;stroke-linejoin:round;stroke-miterlimit:4;stroke-dasharray:none;stroke-dashoffset:0;stroke-opacity:1;filter:url(#filter4881);enable-background:new"/><rect style="display:inline;opacity:.02000002;fill:#000;fill-opacity:1;stroke:#000;stroke-width:3;stroke-linecap:round;stroke-linejoin:round;stroke-miterlimit:4;stroke-dasharray:none;stroke-dashoffset:0;stroke-opacity:1;enable-background:new" id="rect4818" width="29" height="25" x="1121.5" y="119.5" rx="1" ry="1"/><rect id="rect4820" width="29" height="25" x="1121.5" y="120.5" rx="1" ry="1" style="display:inline;opacity:.05;fill:#000;fill-opacity:1;stroke:#000;stroke-width:.99999994;stroke-linecap:round;stroke-linejoin:round;stroke-miterlimit:4;stroke-dasharray:none;stroke-dashoffset:0;stroke-opacity:1;enable-background:new"/><rect id="rect4822" width="43" height="37" x="1122.5" y="50.5" rx="1.5" ry="1.5" style="display:inline;opacity:.02000002;fill:#000;fill-opacity:1;stroke:#000;stroke-width:3;stroke-linecap:round;stroke-linejoin:round;stroke-miterlimit:4;stroke-dasharray:none;stroke-dashoffset:0;stroke-opacity:1;enable-background:new"/><rect style="display:inline;opacity:.05;fill:#000;fill-opacity:1;stroke:#000;stroke-width:1;stroke-linecap:round;stroke-linejoin:round;stroke-miterlimit:4;stroke-dasharray:none;stroke-dashoffset:0;stroke-opacity:1;enable-background:new" id="rect4824" width="43" height="37" x="1122.5" y="51.5" rx="1.5" ry="1.5"/><rect id="rect4826" width="21" height="18" x="1121.5" y="175.5" rx="1" ry="1" style="display:inline;opacity:.02000002;fill:#000;fill-opacity:1;stroke:#000;stroke-width:3;stroke-linecap:round;stroke-linejoin:round;stroke-miterlimit:4;stroke-dasharray:none;stroke-dashoffset:0;stroke-opacity:1;enable-background:new"/><rect style="display:inline;opacity:.05;fill:#000;fill-opacity:1;stroke:#000;stroke-width:.99999982;stroke-linecap:round;stroke-linejoin:round;stroke-miterlimit:4;stroke-dasharray:none;stroke-dashoffset:0;stroke-opacity:1;enable-background:new" id="rect4828" width="21" height="18" x="1121.5" y="176.5" rx="1" ry="1"/><rect style="display:inline;opacity:1;fill:#f9f9f9;fill-opacity:1;stroke:none;stroke-width:.99999988;stroke-linecap:round;stroke-linejoin:round;stroke-miterlimit:4;stroke-dasharray:none;stroke-dashoffset:0;stroke-opacity:.2;enable-background:new" id="rect4830" width="14" height="12" x="1121" y="222" rx=".5" ry=".5"/><rect style="display:inline;opacity:1;fill:#f9f9f9;fill-opacity:1;stroke:none;stroke-width:1;stroke-linecap:round;stroke-linejoin:round;stroke-miterlimit:4;stroke-dasharray:none;stroke-dashoffset:0;stroke-opacity:.2;enable-background:new" id="rect4832" width="42" height="36" x="1123" y="51" rx="1" ry="1"/><rect style="display:inline;opacity:1;fill:url(#linearGradient4905);fill-opacity:1;stroke:none;stroke-width:1;stroke-linecap:round;stroke-linejoin:round;stroke-miterlimit:4;stroke-dasharray:none;stroke-dashoffset:0;stroke-opacity:.30196078;enable-background:new" id="rect4834" width="38" height="32" x="1125" y="53" rx=".5" ry=".5"/><rect id="rect4836" width="37" height="31" x="1125.5" y="53.5" style="display:inline;opacity:.1;fill:none;fill-opacity:1;stroke:#000;stroke-width:1;stroke-linecap:round;stroke-linejoin:round;stroke-miterlimit:4;stroke-dasharray:none;stroke-dashoffset:0;stroke-opacity:1;enable-background:new"/><rect style="display:inline;opacity:1;fill:#f9f9f9;fill-opacity:1;stroke:none;stroke-width:.99999982;stroke-linecap:round;stroke-linejoin:round;stroke-miterlimit:4;stroke-dasharray:none;stroke-dashoffset:0;stroke-opacity:.2;enable-background:new" id="rect4838" width="20" height="17" x="1122" y="176" rx=".5" ry=".5"/><rect id="rect4840" width="18" height="15" x="1123" y="177" rx=".5" ry=".5" style="display:inline;opacity:1;fill:url(#linearGradient4903);fill-opacity:1;stroke:none;stroke-width:1;stroke-linecap:round;stroke-linejoin:round;stroke-miterlimit:4;stroke-dasharray:none;stroke-dashoffset:0;stroke-opacity:.30196078;enable-background:new"/><rect style="display:inline;opacity:.1;fill:none;fill-opacity:1;stroke:#000;stroke-width:1;stroke-linecap:round;stroke-linejoin:round;stroke-miterlimit:4;stroke-dasharray:none;stroke-dashoffset:0;stroke-opacity:1;enable-background:new" id="rect4842" width="17" height="14" x="1123.5" y="177.5"/><rect id="rect4844" width="15" height="13" x="1120.5" y="221.5" rx="1" ry="1" style="display:inline;opacity:.3;fill:none;fill-opacity:1;stroke:#000;stroke-width:.99999988;stroke-linecap:round;stroke-linejoin:round;stroke-miterlimit:4;stroke-dasharray:none;stroke-dashoffset:0;stroke-opacity:1;enable-background:new"/><rect style="display:inline;opacity:1;fill:url(#linearGradient4901);fill-opacity:1;stroke:none;stroke-width:1;stroke-linecap:round;stroke-linejoin:round;stroke-miterlimit:4;stroke-dasharray:none;stroke-dashoffset:0;stroke-opacity:.30196078;enable-background:new" id="rect4846" width="12" height="10" x="1122" y="223" rx=".5" ry=".5"/><rect id="rect4848" width="11" height="9" x="1122.5" y="223.5" style="display:inline;opacity:.1;fill:none;fill-opacity:1;stroke:#000;stroke-width:.99999994;stroke-linecap:round;stroke-linejoin:round;stroke-miterlimit:4;stroke-dasharray:none;stroke-dashoffset:0;stroke-opacity:1;enable-background:new"/><rect id="rect4851" width="43" height="37" x="1122.5" y="50.5" rx="1.5" ry="1.5" style="display:inline;opacity:.3;fill:none;fill-opacity:1;stroke:#000;stroke-width:1;stroke-linecap:round;stroke-linejoin:round;stroke-miterlimit:4;stroke-dasharray:none;stroke-dashoffset:0;stroke-opacity:1;enable-background:new"/><rect style="display:inline;opacity:.3;fill:none;fill-opacity:1;stroke:#000;stroke-width:.99999994;stroke-linecap:round;stroke-linejoin:round;stroke-miterlimit:4;stroke-dasharray:none;stroke-dashoffset:0;stroke-opacity:1;enable-background:new" id="rect4853" width="29" height="25" x="1121.5" y="119.5" rx="1" ry="1"/><rect id="rect4855" width="21" height="18" x="1121.5" y="175.5" rx="1" ry="1" style="display:inline;opacity:.3;fill:none;fill-opacity:1;stroke:#000;stroke-width:.99999982;stroke-linecap:round;stroke-linejoin:round;stroke-miterlimit:4;stroke-dasharray:none;stroke-dashoffset:0;stroke-opacity:1;enable-background:new"/><rect id="rect4857" width="28" height="24" x="1122" y="120" rx=".5" ry=".5" style="display:inline;opacity:1;fill:#f9f9f9;fill-opacity:1;stroke:none;stroke-width:.99999994;stroke-linecap:round;stroke-linejoin:round;stroke-miterlimit:4;stroke-dasharray:none;stroke-dashoffset:0;stroke-opacity:.2;enable-background:new"/><rect style="display:inline;opacity:1;fill:url(#linearGradient4899);fill-opacity:1;stroke:none;stroke-width:1;stroke-linecap:round;stroke-linejoin:round;stroke-miterlimit:4;stroke-dasharray:none;stroke-dashoffset:0;stroke-opacity:.30196078;enable-background:new" id="rect4859" width="26" height="22" x="1123" y="121" rx=".5" ry=".5"/><rect id="rect4861" width="25" height="21" x="1123.5" y="121.5" style="display:inline;opacity:.1;fill:none;fill-opacity:1;stroke:#000;stroke-width:1;stroke-linecap:round;stroke-linejoin:round;stroke-miterlimit:4;stroke-dasharray:none;stroke-dashoffset:0;stroke-opacity:1;enable-background:new"/><rect style="display:inline;opacity:1;fill:#f9f9f9;fill-opacity:1;stroke:none;stroke-width:.99999994;stroke-linecap:round;stroke-linejoin:round;stroke-miterlimit:4;stroke-dasharray:none;stroke-dashoffset:0;stroke-opacity:.2;enable-background:new" id="rect4863" width="224" height="192" x="848" y="52" rx=".5" ry=".5"/><rect id="rect4865" width="208" height="176" x="856" y="60" rx=".5" ry=".5" style="display:inline;opacity:1;fill:url(#linearGradient4897);fill-opacity:1;stroke:none;stroke-width:1;stroke-linecap:round;stroke-linejoin:round;stroke-miterlimit:4;stroke-dasharray:none;stroke-dashoffset:0;stroke-opacity:.30196078;enable-background:new"/><rect id="rect4867" width="224" height="1" x="848" y="52" rx=".5" ry=".5" style="display:inline;opacity:1;fill:#fff;fill-opacity:1;stroke:none;stroke-width:1.00000012;stroke-linecap:round;stroke-linejoin:round;stroke-miterlimit:4;stroke-dasharray:none;stroke-dashoffset:0;stroke-opacity:.2;enable-background:new"/><path id="rect8040-5-9-3" d="m 1125,227 c -0.554,0 -1,0.446 -1,1 0,0.554 0.446,1 1,1 0.554,0 1,-0.446 1,-1 0,-0.554 -0.446,-1 -1,-1 z m 3,0 c -0.554,0 -1,0.446 -1,1 0,0.554 0.446,1 1,1 0.554,0 1,-0.446 1,-1 0,-0.554 -0.446,-1 -1,-1 z m 3,0 c -0.554,0 -1,0.446 -1,1 0,0.554 0.446,1 1,1 0.554,0 1,-0.446 1,-1 0,-0.554 -0.446,-1 -1,-1 z" style="color:#000;display:inline;overflow:visible;visibility:visible;fill:#1a1a1a;fill-opacity:1;fill-rule:nonzero;stroke:none;stroke-width:1;marker:none;enable-background:new;opacity:.3"/><path style="color:#000;display:inline;overflow:visible;visibility:visible;fill:#1a1a1a;fill-opacity:1;fill-rule:nonzero;stroke:none;stroke-width:1;marker:none;enable-background:new;opacity:.3" id="path4914" d="m 1130,130.00001 c -1.108,0 -2,0.892 -2,2 0,1.108 0.892,2 2,2 1.108,0 2,-0.892 2,-2 0,-1.108 -0.892,-2 -2,-2 z m 6,0 c -1.108,0 -2,0.892 -2,2 0,1.108 0.892,2 2,2 1.108,0 2,-0.892 2,-2 0,-1.108 -0.892,-2 -2,-2 z m 6,0 c -1.108,0 -2,0.892 -2,2 0,1.108 0.892,2 2,2 1.108,0 2,-0.892 2,-2 0,-1.108 -0.892,-2 -2,-2 z"/><path id="path4916" d="m 1138,67 c -1.108,0 -2,0.892 -2,2 0,1.108 0.892,2 2,2 1.108,0 2,-0.892 2,-2 0,-1.108 -0.892,-2 -2,-2 z m 6,0 c -1.108,0 -2,0.892 -2,2 0,1.108 0.892,2 2,2 1.108,0 2,-0.892 2,-2 0,-1.108 -0.892,-2 -2,-2 z m 6,0 c -1.108,0 -2,0.892 -2,2 0,1.108 0.892,2 2,2 1.108,0 2,-0.892 2,-2 0,-1.108 -0.892,-2 -2,-2 z" style="color:#000;display:inline;overflow:visible;visibility:visible;fill:#1a1a1a;fill-opacity:1;fill-rule:nonzero;stroke:none;stroke-width:1;marker:none;enable-background:new;opacity:.3"/><path style="color:#000;display:inline;overflow:visible;visibility:visible;fill:#1a1a1a;fill-opacity:1;fill-rule:nonzero;stroke:none;stroke-width:1;marker:none;enable-background:new;opacity:.3" id="path4918" d="m 930,138.0001 c -5.54,0 -10,4.46 -10,10 0,5.54 4.46,10 10,10 5.54,0 10,-4.46 10,-10 0,-5.54 -4.46,-10 -10,-10 z m 30,0 c -5.54,0 -10,4.46 -10,10 0,5.54 4.46,10 10,10 5.54,0 10,-4.46 10,-10 0,-5.54 -4.46,-10 -10,-10 z m 30,0 c -5.54,0 -10,4.46 -10,10 0,5.54 4.46,10 10,10 5.54,0 10,-4.46 10,-10 0,-5.54 -4.46,-10 -10,-10 z"/><path id="path4920" d="m 1129,184.00001 c -0.554,0 -1,0.446 -1,1 0,0.554 0.446,1 1,1 0.554,0 1,-0.446 1,-1 0,-0.554 -0.446,-1 -1,-1 z m 3,0 c -0.554,0 -1,0.446 -1,1 0,0.554 0.446,1 1,1 0.554,0 1,-0.446 1,-1 0,-0.554 -0.446,-1 -1,-1 z m 3,0 c -0.554,0 -1,0.446 -1,1 0,0.554 0.446,1 1,1 0.554,0 1,-0.446 1,-1 0,-0.554 -0.446,-1 -1,-1 z" style="color:#000;display:inline;overflow:visible;visibility:visible;fill:#1a1a1a;fill-opacity:1;fill-rule:nonzero;stroke:none;stroke-width:1;marker:none;enable-background:new;opacity:.3"/></g></g></svg>