<svg xmlns="http://www.w3.org/2000/svg" xmlns:svg="http://www.w3.org/2000/svg" xmlns:xlink="http://www.w3.org/1999/xlink" id="svg11300" width="480" height="320" version="1.0" viewBox="0 0 480 320" style="display:inline;enable-background:new"><title id="title4162">Solus Icon Template</title><defs id="defs3"><linearGradient id="linearGradient4883"><stop style="stop-color:#fff;stop-opacity:0" id="stop4879" offset="0"/><stop id="stop4887" offset=".499" style="stop-color:#fff;stop-opacity:.49803922"/><stop style="stop-color:#fff;stop-opacity:0" id="stop4881" offset="1"/></linearGradient><linearGradient id="linearGradient4694"><stop style="stop-color:#000;stop-opacity:1" id="stop4690" offset="0"/><stop style="stop-color:#000;stop-opacity:0" id="stop4692" offset="1"/></linearGradient><linearGradient id="linearGradient4654"><stop style="stop-color:#000;stop-opacity:1" id="stop4650" offset="0"/><stop style="stop-color:#fff;stop-opacity:1" id="stop4652" offset="1"/></linearGradient><linearGradient id="linearGradient4833" x1="328" x2="328" y1="235" y2="222" gradientTransform="matrix(1.1,0,0,1.0666667,-32.75,-15.2)" gradientUnits="userSpaceOnUse" xlink:href="#linearGradient4969"/><linearGradient id="linearGradient4835" x1="336" x2="336" y1="144" y2="120" gradientTransform="matrix(1.054061,0,0,1.0357524,-18.180832,-4.7193139)" gradientUnits="userSpaceOnUse" xlink:href="#linearGradient4969"/><linearGradient id="linearGradient4837" x1="332" x2="332" y1="194" y2="174" gradientUnits="userSpaceOnUse" xlink:href="#linearGradient4969"/><linearGradient id="linearGradient4839" x1="344" x2="344" y1="88" y2="66.704" gradientTransform="matrix(1.0333402,0,0,1.0224933,-11.469048,-1.5295467)" gradientUnits="userSpaceOnUse" xlink:href="#linearGradient4969"/><linearGradient id="linearGradient4969"><stop id="stop4967" offset="0" style="stop-color:#bac0c9;stop-opacity:1"/><stop id="stop4965" offset="1" style="stop-color:#d7dadf;stop-opacity:1"/></linearGradient><clipPath id="clipPath4644" clipPathUnits="userSpaceOnUse"><path id="path4646" d="m 344,47 c 7.756,0 14,6 13,13 0,0 -1,5.312581 -1,8 0,2.687419 1,8 1,8 1,7 -5.244,13 -13,13 -7.756,0 -14,-6 -13,-13 0,0 1,-5.312581 1,-8 0,-2.687419 -1,-8 -1,-8 -1,-7 5.244,-13 13,-13 z" style="display:inline;opacity:1;fill:url(#linearGradient4648);fill-opacity:1;stroke:none;stroke-width:.96793568;stroke-linecap:round;stroke-linejoin:miter;stroke-miterlimit:4;stroke-dasharray:none;stroke-dashoffset:0;stroke-opacity:1;enable-background:new"/></clipPath><linearGradient id="linearGradient4648" x1="344" x2="344" y1="88" y2="48" gradientTransform="matrix(1.0333402,0,0,1.0224933,-11.469048,-1.529547)" gradientUnits="userSpaceOnUse" xlink:href="#linearGradient4969"/><linearGradient id="linearGradient4656" x1="342" x2="334" y1="55" y2="51" gradientTransform="translate(0,2)" gradientUnits="userSpaceOnUse" xlink:href="#linearGradient4654"/><linearGradient id="linearGradient4664" x1="346" x2="354" y1="55" y2="51" gradientTransform="translate(0,2)" gradientUnits="userSpaceOnUse" xlink:href="#linearGradient4654"/><linearGradient id="linearGradient4696" x1="344" x2="344" y1="108" y2="84" gradientUnits="userSpaceOnUse" xlink:href="#linearGradient4694"/><clipPath id="clipPath4771" clipPathUnits="userSpaceOnUse"><rect style="display:inline;opacity:1;fill:url(#linearGradient4775);fill-opacity:1;stroke:none;stroke-width:.97447854;stroke-linecap:round;stroke-linejoin:miter;stroke-miterlimit:4;stroke-dasharray:none;stroke-dashoffset:0;stroke-opacity:1;enable-background:new" id="rect4773" width="17" height="26" x="-353" y="49" rx="8.5" ry="8.5" transform="scale(-1,1)"/></clipPath><linearGradient id="linearGradient4775" x1="336" x2="336" y1="144" y2="120" gradientTransform="matrix(1.054061,0,0,1.0357524,-698.18083,-74.719314)" gradientUnits="userSpaceOnUse" xlink:href="#linearGradient4969"/><linearGradient id="linearGradient4789" x1="344" x2="344" y1="88" y2="66.704" gradientTransform="matrix(5.6095611,0,0,5.5506779,-1769.6891,-237.44611)" gradientUnits="userSpaceOnUse" xlink:href="#linearGradient4969"/><filter style="color-interpolation-filters:sRGB" id="filter4799" width="1.031" height="1.019" x="-.016" y="-.01"><feGaussianBlur id="feGaussianBlur4801" stdDeviation=".926"/></filter><linearGradient id="linearGradient4805" x1="344" x2="344" y1="108" y2="84" gradientTransform="matrix(5.4349321,0,0,5.4349321,-1709.5337,-338.395)" gradientUnits="userSpaceOnUse" xlink:href="#linearGradient4694"/><linearGradient id="linearGradient4873" x1="342" x2="334" y1="55" y2="51" gradientTransform="matrix(0.83333333,0,0,0.83333333,57.666666,12.666667)" gradientUnits="userSpaceOnUse" xlink:href="#linearGradient4654"/><linearGradient id="linearGradient4875" x1="346" x2="354" y1="55" y2="51" gradientTransform="matrix(0.83333333,0,0,0.83333333,58.333334,12.666667)" gradientUnits="userSpaceOnUse" xlink:href="#linearGradient4654"/><linearGradient id="linearGradient4885" x1="156" x2="164" y1="56" y2="56" gradientTransform="translate(0,0.5)" gradientUnits="userSpaceOnUse" xlink:href="#linearGradient4883"/><linearGradient id="linearGradient4891" x1="156" x2="164" y1="56" y2="56" gradientTransform="translate(0,4.5)" gradientUnits="userSpaceOnUse" xlink:href="#linearGradient4883"/><linearGradient id="linearGradient4895" x1="156" x2="164" y1="56" y2="56" gradientTransform="translate(0,8.5)" gradientUnits="userSpaceOnUse" xlink:href="#linearGradient4883"/><linearGradient id="linearGradient4899" x1="156" x2="164" y1="56" y2="56" gradientTransform="translate(0,12.5)" gradientUnits="userSpaceOnUse" xlink:href="#linearGradient4883"/><linearGradient id="linearGradient4903" x1="156" x2="164" y1="56" y2="56" gradientTransform="translate(0,16.5)" gradientUnits="userSpaceOnUse" xlink:href="#linearGradient4883"/><linearGradient id="linearGradient4907" x1="156" x2="164" y1="56" y2="56" gradientTransform="translate(0,20.5)" gradientUnits="userSpaceOnUse" xlink:href="#linearGradient4883"/><linearGradient id="linearGradient4911" x1="156" x2="164" y1="56" y2="56" gradientTransform="translate(0,24.5)" gradientUnits="userSpaceOnUse" xlink:href="#linearGradient4883"/><clipPath id="clipPath4917" clipPathUnits="userSpaceOnUse"><rect id="rect4919" width="1.333" height="5.333" x="343.333" y="51.333" rx=".667" ry=".667" style="opacity:1;fill:#4f555d;fill-opacity:1;stroke:none;stroke-width:.33333337;stroke-linecap:round;stroke-linejoin:round;stroke-miterlimit:4;stroke-dasharray:none;stroke-dashoffset:0;stroke-opacity:1"/></clipPath></defs><metadata id="metadata4"/><g id="layer2" style="display:none"><rect style="opacity:1;fill:#4f555d;fill-opacity:1;stroke:none;stroke-width:2;stroke-linecap:round;stroke-linejoin:miter;stroke-miterlimit:4;stroke-dasharray:none;stroke-dashoffset:0;stroke-opacity:1" id="rect4540" width="480" height="320" x="0" y="0"/></g><g id="layer1" transform="translate(0,20)" style="display:inline"><g id="layer7" style="display:none"><rect style="display:inline;overflow:visible;visibility:visible;fill:#eeeeec;fill-opacity:1;fill-rule:nonzero;stroke:none;stroke-width:2;marker:none;enable-background:accumulate" id="rect6592" width="32" height="32" x="320" y="116"/><rect id="rect6749" width="22" height="22" x="321" y="173.059" style="display:inline;overflow:visible;visibility:visible;fill:#eeeeec;fill-opacity:1;fill-rule:nonzero;stroke:none;stroke-width:2;marker:none;enable-background:accumulate"/><rect style="display:inline;overflow:visible;visibility:visible;fill:#eeeeec;fill-opacity:1;fill-rule:nonzero;stroke:none;stroke-width:2;marker:none;enable-background:accumulate" id="rect6833" width="16" height="16" x="320" y="220"/><rect style="display:inline;overflow:visible;visibility:visible;fill:#eeeeec;fill-opacity:1;fill-rule:nonzero;stroke:none;stroke-width:2;marker:none;enable-background:accumulate" id="rect8104" width="24" height="24" x="320" y="172"/><text style="font-style:normal;font-variant:normal;font-weight:400;font-stretch:normal;font-size:13.33333302px;line-height:125%;font-family:monospace;-inkscape-font-specification:monospace;text-align:start;writing-mode:lr-tb;text-anchor:start;display:inline;fill:#000;fill-opacity:1;stroke:none;enable-background:new" id="context" x="31.856" y="-65.7" xml:space="preserve"><tspan id="tspan2716" x="31.856" y="-65.7" style="font-weight:700">devices</tspan></text><text id="text3021" x="31.265" y="-39.901" xml:space="preserve" style="font-style:normal;font-variant:normal;font-weight:400;font-stretch:normal;font-size:13.33333302px;line-height:125%;font-family:monospace;-inkscape-font-specification:monospace;text-align:start;writing-mode:lr-tb;text-anchor:start;display:inline;fill:#000;fill-opacity:1;stroke:none;enable-background:new"><tspan id="tspan3023" x="31.265" y="-39.901">input-mouse</tspan></text><rect style="display:inline;overflow:visible;visibility:visible;fill:#eeeeec;fill-opacity:1;fill-rule:nonzero;stroke:none;stroke-width:1.99999976;marker:none;enable-background:accumulate" id="rect13805" width="256" height="256" x="32" y="12"/><rect id="rect6284" width="48" height="48" x="44" y="320" transform="matrix(0,1,1,0,0,0)" style="display:inline;overflow:visible;visibility:visible;fill:#eeeeec;fill-opacity:1;fill-rule:nonzero;stroke:none;stroke-width:2;marker:none;enable-background:accumulate"/></g><g id="layer9" style="display:inline"><path style="display:inline;opacity:.5;fill:#000;fill-opacity:1;stroke:#000;stroke-width:.96793568;stroke-linecap:round;stroke-linejoin:miter;stroke-miterlimit:4;stroke-dasharray:none;stroke-dashoffset:0;stroke-opacity:1;filter:url(#filter4799);enable-background:new" id="path4793" d="m 160,27 c 42.104,0 76,32.57142 70.57143,70.571424 0,0 -5.42857,28.839726 -5.42857,43.428566 0,14.58885 5.42857,43.42858 5.42857,43.42858 5.42857,38 -28.46743,70.57142 -70.57143,70.57142 -42.104,0 -76,-32.57142 -70.57143,-70.57142 0,0 5.42857,-28.83973 5.42857,-43.42858 0,-14.58884 -5.42857,-43.428566 -5.42857,-43.428566 C 84,59.57142 117.896,27 160,27 Z"/><path id="path4787" d="m 160,26 c 42.104,0 76,32.57142 70.57143,70.571424 0,0 -5.42857,28.839726 -5.42857,43.428566 0,14.58885 5.42857,43.42858 5.42857,43.42858 5.42857,38 -28.46743,70.57142 -70.57143,70.57142 -42.104,0 -76,-32.57142 -70.57143,-70.57142 0,0 5.42857,-28.83973 5.42857,-43.42858 0,-14.58884 -5.42857,-43.428566 -5.42857,-43.428566 C 84,58.57142 117.896,26 160,26 Z" style="display:inline;opacity:1;fill:url(#linearGradient4789);fill-opacity:1;stroke:none;stroke-width:.96793568;stroke-linecap:round;stroke-linejoin:miter;stroke-miterlimit:4;stroke-dasharray:none;stroke-dashoffset:0;stroke-opacity:1;enable-background:new"/><path id="path4619" d="m 344,47 c 7.756,0 14,6 13,13 0,0 -1,5.312581 -1,8 0,2.687419 1,8 1,8 1,7 -5.244,13 -13,13 -7.756,0 -14,-6 -13,-13 0,0 1,-5.312581 1,-8 0,-2.687419 -1,-8 -1,-8 -1,-7 5.244,-13 13,-13 z" style="display:inline;opacity:.6;fill:none;fill-opacity:1;stroke:#4f555d;stroke-width:2;stroke-linecap:round;stroke-linejoin:miter;stroke-miterlimit:4;stroke-dasharray:none;stroke-dashoffset:0;stroke-opacity:1;enable-background:new"/><path id="path4740" d="m 344,48 c 7.756,0 14,6 13,13 0,0 -1,5.312581 -1,8 0,2.687419 1,8 1,8 1,7 -5.244,13 -13,13 -7.756,0 -14,-6 -13,-13 0,0 1,-5.312581 1,-8 0,-2.687419 -1,-8 -1,-8 -1,-7 5.244,-13 13,-13 z" style="display:inline;opacity:.4;fill:#000;fill-opacity:1;stroke:none;stroke-width:.96793568;stroke-linecap:round;stroke-linejoin:miter;stroke-miterlimit:4;stroke-dasharray:none;stroke-dashoffset:0;stroke-opacity:1;enable-background:new"/><rect style="display:inline;opacity:.7;fill:none;fill-opacity:1;stroke:#4f555d;stroke-width:2;stroke-linecap:round;stroke-linejoin:miter;stroke-miterlimit:4;stroke-dasharray:none;stroke-dashoffset:0;stroke-opacity:1;enable-background:new" id="rect4575" width="9" height="14" x="323" y="221" ry="4.5"/><rect style="display:inline;opacity:.4;fill:#000;fill-opacity:1;stroke:none;stroke-width:1;stroke-linecap:round;stroke-linejoin:miter;stroke-miterlimit:4;stroke-dasharray:none;stroke-dashoffset:0;stroke-opacity:1;enable-background:new" id="rect4586" width="9" height="14" x="323" y="222" ry="4.5"/><rect id="rect4573" width="9" height="14" x="323" y="221" ry="4.5" style="display:inline;opacity:1;fill:url(#linearGradient4833);fill-opacity:1;stroke:none;stroke-width:1;stroke-linecap:round;stroke-linejoin:miter;stroke-miterlimit:4;stroke-dasharray:none;stroke-dashoffset:0;stroke-opacity:1;enable-background:new"/><rect id="rect4557" width="13" height="20" x="325" y="174" ry="6.5" style="display:inline;opacity:.7;fill:none;fill-opacity:1;stroke:#4f555d;stroke-width:2;stroke-linecap:round;stroke-linejoin:miter;stroke-miterlimit:4;stroke-dasharray:none;stroke-dashoffset:0;stroke-opacity:1;enable-background:new"/><rect id="rect4568" width="13" height="20" x="325" y="175" ry="6.5" style="display:inline;opacity:.4;fill:#000;fill-opacity:1;stroke:none;stroke-width:.96793568;stroke-linecap:round;stroke-linejoin:miter;stroke-miterlimit:4;stroke-dasharray:none;stroke-dashoffset:0;stroke-opacity:1;enable-background:new"/><rect style="display:inline;opacity:.7;fill:none;fill-opacity:1;stroke:#4f555d;stroke-width:2;stroke-linecap:round;stroke-linejoin:miter;stroke-miterlimit:4;stroke-dasharray:none;stroke-dashoffset:0;stroke-opacity:1;enable-background:new" id="rect4542" width="17" height="26" x="327" y="119" ry="8.5"/><rect style="display:inline;opacity:.4;fill:#000204;fill-opacity:1;stroke:none;stroke-width:.97447854;stroke-linecap:round;stroke-linejoin:miter;stroke-miterlimit:4;stroke-dasharray:none;stroke-dashoffset:0;stroke-opacity:1;enable-background:new" id="rect4553" width="17" height="26" x="327" y="120" ry="8.5"/><rect id="rect4513" width="17" height="26" x="327" y="119" ry="8.5" style="display:inline;opacity:1;fill:url(#linearGradient4835);fill-opacity:1;stroke:none;stroke-width:.97447854;stroke-linecap:round;stroke-linejoin:miter;stroke-miterlimit:4;stroke-dasharray:none;stroke-dashoffset:0;stroke-opacity:1;enable-background:new"/><rect style="display:inline;opacity:1;fill:url(#linearGradient4837);fill-opacity:1;stroke:none;stroke-width:.96793568;stroke-linecap:round;stroke-linejoin:miter;stroke-miterlimit:4;stroke-dasharray:none;stroke-dashoffset:0;stroke-opacity:1;enable-background:new" id="rect4541" width="13" height="20" x="325" y="174" ry="6.5"/><path style="display:inline;opacity:1;fill:url(#linearGradient4839);fill-opacity:1;stroke:none;stroke-width:.96793568;stroke-linecap:round;stroke-linejoin:miter;stroke-miterlimit:4;stroke-dasharray:none;stroke-dashoffset:0;stroke-opacity:1;enable-background:new" id="rect4551" d="m 344,47 c 7.756,0 14,6 13,13 0,0 -1,5.312581 -1,8 0,2.687419 1,8 1,8 1,7 -5.244,13 -13,13 -7.756,0 -14,-6 -13,-13 0,0 1,-5.312581 1,-8 0,-2.687419 -1,-8 -1,-8 -1,-7 5.244,-13 13,-13 z"/><path style="display:inline;opacity:.4;fill:#fcfcfc;fill-opacity:1;stroke:none;stroke-width:.96793568;stroke-linecap:round;stroke-linejoin:miter;stroke-miterlimit:4;stroke-dasharray:none;stroke-dashoffset:0;stroke-opacity:1;enable-background:new" id="rect4559" d="m 331.5,174 c -3.601,0 -6.5,2.899 -6.5,6.5 v 1 c 0,-3.601 2.899,-6.5 6.5,-6.5 3.601,0 6.5,2.899 6.5,6.5 v -1 c 0,-3.601 -2.899,-6.5 -6.5,-6.5 z"/><path style="display:inline;opacity:.4;fill:#fff;fill-opacity:1;stroke:none;stroke-width:1;stroke-linecap:round;stroke-linejoin:miter;stroke-miterlimit:4;stroke-dasharray:none;stroke-dashoffset:0;stroke-opacity:1;enable-background:new" id="rect4577" d="m 327.5,221 c -2.493,0 -4.5,2.007 -4.5,4.5 v 1 c 0,-2.493 2.007,-4.5 4.5,-4.5 2.493,0 4.5,2.007 4.5,4.5 v -1 c 0,-2.493 -2.007,-4.5 -4.5,-4.5 z"/><g id="g4853"><g id="g4630" clip-path="url(#clipPath4644)" transform="matrix(-1,0,0,1,688,0)"><path style="opacity:.1;fill:url(#linearGradient4656);fill-opacity:1;stroke:none;stroke-width:2;stroke-linecap:round;stroke-linejoin:round;stroke-miterlimit:4;stroke-dasharray:none;stroke-dashoffset:0;stroke-opacity:1" id="rect4621" d="m 334,46 v 16 c 0,2.216 1.784,4 4,4 2.216,0 4,-1.784 4,-4 V 46 Z"/><path id="path4626" d="m 346,46 v 16 c 0,2.216 1.784,4 4,4 2.216,0 4,-1.784 4,-4 V 46 Z" style="opacity:.1;fill:url(#linearGradient4664);fill-opacity:1;stroke:none;stroke-width:2;stroke-linecap:round;stroke-linejoin:round;stroke-miterlimit:4;stroke-dasharray:none;stroke-dashoffset:0;stroke-opacity:1"/></g><rect id="rect4666" width="2" height="6" x="343" y="51" ry="1" style="opacity:1;fill:#4f555d;fill-opacity:1;stroke:none;stroke-width:2;stroke-linecap:round;stroke-linejoin:round;stroke-miterlimit:4;stroke-dasharray:none;stroke-dashoffset:0;stroke-opacity:1"/></g><path style="display:inline;opacity:.2;fill:url(#linearGradient4696);fill-opacity:1;stroke:none;stroke-width:.96793568;stroke-linecap:round;stroke-linejoin:miter;stroke-miterlimit:4;stroke-dasharray:none;stroke-dashoffset:0;stroke-opacity:1;enable-background:new" id="path4668" d="m 342.95703,67.04687 c 0.006,4e-4 0.0116,0.0015 0.0176,0.002 C 335.70475,67.551107 330.04464,73.3125 331,80 c 0,0 1,5.312581 1,8 0,2.687419 -1,8 -1,8 -0.95536,6.6875 4.70475,12.44889 11.97461,12.95117 -0.006,4.1e-4 -0.0116,0.002 -0.0176,0.002 0.68969,0.0782 1.36868,0.037 2.04297,0 -0.006,-4e-4 -0.0116,-0.002 -0.0176,-0.002 7.26986,-0.50228 12.92997,-6.26367 11.97461,-12.95117 0,0 -1,-5.312581 -1,-8 0,-2.687419 1,-8 1,-8 0.95536,-6.6875 -4.70475,-12.448893 -11.97461,-12.951172 0.006,-4.07e-4 0.0116,-0.0016 0.0176,-0.002 -0.0176,0.002 -2.04295,4.2e-5 -2.04295,4.2e-5 z M 354.95704,80 c 0,0 -1,5.312581 -1,8 0,2.687419 1,8 1,8 0.91109,6.37763 -4.11823,11.9707 -10.96288,11.9707 -6.84467,0 -11.90524,-5.59307 -10.99415,-11.9707 0,0 1,-5.312581 1,-8 0,-2.687419 -1,-8 -1,-8 1.27758,-18.913572 23.33318,-12.703444 21.95703,0 z" transform="translate(0,-20)"/><rect id="rect4751" width="1" height="3" x="335" y="123" style="opacity:1;fill:#4f555d;fill-opacity:1;stroke:none;stroke-width:2;stroke-linecap:round;stroke-linejoin:round;stroke-miterlimit:4;stroke-dasharray:none;stroke-dashoffset:0;stroke-opacity:1"/><path id="path4803" d="m 89.428919,96.399602 c 0,0 5.43493,28.873518 5.43493,43.479458 0,14.60594 -5.43493,43.47946 -5.43493,43.47946 -5.19232,36.3461 25.569991,67.65887 65.081191,70.38872 -0.0326,0.002 -0.063,0.0109 -0.0957,0.0109 3.74842,0.42502 7.43869,0.2011 11.10341,0 -0.0326,-0.002 -0.0631,-0.0109 -0.0957,-0.0109 39.5112,-2.72985 70.27351,-34.04262 65.08119,-70.38872 0,0 -5.43493,-28.87352 -5.43493,-43.47946 0,-14.60594 5.43493,-43.479458 5.43493,-43.479458 z m 141.074391,0 c 0,0 -14.53671,39.126538 -14.53671,53.732478 0,14.60594 3.66716,33.22641 3.66716,33.22641 4.95171,34.66198 -22.3823,69.05994 -59.58251,69.05994 -37.20031,0 -64.704171,-34.39796 -59.75246,-69.05994 0,0 3.31362,-19.32758 3.31362,-33.93352 0,-14.60594 -14.183491,-53.025368 -14.183491,-53.025368 z" style="display:inline;opacity:.2;fill:url(#linearGradient4805);fill-opacity:1;stroke:none;stroke-width:.96793568;stroke-linecap:round;stroke-linejoin:miter;stroke-miterlimit:4;stroke-dasharray:none;stroke-dashoffset:0;stroke-opacity:1;enable-background:new"/><path style="display:inline;opacity:.5;fill:#fff;fill-opacity:1;stroke:none;stroke-width:.96793568;stroke-linecap:round;stroke-linejoin:miter;stroke-miterlimit:4;stroke-dasharray:none;stroke-dashoffset:0;stroke-opacity:1;enable-background:new" id="path4807" d="M 344 67 C 336.5946 67 330.58512 72.473054 330.92578 79.060547 C 331.20822 72.929279 336.97337 68 344 68 C 351.02663 68 356.79178 72.929279 357.07422 79.060547 C 357.41488 72.473054 351.4054 67 344 67 z M 331.98047 88.5 C 331.88059 91.291028 331 96 331 96 C 330.90596 96.65828 330.89646 97.303018 330.92578 97.939453 C 330.94191 97.627572 330.9548 97.31643 331 97 C 331 97 332 91.687419 332 89 C 332 88.849388 331.9864 88.665705 331.98047 88.5 z M 356.01953 88.5 C 356.0136 88.665705 356 88.849388 356 89 C 356 91.687419 357 97 357 97 C 357.0452 97.31643 357.05809 97.627572 357.07422 97.939453 C 357.10354 97.303018 357.09404 96.65828 357 96 C 357 96 356.11941 91.291028 356.01953 88.5 z" transform="translate(0,-20)"/><rect style="opacity:1;fill:#4f555d;fill-opacity:1;stroke:none;stroke-width:2;stroke-linecap:round;stroke-linejoin:round;stroke-miterlimit:4;stroke-dasharray:none;stroke-dashoffset:0;stroke-opacity:1" id="rect4819" width="1" height="3" x="327" y="223"/><rect id="rect4821" width="1" height="3" x="331" y="177" style="opacity:1;fill:#4f555d;fill-opacity:1;stroke:none;stroke-width:2;stroke-linecap:round;stroke-linejoin:round;stroke-miterlimit:4;stroke-dasharray:none;stroke-dashoffset:0;stroke-opacity:1"/><path style="display:inline;opacity:.4;fill:#fff;fill-opacity:1;stroke:none;stroke-width:.97447854;stroke-linecap:round;stroke-linejoin:miter;stroke-miterlimit:4;stroke-dasharray:none;stroke-dashoffset:0;stroke-opacity:1;enable-background:new" id="rect4829" d="M 335.5 139 C 330.791 139 327 142.791 327 147.5 L 327 148.5 C 327 143.791 330.791 140 335.5 140 C 340.209 140 344 143.791 344 148.5 L 344 147.5 C 344 142.791 340.209 139 335.5 139 z" transform="translate(0,-20)"/><g id="g4863" transform="matrix(6,0,0,6,-1904,-256)" style="stroke-width:.16666667"><g id="g4859" clip-path="url(#clipPath4644)" transform="matrix(-1,0,0,1,688,0)" style="stroke-width:.16666667"><path id="path4855" d="m 335.33332,46 v 14 c 0,1.846667 1.48667,3.333334 3.33334,3.333334 1.84666,0 3.33333,-1.486667 3.33333,-3.333334 V 46 Z" style="opacity:.1;fill:url(#linearGradient4873);fill-opacity:1;stroke:none;stroke-width:.33333334;stroke-linecap:round;stroke-linejoin:round;stroke-miterlimit:4;stroke-dasharray:none;stroke-dashoffset:0;stroke-opacity:1"/><path style="opacity:.1;fill:url(#linearGradient4875);fill-opacity:1;stroke:none;stroke-width:.33333334;stroke-linecap:round;stroke-linejoin:round;stroke-miterlimit:4;stroke-dasharray:none;stroke-dashoffset:0;stroke-opacity:1" id="path4857" d="m 346.00001,46 v 14 c 0,1.846667 1.48667,3.333334 3.33334,3.333334 1.84666,0 3.33333,-1.486667 3.33333,-3.333334 V 46 Z"/></g><rect style="opacity:1;fill:#4f555d;fill-opacity:1;stroke:none;stroke-width:.33333334;stroke-linecap:round;stroke-linejoin:round;stroke-miterlimit:4;stroke-dasharray:none;stroke-dashoffset:0;stroke-opacity:1" id="rect4861" width="1.333" height="5.333" x="343.333" y="51.333" rx=".667" ry="0"/><rect id="rect4913" width="1.333" height="5.333" x="343.333" y="51.333" clip-path="url(#clipPath4917)" rx=".667" ry="0" style="opacity:.2;fill:none;fill-opacity:1;stroke:#000;stroke-width:.33333334;stroke-linecap:round;stroke-linejoin:round;stroke-miterlimit:4;stroke-dasharray:none;stroke-dashoffset:0;stroke-opacity:1"/></g><path style="fill:none;fill-rule:evenodd;stroke:url(#linearGradient4885);stroke-width:1px;stroke-linecap:butt;stroke-linejoin:miter;stroke-opacity:1" id="path4877" d="M 156,56.5 H 159.93788 164"/><path id="path4889" d="M 156,60.5 H 159.93788 164" style="fill:none;fill-rule:evenodd;stroke:url(#linearGradient4891);stroke-width:1px;stroke-linecap:butt;stroke-linejoin:miter;stroke-opacity:1"/><path style="fill:none;fill-rule:evenodd;stroke:url(#linearGradient4895);stroke-width:1px;stroke-linecap:butt;stroke-linejoin:miter;stroke-opacity:1" id="path4893" d="M 156,64.5 H 159.93788 164"/><path id="path4897" d="M 156,68.5 H 159.93788 164" style="fill:none;fill-rule:evenodd;stroke:url(#linearGradient4899);stroke-width:1px;stroke-linecap:butt;stroke-linejoin:miter;stroke-opacity:1"/><path style="fill:none;fill-rule:evenodd;stroke:url(#linearGradient4903);stroke-width:1px;stroke-linecap:butt;stroke-linejoin:miter;stroke-opacity:1" id="path4901" d="M 156,72.5 H 159.93788 164"/><path id="path4905" d="M 156,76.5 H 159.93788 164" style="fill:none;fill-rule:evenodd;stroke:url(#linearGradient4907);stroke-width:1px;stroke-linecap:butt;stroke-linejoin:miter;stroke-opacity:1"/><path style="fill:none;fill-rule:evenodd;stroke:url(#linearGradient4911);stroke-width:1px;stroke-linecap:butt;stroke-linejoin:miter;stroke-opacity:1" id="path4909" d="M 156,80.5 H 159.93788 164"/></g></g></svg>