<svg xmlns="http://www.w3.org/2000/svg" xmlns:svg="http://www.w3.org/2000/svg" xmlns:xlink="http://www.w3.org/1999/xlink" id="svg11300" width="400" height="320" version="1.0" viewBox="0 0 400 320" style="display:inline;enable-background:new"><title id="title4162">Solus Icon Template</title><defs id="defs3"><linearGradient id="linearGradient-1" x1="16.817" x2="41.943" y1="3.473" y2="52.945" gradientTransform="matrix(0.75,0,0,0.75,322.5,46.75)" gradientUnits="userSpaceOnUse"><stop id="stop6" offset="0%" stop-color="#9EC9CE" style="stop-color:#d7dadf;stop-opacity:1"/><stop id="stop8" offset="47.787%" stop-color="#E6BDDF" style="stop-color:#bac0c9;stop-opacity:1"/><stop id="stop10" offset="100%" stop-color="#99D6CA" style="stop-color:#d7dadf;stop-opacity:1"/></linearGradient><linearGradient id="linearGradient4597" x1="16.817" x2="41.943" y1="3.473" y2="52.945" gradientTransform="matrix(4,0,0,4,45.333289,46.666712)" gradientUnits="userSpaceOnUse" xlink:href="#linearGradient-1"/><filter style="color-interpolation-filters:sRGB" id="filter4616" width="1.048" height="1.048" x="-.024" y="-.024"><feGaussianBlur id="feGaussianBlur4618" stdDeviation="2.24"/></filter><linearGradient id="linearGradient4622" x1="16.817" x2="41.943" y1="3.473" y2="52.945" gradientTransform="matrix(0.75,0,0,0.75,322.5,66.75)" gradientUnits="userSpaceOnUse" xlink:href="#linearGradient-1"/><linearGradient id="linearGradient4650" x1="16.817" x2="41.943" y1="3.473" y2="52.945" gradientTransform="matrix(0.39285713,0,0,0.39285713,320.7381,192.86905)" gradientUnits="userSpaceOnUse" xlink:href="#linearGradient-1"/><linearGradient id="linearGradient4668" x1="16.817" x2="41.943" y1="3.473" y2="52.945" gradientTransform="matrix(0.28571426,0,0,0.28571426,319.80952,239.90476)" gradientUnits="userSpaceOnUse" xlink:href="#linearGradient-1"/><linearGradient id="linearGradient4708" x1="16.817" x2="41.943" y1="3.473" y2="52.945" gradientTransform="matrix(0.49999998,0,0,0.49999998,321.66668,137.83334)" gradientUnits="userSpaceOnUse" xlink:href="#linearGradient-1"/></defs><metadata id="metadata4"/><g id="layer2" style="display:none"><rect style="display:inline;opacity:1;fill:#4f555d;fill-opacity:1;stroke:none;stroke-width:1;stroke-linecap:round;stroke-linejoin:round;stroke-miterlimit:4;stroke-dasharray:none;stroke-dashoffset:0;stroke-opacity:1;enable-background:new" id="rect4557" width="400" height="320" x="0" y="-20" rx="1" ry="1" transform="translate(0,20)"/></g><g id="layer1" transform="translate(0,20)" style="display:inline"><g id="layer7" style="display:none"><rect style="display:inline;overflow:visible;visibility:visible;fill:#eeeeec;fill-opacity:1;fill-rule:nonzero;stroke:none;stroke-width:2;marker:none;enable-background:accumulate" id="rect6592" width="32" height="32" x="320" y="116"/><rect id="rect6749" width="22" height="22" x="321" y="173.059" style="display:inline;overflow:visible;visibility:visible;fill:#eeeeec;fill-opacity:1;fill-rule:nonzero;stroke:none;stroke-width:2;marker:none;enable-background:accumulate"/><rect style="display:inline;overflow:visible;visibility:visible;fill:#eeeeec;fill-opacity:1;fill-rule:nonzero;stroke:none;stroke-width:2;marker:none;enable-background:accumulate" id="rect6833" width="16" height="16" x="320" y="220"/><rect style="display:inline;overflow:visible;visibility:visible;fill:#eeeeec;fill-opacity:1;fill-rule:nonzero;stroke:none;stroke-width:2;marker:none;enable-background:accumulate" id="rect8104" width="24" height="24" x="320" y="172"/><text style="font-style:normal;font-variant:normal;font-weight:400;font-stretch:normal;font-size:13.33333302px;line-height:125%;font-family:monospace;-inkscape-font-specification:monospace;text-align:start;writing-mode:lr-tb;text-anchor:start;display:inline;fill:#000;fill-opacity:1;stroke:none;enable-background:new" id="context" x="31.856" y="-65.7" xml:space="preserve"><tspan id="tspan2716" x="31.856" y="-65.7" style="font-weight:700">devices</tspan></text><text id="text3021" x="31.265" y="-39.901" xml:space="preserve" style="font-style:normal;font-variant:normal;font-weight:400;font-stretch:normal;font-size:13.33333302px;line-height:125%;font-family:monospace;-inkscape-font-specification:monospace;text-align:start;writing-mode:lr-tb;text-anchor:start;display:inline;fill:#000;fill-opacity:1;stroke:none;enable-background:new"><tspan id="tspan3023" x="31.265" y="-39.901">media-optical</tspan></text><rect style="display:inline;overflow:visible;visibility:visible;fill:#eeeeec;fill-opacity:1;fill-rule:nonzero;stroke:none;stroke-width:1.99999976;marker:none;enable-background:accumulate" id="rect13805" width="256" height="256" x="32" y="12"/><rect id="rect6284" width="48" height="48" x="44" y="320" transform="matrix(0,1,1,0,0,0)" style="display:inline;overflow:visible;visibility:visible;fill:#eeeeec;fill-opacity:1;fill-rule:nonzero;stroke:none;stroke-width:2;marker:none;enable-background:accumulate"/></g><g style="display:none" id="g4560"><rect id="rect4540" width="32" height="32" x="320" y="116" style="display:inline;overflow:visible;visibility:visible;fill:#eeeeec;fill-opacity:1;fill-rule:nonzero;stroke:none;stroke-width:2;marker:none;enable-background:accumulate"/><rect style="display:inline;overflow:visible;visibility:visible;fill:#eeeeec;fill-opacity:1;fill-rule:nonzero;stroke:none;stroke-width:2;marker:none;enable-background:accumulate" id="rect4542" width="22" height="22" x="321" y="173.059"/><rect id="rect4544" width="16" height="16" x="320" y="220" style="display:inline;overflow:visible;visibility:visible;fill:#eeeeec;fill-opacity:1;fill-rule:nonzero;stroke:none;stroke-width:2;marker:none;enable-background:accumulate"/><rect id="rect4546" width="24" height="24" x="320" y="172" style="display:inline;overflow:visible;visibility:visible;fill:#eeeeec;fill-opacity:1;fill-rule:nonzero;stroke:none;stroke-width:2;marker:none;enable-background:accumulate"/><text id="text4550" x="31.856" y="-65.7" xml:space="preserve" style="font-style:normal;font-variant:normal;font-weight:400;font-stretch:normal;font-size:13.33333302px;line-height:125%;font-family:monospace;-inkscape-font-specification:monospace;text-align:start;writing-mode:lr-tb;text-anchor:start;display:inline;fill:#000;fill-opacity:1;stroke:none;enable-background:new"><tspan style="font-weight:700" id="tspan4548" x="31.856" y="-65.7">mimetypes</tspan></text><text style="font-style:normal;font-variant:normal;font-weight:400;font-stretch:normal;font-size:13.33333302px;line-height:125%;font-family:monospace;-inkscape-font-specification:monospace;text-align:start;writing-mode:lr-tb;text-anchor:start;display:inline;fill:#000;fill-opacity:1;stroke:none;enable-background:new" id="text4554" x="31.265" y="-39.901" xml:space="preserve"><tspan id="tspan4552" x="31.265" y="-39.901">application-x-cd-image</tspan></text><rect id="rect4556" width="256" height="256" x="32" y="12" style="display:inline;overflow:visible;visibility:visible;fill:#eeeeec;fill-opacity:1;fill-rule:nonzero;stroke:none;stroke-width:1.99999976;marker:none;enable-background:accumulate"/><rect style="display:inline;overflow:visible;visibility:visible;fill:#eeeeec;fill-opacity:1;fill-rule:nonzero;stroke:none;stroke-width:2;marker:none;enable-background:accumulate" id="rect4558" width="48" height="48" x="44" y="320" transform="matrix(0,1,1,0,0,0)"/></g><g id="layer9" style="display:inline"><path style="display:inline;opacity:.02;fill:#000;fill-opacity:1;fill-rule:evenodd;stroke:#000;stroke-width:2;enable-background:new;stroke-opacity:1;stroke-miterlimit:4;stroke-dasharray:none" id="path4727" d="m 332,173 c -6.07513,0 -11,4.92487 -11,11 0,6.07513 4.92487,11 11,11 6.07514,0 11,-4.92487 11,-11 0,-6.07513 -4.92486,-11 -11,-11 z m 0,8 a 3,3 0 0 1 3,3 3,3 0 0 1 -3,3 3,3 0 0 1 -3,-3 3,3 0 0 1 3,-3 z"/><path id="path4729" d="m 336,118 c -7.732,0 -14,6.268 -14,14 0,7.73198 6.268,14 14,14 7.732,0 14,-6.26802 14,-14 0,-7.732 -6.268,-14 -14,-14 z m 0,10 a 4,4 0 0 1 4,4 4,4 0 0 1 -4,4 4,4 0 0 1 -4,-4 4,4 0 0 1 4,-4 z" style="display:inline;opacity:.02;fill:#000;fill-opacity:1;fill-rule:evenodd;stroke:#000;stroke-width:2;enable-background:new;stroke-opacity:1;stroke-miterlimit:4;stroke-dasharray:none"/><path id="path4719" d="m 332,174 c -6.07513,0 -11,4.92487 -11,11 0,6.07513 4.92487,11 11,11 6.07514,0 11,-4.92487 11,-11 0,-6.07513 -4.92486,-11 -11,-11 z m 0,8 a 3,3 0 0 1 3,3 3,3 0 0 1 -3,3 3,3 0 0 1 -3,-3 3,3 0 0 1 3,-3 z" style="display:inline;fill:#000;fill-rule:evenodd;stroke:none;stroke-width:.99999988;enable-background:new;fill-opacity:1;opacity:.2"/><path style="display:inline;fill:#000;fill-rule:evenodd;stroke:none;stroke-width:.99999994;enable-background:new;fill-opacity:1;opacity:.2" id="path4721" d="m 336,119 c -7.732,0 -14,6.268 -14,14 0,7.73198 6.268,14 14,14 7.732,0 14,-6.26802 14,-14 0,-7.732 -6.268,-14 -14,-14 z m 0,10 a 4,4 0 0 1 4,4 4,4 0 0 1 -4,4 4,4 0 0 1 -4,-4 4,4 0 0 1 4,-4 z"/><path id="path4612" d="M 160,30 C 98.144102,30 48,80.144111 48,142 48,203.8559 98.144102,254 160,254 221.85589,254 272,203.8559 272,142 272,80.144111 221.85589,30 160,30 Z m 0,76 a 36,36 0 0 1 36,36 36,36 0 0 1 -36,36 36,36 0 0 1 -36,-36 36,36 0 0 1 36,-36 z" style="display:inline;opacity:.2;fill:#161616;fill-opacity:1;fill-rule:evenodd;stroke:#000;stroke-width:1;stroke-miterlimit:4;stroke-dasharray:none;stroke-opacity:1;filter:url(#filter4616);enable-background:new"/><path id="path4532" d="m 344,90 c 11.59798,0 21,-9.40202 21,-21 0,-11.59798 -9.40202,-21 -21,-21 -11.59798,0 -21,9.40202 -21,21 0,11.59798 9.40202,21 21,21 z m 0,-14 c 3.86599,0 7,-3.134006 7,-7 0,-3.865993 -3.13401,-7 -7,-7 -3.86599,0 -7,3.134007 -7,7 0,3.865994 3.13401,7 7,7 z" style="display:inline;opacity:.1;fill:#000;fill-opacity:1;fill-rule:evenodd;stroke:none;stroke-width:.99999994;enable-background:new"/><path style="display:inline;opacity:.6;fill:#d9d9d9;fill-rule:evenodd;stroke:none;stroke-width:.99999994;enable-background:new" id="path20" d="m 344,60 a 8,8 0 0 0 -8,8 8,8 0 0 0 8,8 8,8 0 0 0 8,-8 8,8 0 0 0 -8,-8 z m 0,5 c 1.65685,0 3,1.343146 3,3 0,1.656854 -1.34315,3 -3,3 -1.65685,0 -3,-1.343146 -3,-3 0,-1.656854 1.34315,-3 3,-3 z"/><path style="display:inline;fill:url(#linearGradient4622);fill-rule:evenodd;stroke:#727b86;stroke-width:.99999994;enable-background:new;stroke-opacity:.49803922" id="Combined-Shape" d="M 344 67.5 C 332.67224 67.5 323.5 76.67224 323.5 88 C 323.5 99.32776 332.67224 108.5 344 108.5 C 355.32776 108.5 364.5 99.32776 364.5 88 C 364.5 76.67224 355.32776 67.5 344 67.5 z M 344 80.5 C 348.13621 80.5 351.5 83.863787 351.5 88 C 351.5 92.136214 348.13621 95.5 344 95.5 C 339.86379 95.5 336.5 92.136214 336.5 88 C 336.5 83.863787 339.86379 80.5 344 80.5 z" transform="translate(0,-20)"/><g style="display:inline;enable-background:new" id="g4530"><path id="path18" d="m 364,68 c 0,-11.045695 -8.95431,-20 -20,-20 -11.0457,0 -20,8.954305 -20,20 0,11.045695 8.9543,20 20,20 11.04569,0 20,-8.954305 20,-20 z m -20,10 c 5.52285,0 10,-4.477152 10,-10 0,-5.522847 -4.47715,-10 -10,-10 -5.52285,0 -10,4.477153 -10,10 0,5.522848 4.47715,10 10,10 z" style="opacity:.39738811;fill:#fff;fill-rule:evenodd;stroke:none;stroke-width:.99999994"/><path id="path24" d="m 334.00173,50.69502 c -1.79945,1.038911 -3.38697,2.303921 -4.74741,3.738426 0,0 12.41122,11.466781 12.44424,11.52398 0.25156,-0.195521 0.51946,-0.376181 0.80317,-0.539977 0.30612,-0.176739 0.62003,-0.32773 0.93925,-0.45364 -0.0253,-0.04379 -3.7763,-16.540793 -3.7674,-16.525382 -1.94342,0.459791 -3.85351,1.206771 -5.67185,2.256593 z m 20.00454,34.648878 c -1.79945,1.038912 -3.68874,1.781244 -5.61128,2.242162 0,0 -3.77048,-16.540681 -3.76732,-16.535206 0.29833,-0.120907 0.59189,-0.263855 0.8786,-0.429387 0.3,-0.173208 0.58233,-0.365268 0.84636,-0.573823 0.28152,-0.222368 12.45273,11.52799 12.44383,11.512579 -1.3699,1.45316 -2.97185,2.733853 -4.79019,3.783675 z" style="opacity:.25;fill:#fff;fill-rule:evenodd;stroke:none;stroke-width:.99999994"/></g><path id="path4585" d="m 159.99996,97.333374 a 42.666666,42.666666 0 0 0 -42.66667,42.666666 42.666666,42.666666 0 0 0 42.66667,42.66667 42.666666,42.666666 0 0 0 42.66666,-42.66667 42.666666,42.666666 0 0 0 -42.66666,-42.666666 z m 0,26.666666 c 8.83653,0 16,7.16345 16,16 0,8.83656 -7.16347,16 -16,16 -8.83654,0 -16,-7.16344 -16,-16 0,-8.83655 7.16346,-16 16,-16 z" style="display:inline;opacity:.6;fill:#d9d9d9;fill-rule:evenodd;stroke:none;stroke-width:.99999994;enable-background:new"/><path style="display:inline;fill:url(#linearGradient4597);fill-rule:evenodd;stroke:none;stroke-width:.99999994;enable-background:new" id="path4587" d="M 160,48 C 98.144102,48 48,98.144111 48,160 48,221.8559 98.144102,272 160,272 221.85589,272 272,221.8559 272,160 272,98.144111 221.85589,48 160,48 Z m 0,76 a 36,36 0 0 1 36,36 36,36 0 0 1 -36,36 36,36 0 0 1 -36,-36 36,36 0 0 1 36,-36 z" transform="translate(0,-20)"/><path id="path4589" d="M 159.99999,30 C 99.248645,30 49.999995,79.248677 49.999995,140 c 0,60.75132 49.24865,110 109.999995,110 60.75129,0 110,-49.24868 110,-110 0,-60.751323 -49.24871,-110 -110,-110 z m 0,54 a 56,56 0 0 1 56,56 56,56 0 0 1 -56,56 56,56 0 0 1 -56,-56 56,56 0 0 1 56,-56 z" style="opacity:.39738811;fill:#fff;fill-rule:evenodd;stroke:none;stroke-width:.99999994"/><path id="path4591" d="m 105.00951,44.82261 c -9.89697,5.71401 -18.62833,12.671565 -26.11075,20.561343 0,0 68.26171,63.067297 68.44332,63.381887 1.38358,-1.07536 2.85703,-2.06899 4.41743,-2.96987 1.68367,-0.97206 3.41017,-1.80252 5.16588,-2.49502 -0.13915,-0.24085 -20.76965,-90.974362 -20.7207,-90.889601 -10.68881,2.52885 -21.1943,6.63724 -31.19518,12.411261 z m 110.02498,190.56883 c -9.89698,5.71401 -20.28807,9.79684 -30.86204,12.33189 0,0 -20.73765,-90.97375 -20.72026,-90.94363 1.64081,-0.66499 3.25539,-1.45121 4.8323,-2.36163 1.65,-0.95265 3.20281,-2.00898 4.65498,-3.15603 1.54836,-1.22302 68.49001,63.40395 68.44106,63.31919 -7.53445,7.99238 -16.34518,15.03619 -26.34604,20.81021 z" style="opacity:.25;fill:#fff;fill-rule:evenodd;stroke:none;stroke-width:.99999994"/><path style="display:inline;opacity:.6;fill:#d9d9d9;fill-rule:evenodd;stroke:none;stroke-width:.99999994;enable-background:new" id="path4638" d="m 332,200 c -2.20914,0 -4,1.79086 -4,4 0,2.20914 1.79086,4 4,4 2.20914,0 4,-1.79086 4,-4 0,-2.20914 -1.79086,-4 -4,-4 z m 0,2 a 2,2 0 0 1 2,2 2,2 0 0 1 -2,2 2,2 0 0 1 -2,-2 2,2 0 0 1 2,-2 z" transform="translate(0,-20)"/><path style="display:inline;fill:url(#linearGradient4650);fill-rule:evenodd;stroke:#727b86;stroke-width:.99999988;enable-background:new;stroke-opacity:.49803922" id="path4640" d="M 332 193.5 C 326.19509 193.5 321.5 198.19509 321.5 204 C 321.5 209.80491 326.19509 214.5 332 214.5 C 337.80492 214.5 342.5 209.80491 342.5 204 C 342.5 198.19509 337.80492 193.5 332 193.5 z M 332 200.5 C 333.92707 200.5 335.5 202.07293 335.5 204 C 335.5 205.92707 333.92707 207.5 332 207.5 C 330.07293 207.5 328.5 205.92707 328.5 204 C 328.5 202.07293 330.07293 200.5 332 200.5 z" transform="translate(0,-20)"/><g id="g4646" transform="matrix(0.5,0,0,0.5,160,150)" style="display:inline;stroke-width:2;enable-background:new"><path style="opacity:.39738811;fill:#fff;fill-rule:evenodd;stroke:none;stroke-width:1.99999988" id="path4642" d="m 364,68 c 0,-11.045695 -8.95431,-20 -20,-20 -11.0457,0 -20,8.954305 -20,20 0,11.045695 8.9543,20 20,20 11.04569,0 20,-8.954305 20,-20 z m -20,10 c 5.52285,0 10,-4.477152 10,-10 0,-5.522847 -4.47715,-10 -10,-10 -5.52285,0 -10,4.477153 -10,10 0,5.522848 4.47715,10 10,10 z"/><path style="opacity:.25;fill:#fff;fill-rule:evenodd;stroke:none;stroke-width:.99999994" id="path4644" d="m 329.83594,194.21875 c -0.97171,0.2299 -1.92677,0.604 -2.83594,1.12891 -0.89972,0.51945 -1.69283,1.15188 -2.37305,1.86914 0,0 5.26836,4.86842 5.88477,5.44922 a 2,2 0 0 1 1.10742,-0.62696 c -0.19097,-0.81135 -1.78741,-7.8276 -1.7832,-7.82031 z m 3.69726,11.06445 a 2,2 0 0 1 -1.12109,0.67188 c 0.17476,0.77022 1.78516,7.83789 1.78516,7.83789 0.96127,-0.23046 1.90691,-0.60164 2.80664,-1.12109 0.90917,-0.52492 1.70958,-1.166 2.39453,-1.89258 0.004,0.007 -4.55418,-4.39121 -5.86524,-5.4961 z" transform="matrix(2,0,0,2,-320,-340)"/></g><path style="display:inline;opacity:.6;fill:#d9d9d9;fill-rule:evenodd;stroke:none;stroke-width:.99999994;enable-background:new" id="path4681" d="m 328,224 c -2.20914,0 -4,1.79086 -4,4 0,2.20914 1.79086,4 4,4 2.20914,0 4,-1.79086 4,-4 0,-2.20914 -1.79086,-4 -4,-4 z m 0,3 a 1,1 0 0 1 1,1 1,1 0 0 1 -1,1 1,1 0 0 1 -1,-1 1,1 0 0 1 1,-1 z"/><path style="display:inline;fill:url(#linearGradient4668);fill-rule:evenodd;stroke:#727b86;stroke-width:.99999988;enable-background:new;stroke-opacity:.49803922" id="path4666" d="M 328 240.5 C 323.85193 240.5 320.5 243.85193 320.5 248 C 320.5 252.14805 323.85193 255.5 328 255.5 C 332.14806 255.5 335.5 252.14805 335.5 248 C 335.5 243.85193 332.14806 240.5 328 240.5 z M 328 245.21484 C 329.53258 245.21485 330.78515 246.46742 330.78516 248 C 330.78515 249.53258 329.53258 250.78515 328 250.78516 C 326.46741 250.78516 325.21485 249.53259 325.21484 248 C 325.21485 246.46741 326.46741 245.21484 328 245.21484 z" transform="translate(0,-20)"/><g style="display:inline;stroke-width:3.33333325;enable-background:new" id="g4679" transform="matrix(0.3,0,0,0.3,224.8,207.6)"><g id="g4738" transform="matrix(1.1666667,0,0,1.1666667,-57.333333,-11.333334)" style="stroke-width:2.85714269"><path style="opacity:.39738811;fill:#fff;fill-rule:evenodd;stroke:none;stroke-width:2.85714269" id="path4675" d="m 364,68 c 0,-11.045695 -8.95431,-20 -20,-20 -11.0457,0 -20,8.954305 -20,20 0,11.045695 8.9543,20 20,20 11.04569,0 20,-8.954305 20,-20 z m -20,10 c 5.52285,0 10,-4.477152 10,-10 0,-5.522847 -4.47715,-10 -10,-10 -5.52285,0 -10,4.477153 -10,10 0,5.522848 4.47715,10 10,10 z"/><path style="opacity:.25;fill:#fff;fill-rule:evenodd;stroke:none;stroke-width:1.42857134" id="path4677" d="m 329.83594,194.21875 c -0.97171,0.2299 -1.92677,0.604 -2.83594,1.12891 -0.89972,0.51945 -1.69283,1.15188 -2.37305,1.86914 0,0 5.26836,4.86842 5.88477,5.44922 a 2,2 0 0 1 1.10742,-0.62696 c -0.19097,-0.81135 -1.78741,-7.8276 -1.7832,-7.82031 z m 3.69726,11.06445 a 2,2 0 0 1 -1.12109,0.67188 c 0.17476,0.77022 1.78516,7.83789 1.78516,7.83789 0.96127,-0.23046 1.90691,-0.60164 2.80664,-1.12109 0.90917,-0.52492 1.70958,-1.166 2.39453,-1.89258 0.004,0.007 -4.55418,-4.39121 -5.86524,-5.4961 z" transform="matrix(2,0,0,2,-320,-340)"/></g></g><path id="path4696" d="m 336,124 c -4.41828,0 -8,3.58172 -8,8 0,4.41828 3.58172,8 8,8 4.41828,0 8,-3.58172 8,-8 0,-4.41828 -3.58172,-8 -8,-8 z m 0,6 a 2,2 0 0 1 2,2 2,2 0 0 1 -2,2 2,2 0 0 1 -2,-2 2,2 0 0 1 2,-2 z" style="display:inline;opacity:.6;fill:#d9d9d9;fill-rule:evenodd;stroke:none;stroke-width:.99999994;enable-background:new"/><path style="display:inline;fill:url(#linearGradient4708);fill-rule:evenodd;stroke:#727b86;stroke-width:.99999994;enable-background:new;stroke-opacity:.49803922" id="path4698" d="M 336 138.5 C 328.53822 138.5 322.5 144.53822 322.5 152 C 322.5 159.46176 328.53822 165.5 336 165.5 C 343.46178 165.5 349.5 159.46176 349.5 152 C 349.5 144.53822 343.46178 138.5 336 138.5 z M 336 147.5 C 338.47936 147.5 340.5 149.52064 340.5 152 C 340.5 154.47936 338.47936 156.5 336 156.5 C 333.52064 156.5 331.5 154.47936 331.5 152 C 331.5 149.52064 333.52064 147.5 336 147.5 z" transform="translate(0,-20)"/><g id="g4704" transform="matrix(0.65,0,0,0.65,112.4,87.8)" style="display:inline;stroke-width:1.53846145;enable-background:new"><path style="opacity:.39738811;fill:#fff;fill-rule:evenodd;stroke:none;stroke-width:1.53846145" id="path4700" d="m 364,68 c 0,-11.045695 -8.95431,-20 -20,-20 -11.0457,0 -20,8.954305 -20,20 0,11.045695 8.9543,20 20,20 11.04569,0 20,-8.954305 20,-20 z m -20,10 c 5.52285,0 10,-4.477152 10,-10 0,-5.522847 -4.47715,-10 -10,-10 -5.52285,0 -10,4.477153 -10,10 0,5.522848 4.47715,10 10,10 z"/><path style="opacity:.25;fill:#fff;fill-rule:evenodd;stroke:none;stroke-width:.76923072" id="path4702" d="m 329.83594,194.21875 c -0.97171,0.2299 -1.92677,0.604 -2.83594,1.12891 -0.89972,0.51945 -1.69283,1.15188 -2.37305,1.86914 0,0 5.26836,4.86842 5.88477,5.44922 a 2,2 0 0 1 1.10742,-0.62696 c -0.19097,-0.81135 -1.78741,-7.8276 -1.7832,-7.82031 z m 3.69726,11.06445 a 2,2 0 0 1 -1.12109,0.67188 c 0.17476,0.77022 1.78516,7.83789 1.78516,7.83789 0.96127,-0.23046 1.90691,-0.60164 2.80664,-1.12109 0.90917,-0.52492 1.70958,-1.166 2.39453,-1.89258 0.004,0.007 -4.55418,-4.39121 -5.86524,-5.4961 z" transform="matrix(2,0,0,2,-320,-340)"/></g></g></g></svg>