<svg xmlns="http://www.w3.org/2000/svg" xmlns:svg="http://www.w3.org/2000/svg" xmlns:xlink="http://www.w3.org/1999/xlink" id="svg11300" width="400" height="320" version="1.0" viewBox="0 0 400 320" style="display:inline;enable-background:new"><title id="title4162">Solus Icon Template</title><defs id="defs3"><linearGradient id="linearGradient4726"><stop id="stop4722" offset="0" style="stop-color:#000;stop-opacity:1"/><stop id="stop4724" offset="1" style="stop-color:#000;stop-opacity:0"/></linearGradient><linearGradient id="linearGradient4525"><stop style="stop-color:#fff;stop-opacity:1" id="stop4521" offset="0"/><stop style="stop-color:#fff;stop-opacity:0" id="stop4523" offset="1"/></linearGradient><linearGradient id="linearGradient4513"><stop style="stop-color:#a8947f;stop-opacity:1" id="stop4509" offset="0"/><stop style="stop-color:#bea78d;stop-opacity:1" id="stop4511" offset="1"/></linearGradient><linearGradient id="linearGradient4515" x1="344" x2="344" y1="84" y2="52" gradientTransform="matrix(1.1111112,0,0,1.0606061,-38.222223,-2.1515151)" gradientUnits="userSpaceOnUse" xlink:href="#linearGradient4513"/><linearGradient id="linearGradient4527" x1="344" x2="344" y1="52" y2="55" gradientTransform="matrix(1.1111112,0,0,1.0606061,-38.222223,-2.1515151)" gradientUnits="userSpaceOnUse" xlink:href="#linearGradient4525"/><linearGradient id="linearGradient4555" x1="344" x2="344" y1="84" y2="52" gradientTransform="matrix(0.77777779,0,0,0.74728185,68.444443,82.141359)" gradientUnits="userSpaceOnUse" xlink:href="#linearGradient4513"/><linearGradient id="linearGradient4557" x1="344" x2="344" y1="52" y2="55" gradientTransform="matrix(0.76923076,0,0,0.73632465,71.384617,82.886461)" gradientUnits="userSpaceOnUse" xlink:href="#linearGradient4525"/><linearGradient id="linearGradient4581" x1="344" x2="344" y1="84" y2="52" gradientTransform="matrix(0.55555556,0,0,0.56250003,140.88889,145.74999)" gradientUnits="userSpaceOnUse" xlink:href="#linearGradient4513"/><linearGradient id="linearGradient4583" x1="344" x2="344" y1="52" y2="55" gradientTransform="matrix(0.54285711,0,0,0.54838714,145.25716,146.70971)" gradientUnits="userSpaceOnUse" xlink:href="#linearGradient4525"/><linearGradient id="linearGradient4646" x1="344" x2="344" y1="84" y2="52" gradientTransform="matrix(0.38888889,0,0,0.40625002,194.22222,200.87499)" gradientUnits="userSpaceOnUse" xlink:href="#linearGradient4513"/><linearGradient id="linearGradient4648" x1="344" x2="344" y1="52" y2="55" gradientTransform="matrix(0.37142855,0,0,0.38709681,200.22858,202.17744)" gradientUnits="userSpaceOnUse" xlink:href="#linearGradient4525"/><linearGradient id="linearGradient4667" x1="344" x2="344" y1="106.206" y2="67.127" gradientTransform="matrix(6.6666666,0,0,6.3461539,-2133.3333,-278.00001)" gradientUnits="userSpaceOnUse" xlink:href="#linearGradient4513"/><filter style="color-interpolation-filters:sRGB" id="filter4528" width="1.36" height="1.18" x="-.18" y="-.09"><feGaussianBlur id="feGaussianBlur4530" stdDeviation="2.4"/></filter><filter style="color-interpolation-filters:sRGB" id="filter4701" width="1.022" height="1.026" x="-.011" y="-.013"><feGaussianBlur id="feGaussianBlur4703" stdDeviation="1.04"/></filter><linearGradient id="linearGradient4715" x1="345.883" x2="345.883" y1="52.419" y2="53.068" gradientTransform="matrix(6.3714284,0,0,6.1612906,-2031.7714,-262.96767)" gradientUnits="userSpaceOnUse" xlink:href="#linearGradient4525"/><linearGradient id="linearGradient4720" x1="345.883" x2="345.883" y1="52.419" y2="53.068" gradientTransform="matrix(6.3714284,0,0,6.1612906,-2031.7714,-574.96767)" gradientUnits="userSpaceOnUse" xlink:href="#linearGradient4726"/></defs><metadata id="metadata4"/><g id="layer1" transform="translate(0,20)" style="display:inline"><g id="layer7" style="display:none"><rect style="display:inline;overflow:visible;visibility:visible;fill:#eeeeec;fill-opacity:1;fill-rule:nonzero;stroke:none;stroke-width:2;marker:none;enable-background:accumulate" id="rect6592" width="32" height="32" x="320" y="116"/><rect id="rect6749" width="22" height="22" x="321" y="173.059" style="display:inline;overflow:visible;visibility:visible;fill:#eeeeec;fill-opacity:1;fill-rule:nonzero;stroke:none;stroke-width:2;marker:none;enable-background:accumulate"/><rect style="display:inline;overflow:visible;visibility:visible;fill:#eeeeec;fill-opacity:1;fill-rule:nonzero;stroke:none;stroke-width:2;marker:none;enable-background:accumulate" id="rect6833" width="16" height="16" x="320" y="220"/><rect style="display:inline;overflow:visible;visibility:visible;fill:#eeeeec;fill-opacity:1;fill-rule:nonzero;stroke:none;stroke-width:2;marker:none;enable-background:accumulate" id="rect8104" width="24" height="24" x="320" y="172"/><text style="font-style:normal;font-variant:normal;font-weight:400;font-stretch:normal;font-size:13.33333302px;line-height:125%;font-family:monospace;-inkscape-font-specification:monospace;text-align:start;writing-mode:lr-tb;text-anchor:start;display:inline;fill:#000;fill-opacity:1;stroke:none;enable-background:new" id="context" x="31.856" y="-65.7" xml:space="preserve"><tspan id="tspan2716" x="31.856" y="-65.7" style="font-weight:700">mimetypes</tspan></text><text id="text3021" x="31.265" y="-39.901" xml:space="preserve" style="font-style:normal;font-variant:normal;font-weight:400;font-stretch:normal;font-size:13.33333302px;line-height:125%;font-family:monospace;-inkscape-font-specification:monospace;text-align:start;writing-mode:lr-tb;text-anchor:start;display:inline;fill:#000;fill-opacity:1;stroke:none;enable-background:new"><tspan id="tspan3023" x="31.265" y="-39.901">package-x-generic</tspan></text><rect style="display:inline;overflow:visible;visibility:visible;fill:#eeeeec;fill-opacity:1;fill-rule:nonzero;stroke:none;stroke-width:1.99999976;marker:none;enable-background:accumulate" id="rect13805" width="256" height="256" x="32" y="12"/><rect id="rect6284" width="48" height="48" x="44" y="320" transform="matrix(0,1,1,0,0,0)" style="display:inline;overflow:visible;visibility:visible;fill:#eeeeec;fill-opacity:1;fill-rule:nonzero;stroke:none;stroke-width:2;marker:none;enable-background:accumulate"/></g><g id="layer9" style="display:inline"><rect id="rect4730" width="40" height="33.939" x="324" y="54" rx="2" ry="2" style="opacity:.05;fill:none;fill-opacity:1;stroke:#000;stroke-width:4;stroke-linecap:round;stroke-linejoin:miter;stroke-miterlimit:4;stroke-dasharray:none;stroke-dashoffset:0;stroke-opacity:1"/><rect style="opacity:.05;fill:none;fill-opacity:1;stroke:#000;stroke-width:2;stroke-linecap:round;stroke-linejoin:miter;stroke-miterlimit:4;stroke-dasharray:none;stroke-dashoffset:0;stroke-opacity:1" id="rect4728" width="40" height="33.939" x="324" y="54" rx="2" ry="2"/><rect style="opacity:.4;fill:#000;fill-opacity:1;stroke:none;stroke-width:.99999988;stroke-linecap:round;stroke-linejoin:miter;stroke-miterlimit:4;stroke-dasharray:none;stroke-dashoffset:0;stroke-opacity:1;filter:url(#filter4701)" id="rect4705" width="224" height="192" x="48" y="60" rx="12" ry="12"/><rect id="rect4697" width="224" height="192" x="48" y="61" rx="12" ry="12" style="opacity:.4;fill:#000;fill-opacity:1;stroke:none;stroke-width:.99999988;stroke-linecap:round;stroke-linejoin:miter;stroke-miterlimit:4;stroke-dasharray:none;stroke-dashoffset:0;stroke-opacity:1;filter:url(#filter4701)"/><rect style="opacity:.4;fill:#000;fill-opacity:1;stroke:none;stroke-width:.99999982;stroke-linecap:round;stroke-linejoin:miter;stroke-miterlimit:4;stroke-dasharray:none;stroke-dashoffset:0;stroke-opacity:1" id="rect4531" width="28" height="23.913" x="322" y="122.087" rx="2" ry="2"/><rect style="opacity:.8;fill:none;fill-opacity:1;stroke:#594739;stroke-width:1.99999964;stroke-linecap:round;stroke-linejoin:miter;stroke-miterlimit:4;stroke-dasharray:none;stroke-dashoffset:0;stroke-opacity:1" id="rect4533" width="28" height="23.913" x="322" y="121" rx="2" ry="2"/><rect id="rect4529" width="40" height="33.939" x="324" y="54.061" rx="2" ry="2" style="opacity:.4;fill:#000;fill-opacity:1;stroke:none;stroke-width:1;stroke-linecap:round;stroke-linejoin:miter;stroke-miterlimit:4;stroke-dasharray:none;stroke-dashoffset:0;stroke-opacity:1"/><rect id="rect4517" width="40" height="33.939" x="324" y="53" rx="2" ry="2" style="opacity:.8;fill:none;fill-opacity:1;stroke:#594739;stroke-width:2;stroke-linecap:round;stroke-linejoin:miter;stroke-miterlimit:4;stroke-dasharray:none;stroke-dashoffset:0;stroke-opacity:1"/><rect style="opacity:1;fill:url(#linearGradient4515);fill-opacity:1;stroke:none;stroke-width:1;stroke-linecap:round;stroke-linejoin:miter;stroke-miterlimit:4;stroke-dasharray:none;stroke-dashoffset:0;stroke-opacity:1" id="rect4504" width="40" height="33.939" x="324" y="53" rx="2" ry="2"/><g style="display:inline;enable-background:new" id="g4284" transform="translate(319.97844,42.999875)"><path id="path8689" d="m 24.021561,23.500125 c -1.376493,0 -2.5,1.128788 -2.5,2.5 v 4 c 0,1.371212 1.123507,2.5 2.5,2.5 1.376493,0 2.5,-1.128788 2.5,-2.5 v -4 c 0,-1.371212 -1.123507,-2.5 -2.5,-2.5 z m 0,1.5 c 0.552,0 1,0.4 1,1 0,0.5 -0.448,1 -1,1 -0.552,0 -1,-0.5 -1,-1 0,-0.6 0.448,-1 1,-1 z m 0,3 c 0.552,0 1,0.4 1,1 v 1 c 0,0.5 -0.448,1 -1,1 -0.552,0 -1,-0.5 -1,-1 v -1 c 0,-0.6 0.448,-1 1,-1 z" style="opacity:.2;fill:#000;fill-opacity:1;stroke:#000;stroke-opacity:1"/><path style="opacity:.5;fill:#000;fill-opacity:1" id="path14" d="m 342,76 v 14 c 0,1.1 0.895,2 2,2 1.105,0 2,-0.9 2,-2 V 76 Z" transform="translate(-319.97844,-65.999875)"/><path style="fill:#999" id="path16" d="m 24.021561,14.000125 v 1 h 1 v -1 z m 0,1 h -1 v 1 h 1 z m 0,1 v 1 h 1 v -1 z m 0,1 h -1 v 1 h 1 z m 0,1 v 1 h 1 v -1 z m 0,1 h -1 v 1 h 1 z m 0,1 v 1 h 1 v -1 z m 0,1 h -1 v 1 h 1 z m 0,1 v 1 h 1 v -1 z m 0,1 h -1 v 1 h 1 z m 0,1 v 1 c 0.552,0 1,-0.5 1,-1 z"/><path id="path8680" d="m 24.021561,10.000125 v 1 h 1 v -1 z m 0,1 h -1 v 1 h 1 z m 0,1 v 1 h 1 v -1 z m 0,1 h -1 v 1 h 1 z" style="fill:#999"/><path id="path8682" d="m 23.021561,15.000125 v -1 h 1 v 1 z m 0,-2 v -1 h 1 v 1 z m 0,-2 v -1 h 1 v 1 z" style="fill:#ecf0f1;fill-opacity:1"/><path style="fill:#ecf0f1" id="path18" d="m 23.021561,14.000125 v 1 h 1 v -1 z m 0,2 v 1 h 1 v -1 z m 0,2 v 1 h 1 v -1 z m 0,2 v 1 h 1 v -1 z m 0,2 v 1 h 1 v -1 z m 0,2 c 0,0.5 0.448,1 1,1 v -1 z"/><path style="fill:#f2f2f2;stroke:#000;stroke-opacity:.46296297" id="path22" d="m 24.021561,22.500125 c -1.376493,0 -2.5,1.128788 -2.5,2.5 v 4 c 0,1.371212 1.123507,2.5 2.5,2.5 1.376493,0 2.5,-1.128788 2.5,-2.5 v -4 c 0,-1.371212 -1.123507,-2.5 -2.5,-2.5 z m 0,1.5 c 0.552,0 1,0.4 1,1 0,0.5 -0.448,1 -1,1 -0.552,0 -1,-0.5 -1,-1 0,-0.6 0.448,-1 1,-1 z m 0,3 c 0.552,0 1,0.4 1,1 v 1 c 0,0.5 -0.448,1 -1,1 -0.552,0 -1,-0.5 -1,-1 v -1 c 0,-0.6 0.448,-1 1,-1 z"/></g><rect style="opacity:.4;fill:none;fill-opacity:1;stroke:url(#linearGradient4527);stroke-width:1;stroke-linecap:round;stroke-linejoin:miter;stroke-miterlimit:4;stroke-dasharray:none;stroke-dashoffset:0;stroke-opacity:1" id="rect4519" width="38.889" height="32.879" x="324.556" y="53.53" rx="1.5" ry="1.5"/><rect id="rect4535" width="28" height="23.913" x="322" y="121" rx="2" ry="2" style="opacity:1;fill:url(#linearGradient4555);fill-opacity:1;stroke:none;stroke-width:.99999982;stroke-linecap:round;stroke-linejoin:miter;stroke-miterlimit:4;stroke-dasharray:none;stroke-dashoffset:0;stroke-opacity:1"/><g id="g4551" transform="translate(311.97844,106.99988)" style="display:inline;enable-background:new"><path style="opacity:.2;fill:#000;fill-opacity:1;stroke:#000;stroke-opacity:1" id="path4537" d="m 24.021561,23.500125 c -1.376493,0 -2.5,1.128788 -2.5,2.5 v 4 c 0,1.371212 1.123507,2.5 2.5,2.5 1.376493,0 2.5,-1.128788 2.5,-2.5 v -4 c 0,-1.371212 -1.123507,-2.5 -2.5,-2.5 z m 0,1.5 c 0.552,0 1,0.4 1,1 0,0.5 -0.448,1 -1,1 -0.552,0 -1,-0.5 -1,-1 0,-0.6 0.448,-1 1,-1 z m 0,3 c 0.552,0 1,0.4 1,1 v 1 c 0,0.5 -0.448,1 -1,1 -0.552,0 -1,-0.5 -1,-1 v -1 c 0,-0.6 0.448,-1 1,-1 z"/><path id="path4539" d="m 342,80 v 10 c 0,1.1 0.895,2 2,2 1.105,0 2,-0.9 2,-2 V 80 Z" transform="translate(-319.97844,-65.999875)" style="opacity:.5;fill:#000;fill-opacity:1"/><path id="path4541" d="m 24.021561,14.000125 v 1 h 1 v -1 z m 0,1 h -1 v 1 h 1 z m 0,1 v 1 h 1 v -1 z m 0,1 h -1 v 1 h 1 z m 0,1 v 1 h 1 v -1 z m 0,1 h -1 v 1 h 1 z m 0,1 v 1 h 1 v -1 z m 0,1 h -1 v 1 h 1 z m 0,1 v 1 h 1 v -1 z m 0,1 h -1 v 1 h 1 z m 0,1 v 1 c 0.552,0 1,-0.5 1,-1 z" style="fill:#999"/><path style="fill:#ecf0f1;fill-opacity:1" id="path4545" d="m 23.021561,15.000125 v -1 h 1 v 1 z"/><path id="path4547" d="m 23.021561,14.000125 v 1 h 1 v -1 z m 0,2 v 1 h 1 v -1 z m 0,2 v 1 h 1 v -1 z m 0,2 v 1 h 1 v -1 z m 0,2 v 1 h 1 v -1 z m 0,2 c 0,0.5 0.448,1 1,1 v -1 z" style="fill:#ecf0f1"/><path id="path4549" d="m 24.021561,22.500125 c -1.376493,0 -2.5,1.128788 -2.5,2.5 v 4 c 0,1.371212 1.123507,2.5 2.5,2.5 1.376493,0 2.5,-1.128788 2.5,-2.5 v -4 c 0,-1.371212 -1.123507,-2.5 -2.5,-2.5 z m 0,1.5 c 0.552,0 1,0.4 1,1 0,0.5 -0.448,1 -1,1 -0.552,0 -1,-0.5 -1,-1 0,-0.6 0.448,-1 1,-1 z m 0,3 c 0.552,0 1,0.4 1,1 v 1 c 0,0.5 -0.448,1 -1,1 -0.552,0 -1,-0.5 -1,-1 v -1 c 0,-0.6 0.448,-1 1,-1 z" style="fill:#f2f2f2;stroke:#000;stroke-opacity:.46296297"/></g><rect id="rect4553" width="26.923" height="22.826" x="322.538" y="121.543" rx="1.5" ry="1.5" style="opacity:.4;fill:none;fill-opacity:1;stroke:url(#linearGradient4557);stroke-width:.99999988;stroke-linecap:round;stroke-linejoin:miter;stroke-miterlimit:4;stroke-dasharray:none;stroke-dashoffset:0;stroke-opacity:1"/><g id="g4622" transform="translate(0,1)"><rect style="opacity:.4;fill:#000;fill-opacity:1;stroke:none;stroke-width:.99999982;stroke-linecap:round;stroke-linejoin:miter;stroke-miterlimit:4;stroke-dasharray:none;stroke-dashoffset:0;stroke-opacity:1" id="rect4559" width="20" height="17.91" x="322" y="176.09" rx="2" ry="2"/><rect style="opacity:.8;fill:none;fill-opacity:1;stroke:#594739;stroke-width:1.99999976;stroke-linecap:round;stroke-linejoin:miter;stroke-miterlimit:4;stroke-dasharray:none;stroke-dashoffset:0;stroke-opacity:1" id="rect4561" width="20" height="18" x="322" y="175" rx="1.5" ry="1.5"/><rect id="rect4563" width="20" height="18" x="322" y="175" rx="1.5" ry="1.5" style="opacity:1;fill:url(#linearGradient4581);fill-opacity:1;stroke:none;stroke-width:.99999982;stroke-linecap:round;stroke-linejoin:miter;stroke-miterlimit:4;stroke-dasharray:none;stroke-dashoffset:0;stroke-opacity:1"/><g id="g4596"><path style="opacity:.2;fill:#000;fill-opacity:1;stroke:#000;stroke-opacity:1" id="path4565" d="m 332,182.5 c -1.37649,0 -2.5,1.12879 -2.5,2.5 v 4 c 0,1.37122 1.12351,2.5 2.5,2.5 1.37649,0 2.5,-1.12878 2.5,-2.5 v -4 c 0,-1.37121 -1.12351,-2.5 -2.5,-2.5 z m 0,1.5 c 0.552,0 1,0.4 1,1 0,0.5 -0.448,1 -1,1 -0.552,0 -1,-0.5 -1,-1 0,-0.6 0.448,-1 1,-1 z m 0,3 c 0.552,0 1,0.4 1,1 v 1 c 0,0.5 -0.448,1 -1,1 -0.552,0 -1,-0.5 -1,-1 v -1 c 0,-0.6 0.448,-1 1,-1 z"/><path id="path4567" d="m 330,175 v 8 c 0,1.1 0.895,2 2,2 1.105,0 2,-0.9 2,-2 v -8 z" style="opacity:.5;fill:#000;fill-opacity:1"/><path id="path4569" d="m 332,175 v 1 h 1 v -1 z m 0,1 h -1 v 1 h 1 z m 0,1 v 1 h 1 v -1 z m 0,1 h -1 v 1 h 1 z m 0,1 v 1 h 1 v -1 z m 0,1 h -1 v 1 h 1 z m 0,1 v 1 h 1 v -1 z m 0,1 h -1 v 1 h 1 z m 0,1 v 1 c 0.552,0 1,-0.5 1,-1 z" style="fill:#999"/><path id="path4573" d="m 331,175 v 1 h 1 v -1 z m 0,2 v 1 h 1 v -1 z m 0,2 v 1 h 1 v -1 z m 0,2 v 1 h 1 v -1 z m 0,2 c 0,0.5 0.448,1 1,1 v -1 z" style="fill:#ecf0f1"/><path id="path4575" d="m 332,181.5 c -1.37649,0 -2.5,1.12879 -2.5,2.5 v 4 c 0,1.37122 1.12351,2.5 2.5,2.5 1.37649,0 2.5,-1.12878 2.5,-2.5 v -4 c 0,-1.37121 -1.12351,-2.5 -2.5,-2.5 z m 0,1.5 c 0.552,0 1,0.4 1,1 0,0.5 -0.448,1 -1,1 -0.552,0 -1,-0.5 -1,-1 0,-0.6 0.448,-1 1,-1 z m 0,3 c 0.552,0 1,0.4 1,1 v 1 c 0,0.5 -0.448,1 -1,1 -0.552,0 -1,-0.5 -1,-1 v -1 c 0,-0.6 0.448,-1 1,-1 z" style="fill:#f2f2f2;stroke:#000;stroke-opacity:.46296297"/></g><rect id="rect4579" width="19" height="17" x="322.5" y="175.5" rx="1" ry="1" style="opacity:.4;fill:none;fill-opacity:1;stroke:url(#linearGradient4583);stroke-width:.99999994;stroke-linecap:round;stroke-linejoin:miter;stroke-miterlimit:4;stroke-dasharray:none;stroke-dashoffset:0;stroke-opacity:1"/></g><rect style="opacity:.8;fill:none;fill-opacity:1;stroke:#594739;stroke-width:1.99999976;stroke-linecap:round;stroke-linejoin:miter;stroke-miterlimit:4;stroke-dasharray:none;stroke-dashoffset:0;stroke-opacity:1" id="rect4626" width="14" height="13" x="321" y="222" rx="1.5" ry="1.5"/><rect id="rect4628" width="14" height="13" x="321" y="222" rx="1.5" ry="1.5" style="opacity:1;fill:url(#linearGradient4646);fill-opacity:1;stroke:none;stroke-width:.99999976;stroke-linecap:round;stroke-linejoin:miter;stroke-miterlimit:4;stroke-dasharray:none;stroke-dashoffset:0;stroke-opacity:1"/><path style="opacity:.5;fill:#000;fill-opacity:1" id="path4632" d="m 326,222 v 5 c 0,1.1 0.895,2 2,2 1.105,0 2,-0.9 2,-2 v -5 z"/><path style="fill:#999" id="path4634" d="m 328,222 h -1 v 1 h 1 z m 0,1 v 1 h 1 v -1 z m 0,1 h -1 v 1 h 1 z m 0,1 v 1 h 1 v -1 z m 0,1 h -1 v 1 h 1 z m 0,1 v 1 c 0.552,0 1,-0.5 1,-1 z"/><path style="fill:#ecf0f1" id="path4636" d="m 327,223 v 1 h 1 v -1 z m 0,2 v 1 h 1 v -1 z m 0,2 c 0,0.5 0.448,1 1,1 v -1 z"/><path style="fill:#f2f2f2;stroke:#000;stroke-opacity:.46296297" id="path4638" d="m 328,225.5 c -1.37649,0 -2.5,1.12879 -2.5,2.5 v 4 c 0,1.37122 1.12351,2.5 2.5,2.5 1.37649,0 2.5,-1.12878 2.5,-2.5 v -4 c 0,-1.37121 -1.12351,-2.5 -2.5,-2.5 z m 0,1.5 c 0.552,0 1,0.4 1,1 0,0.5 -0.448,1 -1,1 -0.552,0 -1,-0.5 -1,-1 0,-0.6 0.448,-1 1,-1 z m 0,3 c 0.552,0 1,0.4 1,1 v 1 c 0,0.5 -0.448,1 -1,1 -0.552,0 -1,-0.5 -1,-1 v -1 c 0,-0.6 0.448,-1 1,-1 z"/><rect id="rect4642" width="13" height="12" x="321.5" y="222.5" rx="1" ry="1" style="opacity:.4;fill:none;fill-opacity:1;stroke:url(#linearGradient4648);stroke-width:.99999982;stroke-linecap:round;stroke-linejoin:miter;stroke-miterlimit:4;stroke-dasharray:none;stroke-dashoffset:0;stroke-opacity:1"/><rect style="opacity:1;fill:url(#linearGradient4667);fill-opacity:1;stroke:none;stroke-width:.99999988;stroke-linecap:round;stroke-linejoin:miter;stroke-miterlimit:4;stroke-dasharray:none;stroke-dashoffset:0;stroke-opacity:1" id="rect4665" width="224" height="192" x="48" y="60" rx="12" ry="12"/><g id="g4695" transform="matrix(0.5,0,0,0.5,104.5,36.439999)"><path id="path4438" d="M 95,47.120002 V 223.12 c 0,8.8 7.16,16 16,16 8.84,0 16,-7.2 16,-16 V 47.120002 Z" style="display:inline;opacity:.1;fill:#000;fill-opacity:1;stroke:none;enable-background:new"/><path id="path4440" d="m 111,47.120002 v 8 h 8 v -8 z m 0,8 h -8 v 8 h 8 z m 0,8 v 8 h 8 v -8 z m 0,8 h -8 v 8 h 8 z m 0,8 v 8 h 8 v -8 z m 0,8 h -8 v 8 h 8 z m 0,8 V 103.12 h 8 v -7.999998 z m 0,7.999998 h -8 v 8 h 8 z m 0,8 v 8 h 8 v -8 z m 0,8 h -8 v 8 h 8 z m 0,8 v 8 h 8 v -8 z m 0,8 h -8 v 8 h 8 z m 0,8 v 8 h 8 v -8 z m 0,8 h -8 v 8 h 8 z m 0,8 v 8 h 8 v -8 z m 0,8 h -8 v 8 h 8 z m 0,8 v 8 h 8 v -8 z m 0,8 h -8 v 8 h 8 z m 0,8 v 8 h 8 v -8 z m 0,8 h -8 v 8 h 8 z m 0,8 v 8 h 8 v -8 z m 0,8 h -8 v 8 h 8 z m 0,8 v 8 c 4.416,0 8,-4 8,-8 z" style="display:inline;opacity:.2;fill:#000;fill-opacity:1;stroke:none;enable-background:new"/><path id="path4442" d="m 103,47.120002 v 8 h 8 v -8 z m 0,16 v 8 h 8 v -8 z m 0,16 v 8 h 8 v -8 z m 0,16 V 103.12 h 8 V 95.120002 Z M 103,111.12 v 8 h 8 v -8 z m 0,16 v 8 h 8 v -8 z m 0,16 v 8 h 8 v -8 z m 0,16 v 8 h 8 v -8 z m 0,16 v 8 h 8 v -8 z m 0,16 v 8 h 8 v -8 z m 0,16 v 8 h 8 v -8 z m 0,16 c 0,4 3.584,8 8,8 v -8 z" style="display:inline;fill:#ddd;fill-opacity:1;stroke:none;enable-background:new"/><path id="path4444" d="m 111,235.12 c -8.84,0 -16,7.2 -16,16 v 32 c 0,8.8 7.16,16 16,16 8.84,0 16,-7.2 16,-16 v -32 c 0,-8.8 -7.16,-16 -16,-16 z m 0,8 c 4.416,0 8,3.2 8,8 0,4 -3.584,8 -8,8 -4.416,0 -8,-4 -8,-8 0,-4.8 3.584,-8 8,-8 z m 0,24 c 4.416,0 8,3.2 8,8 v 8 c 0,4 -3.584,8 -8,8 -4.416,0 -8,-4 -8,-8 v -8 c 0,-4.8 3.584,-8 8,-8 z" style="display:inline;opacity:.2;fill:#000;fill-opacity:1;stroke:none;filter:url(#filter4528);enable-background:new"/><path id="path4446" d="m 111,231.12 c -8.84,0 -16,7.2 -16,16 v 32 c 0,8.8 7.16,16 16,16 8.84,0 16,-7.2 16,-16 v -32 c 0,-8.8 -7.16,-16 -16,-16 z m 0,8 c 4.416,0 8,3.2 8,8 0,4 -3.584,8 -8,8 -4.416,0 -8,-4 -8,-8 0,-4.8 3.584,-8 8,-8 z m 0,24 c 4.416,0 8,3.2 8,8 v 8 c 0,4 -3.584,8 -8,8 -4.416,0 -8,-4 -8,-8 v -8 c 0,-4.8 3.584,-8 8,-8 z" style="display:inline;fill:#f5f5f5;fill-opacity:1;stroke:none;enable-background:new"/><path style="display:inline;fill:#b3b3b3;fill-opacity:1;stroke:none;enable-background:new" id="path4553" d="m 119,55.120002 v 8 h -8 v -8 z m 0,16 v 8 h -8 v -8 z m 0,16 v 8 h -8 v -8 z M 119,103.12 v 8 h -8 v -8 z m 0,16 v 8 h -8 v -8 z m 0,16 v 8 h -8 v -8 z m 0,16 v 8 h -8 v -8 z m 0,16 v 8 h -8 v -8 z m 0,16 v 8 h -8 v -8 z m 0,16 v 8 h -8 v -8 z m 0,16 v 8 h -8 v -8 z"/></g><rect style="opacity:.4;fill:none;fill-opacity:1;stroke:url(#linearGradient4715);stroke-width:.99999994;stroke-linecap:round;stroke-linejoin:miter;stroke-miterlimit:4;stroke-dasharray:none;stroke-dashoffset:0;stroke-opacity:1" id="rect4713" width="223" height="191" x="48.5" y="60.5" rx="11.5" ry="11.5"/><rect id="rect4718" width="223" height="191" x="48.5" y="-251.5" rx="11.5" ry="11.5" transform="scale(1,-1)" style="opacity:.2;fill:none;fill-opacity:1;stroke:url(#linearGradient4720);stroke-width:1;stroke-linecap:round;stroke-linejoin:miter;stroke-miterlimit:4;stroke-dasharray:none;stroke-dashoffset:0;stroke-opacity:1"/></g></g></svg>