<svg xmlns="http://www.w3.org/2000/svg" xmlns:svg="http://www.w3.org/2000/svg" xmlns:xlink="http://www.w3.org/1999/xlink" id="svg11300" width="720" height="320" version="1.0" viewBox="0 0 720 320" style="display:inline;enable-background:new"><title id="title4162">Solus Icon Template</title><defs id="defs3"><linearGradient id="linearGradient4627"><stop style="stop-color:#4f555d;stop-opacity:1" id="stop4623" offset="0"/><stop id="stop4633" offset="1" style="stop-color:#727b86;stop-opacity:1"/></linearGradient><linearGradient id="linearGradient3764" x1="24" x2="24" y1="-2.594" y2="41.344" gradientTransform="matrix(0.99999999,0,0,0.43243241,319,62.12163)" gradientUnits="userSpaceOnUse" xlink:href="#linearGradient3977"/><linearGradient id="linearGradient3755" x1="24" x2="24" y1="5.564" y2="43" gradientTransform="matrix(0.62162161,0,0,1.042471,330.08108,35.194992)" gradientUnits="userSpaceOnUse" xlink:href="#linearGradient3977"/><linearGradient id="linearGradient3977"><stop style="stop-color:#fff;stop-opacity:1" id="stop3979" offset="0"/><stop style="stop-color:#fff;stop-opacity:.23529412" id="stop3981" offset=".036"/><stop style="stop-color:#fff;stop-opacity:.15686275" id="stop3983" offset=".951"/><stop style="stop-color:#fff;stop-opacity:.39215687" id="stop3985" offset="1"/></linearGradient><linearGradient id="linearGradient3743" x1="23.858" x2="24" y1="4.038" y2="43" gradientTransform="matrix(0.62162161,0,0,1.042471,322.83108,44.328921)" gradientUnits="userSpaceOnUse" xlink:href="#linearGradient3977"/><linearGradient id="linearGradient3739" x1="16.769" x2="16.769" y1="14.2" y2="10" gradientTransform="matrix(1.3,0,0,1.6666666,324.2,38.333334)" gradientUnits="userSpaceOnUse" xlink:href="#linearGradient4251-1"/><linearGradient id="linearGradient4251-1"><stop style="stop-color:#000;stop-opacity:1" id="stop4253-8" offset="0"/><stop style="stop-color:#000;stop-opacity:0" id="stop4255-2" offset="1"/></linearGradient><filter style="color-interpolation-filters:sRGB" id="filter4724" width="1.023" height="1.025" x="-.012" y="-.012"><feGaussianBlur id="feGaussianBlur4726" stdDeviation="1.08"/></filter><linearGradient id="linearGradient5040" x1="176" x2="176" y1="204" y2="92" gradientTransform="translate(0,16)" gradientUnits="userSpaceOnUse" xlink:href="#linearGradient4627"/><linearGradient id="linearGradient5066" x1="16.769" x2="16.769" y1="14.2" y2="10" gradientTransform="matrix(1.3,0,0,-1.6666666,90.2,201.66667)" gradientUnits="userSpaceOnUse" xlink:href="#linearGradient4251-1"/><linearGradient id="linearGradient4524" x1="328" x2="328" y1="221" y2="235" gradientTransform="translate(100,-148)" gradientUnits="userSpaceOnUse" xlink:href="#linearGradient4568"/><linearGradient id="linearGradient4568"><stop id="stop4566" offset="0" style="stop-color:#e95800;stop-opacity:1"/><stop id="stop4564" offset="1" style="stop-color:#e40004;stop-opacity:1"/></linearGradient><linearGradient id="linearGradient5429" x1="328" x2="328" y1="221" y2="235" gradientTransform="matrix(0.75,0,0,0.75,64.999991,-33)" gradientUnits="userSpaceOnUse" xlink:href="#linearGradient4568"/><linearGradient id="linearGradient5363" x1="328" x2="328" y1="221" y2="235" gradientTransform="matrix(0.61363636,0,0,0.61363636,108.63636,-1.9090901)" gradientUnits="userSpaceOnUse" xlink:href="#linearGradient4568"/><linearGradient id="linearGradient5388" x1="328" x2="328" y1="221" y2="235" gradientTransform="matrix(0.75,0,0,0.75,64.999991,-33)" gradientUnits="userSpaceOnUse" xlink:href="#linearGradient4568"/><linearGradient id="linearGradient5736" x1="15.231" x2="15.231" y1="13" y2="11.2" gradientTransform="matrix(1.3,0,0,1.6666666,316.2,161.33333)" gradientUnits="userSpaceOnUse" xlink:href="#linearGradient4251-1"/><linearGradient id="linearGradient5738" x1="359" x2="359" y1="82.5" y2="65" gradientTransform="translate(-1,-1)" gradientUnits="userSpaceOnUse" xlink:href="#linearGradient4627"/><linearGradient id="linearGradient5740" x1="24" x2="24" y1="-2.594" y2="41.344" gradientTransform="matrix(0.99999999,0,0,0.43243241,319,62.12163)" gradientUnits="userSpaceOnUse" xlink:href="#linearGradient3977"/><linearGradient id="linearGradient5742" x1="16.769" x2="16.769" y1="14.2" y2="10" gradientTransform="matrix(1.3,0,0,1.6666666,324.2,38.333334)" gradientUnits="userSpaceOnUse" xlink:href="#linearGradient4251-1"/><linearGradient id="linearGradient5744" x1="359" x2="359" y1="82.5" y2="65" gradientTransform="translate(-9,61)" gradientUnits="userSpaceOnUse" xlink:href="#linearGradient4627"/><linearGradient id="linearGradient5746" x1="24" x2="24" y1="8.969" y2="39.031" gradientTransform="matrix(0.99999999,0,0,0.43243241,311,124.12163)" gradientUnits="userSpaceOnUse" xlink:href="#linearGradient3977"/><linearGradient id="linearGradient5748" x1="16.769" x2="16.769" y1="14.2" y2="10" gradientTransform="matrix(1.3,0,0,1.6666666,316.2,106.33333)" gradientUnits="userSpaceOnUse" xlink:href="#linearGradient4251-1"/><linearGradient id="linearGradient5750" x1="359" x2="359" y1="82.5" y2="65" gradientTransform="matrix(0.48780428,0,0,0.47727214,163.20752,151.12505)" gradientUnits="userSpaceOnUse" xlink:href="#linearGradient4627"/><linearGradient id="linearGradient5752" x1="25" x2="25" y1="10.855" y2="40.066" gradientTransform="matrix(0.48717782,0,0,0.20540432,320.82053,180.77032)" gradientUnits="userSpaceOnUse" xlink:href="#linearGradient3977"/><linearGradient id="linearGradient5754" x1="15.231" x2="15.231" y1="13" y2="11.2" gradientTransform="matrix(1.3,0,0,1.6666666,311.2,205.33333)" gradientUnits="userSpaceOnUse" xlink:href="#linearGradient4251-1"/><linearGradient id="linearGradient5756" x1="359" x2="359" y1="82.5" y2="65" gradientTransform="matrix(0.48780428,0,0,0.47727214,159.20752,195.12505)" gradientUnits="userSpaceOnUse" xlink:href="#linearGradient4627"/><linearGradient id="linearGradient5758" x1="25" x2="25" y1="10.855" y2="40.066" gradientTransform="matrix(0.48717782,0,0,0.20540432,316.82053,224.77032)" gradientUnits="userSpaceOnUse" xlink:href="#linearGradient3977"/><linearGradient id="linearGradient5760" x1="16.769" x2="16.769" y1="14.2" y2="11.2" gradientTransform="matrix(1.3,0,0,-1.6666666,324.2,93.666666)" gradientUnits="userSpaceOnUse" xlink:href="#linearGradient4251-1"/></defs><metadata id="metadata4"/><g id="layer1" transform="translate(0,20)" style="display:inline"><g id="layer7" style="display:none"><rect style="display:inline;overflow:visible;visibility:visible;fill:#eeeeec;fill-opacity:1;fill-rule:nonzero;stroke:none;stroke-width:2;marker:none;enable-background:accumulate" id="rect8104" width="24" height="24" x="320" y="172"/><rect style="display:inline;overflow:visible;visibility:visible;fill:#eeeeec;fill-opacity:1;fill-rule:nonzero;stroke:none;stroke-width:2;marker:none;enable-background:accumulate" id="rect6592" width="32" height="32" x="320" y="116"/><rect id="rect6749" width="22" height="22" x="321" y="173.059" style="display:inline;overflow:visible;visibility:visible;fill:#eeeeec;fill-opacity:1;fill-rule:nonzero;stroke:none;stroke-width:2;marker:none;enable-background:accumulate"/><rect style="display:inline;overflow:visible;visibility:visible;fill:#eeeeec;fill-opacity:1;fill-rule:nonzero;stroke:none;stroke-width:2;marker:none;enable-background:accumulate" id="rect6833" width="16" height="16" x="320" y="220"/><text style="font-style:normal;font-variant:normal;font-weight:400;font-stretch:normal;font-size:13.33333302px;line-height:125%;font-family:monospace;-inkscape-font-specification:monospace;text-align:start;writing-mode:lr-tb;text-anchor:start;display:inline;fill:#000;fill-opacity:1;stroke:none;enable-background:new" id="context" x="31.856" y="-65.7" xml:space="preserve"><tspan id="tspan2716" x="31.856" y="-65.7" style="font-weight:700">devices</tspan></text><text id="text3021" x="31.265" y="-39.901" xml:space="preserve" style="font-style:normal;font-variant:normal;font-weight:400;font-stretch:normal;font-size:13.33333302px;line-height:125%;font-family:monospace;-inkscape-font-specification:monospace;text-align:start;writing-mode:lr-tb;text-anchor:start;display:inline;fill:#000;fill-opacity:1;stroke:none;enable-background:new"><tspan id="tspan3023" x="31.265" y="-39.901">printer</tspan></text><rect style="display:inline;overflow:visible;visibility:visible;fill:#eeeeec;fill-opacity:1;fill-rule:nonzero;stroke:none;stroke-width:1.99999976;marker:none;enable-background:accumulate" id="rect13805" width="256" height="256" x="32" y="12"/><rect id="rect6284" width="48" height="48" x="44" y="320" transform="matrix(0,1,1,0,0,0)" style="display:inline;overflow:visible;visibility:visible;fill:#eeeeec;fill-opacity:1;fill-rule:nonzero;stroke:none;stroke-width:2;marker:none;enable-background:accumulate"/></g><g id="layer9" style="display:inline"><path id="path4728" d="m 96,44 v 64 H 56 c -4.432,0 -8,3.568 -8,8 v 96 c 0,4.432 3.568,8 8,8 h 40 v 32 h 128 v -32 h 40 c 4.432,0 8,-3.568 8,-8 v -96 c 0,-4.432 -3.568,-8 -8,-8 H 224 V 44.003906 Z" style="display:inline;opacity:.2;fill:#000;fill-opacity:1;stroke:#000;stroke-width:1;stroke-miterlimit:4;stroke-dasharray:none;stroke-opacity:1;filter:url(#filter4724);enable-background:new"/><path style="display:inline;opacity:.2;fill:#000;fill-opacity:1;stroke:none;stroke-width:.99999994;filter:url(#filter4724);enable-background:new" id="path4717" d="m 96,45 v 64 H 56 c -4.432,0 -8,3.568 -8,8 v 96 c 0,4.432 3.568,8 8,8 h 40 v 32 h 128 v -32 h 40 c 4.432,0 8,-3.568 8,-8 v -96 c 0,-4.432 -3.568,-8 -8,-8 H 224 V 45.003906 Z"/><path style="display:inline;fill:#f9f9f9;fill-opacity:1;stroke:none;stroke-width:.99999994;enable-background:new" id="path4706" d="M 96,44 223.99977,44.00432 224,124 H 96 Z"/><rect style="display:inline;opacity:1;fill:url(#linearGradient5040);fill-opacity:1;stroke:none;stroke-width:1;stroke-linecap:butt;stroke-linejoin:round;stroke-miterlimit:4;stroke-dasharray:none;stroke-dashoffset:0;stroke-opacity:1;enable-background:new" id="rect4696" width="224" height="112" x="48" y="108" rx="8" ry="8"/><path style="opacity:.2;fill:#000;fill-opacity:1;stroke:none;stroke-width:1;stroke-linecap:butt;stroke-linejoin:round;stroke-miterlimit:4;stroke-dasharray:none;stroke-dashoffset:0;stroke-opacity:1" id="rect4743" d="m 84,148 h 152 c 0,0 4,0 4,4 v 68 H 80 v -68 c 0,0 0,-4 4,-4 z"/><g id="g5280"><path style="display:inline;fill:#f9f9f9;fill-opacity:1;stroke:none;enable-background:new" id="path4648" d="m 327,177 9.99997,5.6e-4 L 337,182.5 h -10 z"/><path style="display:inline;opacity:.3;fill:none;stroke:#000;stroke-width:.99992174;stroke-linecap:butt;stroke-linejoin:round;stroke-miterlimit:4;stroke-dasharray:none;stroke-dashoffset:0;stroke-opacity:1;enable-background:new" id="path4642" d="m 326.49996,176.49994 11.00005,0.003 3e-5,5.9975 h -11.00008 z"/><path id="path4644" d="m 326,179 h 12 v 4 h -12 z" style="color:#000;display:inline;overflow:visible;visibility:visible;opacity:.3;fill:url(#linearGradient5736);fill-opacity:1;fill-rule:nonzero;stroke:none;stroke-width:1;marker:none;enable-background:accumulate"/><path style="color:#000;display:inline;overflow:visible;visibility:visible;opacity:1;fill:url(#linearGradient5738);fill-opacity:1;fill-rule:nonzero;stroke:#4f555d;stroke-width:1;stroke-linejoin:round;stroke-miterlimit:4;stroke-dasharray:none;stroke-opacity:.875;marker:none;enable-background:accumulate" id="rect5505-21-9" d="m 364.5,61.5 v 18 c 0,0 0,2 -2,2 h -37 c -2,0 -2,-2 -2,-2 v -18 c 0,-2 2,-2 2,-2 h 37 c 0,0 2,0 2,2 z"/><path id="rect6741-7-4-4" d="m 325.5,60.5 h 37 c 0,0 1,0 1,1 v 18 c 0,0 0,1 -1,1 h -37 c 0,0 -1,0 -1,-1 v -18 c 0,0 0,-1 1,-1 z" style="display:inline;opacity:.25;fill:none;stroke:url(#linearGradient5740);stroke-width:1;stroke-linecap:round;stroke-linejoin:round;stroke-miterlimit:4;stroke-dasharray:none;stroke-dashoffset:0;stroke-opacity:1;enable-background:new"/><path style="display:inline;fill:#f9f9f9;fill-opacity:1;stroke:none;enable-background:new" id="path4160-3" d="m 331,72.5 c 5.49962,0 25.99997,9.06e-4 25.99997,9.06e-4 L 357,86 h -26 z"/><path style="display:inline;opacity:.3;fill:none;stroke:#000;stroke-width:.99992174;stroke-linecap:butt;stroke-linejoin:round;stroke-miterlimit:4;stroke-dasharray:none;stroke-dashoffset:0;stroke-opacity:1;enable-background:new" id="path4160-3-4" d="m 330.49996,72.499961 c 5.72879,0 27.00005,7.63e-4 27.00005,7.63e-4 l 3e-5,13.999315 h -27.00008 z"/><path id="rect4124-5-6" d="m 330,72 h 28 v 1 h -28 z" style="color:#000;display:inline;overflow:visible;visibility:visible;opacity:.15;fill:#000;fill-opacity:1;fill-rule:nonzero;stroke:none;stroke-width:1;marker:none;enable-background:accumulate"/><path style="display:inline;fill:#f9f9f9;fill-opacity:1;stroke:none;enable-background:new" id="path4160-3-8" d="m 331,49 c 5.49962,0 25.99997,5.61e-4 25.99997,5.61e-4 L 357,59.5 h -26 z"/><path style="display:inline;opacity:.3;fill:none;stroke:#000;stroke-width:.99992174;stroke-linecap:butt;stroke-linejoin:round;stroke-miterlimit:4;stroke-dasharray:none;stroke-dashoffset:0;stroke-opacity:1;enable-background:new" id="path4160-3-4-7" d="m 330.49996,48.49994 27.00005,0.0026 3e-5,10.997499 h -27.00008 z"/><path id="rect4249-5" d="m 330,55 h 28 v 5 h -28 z" style="color:#000;display:inline;overflow:visible;visibility:visible;opacity:.3;fill:url(#linearGradient5742);fill-opacity:1;fill-rule:nonzero;stroke:none;stroke-width:1;marker:none;enable-background:accumulate"/><path id="rect3991" d="m 359,63 h 2 v 2 h -2 z" style="color:#000;display:inline;overflow:visible;visibility:visible;fill:#c5e2f6;fill-opacity:1;fill-rule:nonzero;stroke:none;stroke-width:1;marker:none;enable-background:accumulate"/><path id="path4575" d="m 350.5,128.5 v 11 c 0,0 0,2 -2,2 h -25 c -2,0 -2,-2 -2,-2 v -11 c 0,-2 2,-2 2,-2 h 25 c 0,0 2,0 2,2 z" style="color:#000;display:inline;overflow:visible;visibility:visible;opacity:1;fill:url(#linearGradient5744);fill-opacity:1;fill-rule:nonzero;stroke:#4f555d;stroke-width:1;stroke-linejoin:round;stroke-miterlimit:4;stroke-dasharray:none;stroke-opacity:.875;marker:none;enable-background:accumulate"/><path style="display:inline;opacity:.25;fill:none;stroke:url(#linearGradient5746);stroke-width:1;stroke-linecap:round;stroke-linejoin:round;stroke-miterlimit:4;stroke-dasharray:none;stroke-dashoffset:0;stroke-opacity:1;enable-background:new" id="path4577" d="m 323.5,127.5 h 25 c 0,0 1,0 1,1 v 11 c 0,0 0,1 -1,1 h -25 c 0,0 -1,0 -1,-1 v -11 c 0,0 0,-1 1,-1 z"/><path id="path4579" d="m 327,136.5 c 5.49962,0 17.99997,9.1e-4 17.99997,9.1e-4 L 345,146 h -18 z" style="display:inline;fill:#f9f9f9;fill-opacity:1;stroke:none;enable-background:new"/><path id="path4581" d="m 326.49996,136.49996 c 5.72879,0 19.00005,7.6e-4 19.00005,7.6e-4 l 3e-5,9.99932 h -19.00008 z" style="display:inline;opacity:.3;fill:none;stroke:#000;stroke-width:.99992174;stroke-linecap:butt;stroke-linejoin:round;stroke-miterlimit:4;stroke-dasharray:none;stroke-dashoffset:0;stroke-opacity:1;enable-background:new"/><path style="color:#000;display:inline;overflow:visible;visibility:visible;opacity:.15;fill:#000;fill-opacity:1;fill-rule:nonzero;stroke:none;stroke-width:1;marker:none;enable-background:accumulate" id="path4583" d="m 326,136 h 20 v 1 h -20 z"/><path id="path4585" d="m 327,119 c 5.49962,0 17.99997,5.6e-4 17.99997,5.6e-4 L 345,126.5 h -18 z" style="display:inline;fill:#f9f9f9;fill-opacity:1;stroke:none;enable-background:new"/><path id="path4587" d="m 326.49996,118.49994 19.00005,0.003 3e-5,7.9975 h -19.00008 z" style="display:inline;opacity:.3;fill:none;stroke:#000;stroke-width:.99992174;stroke-linecap:butt;stroke-linejoin:round;stroke-miterlimit:4;stroke-dasharray:none;stroke-dashoffset:0;stroke-opacity:1;enable-background:new"/><path style="color:#000;display:inline;overflow:visible;visibility:visible;opacity:.3;fill:url(#linearGradient5748);fill-opacity:1;fill-rule:nonzero;stroke:none;stroke-width:1;marker:none;enable-background:accumulate" id="path4589" d="m 326,123 h 20 v 4 h -20 z"/><path style="color:#000;display:inline;overflow:visible;visibility:visible;fill:#c5e2f6;fill-opacity:1;fill-rule:nonzero;stroke:none;stroke-width:1;marker:none;enable-background:accumulate" id="path4593" d="m 346,129 h 2 v 2 h -2 z"/><path id="path4626" d="m 341.52437,182.45456 -0.0244,7.09089 c 0,0 0,0.95455 -0.97561,0.95455 H 323.47561 C 322.5,190.5 322.5,189.54546 322.5,189.54546 l 0.0244,-7.0909 C 322.52439,181.5 323.5,181.5 323.5,181.5 h 17.04876 c 0,0 0.97561,0 0.97561,0.95456 z" style="color:#000;display:inline;overflow:visible;visibility:visible;opacity:1;fill:url(#linearGradient5750);fill-opacity:1;fill-rule:nonzero;stroke:#4f555d;stroke-width:.99999994;stroke-linejoin:round;stroke-miterlimit:4;stroke-dasharray:none;stroke-opacity:.875;marker:none;enable-background:accumulate"/><path style="display:inline;opacity:.25;fill:none;stroke:url(#linearGradient5752);stroke-width:.99999994;stroke-linecap:round;stroke-linejoin:round;stroke-miterlimit:4;stroke-dasharray:none;stroke-dashoffset:0;stroke-opacity:1;enable-background:new" id="path4630" d="m 340.5,182.5 v 7 h -17 v -7 z"/><path style="display:inline;fill:#f9f9f9;fill-opacity:1;stroke:none;enable-background:new" id="path4634" d="m 327,187.5 c 5.49962,0 9.99997,9.1e-4 9.99997,9.1e-4 L 337,193 h -10 z"/><path style="display:inline;opacity:.3;fill:none;stroke:#000;stroke-width:.99992174;stroke-linecap:butt;stroke-linejoin:round;stroke-miterlimit:4;stroke-dasharray:none;stroke-dashoffset:0;stroke-opacity:1;enable-background:new" id="path4636" d="m 326.49996,187.49996 c 5.72879,0 11.00005,7.6e-4 11.00005,7.6e-4 l 3e-5,5.99932 h -11.00008 z"/><path id="path4638" d="m 326,187 h 12 v 1 h -12 z" style="color:#000;display:inline;overflow:visible;visibility:visible;opacity:.15;fill:#000;fill-opacity:1;fill-rule:nonzero;stroke:none;stroke-width:1;marker:none;enable-background:accumulate"/><path id="path4670" d="m 324,222 7.99997,5.6e-4 L 332,226.5 h -8 z" style="display:inline;fill:#f9f9f9;fill-opacity:1;stroke:none;enable-background:new"/><path id="path4672" d="m 323.49996,221.49994 9.00005,0.003 3e-5,4.9975 h -9.00008 z" style="display:inline;opacity:.3;fill:none;stroke:#000;stroke-width:.99992174;stroke-linecap:butt;stroke-linejoin:round;stroke-miterlimit:4;stroke-dasharray:none;stroke-dashoffset:0;stroke-opacity:1;enable-background:new"/><path style="color:#000;display:inline;overflow:visible;visibility:visible;opacity:.3;fill:url(#linearGradient5754);fill-opacity:1;fill-rule:nonzero;stroke:none;stroke-width:1;marker:none;enable-background:accumulate" id="path4674" d="m 323,223 h 10 v 4 h -10 z"/><path style="color:#000;display:inline;overflow:visible;visibility:visible;opacity:1;fill:url(#linearGradient5756);fill-opacity:1;fill-rule:nonzero;stroke:#4f555d;stroke-width:.99999994;stroke-linejoin:round;stroke-miterlimit:4;stroke-dasharray:none;stroke-opacity:.875;marker:none;enable-background:accumulate" id="path4676" d="m 335.52437,226.45456 -0.0244,6.09089 c 0,0 0,0.95455 -0.97561,0.95455 H 321.47561 C 320.5,233.5 320.5,232.54546 320.5,232.54546 l 0.0244,-6.0909 C 320.52439,225.5 321.5,225.5 321.5,225.5 h 13.04876 c 0,0 0.97561,0 0.97561,0.95456 z"/><path id="path4678" d="m 334.5,226.5 v 6 h -13 v -6 z" style="display:inline;opacity:.25;fill:none;stroke:url(#linearGradient5758);stroke-width:.99999994;stroke-linecap:round;stroke-linejoin:round;stroke-miterlimit:4;stroke-dasharray:none;stroke-dashoffset:0;stroke-opacity:1;enable-background:new"/><path id="path4680" d="m 324,230.5 c 5.49962,0 7.99997,9.1e-4 7.99997,9.1e-4 L 332,235 h -8 z" style="display:inline;fill:#f9f9f9;fill-opacity:1;stroke:none;enable-background:new"/><path id="path4682" d="m 323.49996,230.49996 c 5.72879,0 9.00005,7.6e-4 9.00005,7.6e-4 l 3e-5,4.99932 h -9.00008 z" style="display:inline;opacity:.3;fill:none;stroke:#000;stroke-width:.99992174;stroke-linecap:butt;stroke-linejoin:round;stroke-miterlimit:4;stroke-dasharray:none;stroke-dashoffset:0;stroke-opacity:1;enable-background:new"/><path style="color:#000;display:inline;overflow:visible;visibility:visible;opacity:.15;fill:#000;fill-opacity:1;fill-rule:nonzero;stroke:none;stroke-width:1;marker:none;enable-background:accumulate" id="path4684" d="m 323,230 h 10 v 1 h -10 z"/><path id="path4692" d="m 339,183 h 1 v 1 h -1 z" style="color:#000;display:inline;overflow:visible;visibility:visible;fill:#c5e2f6;fill-opacity:1;fill-rule:nonzero;stroke:none;stroke-width:1;marker:none;enable-background:accumulate"/><path style="color:#000;display:inline;overflow:visible;visibility:visible;fill:#c5e2f6;fill-opacity:1;fill-rule:nonzero;stroke:none;stroke-width:1;marker:none;enable-background:accumulate" id="path4694" d="m 333,227 h 1 v 1 h -1 z"/><path style="color:#000;display:inline;overflow:visible;visibility:visible;opacity:.5;fill:url(#linearGradient5760);fill-opacity:1;fill-rule:nonzero;stroke:none;stroke-width:1;marker:none;enable-background:accumulate" id="path5416" d="m 330,75 h 28 v -3 h -28 z"/></g><path id="path4708" d="M 96,180 223.99977,180.004 224,252 H 96 Z" style="display:inline;fill:#f9f9f9;fill-opacity:1;stroke:none;stroke-width:.99999994;enable-background:new"/><path id="path4711" d="m 96,185 h 128 v -5 H 96 Z" style="color:#000;display:inline;overflow:visible;visibility:visible;opacity:.5;fill:url(#linearGradient5066);fill-opacity:1;fill-rule:nonzero;stroke:none;stroke-width:1;marker:none;enable-background:accumulate"/><path style="display:inline;opacity:.1;fill:#000;fill-opacity:1;stroke:none;stroke-width:1;enable-background:new" id="path4715" d="m 108,200 v 4 h 104 v -4 z m 0,12 v 4 h 48 v -4 z m 56,0 v 4 h 20 v -4 z m -56,12 v 4 h 28 v -4 z m 36,0 v 4 h 48 v -4 z m -36,12 v 4 h 104 v -4 z"/><circle style="opacity:1;fill:#c5e2f6;fill-opacity:1;stroke:none;stroke-width:1;stroke-linecap:butt;stroke-linejoin:round;stroke-miterlimit:4;stroke-dasharray:none;stroke-dashoffset:0;stroke-opacity:1" id="path4741" cx="252" cy="128" r="4"/><rect style="opacity:.2;fill:#000;fill-opacity:1;stroke:none;stroke-width:1;stroke-linecap:butt;stroke-linejoin:round;stroke-miterlimit:4;stroke-dasharray:none;stroke-dashoffset:0;stroke-opacity:1" id="rect4752" width="128" height="2" x="96" y="178"/><path style="display:inline;opacity:.1;fill:#000;fill-opacity:1;stroke:none;enable-background:new" id="rect4731" d="m 335,76 v 1 h 18 v -1 z m 0,2 v 1 h 9 v -1 z m 11,0 v 1 h 3 v -1 z m -11,2 v 1 h 4 v -1 z m 5,0 v 1 h 10 v -1 z m -5,2 v 1 h 18 v -1 z"/><path style="display:inline;opacity:.1;fill:#000;fill-opacity:1;stroke:none;enable-background:new" id="path4591" d="m 330,139 v 1 h 12 v -1 z m 0,2 v 1 h 3 v -1 z m 5,0 v 1 h 3 v -1 z m -5,2 v 1 h 4 v -1 z m 5,0 v 1 h 4 v -1 z"/></g></g><g style="display:inline" id="g4876" transform="translate(0,20)"><g style="display:none" id="g4774"><rect id="rect4754" width="24" height="24" x="392" y="172" style="display:inline;overflow:visible;visibility:visible;fill:#eeeeec;fill-opacity:1;fill-rule:nonzero;stroke:none;stroke-width:2;marker:none;enable-background:accumulate"/><rect id="rect4756" width="32" height="32" x="392" y="116" style="display:inline;overflow:visible;visibility:visible;fill:#eeeeec;fill-opacity:1;fill-rule:nonzero;stroke:none;stroke-width:2;marker:none;enable-background:accumulate"/><rect style="display:inline;overflow:visible;visibility:visible;fill:#eeeeec;fill-opacity:1;fill-rule:nonzero;stroke:none;stroke-width:2;marker:none;enable-background:accumulate" id="rect4758" width="22" height="22" x="393" y="173.059"/><rect id="rect4760" width="16" height="16" x="392" y="220" style="display:inline;overflow:visible;visibility:visible;fill:#eeeeec;fill-opacity:1;fill-rule:nonzero;stroke:none;stroke-width:2;marker:none;enable-background:accumulate"/><text id="text4764" x="31.856" y="-65.7" xml:space="preserve" style="font-style:normal;font-variant:normal;font-weight:400;font-stretch:normal;font-size:13.33333302px;line-height:125%;font-family:monospace;-inkscape-font-specification:monospace;text-align:start;writing-mode:lr-tb;text-anchor:start;display:inline;fill:#000;fill-opacity:1;stroke:none;enable-background:new"><tspan style="font-weight:700" id="tspan4762" x="31.856" y="-65.7">status</tspan></text><text style="font-style:normal;font-variant:normal;font-weight:400;font-stretch:normal;font-size:13.33333302px;line-height:125%;font-family:monospace;-inkscape-font-specification:monospace;text-align:start;writing-mode:lr-tb;text-anchor:start;display:inline;fill:#000;fill-opacity:1;stroke:none;enable-background:new" id="text4768" x="31.265" y="-39.901" xml:space="preserve"><tspan id="tspan4766" x="31.265" y="-39.901">printer-error</tspan></text><rect style="display:inline;overflow:visible;visibility:visible;fill:#eeeeec;fill-opacity:1;fill-rule:nonzero;stroke:none;stroke-width:2;marker:none;enable-background:accumulate" id="rect4772" width="48" height="48" x="44" y="392" transform="matrix(0,1,1,0,0,0)"/></g><g style="display:inline" id="g4874"><use style="display:inline;enable-background:new" id="use5282" width="100%" height="100%" x="0" y="0" transform="translate(72)" xlink:href="#g5280"/></g><g id="layer2"><circle id="circle5457" cx="-409.5" cy="-189.5" r="4.5" transform="scale(-1)" style="display:inline;opacity:.9;fill:none;fill-opacity:1;stroke:#90000d;stroke-width:1.99999988;stroke-linecap:round;stroke-linejoin:miter;stroke-miterlimit:4;stroke-dasharray:none;stroke-dashoffset:0;stroke-opacity:1;enable-background:new"/><g id="g5441" transform="matrix(0.91666667,0,0,0.91666667,125.41666,62.999996)" style="display:inline;stroke-width:1.09090912;enable-background:new"><circle id="circle5437" cx="309.909" cy="138" r="4.909" style="display:inline;opacity:1;fill:url(#linearGradient5363);fill-opacity:1;stroke:none;stroke-width:1.090909;stroke-linecap:round;stroke-linejoin:miter;stroke-miterlimit:4;stroke-dasharray:none;stroke-dashoffset:0;stroke-opacity:1;enable-background:new"/><rect id="rect5439" width="7.636" height="1.091" x="306.091" y="137.455" style="display:inline;opacity:1;fill:#fff;fill-opacity:1;stroke:none;stroke-width:1.090909;stroke-linecap:round;stroke-linejoin:miter;stroke-miterlimit:4;stroke-dasharray:none;stroke-dashoffset:0;stroke-opacity:1;enable-background:new"/></g><circle id="circle5453" cx="428" cy="80" r="8" style="display:inline;opacity:.9;fill:none;fill-opacity:1;stroke:#90000d;stroke-width:2;stroke-linecap:round;stroke-linejoin:miter;stroke-miterlimit:4;stroke-dasharray:none;stroke-dashoffset:0;stroke-opacity:1;enable-background:new"/><circle style="display:inline;opacity:1;fill:url(#linearGradient4524);fill-opacity:1;stroke:none;stroke-width:1;stroke-linecap:round;stroke-linejoin:miter;stroke-miterlimit:4;stroke-dasharray:none;stroke-dashoffset:0;stroke-opacity:1;enable-background:new" id="path4510" cx="428" cy="80" r="8"/><rect style="display:inline;opacity:1;fill:#fff;fill-opacity:1;stroke:none;stroke-width:1;stroke-linecap:round;stroke-linejoin:miter;stroke-miterlimit:4;stroke-dasharray:none;stroke-dashoffset:0;stroke-opacity:1;enable-background:new" id="rect4524" width="12" height="2" x="422" y="79"/><circle style="display:inline;opacity:.9;fill:none;fill-opacity:1;stroke:#90000d;stroke-width:1.99999988;stroke-linecap:round;stroke-linejoin:miter;stroke-miterlimit:4;stroke-dasharray:none;stroke-dashoffset:0;stroke-opacity:1;enable-background:new" id="circle5455" cx="417" cy="141" r="6"/><g style="display:inline;enable-background:new" id="g5435" transform="translate(106,3)"><circle style="display:inline;opacity:1;fill:url(#linearGradient5429);fill-opacity:1;stroke:none;stroke-width:.99999994;stroke-linecap:round;stroke-linejoin:miter;stroke-miterlimit:4;stroke-dasharray:none;stroke-dashoffset:0;stroke-opacity:1;enable-background:new" id="circle5425" cx="311" cy="138" r="6"/><rect style="display:inline;opacity:1;fill:#fff;fill-opacity:1;stroke:none;stroke-width:.99999994;stroke-linecap:round;stroke-linejoin:miter;stroke-miterlimit:4;stroke-dasharray:none;stroke-dashoffset:0;stroke-opacity:1;enable-background:new" id="rect5427" width="8" height="2" x="307" y="137"/></g><circle style="display:inline;opacity:.9;fill:none;fill-opacity:1;stroke:#90000d;stroke-width:1.99999964;stroke-linecap:round;stroke-linejoin:miter;stroke-miterlimit:4;stroke-dasharray:none;stroke-dashoffset:0;stroke-opacity:1;enable-background:new" id="circle5459" cx="403.5" cy="231.5" r="3.5"/><g style="display:inline;stroke-width:1.71428573;enable-background:new" id="g5449" transform="matrix(0.58333333,0,0,0.58333333,222.08333,151)"><circle style="display:inline;opacity:1;fill:url(#linearGradient5388);fill-opacity:1;stroke:none;stroke-width:1.71428561;stroke-linecap:round;stroke-linejoin:miter;stroke-miterlimit:4;stroke-dasharray:none;stroke-dashoffset:0;stroke-opacity:1;enable-background:new" id="circle5445" cx="311" cy="138" r="6"/><rect style="display:inline;opacity:1;fill:#fff;fill-opacity:1;stroke:none;stroke-width:1.71428561;stroke-linecap:round;stroke-linejoin:miter;stroke-miterlimit:4;stroke-dasharray:none;stroke-dashoffset:0;stroke-opacity:1;enable-background:new" id="rect5447" width="8.571" height="1.714" x="306.714" y="137.143"/></g></g></g><g id="g5516" transform="translate(0,20)" style="display:inline"><g id="g5478" style="display:none"><rect style="display:inline;overflow:visible;visibility:visible;fill:#eeeeec;fill-opacity:1;fill-rule:nonzero;stroke:none;stroke-width:2;marker:none;enable-background:accumulate" id="rect5460" width="24" height="24" x="464" y="172"/><rect style="display:inline;overflow:visible;visibility:visible;fill:#eeeeec;fill-opacity:1;fill-rule:nonzero;stroke:none;stroke-width:2;marker:none;enable-background:accumulate" id="rect5462" width="32" height="32" x="464" y="116"/><rect id="rect5464" width="22" height="22" x="465" y="173.059" style="display:inline;overflow:visible;visibility:visible;fill:#eeeeec;fill-opacity:1;fill-rule:nonzero;stroke:none;stroke-width:2;marker:none;enable-background:accumulate"/><rect style="display:inline;overflow:visible;visibility:visible;fill:#eeeeec;fill-opacity:1;fill-rule:nonzero;stroke:none;stroke-width:2;marker:none;enable-background:accumulate" id="rect5466" width="16" height="16" x="464" y="220"/><text style="font-style:normal;font-variant:normal;font-weight:400;font-stretch:normal;font-size:13.33333302px;line-height:125%;font-family:monospace;-inkscape-font-specification:monospace;text-align:start;writing-mode:lr-tb;text-anchor:start;display:inline;fill:#000;fill-opacity:1;stroke:none;enable-background:new" id="text5470" x="31.856" y="-65.7" xml:space="preserve"><tspan id="tspan5468" x="31.856" y="-65.7" style="font-weight:700">status</tspan></text><text id="text5474" x="31.265" y="-39.901" xml:space="preserve" style="font-style:normal;font-variant:normal;font-weight:400;font-stretch:normal;font-size:13.33333302px;line-height:125%;font-family:monospace;-inkscape-font-specification:monospace;text-align:start;writing-mode:lr-tb;text-anchor:start;display:inline;fill:#000;fill-opacity:1;stroke:none;enable-background:new"><tspan id="tspan5472" x="31.265" y="-39.901">printer-printing</tspan></text><rect id="rect5476" width="48" height="48" x="44" y="464" transform="matrix(0,1,1,0,0,0)" style="display:inline;overflow:visible;visibility:visible;fill:#eeeeec;fill-opacity:1;fill-rule:nonzero;stroke:none;stroke-width:2;marker:none;enable-background:accumulate"/></g><g id="g5482" style="display:inline"><use id="use5480" width="100%" height="100%" x="0" y="0" transform="translate(144)" xlink:href="#g5280" style="display:inline;enable-background:new"/></g><g id="g5514"><path style="opacity:.5;fill:#007d54;fill-opacity:1;fill-rule:evenodd;stroke:none;stroke-width:1px;stroke-linecap:butt;stroke-linejoin:miter;stroke-opacity:1" id="path5526" d="m 484,73 v 5 h -4 l 8,6 8,-6 h -4 v -5 z"/><path id="path5528" d="m 477,137 v 3 h -3 l 6,5 6,-5 h -3 v -3 z" style="opacity:.5;fill:#007d54;fill-opacity:1;fill-rule:evenodd;stroke:none;stroke-width:1px;stroke-linecap:butt;stroke-linejoin:miter;stroke-opacity:1"/><path style="opacity:.5;fill:#007d54;fill-opacity:1;fill-rule:evenodd;stroke:none;stroke-width:1px;stroke-linecap:butt;stroke-linejoin:miter;stroke-opacity:1" id="path5538" d="m 471,231 v 1 h -1.5 l 2.5,2.5 2.5,-2.5 H 473 v -1 z"/><path style="opacity:.5;fill:#007d54;fill-opacity:1;fill-rule:evenodd;stroke:none;stroke-width:1px;stroke-linecap:butt;stroke-linejoin:miter;stroke-opacity:1" id="path5540" d="m 474,187.5 v 1.5 h -2 l 4,3 4,-3 h -2 v -1.5 z"/></g></g><g style="display:inline" id="g5576" transform="translate(0,20)"><g style="display:none" id="g5560"><rect id="rect5542" width="24" height="24" x="536" y="172" style="display:inline;overflow:visible;visibility:visible;fill:#eeeeec;fill-opacity:1;fill-rule:nonzero;stroke:none;stroke-width:2;marker:none;enable-background:accumulate"/><rect id="rect5544" width="32" height="32" x="536" y="116" style="display:inline;overflow:visible;visibility:visible;fill:#eeeeec;fill-opacity:1;fill-rule:nonzero;stroke:none;stroke-width:2;marker:none;enable-background:accumulate"/><rect style="display:inline;overflow:visible;visibility:visible;fill:#eeeeec;fill-opacity:1;fill-rule:nonzero;stroke:none;stroke-width:2;marker:none;enable-background:accumulate" id="rect5546" width="22" height="22" x="537" y="173.059"/><rect id="rect5548" width="16" height="16" x="536" y="220" style="display:inline;overflow:visible;visibility:visible;fill:#eeeeec;fill-opacity:1;fill-rule:nonzero;stroke:none;stroke-width:2;marker:none;enable-background:accumulate"/><text id="text5552" x="31.856" y="-65.7" xml:space="preserve" style="font-style:normal;font-variant:normal;font-weight:400;font-stretch:normal;font-size:13.33333302px;line-height:125%;font-family:monospace;-inkscape-font-specification:monospace;text-align:start;writing-mode:lr-tb;text-anchor:start;display:inline;fill:#000;fill-opacity:1;stroke:none;enable-background:new"><tspan style="font-weight:700" id="tspan5550" x="31.856" y="-65.7">actions</tspan></text><text style="font-style:normal;font-variant:normal;font-weight:400;font-stretch:normal;font-size:13.33333302px;line-height:125%;font-family:monospace;-inkscape-font-specification:monospace;text-align:start;writing-mode:lr-tb;text-anchor:start;display:inline;fill:#000;fill-opacity:1;stroke:none;enable-background:new" id="text5556" x="31.265" y="-39.901" xml:space="preserve"><tspan id="tspan5554" x="31.265" y="-39.901">document-print</tspan></text><rect style="display:inline;overflow:visible;visibility:visible;fill:#eeeeec;fill-opacity:1;fill-rule:nonzero;stroke:none;stroke-width:2;marker:none;enable-background:accumulate" id="rect5558" width="48" height="48" x="44" y="536" transform="matrix(0,1,1,0,0,0)"/></g><g style="display:inline" id="g5564"><use style="display:inline;enable-background:new" id="use5562" width="100%" height="100%" x="0" y="0" transform="translate(216)" xlink:href="#g5280"/></g></g><g id="g5682" transform="translate(0,20)" style="display:inline"><g id="g5674" style="display:none"><rect style="display:inline;overflow:visible;visibility:visible;fill:#eeeeec;fill-opacity:1;fill-rule:nonzero;stroke:none;stroke-width:2;marker:none;enable-background:accumulate" id="rect5656" width="24" height="24" x="608" y="172"/><rect style="display:inline;overflow:visible;visibility:visible;fill:#eeeeec;fill-opacity:1;fill-rule:nonzero;stroke:none;stroke-width:2;marker:none;enable-background:accumulate" id="rect5658" width="32" height="32" x="608" y="116"/><rect id="rect5660" width="22" height="22" x="609" y="173.059" style="display:inline;overflow:visible;visibility:visible;fill:#eeeeec;fill-opacity:1;fill-rule:nonzero;stroke:none;stroke-width:2;marker:none;enable-background:accumulate"/><rect style="display:inline;overflow:visible;visibility:visible;fill:#eeeeec;fill-opacity:1;fill-rule:nonzero;stroke:none;stroke-width:2;marker:none;enable-background:accumulate" id="rect5662" width="16" height="16" x="608" y="220"/><text style="font-style:normal;font-variant:normal;font-weight:400;font-stretch:normal;font-size:13.33333302px;line-height:125%;font-family:monospace;-inkscape-font-specification:monospace;text-align:start;writing-mode:lr-tb;text-anchor:start;display:inline;fill:#000;fill-opacity:1;stroke:none;enable-background:new" id="text5666" x="31.856" y="-65.7" xml:space="preserve"><tspan id="tspan5664" x="31.856" y="-65.7" style="font-weight:700">devices</tspan></text><text id="text5670" x="31.265" y="-39.901" xml:space="preserve" style="font-style:normal;font-variant:normal;font-weight:400;font-stretch:normal;font-size:13.33333302px;line-height:125%;font-family:monospace;-inkscape-font-specification:monospace;text-align:start;writing-mode:lr-tb;text-anchor:start;display:inline;fill:#000;fill-opacity:1;stroke:none;enable-background:new"><tspan id="tspan5668" x="31.265" y="-39.901">gnome-dev-printer-new</tspan></text><rect id="rect5672" width="48" height="48" x="44" y="608" transform="matrix(0,1,1,0,0,0)" style="display:inline;overflow:visible;visibility:visible;fill:#eeeeec;fill-opacity:1;fill-rule:nonzero;stroke:none;stroke-width:2;marker:none;enable-background:accumulate"/></g><g id="g5678" style="display:inline"><use id="use5676" width="100%" height="100%" x="0" y="0" transform="translate(288)" xlink:href="#g5280" style="display:inline;enable-background:new"/></g><g id="g5680"><path id="path5325" d="m 643.5,72.5 v 6 h -6 v 4 h 6 v 6 h 4 v -6 h 6 v -4 h -6 v -6 z" style="display:inline;opacity:.1;fill:#000;fill-opacity:1;stroke:#000;stroke-width:1;stroke-linecap:round;stroke-linejoin:round;stroke-miterlimit:4;stroke-dasharray:none;stroke-dashoffset:0;stroke-opacity:1;enable-background:new"/><path style="display:inline;opacity:1;fill:#3caf85;fill-opacity:1;stroke:#007d54;stroke-width:1;stroke-linecap:round;stroke-linejoin:round;stroke-miterlimit:4;stroke-dasharray:none;stroke-dashoffset:0;stroke-opacity:1;enable-background:new" id="rect5307" d="m 619.5,229.5 v 2 h -2 v 2 h 2 v 2 h 2 v -2 h 2 v -2 h -2 v -2 z"/><path id="path5313" d="m 632.5,136.5 v 4 h -4 v 3 h 4 v 4 h 3 v -4 h 4 v -3 h -4 v -4 z" style="display:inline;opacity:1;fill:#3caf85;fill-opacity:1;stroke:#007d54;stroke-width:1;stroke-linecap:round;stroke-linejoin:round;stroke-miterlimit:4;stroke-dasharray:none;stroke-dashoffset:0;stroke-opacity:1;enable-background:new"/><path id="path5315" d="m 625.5,186.5 v 3 h -3 v 2 h 3 v 3 h 2 v -3 h 3 v -2 h -3 v -3 z" style="display:inline;opacity:1;fill:#3caf85;fill-opacity:1;stroke:#007d54;stroke-width:1;stroke-linecap:round;stroke-linejoin:round;stroke-miterlimit:4;stroke-dasharray:none;stroke-dashoffset:0;stroke-opacity:1;enable-background:new"/><path style="display:inline;opacity:1;fill:#3caf85;fill-opacity:1;stroke:#007d54;stroke-width:1;stroke-linecap:round;stroke-linejoin:round;stroke-miterlimit:4;stroke-dasharray:none;stroke-dashoffset:0;stroke-opacity:1;enable-background:new" id="path5317" d="m 643.5,71.5 v 6 h -6 v 4 h 6 v 6 h 4 v -6 h 6 v -4 h -6 v -6 z"/><rect style="display:inline;opacity:.2;fill:#fff;fill-opacity:1;stroke:none;stroke-width:1;stroke-linecap:round;stroke-linejoin:round;stroke-miterlimit:4;stroke-dasharray:none;stroke-dashoffset:0;stroke-opacity:1;enable-background:new" id="rect5319" width="6" height="1" x="638" y="78"/><rect id="rect5321" width="6" height="1" x="647" y="78" style="display:inline;opacity:.2;fill:#fff;fill-opacity:1;stroke:none;stroke-width:1;stroke-linecap:round;stroke-linejoin:round;stroke-miterlimit:4;stroke-dasharray:none;stroke-dashoffset:0;stroke-opacity:1;enable-background:new"/><rect id="rect5323" width="3" height="1" x="644" y="72" style="display:inline;opacity:.2;fill:#fff;fill-opacity:1;stroke:none;stroke-width:1;stroke-linecap:round;stroke-linejoin:round;stroke-miterlimit:4;stroke-dasharray:none;stroke-dashoffset:0;stroke-opacity:1;enable-background:new"/><rect style="display:inline;opacity:.2;fill:#fff;fill-opacity:1;stroke:none;stroke-width:1;stroke-linecap:round;stroke-linejoin:round;stroke-miterlimit:4;stroke-dasharray:none;stroke-dashoffset:0;stroke-opacity:1;enable-background:new" id="rect5395" width="4" height="1" x="635" y="141"/><rect style="display:inline;opacity:.2;fill:#fff;fill-opacity:1;stroke:none;stroke-width:1;stroke-linecap:round;stroke-linejoin:round;stroke-miterlimit:4;stroke-dasharray:none;stroke-dashoffset:0;stroke-opacity:1;enable-background:new" id="rect5397" width="2" height="1" x="633" y="137"/><rect id="rect5399" width="4" height="1" x="629" y="141" style="display:inline;opacity:.2;fill:#fff;fill-opacity:1;stroke:none;stroke-width:1;stroke-linecap:round;stroke-linejoin:round;stroke-miterlimit:4;stroke-dasharray:none;stroke-dashoffset:0;stroke-opacity:1;enable-background:new"/><path style="display:inline;opacity:.2;fill:none;fill-rule:evenodd;stroke:#fff;stroke-width:1px;stroke-linecap:butt;stroke-linejoin:miter;stroke-opacity:1;enable-background:new" id="path4898-7" d="m 623,190.5 h 3"/><path style="display:inline;opacity:.2;fill:none;fill-rule:evenodd;stroke:#fff;stroke-width:1px;stroke-linecap:butt;stroke-linejoin:miter;stroke-opacity:1;enable-background:new" id="path4901" d="m 626,187.5 h 1"/><path style="display:inline;opacity:.2;fill:none;fill-rule:evenodd;stroke:#fff;stroke-width:1px;stroke-linecap:butt;stroke-linejoin:miter;stroke-opacity:1;enable-background:new" id="path4903" d="m 627,190.5 h 3"/></g></g></svg>