<svg xmlns="http://www.w3.org/2000/svg" xmlns:svg="http://www.w3.org/2000/svg" xmlns:xlink="http://www.w3.org/1999/xlink" id="svg11300" width="800" height="320" version="1.0" viewBox="0 0 800 320" style="display:inline;enable-background:new"><title id="title4162">Solus Icon Template</title><defs id="defs3"><linearGradient id="linearGradient4593"><stop style="stop-color:#fff;stop-opacity:1" id="stop4589" offset="0"/><stop style="stop-color:#fff;stop-opacity:0" id="stop4591" offset="1"/></linearGradient><linearGradient id="linearGradient4521" x1="340" x2="340" y1="196" y2="172" gradientUnits="userSpaceOnUse" xlink:href="#linearGradient4568-3"/><linearGradient id="linearGradient4523" x1="360" x2="360" y1="92" y2="44" gradientUnits="userSpaceOnUse" xlink:href="#linearGradient4568-3"/><linearGradient id="linearGradient4525" x1="344" x2="344" y1="148" y2="116" gradientUnits="userSpaceOnUse" xlink:href="#linearGradient4568-3"/><linearGradient id="linearGradient4527" x1="336" x2="336" y1="236" y2="220" gradientUnits="userSpaceOnUse" xlink:href="#linearGradient4568-3"/><linearGradient id="linearGradient4529" x1="200" x2="200" y1="260" y2="28" gradientUnits="userSpaceOnUse" xlink:href="#linearGradient4568-3"/><linearGradient id="linearGradient4568"><stop style="stop-color:#f9c000;stop-opacity:1" id="stop4564" offset="0"/><stop style="stop-color:#fbce4a;stop-opacity:1" id="stop4566" offset="1"/></linearGradient><clipPath id="clipPath4583" clipPathUnits="userSpaceOnUse"><path id="path4585" d="M 344,46.15625 C 341.78665,48.34034 339.66794,50.82699 337.42871,53 H 329 v 8.4287 c -2.17331,2.23929 -4.65936,4.35787 -6.84375,6.5713 2.18417,2.2134 4.67062,4.41598 6.84375,6.6621 V 83 h 8.42871 c 2.2393,2.17326 4.35787,4.65935 6.57129,6.84375 2.21342,-2.18417 4.41598,-4.67067 6.66212,-6.84375 H 359 V 74.65916 C 361.17321,72.41336 363.65954,70.21322 365.84375,68 363.65955,65.78654 361.17315,63.66813 359,61.4287 V 53 h -8.33788 C 348.4161,50.82674 346.21332,48.34052 344,46.15625 Z" style="display:inline;fill:url(#linearGradient4587);fill-opacity:1;stroke:none;enable-background:new"/></clipPath><linearGradient id="linearGradient4587" x1="360" x2="360" y1="92" y2="44" gradientUnits="userSpaceOnUse" xlink:href="#linearGradient4568"/><linearGradient id="linearGradient4595" x1="322.156" x2="344" y1="68" y2="68" gradientUnits="userSpaceOnUse" xlink:href="#linearGradient4593"/><clipPath id="clipPath4603" clipPathUnits="userSpaceOnUse"><path style="display:inline;fill:url(#linearGradient4607);fill-opacity:1;stroke:none;enable-background:new" id="path4605" d="m 336,117.4375 c -1.47557,1.45608 -2.88804,3.11383 -4.38086,4.5625 H 326 v 5.61914 c -1.44888,1.49286 -3.10624,2.90526 -4.5625,4.38086 1.45611,1.47562 3.11374,2.94399 4.5625,4.44141 V 142 h 5.61914 c 1.49286,1.44884 2.90525,3.10624 4.38086,4.5625 1.47561,-1.4561 2.94399,-3.11378 4.44141,-4.5625 h 5.5586 v -5.56055 c 1.4488,-1.49721 3.10636,-2.96395 4.56249,-4.43945 -1.45612,-1.47563 -3.11372,-2.88791 -4.56249,-4.38086 V 122 h -5.5586 c -1.49734,-1.44882 -2.96587,-3.10631 -4.44141,-4.5625 z"/></clipPath><linearGradient id="linearGradient4607" x1="344" x2="344" y1="148" y2="116" gradientUnits="userSpaceOnUse" xlink:href="#linearGradient4568"/><linearGradient id="linearGradient4615" x1="321.438" x2="336" y1="132" y2="132" gradientUnits="userSpaceOnUse" xlink:href="#linearGradient4593"/><clipPath id="clipPath4623" clipPathUnits="userSpaceOnUse"><path id="path4625" d="M 332,172.68556 328.68555,176 H 324 v 4.68556 L 320.68555,184 324,187.31445 V 192 h 4.68555 L 332,195.31445 335.31445,192 H 340 v -4.68555 L 343.31445,184 340,180.68556 V 176 h -4.68555 z" style="display:inline;opacity:1;fill:url(#linearGradient4627);fill-opacity:1;stroke:none;stroke-width:6;stroke-linejoin:round;stroke-miterlimit:4;stroke-dasharray:none;stroke-opacity:1;enable-background:new"/></clipPath><linearGradient id="linearGradient4627" x1="340" x2="340" y1="196" y2="172" gradientUnits="userSpaceOnUse" xlink:href="#linearGradient4568"/><linearGradient id="linearGradient4635" x1="320.686" x2="332" y1="184" y2="184" gradientUnits="userSpaceOnUse" xlink:href="#linearGradient4593"/><filter style="color-interpolation-filters:sRGB" id="filter4681" width="1.024" height="1.024" x="-.012" y="-.012"><feGaussianBlur id="feGaussianBlur4683" stdDeviation="1.165"/></filter><filter style="color-interpolation-filters:sRGB" id="filter4687" width="1.12" height="1.12" x="-.06" y="-.06"><feGaussianBlur id="feGaussianBlur4689" stdDeviation="5.825"/></filter><clipPath id="clipPath4706" clipPathUnits="userSpaceOnUse"><path id="path4708" d="m 328,220.71875 c -0.73779,0.72803 -1.44403,1.55691 -2.19043,2.28125 H 323 v 2.80957 c -0.72445,0.74643 -1.55313,1.45263 -2.28125,2.19043 0.72805,0.7378 1.55687,1.47199 2.28125,2.2207 V 233 h 2.80957 c 0.74642,0.72442 1.45262,1.55312 2.19043,2.28125 0.7378,-0.72805 1.47199,-1.55688 2.2207,-2.28125 H 333 v -2.78028 c 0.7244,-0.74859 1.55317,-1.48197 2.28125,-2.21972 -0.72807,-0.73781 -1.55687,-1.44395 -2.28125,-2.19043 V 223 h -2.7793 c -0.74867,-0.72442 -1.48294,-1.55316 -2.2207,-2.28125 z" style="display:inline;fill:url(#linearGradient4710);fill-opacity:1;stroke:none;enable-background:new"/></clipPath><linearGradient id="linearGradient4710" x1="336" x2="336" y1="236" y2="220" gradientUnits="userSpaceOnUse" xlink:href="#linearGradient4568"/><linearGradient id="linearGradient4718" x1="320.719" x2="328" y1="228" y2="228" gradientUnits="userSpaceOnUse" xlink:href="#linearGradient4593"/><linearGradient id="linearGradient4834" x1="320.719" x2="328" y1="228" y2="228" gradientUnits="userSpaceOnUse" xlink:href="#linearGradient4593"/><linearGradient id="linearGradient4836" x1="320.686" x2="336" y1="184" y2="184" gradientUnits="userSpaceOnUse" xlink:href="#linearGradient4593"/><linearGradient id="linearGradient4838" x1="321.438" x2="340" y1="132" y2="132" gradientUnits="userSpaceOnUse" xlink:href="#linearGradient4593"/><linearGradient id="linearGradient4840" x1="322.156" x2="344" y1="68" y2="68" gradientUnits="userSpaceOnUse" xlink:href="#linearGradient4593"/><linearGradient id="linearGradient4842" x1="200" x2="200" y1="260" y2="28" gradientTransform="translate(400.00002)" gradientUnits="userSpaceOnUse" xlink:href="#linearGradient4568"/><linearGradient id="linearGradient4844" x1="336" x2="336" y1="236" y2="220" gradientTransform="translate(400.00002)" gradientUnits="userSpaceOnUse" xlink:href="#linearGradient4568"/><linearGradient id="linearGradient4846" x1="344" x2="344" y1="148" y2="116" gradientTransform="translate(400.00002)" gradientUnits="userSpaceOnUse" xlink:href="#linearGradient4568"/><linearGradient id="linearGradient4848" x1="360" x2="360" y1="92" y2="44" gradientTransform="translate(400.00002)" gradientUnits="userSpaceOnUse" xlink:href="#linearGradient4568"/><linearGradient id="linearGradient4850" x1="340" x2="340" y1="196" y2="172" gradientTransform="translate(400.00002)" gradientUnits="userSpaceOnUse" xlink:href="#linearGradient4568"/><linearGradient id="linearGradient4568-3"><stop style="stop-color:#e40004;stop-opacity:1" id="stop4564-7" offset="0"/><stop style="stop-color:#e95800;stop-opacity:1" id="stop4566-6" offset="1"/></linearGradient></defs><metadata id="metadata4"/><g id="layer1" transform="translate(0,20)" style="display:inline"><g id="layer7" style="display:none"><rect style="display:inline;overflow:visible;visibility:visible;fill:#eeeeec;fill-opacity:1;fill-rule:nonzero;stroke:none;stroke-width:2;marker:none;enable-background:accumulate" id="rect6592" width="32" height="32" x="320" y="116"/><rect id="rect6749" width="22" height="22" x="321" y="173.059" style="display:inline;overflow:visible;visibility:visible;fill:#eeeeec;fill-opacity:1;fill-rule:nonzero;stroke:none;stroke-width:2;marker:none;enable-background:accumulate"/><rect style="display:inline;overflow:visible;visibility:visible;fill:#eeeeec;fill-opacity:1;fill-rule:nonzero;stroke:none;stroke-width:2;marker:none;enable-background:accumulate" id="rect6833" width="16" height="16" x="320" y="220"/><rect style="display:inline;overflow:visible;visibility:visible;fill:#eeeeec;fill-opacity:1;fill-rule:nonzero;stroke:none;stroke-width:2;marker:none;enable-background:accumulate" id="rect8104" width="24" height="24" x="320" y="172"/><text style="font-style:normal;font-variant:normal;font-weight:400;font-stretch:normal;font-size:13.33333302px;line-height:125%;font-family:monospace;-inkscape-font-specification:monospace;text-align:start;writing-mode:lr-tb;text-anchor:start;display:inline;fill:#000;fill-opacity:1;stroke:none;enable-background:new" id="context" x="31.856" y="-65.7" xml:space="preserve"><tspan id="tspan2716" x="31.856" y="-65.7" style="font-weight:700">status</tspan></text><text id="text3021" x="31.265" y="-39.901" xml:space="preserve" style="font-style:normal;font-variant:normal;font-weight:400;font-stretch:normal;font-size:13.33333302px;line-height:125%;font-family:monospace;-inkscape-font-specification:monospace;text-align:start;writing-mode:lr-tb;text-anchor:start;display:inline;fill:#000;fill-opacity:1;stroke:none;enable-background:new"><tspan id="tspan3023" x="31.265" y="-39.901">software-update-urgent</tspan></text><rect style="display:inline;overflow:visible;visibility:visible;fill:#eeeeec;fill-opacity:1;fill-rule:nonzero;stroke:none;stroke-width:1.99999976;marker:none;enable-background:accumulate" id="rect13805" width="256" height="256" x="32" y="12"/><rect id="rect6284" width="48" height="48" x="44" y="320" transform="matrix(0,1,1,0,0,0)" style="display:inline;overflow:visible;visibility:visible;fill:#eeeeec;fill-opacity:1;fill-rule:nonzero;stroke:none;stroke-width:2;marker:none;enable-background:accumulate"/></g><g id="layer9" style="display:inline"><path id="path4637" d="M 332,173.68556 328.68555,177 H 324 v 4.68556 L 320.68555,185 324,188.31445 V 193 h 4.68555 L 332,196.31445 335.31445,193 H 340 v -4.68555 L 343.31445,185 340,181.68556 V 177 h -4.68555 z" style="display:inline;opacity:.5;fill:#000;fill-opacity:1;stroke:none;stroke-width:6;stroke-linejoin:round;stroke-miterlimit:4;stroke-dasharray:none;stroke-opacity:1;enable-background:new"/><path id="path4639" d="M 344,47.15625 C 341.78665,49.34034 339.66794,51.82699 337.42871,54 H 329 v 8.4287 c -2.17331,2.23929 -4.65936,4.35787 -6.84375,6.5713 2.18417,2.2134 4.67062,4.41598 6.84375,6.6621 V 84 h 8.42871 c 2.2393,2.17326 4.35787,4.65935 6.57129,6.84375 2.21342,-2.18417 4.41598,-4.67067 6.66212,-6.84375 H 359 V 75.65916 C 361.17321,73.41336 363.65954,71.21322 365.84375,69 363.65955,66.78654 361.17315,64.66813 359,62.4287 V 54 h -8.33788 C 348.4161,51.82674 346.21332,49.34052 344,47.15625 Z" style="display:inline;fill:#000;fill-opacity:1;stroke:none;enable-background:new;opacity:.5"/><path style="display:inline;fill:#000;fill-opacity:1;stroke:none;enable-background:new;opacity:.5" id="path4642" d="m 336,118.4375 c -1.47557,1.45608 -2.88804,3.11383 -4.38086,4.5625 H 326 v 5.61914 c -1.44888,1.49286 -3.10624,2.90526 -4.5625,4.38086 1.45611,1.47562 3.11374,2.94399 4.5625,4.44141 V 143 h 5.61914 c 1.49286,1.44884 2.90525,3.10624 4.38086,4.5625 1.47561,-1.4561 2.94399,-3.11378 4.44141,-4.5625 h 5.5586 v -5.56055 c 1.4488,-1.49721 3.10636,-2.96395 4.56249,-4.43945 -1.45612,-1.47563 -3.11372,-2.88791 -4.56249,-4.38086 V 123 h -5.5586 c -1.49734,-1.44882 -2.96587,-3.10631 -4.44141,-4.5625 z"/><path id="path4644" d="m 328,221.71875 c -0.73779,0.72803 -1.44403,1.55691 -2.19043,2.28125 H 323 v 2.80957 c -0.72445,0.74643 -1.55313,1.45263 -2.28125,2.19043 0.72805,0.7378 1.55687,1.47199 2.28125,2.2207 V 234 h 2.80957 c 0.74642,0.72442 1.45262,1.55312 2.19043,2.28125 0.7378,-0.72805 1.47199,-1.55688 2.2207,-2.28125 H 333 v -2.78028 c 0.7244,-0.74859 1.55317,-1.48197 2.28125,-2.21972 -0.72807,-0.73781 -1.55687,-1.44395 -2.28125,-2.19043 V 224 h -2.7793 c -0.74867,-0.72442 -1.48294,-1.55316 -2.2207,-2.28125 z" style="display:inline;fill:#000;fill-opacity:1;stroke:none;enable-background:new;opacity:.5"/><path id="path4569" d="M 332,172.68556 328.68555,176 H 324 v 4.68556 L 320.68555,184 324,187.31445 V 192 h 4.68555 L 332,195.31445 335.31445,192 H 340 v -4.68555 L 343.31445,184 340,180.68556 V 176 h -4.68555 z" style="display:inline;opacity:.8;fill:none;fill-opacity:1;stroke:#891f00;stroke-width:2;stroke-linejoin:round;stroke-miterlimit:4;stroke-dasharray:none;stroke-opacity:1;enable-background:new"/><path id="path4571" d="M 344,46.15625 C 341.78665,48.34034 339.66794,50.82699 337.42871,53 H 329 v 8.4287 c -2.17331,2.23929 -4.65936,4.35787 -6.84375,6.5713 2.18417,2.2134 4.67062,4.41598 6.84375,6.6621 V 83 h 8.42871 c 2.2393,2.17326 4.35787,4.65935 6.57129,6.84375 2.21342,-2.18417 4.41598,-4.67067 6.66212,-6.84375 H 359 V 74.65916 C 361.17321,72.41336 363.65954,70.21322 365.84375,68 363.65955,65.78654 361.17315,63.66813 359,61.4287 V 53 h -8.33788 C 348.4161,50.82674 346.21332,48.34052 344,46.15625 Z" style="display:inline;opacity:.8;fill:none;fill-opacity:1;stroke:#891f00;stroke-width:2;stroke-linejoin:round;stroke-miterlimit:4;stroke-dasharray:none;stroke-opacity:1;enable-background:new"/><path style="display:inline;opacity:.8;fill:none;fill-opacity:1;stroke:#891f00;stroke-width:2;stroke-linejoin:round;stroke-miterlimit:4;stroke-dasharray:none;stroke-opacity:1;enable-background:new" id="path4573" d="m 336,117.4375 c -1.47557,1.45608 -2.88804,3.11383 -4.38086,4.5625 H 326 v 5.61914 c -1.44888,1.49286 -3.10624,2.90526 -4.5625,4.38086 1.45611,1.47562 3.11374,2.94399 4.5625,4.44141 V 142 h 5.61914 c 1.49286,1.44884 2.90525,3.10624 4.38086,4.5625 1.47561,-1.4561 2.94399,-3.11378 4.44141,-4.5625 h 5.5586 v -5.56055 c 1.4488,-1.49721 3.10636,-2.96395 4.56249,-4.43945 -1.45612,-1.47563 -3.11372,-2.88791 -4.56249,-4.38086 V 122 h -5.5586 c -1.49734,-1.44882 -2.96587,-3.10631 -4.44141,-4.5625 z"/><path id="path4575" d="m 328,220.71875 c -0.73779,0.72803 -1.44403,1.55691 -2.19043,2.28125 H 323 v 2.80957 c -0.72445,0.74643 -1.55313,1.45263 -2.28125,2.19043 0.72805,0.7378 1.55687,1.47199 2.28125,2.2207 V 233 h 2.80957 c 0.74642,0.72442 1.45262,1.55312 2.19043,2.28125 0.7378,-0.72805 1.47199,-1.55688 2.2207,-2.28125 H 333 v -2.78028 c 0.7244,-0.74859 1.55317,-1.48197 2.28125,-2.21972 -0.72807,-0.73781 -1.55687,-1.44395 -2.28125,-2.19043 V 223 h -2.7793 c -0.74867,-0.72442 -1.48294,-1.55316 -2.2207,-2.28125 z" style="display:inline;opacity:.8;fill:none;fill-opacity:1;stroke:#891f00;stroke-width:2;stroke-linejoin:round;stroke-miterlimit:4;stroke-dasharray:none;stroke-opacity:1;enable-background:new"/><path style="display:inline;opacity:.2;fill:#000;fill-opacity:1;stroke:none;stroke-width:1;filter:url(#filter4687);enable-background:new" id="path4685" d="m 159.99998,24.500042 c -11.80457,11.64856 -23.10432,24.91064 -35.04684,36.5 H 79.999984 v 44.953118 c -11.59104,11.94288 -24.84992,23.242 -36.5,35.04688 11.64892,11.80488 24.90996,23.55192 36.5,35.53128 v 44.46872 h 44.953156 c 11.94283,11.59072 23.24196,24.84992 35.04684,36.5 11.80488,-11.64888 23.55192,-24.91024 35.53128,-36.5 h 44.46872 v -44.4844 c 11.5904,-11.97767 24.85091,-23.71168 36.50004,-35.5156 C 264.85098,129.195 251.59013,117.89676 239.99998,105.95316 V 61.000042 h -44.46873 c -11.97871,-11.59064 -23.72696,-24.85048 -35.53127,-36.5 z"/><path id="path4665" d="m 159.99998,24.500042 c -11.80457,11.64856 -23.10432,24.91064 -35.04684,36.5 H 79.999984 v 44.953118 c -11.59104,11.94288 -24.84992,23.242 -36.5,35.04688 11.64892,11.80488 24.90996,23.55192 36.5,35.53128 v 44.46872 h 44.953156 c 11.94283,11.59072 23.24196,24.84992 35.04684,36.5 11.80488,-11.64888 23.55192,-24.91024 35.53128,-36.5 h 44.46872 v -44.4844 c 11.5904,-11.97767 24.85091,-23.71168 36.50004,-35.5156 C 264.85098,129.195 251.59013,117.89676 239.99998,105.95316 V 61.000042 h -44.46873 c -11.97871,-11.59064 -23.72696,-24.85048 -35.53127,-36.5 z" style="display:inline;opacity:.5;fill:#000;fill-opacity:1;stroke:none;stroke-width:1;filter:url(#filter4681);enable-background:new"/><path style="display:inline;opacity:1;fill:url(#linearGradient4521);fill-opacity:1;stroke:none;stroke-width:6;stroke-linejoin:round;stroke-miterlimit:4;stroke-dasharray:none;stroke-opacity:1;enable-background:new" id="rect4479" d="M 332,172.68556 328.68555,176 H 324 v 4.68556 L 320.68555,184 324,187.31445 V 192 h 4.68555 L 332,195.31445 335.31445,192 H 340 v -4.68555 L 343.31445,184 340,180.68556 V 176 h -4.68555 z"/><path style="display:inline;fill:url(#linearGradient4523);fill-opacity:1;stroke:none;enable-background:new" id="path4443" d="M 344,46.15625 C 341.78665,48.34034 339.66794,50.82699 337.42871,53 H 329 v 8.4287 c -2.17331,2.23929 -4.65936,4.35787 -6.84375,6.5713 2.18417,2.2134 4.67062,4.41598 6.84375,6.6621 V 83 h 8.42871 c 2.2393,2.17326 4.35787,4.65935 6.57129,6.84375 2.21342,-2.18417 4.41598,-4.67067 6.66212,-6.84375 H 359 V 74.65916 C 361.17321,72.41336 363.65954,70.21322 365.84375,68 363.65955,65.78654 361.17315,63.66813 359,61.4287 V 53 h -8.33788 C 348.4161,50.82674 346.21332,48.34052 344,46.15625 Z"/><path id="rect3762" d="m 336,117.4375 c -1.47557,1.45608 -2.88804,3.11383 -4.38086,4.5625 H 326 v 5.61914 c -1.44888,1.49286 -3.10624,2.90526 -4.5625,4.38086 1.45611,1.47562 3.11374,2.94399 4.5625,4.44141 V 142 h 5.61914 c 1.49286,1.44884 2.90525,3.10624 4.38086,4.5625 1.47561,-1.4561 2.94399,-3.11378 4.44141,-4.5625 h 5.5586 v -5.56055 c 1.4488,-1.49721 3.10636,-2.96395 4.56249,-4.43945 -1.45612,-1.47563 -3.11372,-2.88791 -4.56249,-4.38086 V 122 h -5.5586 c -1.49734,-1.44882 -2.96587,-3.10631 -4.44141,-4.5625 z" style="display:inline;fill:url(#linearGradient4525);fill-opacity:1;stroke:none;enable-background:new"/><path style="display:inline;fill:url(#linearGradient4527);fill-opacity:1;stroke:none;enable-background:new" id="path4467" d="m 328,220.71875 c -0.73779,0.72803 -1.44403,1.55691 -2.19043,2.28125 H 323 v 2.80957 c -0.72445,0.74643 -1.55313,1.45263 -2.28125,2.19043 0.72805,0.7378 1.55687,1.47199 2.28125,2.2207 V 233 h 2.80957 c 0.74642,0.72442 1.45262,1.55312 2.19043,2.28125 0.7378,-0.72805 1.47199,-1.55688 2.2207,-2.28125 H 333 v -2.78028 c 0.7244,-0.74859 1.55317,-1.48197 2.28125,-2.21972 -0.72807,-0.73781 -1.55687,-1.44395 -2.28125,-2.19043 V 223 h -2.7793 c -0.74867,-0.72442 -1.48294,-1.55316 -2.2207,-2.28125 z"/><path style="display:inline;fill:url(#linearGradient4529);fill-opacity:1;stroke:none;stroke-width:1;enable-background:new" id="path4435" d="m 159.99998,23.500042 c -11.80457,11.64856 -23.10432,24.91064 -35.04684,36.5 H 79.999984 v 44.953118 c -11.59104,11.94288 -24.84992,23.242 -36.5,35.04688 11.64892,11.80488 24.90996,23.55192 36.5,35.53128 v 44.46872 h 44.953156 c 11.94283,11.59072 23.24196,24.84992 35.04684,36.5 11.80488,-11.64888 23.55192,-24.91024 35.53128,-36.5 h 44.46872 v -44.4844 c 11.5904,-11.97767 24.85091,-23.71168 36.50004,-35.5156 C 264.85098,128.195 251.59013,116.89676 239.99998,104.95316 V 60.000042 h -44.46873 c -11.97871,-11.59064 -23.72696,-24.85048 -35.53127,-36.5 z"/><path style="display:inline;opacity:.4;fill:none;fill-opacity:1;stroke:url(#linearGradient4595);stroke-width:2;stroke-miterlimit:4;stroke-dasharray:none;stroke-opacity:1;enable-background:new" id="path4577" d="M 344,46.15625 C 341.78665,48.34034 339.66794,50.82699 337.42871,53 H 329 v 8.4287 c -2.17331,2.23929 -4.65936,4.35787 -6.84375,6.5713 2.18417,2.2134 4.67062,4.41598 6.84375,6.6621 V 83 h 8.42871 c 2.2393,2.17326 4.35787,4.65935 6.57129,6.84375 2.21342,-2.18417 4.41598,-4.67067 6.66212,-6.84375 H 359 V 74.65916 C 361.17321,72.41336 363.65954,70.21322 365.84375,68 363.65955,65.78654 361.17315,63.66813 359,61.4287 V 53 h -8.33788 C 348.4161,50.82674 346.21332,48.34052 344,46.15625 Z" clip-path="url(#clipPath4583)" transform="rotate(90,344,68)"/><path id="path4597" d="m 336,117.4375 c -1.47557,1.45608 -2.88804,3.11383 -4.38086,4.5625 H 326 v 5.61914 c -1.44888,1.49286 -3.10624,2.90526 -4.5625,4.38086 1.45611,1.47562 3.11374,2.94399 4.5625,4.44141 V 142 h 5.61914 c 1.49286,1.44884 2.90525,3.10624 4.38086,4.5625 1.47561,-1.4561 2.94399,-3.11378 4.44141,-4.5625 h 5.5586 v -5.56055 c 1.4488,-1.49721 3.10636,-2.96395 4.56249,-4.43945 -1.45612,-1.47563 -3.11372,-2.88791 -4.56249,-4.38086 V 122 h -5.5586 c -1.49734,-1.44882 -2.96587,-3.10631 -4.44141,-4.5625 z" clip-path="url(#clipPath4603)" transform="rotate(90,336,132)" style="display:inline;opacity:.4;fill:none;fill-opacity:1;stroke:url(#linearGradient4615);stroke-width:2;stroke-linejoin:miter;stroke-miterlimit:4;stroke-dasharray:none;stroke-opacity:1;enable-background:new"/><path style="display:inline;opacity:.4;fill:none;fill-opacity:1;stroke:url(#linearGradient4635);stroke-width:2;stroke-linejoin:miter;stroke-miterlimit:4;stroke-dasharray:none;stroke-opacity:1;enable-background:new" id="path4617" d="M 332,172.68556 328.68555,176 H 324 v 4.68556 L 320.68555,184 324,187.31445 V 192 h 4.68555 L 332,195.31445 335.31445,192 H 340 v -4.68555 L 343.31445,184 340,180.68556 V 176 h -4.68555 z" clip-path="url(#clipPath4623)" transform="rotate(90,332,184)"/><path style="display:inline;opacity:.4;fill:#fff;fill-opacity:1;stroke:none;stroke-width:1;enable-background:new" id="path4691" d="M 160,43.5 C 148.19543,55.14856 136.89564,68.41064 124.95312,80 H 80 v 1 h 44.95312 C 136.89564,69.41064 148.19543,56.14856 160,44.5 171.80431,56.14952 183.55254,69.40936 195.53125,81 H 240 V 80 H 195.53125 C 183.55254,68.40936 171.80431,55.14952 160,43.5 Z M 80,124.95312 C 68.40896,136.89601 55.15008,148.19512 43.5,160 c 0.164964,0.16717 0.336352,0.3348 0.501953,0.50195 C 55.531558,148.8778 68.572791,137.7272 80,125.95312 Z m 160,0 v 1 c 11.42633,11.77479 24.46938,22.92455 35.99805,34.54883 0.1656,-0.16713 0.33698,-0.33479 0.50195,-0.50195 -11.64904,-11.80504 -24.90985,-23.10327 -36.5,-35.04688 z" transform="translate(0,-20)"/><path style="display:inline;opacity:.4;fill:none;fill-opacity:1;stroke:url(#linearGradient4718);stroke-width:2;stroke-linejoin:miter;stroke-miterlimit:4;stroke-dasharray:none;stroke-opacity:1;enable-background:new" id="path4700" d="m 328,220.71875 c -0.73779,0.72803 -1.44403,1.55691 -2.19043,2.28125 H 323 v 2.80957 c -0.72445,0.74643 -1.55313,1.45263 -2.28125,2.19043 0.72805,0.7378 1.55687,1.47199 2.28125,2.2207 V 233 h 2.80957 c 0.74642,0.72442 1.45262,1.55312 2.19043,2.28125 0.7378,-0.72805 1.47199,-1.55688 2.2207,-2.28125 H 333 v -2.78028 c 0.7244,-0.74859 1.55317,-1.48197 2.28125,-2.21972 -0.72807,-0.73781 -1.55687,-1.44395 -2.28125,-2.19043 V 223 h -2.7793 c -0.74867,-0.72442 -1.48294,-1.55316 -2.2207,-2.28125 z" clip-path="url(#clipPath4706)" transform="rotate(90,328,228)"/><g style="display:inline;enable-background:new" id="g6772" transform="translate(135.9996,645.00336)"><rect id="rect6777" width="16" height="16" x="365" y="-291.003" style="color:#bebebe;display:inline;overflow:visible;visibility:visible;fill:none;stroke:none;stroke-width:1;marker:none"/></g></g><g id="layer2"><path style="display:inline;opacity:1;fill:#891f00;fill-opacity:1;stroke:none;enable-background:new" id="path4736" d="m 331,177 v 8 h 2 v -8 z m 0,10 v 2 h 2 v -2 z"/><path id="path4738" d="m 335,124 v 6 l 0.5,4 h 1 l 0.5,-4 v -6 z m 1,12 c -0.55228,0 -1,0.44772 -1,1 0,0.55228 0.44772,1 1,1 0.55228,0 1,-0.44772 1,-1 0,-0.55228 -0.44772,-1 -1,-1 z" style="display:inline;opacity:1;fill:#891f00;fill-opacity:1;stroke:none;enable-background:new"/><path id="path4740" d="m 327,223 v 5 h 2 v -5 z m 0,6 v 2 h 2 v -2 z" style="display:inline;opacity:1;fill:#891f00;fill-opacity:1;stroke:none;enable-background:new"/><path style="display:inline;opacity:1;fill:#891f00;fill-opacity:1;stroke:none;stroke-width:1;enable-background:new" id="path4742" d="m 342,56 v 8 l 1,8 h 2 l 1,-8 v -8 z m 2,19 c -1.10456,0 -2,0.89544 -2,2 0,1.10456 0.89544,2 2,2 1.10456,0 2,-0.89544 2,-2 0,-1.10456 -0.89544,-2 -2,-2 z"/><path id="path4744" d="m 152,77 v 52 l 4,52 h 8 l 4,-52 V 77 Z m 8,116 c -4.41824,0 -8,3.58176 -8,8 0,4.41824 3.58176,8 8,8 4.41824,0 8,-3.58176 8,-8 0,-4.41824 -3.58176,-8 -8,-8 z" style="display:inline;opacity:1;fill:#891f00;fill-opacity:1;stroke:none;stroke-width:1;enable-background:new"/><path id="path4395" d="m 331,178 v 8 h 2 v -8 z m 0,10 v 2 h 2 v -2 z" style="display:inline;opacity:1;fill:#fff;fill-opacity:1;stroke:none;enable-background:new"/><path style="display:inline;opacity:1;fill:#fff;fill-opacity:1;stroke:none;enable-background:new" id="path4399" d="m 335,125 v 6 l 0.5,4 h 1 l 0.5,-4 v -6 z m 1,12 c -0.55228,0 -1,0.44772 -1,1 0,0.55228 0.44772,1 1,1 0.55228,0 1,-0.44772 1,-1 0,-0.55228 -0.44772,-1 -1,-1 z"/><path style="display:inline;opacity:1;fill:#fff;fill-opacity:1;stroke:none;enable-background:new" id="path4403" d="m 327,224 v 5 h 2 v -5 z m 0,6 v 2 h 2 v -2 z"/><path id="path4596" d="m 342,57 v 8 l 1,8 h 2 l 1,-8 v -8 z m 2,19 c -1.10456,0 -2,0.89544 -2,2 0,1.10456 0.89544,2 2,2 1.10456,0 2,-0.89544 2,-2 0,-1.10456 -0.89544,-2 -2,-2 z" style="display:inline;opacity:1;fill:#fff;fill-opacity:1;stroke:none;stroke-width:1;enable-background:new"/><path style="display:inline;opacity:1;fill:#fff;fill-opacity:1;stroke:none;stroke-width:1;enable-background:new" id="path4641" d="m 152,78 v 52 l 4,52 h 8 l 4,-52 V 78 Z m 8,116 c -4.41824,0 -8,3.58176 -8,8 0,4.41824 3.58176,8 8,8 4.41824,0 8,-3.58176 8,-8 0,-4.41824 -3.58176,-8 -8,-8 z"/></g></g><g style="display:inline" id="g4832" transform="translate(0,20)"><g style="display:none" id="g4766"><rect id="rect4746" width="32" height="32" x="720" y="116" style="display:inline;overflow:visible;visibility:visible;fill:#eeeeec;fill-opacity:1;fill-rule:nonzero;stroke:none;stroke-width:2;marker:none;enable-background:accumulate"/><rect style="display:inline;overflow:visible;visibility:visible;fill:#eeeeec;fill-opacity:1;fill-rule:nonzero;stroke:none;stroke-width:2;marker:none;enable-background:accumulate" id="rect4748" width="22" height="22" x="721" y="173.059"/><rect id="rect4750" width="16" height="16" x="720" y="220" style="display:inline;overflow:visible;visibility:visible;fill:#eeeeec;fill-opacity:1;fill-rule:nonzero;stroke:none;stroke-width:2;marker:none;enable-background:accumulate"/><rect id="rect4752" width="24" height="24" x="720" y="172" style="display:inline;overflow:visible;visibility:visible;fill:#eeeeec;fill-opacity:1;fill-rule:nonzero;stroke:none;stroke-width:2;marker:none;enable-background:accumulate"/><text id="text4756" x="431.856" y="-65.7" xml:space="preserve" style="font-style:normal;font-variant:normal;font-weight:400;font-stretch:normal;font-size:13.33333302px;line-height:125%;font-family:monospace;-inkscape-font-specification:monospace;text-align:start;writing-mode:lr-tb;text-anchor:start;display:inline;fill:#000;fill-opacity:1;stroke:none;enable-background:new"><tspan style="font-weight:700" id="tspan4754" x="431.856" y="-65.7">status</tspan></text><text style="font-style:normal;font-variant:normal;font-weight:400;font-stretch:normal;font-size:13.33333302px;line-height:125%;font-family:monospace;-inkscape-font-specification:monospace;text-align:start;writing-mode:lr-tb;text-anchor:start;display:inline;fill:#000;fill-opacity:1;stroke:none;enable-background:new" id="text4760" x="431.265" y="-39.901" xml:space="preserve"><tspan id="tspan4758" x="431.265" y="-39.901">software-update-available</tspan></text><rect id="rect4762" width="256" height="256" x="432" y="12" style="display:inline;overflow:visible;visibility:visible;fill:#eeeeec;fill-opacity:1;fill-rule:nonzero;stroke:none;stroke-width:1.99999976;marker:none;enable-background:accumulate"/><rect style="display:inline;overflow:visible;visibility:visible;fill:#eeeeec;fill-opacity:1;fill-rule:nonzero;stroke:none;stroke-width:2;marker:none;enable-background:accumulate" id="rect4764" width="48" height="48" x="44" y="720" transform="matrix(0,1,1,0,0,0)"/></g><g style="display:inline" id="g4808"><path style="display:inline;fill:#000;fill-opacity:1;stroke:none;enable-background:new;opacity:.5" id="path4778" d="m 728.00002,221.71875 c -0.73779,0.72803 -1.44403,1.55691 -2.19043,2.28125 h -2.80957 v 2.80957 c -0.72445,0.74643 -1.55313,1.45263 -2.28125,2.19043 0.72805,0.7378 1.55687,1.47199 2.28125,2.2207 V 234 h 2.80957 c 0.74642,0.72442 1.45262,1.55312 2.19043,2.28125 0.7378,-0.72805 1.47199,-1.55688 2.2207,-2.28125 h 2.7793 v -2.78028 c 0.7244,-0.74859 1.55317,-1.48197 2.28125,-2.21972 -0.72807,-0.73781 -1.55687,-1.44395 -2.28125,-2.19043 V 224 h -2.7793 c -0.74867,-0.72442 -1.48294,-1.55316 -2.2207,-2.28125 z"/><path style="display:inline;opacity:.8;fill:none;fill-opacity:1;stroke:#967e00;stroke-width:2;stroke-linejoin:round;stroke-miterlimit:4;stroke-dasharray:none;stroke-opacity:1;enable-background:new" id="path4786" d="m 728.00002,220.71875 c -0.73779,0.72803 -1.44403,1.55691 -2.19043,2.28125 h -2.80957 v 2.80957 c -0.72445,0.74643 -1.55313,1.45263 -2.28125,2.19043 0.72805,0.7378 1.55687,1.47199 2.28125,2.2207 V 233 h 2.80957 c 0.74642,0.72442 1.45262,1.55312 2.19043,2.28125 0.7378,-0.72805 1.47199,-1.55688 2.2207,-2.28125 h 2.7793 v -2.78028 c 0.7244,-0.74859 1.55317,-1.48197 2.28125,-2.21972 -0.72807,-0.73781 -1.55687,-1.44395 -2.28125,-2.19043 V 223 h -2.7793 c -0.74867,-0.72442 -1.48294,-1.55316 -2.2207,-2.28125 z"/><path style="display:inline;opacity:.5;fill:#000;fill-opacity:1;stroke:none;stroke-width:6;stroke-linejoin:round;stroke-miterlimit:4;stroke-dasharray:none;stroke-opacity:1;enable-background:new" id="path4772" d="M 732.00002,173.68556 728.68557,177 h -4.68555 v 4.68556 L 720.68557,185 l 3.31445,3.31445 V 193 h 4.68555 l 3.31445,3.31445 L 735.31447,193 h 4.68555 v -4.68555 L 743.31447,185 740.00002,181.68556 V 177 h -4.68555 z"/><path style="display:inline;opacity:.8;fill:none;fill-opacity:1;stroke:#967e00;stroke-width:2;stroke-linejoin:round;stroke-miterlimit:4;stroke-dasharray:none;stroke-opacity:1;enable-background:new" id="path4780" d="M 732.00002,172.68556 728.68557,176 h -4.68555 v 4.68556 L 720.68557,184 l 3.31445,3.31445 V 192 h 4.68555 l 3.31445,3.31445 L 735.31447,192 h 4.68555 v -4.68555 L 743.31447,184 740.00002,180.68556 V 176 h -4.68555 z"/><path id="path4776" d="m 736.00002,118.4375 c -1.47557,1.45608 -2.88804,3.11383 -4.38086,4.5625 h -5.61914 v 5.61914 c -1.44888,1.49286 -3.10624,2.90526 -4.5625,4.38086 1.45611,1.47562 3.11374,2.94399 4.5625,4.44141 V 143 h 5.61914 c 1.49286,1.44884 2.90525,3.10624 4.38086,4.5625 1.47561,-1.4561 2.94399,-3.11378 4.44141,-4.5625 h 5.5586 v -5.56055 c 1.4488,-1.49721 3.10636,-2.96395 4.56249,-4.43945 -1.45612,-1.47563 -3.11372,-2.88791 -4.56249,-4.38086 V 123 h -5.5586 c -1.49734,-1.44882 -2.96587,-3.10631 -4.44141,-4.5625 z" style="display:inline;fill:#000;fill-opacity:1;stroke:none;enable-background:new;opacity:.5"/><path id="path4784" d="m 736.00002,117.4375 c -1.47557,1.45608 -2.88804,3.11383 -4.38086,4.5625 h -5.61914 v 5.61914 c -1.44888,1.49286 -3.10624,2.90526 -4.5625,4.38086 1.45611,1.47562 3.11374,2.94399 4.5625,4.44141 V 142 h 5.61914 c 1.49286,1.44884 2.90525,3.10624 4.38086,4.5625 1.47561,-1.4561 2.94399,-3.11378 4.44141,-4.5625 h 5.5586 v -5.56055 c 1.4488,-1.49721 3.10636,-2.96395 4.56249,-4.43945 -1.45612,-1.47563 -3.11372,-2.88791 -4.56249,-4.38086 V 122 h -5.5586 c -1.49734,-1.44882 -2.96587,-3.10631 -4.44141,-4.5625 z" style="display:inline;opacity:.8;fill:none;fill-opacity:1;stroke:#967e00;stroke-width:2;stroke-linejoin:round;stroke-miterlimit:4;stroke-dasharray:none;stroke-opacity:1;enable-background:new"/><path style="display:inline;fill:#000;fill-opacity:1;stroke:none;enable-background:new;opacity:.5" id="path4774" d="m 744.00002,47.15625 c -2.21335,2.18409 -4.33206,4.67074 -6.57129,6.84375 h -8.42871 v 8.4287 c -2.17331,2.23929 -4.65936,4.35787 -6.84375,6.5713 2.18417,2.2134 4.67062,4.41598 6.84375,6.6621 V 84 h 8.42871 c 2.2393,2.17326 4.35787,4.65935 6.57129,6.84375 2.21342,-2.18417 4.41598,-4.67067 6.66212,-6.84375 h 8.33788 v -8.34084 c 2.17321,-2.2458 4.65954,-4.44594 6.84375,-6.65916 -2.1842,-2.21346 -4.6706,-4.33187 -6.84375,-6.5713 V 54 h -8.33788 c -2.24602,-2.17326 -4.4488,-4.65948 -6.66212,-6.84375 z"/><path style="display:inline;opacity:.8;fill:none;fill-opacity:1;stroke:#967e00;stroke-width:2;stroke-linejoin:round;stroke-miterlimit:4;stroke-dasharray:none;stroke-opacity:1;enable-background:new" id="path4782" d="m 744.00002,46.15625 c -2.21335,2.18409 -4.33206,4.67074 -6.57129,6.84375 h -8.42871 v 8.4287 c -2.17331,2.23929 -4.65936,4.35787 -6.84375,6.5713 2.18417,2.2134 4.67062,4.41598 6.84375,6.6621 V 83 h 8.42871 c 2.2393,2.17326 4.35787,4.65935 6.57129,6.84375 2.21342,-2.18417 4.41598,-4.67067 6.66212,-6.84375 h 8.33788 v -8.34084 c 2.17321,-2.2458 4.65954,-4.44594 6.84375,-6.65916 -2.1842,-2.21346 -4.6706,-4.33187 -6.84375,-6.5713 V 53 h -8.33788 c -2.24602,-2.17326 -4.4488,-4.65948 -6.66212,-6.84375 z"/><path id="path4768" d="m 560,24.500042 c -11.80457,11.64856 -23.10432,24.91064 -35.04684,36.5 H 480 v 44.953118 c -11.59104,11.94288 -24.84992,23.242 -36.5,35.04688 11.64892,11.80488 24.90996,23.55192 36.5,35.53128 v 44.46872 h 44.95316 c 11.94283,11.59072 23.24196,24.84992 35.04684,36.5 11.80488,-11.64888 23.55192,-24.91024 35.53128,-36.5 H 640 v -44.4844 c 11.5904,-11.97767 24.85091,-23.71168 36.50004,-35.5156 C 664.851,129.195 651.59015,117.89676 640,105.95316 V 61.000042 H 595.53127 C 583.55256,49.409402 571.80431,36.149562 560,24.500042 Z" style="display:inline;opacity:.2;fill:#000;fill-opacity:1;stroke:none;stroke-width:1;filter:url(#filter4687);enable-background:new"/><path style="display:inline;opacity:.5;fill:#000;fill-opacity:1;stroke:none;stroke-width:1;filter:url(#filter4681);enable-background:new" id="path4770" d="m 560,24.500042 c -11.80457,11.64856 -23.10432,24.91064 -35.04684,36.5 H 480 v 44.953118 c -11.59104,11.94288 -24.84992,23.242 -36.5,35.04688 11.64892,11.80488 24.90996,23.55192 36.5,35.53128 v 44.46872 h 44.95316 c 11.94283,11.59072 23.24196,24.84992 35.04684,36.5 11.80488,-11.64888 23.55192,-24.91024 35.53128,-36.5 H 640 v -44.4844 c 11.5904,-11.97767 24.85091,-23.71168 36.50004,-35.5156 C 664.851,129.195 651.59015,117.89676 640,105.95316 V 61.000042 H 595.53127 C 583.55256,49.409402 571.80431,36.149562 560,24.500042 Z"/><path id="path4788" d="M 732.00002,172.68556 728.68557,176 h -4.68555 v 4.68556 L 720.68557,184 l 3.31445,3.31445 V 192 h 4.68555 l 3.31445,3.31445 L 735.31447,192 h 4.68555 v -4.68555 L 743.31447,184 740.00002,180.68556 V 176 h -4.68555 z" style="display:inline;opacity:1;fill:url(#linearGradient4850);fill-opacity:1;stroke:none;stroke-width:6;stroke-linejoin:round;stroke-miterlimit:4;stroke-dasharray:none;stroke-opacity:1;enable-background:new"/><path id="path4790" d="m 744.00002,46.15625 c -2.21335,2.18409 -4.33206,4.67074 -6.57129,6.84375 h -8.42871 v 8.4287 c -2.17331,2.23929 -4.65936,4.35787 -6.84375,6.5713 2.18417,2.2134 4.67062,4.41598 6.84375,6.6621 V 83 h 8.42871 c 2.2393,2.17326 4.35787,4.65935 6.57129,6.84375 2.21342,-2.18417 4.41598,-4.67067 6.66212,-6.84375 h 8.33788 v -8.34084 c 2.17321,-2.2458 4.65954,-4.44594 6.84375,-6.65916 -2.1842,-2.21346 -4.6706,-4.33187 -6.84375,-6.5713 V 53 h -8.33788 c -2.24602,-2.17326 -4.4488,-4.65948 -6.66212,-6.84375 z" style="display:inline;fill:url(#linearGradient4848);fill-opacity:1;stroke:none;enable-background:new"/><path style="display:inline;fill:url(#linearGradient4846);fill-opacity:1;stroke:none;enable-background:new" id="path4792" d="m 736.00002,117.4375 c -1.47557,1.45608 -2.88804,3.11383 -4.38086,4.5625 h -5.61914 v 5.61914 c -1.44888,1.49286 -3.10624,2.90526 -4.5625,4.38086 1.45611,1.47562 3.11374,2.94399 4.5625,4.44141 V 142 h 5.61914 c 1.49286,1.44884 2.90525,3.10624 4.38086,4.5625 1.47561,-1.4561 2.94399,-3.11378 4.44141,-4.5625 h 5.5586 v -5.56055 c 1.4488,-1.49721 3.10636,-2.96395 4.56249,-4.43945 -1.45612,-1.47563 -3.11372,-2.88791 -4.56249,-4.38086 V 122 h -5.5586 c -1.49734,-1.44882 -2.96587,-3.10631 -4.44141,-4.5625 z"/><path id="path4794" d="m 728.00002,220.71875 c -0.73779,0.72803 -1.44403,1.55691 -2.19043,2.28125 h -2.80957 v 2.80957 c -0.72445,0.74643 -1.55313,1.45263 -2.28125,2.19043 0.72805,0.7378 1.55687,1.47199 2.28125,2.2207 V 233 h 2.80957 c 0.74642,0.72442 1.45262,1.55312 2.19043,2.28125 0.7378,-0.72805 1.47199,-1.55688 2.2207,-2.28125 h 2.7793 v -2.78028 c 0.7244,-0.74859 1.55317,-1.48197 2.28125,-2.21972 -0.72807,-0.73781 -1.55687,-1.44395 -2.28125,-2.19043 V 223 h -2.7793 c -0.74867,-0.72442 -1.48294,-1.55316 -2.2207,-2.28125 z" style="display:inline;fill:url(#linearGradient4844);fill-opacity:1;stroke:none;enable-background:new"/><path id="path4796" d="m 560,23.500042 c -11.80457,11.64856 -23.10432,24.91064 -35.04684,36.5 H 480 v 44.953118 c -11.59104,11.94288 -24.84992,23.242 -36.5,35.04688 11.64892,11.80488 24.90996,23.55192 36.5,35.53128 v 44.46872 h 44.95316 c 11.94283,11.59072 23.24196,24.84992 35.04684,36.5 11.80488,-11.64888 23.55192,-24.91024 35.53128,-36.5 H 640 v -44.4844 c 11.5904,-11.97767 24.85091,-23.71168 36.50004,-35.5156 C 664.851,128.195 651.59015,116.89676 640,104.95316 V 60.000042 H 595.53127 C 583.55256,48.409402 571.80431,35.149562 560,23.500042 Z" style="display:inline;fill:url(#linearGradient4842);fill-opacity:1;stroke:none;stroke-width:1;enable-background:new"/><path id="path4798" d="M 344,46.15625 C 341.78665,48.34034 339.66794,50.82699 337.42871,53 H 329 v 8.4287 c -2.17331,2.23929 -4.65936,4.35787 -6.84375,6.5713 2.18417,2.2134 4.67062,4.41598 6.84375,6.6621 V 83 h 8.42871 c 2.2393,2.17326 4.35787,4.65935 6.57129,6.84375 2.21342,-2.18417 4.41598,-4.67067 6.66212,-6.84375 H 359 V 74.65916 C 361.17321,72.41336 363.65954,70.21322 365.84375,68 363.65955,65.78654 361.17315,63.66813 359,61.4287 V 53 h -8.33788 C 348.4161,50.82674 346.21332,48.34052 344,46.15625 Z" clip-path="url(#clipPath4583)" transform="rotate(90,544.00001,268.00001)" style="display:inline;opacity:.4;fill:none;fill-opacity:1;stroke:url(#linearGradient4840);stroke-width:2;stroke-miterlimit:4;stroke-dasharray:none;stroke-opacity:1;enable-background:new"/><path style="display:inline;opacity:.4;fill:none;fill-opacity:1;stroke:url(#linearGradient4838);stroke-width:2;stroke-linejoin:miter;stroke-miterlimit:4;stroke-dasharray:none;stroke-opacity:1;enable-background:new" id="path4800" d="m 336,117.4375 c -1.47557,1.45608 -2.88804,3.11383 -4.38086,4.5625 H 326 v 5.61914 c -1.44888,1.49286 -3.10624,2.90526 -4.5625,4.38086 1.45611,1.47562 3.11374,2.94399 4.5625,4.44141 V 142 h 5.61914 c 1.49286,1.44884 2.90525,3.10624 4.38086,4.5625 1.47561,-1.4561 2.94399,-3.11378 4.44141,-4.5625 h 5.5586 v -5.56055 c 1.4488,-1.49721 3.10636,-2.96395 4.56249,-4.43945 -1.45612,-1.47563 -3.11372,-2.88791 -4.56249,-4.38086 V 122 h -5.5586 c -1.49734,-1.44882 -2.96587,-3.10631 -4.44141,-4.5625 z" clip-path="url(#clipPath4603)" transform="rotate(90,536.00001,332.00001)"/><path id="path4802" d="M 332,172.68556 328.68555,176 H 324 v 4.68556 L 320.68555,184 324,187.31445 V 192 h 4.68555 L 332,195.31445 335.31445,192 H 340 v -4.68555 L 343.31445,184 340,180.68556 V 176 h -4.68555 z" clip-path="url(#clipPath4623)" transform="rotate(90,532.00001,384.00001)" style="display:inline;opacity:.4;fill:none;fill-opacity:1;stroke:url(#linearGradient4836);stroke-width:2;stroke-linejoin:miter;stroke-miterlimit:4;stroke-dasharray:none;stroke-opacity:1;enable-background:new"/><path id="path4804" d="M 560.00002,23.5 C 548.19545,35.14856 536.89566,48.41064 524.95314,60 h -44.95312 v 1 h 44.95312 c 11.94252,-11.58936 23.24231,-24.85144 35.04688,-36.5 11.80431,11.64952 23.55254,24.90936 35.53125,36.5 h 44.46875 V 60 H 595.53127 C 583.55256,48.40936 571.80433,35.14952 560.00002,23.5 Z m -80,81.45312 c -11.59104,11.94289 -24.84992,23.242 -36.5,35.04688 0.16496,0.16717 0.33635,0.3348 0.50195,0.50195 11.5296,-11.62415 24.57084,-22.77475 35.99805,-34.54883 z m 160,0 v 1 c 11.42633,11.77479 24.46938,22.92455 35.99805,34.54883 0.1656,-0.16713 0.33698,-0.33479 0.50195,-0.50195 -11.64904,-11.80504 -24.90985,-23.10327 -36.5,-35.04688 z" style="display:inline;opacity:.4;fill:#fff;fill-opacity:1;stroke:none;stroke-width:1;enable-background:new"/><path id="path4806" d="m 328,220.71875 c -0.73779,0.72803 -1.44403,1.55691 -2.19043,2.28125 H 323 v 2.80957 c -0.72445,0.74643 -1.55313,1.45263 -2.28125,2.19043 0.72805,0.7378 1.55687,1.47199 2.28125,2.2207 V 233 h 2.80957 c 0.74642,0.72442 1.45262,1.55312 2.19043,2.28125 0.7378,-0.72805 1.47199,-1.55688 2.2207,-2.28125 H 333 v -2.78028 c 0.7244,-0.74859 1.55317,-1.48197 2.28125,-2.21972 -0.72807,-0.73781 -1.55687,-1.44395 -2.28125,-2.19043 V 223 h -2.7793 c -0.74867,-0.72442 -1.48294,-1.55316 -2.2207,-2.28125 z" clip-path="url(#clipPath4706)" transform="rotate(90,528.00001,428.00001)" style="display:inline;opacity:.4;fill:none;fill-opacity:1;stroke:url(#linearGradient4834);stroke-width:2;stroke-linejoin:miter;stroke-miterlimit:4;stroke-dasharray:none;stroke-opacity:1;enable-background:new"/></g><g id="g4830"><path id="path4916" d="M 728,225.15625 730.5625,229 H 730.5 729 v 4.00391 h -2 V 229 h -1.5 -0.0625 c 1.16612,-1.70241 2.24519,-3.35582 2.5625,-3.84375 z" style="display:inline;opacity:.4;fill:#fff;fill-opacity:1;stroke:none;enable-background:new"/><path style="display:inline;opacity:.4;fill:#fff;fill-opacity:1;stroke:none;enable-background:new" id="path4918" d="m 732,180 -3,5 h 2 v 4 h 2 v -4 h 2 z"/><path id="path4920" d="m 744,58 -7,11 h 4 v 10 h 6 V 69 h 4 z" style="display:inline;opacity:.4;fill:#fff;fill-opacity:1;stroke:none;stroke-width:1;enable-background:new"/><path style="display:inline;opacity:.4;fill:#fff;fill-opacity:1;stroke:none;stroke-width:1;enable-background:new" id="path4922" d="m 560,91 -36,50 h 20 v 48 h 32 v -48 h 20 z"/><path style="display:inline;opacity:.4;fill:#fff;fill-opacity:1;stroke:none;stroke-width:1;enable-background:new" id="path4924" d="m 736,126 -5,7 h 3 v 7 h 4 v -7 h 3 z"/><path style="display:inline;fill:#967e00;fill-opacity:1;stroke:none;enable-background:new" id="path6775" d="M 728,224.15625 730.5625,228 H 730.5 729 v 4.00391 h -2 V 228 h -1.5 -0.0625 c 1.16612,-1.70241 2.24519,-3.35582 2.5625,-3.84375 z"/><path id="path4908" d="m 732,179 -3,5 h 2 v 4 h 2 v -4 h 2 z" style="display:inline;fill:#967e00;fill-opacity:1;stroke:none;enable-background:new"/><path style="display:inline;fill:#967e00;fill-opacity:1;stroke:none;stroke-width:1;enable-background:new" id="path4910" d="m 744,57 -7,11 h 4 v 10 h 6 V 68 h 4 z"/><path id="path4912" d="m 560,90 -36,50 h 20 v 48 h 32 v -48 h 20 z" style="display:inline;fill:#967e00;fill-opacity:1;stroke:none;stroke-width:1;enable-background:new"/><path id="path4914" d="m 736,125 -5,7 h 3 v 7 h 4 v -7 h 3 z" style="display:inline;fill:#967e00;fill-opacity:1;stroke:none;stroke-width:1;enable-background:new"/></g></g></svg>