<svg xmlns="http://www.w3.org/2000/svg" xmlns:svg="http://www.w3.org/2000/svg" xmlns:xlink="http://www.w3.org/1999/xlink" id="svg11300" width="400" height="320" version="1.0" viewBox="0 0 400 320" style="display:inline;enable-background:new"><title id="title4162">Solus Icon Template</title><defs id="defs3"><linearGradient id="linearGradient6622"><stop style="stop-color:#4092d0;stop-opacity:1" id="stop6618" offset="0"/><stop style="stop-color:#00a4ea;stop-opacity:1" id="stop6620" offset="1"/></linearGradient><linearGradient id="linearGradient5945"><stop style="stop-color:#594739;stop-opacity:1" id="stop5941" offset="0"/><stop style="stop-color:#b19476;stop-opacity:1" id="stop5943" offset="1"/></linearGradient><linearGradient id="linearGradient5092"><stop style="stop-color:#fff;stop-opacity:1" id="stop5088" offset="0"/><stop style="stop-color:#fff;stop-opacity:.27500001" id="stop5090" offset="1"/></linearGradient><linearGradient id="linearGradient4012"><stop style="stop-color:#000;stop-opacity:1" id="stop4014" offset="0"/><stop style="stop-color:#000;stop-opacity:0" id="stop4016" offset="1"/></linearGradient><linearGradient id="linearGradient4226-6"><stop style="stop-color:#9d8066;stop-opacity:1" id="stop4228-6" offset="0"/><stop style="stop-color:#a8947f;stop-opacity:1" id="stop4231-2" offset="1"/></linearGradient><linearGradient id="linearGradient4513"><stop style="stop-color:#a8947f;stop-opacity:1" id="stop4509" offset="0"/><stop style="stop-color:#bea78d;stop-opacity:1" id="stop4511" offset="1"/></linearGradient><radialGradient id="radialGradient4232-6" cx="12.5" cy="19.5" r="11.5" fx="12.5" fy="19.5" gradientTransform="matrix(1,0,0,0.39130435,342,74.869565)" gradientUnits="userSpaceOnUse" xlink:href="#linearGradient4012"/><clipPath id="clipPath5532" clipPathUnits="userSpaceOnUse"><path id="path5534" d="M 206,139.69922 152,164 v 21.59961 37.80078 l 53.99805,24.29883 H 206 l 54,-24.29883 V 164 h -0.002 z m 0,67.5 h 0.002 L 206,227.66602 Z" style="fill:#e8decc;fill-opacity:1;stroke:none;stroke-width:1.00000012;stroke-opacity:.69803922"/></clipPath><filter style="color-interpolation-filters:sRGB" id="filter5552" width="1.024" height="1.024" x="-.012" y="-.012"><feGaussianBlur id="feGaussianBlur5554" stdDeviation=".54"/></filter><radialGradient id="radialGradient4232-6-2" cx="12.5" cy="19.5" r="11.5" fx="12.5" fy="19.5" gradientTransform="matrix(5.2173912,0,0,2.041588,40.782606,173.0755)" gradientUnits="userSpaceOnUse" xlink:href="#linearGradient4012"/><clipPath id="clipPath6590" clipPathUnits="userSpaceOnUse"><path style="display:inline;fill:#4092d0;fill-opacity:1;stroke:none;stroke-width:2;stroke-linejoin:round;stroke-miterlimit:4;stroke-dasharray:none;stroke-opacity:1;enable-background:new" id="path6592" d="m 560,116 h 24 v 62 c 0,2 2,2 2,2 h 44 c 0,0 2,0 2,-2 v -62 h 24 L 608,60 Z"/></clipPath><filter style="color-interpolation-filters:sRGB" id="filter6614" width="1.135" height="1.108" x="-.068" y="-.054"><feGaussianBlur id="feGaussianBlur6616" stdDeviation="2.7"/></filter><linearGradient id="linearGradient6624" x1="608" x2="608" y1="164" y2="76" gradientTransform="translate(0,-24)" gradientUnits="userSpaceOnUse" xlink:href="#linearGradient6622"/><filter style="color-interpolation-filters:sRGB" id="filter6630" width="1.027" height="1.022" x="-.013" y="-.011"><feGaussianBlur id="feGaussianBlur6632" stdDeviation=".54"/></filter><filter style="color-interpolation-filters:sRGB" id="filter7474" width="1.024" height="1.024" x="-.012" y="-.012"><feGaussianBlur id="feGaussianBlur7476" stdDeviation=".54"/></filter><filter style="color-interpolation-filters:sRGB" id="filter7774" width="1.073" height="1.327" x="-.037" y="-.163"><feGaussianBlur id="feGaussianBlur7776" stdDeviation="1.654"/></filter><filter style="color-interpolation-filters:sRGB" id="filter4664" width="1.009" height="1.018" x="-.004" y="-.009"><feGaussianBlur id="feGaussianBlur4666" stdDeviation=".096"/></filter><radialGradient id="radialGradient4735" cx="12.5" cy="19.5" r="11.5" fx="12.5" fy="19.5" gradientTransform="matrix(1.0869565,0,0,0.42533081,340.91304,72.814743)" gradientUnits="userSpaceOnUse" xlink:href="#linearGradient4012"/><radialGradient id="radialGradient4737" cx="12.5" cy="19.5" r="11.5" fx="12.5" fy="19.5" gradientTransform="matrix(0.73913045,0,0,0.34782609,334.26087,135.21739)" gradientUnits="userSpaceOnUse" xlink:href="#linearGradient4012"/><radialGradient id="radialGradient4739" cx="12.5" cy="19.5" r="11.5" fx="12.5" fy="19.5" gradientTransform="matrix(0.73913045,0,0,0.34782609,320.26087,135.21739)" gradientUnits="userSpaceOnUse" xlink:href="#linearGradient4012"/><radialGradient id="radialGradient4741" cx="12.5" cy="19.5" r="11.5" fx="12.5" fy="19.5" gradientTransform="matrix(1.0869565,0,0,0.42533081,320.91304,72.814743)" gradientUnits="userSpaceOnUse" xlink:href="#linearGradient4012"/><radialGradient id="radialGradient4743" cx="17.471" cy="32.383" r="20" fx="17.471" fy="32.383" gradientTransform="matrix(1.1999999,0,0,0.6,335.0354,48.569986)" gradientUnits="userSpaceOnUse" xlink:href="#linearGradient4513"/><linearGradient id="linearGradient4745" x1="5.393" x2="16" y1="42.586" y2="20" gradientTransform="matrix(-1,0,0,1,390.0354,42.669987)" gradientUnits="userSpaceOnUse" xlink:href="#linearGradient4226-6"/><linearGradient id="linearGradient4747" x1="345" x2="354" y1="74" y2="77.166" gradientUnits="userSpaceOnUse" xlink:href="#linearGradient5092"/><linearGradient id="linearGradient4749" x1="364" x2="355" y1="76" y2="80" gradientUnits="userSpaceOnUse" xlink:href="#linearGradient5092"/><radialGradient id="radialGradient4751" cx="17.471" cy="32.383" r="20" fx="17.471" fy="32.383" gradientTransform="matrix(1.1999999,0,0,0.6,335.0354,68.569986)" gradientUnits="userSpaceOnUse" xlink:href="#linearGradient4513"/><linearGradient id="linearGradient4753" x1="5.393" x2="16" y1="42.586" y2="20" gradientTransform="matrix(-1,0,0,1,390.0354,42.669987)" gradientUnits="userSpaceOnUse" xlink:href="#linearGradient4226-6"/><linearGradient id="linearGradient4755" x1="345" x2="354" y1="74" y2="77.166" gradientUnits="userSpaceOnUse" xlink:href="#linearGradient5092"/><linearGradient id="linearGradient4757" x1="364" x2="355" y1="76" y2="80" gradientUnits="userSpaceOnUse" xlink:href="#linearGradient5092"/><radialGradient id="radialGradient4759" cx="17.471" cy="32.383" r="20" fx="17.471" fy="32.383" gradientTransform="matrix(1.1999999,0,0,0.6,323.0354,108.56999)" gradientUnits="userSpaceOnUse" xlink:href="#linearGradient4513"/><linearGradient id="linearGradient4761" x1="5.393" x2="16" y1="42.586" y2="20" gradientTransform="matrix(-1,0,0,1,378.0354,102.66999)" gradientUnits="userSpaceOnUse" xlink:href="#linearGradient4226-6"/><linearGradient id="linearGradient4763" x1="345" x2="354" y1="74" y2="77.166" gradientTransform="translate(-12,60)" gradientUnits="userSpaceOnUse" xlink:href="#linearGradient5092"/><linearGradient id="linearGradient4765" x1="364" x2="355" y1="76" y2="80" gradientTransform="translate(-12,60)" gradientUnits="userSpaceOnUse" xlink:href="#linearGradient5092"/><radialGradient id="radialGradient4767" cx="17.471" cy="32.383" r="20" fx="17.471" fy="32.383" gradientTransform="matrix(1.1999999,0,0,0.6,323.0354,108.56999)" gradientUnits="userSpaceOnUse" xlink:href="#linearGradient4513"/><linearGradient id="linearGradient4769" x1="5.393" x2="16" y1="42.586" y2="20" gradientTransform="matrix(-1,0,0,1,378.0354,102.66999)" gradientUnits="userSpaceOnUse" xlink:href="#linearGradient4226-6"/><linearGradient id="linearGradient4771" x1="345" x2="354" y1="74" y2="77.166" gradientTransform="translate(-12,60)" gradientUnits="userSpaceOnUse" xlink:href="#linearGradient5092"/><linearGradient id="linearGradient4773" x1="364" x2="355" y1="76" y2="80" gradientTransform="translate(-12,60)" gradientUnits="userSpaceOnUse" xlink:href="#linearGradient5092"/><radialGradient id="radialGradient4775" cx="17.471" cy="32.383" r="20" fx="17.471" fy="32.383" gradientTransform="matrix(6.7199166,0,0,3.359987,107.80205,47.740855)" gradientUnits="userSpaceOnUse" xlink:href="#linearGradient4513"/><linearGradient id="linearGradient4777" x1="5.393" x2="16" y1="42.586" y2="20" gradientTransform="matrix(-5.3999352,0,0,5.3999808,405.69839,4.2008705)" gradientUnits="userSpaceOnUse" xlink:href="#linearGradient4226-6"/><linearGradient id="linearGradient4779" x1="247.106" x2="180" y1="225.165" y2="158" gradientUnits="userSpaceOnUse" xlink:href="#linearGradient5945"/><radialGradient id="radialGradient4705" cx="12.5" cy="19.5" r="11.5" fx="12.5" fy="19.5" gradientTransform="matrix(6.086956,0,0,2.7221173,140.91304,157.9791)" gradientUnits="userSpaceOnUse" xlink:href="#linearGradient4012"/><radialGradient id="radialGradient5295" cx="12.5" cy="19.5" r="11.5" fx="12.5" fy="19.5" gradientTransform="matrix(6.086956,0,0,2.7221173,27.91304,157.9791)" gradientUnits="userSpaceOnUse" xlink:href="#linearGradient4012"/></defs><metadata id="metadata4"/><g id="layer1" transform="translate(0,20)" style="display:inline"><g id="layer7" style="display:none"><rect style="display:inline;overflow:visible;visibility:visible;fill:#eeeeec;fill-opacity:1;fill-rule:nonzero;stroke:none;stroke-width:2;marker:none;enable-background:accumulate" id="rect6592" width="32" height="32" x="320" y="116"/><rect id="rect6749" width="22" height="22" x="321" y="173.059" style="display:inline;overflow:visible;visibility:visible;fill:#eeeeec;fill-opacity:1;fill-rule:nonzero;stroke:none;stroke-width:2;marker:none;enable-background:accumulate"/><rect style="display:inline;overflow:visible;visibility:visible;fill:#eeeeec;fill-opacity:1;fill-rule:nonzero;stroke:none;stroke-width:2;marker:none;enable-background:accumulate" id="rect6833" width="16" height="16" x="320" y="220"/><rect style="display:inline;overflow:visible;visibility:visible;fill:#eeeeec;fill-opacity:1;fill-rule:nonzero;stroke:none;stroke-width:2;marker:none;enable-background:accumulate" id="rect8104" width="24" height="24" x="320" y="172"/><text style="font-style:normal;font-variant:normal;font-weight:400;font-stretch:normal;font-size:13.33333302px;line-height:125%;font-family:monospace;-inkscape-font-specification:monospace;text-align:start;writing-mode:lr-tb;text-anchor:start;display:inline;fill:#000;fill-opacity:1;stroke:none;enable-background:new" id="context" x="31.856" y="-65.7" xml:space="preserve"><tspan id="tspan2716" x="31.856" y="-65.7" style="font-weight:700">apps</tspan></text><text id="text3021" x="31.265" y="-39.901" xml:space="preserve" style="font-style:normal;font-variant:normal;font-weight:400;font-stretch:normal;font-size:13.33333302px;line-height:125%;font-family:monospace;-inkscape-font-specification:monospace;text-align:start;writing-mode:lr-tb;text-anchor:start;display:inline;fill:#000;fill-opacity:1;stroke:none;enable-background:new"><tspan id="tspan3023" x="31.265" y="-39.901">system-software-install</tspan></text><rect style="display:inline;overflow:visible;visibility:visible;fill:#eeeeec;fill-opacity:1;fill-rule:nonzero;stroke:none;stroke-width:1.99999976;marker:none;enable-background:accumulate" id="rect13805" width="256" height="256" x="32" y="12"/><rect id="rect6284" width="48" height="48" x="44" y="320" transform="matrix(0,1,1,0,0,0)" style="display:inline;overflow:visible;visibility:visible;fill:#eeeeec;fill-opacity:1;fill-rule:nonzero;stroke:none;stroke-width:2;marker:none;enable-background:accumulate"/></g><g id="layer9" style="display:inline"><g id="g7326" transform="translate(1,-1)"><path style="display:inline;opacity:.2;fill:url(#radialGradient5295);fill-opacity:1;stroke:none;stroke-width:1;enable-background:new" id="path5251" d="m 174,211.06037 c 0,17.28889 -31.3401,31.30433 -70,31.30433 -38.6599,0 -70,-14.01544 -70,-31.30433 0,-17.28894 31.3401,-31.30438 70,-31.30438 38.6599,0 70,14.01544 70,31.30438 z"/><path id="path7706" d="m 287,211.06037 c 0,17.28889 -31.3401,31.30433 -70,31.30433 -38.6599,0 -70,-14.01544 -70,-31.30433 0,-17.28894 31.3401,-31.30438 70,-31.30438 38.6599,0 70,14.01544 70,31.30438 z" style="display:inline;opacity:.2;fill:url(#radialGradient4705);fill-opacity:1;stroke:none;stroke-width:1;enable-background:new"/><use id="use7246" width="100%" height="100%" x="0" y="0" transform="translate(-56,-87)" xlink:href="#g7242"/><path id="path6707" d="m 366.99999,81.108694 c 0,2.701392 -5.59644,4.891304 -12.5,4.891304 -6.90355,0 -12.5,-2.189912 -12.5,-4.891304 0,-2.701392 5.59645,-4.891304 12.5,-4.891304 6.90356,0 12.5,2.189912 12.5,4.891304 z" style="display:inline;opacity:.3;fill:url(#radialGradient4735);fill-opacity:1;stroke:none;stroke-width:1;enable-background:new"/><path style="display:inline;opacity:.3;fill:url(#radialGradient4737);fill-opacity:1;stroke:none;stroke-width:.99999994;enable-background:new" id="path5397" d="m 352.00001,142 c 0,2.20914 -3.80558,4 -8.5,4 -4.69442,0 -8.5,-1.79086 -8.5,-4 0,-2.20914 3.80558,-4 8.5,-4 4.69442,0 8.5,1.79086 8.5,4 z"/><path id="path5393" d="m 338.00001,142 c 0,2.20914 -3.80558,4 -8.5,4 -4.69442,0 -8.5,-1.79086 -8.5,-4 0,-2.20914 3.80558,-4 8.5,-4 4.69442,0 8.5,1.79086 8.5,4 z" style="display:inline;opacity:.3;fill:url(#radialGradient4739);fill-opacity:1;stroke:none;stroke-width:.99999994;enable-background:new"/><path style="display:inline;opacity:.3;fill:url(#radialGradient4741);fill-opacity:1;stroke:none;stroke-width:1;enable-background:new" id="path5389" d="m 346.99999,81.108694 c 0,2.701392 -5.59644,4.891304 -12.5,4.891304 -6.90355,0 -12.5,-2.189912 -12.5,-4.891304 0,-2.701392 5.59645,-4.891304 12.5,-4.891304 6.90356,0 12.5,2.189912 12.5,4.891304 z"/><use id="use5361" width="100%" height="100%" x="0" y="0" transform="translate(-10,-15)" xlink:href="#g5291"/><use id="use5325" width="100%" height="100%" x="0" y="0" transform="translate(-7,-10.57452)" xlink:href="#g5321"/><g id="g5291"><path style="fill:url(#radialGradient4743);fill-opacity:1;stroke:none" id="path3965-6" d="m 354.53516,65.169922 -10,4.5 v 4 6.999998 l 10,4.5 v -7.499998 l 10,-4 v -4 z"/><path style="opacity:.4;fill:#e8decc;fill-opacity:1;stroke:none" id="path5067" d="m 354.53602,73.669989 9.99938,-4 v 0 l -9.99938,-4.500003 -10.0005,4.500003 v 0 z"/><path style="fill:url(#linearGradient4745);fill-opacity:1;stroke:none" id="path3955-8" d="m 364.5354,69.669989 v 11 l -10.0005,4.5 v -10.5 z"/><path id="path4317-1" d="M 353.99136,74.449018 345,70 l 9.5349,3.669989 9.35573,-3.65911 L 355,74.586962 v 9.810786 l -0.5,0.26798 -0.5,-0.26798 z" style="opacity:.7;fill:#594739;fill-opacity:1;stroke:none"/><path style="opacity:.5;fill:#594739;fill-opacity:1;fill-rule:nonzero;stroke:none;stroke-width:.25" id="path2987-9" d="m 362.25391,71.955078 -0.61719,1.166016 0.11719,-0.05273 0.25,-0.111328 v 0.25 1.242188 l 0.5,-0.222657 v -1.242187 -0.25 l 0.25,-0.111328 0.10937,-0.04883 z m -1.5,0.667969 -0.61719,1.166015 0.11719,-0.05273 0.25,-0.111328 v 0.25 1.242188 l 0.5,-0.222657 v -1.242187 -0.25 l 0.25,-0.111328 0.10937,-0.04883 z m 2.24804,1.884765 -2.99804,1.335938 v 0.492188 l 3,-1.335938 z"/><path style="fill:none;fill-opacity:1;stroke:#594739;stroke-linejoin:round;stroke-opacity:.69803922" id="path4954" d="m 354.53516,65.169922 -10,4.5 v 4 6.999998 l 10,4.5 10,-4.5 v -6.999998 -4 z"/><path style="opacity:.2;fill:none;fill-rule:evenodd;stroke:url(#linearGradient4747);stroke-width:1px;stroke-linecap:round;stroke-linejoin:miter;stroke-opacity:1" id="path5082" d="m 345.5,70.5 v 9.574524 l 8,3.5 V 74.5"/><path id="path5084" d="m 363.5,70.5 v 9.574524 l -8,3.5" style="opacity:.1;fill:none;fill-rule:evenodd;stroke:url(#linearGradient4749);stroke-width:1px;stroke-linecap:round;stroke-linejoin:miter;stroke-opacity:1"/><path style="opacity:.2;fill:none;fill-rule:evenodd;stroke:#fff;stroke-width:1px;stroke-linecap:round;stroke-linejoin:miter;stroke-opacity:1" id="path5086" d="M 346,70 354.5,66.146447 363,70"/></g><g id="use5125" transform="translate(-23,109)"><path id="path5230" d="m 354.53516,85.169922 -10,4.5 v 4 6.999998 l 10,4.5 v -7.499998 l 10,-4 v -4 z" transform="translate(0,-20)" style="fill:url(#radialGradient4751);fill-opacity:1;stroke:none"/><path id="path5232" d="m 354.53602,73.669989 9.99938,-4 v 0 l -9.99938,-4.500003 -10.0005,4.500003 v 0 z" style="opacity:.4;fill:#e8decc;fill-opacity:1;stroke:none"/><path id="path5234" d="m 364.5354,69.669989 v 11 l -10.0005,4.5 v -10.5 z" style="fill:url(#linearGradient4753);fill-opacity:1;stroke:none"/><path style="opacity:.7;fill:#594739;fill-opacity:1;stroke:none" id="path5236" d="M 353.99136,74.449018 345,70 l 9.5349,3.669989 9.35573,-3.65911 L 355,74.586962 v 9.810786 l -0.5,0.26798 -0.5,-0.26798 z"/><path id="path5238" d="m 360.75329,72.622703 -0.61719,1.165413 0.11719,-0.05218 0.25,-0.111307 v 0.25 1.242188 l 0.5,-0.222614 v -1.242187 -0.25 l 0.25,-0.111307 0.10937,-0.0487 z" style="opacity:.5;fill:#594739;fill-opacity:1;fill-rule:nonzero;stroke:none;stroke-width:.25"/><rect style="color:#bebebe;display:inline;overflow:visible;visibility:visible;fill:none;stroke:none;stroke-width:.26156208;marker:none;enable-background:new" id="rect5240" width="4" height="4.379" x="232.623" y="393.525" transform="matrix(0,1,0.91354611,-0.40673518,0,0)"/><path id="path5242" d="m 360.00335,75.843347 v 0.49214 l 3,-1.335681 -0.001,-0.491583 z" style="opacity:.5;fill:#594739;fill-opacity:1;fill-rule:nonzero;stroke:none;stroke-width:.25"/><path style="opacity:.5;fill:#594739;fill-opacity:1;fill-rule:nonzero;stroke:none;stroke-width:.25" id="path5244" d="m 362.25335,71.954835 -0.61719,1.165413 0.11719,-0.05218 0.25,-0.111307 v 0.25 1.242188 l 0.5,-0.222614 v -1.242187 -0.25 l 0.25,-0.111307 0.10937,-0.0487 z"/><path id="path5248" d="m 354.53516,65.169922 -10,4.5 v 4 6.999998 l 10,4.5 10,-4.5 v -6.999998 -4 z" style="fill:none;fill-opacity:1;stroke:#594739;stroke-linejoin:round;stroke-opacity:.69803922"/><path id="path5250" d="m 345.5,70.5 v 9.574524 l 8,3.5 V 74.5" style="opacity:.2;fill:none;fill-rule:evenodd;stroke:url(#linearGradient4755);stroke-width:1px;stroke-linecap:round;stroke-linejoin:miter;stroke-opacity:1"/><path style="opacity:.1;fill:none;fill-rule:evenodd;stroke:url(#linearGradient4757);stroke-width:1px;stroke-linecap:round;stroke-linejoin:miter;stroke-opacity:1" id="path5252" d="m 363.5,70.5 v 9.574524 l -8,3.5"/><path id="path5254" d="M 346,70 354.5,66.146447 363,70" style="opacity:.2;fill:none;fill-rule:evenodd;stroke:#fff;stroke-width:1px;stroke-linecap:round;stroke-linejoin:miter;stroke-opacity:1"/></g><g id="g5321" transform="translate(1,2)"><path id="path5157" d="m 342.53516,128.16992 -7,3.5 v 4 3 l 7,3.5 v -5.5 l 7,-1 v -4 z" style="fill:url(#radialGradient4759);fill-opacity:1;stroke:none"/><path id="path5159" d="m 342.53602,134.66999 6.99938,-3 v 0 l -6.99938,-3.5 -7.0005,3.5 v 0 z" style="opacity:.4;fill:#e8decc;fill-opacity:1;stroke:none"/><path id="path5161" d="m 349.5354,131.66999 v 7 l -7.0005,3.5 v -6.5 z" style="fill:url(#linearGradient4761);fill-opacity:1;stroke:none"/><path style="opacity:.7;fill:#594739;fill-opacity:1;stroke:none" id="path5163" d="M 341.99136,135.44902 336,132 l 6.5349,2.66999 6.35573,-2.65911 L 343,135.58696 v 5.81079 l -0.5,0.26798 -0.5,-0.26798 z"/><path id="path5175" d="m 342.53516,128.16992 -7,3.5 v 4 3 l 7,3.5 7,-3.5 v -3 -4 z" style="fill:none;fill-opacity:1;stroke:#594739;stroke-linejoin:round;stroke-opacity:.69803922"/><path id="path5177" d="m 336.5,132.5 v 5.57452 l 5,2.5 V 135.5" style="opacity:.2;fill:none;fill-rule:evenodd;stroke:url(#linearGradient4763);stroke-width:1px;stroke-linecap:round;stroke-linejoin:miter;stroke-opacity:1"/><path style="opacity:.1;fill:none;fill-rule:evenodd;stroke:url(#linearGradient4765);stroke-width:1px;stroke-linecap:round;stroke-linejoin:miter;stroke-opacity:1" id="path5179" d="m 348.5,132.5 v 5.57452 l -5,2.5"/><path id="path5181" d="m 337,132 5.5,-2.85355 L 348,132" style="opacity:.2;fill:none;fill-rule:evenodd;stroke:#fff;stroke-width:1px;stroke-linecap:round;stroke-linejoin:miter;stroke-opacity:1"/></g><use id="use5323" width="100%" height="100%" x="0" y="0" transform="translate(-14)" xlink:href="#g5321"/><g id="g5210" transform="translate(-22,4)"><path id="path5165" d="m 368.75329,132.6227 -0.61719,1.16542 0.11719,-0.0522 0.25,-0.11131 v 0.25 1.24219 l 0.5,-0.22262 v -1.24218 -0.25 l 0.25,-0.11131 0.10937,-0.0487 z" style="opacity:.5;fill:#594739;fill-opacity:1;fill-rule:nonzero;stroke:none;stroke-width:.25"/><path id="path5169" d="m 368.00335,135.84335 v 0.49214 l 3,-1.33568 -0.001,-0.49159 z" style="opacity:.5;fill:#594739;fill-opacity:1;fill-rule:nonzero;stroke:none;stroke-width:.25"/><path style="opacity:.5;fill:#594739;fill-opacity:1;fill-rule:nonzero;stroke:none;stroke-width:.25" id="path5171" d="m 370.25335,131.95483 -0.61719,1.16542 0.11719,-0.0522 0.25,-0.11131 v 0.25 1.24219 l 0.5,-0.22262 v -1.24218 -0.25 l 0.25,-0.11131 0.10937,-0.0487 z"/></g><g id="g5349" transform="translate(-36,4)"><path style="opacity:.5;fill:#594739;fill-opacity:1;fill-rule:nonzero;stroke:none;stroke-width:.25" id="path5343" d="m 368.75329,132.6227 -0.61719,1.16542 0.11719,-0.0522 0.25,-0.11131 v 0.25 1.24219 l 0.5,-0.22262 v -1.24218 -0.25 l 0.25,-0.11131 0.10937,-0.0487 z"/><path style="opacity:.5;fill:#594739;fill-opacity:1;fill-rule:nonzero;stroke:none;stroke-width:.25" id="path5345" d="m 368.00335,135.84335 v 0.49214 l 3,-1.33568 -0.001,-0.49159 z"/><path id="path5347" d="m 370.25335,131.95483 -0.61719,1.16542 0.11719,-0.0522 0.25,-0.11131 v 0.25 1.24219 l 0.5,-0.22262 v -1.24218 -0.25 l 0.25,-0.11131 0.10937,-0.0487 z" style="opacity:.5;fill:#594739;fill-opacity:1;fill-rule:nonzero;stroke:none;stroke-width:.25"/></g><g id="g5357" transform="translate(-29,-6)"><path id="path5351" d="m 368.75329,132.6227 -0.61719,1.16542 0.11719,-0.0522 0.25,-0.11131 v 0.25 1.24219 l 0.5,-0.22262 v -1.24218 -0.25 l 0.25,-0.11131 0.10937,-0.0487 z" style="opacity:.5;fill:#594739;fill-opacity:1;fill-rule:nonzero;stroke:none;stroke-width:.25"/><path id="path5353" d="m 368.00335,135.84335 v 0.49214 l 3,-1.33568 -0.001,-0.49159 z" style="opacity:.5;fill:#594739;fill-opacity:1;fill-rule:nonzero;stroke:none;stroke-width:.25"/><path style="opacity:.5;fill:#594739;fill-opacity:1;fill-rule:nonzero;stroke:none;stroke-width:.25" id="path5355" d="m 370.25335,131.95483 -0.61719,1.16542 0.11719,-0.0522 0.25,-0.11131 v 0.25 1.24219 l 0.5,-0.22262 v -1.24218 -0.25 l 0.25,-0.11131 0.10937,-0.0487 z"/></g><use id="use5359" width="100%" height="100%" x="0" y="0" transform="translate(-20)" xlink:href="#g5291"/><g id="g5379" transform="translate(-14,93)"><path style="fill:url(#radialGradient4767);fill-opacity:1;stroke:none" id="path5363" d="m 342.53516,128.16992 -7,3.5 v 4 3 l 7,3.5 v -5.5 l 7,-1 v -4 z"/><path style="opacity:.4;fill:#e8decc;fill-opacity:1;stroke:none" id="path5365" d="m 342.53602,134.66999 6.99938,-3 v 0 l -6.99938,-3.5 -7.0005,3.5 v 0 z"/><path style="fill:url(#linearGradient4769);fill-opacity:1;stroke:none" id="path5367" d="m 349.5354,131.66999 v 7 l -7.0005,3.5 v -6.5 z"/><path id="path5369" d="M 341.99136,135.44902 336,132 l 6.5349,2.66999 6.35573,-2.65911 L 343,135.58696 v 5.81079 l -0.5,0.26798 -0.5,-0.26798 z" style="opacity:.7;fill:#594739;fill-opacity:1;stroke:none"/><path style="fill:none;fill-opacity:1;stroke:#594739;stroke-linejoin:round;stroke-opacity:.69803922" id="path5371" d="m 342.53516,128.16992 -7,3.5 v 4 3 l 7,3.5 7,-3.5 v -3 -4 z"/><path style="opacity:.2;fill:none;fill-rule:evenodd;stroke:url(#linearGradient4771);stroke-width:1px;stroke-linecap:round;stroke-linejoin:miter;stroke-opacity:1" id="path5373" d="m 336.5,132.5 v 5.57452 l 5,2.5 V 135.5"/><path id="path5375" d="m 348.5,132.5 v 5.57452 l -5,2.5" style="opacity:.1;fill:none;fill-rule:evenodd;stroke:url(#linearGradient4773);stroke-width:1px;stroke-linecap:round;stroke-linejoin:miter;stroke-opacity:1"/><path style="opacity:.2;fill:none;fill-rule:evenodd;stroke:#fff;stroke-width:1px;stroke-linecap:round;stroke-linejoin:miter;stroke-opacity:1" id="path5377" d="m 337,132 5.5,-2.85355 L 348,132"/></g><g style="stroke-width:.96428609" id="g7242" transform="matrix(1.0370367,0,0,1.0370367,-5.9258645,-8.6554684)"><path style="opacity:.2;fill:#000;fill-opacity:1;stroke:#000;stroke-width:.96428603;stroke-miterlimit:4;stroke-dasharray:none;stroke-opacity:1;filter:url(#filter7474)" id="path7463" d="m 214.00001,125.69898 -54.00002,24.30114 v 21.60038 37.79926 l 53.99814,24.29926 h 0.002 l 54.00002,-24.29926 v -59.39964 h -0.002 z m 0,67.50002 h 0.002 l -0.002,20.79995 z"/><path style="fill:url(#radialGradient4775);fill-opacity:1;stroke:none;stroke-width:1.00000024" id="path5401" d="m 217,140.69922 -56,25.20117 V 188.30078 227.5 L 217,252.69922 260,224 272.99805,188.30078 v -22.40039 z" transform="matrix(0.96428603,0,0,0.96428603,4.7499423,-9.9750873)"/><path id="path5403" d="m 214.00403,174.60029 53.99601,-24.59993 v 0 l -53.99601,-24.29993 -54.00205,24.29993 v 0 z" style="opacity:.4;fill:#d3c3ab;fill-opacity:1;stroke:none;stroke-width:.96428621"/><path id="path5405" d="m 268.00004,150.00036 v 59.39979 l -54.00205,24.29992 4.5e-4,-4.40299 0.006,-54.69679 z" style="fill:url(#linearGradient4777);fill-opacity:1;stroke:none;stroke-width:.96428621"/><path style="opacity:.4;fill:none;fill-opacity:1;stroke:url(#linearGradient4779);stroke-width:.96428603;stroke-miterlimit:4;stroke-dasharray:none;stroke-opacity:1;filter:url(#filter5552)" id="path5523" d="M 206,139.69922 152,164 v 21.59961 37.80078 l 53.99805,24.29883 H 206 l 54,-24.29883 V 164 h -0.002 z" clip-path="url(#clipPath5532)" transform="translate(8,-14)"/><path id="path7772" d="m 159.99999,209.88193 53.99814,24.29926 h 0.002 l 54.00002,-24.29926" style="opacity:.8;fill:none;fill-opacity:1;stroke:#594739;stroke-width:.96428603;stroke-miterlimit:4;stroke-dasharray:none;stroke-opacity:1;filter:url(#filter7774)"/><path style="opacity:.2;fill:none;fill-opacity:1;stroke:#000;stroke-width:.48214301;stroke-miterlimit:4;stroke-dasharray:none;stroke-opacity:1;filter:url(#filter4664)" id="path4662" d="m 186.99999,162.20597 53.3005,-24.5424"/><path id="path4668" d="m 186.80278,161.7995 53.3005,-24.5424" style="opacity:.1;fill:none;fill-opacity:1;stroke:#fff;stroke-width:.48214301;stroke-miterlimit:4;stroke-dasharray:none;stroke-opacity:1;filter:url(#filter4664)"/><path id="path4670" d="m 187,161.66783 -27.00203,-11.61956 27.00202,12.39878 z" style="opacity:.5;fill:#594739;fill-opacity:1;stroke:none;stroke-width:.96428621"/><path style="opacity:.1;fill:#e8decc;fill-opacity:1;stroke:none;stroke-width:.96428621" id="path4781" d="m 187,161.66783 53.99601,-24.59993 v 0 l -26.99198,-11.36747 -54.00205,24.29993 v 0 z"/></g><use id="use7244" width="100%" height="100%" x="0" y="0" transform="translate(-112)" xlink:href="#g7242"/><path style="opacity:.5;fill:#594739;fill-opacity:1;fill-rule:nonzero;stroke:none;stroke-width:.25000003" id="path5409" d="m 263,159.82021 -2.46876,4.6641 0.46876,-0.21092 1,-0.44532 v 1.00001 4.9688 l 2,-0.89064 v -4.96879 -1 l 1,-0.44532 0.43748,-0.19532 z m -6,2.6719 -2.46876,4.6641 0.46876,-0.21092 1,-0.44532 v 1.00001 4.96879 l 2,-0.89063 v -4.96879 -1.00001 l 1,-0.44532 0.43748,-0.19532 z m 8.99216,7.53912 L 254,175.37503 v 1.96877 L 266,172 Z"/><path id="path7248" d="m 149,161.82021 -2.46876,4.6641 0.46876,-0.21092 1,-0.44532 v 1.00001 4.9688 l 2,-0.89064 v -4.96879 -1 l 1,-0.44532 0.43748,-0.19532 z m -6,2.6719 -2.46876,4.6641 0.46876,-0.21092 1,-0.44532 v 1.00001 4.96879 l 2,-0.89063 v -4.96879 -1.00001 l 1,-0.44532 0.43748,-0.19532 z m 8.99216,7.53912 L 140,177.37503 v 1.96877 L 152,174 Z" style="opacity:.5;fill:#594739;fill-opacity:1;fill-rule:nonzero;stroke:none;stroke-width:.25000003"/><path style="opacity:.5;fill:#594739;fill-opacity:1;fill-rule:nonzero;stroke:none;stroke-width:.25000003" id="path7250" d="m 207,75.82021 -2.46876,4.6641 0.46876,-0.21092 1,-0.44532 v 1.00001 4.9688 l 2,-0.89064 v -4.96879 -1 l 1,-0.44532 0.43748,-0.19532 z m -6,2.6719 -2.46876,4.6641 0.46876,-0.21092 1,-0.44532 v 1.00001 4.96879 l 2,-0.89063 v -4.96879 -1.00001 l 1,-0.44532 0.43748,-0.19532 z m 8.99216,7.53912 L 198,91.37503 V 93.3438 L 210,88 Z"/></g></g></g><g style="display:inline" id="g6274" transform="translate(0,20)"><g style="display:none" id="g6112"><rect id="rect6092" width="32" height="32" x="720" y="116" style="display:inline;overflow:visible;visibility:visible;fill:#eeeeec;fill-opacity:1;fill-rule:nonzero;stroke:none;stroke-width:2;marker:none;enable-background:accumulate"/><rect style="display:inline;overflow:visible;visibility:visible;fill:#eeeeec;fill-opacity:1;fill-rule:nonzero;stroke:none;stroke-width:2;marker:none;enable-background:accumulate" id="rect6094" width="22" height="22" x="721" y="173.059"/><rect id="rect6096" width="16" height="16" x="720" y="220" style="display:inline;overflow:visible;visibility:visible;fill:#eeeeec;fill-opacity:1;fill-rule:nonzero;stroke:none;stroke-width:2;marker:none;enable-background:accumulate"/><rect id="rect6098" width="24" height="24" x="720" y="172" style="display:inline;overflow:visible;visibility:visible;fill:#eeeeec;fill-opacity:1;fill-rule:nonzero;stroke:none;stroke-width:2;marker:none;enable-background:accumulate"/><text id="text6102" x="431.856" y="-65.7" xml:space="preserve" style="font-style:normal;font-variant:normal;font-weight:400;font-stretch:normal;font-size:13.33333302px;line-height:125%;font-family:monospace;-inkscape-font-specification:monospace;text-align:start;writing-mode:lr-tb;text-anchor:start;display:inline;fill:#000;fill-opacity:1;stroke:none;enable-background:new"><tspan style="font-weight:700" id="tspan6100" x="431.856" y="-65.7">apps</tspan></text><text style="font-style:normal;font-variant:normal;font-weight:400;font-stretch:normal;font-size:13.33333302px;line-height:125%;font-family:monospace;-inkscape-font-specification:monospace;text-align:start;writing-mode:lr-tb;text-anchor:start;display:inline;fill:#000;fill-opacity:1;stroke:none;enable-background:new" id="text6106" x="431.265" y="-39.901" xml:space="preserve"><tspan id="tspan6104" x="431.265" y="-39.901">system-software-update</tspan></text><rect id="rect6108" width="256" height="256" x="432" y="12" style="display:inline;overflow:visible;visibility:visible;fill:#eeeeec;fill-opacity:1;fill-rule:nonzero;stroke:none;stroke-width:1.99999976;marker:none;enable-background:accumulate"/><rect style="display:inline;overflow:visible;visibility:visible;fill:#eeeeec;fill-opacity:1;fill-rule:nonzero;stroke:none;stroke-width:2;marker:none;enable-background:accumulate" id="rect6110" width="48" height="48" x="44" y="720" transform="matrix(0,1,1,0,0,0)"/></g><g style="display:inline" id="g6272"><use style="display:inline;enable-background:new" id="use7328" width="100%" height="100%" x="0" y="0" transform="translate(399,1)" xlink:href="#g7326"/></g><g id="layer2"><path style="display:inline;opacity:.2;fill:#000;fill-opacity:1;stroke:#000;stroke-width:1;stroke-linejoin:round;stroke-opacity:1;enable-background:new" id="path6693" d="m 746.564,60.470221 h 4.003 l -0.006,9.9498 h 8.0005 l 0.006,-9.9498 h 3.997 l -8.0005,-9.0002 z"/><path id="path6604" d="m 560,95 h 24 v 62 c 0,2 2,2 2,2 h 44 c 0,0 2,0 2,-2 V 95 h 24 L 608,39 Z" style="display:inline;opacity:.2;fill:#000;fill-opacity:1;stroke:none;stroke-width:.99999994;stroke-linejoin:round;stroke-opacity:1;filter:url(#filter6614);enable-background:new"/><path style="display:inline;fill:#4092d0;fill-opacity:1;stroke:#015faf;stroke-width:1;stroke-linejoin:round;stroke-opacity:1;enable-background:new" id="path4762" d="m 748.50045,127.44997 h -3.003 l 0.006,7.05003 h -6.0005 l -0.006,-7.05003 h -2.997 l 6.0005,-7.89997 z"/><path id="path4764" d="m 738.57219,126.50667 3.92826,-5.45667 3.94713,5.54639" style="display:inline;opacity:.2;fill:none;fill-rule:evenodd;stroke:#fff;stroke-width:1px;stroke-linecap:round;stroke-linejoin:miter;stroke-opacity:1;enable-background:new"/><path id="path4929" d="m 735.35513,226.50764 h -1.90141 l 0.003,2.99968 H 730.468 l -0.003,-2.99968 h -1.89856 l 3.39446,-5.04845 z" style="display:inline;fill:#4092d0;fill-opacity:1;stroke:#015faf;stroke-width:.99999994;stroke-linejoin:round;stroke-opacity:1;enable-background:new"/><path style="display:inline;opacity:.2;fill:none;fill-rule:evenodd;stroke:#fff;stroke-width:.99999994px;stroke-linecap:round;stroke-linejoin:miter;stroke-opacity:1;enable-background:new" id="path4909" d="m 730.54661,225.56334 1.37305,-2.56865 1.36764,2.54556"/><path id="path4951" d="m 746.564,59.470221 h 4.003 l -0.006,9.9498 h 8.0005 l 0.006,-9.9498 h 3.997 l -8.0005,-9.0002 z" style="display:inline;fill:#4092d0;fill-opacity:1;stroke:#015faf;stroke-width:1;stroke-linejoin:round;stroke-opacity:1;enable-background:new"/><path style="display:inline;opacity:.2;fill:none;fill-rule:evenodd;stroke:#fff;stroke-width:1px;stroke-linecap:round;stroke-linejoin:miter;stroke-opacity:1;enable-background:new" id="path4935" d="m 748.70246,58.50667 5.79799,-6.45667 5.83314,6.54639"/><path style="display:inline;fill:#4092d0;fill-opacity:1;stroke:#015faf;stroke-width:1;stroke-linejoin:round;stroke-opacity:1;enable-background:new" id="path4963" d="m 731.49056,181.5 h 2.98188 l 0.0276,5 h 4.02756 l -0.0276,-5 h 2.99056 l -5.01034,-6.74575 z"/><path id="path4965" d="m 733.46901,180.58889 3.00854,-4.40277 2.9536,4.33511" style="display:inline;opacity:.2;fill:none;fill-rule:evenodd;stroke:#fff;stroke-width:1px;stroke-linecap:round;stroke-linejoin:miter;stroke-opacity:1;enable-background:new"/><path id="path6626" d="m 560,93 h 24 v 62 c 0,2 2,2 2,2 h 44 c 0,0 2,0 2,-2 V 93 h 24 L 608,37 Z" style="display:inline;opacity:.2;fill:#000;fill-opacity:1;stroke:none;stroke-width:.99999994;stroke-linejoin:round;stroke-opacity:1;filter:url(#filter6630);enable-background:new"/><path style="display:inline;fill:url(#linearGradient6624);fill-opacity:1;stroke:none;stroke-width:.99999994;stroke-linejoin:round;stroke-opacity:1;enable-background:new" id="path6584" d="m 560,92 h 24 v 62 c 0,2 2,2 2,2 h 44 c 0,0 2,0 2,-2 V 92 h 24 L 608,36 Z"/><path style="display:inline;opacity:.5;fill:#fff;fill-opacity:1;stroke:none;stroke-width:.99999994;stroke-linejoin:round;stroke-opacity:1;enable-background:new" id="path6634" d="m 608,36 -48,56 h 0.85742 L 608,37 655.14258,92 H 656 Z"/></g></g></svg>