<svg xmlns="http://www.w3.org/2000/svg" xmlns:svg="http://www.w3.org/2000/svg" xmlns:xlink="http://www.w3.org/1999/xlink" id="svg11300" width="800" height="320" version="1.0" viewBox="0 0 800 320" style="display:inline;enable-background:new"><title id="title4162">Solus Icon Template</title><defs id="defs3"><linearGradient id="linearGradient4734"><stop id="stop4726" offset="0" style="stop-color:#fff;stop-opacity:1"/><stop style="stop-color:#fff;stop-opacity:1" id="stop4728" offset=".519"/><stop style="stop-color:#fff;stop-opacity:.07207207" id="stop4730" offset=".519"/><stop id="stop4732" offset="1" style="stop-color:#fff;stop-opacity:.0990991"/></linearGradient><linearGradient id="linearGradient5090"><stop style="stop-color:#050d18;stop-opacity:1" id="stop5086" offset="0"/><stop style="stop-color:#545e6c;stop-opacity:1" id="stop5088" offset="1"/></linearGradient><linearGradient id="linearGradient4759"><stop id="stop4755" offset="0" style="stop-color:#222528;stop-opacity:1"/><stop id="stop4757" offset="1" style="stop-color:#131619;stop-opacity:1"/></linearGradient><linearGradient id="linearGradient4502"><stop style="stop-color:#4f555d;stop-opacity:1" id="stop4498" offset="0"/><stop style="stop-color:#9da6b3;stop-opacity:1" id="stop4500" offset="1"/></linearGradient><filter style="color-interpolation-filters:sRGB" id="filter4838" width="1.229" height="1.252" x="-.115" y="-.126"><feGaussianBlur id="feGaussianBlur4840" stdDeviation=".429"/></filter><filter style="color-interpolation-filters:sRGB" id="filter4697" width="1.022" height="1.026" x="-.011" y="-.013"><feGaussianBlur id="feGaussianBlur4699" stdDeviation="1.12"/></filter><clipPath id="clipPath4707" clipPathUnits="userSpaceOnUse"><rect style="display:inline;opacity:1;fill:url(#linearGradient4711);fill-opacity:1;stroke:none;stroke-width:.99999994;stroke-linecap:round;stroke-linejoin:miter;stroke-miterlimit:4;stroke-dasharray:none;stroke-dashoffset:0;stroke-opacity:1;enable-background:new" id="rect4709" width="240" height="208" x="40" y="36" rx="4" ry="4"/></clipPath><linearGradient id="linearGradient4711" x1="329" x2="329" y1="235" y2="221" gradientTransform="matrix(15,0,0,15.714286,-4760,-3436.8571)" gradientUnits="userSpaceOnUse" xlink:href="#linearGradient4502"/><filter style="color-interpolation-filters:sRGB" id="filter4832" width="1.108" height="1.135" x="-.054" y="-.067"><feGaussianBlur id="feGaussianBlur4834" stdDeviation="1.351"/></filter><linearGradient id="linearGradient4618" x1="329" x2="329" y1="235" y2="221" gradientTransform="matrix(1.75,0,0,1.7142858,-238,-258.85715)" gradientUnits="userSpaceOnUse" xlink:href="#linearGradient4502"/><linearGradient id="linearGradient4620" x1="332" x2="332" y1="175" y2="193" gradientTransform="matrix(1.2727273,0,0,1.2,-86.545454,-88.8)" gradientUnits="userSpaceOnUse" xlink:href="#linearGradient4759"/><linearGradient id="linearGradient4622" x1="329" x2="329" y1="235" y2="221" gradientTransform="matrix(15,0,0,15.714286,-4760,-3436.8571)" gradientUnits="userSpaceOnUse" xlink:href="#linearGradient4502"/><linearGradient id="linearGradient4624" x1="160" x2="160" y1="52" y2="228" gradientTransform="translate(0,1)" gradientUnits="userSpaceOnUse" xlink:href="#linearGradient4759"/><linearGradient id="linearGradient4626" x1="329" x2="329" y1="235" y2="221" gradientTransform="matrix(2.75,0,0,2.857143,-558,-583.42858)" gradientUnits="userSpaceOnUse" xlink:href="#linearGradient4502"/><linearGradient id="linearGradient4628" x1="344" x2="344" y1="48" y2="88" gradientUnits="userSpaceOnUse" xlink:href="#linearGradient4759"/><linearGradient id="linearGradient4630" x1="329" x2="329" y1="235" y2="221" gradientTransform="matrix(1.375,0,0,1.4285715,-119,-141.71429)" gradientUnits="userSpaceOnUse" xlink:href="#linearGradient4502"/><linearGradient id="linearGradient4632" x1="332" x2="332" y1="175" y2="193" gradientUnits="userSpaceOnUse" xlink:href="#linearGradient4759"/><linearGradient id="linearGradient4634" x1="329" x2="329" y1="235" y2="221" gradientUnits="userSpaceOnUse" xlink:href="#linearGradient4502"/><linearGradient id="linearGradient4636" x1="328" x2="328" y1="222" y2="234" gradientUnits="userSpaceOnUse" xlink:href="#linearGradient4759"/><linearGradient id="linearGradient5308" x1="344" x2="344" y1="88" y2="48" gradientUnits="userSpaceOnUse" xlink:href="#linearGradient5090"/><linearGradient id="linearGradient5412" x1="336" x2="336" y1="144" y2="120" gradientUnits="userSpaceOnUse" xlink:href="#linearGradient5090"/><linearGradient id="linearGradient5536" x1="332" x2="332" y1="192" y2="176" gradientUnits="userSpaceOnUse" xlink:href="#linearGradient5090"/><linearGradient id="linearGradient5610" x1="328" x2="328" y1="236" y2="220" gradientUnits="userSpaceOnUse" xlink:href="#linearGradient5090"/><linearGradient id="linearGradient4724" x1="346" x2="346" y1="49" y2="51" gradientUnits="userSpaceOnUse" xlink:href="#linearGradient4734"/></defs><metadata id="metadata4"/><g id="layer2" style="display:none"><rect style="opacity:1;fill:#333;fill-opacity:1;stroke:none;stroke-width:1;stroke-linecap:round;stroke-linejoin:miter;stroke-miterlimit:4;stroke-dasharray:none;stroke-dashoffset:0;stroke-opacity:1" id="rect4576" width="800" height="320" x="0" y="0"/></g><g id="layer1" transform="translate(0,20)" style="display:inline"><g id="layer7" style="display:none"><rect style="display:inline;overflow:visible;visibility:visible;fill:#eeeeec;fill-opacity:1;fill-rule:nonzero;stroke:none;stroke-width:2;marker:none;enable-background:accumulate" id="rect6592" width="32" height="32" x="320" y="116"/><rect id="rect6749" width="22" height="22" x="321" y="173.059" style="display:inline;overflow:visible;visibility:visible;fill:#eeeeec;fill-opacity:1;fill-rule:nonzero;stroke:none;stroke-width:2;marker:none;enable-background:accumulate"/><rect style="display:inline;overflow:visible;visibility:visible;fill:#eeeeec;fill-opacity:1;fill-rule:nonzero;stroke:none;stroke-width:2;marker:none;enable-background:accumulate" id="rect6833" width="16" height="16" x="320" y="220"/><rect style="display:inline;overflow:visible;visibility:visible;fill:#eeeeec;fill-opacity:1;fill-rule:nonzero;stroke:none;stroke-width:2;marker:none;enable-background:accumulate" id="rect8104" width="24" height="24" x="320" y="172"/><text style="font-style:normal;font-variant:normal;font-weight:400;font-stretch:normal;font-size:13.33333302px;line-height:125%;font-family:monospace;-inkscape-font-specification:monospace;text-align:start;writing-mode:lr-tb;text-anchor:start;display:inline;fill:#000;fill-opacity:1;stroke:none;enable-background:new" id="context" x="31.856" y="-65.7" xml:space="preserve"><tspan id="tspan2716" x="31.856" y="-65.7" style="font-weight:700">apps</tspan></text><text id="text3021" x="31.265" y="-39.901" xml:space="preserve" style="font-style:normal;font-variant:normal;font-weight:400;font-stretch:normal;font-size:13.33333302px;line-height:125%;font-family:monospace;-inkscape-font-specification:monospace;text-align:start;writing-mode:lr-tb;text-anchor:start;display:inline;fill:#000;fill-opacity:1;stroke:none;enable-background:new"><tspan id="tspan3023" x="31.265" y="-39.901">utilities-terminal</tspan></text><rect style="display:inline;overflow:visible;visibility:visible;fill:#eeeeec;fill-opacity:1;fill-rule:nonzero;stroke:none;stroke-width:1.99999976;marker:none;enable-background:accumulate" id="rect13805" width="256" height="256" x="32" y="12"/><rect id="rect6284" width="48" height="48" x="44" y="320" transform="matrix(0,1,1,0,0,0)" style="display:inline;overflow:visible;visibility:visible;fill:#eeeeec;fill-opacity:1;fill-rule:nonzero;stroke:none;stroke-width:2;marker:none;enable-background:accumulate"/></g><g id="layer9" style="display:inline"><g id="g4816"><rect id="rect4717" width="42" height="38" x="323" y="50" ry="1.5" style="display:inline;opacity:.05;fill:none;fill-opacity:1;stroke:#000;stroke-width:2;stroke-linecap:round;stroke-linejoin:miter;stroke-miterlimit:4;stroke-dasharray:none;stroke-dashoffset:0;stroke-opacity:1;enable-background:new"/><rect style="display:inline;opacity:.7;fill:none;fill-opacity:1;stroke:url(#linearGradient5308);stroke-width:2;stroke-linecap:round;stroke-linejoin:miter;stroke-miterlimit:4;stroke-dasharray:none;stroke-dashoffset:0;stroke-opacity:1;enable-background:new" id="rect4711" width="42" height="38" x="323" y="49" ry="1"/><rect id="rect4749" width="20" height="18" x="322" y="176" rx="1" ry="1" style="display:inline;opacity:.4;fill:#000;fill-opacity:1;stroke:none;stroke-width:.99999994;stroke-linecap:round;stroke-linejoin:miter;stroke-miterlimit:4;stroke-dasharray:none;stroke-dashoffset:0;stroke-opacity:1;enable-background:new"/><rect id="rect4747" width="20" height="18" x="322" y="175" rx="1" ry="1" style="display:inline;opacity:.7;fill:none;fill-opacity:1;stroke:url(#linearGradient5536);stroke-width:2;stroke-linecap:round;stroke-linejoin:miter;stroke-miterlimit:4;stroke-dasharray:none;stroke-dashoffset:0;stroke-opacity:1;enable-background:new"/><rect style="display:inline;opacity:.4;fill:#000;fill-opacity:1;stroke:none;stroke-width:1;stroke-linecap:round;stroke-linejoin:miter;stroke-miterlimit:4;stroke-dasharray:none;stroke-dashoffset:0;stroke-opacity:1;enable-background:new" id="rect4743" width="14" height="12" x="321" y="223" ry="1"/><rect style="display:inline;opacity:.8;fill:none;fill-opacity:1;stroke:url(#linearGradient5610);stroke-width:2;stroke-linecap:round;stroke-linejoin:round;stroke-miterlimit:4;stroke-dasharray:none;stroke-dashoffset:0;stroke-opacity:1;enable-background:new" id="rect4741" width="14" height="12" x="321" y="222"/><rect id="rect4737" width="26" height="22" x="323" y="122" rx="1" ry="1" style="display:inline;opacity:.05;fill:none;fill-opacity:1;stroke:#000;stroke-width:2;stroke-linecap:round;stroke-linejoin:miter;stroke-miterlimit:4;stroke-dasharray:none;stroke-dashoffset:0;stroke-opacity:1;enable-background:new"/><rect style="display:inline;opacity:.4;fill:#40474f;fill-opacity:1;stroke:none;stroke-width:1;stroke-linecap:round;stroke-linejoin:miter;stroke-miterlimit:4;stroke-dasharray:none;stroke-dashoffset:0;stroke-opacity:1;enable-background:new" id="rect4723" width="26" height="22" x="323" y="122" rx="1" ry="1"/><rect style="display:inline;opacity:.7;fill:none;fill-opacity:1;stroke:url(#linearGradient5412);stroke-width:2;stroke-linecap:round;stroke-linejoin:miter;stroke-miterlimit:4;stroke-dasharray:none;stroke-dashoffset:0;stroke-opacity:1;enable-background:new" id="rect4721" width="26" height="22" x="323" y="121" rx="1" ry="1"/><rect style="display:inline;opacity:.4;fill:#000;fill-opacity:1;stroke:none;stroke-width:.99999994;stroke-linecap:round;stroke-linejoin:miter;stroke-miterlimit:4;stroke-dasharray:none;stroke-dashoffset:0;stroke-opacity:1;enable-background:new" id="rect4713" width="42" height="38" x="323" y="50" ry="1"/><rect id="rect4809" width="26" height="22" x="323" y="121" rx="1" ry="1" style="display:inline;opacity:1;fill:url(#linearGradient4618);fill-opacity:1;stroke:none;stroke-width:1;stroke-linecap:round;stroke-linejoin:miter;stroke-miterlimit:4;stroke-dasharray:none;stroke-dashoffset:0;stroke-opacity:1;enable-background:new"/><rect style="opacity:.8;fill:url(#linearGradient4620);fill-opacity:1;stroke:none;stroke-width:1;stroke-linecap:round;stroke-linejoin:miter;stroke-miterlimit:4;stroke-dasharray:none;stroke-dashoffset:0;stroke-opacity:1" id="rect4811" width="24" height="20" x="324" y="122"/><rect id="rect4689" width="240" height="208" x="40" y="37" ry="8" style="display:inline;opacity:.4;fill:#000;fill-opacity:1;stroke:none;stroke-width:2;stroke-linecap:round;stroke-linejoin:miter;stroke-miterlimit:4;stroke-dasharray:none;stroke-dashoffset:0;stroke-opacity:1;filter:url(#filter4697);enable-background:new"/><rect style="display:inline;opacity:1;fill:url(#linearGradient4622);fill-opacity:1;stroke:none;stroke-width:.99999994;stroke-linecap:round;stroke-linejoin:miter;stroke-miterlimit:4;stroke-dasharray:none;stroke-dashoffset:0;stroke-opacity:1;enable-background:new" id="rect4679" width="240" height="208" x="40" y="36" ry="8"/><rect id="rect4681" width="224" height="193" x="48" y="44" ry="2" style="opacity:.8;fill:url(#linearGradient4624);fill-opacity:1;stroke:none;stroke-width:.99999994;stroke-linecap:round;stroke-linejoin:miter;stroke-miterlimit:4;stroke-dasharray:none;stroke-dashoffset:0;stroke-opacity:1"/><rect id="rect4649" width="42" height="38" x="323" y="49" ry="1" style="display:inline;opacity:1;fill:url(#linearGradient4626);fill-opacity:1;stroke:none;stroke-width:.99999994;stroke-linecap:round;stroke-linejoin:miter;stroke-miterlimit:4;stroke-dasharray:none;stroke-dashoffset:0;stroke-opacity:1;enable-background:new"/><rect style="opacity:.8;fill:url(#linearGradient4628);fill-opacity:1;stroke:none;stroke-width:1;stroke-linecap:round;stroke-linejoin:miter;stroke-miterlimit:4;stroke-dasharray:none;stroke-dashoffset:0;stroke-opacity:1" id="rect4651" width="38" height="34" x="325" y="51"/><rect style="display:inline;opacity:1;fill:url(#linearGradient4630);fill-opacity:1;stroke:none;stroke-width:.99999994;stroke-linecap:round;stroke-linejoin:miter;stroke-miterlimit:4;stroke-dasharray:none;stroke-dashoffset:0;stroke-opacity:1;enable-background:new" id="rect4639" width="20" height="18" x="322" y="175" rx="1" ry="1"/><rect id="rect4643" width="18" height="16" x="323" y="176" style="opacity:.8;fill:url(#linearGradient4632);fill-opacity:1;stroke:none;stroke-width:1;stroke-linecap:round;stroke-linejoin:miter;stroke-miterlimit:4;stroke-dasharray:none;stroke-dashoffset:0;stroke-opacity:1"/><rect id="rect4496" width="14" height="12" x="321" y="222" style="display:inline;opacity:1;fill:url(#linearGradient4634);fill-opacity:1;stroke:none;stroke-width:1;stroke-linecap:round;stroke-linejoin:miter;stroke-miterlimit:4;stroke-dasharray:none;stroke-dashoffset:0;stroke-opacity:1;enable-background:new"/><rect id="rect4506" width="12" height="10" x="322" y="223" style="display:inline;opacity:.8;fill:url(#linearGradient4636);fill-opacity:1;stroke:none;stroke-width:1;stroke-linecap:round;stroke-linejoin:miter;stroke-miterlimit:4;stroke-dasharray:none;stroke-dashoffset:0;stroke-opacity:1;enable-background:new"/><path id="path4851" d="m 325,85.5 h 38" style="opacity:.3;fill:none;fill-rule:evenodd;stroke:#fff;stroke-width:1px;stroke-linecap:butt;stroke-linejoin:miter;stroke-opacity:1"/><path id="rect4853" d="m 48,234 v 1 c 0,1.108 0.892,2 2,2 h 220 c 1.108,0 2,-0.892 2,-2 v -1 c 0,1.108 -0.892,2 -2,2 H 50 c -1.108,0 -2,-0.892 -2,-2 z" style="opacity:.2;fill:#fff;fill-opacity:1;stroke:none;stroke-width:.99999994;stroke-linecap:round;stroke-linejoin:miter;stroke-miterlimit:4;stroke-dasharray:none;stroke-dashoffset:0;stroke-opacity:1"/><path id="rect4862" d="m 40,235 v 1 c 0,4.432 3.568,8 8,8 h 224 c 4.432,0 8,-3.568 8,-8 v -1 c 0,4.432 -3.568,8 -8,8 H 48 c -4.432,0 -8,-3.568 -8,-8 z" style="display:inline;opacity:.2;fill:#000;fill-opacity:1;stroke:none;stroke-width:.99999994;stroke-linecap:round;stroke-linejoin:miter;stroke-miterlimit:4;stroke-dasharray:none;stroke-dashoffset:0;stroke-opacity:1;enable-background:new"/><path style="display:inline;opacity:.2;fill:#fff;fill-opacity:1;stroke:none;stroke-width:.99999994;stroke-linecap:round;stroke-linejoin:miter;stroke-miterlimit:4;stroke-dasharray:none;stroke-dashoffset:0;stroke-opacity:1;enable-background:new" id="path4871" d="m 40,45 v -1 c 0,-4.432 3.568,-8 8,-8 h 224 c 4.432,0 8,3.568 8,8 v 1 c 0,-4.432 -3.568,-8 -8,-8 H 48 c -4.432,0 -8,3.568 -8,8 z"/><rect style="display:inline;opacity:.4;fill:none;fill-opacity:1;stroke:url(#linearGradient4724);stroke-width:1;stroke-linecap:round;stroke-linejoin:round;stroke-miterlimit:4;stroke-dasharray:none;stroke-dashoffset:0;stroke-opacity:1;enable-background:new" id="rect4824" width="41" height="37" x="323.5" y="49.5" ry=".5"/></g></g><g id="layer4" style="display:inline"><g style="display:inline;enable-background:new" id="g4763"><path style="font-style:normal;font-variant:normal;font-weight:400;font-stretch:normal;font-size:medium;font-family:'Andale Mono';-inkscape-font-specification:'Andale Mono';fill:#fff;fill-opacity:1;stroke:none;stroke-width:1" id="path4992" d="m 323.26286,223.82213 v 0.48169 l 1.70749,1.22772 -1.70749,1.1982 v 0.49242 l 2.12828,-1.50546 v -0.40253 z M 325,228 v 0.4401 h 3 V 228 Z"/><path id="path4994" d="m 575.04883,-106.17773 v 0.70117 l 2.46484,1.78711 -2.46484,1.74414 v 0.71679 l 3.07226,-2.1914 v -0.58594 z m 2.50764,6.08147 v 0.640621 h 4.33063 v -0.640621 z" transform="matrix(0.69274089,0,0,0.68698353,-75.09698,296.76448)" style="font-style:normal;font-variant:normal;font-weight:400;font-stretch:normal;font-size:medium;font-family:'Andale Mono';-inkscape-font-specification:'Andale Mono';fill:#fff;fill-opacity:1;stroke:none;stroke-width:1.44957745;filter:url(#filter4838)"/><path id="path9631" d="m 328.04883,53.822283 v 0.70117 l 2.46484,1.78711 -2.46484,1.74414 v 0.71679 l 3.07226,-2.1914 v -0.58594 z M 332,61.359393 v 0.64062 h 5.04883 v -0.64062 z" style="font-style:normal;font-variant:normal;font-weight:400;font-stretch:normal;font-size:medium;font-family:'Andale Mono';-inkscape-font-specification:'Andale Mono';display:inline;fill:#fff;fill-opacity:1;stroke:none;enable-background:new"/><path style="font-style:normal;font-variant:normal;font-weight:400;font-stretch:normal;font-size:medium;font-family:'Andale Mono';-inkscape-font-specification:'Andale Mono';display:inline;fill:#fff;fill-opacity:1;stroke:none;filter:url(#filter4838);enable-background:new" id="path4832" d="m 328.01817,53.791623 v 0.70117 l 2.46484,1.78711 -2.46484,1.74414 v 0.71679 l 3.07226,-2.1914 v -0.58594 z m 3.95117,7.53711 v 0.64062 h 5.04883 v -0.64062 z"/><path id="path4904" d="m 574.76445,-109.08901 v 0.70117 l 2.46484,1.78711 -2.46484,1.74414 v 0.71679 l 3.07226,-2.1914 v -0.58594 z M 579,-101.5519 v 0.64062 h 5.04883 v -0.64062 z" transform="matrix(0.69274089,0,0,0.68698353,-72.096977,198.76448)" style="font-style:normal;font-variant:normal;font-weight:400;font-stretch:normal;font-size:medium;font-family:'Andale Mono';-inkscape-font-specification:'Andale Mono';fill:#fff;fill-opacity:1;stroke:none;stroke-width:1.44957745;filter:url(#filter4838)"/><path style="font-style:normal;font-variant:normal;font-weight:400;font-stretch:normal;font-size:medium;font-family:'Andale Mono';-inkscape-font-specification:'Andale Mono';fill:#fff;fill-opacity:1;stroke:none;stroke-width:1" id="path4902" d="m 326.06586,123.82213 v 0.48169 l 1.7075,1.22771 -1.7075,1.1982 v 0.49242 l 2.12828,-1.50545 v -0.40253 z M 329,129 v 0.44009 h 3.49753 V 129 Z"/><path id="path4952" d="m 325.26286,177.82213 v 0.4817 l 1.70749,1.22771 -1.70749,1.1982 v 0.49242 l 2.12828,-1.50546 v -0.40253 z M 328,182 v 0.4401 h 3 V 182 Z" style="font-style:normal;font-variant:normal;font-weight:400;font-stretch:normal;font-size:medium;font-family:'Andale Mono';-inkscape-font-specification:'Andale Mono';fill:#fff;fill-opacity:1;stroke:none;stroke-width:1"/><path style="font-style:normal;font-variant:normal;font-weight:400;font-stretch:normal;font-size:medium;font-family:'Andale Mono';-inkscape-font-specification:'Andale Mono';fill:#fff;fill-opacity:1;stroke:none;stroke-width:1.44957745;filter:url(#filter4838)" id="path4954" d="m 575.04883,-106.17773 v 0.70117 l 2.46484,1.78711 -2.46484,1.74414 v 0.71679 l 3.07226,-2.1914 v -0.58594 z M 579,-100.09626 v 0.640621 h 4.33063 v -0.640621 z" transform="matrix(0.69274089,0,0,0.68698353,-73.096975,250.76448)"/><path style="font-style:normal;font-variant:normal;font-weight:400;font-stretch:normal;font-size:medium;font-family:'Andale Mono';-inkscape-font-specification:'Andale Mono';display:inline;fill:#fff;fill-opacity:1;stroke:none;stroke-width:.99999994;enable-background:new" id="path5247" d="M 68,63.932196 V 68 L 84,80 68,92 v 4.13947 L 88,81.49636 V 78.430506 Z M 96,108 v 4 h 27.99456 l -2e-5,-4 z"/><path id="path4830" d="M 68,63.932196 V 68 L 84,80 68,92 v 4.13947 L 88,81.49636 V 78.430506 Z M 96,108 v 4 h 27.99456 l -2e-5,-4 z" style="font-style:normal;font-variant:normal;font-weight:400;font-stretch:normal;font-size:medium;font-family:'Andale Mono';-inkscape-font-specification:'Andale Mono';display:inline;opacity:1;fill:#fff;fill-opacity:1;stroke:none;stroke-width:.99999994;filter:url(#filter4832);enable-background:new"/></g></g></g><g style="display:inline" id="g4626" transform="translate(0,20)"><g style="display:none" id="g4568"><rect id="rect4548" width="32" height="32" x="720" y="116" style="display:inline;overflow:visible;visibility:visible;fill:#eeeeec;fill-opacity:1;fill-rule:nonzero;stroke:none;stroke-width:2;marker:none;enable-background:accumulate"/><rect style="display:inline;overflow:visible;visibility:visible;fill:#eeeeec;fill-opacity:1;fill-rule:nonzero;stroke:none;stroke-width:2;marker:none;enable-background:accumulate" id="rect4550" width="22" height="22" x="721" y="173.059"/><rect id="rect4552" width="16" height="16" x="720" y="220" style="display:inline;overflow:visible;visibility:visible;fill:#eeeeec;fill-opacity:1;fill-rule:nonzero;stroke:none;stroke-width:2;marker:none;enable-background:accumulate"/><rect id="rect4554" width="24" height="24" x="720" y="172" style="display:inline;overflow:visible;visibility:visible;fill:#eeeeec;fill-opacity:1;fill-rule:nonzero;stroke:none;stroke-width:2;marker:none;enable-background:accumulate"/><text id="text4558" x="431.856" y="-65.7" xml:space="preserve" style="font-style:normal;font-variant:normal;font-weight:400;font-stretch:normal;font-size:13.33333302px;line-height:125%;font-family:monospace;-inkscape-font-specification:monospace;text-align:start;writing-mode:lr-tb;text-anchor:start;display:inline;fill:#000;fill-opacity:1;stroke:none;enable-background:new"><tspan style="font-weight:700" id="tspan4556" x="431.856" y="-65.7">apps</tspan></text><text style="font-style:normal;font-variant:normal;font-weight:400;font-stretch:normal;font-size:13.33333302px;line-height:125%;font-family:monospace;-inkscape-font-specification:monospace;text-align:start;writing-mode:lr-tb;text-anchor:start;display:inline;fill:#000;fill-opacity:1;stroke:none;enable-background:new" id="text4562" x="431.265" y="-39.901" xml:space="preserve"><tspan id="tspan4560" x="431.265" y="-39.901">utilities-system-monitor</tspan></text><rect id="rect4564" width="256" height="256" x="432" y="12" style="display:inline;overflow:visible;visibility:visible;fill:#eeeeec;fill-opacity:1;fill-rule:nonzero;stroke:none;stroke-width:1.99999976;marker:none;enable-background:accumulate"/><rect style="display:inline;overflow:visible;visibility:visible;fill:#eeeeec;fill-opacity:1;fill-rule:nonzero;stroke:none;stroke-width:2;marker:none;enable-background:accumulate" id="rect4566" width="48" height="48" x="44" y="720" transform="matrix(0,1,1,0,0,0)"/></g><g style="display:inline" id="g4624"><use style="display:inline;enable-background:new" id="use4818" width="100%" height="100%" x="0" y="0" transform="translate(400)" xlink:href="#g4816"/></g><g id="layer3" style="display:inline"><g id="g4829" transform="translate(5,-48)" style="display:inline;opacity:.1;fill:#967e00;enable-background:new"><rect id="rect4811-2" width="24" height="20" x="719" y="170" style="display:inline;opacity:.8;fill:#967e00;fill-opacity:1;stroke:none;stroke-width:1;stroke-linecap:round;stroke-linejoin:miter;stroke-miterlimit:4;stroke-dasharray:none;stroke-dashoffset:0;stroke-opacity:1;enable-background:new"/><rect style="display:inline;opacity:.8;fill:#967e00;fill-opacity:1;stroke:none;stroke-width:.99999994;stroke-linecap:round;stroke-linejoin:miter;stroke-miterlimit:4;stroke-dasharray:none;stroke-dashoffset:0;stroke-opacity:1;enable-background:new" id="rect4681-9" width="224" height="192" x="443" y="92" rx="2" ry="2"/><rect id="rect4651-1" width="38" height="34" x="720" y="99" style="display:inline;opacity:.8;fill:#967e00;fill-opacity:1;stroke:none;stroke-width:1;stroke-linecap:round;stroke-linejoin:miter;stroke-miterlimit:4;stroke-dasharray:none;stroke-dashoffset:0;stroke-opacity:1;enable-background:new"/><rect style="display:inline;opacity:.8;fill:#967e00;fill-opacity:1;stroke:none;stroke-width:1;stroke-linecap:round;stroke-linejoin:miter;stroke-miterlimit:4;stroke-dasharray:none;stroke-dashoffset:0;stroke-opacity:1;enable-background:new" id="rect4643-2" width="18" height="16" x="718" y="224"/><rect style="display:inline;opacity:.8;fill:#967e00;fill-opacity:1;stroke:none;stroke-width:1;stroke-linecap:round;stroke-linejoin:miter;stroke-miterlimit:4;stroke-dasharray:none;stroke-dashoffset:0;stroke-opacity:1;enable-background:new" id="rect4506-7" width="12" height="10" x="717" y="271"/></g><path style="display:inline;opacity:.8;fill:none;stroke:#fcde8a;stroke-width:1;stroke-linecap:butt;stroke-linejoin:miter;stroke-miterlimit:10;stroke-dasharray:none;stroke-opacity:1;enable-background:new" id="path7337" d="m 725,72.499592 h 7.82 l 3.72,-10.625 2.48,17.000004 2.48,-6.375004 h 7.41 l 2.79,-5.66667 1.24,11.33334 1.86,-5.66667 h 8.2"/><path id="path22106-9-9-1-5" d="m 723,185.49991 h 2.2221 L 728,180 l 1.8058,9.77151 1.8334,-4.2716 h 2.5211 l 2.0626,-3.79697 0.9168,6.59396 1.3751,-2.79699 H 741" style="display:inline;opacity:.8;fill:none;stroke:#fcde8a;stroke-width:1.00000012;stroke-linecap:butt;stroke-linejoin:miter;stroke-miterlimit:10;stroke-dasharray:none;stroke-opacity:1;enable-background:new"/><path id="path22106-9-9-1-5-6" d="m 722,228.52289 h 1.5211 l 1.8959,-3.70489 1.0971,6.28803 1.5972,-2.58314 h 1.1961 l 1.7969,-2.29612 0.7986,4.59225 1.1979,-2.29613 H 734" style="display:inline;opacity:.8;fill:none;stroke:#fcde8a;stroke-width:1.00000012;stroke-linecap:butt;stroke-linejoin:miter;stroke-miterlimit:10;stroke-dasharray:none;stroke-opacity:1;enable-background:new"/><path style="display:inline;opacity:.8;fill:none;stroke:#fcde8a;stroke-width:1.00000012;stroke-linecap:butt;stroke-linejoin:miter;stroke-miterlimit:10;stroke-dasharray:none;stroke-opacity:1;enable-background:new" id="path4735" d="m 724,134.49991 h 4.2221 L 731,128 l 1.8058,10.77151 1.8334,-4.2716 h 4.5211 l 2.0626,-3.79697 0.9168,6.59396 1.3751,-2.79699 H 748"/><path id="path4737" d="m 448,166 h 49.392 L 518.224,93.54163 532.112,209.47505 546,166 h 41.496 l 15.624,-38.64448 6.944,77.28897 L 620.48,166 H 672" style="display:inline;opacity:.8;fill:none;stroke:#fcde8a;stroke-width:4;stroke-linecap:butt;stroke-linejoin:miter;stroke-miterlimit:10;stroke-dasharray:none;stroke-opacity:1;enable-background:new"/></g></g></svg>