<svg xmlns="http://www.w3.org/2000/svg" xmlns:svg="http://www.w3.org/2000/svg" xmlns:xlink="http://www.w3.org/1999/xlink" id="svg11300" width="400" height="320" version="1.0" viewBox="0 0 400 320" style="display:inline;enable-background:new"><title id="title4162">Solus Icon Template</title><defs id="defs3"><linearGradient id="linearGradient4568"><stop style="stop-color:#ffe000;stop-opacity:1" id="stop4564" offset="0"/><stop style="stop-color:#f9c000;stop-opacity:1" id="stop4566" offset="1"/></linearGradient><linearGradient id="linearGradient4524" x1="328" x2="328" y1="221" y2="235" gradientTransform="matrix(0.875,0,0,0.875,41,28.5)" gradientUnits="userSpaceOnUse" xlink:href="#linearGradient4568"/><linearGradient id="linearGradient4530" x1="328" x2="328" y1="221" y2="235" gradientTransform="matrix(1.25,0,0,1.25,-78,-101)" gradientUnits="userSpaceOnUse" xlink:href="#linearGradient4568"/><linearGradient id="linearGradient4536" x1="328" x2="328" y1="221" y2="235" gradientTransform="matrix(1.625,0,0,1.625,-197,-238.5)" gradientUnits="userSpaceOnUse" xlink:href="#linearGradient4568"/><linearGradient id="linearGradient4540" x1="328" x2="328" y1="221" y2="235" gradientTransform="matrix(2.625,0,0,2.625,-517.00001,-530.50002)" gradientUnits="userSpaceOnUse" xlink:href="#linearGradient4568"/><linearGradient id="linearGradient4544" x1="328" x2="328" y1="221" y2="235" gradientTransform="matrix(14.25,0,0,14.25,-4514.0001,-3109.0001)" gradientUnits="userSpaceOnUse" xlink:href="#linearGradient4568"/><filter style="color-interpolation-filters:sRGB" id="filter4576" width="1.024" height="1.024" x="-.012" y="-.012"><feGaussianBlur id="feGaussianBlur4578" stdDeviation="1.14"/></filter><filter style="color-interpolation-filters:sRGB" id="filter4582" width="1.12" height="1.12" x="-.06" y="-.06"><feGaussianBlur id="feGaussianBlur4584" stdDeviation="5.7"/></filter></defs><metadata id="metadata4"/><g id="layer2" style="display:none"><rect style="opacity:1;fill:#4f555d;fill-opacity:1;stroke:none;stroke-width:2;stroke-linecap:round;stroke-linejoin:miter;stroke-miterlimit:4;stroke-dasharray:none;stroke-dashoffset:0;stroke-opacity:1" id="rect6022" width="400" height="320" x="0" y="0"/></g><g id="layer1" transform="translate(0,20)" style="display:inline"><g id="layer7" style="display:none"><rect style="display:inline;overflow:visible;visibility:visible;fill:#eeeeec;fill-opacity:1;fill-rule:nonzero;stroke:none;stroke-width:2;marker:none;enable-background:accumulate" id="rect6592" width="32" height="32" x="320" y="116"/><rect id="rect6749" width="22" height="22" x="321" y="173.059" style="display:inline;overflow:visible;visibility:visible;fill:#eeeeec;fill-opacity:1;fill-rule:nonzero;stroke:none;stroke-width:2;marker:none;enable-background:accumulate"/><rect style="display:inline;overflow:visible;visibility:visible;fill:#eeeeec;fill-opacity:1;fill-rule:nonzero;stroke:none;stroke-width:2;marker:none;enable-background:accumulate" id="rect6833" width="16" height="16" x="320" y="220"/><rect style="display:inline;overflow:visible;visibility:visible;fill:#eeeeec;fill-opacity:1;fill-rule:nonzero;stroke:none;stroke-width:2;marker:none;enable-background:accumulate" id="rect8104" width="24" height="24" x="320" y="172"/><text style="font-style:normal;font-variant:normal;font-weight:400;font-stretch:normal;font-size:13.33333302px;line-height:125%;font-family:monospace;-inkscape-font-specification:monospace;text-align:start;writing-mode:lr-tb;text-anchor:start;display:inline;fill:#000;fill-opacity:1;stroke:none;enable-background:new" id="context" x="31.856" y="-65.7" xml:space="preserve"><tspan id="tspan2716" x="31.856" y="-65.7" style="font-weight:700">categories</tspan></text><text id="text3021" x="31.265" y="-39.901" xml:space="preserve" style="font-style:normal;font-variant:normal;font-weight:400;font-stretch:normal;font-size:13.33333302px;line-height:125%;font-family:monospace;-inkscape-font-specification:monospace;text-align:start;writing-mode:lr-tb;text-anchor:start;display:inline;fill:#000;fill-opacity:1;stroke:none;enable-background:new"><tspan id="tspan3023" x="31.265" y="-39.901">preferences-system-power</tspan></text><rect style="display:inline;overflow:visible;visibility:visible;fill:#eeeeec;fill-opacity:1;fill-rule:nonzero;stroke:none;stroke-width:1.99999976;marker:none;enable-background:accumulate" id="rect13805" width="256" height="256" x="32" y="12"/><rect id="rect6284" width="48" height="48" x="44" y="320" transform="matrix(0,1,1,0,0,0)" style="display:inline;overflow:visible;visibility:visible;fill:#eeeeec;fill-opacity:1;fill-rule:nonzero;stroke:none;stroke-width:2;marker:none;enable-background:accumulate"/></g><g id="layer9" style="display:inline"><circle id="circle6017" cx="328" cy="229" r="7" style="display:inline;opacity:.4;fill:#56533d;fill-opacity:1;stroke:none;stroke-width:1;stroke-linecap:round;stroke-linejoin:miter;stroke-miterlimit:4;stroke-dasharray:none;stroke-dashoffset:0;stroke-opacity:1;enable-background:new"/><circle id="circle6006" cx="328" cy="228" r="7" style="display:inline;opacity:.6;fill:none;fill-opacity:1;stroke:#564900;stroke-width:2;stroke-linecap:round;stroke-linejoin:miter;stroke-miterlimit:4;stroke-dasharray:none;stroke-dashoffset:0;stroke-opacity:1;enable-background:new"/><circle style="display:inline;opacity:.4;fill:#000;fill-opacity:1;stroke:none;stroke-width:1;stroke-linecap:round;stroke-linejoin:miter;stroke-miterlimit:4;stroke-dasharray:none;stroke-dashoffset:0;stroke-opacity:1;enable-background:new" id="circle6000" cx="332" cy="185" r="10"/><circle style="display:inline;opacity:.6;fill:none;fill-opacity:1;stroke:#564900;stroke-width:2;stroke-linecap:round;stroke-linejoin:miter;stroke-miterlimit:4;stroke-dasharray:none;stroke-dashoffset:0;stroke-opacity:1;enable-background:new" id="circle5989" cx="332" cy="184" r="10"/><circle id="circle5987" cx="336" cy="133" r="13" style="display:inline;opacity:.4;fill:#000;fill-opacity:1;stroke:none;stroke-width:1;stroke-linecap:round;stroke-linejoin:miter;stroke-miterlimit:4;stroke-dasharray:none;stroke-dashoffset:0;stroke-opacity:1;enable-background:new"/><circle style="display:inline;opacity:.4;fill:#000;fill-opacity:1;stroke:none;stroke-width:1;stroke-linecap:round;stroke-linejoin:miter;stroke-miterlimit:4;stroke-dasharray:none;stroke-dashoffset:0;stroke-opacity:1;enable-background:new" id="circle4527" cx="344" cy="69" r="21"/><circle style="display:inline;opacity:.6;fill:none;fill-opacity:1;stroke:#564900;stroke-width:2;stroke-linecap:round;stroke-linejoin:miter;stroke-miterlimit:4;stroke-dasharray:none;stroke-dashoffset:0;stroke-opacity:1;enable-background:new" id="circle4523" cx="344" cy="68" r="21"/><circle id="circle4525" cx="336" cy="132" r="13" style="display:inline;opacity:.6;fill:none;fill-opacity:1;stroke:#564900;stroke-width:2;stroke-linecap:round;stroke-linejoin:miter;stroke-miterlimit:4;stroke-dasharray:none;stroke-dashoffset:0;stroke-opacity:1;enable-background:new"/><circle style="display:inline;opacity:.2;fill:#000;fill-opacity:1;stroke:#000;stroke-width:1;stroke-linecap:round;stroke-linejoin:miter;stroke-miterlimit:4;stroke-dasharray:none;stroke-dashoffset:0;stroke-opacity:1;filter:url(#filter4582);enable-background:new" id="circle4580" cx="160" cy="142" r="114"/><circle id="circle4572" cx="160" cy="141" r="114" style="display:inline;opacity:.5;fill:#000;fill-opacity:1;stroke:#000;stroke-width:1;stroke-linecap:round;stroke-linejoin:miter;stroke-miterlimit:4;stroke-dasharray:none;stroke-dashoffset:0;stroke-opacity:1;filter:url(#filter4576);enable-background:new"/><circle style="display:inline;opacity:1;fill:url(#linearGradient4524);fill-opacity:1;stroke:none;stroke-width:1;stroke-linecap:round;stroke-linejoin:miter;stroke-miterlimit:4;stroke-dasharray:none;stroke-dashoffset:0;stroke-opacity:1;enable-background:new" id="path4510" cx="328" cy="228" r="7"/><circle id="circle4528" cx="332" cy="184" r="10" style="display:inline;opacity:1;fill:url(#linearGradient4530);fill-opacity:1;stroke:none;stroke-width:1;stroke-linecap:round;stroke-linejoin:miter;stroke-miterlimit:4;stroke-dasharray:none;stroke-dashoffset:0;stroke-opacity:1;enable-background:new"/><circle style="display:inline;opacity:1;fill:url(#linearGradient4536);fill-opacity:1;stroke:none;stroke-width:1;stroke-linecap:round;stroke-linejoin:miter;stroke-miterlimit:4;stroke-dasharray:none;stroke-dashoffset:0;stroke-opacity:1;enable-background:new" id="circle4534" cx="336" cy="132" r="13"/><circle id="circle4538" cx="344" cy="68" r="21" style="display:inline;opacity:1;fill:url(#linearGradient4540);fill-opacity:1;stroke:none;stroke-width:1;stroke-linecap:round;stroke-linejoin:miter;stroke-miterlimit:4;stroke-dasharray:none;stroke-dashoffset:0;stroke-opacity:1;enable-background:new"/><circle style="display:inline;opacity:1;fill:url(#linearGradient4544);fill-opacity:1;stroke:none;stroke-width:1;stroke-linecap:round;stroke-linejoin:miter;stroke-miterlimit:4;stroke-dasharray:none;stroke-dashoffset:0;stroke-opacity:1;enable-background:new" id="circle4542" cx="160" cy="140" r="114"/><path style="display:inline;opacity:.4;fill:#fff;fill-opacity:1;stroke:none;stroke-width:1;stroke-linecap:round;stroke-linejoin:miter;stroke-miterlimit:4;stroke-dasharray:none;stroke-dashoffset:0;stroke-opacity:1;enable-background:new" id="circle5967" d="M 344 67 A 21 21 0 0 0 323 88 A 21 21 0 0 0 323.02148 88.585938 A 21 21 0 0 1 344 68 A 21 21 0 0 1 364.97852 88.414062 A 21 21 0 0 0 365 88 A 21 21 0 0 0 344 67 z" transform="translate(0,-20)"/><path style="display:inline;opacity:.4;fill:#fff;fill-opacity:1;stroke:none;stroke-width:1;stroke-linecap:round;stroke-linejoin:miter;stroke-miterlimit:4;stroke-dasharray:none;stroke-dashoffset:0;stroke-opacity:1;enable-background:new" id="circle5976" d="M 336 139 A 13 13 0 0 0 323 152 A 13 13 0 0 0 323.02148 152.58008 A 13 13 0 0 1 336 140 A 13 13 0 0 1 348.97852 152.41992 A 13 13 0 0 0 349 152 A 13 13 0 0 0 336 139 z" transform="translate(0,-20)"/><path style="display:inline;opacity:.4;fill:#f5f5f5;fill-opacity:1;stroke:none;stroke-width:1;stroke-linecap:round;stroke-linejoin:miter;stroke-miterlimit:4;stroke-dasharray:none;stroke-dashoffset:0;stroke-opacity:1;enable-background:new" id="circle5991" d="M 332 194 A 10 10 0 0 0 322 204 A 10 10 0 0 0 322.02148 204.58594 A 10 10 0 0 1 332 195 A 10 10 0 0 1 341.97852 204.41406 A 10 10 0 0 0 342 204 A 10 10 0 0 0 332 194 z" transform="translate(0,-20)"/><path style="display:inline;opacity:.4;fill:#fff;fill-opacity:1;stroke:none;stroke-width:1;stroke-linecap:round;stroke-linejoin:miter;stroke-miterlimit:4;stroke-dasharray:none;stroke-dashoffset:0;stroke-opacity:1;enable-background:new" id="circle6008" d="M 328 241 A 7 7 0 0 0 321 248 A 7 7 0 0 0 321.02344 248.54102 A 7 7 0 0 1 328 242 A 7 7 0 0 1 334.97656 248.45898 A 7 7 0 0 0 335 248 A 7 7 0 0 0 328 241 z" transform="translate(0,-20)"/></g><g id="layer3" style="display:inline"><path style="display:inline;opacity:.4;fill:#fff;fill-opacity:1;stroke:none;stroke-width:1;enable-background:new" id="path4579" d="M 170.07905,63.00007 162,129 202.62994,129.0394 149.92095,223.00002 158,157 117.37007,156.9604 Z"/><path id="path3580" d="M 170.07905,62.00007 162,128 202.62994,128.0394 149.92095,222.00002 158,156 117.37007,155.9604 Z" style="display:inline;fill:#333;fill-opacity:1;stroke:none;stroke-width:1;enable-background:new"/><path id="path6024" d="m 328,225 v 3 h 3 l -3,5 v -3 h -3 z" style="color:#000;display:inline;overflow:visible;visibility:visible;opacity:.4;fill:#fff;fill-opacity:1;fill-rule:nonzero;stroke:none;stroke-width:2;marker:none;filter:url(#filter7554);enable-background:accumulate"/><path style="color:#000;display:inline;overflow:visible;visibility:visible;opacity:1;fill:#333;fill-opacity:1;fill-rule:nonzero;stroke:none;stroke-width:2;marker:none;filter:url(#filter7554);enable-background:accumulate" id="path3299" d="m 328,224 v 3 h 3 l -3,5 v -3 h -3 z"/><path id="path6026" d="m 345.76382,55 -1.41382,11.9965 7.11021,0.007 -9.22404,15.9965 1.41384,-11.9965 -7.11023,-0.007 z" style="display:inline;opacity:.4;fill:#fff;fill-opacity:1;stroke:none;stroke-width:1;enable-background:new"/><path style="display:inline;fill:#333;fill-opacity:1;stroke:none;stroke-width:1;enable-background:new" id="path4562" d="m 345.76382,54 -1.41382,11.9965 7.11021,0.007 -9.22404,15.9965 1.41384,-11.9965 -7.11023,-0.007 z"/><path style="display:inline;opacity:.4;fill:#fff;fill-opacity:1;stroke:none;stroke-width:1;enable-background:new" id="path6028" d="m 332.88191,177.99975 -0.70691,5.99825 3.55511,0.004 -4.61203,7.99825 0.70692,-5.99825 -3.55511,-0.004 z"/><path id="path4600" d="m 332.88191,176.99975 -0.70691,5.99825 3.55511,0.004 -4.61203,7.99825 0.70692,-5.99825 -3.55511,-0.004 z" style="display:inline;fill:#333;fill-opacity:1;stroke:none;stroke-width:1;enable-background:new"/><path id="path6030" d="m 337.07089,124.00012 -0.8584,7.01246 4.31692,0.004 -5.60031,10.98329 0.85841,-6.99097 -4.31693,-0.004 z" style="display:inline;opacity:.4;fill:#fff;fill-opacity:1;stroke:none;stroke-width:1;enable-background:new"/><path style="display:inline;fill:#333;fill-opacity:1;stroke:none;stroke-width:1;enable-background:new" id="path4617" d="m 337.07089,123.00012 -0.8584,7.01246 4.31692,0.004 -5.60031,10.98329 0.85841,-6.99097 -4.31693,-0.004 z"/></g></g></svg>