<svg xmlns="http://www.w3.org/2000/svg" xmlns:osb="http://www.openswatchbook.org/uri/2009/osb" xmlns:svg="http://www.w3.org/2000/svg" id="svg7384" width="16" height="16" version="1.1" style="enable-background:new"><metadata id="metadata90"/><title id="title8473">Solus Symbolic Icon Theme</title><defs id="defs7386"><linearGradient id="linearGradient6882" osb:paint="solid"><stop id="stop6884" offset="0" style="stop-color:#555;stop-opacity:1"/></linearGradient><linearGradient id="linearGradient5606" osb:paint="solid"><stop id="stop5608" offset="0" style="stop-color:#000;stop-opacity:1"/></linearGradient><filter id="filter7554" style="color-interpolation-filters:sRGB"><feBlend id="feBlend7556" in2="BackgroundImage" mode="darken"/></filter></defs><g id="layer1" transform="translate(-412,-274)" style="display:inline"><path id="path6944" d="m 413.5,275.5 c 0,0 -1,0 -1,1 v 2.5 l 13.99997,3e-5 v -0.5 c 0,-1 -1,-1 -1,-1 L 420,277.5 c -1,0 -2.00003,-1.99997 -3,-2 z" style="color:#000;font-style:normal;font-variant:normal;font-weight:400;font-stretch:normal;font-size:medium;line-height:normal;font-family:Sans;-inkscape-font-specification:Sans;text-indent:0;text-align:start;text-decoration:none;text-decoration-line:none;letter-spacing:normal;word-spacing:normal;text-transform:none;writing-mode:lr-tb;direction:ltr;baseline-shift:baseline;text-anchor:start;display:inline;overflow:visible;visibility:visible;opacity:.4;fill:#4f555d;fill-opacity:1;stroke:none;stroke-width:1;stroke-miterlimit:4;stroke-dasharray:none;stroke-opacity:1;marker:none;enable-background:accumulate"/><path id="path5057-4" d="m 413.5,275 c 0,0 -0.3534,-0.007 -0.72266,0.17773 C 412.40809,275.36236 412,275.83333 412,276.5 v 11 c 0,0 -0.007,0.3534 0.17773,0.72266 C 412.36236,288.59191 412.83333,289 413.5,289 h 12 c 0,0 0.3534,0.007 0.72266,-0.17773 C 426.59191,288.63764 427,288.16667 427,287.5 v -9 c 0,-0.66667 -0.40809,-1.13764 -0.77734,-1.32227 C 425.8534,276.99311 425.5,277 425.5,277 H 420 c -0.0833,0 -0.24189,-0.0574 -0.44922,-0.21289 -0.20733,-0.1555 -0.44727,-0.39062 -0.69726,-0.64063 -0.25,-0.25 -0.51008,-0.51487 -0.80274,-0.73437 C 417.75812,275.19261 417.41666,275.00001 417,275 Z m 0,1 h 3.5 c 0.0833,0 0.24189,0.0574 0.44922,0.21289 0.20733,0.15551 0.44727,0.39062 0.69726,0.64063 0.25,0.25 0.51007,0.51487 0.80274,0.73437 C 419.24189,277.80739 419.58333,278 420,278 h 5.5 c 0,0 0.1466,0.007 0.27734,0.0723 0.13075,0.0654 0.22266,0.0944 0.22266,0.42773 v 9 c 0,0.33333 -0.0919,0.36236 -0.22266,0.42773 C 425.6466,287.99311 425.5,288 425.5,288 h -12 c -0.33333,0 -0.36236,-0.0939 -0.42773,-0.22461 C 413.00689,287.64465 413,287.5 413,287.5 v -11 c 0,-0.33333 0.0939,-0.36236 0.22461,-0.42773 C 413.35535,276.00689 413.5,276 413.5,276 Z" style="color:#000;font-style:normal;font-variant:normal;font-weight:400;font-stretch:normal;font-size:medium;line-height:normal;font-family:Sans;-inkscape-font-specification:Sans;font-variant-ligatures:normal;font-variant-position:normal;font-variant-caps:normal;font-variant-numeric:normal;font-variant-alternates:normal;font-feature-settings:normal;text-indent:0;text-align:start;text-decoration:none;text-decoration-line:none;text-decoration-style:solid;text-decoration-color:#000;letter-spacing:normal;word-spacing:normal;text-transform:none;writing-mode:lr-tb;direction:ltr;text-orientation:mixed;dominant-baseline:auto;baseline-shift:baseline;text-anchor:start;white-space:normal;shape-padding:0;clip-rule:nonzero;display:inline;overflow:visible;visibility:visible;opacity:1;isolation:auto;mix-blend-mode:normal;color-interpolation:sRGB;color-interpolation-filters:linearRGB;solid-color:#000;solid-opacity:1;vector-effect:none;fill:#4f555d;fill-opacity:1;fill-rule:nonzero;stroke:none;stroke-width:1;stroke-linecap:butt;stroke-linejoin:miter;stroke-miterlimit:4;stroke-dasharray:none;stroke-dashoffset:0;stroke-opacity:1;marker:none;color-rendering:auto;image-rendering:auto;shape-rendering:auto;text-rendering:auto;enable-background:accumulate"/><path id="rect6568" d="m 412.5,279 h 14 v 1 h -14 z" style="opacity:1;fill:#4f555d;fill-opacity:1;stroke:none;stroke-width:1;stroke-linecap:round;stroke-linejoin:round;stroke-miterlimit:4;stroke-dasharray:none;stroke-dashoffset:0;stroke-opacity:1"/><path id="rect6573" d="m 413,280 12.99997,3e-5 v 8 L 413,288 Z" style="opacity:.2;fill:#4f555d;fill-opacity:1;stroke:none;stroke-width:1;stroke-linecap:round;stroke-linejoin:round;stroke-miterlimit:4;stroke-dasharray:none;stroke-dashoffset:0;stroke-opacity:1"/></g></svg>