<svg xmlns="http://www.w3.org/2000/svg" xmlns:osb="http://www.openswatchbook.org/uri/2009/osb" xmlns:svg="http://www.w3.org/2000/svg" id="svg7384" width="16" height="16" version="1.1" style="enable-background:new"><metadata id="metadata90"/><title id="title8473">Solus Symbolic Icon Theme</title><defs id="defs7386"><linearGradient id="linearGradient5606" osb:paint="solid"><stop id="stop5608" offset="0" style="stop-color:#000;stop-opacity:1"/></linearGradient><filter id="filter7554" style="color-interpolation-filters:sRGB"><feBlend id="feBlend7556" in2="BackgroundImage" mode="darken"/></filter></defs><g id="layer1" transform="translate(-564,-182)" style="display:inline"><path id="path27918-2-0" d="m 570.48934,182.99716 c 3.02885,0 5.53125,2.47458 5.53125,5.5 0,1.14986 -0.38921,2.20784 -1,3.09375 l 3.6875,3.6875 a 1.0054782,1.0054782 0 1 1 -1.40625,1.4375 l -3.6875,-3.6875 c -0.88729,0.61091 -1.973,0.96875 -3.125,0.96875 -3.02886,0 -5.5,-2.47459 -5.5,-5.5 0,-3.02542 2.47114,-5.5 5.5,-5.5 z m 0,2 c -1.94736,0 -3.5,1.55485 -3.5,3.5 0,1.94514 1.55264,3.5 3.5,3.5 1.94735,0 3.5,-1.55486 3.5,-3.5 0,-1.94515 -1.55265,-3.5 -3.5,-3.5 z" style="color:#000;font-style:normal;font-variant:normal;font-weight:400;font-stretch:normal;font-size:medium;line-height:normal;font-family:Sans;-inkscape-font-specification:Sans;text-indent:0;text-align:start;text-decoration:none;text-decoration-line:none;letter-spacing:normal;word-spacing:normal;text-transform:none;direction:ltr;block-progression:tb;writing-mode:lr-tb;baseline-shift:baseline;text-anchor:start;display:inline;overflow:visible;visibility:visible;fill:#4c5263;fill-opacity:1;stroke:none;stroke-width:1.55467153;marker:none;enable-background:new"/></g></svg>