<svg xmlns="http://www.w3.org/2000/svg" xmlns:osb="http://www.openswatchbook.org/uri/2009/osb" xmlns:svg="http://www.w3.org/2000/svg" id="svg7384" width="16" height="16" version="1.1" style="enable-background:new"><metadata id="metadata90"/><title id="title8473">Solus Symbolic Icon Theme</title><defs id="defs7386"><linearGradient id="linearGradient6882" osb:paint="solid"><stop id="stop6884" offset="0" style="stop-color:#4c5263;stop-opacity:1"/></linearGradient><linearGradient id="linearGradient5606" osb:paint="solid"><stop id="stop5608" offset="0" style="stop-color:#000;stop-opacity:1"/></linearGradient><filter id="filter7554" style="color-interpolation-filters:sRGB"><feBlend id="feBlend7556" in2="BackgroundImage" mode="darken"/></filter></defs><g id="layer1" transform="translate(-684,58)" style="display:inline"><path id="path6366-7" d="m 693,-57 a 7,7 0 0 0 -7,7 l -2,0 3,4 3,-4 -2,0 a 5,5 0 0 1 5,-5 5,5 0 0 1 5,5 5,5 0 0 1 -5,5 l 0,2 a 7,7 0 0 0 7,-7 7,7 0 0 0 -7,-7 z m -1,3.5 0,4.267578 3.22266,2.148438 0.55468,-0.832032 L 693,-49.767578 693,-53.5 l -1,0 z" style="display:inline;fill:#4d4d4d;fill-opacity:1;stroke:none;enable-background:new"/></g></svg>