<svg xmlns="http://www.w3.org/2000/svg" xmlns:osb="http://www.openswatchbook.org/uri/2009/osb" xmlns:svg="http://www.w3.org/2000/svg" id="svg7384" width="16" height="16" version="1.1" style="enable-background:new"><metadata id="metadata90"/><title id="title8473">Solus Symbolic Icon Theme</title><defs id="defs7386"><linearGradient id="linearGradient6882" osb:paint="solid"><stop id="stop6884" offset="0" style="stop-color:#555;stop-opacity:1"/></linearGradient><linearGradient id="linearGradient5606" osb:paint="solid"><stop id="stop5608" offset="0" style="stop-color:#000;stop-opacity:1"/></linearGradient><filter id="filter7554" style="color-interpolation-filters:sRGB"><feBlend id="feBlend7556" in2="BackgroundImage" mode="darken"/></filter></defs><g id="layer1" transform="translate(-684.00018,38)" style="display:inline"><path id="path7041" d="m 687,-35 c -1.0312,0.0625 -1,1 -1,1 v 6 4 c 0,0 -0.0312,0.9375 1,1 h 10 c 1,0 1,-1 1,-1 v -4 -6 c 0,0 0,-1 -1,-1 h -3 l 0.75,1 H 697 v 7 h -3 c 0,1.108 -0.892,2 -2,2 -1.108,0 -2,-0.892 -2,-2 h -3 v -7 h 2.5 l 1,-1 z" style="fill:#4c5263;fill-opacity:1;fill-rule:evenodd;stroke:none"/><path id="path7045" d="m 691,-27 a 1.0001,1.0001 0 0 1 -1,-1 v -3 h -1 a 1.0001,1.0001 0 0 1 -0.83203,-1.55469 l 3,-4.499998 a 1.0001,1.0001 0 0 1 1.66406,0 l 3,4.499998 A 1.0001,1.0001 0 0 1 695,-31 h -1 v 3 a 1.0001,1.0001 0 0 1 -1,1 z m 0,-1 h 2 v -4 h 2 l -3,-4.5 -3,4.5 h 2 z" style="color:#000;font-style:normal;font-variant:normal;font-weight:400;font-stretch:normal;font-size:medium;line-height:normal;font-family:sans-serif;font-variant-ligatures:normal;font-variant-position:normal;font-variant-caps:normal;font-variant-numeric:normal;font-variant-alternates:normal;font-feature-settings:normal;text-indent:0;text-align:start;text-decoration:none;text-decoration-line:none;text-decoration-style:solid;text-decoration-color:#000;letter-spacing:normal;word-spacing:normal;text-transform:none;writing-mode:lr-tb;direction:ltr;text-orientation:mixed;dominant-baseline:auto;baseline-shift:baseline;text-anchor:start;white-space:normal;shape-padding:0;clip-rule:nonzero;display:inline;overflow:visible;visibility:visible;opacity:1;isolation:auto;mix-blend-mode:normal;color-interpolation:sRGB;color-interpolation-filters:linearRGB;solid-color:#000;solid-opacity:1;vector-effect:none;fill:#4c5263;fill-opacity:1;fill-rule:nonzero;stroke:none;stroke-width:2;stroke-linecap:butt;stroke-linejoin:round;stroke-miterlimit:4;stroke-dasharray:none;stroke-dashoffset:0;stroke-opacity:1;color-rendering:auto;image-rendering:auto;shape-rendering:auto;text-rendering:auto;enable-background:accumulate"/><path id="rect7049" d="M 686.5,-34.5 V -24 h 11 V -34.5 H 694 l 1.25,2 c 0.44284,0.664553 0.54863,0.999828 -0.25,1 h -1.5 v 3 c -6e-5,0.55226 -0.44774,0.99994 -1,1 h -1 c -0.55226,-6e-5 -0.99994,-0.4477 -1,-1 v -3 H 689 c -0.79859,-1.72e-4 -0.69283,-0.335447 -0.25,-1 l 1.25,-2 z" style="opacity:.2;fill:#4c5263;fill-opacity:1;stroke:none;stroke-width:2;stroke-linecap:round;stroke-linejoin:round;stroke-miterlimit:4;stroke-dasharray:none;stroke-dashoffset:0;stroke-opacity:1"/></g></svg>