<svg xmlns="http://www.w3.org/2000/svg" xmlns:osb="http://www.openswatchbook.org/uri/2009/osb" xmlns:svg="http://www.w3.org/2000/svg" id="svg7384" width="16" height="16" version="1.1" style="enable-background:new"><metadata id="metadata90"/><title id="title8473">Solus Symbolic Icon Theme</title><defs id="defs7386"><linearGradient id="linearGradient5606" osb:paint="solid"><stop id="stop5608" offset="0" style="stop-color:#000;stop-opacity:1"/></linearGradient><filter id="filter7554" style="color-interpolation-filters:sRGB"><feBlend id="feBlend7556" in2="BackgroundImage" mode="darken"/></filter></defs><g id="layer1" transform="translate(-604.00018,-182)" style="display:inline"><path id="path6520" d="m 608,182 0,1 1,0 5.99805,0 1.00195,0 0,-1 -8,0 z m 0,2 0,1 1,0 5.99805,0 1.00195,0 0,-1 -8,0 z m 0,2 0,5 8,0 0,-5 -8,0 z m 1,1 3,1.5 2.99805,-1.5 0,1 -2.99805,1.5 -3,-1.5 0,-1 z" style="opacity:1;fill:#4c5263;fill-opacity:1;stroke:none;stroke-width:2;stroke-miterlimit:4;stroke-dasharray:none;stroke-opacity:1"/><path id="path6513" d="m 606,183 c -1.0312,0.0625 -1,1 -1,1 l 0,8 0,4 c 0,0 -0.0312,0.9375 1,1 l 12,0 c 1,0 1,-1 1,-1 l 0,-4 0,-8 c 0,0 0,-1 -1,-1 l -1,0 0,2 0,1.75 0,5.25 -1,0 -0.15625,0 -0.84375,0 -1,0 c 0,1.108 -0.892,2 -2,2 -1.108,0 -2,-0.892 -2,-2 l -1,0 -0.84375,0 -1.15625,0 0,-5.25 0,-1.75 0,-2 -1,0 z" style="fill:#4c5263;fill-opacity:1;fill-rule:evenodd;stroke:none"/></g></svg>