<svg xmlns="http://www.w3.org/2000/svg" xmlns:osb="http://www.openswatchbook.org/uri/2009/osb" xmlns:svg="http://www.w3.org/2000/svg" id="svg7384" width="16.003" height="16" version="1.1" style="enable-background:new"><metadata id="metadata90"/><title id="title8473">Solus Symbolic Icon Theme</title><defs id="defs7386"><linearGradient id="linearGradient6882" osb:paint="solid"><stop id="stop6884" offset="0" style="stop-color:#555;stop-opacity:1"/></linearGradient><linearGradient id="linearGradient5606" osb:paint="solid"><stop id="stop5608" offset="0" style="stop-color:#000;stop-opacity:1"/></linearGradient><filter id="filter7554" style="color-interpolation-filters:sRGB"><feBlend id="feBlend7556" in2="BackgroundImage" mode="darken"/></filter></defs><g id="layer1" transform="translate(-124.00004,37.998352)" style="display:inline"><path id="path6495" d="M 134.5,-34.5 H 132 c -0.5,0 -0.5,0.5 -0.5,0.5 v 2 c 0,0 0,0.5 0.5,0.5 h 2.5 v 2.25 l 5,-3.75 -5,-3.5 z" style="opacity:.4;fill:#4c5263;fill-opacity:1;fill-rule:evenodd;stroke:none;stroke-width:1px;stroke-linecap:butt;stroke-linejoin:round;stroke-opacity:1"/><path id="path6497" d="m 129.48438,-32 a 0.50005,0.50005 0 0 0 -0.27149,0.08984 l -5,3.5 a 0.50005,0.50005 0 0 0 -0.0137,0.810547 l 5,3.75 A 0.50005,0.50005 0 0 0 130,-24.25 V -26 h 2.25 c 0.41667,0 0.76264,-0.283087 0.88477,-0.527344 C 133.25689,-26.771601 133.25,-27 133.25,-27 v -2 c 0,0 0.007,-0.228399 -0.11523,-0.472656 C 133.01264,-29.716913 132.66667,-30 132.25,-30 H 130 v -1.5 A 0.50005,0.50005 0 0 0 129.48438,-32 Z M 129,-30.539062 V -29.5 a 0.50005,0.50005 0 0 0 0.5,0.5 h 2.75 v 2 h -2.75 a 0.50005,0.50005 0 0 0 -0.5,0.5 v 1.25 l -3.64648,-2.736328 z" style="color:#000;font-style:normal;font-variant:normal;font-weight:400;font-stretch:normal;font-size:medium;line-height:normal;font-family:sans-serif;font-variant-ligatures:normal;font-variant-position:normal;font-variant-caps:normal;font-variant-numeric:normal;font-variant-alternates:normal;font-feature-settings:normal;text-indent:0;text-align:start;text-decoration:none;text-decoration-line:none;text-decoration-style:solid;text-decoration-color:#000;letter-spacing:normal;word-spacing:normal;text-transform:none;writing-mode:lr-tb;direction:ltr;text-orientation:mixed;dominant-baseline:auto;baseline-shift:baseline;text-anchor:start;white-space:normal;shape-padding:0;clip-rule:nonzero;display:inline;overflow:visible;visibility:visible;opacity:1;isolation:auto;mix-blend-mode:normal;color-interpolation:sRGB;color-interpolation-filters:linearRGB;solid-color:#000;solid-opacity:1;vector-effect:none;fill:#4c5263;fill-opacity:1;fill-rule:evenodd;stroke:none;stroke-width:1px;stroke-linecap:butt;stroke-linejoin:round;stroke-miterlimit:4;stroke-dasharray:none;stroke-dashoffset:0;stroke-opacity:1;color-rendering:auto;image-rendering:auto;shape-rendering:auto;text-rendering:auto;enable-background:accumulate"/><path id="path6500" d="M 134.50586,-37 A 0.50005,0.50005 0 0 0 134,-36.5 v 1.5 h -2 c -0.41667,0 -0.76264,0.283087 -0.88477,0.527344 C 130.99311,-34.228399 131,-34 131,-34 v 2 c 0,0 -0.007,0.228399 0.11523,0.472656 C 131.23736,-31.283087 131.58333,-31 132,-31 h 2 v 1.75 a 0.50005,0.50005 0 0 0 0.80078,0.400391 l 5,-3.75 a 0.50005,0.50005 0 0 0 -0.0137,-0.810547 l -5,-3.5 A 0.50005,0.50005 0 0 0 134.50586,-37 Z M 135,-35.539062 138.64648,-32.986328 135,-30.25 V -31.5 A 0.50005,0.50005 0 0 0 134.5,-32 H 132 v -2 h 2.5 a 0.50005,0.50005 0 0 0 0.5,-0.5 z" style="color:#000;font-style:normal;font-variant:normal;font-weight:400;font-stretch:normal;font-size:medium;line-height:normal;font-family:sans-serif;font-variant-ligatures:normal;font-variant-position:normal;font-variant-caps:normal;font-variant-numeric:normal;font-variant-alternates:normal;font-feature-settings:normal;text-indent:0;text-align:start;text-decoration:none;text-decoration-line:none;text-decoration-style:solid;text-decoration-color:#000;letter-spacing:normal;word-spacing:normal;text-transform:none;writing-mode:lr-tb;direction:ltr;text-orientation:mixed;dominant-baseline:auto;baseline-shift:baseline;text-anchor:start;white-space:normal;shape-padding:0;clip-rule:nonzero;display:inline;overflow:visible;visibility:visible;opacity:1;isolation:auto;mix-blend-mode:normal;color-interpolation:sRGB;color-interpolation-filters:linearRGB;solid-color:#000;solid-opacity:1;vector-effect:none;fill:#4c5263;fill-opacity:1;fill-rule:evenodd;stroke:none;stroke-width:1px;stroke-linecap:butt;stroke-linejoin:round;stroke-miterlimit:4;stroke-dasharray:none;stroke-dashoffset:0;stroke-opacity:1;color-rendering:auto;image-rendering:auto;shape-rendering:auto;text-rendering:auto;enable-background:accumulate"/></g></svg>