<svg xmlns="http://www.w3.org/2000/svg" xmlns:osb="http://www.openswatchbook.org/uri/2009/osb" xmlns:svg="http://www.w3.org/2000/svg" id="svg7384" width="16.003" height="16" version="1.1" style="enable-background:new"><metadata id="metadata90"/><title id="title8473">Solus Symbolic Icon Theme</title><defs id="defs7386"><linearGradient id="linearGradient6882" osb:paint="solid"><stop id="stop6884" offset="0" style="stop-color:#555;stop-opacity:1"/></linearGradient><linearGradient id="linearGradient5606" osb:paint="solid"><stop id="stop5608" offset="0" style="stop-color:#000;stop-opacity:1"/></linearGradient><filter id="filter7554" style="color-interpolation-filters:sRGB"><feBlend id="feBlend7556" in2="BackgroundImage" mode="darken"/></filter></defs><g id="layer1" transform="translate(-24.000035,37.998352)" style="display:inline"><path id="path6551" d="m 29.484375,-32 a 0.50005,0.50005 0 0 0 -0.271484,0.08984 l -5,3.5 a 0.50005,0.50005 0 0 0 -0.01367,0.810547 l 5,3.75 A 0.50005,0.50005 0 0 0 30,-24.25 V -26 h 2.25 c 0.416667,0 0.762637,-0.283087 0.884766,-0.527344 C 33.256894,-26.771601 33.25,-27 33.25,-27 v -2 c 0,0 0.0069,-0.228399 -0.115234,-0.472656 C 33.012637,-29.716913 32.666667,-30 32.25,-30 H 30 v -1.5 A 0.50005,0.50005 0 0 0 29.484375,-32 Z M 29,-30.539062 V -29.5 a 0.50005,0.50005 0 0 0 0.5,0.5 h 2.75 v 2 H 29.5 a 0.50005,0.50005 0 0 0 -0.5,0.5 v 1.25 l -3.646484,-2.736328 z" style="color:#000;font-style:normal;font-variant:normal;font-weight:400;font-stretch:normal;font-size:medium;line-height:normal;font-family:sans-serif;font-variant-ligatures:normal;font-variant-position:normal;font-variant-caps:normal;font-variant-numeric:normal;font-variant-alternates:normal;font-feature-settings:normal;text-indent:0;text-align:start;text-decoration:none;text-decoration-line:none;text-decoration-style:solid;text-decoration-color:#000;letter-spacing:normal;word-spacing:normal;text-transform:none;writing-mode:lr-tb;direction:ltr;text-orientation:mixed;dominant-baseline:auto;baseline-shift:baseline;text-anchor:start;white-space:normal;shape-padding:0;clip-rule:nonzero;display:inline;overflow:visible;visibility:visible;opacity:.4;isolation:auto;mix-blend-mode:normal;color-interpolation:sRGB;color-interpolation-filters:linearRGB;solid-color:#000;solid-opacity:1;vector-effect:none;fill:#4c5263;fill-opacity:1;fill-rule:evenodd;stroke:none;stroke-width:1px;stroke-linecap:butt;stroke-linejoin:round;stroke-miterlimit:4;stroke-dasharray:none;stroke-dashoffset:0;stroke-opacity:1;color-rendering:auto;image-rendering:auto;shape-rendering:auto;text-rendering:auto;enable-background:accumulate"/><path id="path6554" d="M 34.505859,-37 A 0.50005,0.50005 0 0 0 34,-36.5 v 1.5 h -2 c -0.416667,0 -0.762637,0.283087 -0.884766,0.527344 C 30.993106,-34.228399 31,-34 31,-34 v 2 c 0,0 -0.0069,0.228399 0.115234,0.472656 C 31.237363,-31.283087 31.583333,-31 32,-31 h 2 v 1.75 a 0.50005,0.50005 0 0 0 0.800781,0.400391 l 5,-3.75 a 0.50005,0.50005 0 0 0 -0.01367,-0.810547 l -5,-3.5 A 0.50005,0.50005 0 0 0 34.505859,-37 Z M 35,-35.539062 38.646484,-32.986328 35,-30.25 V -31.5 A 0.50005,0.50005 0 0 0 34.5,-32 H 32 v -2 h 2.5 a 0.50005,0.50005 0 0 0 0.5,-0.5 z" style="color:#000;font-style:normal;font-variant:normal;font-weight:400;font-stretch:normal;font-size:medium;line-height:normal;font-family:sans-serif;font-variant-ligatures:normal;font-variant-position:normal;font-variant-caps:normal;font-variant-numeric:normal;font-variant-alternates:normal;font-feature-settings:normal;text-indent:0;text-align:start;text-decoration:none;text-decoration-line:none;text-decoration-style:solid;text-decoration-color:#000;letter-spacing:normal;word-spacing:normal;text-transform:none;writing-mode:lr-tb;direction:ltr;text-orientation:mixed;dominant-baseline:auto;baseline-shift:baseline;text-anchor:start;white-space:normal;shape-padding:0;clip-rule:nonzero;display:inline;overflow:visible;visibility:visible;opacity:.4;isolation:auto;mix-blend-mode:normal;color-interpolation:sRGB;color-interpolation-filters:linearRGB;solid-color:#000;solid-opacity:1;vector-effect:none;fill:#4c5263;fill-opacity:1;fill-rule:evenodd;stroke:none;stroke-width:1px;stroke-linecap:butt;stroke-linejoin:round;stroke-miterlimit:4;stroke-dasharray:none;stroke-dashoffset:0;stroke-opacity:1;color-rendering:auto;image-rendering:auto;shape-rendering:auto;text-rendering:auto;enable-background:accumulate"/></g></svg>