<svg xmlns="http://www.w3.org/2000/svg" xmlns:osb="http://www.openswatchbook.org/uri/2009/osb" xmlns:svg="http://www.w3.org/2000/svg" id="svg7384" width="16" height="16" version="1.1" style="enable-background:new"><metadata id="metadata90"/><title id="title8473">Solus Symbolic Icon Theme</title><defs id="defs7386"><linearGradient id="linearGradient6882" osb:paint="solid"><stop id="stop6884" offset="0" style="stop-color:#555;stop-opacity:1"/></linearGradient><linearGradient id="linearGradient5606" osb:paint="solid"><stop id="stop5608" offset="0" style="stop-color:#000;stop-opacity:1"/></linearGradient><filter id="filter7554" style="color-interpolation-filters:sRGB"><feBlend id="feBlend7556" in2="BackgroundImage" mode="darken"/></filter></defs><g id="layer1" transform="translate(-584,38)" style="display:inline"><path id="polygon5122-0-0" d="m 592.00977,-37.376953 a 0.50005,0.50005 0 0 0 -0.47852,0.328125 l -1.86523,5.054687 H 584.5 a 0.50005,0.50005 0 0 0 -0.31445,0.888672 l 4.03515,3.277344 -1.33789,5.023437 a 0.50005,0.50005 0 0 0 0.75391,0.548829 L 592,-25.080078 l 4.36328,2.824219 a 0.50005,0.50005 0 0 0 0.75586,-0.548829 l -1.33789,-5.023437 4.03516,-3.279297 A 0.50005,0.50005 0 0 0 599.5,-31.994141 h -5.16406 l -1.86719,-5.054687 a 0.50005,0.50005 0 0 0 -0.45898,-0.328125 z m -0.01,1.943359 1.51758,4.111328 a 0.50005,0.50005 0 0 0 0.46875,0.328125 h 4.10547 l -3.19141,2.59375 a 0.50005,0.50005 0 0 0 -0.16797,0.517579 l 1.08594,4.083984 -3.54688,-2.296875 a 0.50005,0.50005 0 0 0 -0.54296,0 l -3.54688,2.296875 1.08789,-4.083984 a 0.50005,0.50005 0 0 0 -0.16797,-0.517579 l -3.1914,-2.59375 h 4.10351 a 0.50005,0.50005 0 0 0 0.46875,-0.328125 z" style="color:#000;font-style:normal;font-variant:normal;font-weight:400;font-stretch:normal;font-size:medium;line-height:normal;font-family:sans-serif;-inkscape-font-specification:sans-serif;font-variant-ligatures:normal;font-variant-position:normal;font-variant-caps:normal;font-variant-numeric:normal;font-variant-alternates:normal;font-feature-settings:normal;text-indent:0;text-align:start;text-decoration:none;text-decoration-line:none;text-decoration-style:solid;text-decoration-color:#000;letter-spacing:normal;word-spacing:normal;text-transform:none;writing-mode:lr-tb;direction:ltr;text-orientation:mixed;dominant-baseline:auto;baseline-shift:baseline;text-anchor:start;white-space:normal;shape-padding:0;clip-rule:nonzero;display:inline;overflow:visible;visibility:visible;opacity:1;isolation:auto;mix-blend-mode:normal;color-interpolation:sRGB;color-interpolation-filters:linearRGB;solid-color:#000;solid-opacity:1;vector-effect:none;fill:#4c5263;fill-opacity:1;fill-rule:nonzero;stroke:none;stroke-width:1;stroke-linecap:butt;stroke-linejoin:round;stroke-miterlimit:4;stroke-dasharray:none;stroke-dashoffset:0;stroke-opacity:1;marker:none;color-rendering:auto;image-rendering:auto;shape-rendering:auto;text-rendering:auto;enable-background:accumulate"/><path id="path6933" d="m 592.00053,-36.87645 -1.98633,5.3818 -5.51367,2.4e-4 4.28579,3.48223 -1.42108,5.33688 4.63529,-3.00088 4.63478,3.00088 -1.42057,-5.33688 4.28579,-3.48247 h -5.51367 z" style="color:#000;font-style:normal;font-variant:normal;font-weight:400;font-stretch:normal;line-height:normal;font-family:sans-serif;-inkscape-font-specification:sans-serif;text-indent:0;text-align:start;text-decoration:none;text-decoration-line:none;letter-spacing:normal;word-spacing:normal;text-transform:none;writing-mode:lr-tb;direction:ltr;baseline-shift:baseline;text-anchor:start;display:inline;overflow:visible;visibility:visible;opacity:.2;fill:#4c5263;fill-opacity:1;stroke:none;stroke-width:1;stroke-linejoin:round;stroke-miterlimit:4;stroke-dasharray:none;stroke-opacity:1;marker:none;enable-background:accumulate"/></g></svg>