<svg xmlns="http://www.w3.org/2000/svg" xmlns:osb="http://www.openswatchbook.org/uri/2009/osb" xmlns:svg="http://www.w3.org/2000/svg" id="svg7384" width="16" height="16" version="1.1" style="enable-background:new"><metadata id="metadata90"/><title id="title8473">Solus Symbolic Icon Theme</title><defs id="defs7386"><linearGradient id="linearGradient6882" osb:paint="solid"><stop id="stop6884" offset="0" style="stop-color:#555;stop-opacity:1"/></linearGradient><linearGradient id="linearGradient5606" osb:paint="solid"><stop id="stop5608" offset="0" style="stop-color:#000;stop-opacity:1"/></linearGradient><filter id="filter7554" style="color-interpolation-filters:sRGB"><feBlend id="feBlend7556" in2="BackgroundImage" mode="darken"/></filter></defs><g id="layer12" transform="translate(-657.00018,-105)" style="display:inline"><path id="path9623" d="m 664.5002,105.5 c -0.277,0 -0.5,0.223 -0.5,0.5 v 1.0957 c -0.6092,0.11313 -1.18308,0.32768 -1.70508,0.625 l -0.70703,-0.84179 c -0.17805,-0.2122 -0.49288,-0.24056 -0.70508,-0.0625 l -0.76562,0.64257 c -0.2122,0.17806 -0.2386,0.49289 -0.0606,0.70508 l 0.70508,0.83985 c 0,0 -0.002,0.002 -0.002,0.002 -0.38458,0.46552 -0.68817,0.99801 -0.9043,1.57226 l -1.08399,-0.1914 c -0.27279,-0.0481 -0.53002,0.13346 -0.57812,0.40625 l -0.17383,0.98437 c -0.0481,0.2728 0.13346,0.53003 0.40625,0.57813 l 1.07618,0.18945 c 0.005,0.62756 0.1196,1.22916 0.32032,1.79102 l -0.95118,0.54883 c -0.2399,0.1385 -0.3221,0.44175 -0.1836,0.68164 l 0.5,0.86718 c 0.1385,0.23989 0.4437,0.32014 0.6836,0.18164 l 0.95312,-0.55078 c 0.39514,0.46193 0.86507,0.85471 1.39063,1.16602 l -0.37696,1.03515 c -0.0947,0.2603 0.0385,0.54589 0.29883,0.64063 l 0.93945,0.3418 c 0.2603,0.0947 0.54589,-0.0385 0.64063,-0.29883 l 0.375,-1.03125 c 0.29615,0.0498 0.59842,0.082 0.9082,0.082 0.30978,0 0.61205,-0.0322 0.9082,-0.082 l 0.375,1.03125 c 0.0947,0.26029 0.38033,0.39357 0.64063,0.29883 l 0.93945,-0.3418 c 0.2603,-0.0947 0.39357,-0.38033 0.29883,-0.64063 l -0.37695,-1.03515 c 0.52519,-0.31123 0.99571,-0.70436 1.39062,-1.16602 l 0.95313,0.55078 c 0.23989,0.1385 0.54509,0.0583 0.68359,-0.18164 l 0.5,-0.86718 c 0.1385,-0.23989 0.0563,-0.54314 -0.18359,-0.68164 l -0.95118,-0.54883 c 0.20072,-0.56186 0.31518,-1.16346 0.32032,-1.79102 l 1.07617,-0.18945 c 0.27279,-0.0481 0.45435,-0.30533 0.40625,-0.57813 l -0.17383,-0.98437 c -0.0481,-0.27279 -0.30729,-0.45435 -0.58008,-0.40625 l -1.08203,0.1914 c -0.21613,-0.57425 -0.52167,-1.10869 -0.90625,-1.57421 l 0.70508,-0.83985 c 0.17805,-0.21219 0.15165,-0.52702 -0.0606,-0.70508 l -0.76562,-0.64257 c -0.2122,-0.17806 -0.52703,-0.15165 -0.70508,0.0605 l -0.70703,0.84375 c -0.52231,-0.29766 -1.09543,-0.51178 -1.70508,-0.625 V 106 c 0,-0.277 -0.223,-0.5 -0.5,-0.5 z m 0.5,3.5 c 1.94484,0 3.5,1.55516 3.5,3.5 0,1.94484 -1.55516,3.5 -3.5,3.5 -1.94484,0 -3.5,-1.55516 -3.5,-3.5 0,-1.94484 1.55516,-3.5 3.5,-3.5 z" style="color:#000;font-style:normal;font-variant:normal;font-weight:400;font-stretch:normal;font-size:medium;line-height:normal;font-family:sans-serif;font-variant-ligatures:normal;font-variant-position:normal;font-variant-caps:normal;font-variant-numeric:normal;font-variant-alternates:normal;font-feature-settings:normal;text-indent:0;text-align:start;text-decoration:none;text-decoration-line:none;text-decoration-style:solid;text-decoration-color:#000;letter-spacing:normal;word-spacing:normal;text-transform:none;writing-mode:lr-tb;direction:ltr;text-orientation:mixed;dominant-baseline:auto;baseline-shift:baseline;text-anchor:start;white-space:normal;shape-padding:0;clip-rule:nonzero;display:inline;overflow:visible;visibility:visible;opacity:1;isolation:auto;mix-blend-mode:normal;color-interpolation:sRGB;color-interpolation-filters:linearRGB;solid-color:#000;solid-opacity:1;vector-effect:none;fill:#4f555d;fill-opacity:1;fill-rule:nonzero;stroke:none;stroke-width:1;stroke-linecap:round;stroke-linejoin:round;stroke-miterlimit:4;stroke-dasharray:none;stroke-dashoffset:0;stroke-opacity:1;color-rendering:auto;image-rendering:auto;shape-rendering:auto;text-rendering:auto;enable-background:accumulate"/></g></svg>