<svg xmlns="http://www.w3.org/2000/svg" xmlns:osb="http://www.openswatchbook.org/uri/2009/osb" xmlns:svg="http://www.w3.org/2000/svg" id="svg7384" width="16" height="16" version="1.1" style="enable-background:new"><metadata id="metadata90"/><title id="title8473">Solus Symbolic Icon Theme</title><defs id="defs7386"><linearGradient id="linearGradient6882" osb:paint="solid"><stop id="stop6884" offset="0" style="stop-color:#555;stop-opacity:1"/></linearGradient><linearGradient id="linearGradient5606" osb:paint="solid"><stop id="stop5608" offset="0" style="stop-color:#000;stop-opacity:1"/></linearGradient><filter id="filter7554" style="color-interpolation-filters:sRGB"><feBlend id="feBlend7556" in2="BackgroundImage" mode="darken"/></filter></defs><g id="layer12" transform="translate(-677.00013,-64.996674)" style="display:inline"><path id="path6619-9" d="M 681.50586,69 A 0.50005,0.50005 0 0 0 681,69.5 V 71 h -3 c -0.41667,0 -0.76264,0.283087 -0.88477,0.527344 C 676.99311,71.771601 677,72 677,72 v 2 c 0,0 -0.007,0.228399 0.11523,0.472656 C 677.23736,74.716913 677.58333,75 678,75 h 3 v 1.5 a 0.50005,0.50005 0 0 0 0.78711,0.410156 l 5,-3.5 a 0.50005,0.50005 0 0 0 0,-0.820312 l -5,-3.5 A 0.50005,0.50005 0 0 0 681.50586,69 Z M 682,70.460938 685.62695,73 682,75.539062 V 74.5 A 0.50005,0.50005 0 0 0 681.5,74 H 678 v -2 h 3.5 a 0.50005,0.50005 0 0 0 0.5,-0.5 z" style="color:#000;font-style:normal;font-variant:normal;font-weight:400;font-stretch:normal;font-size:medium;line-height:normal;font-family:sans-serif;font-variant-ligatures:normal;font-variant-position:normal;font-variant-caps:normal;font-variant-numeric:normal;font-variant-alternates:normal;font-feature-settings:normal;text-indent:0;text-align:start;text-decoration:none;text-decoration-line:none;text-decoration-style:solid;text-decoration-color:#000;letter-spacing:normal;word-spacing:normal;text-transform:none;writing-mode:lr-tb;direction:ltr;text-orientation:mixed;dominant-baseline:auto;baseline-shift:baseline;text-anchor:start;white-space:normal;shape-padding:0;clip-rule:nonzero;display:inline;overflow:visible;visibility:visible;opacity:1;isolation:auto;mix-blend-mode:normal;color-interpolation:sRGB;color-interpolation-filters:linearRGB;solid-color:#000;solid-opacity:1;vector-effect:none;fill:#4f555d;fill-opacity:1;fill-rule:evenodd;stroke:none;stroke-width:1px;stroke-linecap:butt;stroke-linejoin:round;stroke-miterlimit:4;stroke-dasharray:none;stroke-dashoffset:0;stroke-opacity:1;color-rendering:auto;image-rendering:auto;shape-rendering:auto;text-rendering:auto;enable-background:new"/><path id="path6977" d="m 679.5002,67 c 0,0 -0.5,0 -0.5,0.5 V 69 h 1 v -0.75 c 0,-0.14715 0.10285,-0.25 0.25,-0.25 h 9.5 c 0.14715,0 0.25448,0.10292 0.25,0.25 V 73 77.75 c 0.004,0.14708 -0.10285,0.25 -0.25,0.25 h -9.5 c -0.14715,0 -0.25,-0.10285 -0.25,-0.25 V 77 h -1 v 1.5 c 0,0.5 0.5,0.5 0.5,0.5 h 11 c 0.5,0 0.5,-0.5 0.5,-0.5 V 73 67.5 c 0,0 0,-0.5 -0.5,-0.5 z" style="color:#000;font-style:normal;font-variant:normal;font-weight:400;font-stretch:normal;font-size:medium;line-height:normal;font-family:sans-serif;font-variant-ligatures:normal;font-variant-position:normal;font-variant-caps:normal;font-variant-numeric:normal;font-variant-alternates:normal;font-feature-settings:normal;text-indent:0;text-align:start;text-decoration:none;text-decoration-line:none;text-decoration-style:solid;text-decoration-color:#000;letter-spacing:normal;word-spacing:normal;text-transform:none;writing-mode:lr-tb;direction:ltr;text-orientation:mixed;dominant-baseline:auto;baseline-shift:baseline;text-anchor:start;white-space:normal;shape-padding:0;clip-rule:nonzero;display:inline;overflow:visible;visibility:visible;opacity:1;isolation:auto;mix-blend-mode:normal;color-interpolation:sRGB;color-interpolation-filters:linearRGB;solid-color:#000;solid-opacity:1;vector-effect:none;fill:#4f555d;fill-opacity:1;fill-rule:nonzero;stroke:none;stroke-width:1;stroke-linecap:round;stroke-linejoin:round;stroke-miterlimit:4;stroke-dasharray:none;stroke-dashoffset:0;stroke-opacity:1;color-rendering:auto;image-rendering:auto;shape-rendering:auto;text-rendering:auto;enable-background:accumulate"/></g></svg>