<svg xmlns="http://www.w3.org/2000/svg" xmlns:osb="http://www.openswatchbook.org/uri/2009/osb" xmlns:svg="http://www.w3.org/2000/svg" id="svg7384" width="16" height="16" version="1.1" style="enable-background:new"><metadata id="metadata90"/><title id="title8473">Solus Symbolic Icon Theme</title><defs id="defs7386"><linearGradient id="linearGradient6882" osb:paint="solid"><stop id="stop6884" offset="0" style="stop-color:#4c5263;stop-opacity:1"/></linearGradient><linearGradient id="linearGradient5606" osb:paint="solid"><stop id="stop5608" offset="0" style="stop-color:#000;stop-opacity:1"/></linearGradient><filter id="filter7554" style="color-interpolation-filters:sRGB"><feBlend id="feBlend7556" in2="BackgroundImage" mode="darken"/></filter></defs><g id="layer12" transform="translate(-505.00018,39)" style="display:inline"><path id="path5229" d="m 507.0002,-38 c 0,0 -1,0 -1,1 l 0,4.99414 2,0.006 0,-1 0.79883,0 1.70508,-1.70703 0.70703,-0.70703 2.41406,2.41406 4.375,0 0,7 -5.33984,0 -1.44532,1.45898 -1.45898,-1.45912 -1.75586,0 0,-1.99023 -2,-0.006 0,2.99609 c 0,0 0,1.00001 1,1 l 12,0 c 1,0 1,-1 1,-1 l 0,-12 c 0,0 0,-1 -1,-1 z" style="opacity:1;fill:#4c5263;fill-opacity:1;stroke:none"/><path id="path5231" d="m 511.21172,-33.999511 -1.38509,1.385851 1.63493,1.63476 -6.46136,-0.0211 0,2 6.46136,0.0211 -1.63493,1.63439 1.38509,1.38509 4.00086,-4.04061 z" style="opacity:1;fill:#4c5263;fill-opacity:1;fill-rule:nonzero;stroke:none"/></g></svg>