<svg xmlns="http://www.w3.org/2000/svg" xmlns:osb="http://www.openswatchbook.org/uri/2009/osb" xmlns:svg="http://www.w3.org/2000/svg" id="svg7384" width="16" height="16" version="1.1" style="enable-background:new"><metadata id="metadata90"/><title id="title8473">Solus Symbolic Icon Theme</title><defs id="defs7386"><linearGradient id="linearGradient5606" osb:paint="solid"><stop id="stop5608" offset="0" style="stop-color:#000;stop-opacity:1"/></linearGradient><filter id="filter7554" style="color-interpolation-filters:sRGB"><feBlend id="feBlend7556" in2="BackgroundImage" mode="darken"/></filter></defs><g id="layer12" transform="translate(-425.00018,-20.989929)" style="display:inline"><path id="path6627" d="m 428.0002,22 c -1.108,0 -2,0.892 -2,2 l 0,10 c 0,1.108 0.892,2 2,2 l 10,0 c 1.108,0 2,-0.892 2,-2 l 0,-10 c 0,-1.108 -0.892,-2 -2,-2 l -10,0 z m 5,3 c 1.10458,0 2,0.89547 2,2 0,1.10453 -0.89542,2 -2,2 -1.10457,0 -2,-0.89547 -2,-2 0,-1.10453 0.89543,-2 2,-2 z m 0,5 c 3.99985,-0.002 4,2.66797 4,2.66797 l 0,0.33203 -8,0 0,-0.33203 c 0,0 -1.5e-4,-2.66573 4,-2.66797 z" style="opacity:1;fill:#4c5263;fill-opacity:1;stroke:none;stroke-width:4;stroke-linecap:square;stroke-linejoin:miter;stroke-miterlimit:4;stroke-dasharray:none;stroke-opacity:1"/></g></svg>