<svg xmlns="http://www.w3.org/2000/svg" xmlns:osb="http://www.openswatchbook.org/uri/2009/osb" xmlns:svg="http://www.w3.org/2000/svg" id="svg7384" width="16" height="16.01" version="1.1" style="enable-background:new"><metadata id="metadata90"/><title id="title8473">Solus Symbolic Icon Theme</title><defs id="defs7386"><linearGradient id="linearGradient6882" osb:paint="solid"><stop id="stop6884" offset="0" style="stop-color:#555;stop-opacity:1"/></linearGradient><linearGradient id="linearGradient5606" osb:paint="solid"><stop id="stop5608" offset="0" style="stop-color:#000;stop-opacity:1"/></linearGradient><filter id="filter7554" style="color-interpolation-filters:sRGB"><feBlend id="feBlend7556" in2="BackgroundImage" mode="darken"/></filter></defs><g id="layer12" transform="translate(-445.00018,-24.989929)" style="display:inline"><path id="path6923" d="M 447.5002,28.5 V 40 c 0,0.5 0.5,0.5 0.5,0.5 h 5 5 c 0.5446,0 0.5,-0.5 0.5,-0.5 V 28.5 Z m 4.5,2 h 2 c 0,0 0.5,0 0.5,0.5 v 2.5 h 2 l -3.5,5 -3.5,-5 h 2 V 31 c 0,-0.5 0.5,-0.5 0.5,-0.5 z" style="opacity:.2;fill:#4c5263;fill-opacity:1;fill-rule:evenodd;stroke:none;stroke-width:1px;stroke-linecap:butt;stroke-linejoin:miter;stroke-opacity:1"/><path id="path6909" d="m 448,28 c 0,0 -0.23035,-0.0069 -0.47461,0.115234 C 447.28113,28.237363 447,28.583333 447,29 v 11 c 0,0.416667 0.28113,0.762637 0.52539,0.884766 C 447.76965,41.006894 448,41 448,41 h 10 c 0.42532,0 0.79092,-0.281137 0.91016,-0.542969 0.11923,-0.261831 0.0879,-0.501953 0.0879,-0.501953 L 459,40 v -11.011719 -0.01367 c -0.02,-0.399433 -0.29165,-0.699746 -0.50977,-0.824218 -0.21811,-0.124473 -0.42968,-0.146485 -0.42968,-0.146485 L 458.03125,28 Z m 0,1 h 9.94922 c 0.007,0.0021 0.0233,0.0052 0.0449,0.01758 0.0264,0.01504 0.004,-0.03469 0.006,0.0078 V 40 h -10 z m 10,11.021484 0.002,0.02344 c 0,0 -0.002,-0.002 -0.002,-0.002 0.003,-0.0059 -0.0144,-0.01227 0,-0.02148 z" style="color:#000;font-style:normal;font-variant:normal;font-weight:400;font-stretch:normal;font-size:medium;line-height:normal;font-family:sans-serif;font-variant-ligatures:normal;font-variant-position:normal;font-variant-caps:normal;font-variant-numeric:normal;font-variant-alternates:normal;font-feature-settings:normal;text-indent:0;text-align:start;text-decoration:none;text-decoration-line:none;text-decoration-style:solid;text-decoration-color:#000;letter-spacing:normal;word-spacing:normal;text-transform:none;writing-mode:lr-tb;direction:ltr;text-orientation:mixed;dominant-baseline:auto;baseline-shift:baseline;text-anchor:start;white-space:normal;shape-padding:0;clip-rule:nonzero;display:inline;overflow:visible;visibility:visible;opacity:1;isolation:auto;mix-blend-mode:normal;color-interpolation:sRGB;color-interpolation-filters:linearRGB;solid-color:#000;solid-opacity:1;vector-effect:none;fill:#4c5263;fill-opacity:1;fill-rule:evenodd;stroke:none;stroke-width:1px;stroke-linecap:butt;stroke-linejoin:miter;stroke-miterlimit:4;stroke-dasharray:none;stroke-dashoffset:0;stroke-opacity:1;color-rendering:auto;image-rendering:auto;shape-rendering:auto;text-rendering:auto;enable-background:accumulate"/><path id="path6916" d="m 452,30 c 0,0 -0.2284,-0.0069 -0.47266,0.115234 C 451.28309,30.237363 451,30.583333 451,31 v 2 h -1.5 a 0.50005,0.50005 0 0 0 -0.41016,0.787109 l 3.5,5 a 0.50005,0.50005 0 0 0 0.82032,0 l 3.5,-5 A 0.50005,0.50005 0 0 0 456.5,33 H 455 v -2 c 0,-0.416667 -0.28113,-0.762637 -0.52539,-0.884766 C 454.23035,29.993106 454,30 454,30 Z m 0,1 h 2 v 2.5 a 0.50005,0.50005 0 0 0 0.5,0.5 h 1.03906 L 453,37.626953 450.46094,34 H 451.5 a 0.50005,0.50005 0 0 0 0.5,-0.5 z" style="color:#000;font-style:normal;font-variant:normal;font-weight:400;font-stretch:normal;font-size:medium;line-height:normal;font-family:sans-serif;font-variant-ligatures:normal;font-variant-position:normal;font-variant-caps:normal;font-variant-numeric:normal;font-variant-alternates:normal;font-feature-settings:normal;text-indent:0;text-align:start;text-decoration:none;text-decoration-line:none;text-decoration-style:solid;text-decoration-color:#000;letter-spacing:normal;word-spacing:normal;text-transform:none;writing-mode:lr-tb;direction:ltr;text-orientation:mixed;dominant-baseline:auto;baseline-shift:baseline;text-anchor:start;white-space:normal;shape-padding:0;clip-rule:nonzero;display:inline;overflow:visible;visibility:visible;opacity:1;isolation:auto;mix-blend-mode:normal;color-interpolation:sRGB;color-interpolation-filters:linearRGB;solid-color:#000;solid-opacity:1;vector-effect:none;fill:#4c5263;fill-opacity:1;fill-rule:evenodd;stroke:none;stroke-width:1px;stroke-linecap:butt;stroke-linejoin:round;stroke-miterlimit:4;stroke-dasharray:none;stroke-dashoffset:0;stroke-opacity:1;color-rendering:auto;image-rendering:auto;shape-rendering:auto;text-rendering:auto;enable-background:new"/><path id="path6921" d="m 447,25 c 0,0 -0.23035,-0.0069 -0.47461,0.115234 C 446.28113,25.237363 446,25.583333 446,26 v 2 c 0,0.416667 0.28113,0.762637 0.52539,0.884766 C 446.76965,29.006894 447,29 447,29 h 12 c 0.42532,0 0.79092,-0.281137 0.91016,-0.542969 0.11923,-0.261831 0.0879,-0.501953 0.0879,-0.501953 L 460,28 v -2.011719 -0.01367 c -0.02,-0.399433 -0.29165,-0.699746 -0.50977,-0.824218 -0.21811,-0.124473 -0.42968,-0.146485 -0.42968,-0.146485 L 459.03125,25 Z m 0,1 h 11.94922 c 0.007,0.0021 0.0233,0.0052 0.0449,0.01758 0.0264,0.01504 0.004,-0.03469 0.006,0.0078 V 28 h -12 z m 12,2.021484 0.002,0.02344 c 0,0 -0.002,-0.002 -0.002,-0.002 0.003,-0.0059 -0.0144,-0.01227 0,-0.02148 z" style="color:#000;font-style:normal;font-variant:normal;font-weight:400;font-stretch:normal;font-size:medium;line-height:normal;font-family:sans-serif;font-variant-ligatures:normal;font-variant-position:normal;font-variant-caps:normal;font-variant-numeric:normal;font-variant-alternates:normal;font-feature-settings:normal;text-indent:0;text-align:start;text-decoration:none;text-decoration-line:none;text-decoration-style:solid;text-decoration-color:#000;letter-spacing:normal;word-spacing:normal;text-transform:none;writing-mode:lr-tb;direction:ltr;text-orientation:mixed;dominant-baseline:auto;baseline-shift:baseline;text-anchor:start;white-space:normal;shape-padding:0;clip-rule:nonzero;display:inline;overflow:visible;visibility:visible;opacity:1;isolation:auto;mix-blend-mode:normal;color-interpolation:sRGB;color-interpolation-filters:linearRGB;solid-color:#000;solid-opacity:1;vector-effect:none;fill:#4c5263;fill-opacity:1;fill-rule:evenodd;stroke:none;stroke-width:1px;stroke-linecap:butt;stroke-linejoin:miter;stroke-miterlimit:4;stroke-dasharray:none;stroke-dashoffset:0;stroke-opacity:1;color-rendering:auto;image-rendering:auto;shape-rendering:auto;text-rendering:auto;enable-background:accumulate"/></g></svg>