<svg xmlns="http://www.w3.org/2000/svg" xmlns:osb="http://www.openswatchbook.org/uri/2009/osb" xmlns:svg="http://www.w3.org/2000/svg" id="svg7384" width="16" height="16" version="1.1" style="enable-background:new"><metadata id="metadata90"/><title id="title8473">Solus Symbolic Icon Theme</title><defs id="defs7386"><linearGradient id="linearGradient6882" osb:paint="solid"><stop id="stop6884" offset="0" style="stop-color:#555;stop-opacity:1"/></linearGradient><linearGradient id="linearGradient5606" osb:paint="solid"><stop id="stop5608" offset="0" style="stop-color:#000;stop-opacity:1"/></linearGradient><filter id="filter7554" style="color-interpolation-filters:sRGB"><feBlend id="feBlend7556" in2="BackgroundImage" mode="darken"/></filter></defs><g id="layer12" transform="translate(-485.00018,14.99993)" style="display:inline"><path id="path6966" d="M 489.47266,-8.0019531 A 0.50005,0.50005 0 0 0 489,-7.5039062 v 1.5019531 L 488.49805,-6 c -0.002,-1.41e-5 -0.85238,-0.00643 -1.72071,0.4277344 C 485.90809,-5.1376371 485,-4.1666667 485,-2.5 c 0,0 -0.007,0.3553605 0.17773,0.7246094 C 485.36237,-1.4061418 485.83334,-1 486.5,-1 c 0.66666,0 1.13763,-0.4061418 1.32227,-0.7753906 C 488.0069,-2.1446395 488,-2.5 488,-2.5 c 0,-0.3333333 0.0939,-0.3623629 0.22461,-0.4277344 C 488.35535,-2.9931059 488.5,-3 488.5,-3 a 0.50005,0.50005 0 0 0 0.002,0 L 489,-3.0019531 v 1.4980469 a 0.50005,0.50005 0 0 0 0.80078,0.4003906 l 4,-2.9960938 a 0.50005,0.50005 0 0 0 0,-0.8007812 l -4,-3.0019532 a 0.50005,0.50005 0 0 0 -0.32812,-0.099609 z M 490,-6.5039062 492.66602,-4.5 490,-2.5019531 v -1.0019531 a 0.50005,0.50005 0 0 0 -0.50195,-0.5 l -1,0.00391 c -0.002,-3.35e-5 -0.35239,-0.00642 -0.72071,0.1777344 C 487.40809,-3.6376371 487,-3.1666667 487,-2.5 c 0,0 -0.007,0.1466126 -0.0723,0.2773438 C 486.86237,-2.0919251 486.83334,-2 486.5,-2 c -0.33334,0 -0.36237,-0.091925 -0.42773,-0.2226562 C 486.0069,-2.3533874 486,-2.5 486,-2.5 c 0,-1.3333333 0.59387,-1.8623629 1.22461,-2.1777344 C 487.85535,-4.9931059 488.5,-5 488.5,-5 a 0.50005,0.50005 0 0 0 0.002,0 l 1,-0.00391 a 0.50005,0.50005 0 0 0 0.49805,-0.5 z" style="color:#000;font-style:normal;font-variant:normal;font-weight:400;font-stretch:normal;font-size:medium;line-height:normal;font-family:sans-serif;font-variant-ligatures:normal;font-variant-position:normal;font-variant-caps:normal;font-variant-numeric:normal;font-variant-alternates:normal;font-feature-settings:normal;text-indent:0;text-align:start;text-decoration:none;text-decoration-line:none;text-decoration-style:solid;text-decoration-color:#000;letter-spacing:normal;word-spacing:normal;text-transform:none;writing-mode:lr-tb;direction:ltr;text-orientation:mixed;dominant-baseline:auto;baseline-shift:baseline;text-anchor:start;white-space:normal;shape-padding:0;clip-rule:nonzero;display:inline;overflow:visible;visibility:visible;opacity:1;isolation:auto;mix-blend-mode:normal;color-interpolation:sRGB;color-interpolation-filters:linearRGB;solid-color:#000;solid-opacity:1;vector-effect:none;fill:#4c5263;fill-opacity:1;fill-rule:nonzero;stroke:none;stroke-width:1;stroke-linecap:butt;stroke-linejoin:round;stroke-miterlimit:4;stroke-dasharray:none;stroke-dashoffset:0;stroke-opacity:1;color-rendering:auto;image-rendering:auto;shape-rendering:auto;text-rendering:auto;enable-background:accumulate"/><path id="path6970" d="m 488,-14 c 0,0 -0.23035,-0.0069 -0.47461,0.115234 C 487.28113,-13.762637 487,-13.416667 487,-13 v 7.5 h 1 V -13 h 6.29297 L 498,-9.2929688 V 0 h -10 v -2.5 h -1 V 0 l 0.002,-0.04492187 c 0,0 -0.0294,0.24012181 0.0898,0.50195312 C 487.21103,0.71886256 487.57468,1 488,1 h 10 c 0,0 0.23035,0.00689 0.47461,-0.11523438 C 498.71887,0.76263715 499,0.41666667 499,0 V -9.7070312 L 494.70703,-14 Z m 0,14.02148438 c 0.0144,0.009228 -7.5e-4,0.01555652 0.002,0.02148437 0.005,0.01183131 -0.004,0.0019531 -0.004,0.0019531 z" style="color:#000;font-style:normal;font-variant:normal;font-weight:400;font-stretch:normal;font-size:medium;line-height:normal;font-family:sans-serif;font-variant-ligatures:normal;font-variant-position:normal;font-variant-caps:normal;font-variant-numeric:normal;font-variant-alternates:normal;font-feature-settings:normal;text-indent:0;text-align:start;text-decoration:none;text-decoration-line:none;text-decoration-style:solid;text-decoration-color:#000;letter-spacing:normal;word-spacing:normal;text-transform:none;writing-mode:lr-tb;direction:ltr;text-orientation:mixed;dominant-baseline:auto;baseline-shift:baseline;text-anchor:start;white-space:normal;shape-padding:0;clip-rule:nonzero;display:inline;overflow:visible;visibility:visible;opacity:1;isolation:auto;mix-blend-mode:normal;color-interpolation:sRGB;color-interpolation-filters:linearRGB;solid-color:#000;solid-opacity:1;vector-effect:none;fill:#4c5263;fill-opacity:1;fill-rule:evenodd;stroke:none;stroke-width:1px;stroke-linecap:butt;stroke-linejoin:miter;stroke-miterlimit:4;stroke-dasharray:none;stroke-dashoffset:0;stroke-opacity:1;color-rendering:auto;image-rendering:auto;shape-rendering:auto;text-rendering:auto;enable-background:accumulate"/><path id="path6972" d="m 494.49996,-9.49993 h 4 l 4.5e-4,9.5 c 2e-5,0.5 -0.5,0.5 -0.5,0.5 h -10 c -0.5446,0 -0.5,-0.5 -0.5,-0.5 v -2.5 l 1.00024,-0.99996 0.9998,0.182771 v 1.813829 l 3.99996,-2.99664 -4,-3 v 2 h -2 l -4.5e-4,-7.5 0.5,-0.5 h 6.5 z" style="opacity:.2;fill:#4c5263;fill-opacity:1;fill-rule:evenodd;stroke:none;stroke-width:1px;stroke-linecap:butt;stroke-linejoin:miter;stroke-opacity:1"/><path id="path6974" d="M 494,-13.5 V -9 h 4.5 v -1 H 495 v -3.5 z" style="color:#000;font-style:normal;font-variant:normal;font-weight:400;font-stretch:normal;font-size:medium;line-height:normal;font-family:sans-serif;font-variant-ligatures:normal;font-variant-position:normal;font-variant-caps:normal;font-variant-numeric:normal;font-variant-alternates:normal;font-feature-settings:normal;text-indent:0;text-align:start;text-decoration:none;text-decoration-line:none;text-decoration-style:solid;text-decoration-color:#000;letter-spacing:normal;word-spacing:normal;text-transform:none;writing-mode:lr-tb;direction:ltr;text-orientation:mixed;dominant-baseline:auto;baseline-shift:baseline;text-anchor:start;white-space:normal;shape-padding:0;clip-rule:nonzero;display:inline;overflow:visible;visibility:visible;opacity:1;isolation:auto;mix-blend-mode:normal;color-interpolation:sRGB;color-interpolation-filters:linearRGB;solid-color:#000;solid-opacity:1;vector-effect:none;fill:#4c5263;fill-opacity:1;fill-rule:evenodd;stroke:none;stroke-width:1px;stroke-linecap:butt;stroke-linejoin:miter;stroke-miterlimit:4;stroke-dasharray:none;stroke-dashoffset:0;stroke-opacity:1;color-rendering:auto;image-rendering:auto;shape-rendering:auto;text-rendering:auto;enable-background:accumulate"/></g></svg>