<svg xmlns="http://www.w3.org/2000/svg" xmlns:osb="http://www.openswatchbook.org/uri/2009/osb" xmlns:svg="http://www.w3.org/2000/svg" id="svg7384" width="16" height="16.01" version="1.1" style="enable-background:new"><metadata id="metadata90"/><title id="title8473">Solus Symbolic Icon Theme</title><defs id="defs7386"><linearGradient id="linearGradient6882" osb:paint="solid"><stop id="stop6884" offset="0" style="stop-color:#555;stop-opacity:1"/></linearGradient><linearGradient id="linearGradient5606" osb:paint="solid"><stop id="stop5608" offset="0" style="stop-color:#000;stop-opacity:1"/></linearGradient><filter id="filter7554" style="color-interpolation-filters:sRGB"><feBlend id="feBlend7556" in2="BackgroundImage" mode="darken"/></filter></defs><g id="layer12" transform="translate(-425.00018,-24.989929)" style="display:inline"><path id="path6379-9-6" d="m 428,26 c 0,0 -0.23035,-0.0069 -0.47461,0.115234 C 427.28113,26.237363 427,26.583333 427,27 v 13 c 0,0.416667 0.28113,0.762637 0.52539,0.884766 C 427.76965,41.006894 428,41 428,41 h 10 c 0.42532,0 0.79092,-0.281137 0.91016,-0.542969 0.11923,-0.261831 0.0879,-0.501953 0.0879,-0.501953 L 439,40 V 27 c 0,-0.416667 -0.28113,-0.762637 -0.52539,-0.884766 C 438.23035,25.993106 438,26 438,26 Z m 0,1 h 10 v 13 h -10 z m 10,13.021484 0.002,0.02344 c 0,0 -0.002,-0.002 -0.002,-0.002 0.003,-0.0059 -0.0144,-0.01227 0,-0.02148 z" style="color:#000;font-style:normal;font-variant:normal;font-weight:400;font-stretch:normal;font-size:medium;line-height:normal;font-family:sans-serif;font-variant-ligatures:normal;font-variant-position:normal;font-variant-caps:normal;font-variant-numeric:normal;font-variant-alternates:normal;font-feature-settings:normal;text-indent:0;text-align:start;text-decoration:none;text-decoration-line:none;text-decoration-style:solid;text-decoration-color:#000;letter-spacing:normal;word-spacing:normal;text-transform:none;writing-mode:lr-tb;direction:ltr;text-orientation:mixed;dominant-baseline:auto;baseline-shift:baseline;text-anchor:start;white-space:normal;shape-padding:0;clip-rule:nonzero;display:inline;overflow:visible;visibility:visible;opacity:1;isolation:auto;mix-blend-mode:normal;color-interpolation:sRGB;color-interpolation-filters:linearRGB;solid-color:#000;solid-opacity:1;vector-effect:none;fill:#4c5263;fill-opacity:1;fill-rule:evenodd;stroke:none;stroke-width:1px;stroke-linecap:butt;stroke-linejoin:miter;stroke-miterlimit:4;stroke-dasharray:none;stroke-dashoffset:0;stroke-opacity:1;color-rendering:auto;image-rendering:auto;shape-rendering:auto;text-rendering:auto;enable-background:accumulate"/><path id="path6381-2-1" d="m 428.0002,26.5 c 0,0 -0.5,0 -0.5,0.5 v 13 c 0,0.5 0.5,0.5 0.5,0.5 h 5 5 c 0.5446,0 0.5,-0.5 0.5,-0.5 v -9.5 -4 h -4 z m 4,4 h 2 c 0,0 0.5,0 0.5,0.5 v 2.5 h 2 l -3.5,5 -3.5,-5 h 2 V 31 c 0,-0.5 0.5,-0.5 0.5,-0.5 z" style="opacity:.2;fill:#4c5263;fill-opacity:1;fill-rule:evenodd;stroke:none;stroke-width:1px;stroke-linecap:butt;stroke-linejoin:miter;stroke-opacity:1"/><path id="path6542-2-9" d="m 432,30 c 0,0 -0.2284,-0.0069 -0.47266,0.115234 C 431.28309,30.237363 431,30.583333 431,31 v 2 h -1.5 a 0.50005,0.50005 0 0 0 -0.41016,0.787109 l 3.5,5 a 0.50005,0.50005 0 0 0 0.82032,0 l 3.5,-5 A 0.50005,0.50005 0 0 0 436.5,33 H 435 v -2 c 0,-0.416667 -0.28113,-0.762637 -0.52539,-0.884766 C 434.23035,29.993106 434,30 434,30 Z m 0,1 h 2 v 2.5 a 0.50005,0.50005 0 0 0 0.5,0.5 h 1.03906 L 433,37.626953 430.46094,34 H 431.5 a 0.50005,0.50005 0 0 0 0.5,-0.5 z" style="color:#000;font-style:normal;font-variant:normal;font-weight:400;font-stretch:normal;font-size:medium;line-height:normal;font-family:sans-serif;font-variant-ligatures:normal;font-variant-position:normal;font-variant-caps:normal;font-variant-numeric:normal;font-variant-alternates:normal;font-feature-settings:normal;text-indent:0;text-align:start;text-decoration:none;text-decoration-line:none;text-decoration-style:solid;text-decoration-color:#000;letter-spacing:normal;word-spacing:normal;text-transform:none;writing-mode:lr-tb;direction:ltr;text-orientation:mixed;dominant-baseline:auto;baseline-shift:baseline;text-anchor:start;white-space:normal;shape-padding:0;clip-rule:nonzero;display:inline;overflow:visible;visibility:visible;opacity:1;isolation:auto;mix-blend-mode:normal;color-interpolation:sRGB;color-interpolation-filters:linearRGB;solid-color:#000;solid-opacity:1;vector-effect:none;fill:#4c5263;fill-opacity:1;fill-rule:evenodd;stroke:none;stroke-width:1px;stroke-linecap:butt;stroke-linejoin:round;stroke-miterlimit:4;stroke-dasharray:none;stroke-dashoffset:0;stroke-opacity:1;color-rendering:auto;image-rendering:auto;shape-rendering:auto;text-rendering:auto;enable-background:new"/></g></svg>