<svg xmlns="http://www.w3.org/2000/svg" xmlns:osb="http://www.openswatchbook.org/uri/2009/osb" xmlns:svg="http://www.w3.org/2000/svg" id="svg7384" width="16" height="16" version="1.1" style="enable-background:new"><metadata id="metadata90"/><title id="title8473">Solus Symbolic Icon Theme</title><defs id="defs7386"><linearGradient id="linearGradient6882" osb:paint="solid"><stop id="stop6884" offset="0" style="stop-color:#555;stop-opacity:1"/></linearGradient><linearGradient id="linearGradient5606" osb:paint="solid"><stop id="stop5608" offset="0" style="stop-color:#000;stop-opacity:1"/></linearGradient><filter id="filter7554" style="color-interpolation-filters:sRGB"><feBlend id="feBlend7556" in2="BackgroundImage" mode="darken"/></filter></defs><g id="layer12" transform="translate(-445.0002,14.99993)" style="display:inline"><path id="path6613" d="m 448,-14 c 0,0 -0.23035,-0.0069 -0.47461,0.115234 C 447.28113,-13.762637 447,-13.416667 447,-13 V 0 c 0,0.41666667 0.28113,0.76263715 0.52539,0.88476562 C 447.76965,1.0068941 448,1 448,1 h 10 c 0.42532,0 0.79092,-0.28113744 0.91016,-0.54296875 0.11923,-0.26183131 0.0879,-0.50195312 0.0879,-0.50195312 L 459,0 v -2.5 h -1 V 0 h -10 v -13 h 6.29297 L 458,-9.2929688 V -5.5 h 1 V -9.7070312 L 454.70703,-14 Z m 10,14.02148438 0.002,0.02343749 c 0,0 -0.002,-0.0019531 -0.002,-0.0019531 0.003,-0.0059157 -0.0144,-0.01226921 0,-0.02148437 z" style="color:#000;font-style:normal;font-variant:normal;font-weight:400;font-stretch:normal;font-size:medium;line-height:normal;font-family:sans-serif;font-variant-ligatures:normal;font-variant-position:normal;font-variant-caps:normal;font-variant-numeric:normal;font-variant-alternates:normal;font-feature-settings:normal;text-indent:0;text-align:start;text-decoration:none;text-decoration-line:none;text-decoration-style:solid;text-decoration-color:#000;letter-spacing:normal;word-spacing:normal;text-transform:none;writing-mode:lr-tb;direction:ltr;text-orientation:mixed;dominant-baseline:auto;baseline-shift:baseline;text-anchor:start;white-space:normal;shape-padding:0;clip-rule:nonzero;display:inline;overflow:visible;visibility:visible;opacity:1;isolation:auto;mix-blend-mode:normal;color-interpolation:sRGB;color-interpolation-filters:linearRGB;solid-color:#000;solid-opacity:1;vector-effect:none;fill:#4c5263;fill-opacity:1;fill-rule:evenodd;stroke:none;stroke-width:1px;stroke-linecap:butt;stroke-linejoin:miter;stroke-miterlimit:4;stroke-dasharray:none;stroke-dashoffset:0;stroke-opacity:1;color-rendering:auto;image-rendering:auto;shape-rendering:auto;text-rendering:auto;enable-background:accumulate"/><path id="path6615" d="m 447.99997,-13.49993 c 0,0 -0.5,0 -0.5,0.5 v 13 c 0,0.5 0.5,0.5 0.5,0.5 h 10 c 0.5446,0 0.5,-0.5 0.5,-0.5 v -2.5 l -2.99989,2 v -2 l -4,-0.5 0.17355,-2.39374 3.82645,-0.10626 v -2 l 2.99989,2 v -4 h -4 v -4 z" style="opacity:.2;fill:#4c5263;fill-opacity:1;fill-rule:evenodd;stroke:none;stroke-width:1px;stroke-linecap:butt;stroke-linejoin:miter;stroke-opacity:1"/><path id="path6617" d="M 454,-13.5 V -9 h 4.5 v -1 H 455 v -3.5 z" style="color:#000;font-style:normal;font-variant:normal;font-weight:400;font-stretch:normal;font-size:medium;line-height:normal;font-family:sans-serif;font-variant-ligatures:normal;font-variant-position:normal;font-variant-caps:normal;font-variant-numeric:normal;font-variant-alternates:normal;font-feature-settings:normal;text-indent:0;text-align:start;text-decoration:none;text-decoration-line:none;text-decoration-style:solid;text-decoration-color:#000;letter-spacing:normal;word-spacing:normal;text-transform:none;writing-mode:lr-tb;direction:ltr;text-orientation:mixed;dominant-baseline:auto;baseline-shift:baseline;text-anchor:start;white-space:normal;shape-padding:0;clip-rule:nonzero;display:inline;overflow:visible;visibility:visible;opacity:1;isolation:auto;mix-blend-mode:normal;color-interpolation:sRGB;color-interpolation-filters:linearRGB;solid-color:#000;solid-opacity:1;vector-effect:none;fill:#4c5263;fill-opacity:1;fill-rule:evenodd;stroke:none;stroke-width:1px;stroke-linecap:butt;stroke-linejoin:miter;stroke-miterlimit:4;stroke-dasharray:none;stroke-dashoffset:0;stroke-opacity:1;color-rendering:auto;image-rendering:auto;shape-rendering:auto;text-rendering:auto;enable-background:accumulate"/><path id="path6619" d="M 455.50586,-8 A 0.50005,0.50005 0 0 0 455,-7.5 V -6 h -3 c -0.41667,0 -0.76264,0.2830868 -0.88477,0.5273438 C 450.99311,-5.2283993 451,-5 451,-5 v 2 c 0,0 -0.007,0.2303524 0.11523,0.4746094 C 451.23736,-2.2811337 451.58333,-2 452,-2 h 3 v 1.5 a 0.50005,0.50005 0 0 0 0.78711,0.41015625 l 5,-3.50000005 a 0.50005,0.50005 0 0 0 0,-0.8203124 l -5,-3.5 A 0.50005,0.50005 0 0 0 455.50586,-8 Z M 456,-6.5390625 459.62695,-4 456,-1.4609375 V -2.5 A 0.50005,0.50005 0 0 0 455.5,-3 H 452 v -2 h 3.5 a 0.50005,0.50005 0 0 0 0.5,-0.5 z" style="color:#000;font-style:normal;font-variant:normal;font-weight:400;font-stretch:normal;font-size:medium;line-height:normal;font-family:sans-serif;font-variant-ligatures:normal;font-variant-position:normal;font-variant-caps:normal;font-variant-numeric:normal;font-variant-alternates:normal;font-feature-settings:normal;text-indent:0;text-align:start;text-decoration:none;text-decoration-line:none;text-decoration-style:solid;text-decoration-color:#000;letter-spacing:normal;word-spacing:normal;text-transform:none;writing-mode:lr-tb;direction:ltr;text-orientation:mixed;dominant-baseline:auto;baseline-shift:baseline;text-anchor:start;white-space:normal;shape-padding:0;clip-rule:nonzero;display:inline;overflow:visible;visibility:visible;opacity:1;isolation:auto;mix-blend-mode:normal;color-interpolation:sRGB;color-interpolation-filters:linearRGB;solid-color:#000;solid-opacity:1;vector-effect:none;fill:#4c5263;fill-opacity:1;fill-rule:evenodd;stroke:none;stroke-width:1px;stroke-linecap:butt;stroke-linejoin:round;stroke-miterlimit:4;stroke-dasharray:none;stroke-dashoffset:0;stroke-opacity:1;color-rendering:auto;image-rendering:auto;shape-rendering:auto;text-rendering:auto;enable-background:new"/></g></svg>