<svg xmlns="http://www.w3.org/2000/svg" xmlns:osb="http://www.openswatchbook.org/uri/2009/osb" xmlns:svg="http://www.w3.org/2000/svg" id="svg7384" width="16" height="16" version="1.1" style="enable-background:new"><metadata id="metadata90"/><title id="title8473">Solus Symbolic Icon Theme</title><defs id="defs7386"><linearGradient id="linearGradient6882" osb:paint="solid"><stop id="stop6884" offset="0" style="stop-color:#555;stop-opacity:1"/></linearGradient><linearGradient id="linearGradient5606" osb:paint="solid"><stop id="stop5608" offset="0" style="stop-color:#000;stop-opacity:1"/></linearGradient><filter id="filter7554" style="color-interpolation-filters:sRGB"><feBlend id="feBlend7556" in2="BackgroundImage" mode="darken"/></filter></defs><g id="layer12" transform="translate(-457.00018,14.99993)" style="display:inline"><path id="path7585" d="m 460,-14.009766 c 0,0 -0.23035,-0.0069 -0.47461,0.115235 C 459.28113,-13.772403 459,-13.426432 459,-13.009766 V -0.00976563 C 459,0.40690104 459.28113,0.75287152 459.52539,0.875 459.76965,0.99712848 460,0.99023437 460,0.99023438 h 10 c 0,0 0.23035,0.006894 0.47461,-0.11523438 C 470.71887,0.75287152 471,0.40690104 471,-0.00976563 V -13.009766 l -0.002,0.04492 c 0,0 0.0313,-0.240122 -0.0879,-0.501953 -0.11924,-0.261831 -0.48484,-0.542969 -0.91016,-0.542969 z m 10.00195,0.955078 -0.002,0.02149 c -0.0154,-0.0086 0.002,-0.01415 0,-0.01953 0,0 0.002,-0.002 0.002,-0.002 z M 460,-13.009766 h 10 v 13.00000037 h -10 z" style="color:#000;font-style:normal;font-variant:normal;font-weight:400;font-stretch:normal;font-size:medium;line-height:normal;font-family:sans-serif;font-variant-ligatures:normal;font-variant-position:normal;font-variant-caps:normal;font-variant-numeric:normal;font-variant-alternates:normal;font-feature-settings:normal;text-indent:0;text-align:start;text-decoration:none;text-decoration-line:none;text-decoration-style:solid;text-decoration-color:#000;letter-spacing:normal;word-spacing:normal;text-transform:none;writing-mode:lr-tb;direction:ltr;text-orientation:mixed;dominant-baseline:auto;baseline-shift:baseline;text-anchor:start;white-space:normal;shape-padding:0;clip-rule:nonzero;display:inline;overflow:visible;visibility:visible;opacity:1;isolation:auto;mix-blend-mode:normal;color-interpolation:sRGB;color-interpolation-filters:linearRGB;solid-color:#000;solid-opacity:1;vector-effect:none;fill:#4f555d;fill-opacity:1;fill-rule:evenodd;stroke:none;stroke-width:1px;stroke-linecap:butt;stroke-linejoin:miter;stroke-miterlimit:4;stroke-dasharray:none;stroke-dashoffset:0;stroke-opacity:1;color-rendering:auto;image-rendering:auto;shape-rendering:auto;text-rendering:auto;enable-background:accumulate"/><path id="path7587" d="m 460.0002,0.489999 c 0,0 -0.5,0 -0.5,-0.5 v -13 c 0,-0.5 0.5,-0.5 0.5,-0.5 h 5 5 c 0.5446,0 0.5,0.5 0.5,0.5 v 9.5 4 h -4 z m 4,-3 h 2 c 0,0 0.5,0 0.5,-0.5 v -2.5 h 2 l -3.5,-5 -3.5,5 h 2 v 2.5 c 0,0.5 0.5,0.5 0.5,0.5 z" style="opacity:.2;fill:#4f555d;fill-opacity:1;fill-rule:evenodd;stroke:none;stroke-width:1px;stroke-linecap:butt;stroke-linejoin:miter;stroke-opacity:1"/><path id="path7590" d="m 464.98047,-11.009766 a 0.50005,0.50005 0 0 0 -0.39063,0.212891 l -3.5,5 A 0.50005,0.50005 0 0 0 461.5,-5.0097656 h 1.5 v 2 c 0,0.4166666 0.28309,0.7626371 0.52734,0.8847656 C 463.7716,-2.0028715 464,-2.0097656 464,-2.0097656 h 2 c 0,0 0.23035,0.00689 0.47461,-0.1152344 C 466.71887,-2.2471285 467,-2.593099 467,-3.0097656 v -2 h 1.5 a 0.50005,0.50005 0 0 0 0.41016,-0.7871094 l -3.5,-5 a 0.50005,0.50005 0 0 0 -0.42969,-0.212891 z m 0.0195,1.3730472 2.53906,3.6269532 H 466.5 a 0.50005,0.50005 0 0 0 -0.5,0.5 v 2.5 h -2 v -2.5 a 0.50005,0.50005 0 0 0 -0.5,-0.5 h -1.03906 z" style="color:#000;font-style:normal;font-variant:normal;font-weight:400;font-stretch:normal;font-size:medium;line-height:normal;font-family:sans-serif;font-variant-ligatures:normal;font-variant-position:normal;font-variant-caps:normal;font-variant-numeric:normal;font-variant-alternates:normal;font-feature-settings:normal;text-indent:0;text-align:start;text-decoration:none;text-decoration-line:none;text-decoration-style:solid;text-decoration-color:#000;letter-spacing:normal;word-spacing:normal;text-transform:none;writing-mode:lr-tb;direction:ltr;text-orientation:mixed;dominant-baseline:auto;baseline-shift:baseline;text-anchor:start;white-space:normal;shape-padding:0;clip-rule:nonzero;display:inline;overflow:visible;visibility:visible;opacity:1;isolation:auto;mix-blend-mode:normal;color-interpolation:sRGB;color-interpolation-filters:linearRGB;solid-color:#000;solid-opacity:1;vector-effect:none;fill:#4f555d;fill-opacity:1;fill-rule:evenodd;stroke:none;stroke-width:1px;stroke-linecap:butt;stroke-linejoin:round;stroke-miterlimit:4;stroke-dasharray:none;stroke-dashoffset:0;stroke-opacity:1;color-rendering:auto;image-rendering:auto;shape-rendering:auto;text-rendering:auto;enable-background:new"/></g></svg>