<svg xmlns="http://www.w3.org/2000/svg" xmlns:osb="http://www.openswatchbook.org/uri/2009/osb" xmlns:svg="http://www.w3.org/2000/svg" id="svg7384" width="16" height="16" version="1.1" style="enable-background:new"><metadata id="metadata90"/><title id="title8473">Solus Symbolic Icon Theme</title><defs id="defs7386"><linearGradient id="linearGradient6882" osb:paint="solid"><stop id="stop6884" offset="0" style="stop-color:#555;stop-opacity:1"/></linearGradient><linearGradient id="linearGradient5606" osb:paint="solid"><stop id="stop5608" offset="0" style="stop-color:#000;stop-opacity:1"/></linearGradient><filter id="filter7554" style="color-interpolation-filters:sRGB"><feBlend id="feBlend7556" in2="BackgroundImage" mode="darken"/></filter></defs><g id="layer12" transform="translate(-525.0002,14.999997)" style="display:inline"><path id="path6976" d="m 533.0002,-13.5 c 3.58985,0 6.5,2.91016 6.5,6.5 0,3.58984 -2.91015,6.5 -6.5,6.5 -3.58984,0 -6.5,-2.91016 -6.5,-6.5 0,-3.58984 2.91016,-6.5 6.5,-6.5 z" style="opacity:.2;fill:#4c5263;fill-opacity:1;stroke:none;stroke-width:4;stroke-linecap:square;stroke-linejoin:miter;stroke-miterlimit:4;stroke-dasharray:none;stroke-opacity:1"/><path id="path7722-2" d="m 533.0002,-13.99613 a 7,7 0 0 0 -7,7 7,7 0 0 0 7,7 7,7 0 0 0 7,-7 7,7 0 0 0 -7,-7 z m 0,1 c 3.3137,0 6,2.6863 6,6 0,3.3137 -2.6863,6 -6,6 -3.3137,0 -6,-2.6863 -6,-6 0,-3.3137 2.6863,-6 6,-6 z" style="opacity:1;fill:#4c5263;fill-opacity:1;stroke:none;stroke-width:4;stroke-linecap:square;stroke-linejoin:miter;stroke-miterlimit:4;stroke-dasharray:none;stroke-opacity:1"/><path id="path7715-3" d="m 536.40644,-10.8125 c -0.0964,0.0256 -0.18476,0.0808 -0.25,0.15625 L 533.00019,-7.5 531.34394,-9.15625 c -0.15718,-0.25698 -0.56824,-0.30673 -0.78125,-0.0937 -0.21301,0.21301 -0.16326,0.62407 0.0937,0.78125 l 2,2 c 0.1835,0.1737 0.504,0.1737 0.6875,0 l 3.5,-3.5 c 0.29287,-0.29845 -0.0248,-0.91114 -0.4375,-0.84375 z" style="color:#bebebe;display:inline;overflow:visible;visibility:visible;opacity:1;fill:#4c5263;fill-opacity:1;fill-rule:nonzero;stroke:none;stroke-width:2;marker:none;enable-background:accumulate"/></g></svg>