<svg xmlns="http://www.w3.org/2000/svg" xmlns:osb="http://www.openswatchbook.org/uri/2009/osb" xmlns:svg="http://www.w3.org/2000/svg" id="svg7384" width="16" height="16" version="1.1" style="enable-background:new"><metadata id="metadata90"/><title id="title8473">Solus Symbolic Icon Theme</title><defs id="defs7386"><linearGradient id="linearGradient6882" osb:paint="solid"><stop id="stop6884" offset="0" style="stop-color:#555;stop-opacity:1"/></linearGradient><linearGradient id="linearGradient5606" osb:paint="solid"><stop id="stop5608" offset="0" style="stop-color:#000;stop-opacity:1"/></linearGradient><filter id="filter7554" style="color-interpolation-filters:sRGB"><feBlend id="feBlend7556" in2="BackgroundImage" mode="darken"/></filter></defs><g id="layer12" transform="translate(-497.00061,15.00672)" style="display:inline"><path id="rect8394" d="m 500.5002,-13.5 v 13 h 8.53906 l -0.40625,-0.40039 c -0.32437,0.0995 -0.61061,0.26953 -0.97656,0.26953 -2.04082,0 -3.71875,-1.67793 -3.71875,-3.71875 0,-2.04082 1.67793,-3.71875 3.71875,-3.71875 0.67282,0 1.29694,0.19605 1.84375,0.51367 V -13.5 Z" style="display:inline;opacity:.2;fill:#4f555d;fill-opacity:1;stroke:none;stroke-width:.99999988;stroke-linecap:round;stroke-linejoin:round;stroke-miterlimit:4;stroke-dasharray:none;stroke-dashoffset:0;stroke-opacity:1;enable-background:new"/><path id="path8390" d="m 501.0002,-14 c -0.54535,0 -1,0.45465 -1,1 v 2.99414 h -1 c -0.5,0 -1,0.5 -1,1 v 4 c 0,0.5 0.5,1 1,1 h 1 V -1 c 0,0.54535 0.45465,1 1,1 h 8 c 0.15634,0 0.30074,-0.0452 0.43359,-0.11133 l -0.80078,-0.78906 c -0.32437,0.0995 -0.61061,0.26953 -0.97656,0.26953 -0.56531,0 -1.09645,-0.13959 -1.57813,-0.36914 h -5.07812 v -5.00586 h 3.34766 c 0.6148,-1.2143 1.86455,-2.0625 3.30859,-2.0625 2.04082,0 3.71875,1.67793 3.71875,3.71875 0,0.0917 -0.01,0.17831 -0.0273,0.26172 0.3602,-0.15933 0.65234,-0.53637 0.65234,-0.91797 v -4 c 0,-0.5 -0.5,-1 -1,-1 h -1 V -13 c 0,-0.54535 -0.45465,-1 -1,-1 z m 0,1 h 8 v 2.99414 h -8 z" style="fill:#4f555d;fill-opacity:1;stroke:none"/><path id="path27332" d="m 507.65705,-7.06922 c -1.4956,0 -2.71875,1.22315 -2.71875,2.71875 0,1.4956 1.22315,2.71875 2.71875,2.71875 0.4871,0 0.94729,-0.14835 1.34375,-0.375 a 0.750075,0.750075 0 0 0 0.15625,0.21875 l 1.84375,1.8125 a 0.75130096,0.75130096 0 1 0 1.0625,-1.0625 l -1.84375,-1.8125 a 0.750075,0.750075 0 0 0 -0.21875,-0.15625 c 0.22665,-0.39646 0.375,-0.85664 0.375,-1.34375 0,-1.4956 -1.22315,-2.71875 -2.71875,-2.71875 z m 0,1 c 0.95516,0 1.71875,0.76359 1.71875,1.71875 0,0.95516 -0.76359,1.71875 -1.71875,1.71875 -0.95516,0 -1.71875,-0.76359 -1.71875,-1.71875 0,-0.95516 0.76359,-1.71875 1.71875,-1.71875 z" style="color:#000;font-style:normal;font-variant:normal;font-weight:400;font-stretch:normal;font-size:medium;line-height:normal;font-family:Sans;-inkscape-font-specification:Sans;text-indent:0;text-align:start;text-decoration:none;text-decoration-line:none;letter-spacing:normal;word-spacing:normal;text-transform:none;writing-mode:lr-tb;direction:ltr;baseline-shift:baseline;text-anchor:start;display:inline;overflow:visible;visibility:visible;fill:#4f555d;fill-opacity:1;stroke:none;stroke-width:1;marker:none;enable-background:new"/></g></svg>