<svg xmlns="http://www.w3.org/2000/svg" xmlns:osb="http://www.openswatchbook.org/uri/2009/osb" xmlns:svg="http://www.w3.org/2000/svg" id="svg7384" width="16" height="16" version="1.1" style="enable-background:new"><metadata id="metadata90"/><title id="title8473">Solus Symbolic Icon Theme</title><defs id="defs7386"><linearGradient id="linearGradient6882" osb:paint="solid"><stop id="stop6884" offset="0" style="stop-color:#555;stop-opacity:1"/></linearGradient><linearGradient id="linearGradient5606" osb:paint="solid"><stop id="stop5608" offset="0" style="stop-color:#000;stop-opacity:1"/></linearGradient><filter id="filter7554" style="color-interpolation-filters:sRGB"><feBlend id="feBlend7556" in2="BackgroundImage" mode="darken"/></filter></defs><g id="layer12" transform="translate(-517.00061,15.00672)" style="display:inline"><path id="path3520-4" d="m 521.0002,-14 c -0.54535,0 -1,0.45465 -1,1 v 2.99414 h -1 c -0.5,0 -1,0.5 -1,1 v 4 c 0,0.5 0.5,1 1,1 h 1 V -1 c 0,0.54535 0.45465,1 1,1 h 8 c 0.54535,0 1,-0.45465 1,-1 v -3.00586 h 1 c 0.5,0 1,-0.5 1,-1 v -4 c 0,-0.5 -0.5,-1 -1,-1 h -1 V -13 c 0,-0.54535 -0.45465,-1 -1,-1 z m 0,1 h 8 v 2.99414 h -8 z m 0,6.99414 h 8 V -1 h -8 z" style="fill:#4f555d;fill-opacity:1;stroke:none"/><rect id="rect8514-6-1" width="13" height="9" x=".5" y="-529.501" transform="matrix(0,-1,-1,0,0,0)" style="display:inline;opacity:.2;fill:#4f555d;fill-opacity:1;stroke:none;stroke-width:.99999988;stroke-linecap:round;stroke-linejoin:round;stroke-miterlimit:4;stroke-dasharray:none;stroke-dashoffset:0;stroke-opacity:1;enable-background:new"/></g></svg>