<svg xmlns="http://www.w3.org/2000/svg" xmlns:osb="http://www.openswatchbook.org/uri/2009/osb" xmlns:svg="http://www.w3.org/2000/svg" id="svg7384" width="16" height="16" version="1.1" style="enable-background:new"><metadata id="metadata90"/><title id="title8473">Solus Symbolic Icon Theme</title><defs id="defs7386"><linearGradient id="linearGradient6882" osb:paint="solid"><stop id="stop6884" offset="0" style="stop-color:#555;stop-opacity:1"/></linearGradient><linearGradient id="linearGradient5606" osb:paint="solid"><stop id="stop5608" offset="0" style="stop-color:#000;stop-opacity:1"/></linearGradient><filter id="filter7554" style="color-interpolation-filters:sRGB"><feBlend id="feBlend7556" in2="BackgroundImage" mode="darken"/></filter></defs><g id="layer12" transform="translate(-517.00061,-24.993279)" style="display:inline"><path id="path8300" d="m 523.5002,26 c -3.03757,0 -5.5,2.46243 -5.5,5.5 0,1.12493 0.33838,2.1697 0.91797,3.04102 l 0.73633,-0.73438 c -0.40687,-0.67655 -0.6543,-1.45967 -0.6543,-2.30664 0,-2.48528 2.01472,-4.5 4.5,-4.5 0.84697,0 1.63009,0.24743 2.30664,0.6543 l 0.47852,-0.47852 0.25586,-0.25781 C 525.6699,26.33838 524.62513,26 523.5002,26 Z m 4.63086,8.39648 -1.74609,1.74805 c 0.14314,-0.0895 0.29039,-0.17089 0.42578,-0.27344 l 4.16015,4.16016 1.06055,-1.0625 -4.16211,-4.16211 c 0.0986,-0.13 0.1751,-0.27298 0.26172,-0.41016 z" style="opacity:1;fill:#4f555d;fill-opacity:1;stroke:none;stroke-width:1;stroke-linecap:round;stroke-linejoin:miter;stroke-miterlimit:4;stroke-dasharray:none;stroke-dashoffset:0;stroke-opacity:1"/><path id="path8308" d="m 529.21309,25.99414 c -0.2125,0 -0.42484,0.0811 -0.58984,0.24609 l -1.63086,1.64063 -9,9 V 40 h 3.12109 l 9,-9 1.63867,-1.62891 c 0.33,-0.33 0.33,-0.84968 0,-1.17968 l -1.94922,-1.95118 c -0.165,-0.165 -0.37734,-0.24609 -0.58984,-0.24609 z m 0,1.07031 1.7168,1.7168 -0.72852,0.71289 -1.70703,-1.70703 z m -1.42383,1.43164 1.70508,1.70508 -0.0898,0.0899 L 520.69942,39 h -0.69922 v -1 h -1 v -0.70312 l 8.69727,-8.71094 z" style="fill:#4f555d;fill-opacity:1;stroke:none"/><path id="path8310" d="m 529.21309,27.06445 1.7168,1.7168 -0.72852,0.71289 -1.70703,-1.70703 z" style="opacity:.4;fill:#4f555d;fill-opacity:1;stroke:none"/><path id="path8312" d="m 528.64648,28.646484 -10,10 0.70704,0.707032 10,-10 z" style="color:#000;font-style:normal;font-variant:normal;font-weight:400;font-stretch:normal;font-size:medium;line-height:normal;font-family:sans-serif;font-variant-ligatures:normal;font-variant-position:normal;font-variant-caps:normal;font-variant-numeric:normal;font-variant-alternates:normal;font-feature-settings:normal;text-indent:0;text-align:start;text-decoration:none;text-decoration-line:none;text-decoration-style:solid;text-decoration-color:#000;letter-spacing:normal;word-spacing:normal;text-transform:none;writing-mode:lr-tb;direction:ltr;text-orientation:mixed;dominant-baseline:auto;baseline-shift:baseline;text-anchor:start;white-space:normal;shape-padding:0;clip-rule:nonzero;display:inline;overflow:visible;visibility:visible;opacity:.2;isolation:auto;mix-blend-mode:normal;color-interpolation:sRGB;color-interpolation-filters:linearRGB;solid-color:#000;solid-opacity:1;vector-effect:none;fill:#4f555d;fill-opacity:1;fill-rule:evenodd;stroke:none;stroke-width:1px;stroke-linecap:butt;stroke-linejoin:miter;stroke-miterlimit:4;stroke-dasharray:none;stroke-dashoffset:0;stroke-opacity:1;color-rendering:auto;image-rendering:auto;shape-rendering:auto;text-rendering:auto;enable-background:accumulate"/></g></svg>