<svg xmlns="http://www.w3.org/2000/svg" xmlns:osb="http://www.openswatchbook.org/uri/2009/osb" xmlns:svg="http://www.w3.org/2000/svg" id="svg7384" width="16" height="16" version="1.1" style="enable-background:new"><metadata id="metadata90"/><title id="title8473">Solus Symbolic Icon Theme</title><defs id="defs7386"><linearGradient id="linearGradient6882" osb:paint="solid"><stop id="stop6884" offset="0" style="stop-color:#555;stop-opacity:1"/></linearGradient><linearGradient id="linearGradient5606" osb:paint="solid"><stop id="stop5608" offset="0" style="stop-color:#000;stop-opacity:1"/></linearGradient><filter id="filter7554" style="color-interpolation-filters:sRGB"><feBlend id="feBlend7556" in2="BackgroundImage" mode="darken"/></filter></defs><g id="layer12" transform="translate(-457.0004,-44.996639)" style="display:inline"><path id="path9228" d="m 464.5002,45.99609 c -3.59411,0 -6.5,2.90589 -6.5,6.5 0,3.59411 2.90589,6.5 6.5,6.5 3.5941,0 6.5,-2.90589 6.5,-6.5 0,-3.59411 -2.9059,-6.5 -6.5,-6.5 z m 0,1 c 3.04116,0 5.5,2.45883 5.5,5.5 0,3.04117 -2.45884,5.5 -5.5,5.5 -3.04117,0 -5.5,-2.45883 -5.5,-5.5 0,-3.04117 2.45883,-5.5 5.5,-5.5 z" style="color:#bebebe;text-indent:0;text-transform:none;fill:#4f555d;fill-opacity:1;stroke:none;stroke-width:1;enable-background:new"/><path id="path8584" d="m 464.50021,46.49609 c 3.31761,0 5.99998,2.68236 5.99998,6 0,3.31764 -2.68238,6 -6,6 -3.31764,0 -6,-2.68236 -6,-6 0,-3.31764 2.68236,-6 6.00002,-6 z" style="color:#bebebe;text-indent:0;text-transform:none;opacity:.2;fill:#4f555d;fill-opacity:1;stroke:none;stroke-width:1;enable-background:new"/><path id="path8572" d="m 462.47852,49.994141 a 0.50005,0.50005 0 0 0 -0.34961,0.859375 l 4,4 a 0.50005,0.50005 0 1 0 0.70703,-0.707032 l -4,-4 a 0.50005,0.50005 0 0 0 -0.35742,-0.152343 z" style="color:#000;font-style:normal;font-variant:normal;font-weight:400;font-stretch:normal;font-size:medium;line-height:normal;font-family:sans-serif;font-variant-ligatures:normal;font-variant-position:normal;font-variant-caps:normal;font-variant-numeric:normal;font-variant-alternates:normal;font-feature-settings:normal;text-indent:0;text-align:start;text-decoration:none;text-decoration-line:none;text-decoration-style:solid;text-decoration-color:#000;letter-spacing:normal;word-spacing:normal;text-transform:none;writing-mode:lr-tb;direction:ltr;text-orientation:mixed;dominant-baseline:auto;baseline-shift:baseline;text-anchor:start;white-space:normal;shape-padding:0;clip-rule:nonzero;display:inline;overflow:visible;visibility:visible;opacity:1;isolation:auto;mix-blend-mode:normal;color-interpolation:sRGB;color-interpolation-filters:linearRGB;solid-color:#000;solid-opacity:1;vector-effect:none;fill:#4f555d;fill-opacity:1;fill-rule:evenodd;stroke:none;stroke-width:1px;stroke-linecap:round;stroke-linejoin:miter;stroke-miterlimit:4;stroke-dasharray:none;stroke-dashoffset:0;stroke-opacity:1;color-rendering:auto;image-rendering:auto;shape-rendering:auto;text-rendering:auto;enable-background:accumulate"/><path id="path8570" d="m 466.47266,49.996094 a 0.50005,0.50005 0 0 0 -0.34375,0.15039 l -4,4 a 0.50005,0.50005 0 1 0 0.70703,0.707032 l 4,-4 a 0.50005,0.50005 0 0 0 -0.36328,-0.857422 z" style="color:#000;font-style:normal;font-variant:normal;font-weight:400;font-stretch:normal;font-size:medium;line-height:normal;font-family:sans-serif;font-variant-ligatures:normal;font-variant-position:normal;font-variant-caps:normal;font-variant-numeric:normal;font-variant-alternates:normal;font-feature-settings:normal;text-indent:0;text-align:start;text-decoration:none;text-decoration-line:none;text-decoration-style:solid;text-decoration-color:#000;letter-spacing:normal;word-spacing:normal;text-transform:none;writing-mode:lr-tb;direction:ltr;text-orientation:mixed;dominant-baseline:auto;baseline-shift:baseline;text-anchor:start;white-space:normal;shape-padding:0;clip-rule:nonzero;display:inline;overflow:visible;visibility:visible;opacity:1;isolation:auto;mix-blend-mode:normal;color-interpolation:sRGB;color-interpolation-filters:linearRGB;solid-color:#000;solid-opacity:1;vector-effect:none;fill:#4f555d;fill-opacity:1;fill-rule:evenodd;stroke:none;stroke-width:1px;stroke-linecap:round;stroke-linejoin:miter;stroke-miterlimit:4;stroke-dasharray:none;stroke-dashoffset:0;stroke-opacity:1;color-rendering:auto;image-rendering:auto;shape-rendering:auto;text-rendering:auto;enable-background:accumulate"/></g></svg>