<svg xmlns="http://www.w3.org/2000/svg" xmlns:osb="http://www.openswatchbook.org/uri/2009/osb" xmlns:svg="http://www.w3.org/2000/svg" id="svg7384" width="16" height="16" version="1.1" style="enable-background:new"><metadata id="metadata90"/><title id="title8473">Solus Symbolic Icon Theme</title><defs id="defs7386"><linearGradient id="linearGradient5606" osb:paint="solid"><stop id="stop5608" offset="0" style="stop-color:#000;stop-opacity:1"/></linearGradient><filter id="filter7554" style="color-interpolation-filters:sRGB"><feBlend id="feBlend7556" in2="BackgroundImage" mode="darken"/></filter></defs><g id="layer12" transform="translate(-285.0006,-0.99328)" style="display:inline"><path id="rect6492" d="m 289.5002,3 c -1.38071,0 -2.5,1.11929 -2.5,2.5 0,1.38071 1.11929,2.5 2.5,2.5 0.44608,0 0.85618,-0.13902 1.21875,-0.34375 L 292.6877,9.5 290.71895,11.34375 C 290.35638,11.13902 289.94628,11 289.5002,11 c -1.38071,0 -2.5,1.11929 -2.5,2.5 0,1.38071 1.11929,2.5 2.5,2.5 1.38071,0 2.5,-1.11929 2.5,-2.5 0,-0.22916 -0.036,-0.44541 -0.0937,-0.65625 l 2.125,-2.0625 4.4687,4.21875 1.5,0 0,-1 -8.09375,-7.84375 c 0.0578,-0.21084 0.0937,-0.42709 0.0937,-0.65625 0,-1.38071 -1.11929,-2.5 -2.5,-2.5 z m 0,1.5 c 0.55228,0 1,0.44772 1,1 0,0.55228 -0.44772,1 -1,1 -0.55228,0 -1,-0.44772 -1,-1 0,-0.55228 0.44772,-1 1,-1 z m 9,-0.5 -3.9375,3.71875 1.3125,1.28125 4.125,-4 0,-1 z m -9,8.5 c 0.55228,0 1,0.44772 1,1 0,0.55228 -0.44772,1 -1,1 -0.55228,0 -1,-0.44772 -1,-1 0,-0.55228 0.44772,-1 1,-1 z" style="fill:#4c5263;fill-opacity:1;stroke:none"/></g></svg>