<svg xmlns="http://www.w3.org/2000/svg" xmlns:osb="http://www.openswatchbook.org/uri/2009/osb" xmlns:svg="http://www.w3.org/2000/svg" id="svg7384" width="16" height="16" version="1.1" style="enable-background:new"><metadata id="metadata90"/><title id="title8473">Solus Symbolic Icon Theme</title><defs id="defs7386"><linearGradient id="linearGradient6882" osb:paint="solid"><stop id="stop6884" offset="0" style="stop-color:#555;stop-opacity:1"/></linearGradient><linearGradient id="linearGradient5606" osb:paint="solid"><stop id="stop5608" offset="0" style="stop-color:#000;stop-opacity:1"/></linearGradient><filter id="filter7554" style="color-interpolation-filters:sRGB"><feBlend id="feBlend7556" in2="BackgroundImage" mode="darken"/></filter></defs><g id="layer12" transform="translate(-457.00079,-25)" style="display:inline"><path id="rect8514-6-6" d="m 470.50021,39.5 v -12 h -4.00001 l -1.5,1.25 -1.5,-1.25 h -4 v 12 z" style="display:inline;opacity:.2;fill:#4f555d;fill-opacity:1;stroke:none;stroke-width:.99999988;stroke-linecap:round;stroke-linejoin:round;stroke-miterlimit:4;stroke-dasharray:none;stroke-dashoffset:0;stroke-opacity:1;enable-background:new"/><path id="path3810" d="m 465.00059,25.00336 c -1.10457,0 -2,0.89543 -2,2 h -3 c -1,0 -1,1 -1,1 v 11 c 0,1 1,1 1,1 h 10 c 0,0 1,0 1,-1 v -11 c 0,-1 -1,-1 -1,-1 h -3 c 0,-0.13807 -0.005,-0.27605 -0.0312,-0.40625 -0.18649,-0.91137 -1.00225,-1.59375 -1.96875,-1.59375 z m 0,1 c 0.41421,0 0.75444,0.26608 0.90625,0.625 0.0506,0.11964 0.0937,0.23693 0.0937,0.375 0,0.55228 -0.44771,1 -1,1 -0.55229,0 -1,-0.44772 -1,-1 0,-0.55228 0.44771,-1 1,-1 z M 460.0002,28 h 3 l -1,1 3.9e-4,1.00336 h 6 L 468.0002,29 l -1,-1 2.99961,-0.003 3.9e-4,11.00336 h -10 z" style="color:#000;display:inline;overflow:visible;visibility:visible;fill:#4f555d;fill-opacity:1;fill-rule:nonzero;stroke:none;stroke-width:4;marker:none;enable-background:accumulate"/><path id="path7720-62-3" d="m 462.0002,32 h 6 v 1 h -6 z m -2e-5,1.99664 h 6 v 1 h -6 z M 462.0002,36 h 4 v 1 h -4 z" style="display:inline;fill:#4f555d;fill-opacity:1;stroke:none;enable-background:new"/></g></svg>