<svg xmlns="http://www.w3.org/2000/svg" xmlns:osb="http://www.openswatchbook.org/uri/2009/osb" xmlns:svg="http://www.w3.org/2000/svg" id="svg7384" width="16" height="16" version="1.1" style="enable-background:new"><metadata id="metadata90"/><title id="title8473">Solus Symbolic Icon Theme</title><defs id="defs7386"><linearGradient id="linearGradient6882" osb:paint="solid"><stop id="stop6884" offset="0" style="stop-color:#555;stop-opacity:1"/></linearGradient><linearGradient id="linearGradient5606" osb:paint="solid"><stop id="stop5608" offset="0" style="stop-color:#000;stop-opacity:1"/></linearGradient><filter id="filter7554" style="color-interpolation-filters:sRGB"><feBlend id="feBlend7556" in2="BackgroundImage" mode="darken"/></filter></defs><g id="layer12" transform="translate(-485.0002,-4.9999374)" style="display:inline"><path id="path7095-5" d="m 496.5002,14 c 0,0 -0.5,0 -0.5,0.5 V 16 h -1.5 c 0,0 -0.5,0 -0.5,0.5 v 2 c 0,0.5 0.5,0.5 0.5,0.5 h 1.5 v 1.5 c 0,0.5 0.5,0.5 0.5,0.5 h 2 c 0,0 0.5,0 0.5,-0.5 V 19 h 1.5 c 0,0 0.5,0 0.5,-0.5 v -2 c 0,-0.5 -0.5,-0.5 -0.5,-0.5 h -1.5 l 2e-4,-1.5 c 0,-0.48614 -0.5,-0.5 -0.5,-0.5 z m 0.5,1 h 1 v 2 h 2 v 1 h -2 v 2 h -1 v -2 h -2 v -1 h 2 v -0.5 z" style="color:#000;font-style:normal;font-variant:normal;font-weight:400;font-stretch:normal;font-size:medium;line-height:normal;font-family:sans-serif;font-variant-ligatures:normal;font-variant-position:normal;font-variant-caps:normal;font-variant-numeric:normal;font-variant-alternates:normal;font-feature-settings:normal;text-indent:0;text-align:start;text-decoration:none;text-decoration-line:none;text-decoration-style:solid;text-decoration-color:#000;letter-spacing:normal;word-spacing:normal;text-transform:none;writing-mode:lr-tb;direction:ltr;text-orientation:mixed;dominant-baseline:auto;baseline-shift:baseline;text-anchor:start;white-space:normal;shape-padding:0;clip-rule:nonzero;display:inline;overflow:visible;visibility:visible;opacity:1;isolation:auto;mix-blend-mode:normal;color-interpolation:sRGB;color-interpolation-filters:linearRGB;solid-color:#000;solid-opacity:1;vector-effect:none;fill:#4c5263;fill-opacity:1;fill-rule:evenodd;stroke:none;stroke-width:1px;stroke-linecap:butt;stroke-linejoin:miter;stroke-miterlimit:4;stroke-dasharray:none;stroke-dashoffset:0;stroke-opacity:1;color-rendering:auto;image-rendering:auto;shape-rendering:auto;text-rendering:auto;enable-background:accumulate"/><path id="path6944-5" d="m 486.5002,5.5 c 0,0 -1,0 -1,1 V 9 h 15 V 8.5 c 0,-1 -1,-1 -1,-1 h -6 c -1,0 -2.00003,-1.99997 -3,-2 z" style="color:#000;font-style:normal;font-variant:normal;font-weight:400;font-stretch:normal;font-size:medium;line-height:normal;font-family:Sans;-inkscape-font-specification:Sans;text-indent:0;text-align:start;text-decoration:none;text-decoration-line:none;letter-spacing:normal;word-spacing:normal;text-transform:none;writing-mode:lr-tb;direction:ltr;baseline-shift:baseline;text-anchor:start;display:inline;overflow:visible;visibility:visible;opacity:.4;fill:#4c5263;fill-opacity:1;stroke:none;stroke-width:1;stroke-miterlimit:4;stroke-dasharray:none;stroke-opacity:1;marker:none;enable-background:accumulate"/><path id="path5057-4-62" d="m 486.5,5 c 0,0 -0.3534,-0.00689 -0.72266,0.1777344 C 485.40809,5.3623629 485,5.8333333 485,6.5 v 11 c 0,0 -0.007,0.353399 0.17773,0.722656 C 485.36236,18.591913 485.83333,19 486.5,19 h 9 v -1 h -9 c -0.33333,0 -0.36236,-0.09387 -0.42773,-0.224609 C 486.00689,17.644648 486,17.5 486,17.5 v -11 c 0,-0.3333333 0.0939,-0.3623629 0.22461,-0.4277344 C 486.35535,6.0068941 486.5,6 486.5,6 h 4 c 0.0833,2.5e-6 0.24384,0.057386 0.45117,0.2128906 0.20733,0.1555051 0.44532,0.3906223 0.69531,0.640625 0.25,0.2500028 0.51203,0.5148741 0.80469,0.734375 C 492.74384,7.8073916 493.08333,8 493.5,8 h 6 c 0,0 0.1466,0.00689 0.27734,0.072266 C 499.90809,8.1376371 500,8.1666667 500,8.5 v 9 h 1 v -9 C 501,7.8333333 500.59387,7.3623629 500.22461,7.1777344 499.85535,6.9931059 499.5,7 499.5,7 h -6 c -0.0833,0 -0.24189,-0.057391 -0.44922,-0.2128906 -0.20733,-0.1555 -0.44727,-0.390624 -0.69726,-0.640625 -0.25,-0.250001 -0.51008,-0.5148716 -0.80274,-0.734375 C 491.25812,5.192606 490.91666,5.0000125 490.5,5 Z" style="color:#000;font-style:normal;font-variant:normal;font-weight:400;font-stretch:normal;font-size:medium;line-height:normal;font-family:Sans;-inkscape-font-specification:Sans;font-variant-ligatures:normal;font-variant-position:normal;font-variant-caps:normal;font-variant-numeric:normal;font-variant-alternates:normal;font-feature-settings:normal;text-indent:0;text-align:start;text-decoration:none;text-decoration-line:none;text-decoration-style:solid;text-decoration-color:#000;letter-spacing:normal;word-spacing:normal;text-transform:none;writing-mode:lr-tb;direction:ltr;text-orientation:mixed;dominant-baseline:auto;baseline-shift:baseline;text-anchor:start;white-space:normal;shape-padding:0;clip-rule:nonzero;display:inline;overflow:visible;visibility:visible;opacity:1;isolation:auto;mix-blend-mode:normal;color-interpolation:sRGB;color-interpolation-filters:linearRGB;solid-color:#000;solid-opacity:1;vector-effect:none;fill:#4c5263;fill-opacity:1;fill-rule:nonzero;stroke:none;stroke-width:1;stroke-linecap:butt;stroke-linejoin:miter;stroke-miterlimit:4;stroke-dasharray:none;stroke-dashoffset:0;stroke-opacity:1;marker:none;color-rendering:auto;image-rendering:auto;shape-rendering:auto;text-rendering:auto;enable-background:accumulate"/><path id="rect6568-91" d="m 485.5002,9 h 15 v 1 h -15 z" style="opacity:1;fill:#4c5263;fill-opacity:1;stroke:none;stroke-width:1;stroke-linecap:round;stroke-linejoin:round;stroke-miterlimit:4;stroke-dasharray:none;stroke-dashoffset:0;stroke-opacity:1"/><path id="rect6573-2" d="m 486.0002,10 v 8 h 8 v -1.5 c 0,-0.5 0.5,-0.5 0.5,-0.5 h 1.5 v -1.5 c 0,-0.5 0.5,-0.5 0.5,-0.5 h 2 c 0,0 0.5,0.0139 0.5,0.5 V 16 h 1 v -6 z" style="opacity:.2;fill:#4c5263;fill-opacity:1;stroke:none;stroke-width:1;stroke-linecap:round;stroke-linejoin:round;stroke-miterlimit:4;stroke-dasharray:none;stroke-dashoffset:0;stroke-opacity:1"/></g></svg>