<svg xmlns="http://www.w3.org/2000/svg" xmlns:osb="http://www.openswatchbook.org/uri/2009/osb" xmlns:svg="http://www.w3.org/2000/svg" id="svg7384" width="16" height="16" version="1.1" style="enable-background:new"><metadata id="metadata90"/><title id="title8473">Solus Symbolic Icon Theme</title><defs id="defs7386"><linearGradient id="linearGradient6882" osb:paint="solid"><stop id="stop6884" offset="0" style="stop-color:#555;stop-opacity:1"/></linearGradient><linearGradient id="linearGradient5606" osb:paint="solid"><stop id="stop5608" offset="0" style="stop-color:#000;stop-opacity:1"/></linearGradient><filter id="filter7554" style="color-interpolation-filters:sRGB"><feBlend id="feBlend7556" in2="BackgroundImage" mode="darken"/></filter></defs><g id="layer12" transform="translate(-317.00079,14.003342)" style="display:inline"><path id="path10558-5" d="m 321.29923,-9.99664 -2.85714,8 h 1.42858 l 0.60713,-1.71429 h 2.78571 l 0.60716,1.71429 h 1.58928 l -3.01786,-8 z m 0.57144,2.28571 1,2.85715 h -2 z" style="fill:#4f555d;fill-opacity:1;stroke:none"/><path id="path11643-3-2-7-3" d="m 327.0002,-6.99664 v 1 h 2.49994 c 0.21408,0 0.5,0.30707 0.5,0.5 v 0.5 h -2.5 c -0.45964,0 -0.8678,0.19198 -1.125,0.48438 -0.2572,0.29239 -0.3782,0.65531 -0.375,1.01562 0.003,0.36031 0.13446,0.72635 0.39062,1.01563 0.25616,0.28927 0.65524,0.48437 1.10938,0.48437 h 2.5 0.5 0.5 v -0.42187 c 0.008,-0.0469 0,-0.0781 0,-0.0781 v -0.5 -2.5 c 0,-0.81717 -0.6599,-1.5 -1.5,-1.5 h -2.49994 z m 0.49994,3 h 2.5 v 1 h -2.5 c -0.19894,0 -0.28346,-0.0549 -0.35938,-0.14062 -0.0759,-0.0857 -0.13938,-0.21969 -0.14062,-0.35938 -10e-4,-0.13969 0.0523,-0.27677 0.125,-0.35937 0.0727,-0.0826 0.16382,-0.14063 0.375,-0.14063 z" style="color:#000;font-style:normal;font-variant:normal;font-weight:400;font-stretch:normal;line-height:normal;font-family:Sans;-inkscape-font-specification:Sans;text-indent:0;text-align:start;text-decoration:none;text-decoration-line:none;letter-spacing:normal;word-spacing:normal;text-transform:none;writing-mode:lr-tb;direction:ltr;baseline-shift:baseline;text-anchor:start;display:inline;overflow:visible;visibility:visible;fill:#4f555d;fill-opacity:1;stroke:none;stroke-width:2;marker:none;enable-background:accumulate"/></g></svg>