<svg xmlns="http://www.w3.org/2000/svg" xmlns:osb="http://www.openswatchbook.org/uri/2009/osb" xmlns:svg="http://www.w3.org/2000/svg" id="svg7384" width="16" height="16" version="1.1" style="enable-background:new"><metadata id="metadata90"/><title id="title8473">Solus Symbolic Icon Theme</title><defs id="defs7386"><linearGradient id="linearGradient6882" osb:paint="solid"><stop id="stop6884" offset="0" style="stop-color:#555;stop-opacity:1"/></linearGradient><linearGradient id="linearGradient5606" osb:paint="solid"><stop id="stop5608" offset="0" style="stop-color:#000;stop-opacity:1"/></linearGradient><filter id="filter7554" style="color-interpolation-filters:sRGB"><feBlend id="feBlend7556" in2="BackgroundImage" mode="darken"/></filter></defs><g id="layer12" transform="translate(-317.00079,55.003342)" style="display:inline"><path id="path6676" d="m 324,-52 v 1 h 3.95703 c 0.41667,0 0.60717,0.09615 0.71094,0.1875 0.10377,0.09135 0.15475,0.211932 0.17773,0.380859 0.046,0.337855 -0.0879,0.759766 -0.0879,0.759766 L 328.14844,-48 H 323.5 c -2.33333,0 -3.19727,2.328125 -3.19727,2.328125 0,0 -0.23069,0.578089 -0.14062,1.240234 0.045,0.331073 0.18753,0.710488 0.50977,0.994141 0.32223,0.283653 0.78971,0.4375 1.37304,0.4375 h 5.34961 l 2.30274,-6.328125 c 0,0 0.23069,-0.578089 0.14062,-1.240234 -0.045,-0.331073 -0.18753,-0.710488 -0.50977,-0.994141 C 329.00589,-51.846153 328.54036,-52 327.95703,-52 Z m -0.5,5 h 4.28516 l -1.0918,3 h -4.64844 c -0.41666,0 -0.60912,-0.09615 -0.71289,-0.1875 -0.10377,-0.09135 -0.15475,-0.211932 -0.17773,-0.380859 -0.046,-0.337855 0.0879,-0.759766 0.0879,-0.759766 0,0 0.59114,-1.671875 2.25781,-1.671875 z" style="color:#000;font-style:normal;font-variant:normal;font-weight:400;font-stretch:normal;font-size:medium;line-height:normal;font-family:sans-serif;font-variant-ligatures:normal;font-variant-position:normal;font-variant-caps:normal;font-variant-numeric:normal;font-variant-alternates:normal;font-feature-settings:normal;text-indent:0;text-align:start;text-decoration:none;text-decoration-line:none;text-decoration-style:solid;text-decoration-color:#000;letter-spacing:normal;word-spacing:normal;text-transform:none;writing-mode:lr-tb;direction:ltr;text-orientation:mixed;dominant-baseline:auto;baseline-shift:baseline;text-anchor:start;white-space:normal;shape-padding:0;clip-rule:nonzero;display:inline;overflow:visible;visibility:visible;opacity:1;isolation:auto;mix-blend-mode:normal;color-interpolation:sRGB;color-interpolation-filters:linearRGB;solid-color:#000;solid-opacity:1;vector-effect:none;fill:#4f555d;fill-opacity:1;fill-rule:evenodd;stroke:none;stroke-width:1px;stroke-linecap:butt;stroke-linejoin:miter;stroke-miterlimit:4;stroke-dasharray:none;stroke-dashoffset:0;stroke-opacity:1;color-rendering:auto;image-rendering:auto;shape-rendering:auto;text-rendering:auto;enable-background:accumulate"/></g></svg>