<svg xmlns="http://www.w3.org/2000/svg" xmlns:osb="http://www.openswatchbook.org/uri/2009/osb" xmlns:svg="http://www.w3.org/2000/svg" id="svg7384" width="16" height="16" version="1.1" style="enable-background:new"><metadata id="metadata90"/><title id="title8473">Solus Symbolic Icon Theme</title><defs id="defs7386"><linearGradient id="linearGradient6882" osb:paint="solid"><stop id="stop6884" offset="0" style="stop-color:#555;stop-opacity:1"/></linearGradient><linearGradient id="linearGradient5606" osb:paint="solid"><stop id="stop5608" offset="0" style="stop-color:#000;stop-opacity:1"/></linearGradient><filter id="filter7554" style="color-interpolation-filters:sRGB"><feBlend id="feBlend7556" in2="BackgroundImage" mode="darken"/></filter></defs><g id="layer12" transform="translate(-297.00079,55.003342)" style="display:inline"><path id="path6742" d="M 299.00061,-48.00334 299.0002,-47 h 12 l 4.1e-4,-1.00334 z" style="color:#000;font-style:normal;font-variant:normal;font-weight:400;font-stretch:normal;line-height:normal;font-family:Sans;-inkscape-font-specification:Sans;text-indent:0;text-align:start;text-decoration:none;text-decoration-line:none;letter-spacing:normal;word-spacing:normal;text-transform:none;writing-mode:lr-tb;direction:ltr;baseline-shift:baseline;text-anchor:start;display:inline;overflow:visible;visibility:visible;fill:#4f555d;fill-opacity:1;stroke:none;stroke-width:2;marker:none;enable-background:accumulate"/><path id="path6751" d="m 302,-52 v 1 h 4.5 c 0.83333,0 1.11236,0.341913 1.30273,0.722656 C 307.99311,-49.896601 308,-49.5 308,-49.5 v 1.5 h -4.5 c -1.16667,0 -1.88764,0.658087 -2.19727,1.277344 C 300.99311,-46.103399 301,-45.5 301,-45.5 c 0,0 -0.007,0.603399 0.30273,1.222656 C 301.61236,-43.658087 302.33333,-43 303.5,-43 h 5.5 v -6.5 c 0,0 0.007,-0.603399 -0.30273,-1.222656 C 308.38764,-51.341913 307.66667,-52 306.5,-52 Z m 1.5,5 h 4.5 v 3 h -4.5 c -0.83333,0 -1.11236,-0.341913 -1.30273,-0.722656 C 302.00689,-45.103399 302,-45.5 302,-45.5 c 0,0 0.007,-0.396601 0.19727,-0.777344 C 302.38764,-46.658087 302.66667,-47 303.5,-47 Z" style="color:#000;font-style:normal;font-variant:normal;font-weight:400;font-stretch:normal;font-size:medium;line-height:normal;font-family:sans-serif;font-variant-ligatures:normal;font-variant-position:normal;font-variant-caps:normal;font-variant-numeric:normal;font-variant-alternates:normal;font-feature-settings:normal;text-indent:0;text-align:start;text-decoration:none;text-decoration-line:none;text-decoration-style:solid;text-decoration-color:#000;letter-spacing:normal;word-spacing:normal;text-transform:none;writing-mode:lr-tb;direction:ltr;text-orientation:mixed;dominant-baseline:auto;baseline-shift:baseline;text-anchor:start;white-space:normal;shape-padding:0;clip-rule:nonzero;display:inline;overflow:visible;visibility:visible;opacity:1;isolation:auto;mix-blend-mode:normal;color-interpolation:sRGB;color-interpolation-filters:linearRGB;solid-color:#000;solid-opacity:1;vector-effect:none;fill:#4f555d;fill-opacity:1;fill-rule:evenodd;stroke:none;stroke-width:1px;stroke-linecap:butt;stroke-linejoin:miter;stroke-miterlimit:4;stroke-dasharray:none;stroke-dashoffset:0;stroke-opacity:1;color-rendering:auto;image-rendering:auto;shape-rendering:auto;text-rendering:auto;enable-background:accumulate"/></g></svg>