<svg xmlns="http://www.w3.org/2000/svg" xmlns:osb="http://www.openswatchbook.org/uri/2009/osb" xmlns:svg="http://www.w3.org/2000/svg" id="svg7384" width="16" height="16" version="1.1" style="enable-background:new"><metadata id="metadata90"/><title id="title8473">Solus Symbolic Icon Theme</title><defs id="defs7386"><linearGradient id="linearGradient6882" osb:paint="solid"><stop id="stop6884" offset="0" style="stop-color:#555;stop-opacity:1"/></linearGradient><linearGradient id="linearGradient5606" osb:paint="solid"><stop id="stop5608" offset="0" style="stop-color:#000;stop-opacity:1"/></linearGradient><filter id="filter7554" style="color-interpolation-filters:sRGB"><feBlend id="feBlend7556" in2="BackgroundImage" mode="darken"/></filter></defs><g id="layer12" transform="translate(-257.00079,55.003342)" style="display:inline"><path id="path6659" d="m 262,-52 v 2 h 5 c 0.66667,0 0.72473,0.18578 0.85547,0.447266 C 267.98621,-49.291248 268,-49 268,-49 v 1 h -5 c -1.33333,0 -2.27527,0.81422 -2.64453,1.552734 C 259.98621,-45.708752 260,-45 260,-45 c 0,0 -0.0138,0.708752 0.35547,1.447266 C 260.72473,-42.81422 261.66667,-42 263,-42 h 7 v -7 c 0,0 0.0138,-0.708752 -0.35547,-1.447266 C 269.27527,-51.18578 268.33333,-52 267,-52 Z m 1,6 h 5 v 2 h -5 c -0.66667,0 -0.72473,-0.18578 -0.85547,-0.447266 C 262.01379,-44.708752 262,-45 262,-45 c 0,0 0.0138,-0.291248 0.14453,-0.552734 C 262.27527,-45.81422 262.33333,-46 263,-46 Z" style="color:#000;font-style:normal;font-variant:normal;font-weight:400;font-stretch:normal;font-size:medium;line-height:normal;font-family:sans-serif;font-variant-ligatures:normal;font-variant-position:normal;font-variant-caps:normal;font-variant-numeric:normal;font-variant-alternates:normal;font-feature-settings:normal;text-indent:0;text-align:start;text-decoration:none;text-decoration-line:none;text-decoration-style:solid;text-decoration-color:#000;letter-spacing:normal;word-spacing:normal;text-transform:none;writing-mode:lr-tb;direction:ltr;text-orientation:mixed;dominant-baseline:auto;baseline-shift:baseline;text-anchor:start;white-space:normal;shape-padding:0;clip-rule:nonzero;display:inline;overflow:visible;visibility:visible;opacity:1;isolation:auto;mix-blend-mode:normal;color-interpolation:sRGB;color-interpolation-filters:linearRGB;solid-color:#000;solid-opacity:1;vector-effect:none;fill:#4f555d;fill-opacity:1;fill-rule:evenodd;stroke:none;stroke-width:2;stroke-linecap:butt;stroke-linejoin:miter;stroke-miterlimit:4;stroke-dasharray:none;stroke-dashoffset:0;stroke-opacity:1;color-rendering:auto;image-rendering:auto;shape-rendering:auto;text-rendering:auto;enable-background:accumulate"/></g></svg>