<svg xmlns="http://www.w3.org/2000/svg" xmlns:osb="http://www.openswatchbook.org/uri/2009/osb" xmlns:svg="http://www.w3.org/2000/svg" id="svg7384" width="16" height="16" version="1.1" style="enable-background:new"><metadata id="metadata90"/><title id="title8473">Solus Symbolic Icon Theme</title><defs id="defs7386"><linearGradient id="linearGradient6882" osb:paint="solid"><stop id="stop6884" offset="0" style="stop-color:#555;stop-opacity:1"/></linearGradient><linearGradient id="linearGradient5606" osb:paint="solid"><stop id="stop5608" offset="0" style="stop-color:#000;stop-opacity:1"/></linearGradient><filter id="filter7554" style="color-interpolation-filters:sRGB"><feBlend id="feBlend7556" in2="BackgroundImage" mode="darken"/></filter></defs><g id="layer12" transform="translate(-637.0006,-104.99328)" style="display:inline"><path id="path7894" d="m 645.0002,106.5 c 3.58988,0 6.5,2.91026 6.5,6.5 0,3.58989 -2.91012,6.5 -6.5,6.5 -3.58989,0 -6.5,-2.91011 -6.5,-6.5 0,-3.58974 2.91011,-6.5 6.5,-6.5 z" style="opacity:.2;fill:#4f555d;fill-opacity:1;stroke:none;stroke-width:1"/><path id="path5652-8" d="m 645.0002,105.99609 c -3.86603,0 -7,3.13412 -7,7 0,3.86603 3.13397,7 7,7 3.86603,0 7,-3.13397 7,-7 0,-3.86588 -3.13397,-7 -7,-7 z m 0,1 c 3.31374,0 6,2.68639 6,6 0,3.31374 -2.68626,6 -6,6 -3.31374,0 -6,-2.68626 -6,-6 0,-3.31361 2.68626,-6 6,-6 z" style="fill:#4f555d;fill-opacity:1;stroke:none"/><path id="path7887" d="m 645.0004,108.74664 c 0.69036,0 1.25,0.55964 1.25,1.25 0,0.69036 -0.55964,1.25 -1.25,1.25 -0.69036,0 -1.25,-0.55964 -1.25,-1.25 0,-0.69036 0.55964,-1.25 1.25,-1.25 z m -1,3.25 h 1 1 v 5 h -2 z" style="fill:#4f555d;fill-opacity:1;stroke:none"/></g></svg>