<svg xmlns="http://www.w3.org/2000/svg" xmlns:osb="http://www.openswatchbook.org/uri/2009/osb" xmlns:svg="http://www.w3.org/2000/svg" id="svg7384" width="16" height="16" version="1.1" style="enable-background:new"><metadata id="metadata90"/><title id="title8473">Solus Symbolic Icon Theme</title><defs id="defs7386"><linearGradient id="linearGradient5606" osb:paint="solid"><stop id="stop5608" offset="0" style="stop-color:#000;stop-opacity:1"/></linearGradient><filter id="filter7554" style="color-interpolation-filters:sRGB"><feBlend id="feBlend7556" in2="BackgroundImage" mode="darken"/></filter></defs><g id="layer12" transform="translate(-385.0002,-140.99664)" style="display:inline"><path id="path2986-2" d="m 387.34416,141.93414 12.71875,12.71875 -1.40625,1.40625 -12.71875,-12.71875 z" style="color:#000;display:inline;overflow:visible;visibility:visible;fill:#4c5263;fill-opacity:1;fill-rule:nonzero;stroke:none;stroke-width:1;marker:none;enable-background:accumulate"/><path id="path11113" d="m 393.0002,144 c -0.52394,0 -1.00643,0.0496 -1.4707,0.11914 l 1.91992,1.91992 a 3,3 0 0 1 2.51562,2.51563 l 3.10938,3.10937 C 400.44812,150.36187 401.0002,149 401.0002,149 c 0,0 -2,-5 -8,-5 z m -3.66602,0.73633 c -3.17721,1.38762 -4.33398,4.25976 -4.33398,4.25976 0,0 2,5.00391 8,5.00391 1.84918,0 3.31504,-0.47765 4.46289,-1.13477 l -2.06641,-2.0664 A 3,3 0 0 1 393.0002,152 a 3,3 0 0 1 -3,-3 3,3 0 0 1 1.20117,-2.39648 l -1.86719,-1.86719 z" style="fill:#4c5263;fill-opacity:1;fill-rule:evenodd;stroke:none;stroke-width:1px;stroke-linecap:butt;stroke-linejoin:miter;stroke-opacity:1"/></g></svg>