<svg xmlns="http://www.w3.org/2000/svg" xmlns:osb="http://www.openswatchbook.org/uri/2009/osb" xmlns:svg="http://www.w3.org/2000/svg" id="svg7384" width="16" height="16" version="1.1" style="enable-background:new"><metadata id="metadata90"/><title id="title8473">Solus Symbolic Icon Theme</title><defs id="defs7386"><linearGradient id="linearGradient6882" osb:paint="solid"><stop id="stop6884" offset="0" style="stop-color:#555;stop-opacity:1"/></linearGradient><linearGradient id="linearGradient5606" osb:paint="solid"><stop id="stop5608" offset="0" style="stop-color:#000;stop-opacity:1"/></linearGradient><filter id="filter7554" style="color-interpolation-filters:sRGB"><feBlend id="feBlend7556" in2="BackgroundImage" mode="darken"/></filter></defs><g id="layer12" transform="translate(-637.00024,-45)" style="display:inline"><path id="path6901-2" d="m 643.0002,59 2.00025,1.99998 L 647.0002,59 Z" style="display:inline;fill:#4f555d;fill-opacity:1;stroke:none;enable-background:new"/><path id="path8379" d="m 639.5002,45.53455 c -0.554,0 -1,0.446 -1,1 v 9 c 0,0.0762 0.027,0.14363 0.043,0.21484 0.19174,0.0838 0.4154,0.0394 0.56055,-0.11132 l 4.39648,-4.39649 2.64648,2.64649 c 0.19527,0.19519 0.51177,0.19519 0.70704,0 l 1.64648,-1.64649 2.64648,2.64649 c 0.0925,0.0966 0.21979,0.15229 0.35352,0.15429 v -8.50781 c 0,-0.554 -0.446,-1 -1,-1 z m 9,2.5 a 0.5,0.5 0 0 1 0.5,0.5 0.5,0.5 0 0 1 -0.5,0.5 0.5,0.5 0 0 1 -0.5,-0.5 0.5,0.5 0 0 1 0.5,-0.5 z" style="opacity:.2;fill:#4f555d;fill-opacity:1;stroke:none;stroke-width:.99999994;stroke-linecap:round;stroke-linejoin:round;stroke-miterlimit:4;stroke-dasharray:none;stroke-dashoffset:0;stroke-opacity:1"/><path id="path8381" d="m 643.5002,51.24158 -4.39648,4.39649 c -0.14515,0.15074 -0.36881,0.19516 -0.56055,0.11132 0.10027,0.4467 0.47921,0.78516 0.95703,0.78516 h 11 c 0.554,0 1,-0.446 1,-1 v -0.49219 c -0.13373,-0.002 -0.26106,-0.0577 -0.35352,-0.15429 l -2.64648,-2.64649 -1.64648,1.64649 c -0.19527,0.19519 -0.51177,0.19519 -0.70704,0 z" style="opacity:.4;fill:#4f555d;fill-opacity:1;stroke:none;stroke-width:.99999994;stroke-linecap:round;stroke-linejoin:round;stroke-miterlimit:4;stroke-dasharray:none;stroke-dashoffset:0;stroke-opacity:1"/><path id="rect8383" d="m 639.5,45.035156 c -0.82235,0 -1.5,0.677649 -1.5,1.5 v 9 c 0,0.822352 0.67765,1.5 1.5,1.5 h 11 c 0.82235,0 1.5,-0.677648 1.5,-1.5 v -9 c 0,-0.822351 -0.67765,-1.5 -1.5,-1.5 z m 0,1 h 11 c 0.28565,0 0.5,0.214352 0.5,0.5 v 9 c 0,0.285649 -0.21435,0.5 -0.5,0.5 h -11 c -0.28565,0 -0.5,-0.214351 -0.5,-0.5 v -9 c 0,-0.285648 0.21435,-0.5 0.5,-0.5 z" style="color:#000;font-style:normal;font-variant:normal;font-weight:400;font-stretch:normal;font-size:medium;line-height:normal;font-family:sans-serif;font-variant-ligatures:normal;font-variant-position:normal;font-variant-caps:normal;font-variant-numeric:normal;font-variant-alternates:normal;font-feature-settings:normal;text-indent:0;text-align:start;text-decoration:none;text-decoration-line:none;text-decoration-style:solid;text-decoration-color:#000;letter-spacing:normal;word-spacing:normal;text-transform:none;writing-mode:lr-tb;direction:ltr;text-orientation:mixed;dominant-baseline:auto;baseline-shift:baseline;text-anchor:start;white-space:normal;shape-padding:0;clip-rule:nonzero;display:inline;overflow:visible;visibility:visible;opacity:1;isolation:auto;mix-blend-mode:normal;color-interpolation:sRGB;color-interpolation-filters:linearRGB;solid-color:#000;solid-opacity:1;vector-effect:none;fill:#4f555d;fill-opacity:1;fill-rule:nonzero;stroke:none;stroke-width:.99999994;stroke-linecap:round;stroke-linejoin:round;stroke-miterlimit:4;stroke-dasharray:none;stroke-dashoffset:0;stroke-opacity:1;color-rendering:auto;image-rendering:auto;shape-rendering:auto;text-rendering:auto;enable-background:accumulate"/><path id="path8387" d="m 643.49219,50.035156 a 0.50005,0.50005 0 0 0 -0.34571,0.146485 l -4.75,4.75 a 0.50005,0.50005 0 1 0 0.70704,0.707031 l 4.39648,-4.396484 2.64648,2.646484 a 0.50005,0.50005 0 0 0 0.70704,0 l 1.64648,-1.646484 2.64648,2.646484 a 0.50005,0.50005 0 1 0 0.70704,-0.707031 l -3,-3 a 0.50005,0.50005 0 0 0 -0.70704,0 L 646.5,52.828125 643.85352,50.181641 a 0.50005,0.50005 0 0 0 -0.36133,-0.146485 z" style="color:#000;font-style:normal;font-variant:normal;font-weight:400;font-stretch:normal;font-size:medium;line-height:normal;font-family:sans-serif;font-variant-ligatures:normal;font-variant-position:normal;font-variant-caps:normal;font-variant-numeric:normal;font-variant-alternates:normal;font-feature-settings:normal;text-indent:0;text-align:start;text-decoration:none;text-decoration-line:none;text-decoration-style:solid;text-decoration-color:#000;letter-spacing:normal;word-spacing:normal;text-transform:none;writing-mode:lr-tb;direction:ltr;text-orientation:mixed;dominant-baseline:auto;baseline-shift:baseline;text-anchor:start;white-space:normal;shape-padding:0;clip-rule:nonzero;display:inline;overflow:visible;visibility:visible;opacity:1;isolation:auto;mix-blend-mode:normal;color-interpolation:sRGB;color-interpolation-filters:linearRGB;solid-color:#000;solid-opacity:1;vector-effect:none;fill:#4f555d;fill-opacity:1;fill-rule:evenodd;stroke:none;stroke-width:1px;stroke-linecap:round;stroke-linejoin:round;stroke-miterlimit:4;stroke-dasharray:none;stroke-dashoffset:0;stroke-opacity:1;color-rendering:auto;image-rendering:auto;shape-rendering:auto;text-rendering:auto;enable-background:new"/><path id="circle8389" d="m 648.5,47.035156 c -0.8225,0 -1.5,0.677495 -1.5,1.5 0,0.822505 0.6775,1.5 1.5,1.5 0.8225,0 1.5,-0.677495 1.5,-1.5 0,-0.822505 -0.6775,-1.5 -1.5,-1.5 z m 0,1 c 0.28206,0 0.5,0.217936 0.5,0.5 0,0.282065 -0.21794,0.5 -0.5,0.5 -0.28206,0 -0.5,-0.217935 -0.5,-0.5 0,-0.282064 0.21794,-0.5 0.5,-0.5 z" style="color:#000;font-style:normal;font-variant:normal;font-weight:400;font-stretch:normal;font-size:medium;line-height:normal;font-family:sans-serif;font-variant-ligatures:normal;font-variant-position:normal;font-variant-caps:normal;font-variant-numeric:normal;font-variant-alternates:normal;font-feature-settings:normal;text-indent:0;text-align:start;text-decoration:none;text-decoration-line:none;text-decoration-style:solid;text-decoration-color:#000;letter-spacing:normal;word-spacing:normal;text-transform:none;writing-mode:lr-tb;direction:ltr;text-orientation:mixed;dominant-baseline:auto;baseline-shift:baseline;text-anchor:start;white-space:normal;shape-padding:0;clip-rule:nonzero;display:inline;overflow:visible;visibility:visible;opacity:1;isolation:auto;mix-blend-mode:normal;color-interpolation:sRGB;color-interpolation-filters:linearRGB;solid-color:#000;solid-opacity:1;vector-effect:none;fill:#4f555d;fill-opacity:1;fill-rule:nonzero;stroke:none;stroke-width:1;stroke-linecap:round;stroke-linejoin:round;stroke-miterlimit:4;stroke-dasharray:none;stroke-dashoffset:0;stroke-opacity:1;color-rendering:auto;image-rendering:auto;shape-rendering:auto;text-rendering:auto;enable-background:accumulate"/></g></svg>