<svg xmlns="http://www.w3.org/2000/svg" xmlns:osb="http://www.openswatchbook.org/uri/2009/osb" xmlns:svg="http://www.w3.org/2000/svg" id="svg7384" width="16" height="15.982" version="1.1" style="enable-background:new"><metadata id="metadata90"/><title id="title8473">Solus Symbolic Icon Theme</title><defs id="defs7386"><linearGradient id="linearGradient6882" osb:paint="solid"><stop id="stop6884" offset="0" style="stop-color:#4c5263;stop-opacity:1"/></linearGradient><linearGradient id="linearGradient5606" osb:paint="solid"><stop id="stop5608" offset="0" style="stop-color:#000;stop-opacity:1"/></linearGradient><filter id="filter7554" style="color-interpolation-filters:sRGB"><feBlend id="feBlend7556" in2="BackgroundImage" mode="darken"/></filter></defs><g id="layer12" transform="translate(-765.0002,-101.00288)" style="display:inline"><path id="rect10520" d="m 770.0002,103.99379 c -2.77,0 -5,2.23 -5,5 0,2.77 2.23,5 5,5 l 2,0 0,-2 -2,0 c -1.662,0 -3,-1.338 -3,-3 0,-1.66201 1.338,-3 3,-3 l 2,0 0,-2 -2,0 z m 4,0 0,2 2,0 c 1.662,0 3,1.33799 3,3 0,1.662 -1.338,3 -3,3 l -2,0 0,2 2,0 c 2.77,0 5,-2.23 5,-5 0,-2.77 -2.23,-5 -5,-5 l -2,0 z m -4,4 0,2 6,0 0,-2 -6,0 z" style="display:inline;opacity:1;fill:#4c5263;fill-opacity:1;stroke:none;enable-background:new"/></g></svg>