<svg xmlns="http://www.w3.org/2000/svg" xmlns:osb="http://www.openswatchbook.org/uri/2009/osb" xmlns:svg="http://www.w3.org/2000/svg" id="svg7384" width="16" height="16" version="1.1" style="enable-background:new"><metadata id="metadata90"/><title id="title8473">Solus Symbolic Icon Theme</title><defs id="defs7386"><linearGradient id="linearGradient6882" osb:paint="solid"><stop id="stop6884" offset="0" style="stop-color:#4c5263;stop-opacity:1"/></linearGradient><linearGradient id="linearGradient5606" osb:paint="solid"><stop id="stop5608" offset="0" style="stop-color:#000;stop-opacity:1"/></linearGradient><filter id="filter7554" style="color-interpolation-filters:sRGB"><feBlend id="feBlend7556" in2="BackgroundImage" mode="darken"/></filter></defs><g id="layer12" transform="translate(-465.00041,19)" style="display:inline"><path id="path13291" d="m 470.21895,-18 -0.3125,0.28125 -3.625,3.625 -0.28125,0.3125 0,0.40625 0,4.75 0,0.40625 0.28125,0.3125 3.625,3.625 0.3125,0.28125 0.40625,0 4.75,0 0.40625,0 0.3125,-0.28125 3.625,-3.625 0.28125,-0.3125 0,-0.40625 0,-4.75 0,-0.40625 -0.28125,-0.3125 -3.625,-3.625 -0.3125,-0.28125 -0.40625,0 -4.75,0 -0.40625,0 z m 1.78125,3 2,0 0,3 -0.25,2 -1.46875,0 -0.28125,-2 0,-3 z m 1,5.75 c 0.69036,0 1.25,0.55964 1.25,1.25 0,0.69036 -0.55964,1.25 -1.25,1.25 -0.69036,0 -1.25,-0.55964 -1.25,-1.25 0,-0.69036 0.55964,-1.25 1.25,-1.25 z" style="color:#000;font-style:normal;font-variant:normal;font-weight:400;font-stretch:normal;font-size:medium;line-height:normal;font-family:Sans;-inkscape-font-specification:Sans;text-indent:0;text-align:start;text-decoration:none;text-decoration-line:none;letter-spacing:normal;word-spacing:normal;text-transform:none;direction:ltr;block-progression:tb;writing-mode:lr-tb;baseline-shift:baseline;text-anchor:start;display:inline;overflow:visible;visibility:visible;opacity:.35;fill:#4c5263;fill-opacity:1;stroke:none;stroke-width:1;marker:none;enable-background:accumulate"/></g></svg>