<svg xmlns="http://www.w3.org/2000/svg" xmlns:osb="http://www.openswatchbook.org/uri/2009/osb" xmlns:svg="http://www.w3.org/2000/svg" id="svg7384" width="16" height="16" version="1.1" style="enable-background:new"><metadata id="metadata90"/><title id="title8473">Solus Symbolic Icon Theme</title><defs id="defs7386"><linearGradient id="linearGradient5606" osb:paint="solid"><stop id="stop5608" offset="0" style="stop-color:#000;stop-opacity:1"/></linearGradient><filter id="filter7554" color-interpolation-filters="sRGB"><feBlend id="feBlend7556" in2="BackgroundImage" mode="darken"/></filter></defs><g id="layer12" transform="translate(-425.00021,-121)" style="display:inline"><path id="path5139" d="m 436.8752,122.21875 -9.84375,1.75 c -0.98481,0.17365 -0.8125,1.15625 -0.8125,1.15625 l 0.5,2.875 12.1875,0 -0.875,-4.96875 c -0.17365,-0.98481 -1.15625,-0.8125 -1.15625,-0.8125 z m -9.625,8.78125 0.71875,3.96875 c 0.17365,0.98481 1.15625,0.8125 1.15625,0.8125 l 9.84375,-1.75 c 0,0 0.98615,-0.17144 0.8125,-1.15625 L 439.4377,131 l -12.1875,0 z" style="fill:#4c5263;fill-opacity:1;stroke:none"/><path id="path5935" d="m 426.0002,129 0,1 1,0 0,-1 -1,0 z m 2,0 0,1 1,0 0,-1 -1,0 z m 2,0 0,1 1,0 0,-1 -1,0 z m 2,0 0,1 1,0 0,-1 -1,0 z m 2,0 0,1 1,0 0,-1 -1,0 z m 2,0 0,1 1,0 0,-1 -1,0 z m 2,0 0,1 1,0 0,-1 -1,0 z m 2,0 0,1 1,0 0,-1 -1,0 z" style="font-size:medium;font-style:normal;font-variant:normal;font-weight:400;font-stretch:normal;text-indent:0;text-align:start;text-decoration:none;line-height:normal;letter-spacing:normal;word-spacing:normal;text-transform:none;direction:ltr;block-progression:tb;writing-mode:lr-tb;text-anchor:start;baseline-shift:baseline;color:#000;fill:#4c5263;fill-opacity:1;stroke:none;stroke-width:1;marker:none;visibility:visible;display:inline;overflow:visible;enable-background:accumulate;font-family:Sans;-inkscape-font-specification:Sans"/></g></svg>