<svg xmlns="http://www.w3.org/2000/svg" xmlns:osb="http://www.openswatchbook.org/uri/2009/osb" xmlns:svg="http://www.w3.org/2000/svg" id="svg7384" width="16" height="16" version="1.1" style="enable-background:new"><metadata id="metadata90"/><title id="title8473">Solus Symbolic Icon Theme</title><defs id="defs7386"><linearGradient id="linearGradient6882" osb:paint="solid"><stop id="stop6884" offset="0" style="stop-color:#4c5263;stop-opacity:1"/></linearGradient><linearGradient id="linearGradient5606" osb:paint="solid"><stop id="stop5608" offset="0" style="stop-color:#000;stop-opacity:1"/></linearGradient><filter id="filter7554" style="color-interpolation-filters:sRGB"><feBlend id="feBlend7556" in2="BackgroundImage" mode="darken"/></filter></defs><g id="layer12" transform="translate(-445.03186,38.93752)" style="display:inline"><path id="path8974" d="m 450.2502,-37.9375 -0.3125,0.28125 -3.625,3.625 -0.28125,0.3125 0,0.40625 0,4.75 0,0.40625 0.28125,0.3125 3.625,3.625 0.3125,0.28125 0.40625,0 4.75,0 0.40625,0 0.3125,-0.28125 3.625,-3.625 0.28125,-0.3125 0,-0.40625 0,-4.75 0,-0.40625 -0.28125,-0.3125 -3.625,-3.625 -0.3125,-0.28125 -0.40625,0 -4.75,0 -0.40625,0 z m -0.25,3.9375 1,0 c 0.27614,0 0.53779,0.10028 0.71875,0.28125 l 1.28125,1.27734 1.28125,-1.27734 C 454.46241,-33.89972 454.72406,-34 455.0002,-34 l 1,0 0,1 c 0,0.27614 -0.10029,0.53778 -0.28125,0.71875 l -1.28125,1.27734 1.28125,1.28516 c 0.18096,0.18097 0.28262,0.44261 0.28125,0.71875 l 0,1 -1,0 c -0.27614,0 -0.53779,-0.10028 -0.71875,-0.28125 l -1.28125,-1.28516 -1.28125,1.28516 C 451.53799,-28.10028 451.27634,-28 451.0002,-28 l -1,0 0,-1 c 0,-0.27614 0.10029,-0.53778 0.28125,-0.71875 l 1.28125,-1.28516 -1.28125,-1.27734 C 450.10049,-32.46222 450.0002,-32.72386 450.0002,-33 l 0,-1 z" style="color:#000;font-style:normal;font-variant:normal;font-weight:400;font-stretch:normal;font-size:medium;line-height:normal;font-family:Sans;-inkscape-font-specification:Sans;text-indent:0;text-align:start;text-decoration:none;text-decoration-line:none;letter-spacing:normal;word-spacing:normal;text-transform:none;direction:ltr;block-progression:tb;writing-mode:lr-tb;baseline-shift:baseline;text-anchor:start;display:inline;overflow:visible;visibility:visible;fill:#4c5263;fill-opacity:1;stroke:none;stroke-width:1;marker:none;enable-background:accumulate"/></g></svg>