<svg xmlns="http://www.w3.org/2000/svg" xmlns:osb="http://www.openswatchbook.org/uri/2009/osb" xmlns:svg="http://www.w3.org/2000/svg" id="svg7384" width="16" height="16" version="1.1" style="enable-background:new"><metadata id="metadata90"/><title id="title8473">Solus Symbolic Icon Theme</title><defs id="defs7386"><linearGradient id="linearGradient5606" osb:paint="solid"><stop id="stop5608" offset="0" style="stop-color:#000;stop-opacity:1"/></linearGradient><filter id="filter7554" color-interpolation-filters="sRGB"><feBlend id="feBlend7556" in2="BackgroundImage" mode="darken"/></filter></defs><g id="layer12" transform="translate(-525.00039,19.00336)" style="display:inline"><path id="path6545-7" d="m 534.0002,-18 1.21875,1.90625 -4.40625,2.75 c -0.51544,-0.41091 -1.15082,-0.65629 -1.8125,-0.65625 -1.57091,9e-5 -3,1.42933 -3,3 0,1.57067 1.42909,2.99991 3,3 0.66168,4e-5 1.29706,-0.27659 1.8125,-0.6875 l 4.40625,2.78125 L 534.0002,-4 l 6,0 -2.5,-5.5 -1.21875,1.9375 -4.375,-2.78125 c 0.0545,-0.21463 0.0937,-0.43211 0.0937,-0.65625 0,-0.22414 -0.0393,-0.44162 -0.0937,-0.65625 l 4.375,-2.78125 1.21875,1.9375 2.5,-5.5 -6,0 z" style="color:#000;fill:#4c5263;fill-opacity:1;fill-rule:nonzero;stroke:none;stroke-width:.99999994;marker:none;visibility:visible;display:inline;overflow:visible;enable-background:new"/></g></svg>