<svg xmlns="http://www.w3.org/2000/svg" xmlns:osb="http://www.openswatchbook.org/uri/2009/osb" xmlns:svg="http://www.w3.org/2000/svg" id="svg7384" width="16.001" height="16" version="1.1" style="enable-background:new"><metadata id="metadata90"/><title id="title8473">Solus Symbolic Icon Theme</title><defs id="defs7386"><linearGradient id="linearGradient6882" osb:paint="solid"><stop id="stop6884" offset="0" style="stop-color:#555;stop-opacity:1"/></linearGradient><linearGradient id="linearGradient5606" osb:paint="solid"><stop id="stop5608" offset="0" style="stop-color:#000;stop-opacity:1"/></linearGradient><filter id="filter7554" style="color-interpolation-filters:sRGB"><feBlend id="feBlend7556" in2="BackgroundImage" mode="darken"/></filter></defs><g id="layer12" transform="translate(-824.99939,35)" style="display:inline"><path id="path6933-4-6" d="m 833.0002,-33.87695 -1.98633,5.38281 h -5.51367 l 4.28711,3.48242 -1.42188,5.33594 4.63477,-3 1,0.64648 V -23.5 c 0,-0.5 0.5,-0.5 0.5,-0.5 h 1.5 v -1.5 c 0,-0.5 0.5,-0.5 0.5,-0.5 h 0.93164 l 3.06836,-2.49414 h -5.51367 z" style="color:#000;font-style:normal;font-variant:normal;font-weight:400;font-stretch:normal;line-height:normal;font-family:sans-serif;-inkscape-font-specification:sans-serif;text-indent:0;text-align:start;text-decoration:none;text-decoration-line:none;letter-spacing:normal;word-spacing:normal;text-transform:none;writing-mode:lr-tb;direction:ltr;baseline-shift:baseline;text-anchor:start;display:inline;overflow:visible;visibility:visible;opacity:.2;fill:#4c5263;fill-opacity:1;stroke:none;stroke-width:1;stroke-linejoin:round;stroke-miterlimit:4;stroke-dasharray:none;stroke-opacity:1;marker:none;enable-background:accumulate"/><path id="polygon5122-0-0-5-3" d="m 833.00997,-34.37695 c -0.21314,-0.004 -0.40526,0.12793 -0.47852,0.32812 l -1.86523,5.05469 h -5.16602 c -0.47109,2.2e-4 -0.68056,0.59221 -0.31445,0.88867 l 4.03515,3.27735 -1.33789,5.02343 c -0.11719,0.44137 0.36989,0.79596 0.75391,0.54883 l 4.36328,-2.82422 1.02148,0.66211 C 834.08281,-21.01682 834.5002,-21 834.5002,-21 h 0.16797 l 1.33203,0.86133 V -19.5 c 0,0.5 0.5,0.5 0.5,0.5 h 2 c 0,0 0.5,0 0.5,-0.5 V -21 h 1.5 c 0,0 0.5,0 0.5,-0.5 v -2 c 0,-0.5 -0.5,-0.5 -0.5,-0.5 h -1.5 v -1.5 c 0,-0.48614 -0.5,-0.5 -0.5,-0.5 h -0.27734 l 2.59375,-2.10742 c 0.36292,-0.2976 0.15292,-0.8861 -0.31641,-0.88672 h -5.16406 l -1.86524,-5.05469 c -0.0711,-0.19414 -0.25423,-0.32454 -0.46093,-0.32812 z m -0.01,1.94726 1.51758,4.10742 c 0.0721,0.1968 0.25918,0.32779 0.46875,0.32813 h 4.10547 L 836.63887,-26 h -0.13867 c 0,0 -0.5,0 -0.5,0.5 v 0.0195 l -0.0996,0.0801 c -0.15318,0.12429 -0.21897,0.32702 -0.16797,0.51758 L 835.967,-24 h -1.4668 c 0,0 -0.5,0 -0.5,0.5 v 0.875 l -0.72656,-0.4707 c -0.16569,-0.10766 -0.37923,-0.10766 -0.54492,0 l -3.54688,2.29687 1.08789,-4.08398 c 0.051,-0.19056 -0.0148,-0.39329 -0.16797,-0.51758 l -3.1914,-2.59375 h 4.10351 c 0.21029,4.8e-4 0.3984,-0.13066 0.47071,-0.32813 z M 837.0002,-25 h 1 v 2 h 2 v 1 h -2 v 2 h -1 v -2 h -2 v -1 h 2 v -0.5 z" style="color:#000;font-style:normal;font-variant:normal;font-weight:400;font-stretch:normal;font-size:medium;line-height:normal;font-family:sans-serif;-inkscape-font-specification:sans-serif;font-variant-ligatures:normal;font-variant-position:normal;font-variant-caps:normal;font-variant-numeric:normal;font-variant-alternates:normal;font-feature-settings:normal;text-indent:0;text-align:start;text-decoration:none;text-decoration-line:none;text-decoration-style:solid;text-decoration-color:#000;letter-spacing:normal;word-spacing:normal;text-transform:none;writing-mode:lr-tb;direction:ltr;text-orientation:mixed;dominant-baseline:auto;baseline-shift:baseline;text-anchor:start;white-space:normal;shape-padding:0;clip-rule:nonzero;display:inline;overflow:visible;visibility:visible;opacity:1;isolation:auto;mix-blend-mode:normal;color-interpolation:sRGB;color-interpolation-filters:linearRGB;solid-color:#000;solid-opacity:1;vector-effect:none;fill:#4c5263;fill-opacity:1;fill-rule:nonzero;stroke:none;stroke-width:1;stroke-linecap:butt;stroke-linejoin:round;stroke-miterlimit:4;stroke-dasharray:none;stroke-dashoffset:0;stroke-opacity:1;marker:none;color-rendering:auto;image-rendering:auto;shape-rendering:auto;text-rendering:auto;enable-background:accumulate"/></g></svg>