<svg xmlns="http://www.w3.org/2000/svg" xmlns:osb="http://www.openswatchbook.org/uri/2009/osb" xmlns:svg="http://www.w3.org/2000/svg" id="svg7384" width="16" height="16" version="1.1" style="enable-background:new"><metadata id="metadata90"/><title id="title8473">Solus Symbolic Icon Theme</title><defs id="defs7386"><linearGradient id="linearGradient6882" osb:paint="solid"><stop id="stop6884" offset="0" style="stop-color:#555;stop-opacity:1"/></linearGradient><linearGradient id="linearGradient5606" osb:paint="solid"><stop id="stop5608" offset="0" style="stop-color:#000;stop-opacity:1"/></linearGradient><filter id="filter7554" style="color-interpolation-filters:sRGB"><feBlend id="feBlend7556" in2="BackgroundImage" mode="darken"/></filter></defs><g id="layer12" transform="translate(-497.00037,-144.99664)" style="display:inline"><path id="path7984" d="m 505.0002,146 c -2.216,0 -4,1.8217 -4,4.0625 V 152 h -1.5 c -0.5,0 -0.5,0.5 -0.5,0.5 v 7 c 0,0.5 0.5,0.5 0.5,0.5 h 11 c 0,0 0.5,0 0.5,-0.5 v -7 l -0.5,-0.5 h -1.5 v -1.9375 c 0,-2.2398 -1.784,-4.0625 -4,-4.0625 z m 0,2 c 1.108,0 2,0.8848 2,2 v 2 h -4 v -2 c 0,-1.1152 0.892,-2 2,-2 z" style="display:inline;fill:#4f555d;fill-opacity:1;stroke:none;stroke-width:1;enable-background:new"/></g></svg>