<svg xmlns="http://www.w3.org/2000/svg" xmlns:osb="http://www.openswatchbook.org/uri/2009/osb" xmlns:svg="http://www.w3.org/2000/svg" id="svg7384" width="16" height="16" version="1.1" style="enable-background:new"><metadata id="metadata90"/><title id="title8473">Solus Symbolic Icon Theme</title><defs id="defs7386"><linearGradient id="linearGradient6882" osb:paint="solid"><stop id="stop6884" offset="0" style="stop-color:#555;stop-opacity:1"/></linearGradient><linearGradient id="linearGradient5606" osb:paint="solid"><stop id="stop5608" offset="0" style="stop-color:#000;stop-opacity:1"/></linearGradient><filter id="filter7554" style="color-interpolation-filters:sRGB"><feBlend id="feBlend7556" in2="BackgroundImage" mode="darken"/></filter></defs><g id="layer12" transform="translate(-497.00018,-105)" style="display:inline"><path id="path9693" d="m 500.54126,113.76555 c -0.1385,0 -0.25,0.1115 -0.25,0.25 v 0.54785 c -0.3046,0.0566 -0.59154,0.16384 -0.85254,0.3125 l -0.35352,-0.4209 c -0.089,-0.1061 -0.24644,-0.12028 -0.35254,-0.0312 l -0.38281,0.32129 c -0.1061,0.089 -0.1193,0.24644 -0.0303,0.35254 l 0.35253,0.41992 c 0,0 -10e-4,0.001 -10e-4,0.001 -0.19229,0.23276 -0.34408,0.49901 -0.45215,0.78613 l -0.54199,-0.0957 c -0.13639,-0.0241 -0.26501,0.0667 -0.28906,0.20313 l -0.0869,0.49218 c -0.024,0.1364 0.0667,0.26502 0.20313,0.28907 l 0.53809,0.0947 c 0.003,0.31378 0.0598,0.61458 0.16016,0.89551 l -0.47559,0.27442 c -0.11995,0.0692 -0.16105,0.22087 -0.0918,0.34082 l 0.25,0.43359 c 0.0693,0.11994 0.22185,0.16007 0.3418,0.0908 l 0.47656,-0.27539 c 0.19757,0.23096 0.43253,0.42735 0.69531,0.58301 l -0.18848,0.51757 c -0.0473,0.13015 0.0193,0.27295 0.14942,0.32032 l 0.46972,0.1709 c 0.13015,0.0473 0.27295,-0.0192 0.32032,-0.14942 l 0.1875,-0.51562 c 0.14807,0.0249 0.29921,0.041 0.4541,0.041 0.15489,0 0.30602,-0.0161 0.4541,-0.041 l 0.1875,0.51562 c 0.0473,0.13015 0.19016,0.19679 0.32031,0.14942 l 0.46973,-0.1709 c 0.13015,-0.0473 0.19678,-0.19017 0.14941,-0.32032 l -0.18847,-0.51757 c 0.26259,-0.15562 0.49785,-0.35218 0.69531,-0.58301 l 0.47656,0.27539 c 0.11995,0.0692 0.27255,0.0292 0.3418,-0.0908 l 0.25,-0.43359 c 0.0693,-0.11995 0.0281,-0.27157 -0.0918,-0.34082 l -0.47559,-0.27442 c 0.10036,-0.28093 0.15759,-0.58173 0.16016,-0.89551 l 0.53809,-0.0947 c 0.13639,-0.0241 0.22717,-0.15267 0.20312,-0.28907 l -0.0869,-0.49218 c -0.024,-0.1364 -0.15365,-0.22718 -0.29004,-0.20313 l -0.54102,0.0957 c -0.10806,-0.28712 -0.26083,-0.55434 -0.45312,-0.7871 l 0.35254,-0.41993 c 0.089,-0.10609 0.0758,-0.26351 -0.0303,-0.35254 l -0.38281,-0.32128 c -0.1061,-0.089 -0.26352,-0.0758 -0.35254,0.0303 l -0.35352,0.42187 c -0.26115,-0.14883 -0.54771,-0.25589 -0.85254,-0.3125 v -0.54785 c 0,-0.1385 -0.1115,-0.25 -0.25,-0.25 z m 0.25,1.75 c 0.97242,0 1.75,0.77758 1.75,1.75 0,0.97242 -0.77758,1.75 -1.75,1.75 -0.97242,0 -1.75,-0.77758 -1.75,-1.75 0,-0.97242 0.77758,-1.75 1.75,-1.75 z" style="color:#000;font-style:normal;font-variant:normal;font-weight:400;font-stretch:normal;font-size:medium;line-height:normal;font-family:sans-serif;font-variant-ligatures:normal;font-variant-position:normal;font-variant-caps:normal;font-variant-numeric:normal;font-variant-alternates:normal;font-feature-settings:normal;text-indent:0;text-align:start;text-decoration:none;text-decoration-line:none;text-decoration-style:solid;text-decoration-color:#000;letter-spacing:normal;word-spacing:normal;text-transform:none;writing-mode:lr-tb;direction:ltr;text-orientation:mixed;dominant-baseline:auto;baseline-shift:baseline;text-anchor:start;white-space:normal;shape-padding:0;clip-rule:nonzero;display:inline;overflow:visible;visibility:visible;opacity:1;isolation:auto;mix-blend-mode:normal;color-interpolation:sRGB;color-interpolation-filters:linearRGB;solid-color:#000;solid-opacity:1;vector-effect:none;fill:#4f555d;fill-opacity:1;fill-rule:nonzero;stroke:none;stroke-width:1;stroke-linecap:round;stroke-linejoin:round;stroke-miterlimit:4;stroke-dasharray:none;stroke-dashoffset:0;stroke-opacity:1;color-rendering:auto;image-rendering:auto;shape-rendering:auto;text-rendering:auto;enable-background:accumulate"/><path id="path9699" d="m 506.12218,105.29926 c -0.20775,0 -0.375,0.16725 -0.375,0.375 v 0.82177 c -0.45691,0.0849 -0.88731,0.24576 -1.27881,0.46875 l -0.53028,-0.63135 c -0.1335,-0.15915 -0.36966,-0.18042 -0.52881,-0.0468 l -0.57422,0.48194 c -0.15914,0.1335 -0.17894,0.36966 -0.0455,0.52881 l 0.5288,0.62988 c 0,0 -10e-4,0.002 -10e-4,0.002 -0.28843,0.34914 -0.51612,0.74851 -0.67822,1.17919 l -0.81299,-0.14355 c -0.20459,-0.0362 -0.39752,0.10005 -0.43359,0.3047 l -0.13035,0.73827 c -0.036,0.2046 0.10005,0.39753 0.3047,0.4336 l 0.80713,0.14205 c 0.005,0.47067 0.0897,0.92187 0.24024,1.34327 l -0.71338,0.41163 c -0.17993,0.1038 -0.24158,0.3313 -0.1377,0.51123 l 0.375,0.65038 c 0.10394,0.17991 0.33277,0.24011 0.5127,0.1362 l 0.71484,-0.41308 c 0.29635,0.34644 0.64879,0.64102 1.04296,0.87451 l -0.28272,0.77636 c -0.071,0.19522 0.0289,0.40942 0.22413,0.48048 l 0.70457,0.25635 c 0.19523,0.0709 0.40944,-0.0288 0.48048,-0.22413 l 0.28125,-0.77343 c 0.2221,0.0374 0.44883,0.0615 0.68116,0.0615 0.23234,0 0.45903,-0.0242 0.68114,-0.0615 l 0.28125,0.77343 c 0.0709,0.19522 0.28525,0.29518 0.48046,0.22413 l 0.7046,-0.25635 c 0.19523,-0.071 0.29518,-0.28526 0.22413,-0.48048 l -0.28271,-0.77636 c 0.39389,-0.23343 0.74677,-0.52827 1.04296,-0.87451 l 0.71483,0.41308 c 0.17993,0.1038 0.40884,0.0438 0.5127,-0.1362 l 0.375,-0.65038 c 0.10396,-0.17993 0.0421,-0.40736 -0.1377,-0.51123 l -0.71337,-0.41163 c 0.15053,-0.4214 0.23638,-0.8726 0.24023,-1.34327 l 0.80714,-0.14205 c 0.20459,-0.0361 0.34076,-0.229 0.30467,-0.4336 l -0.13035,-0.73827 c -0.036,-0.2046 -0.23047,-0.34077 -0.43506,-0.3047 l -0.81153,0.14355 c -0.16209,-0.43068 -0.39124,-0.83151 -0.67968,-1.18065 l 0.52881,-0.62989 c 0.13351,-0.15914 0.11371,-0.39527 -0.0455,-0.52881 l -0.57421,-0.48192 c -0.15915,-0.1335 -0.39528,-0.1137 -0.52882,0.0455 l -0.53027,0.6328 c -0.39174,-0.22324 -0.82157,-0.38383 -1.27881,-0.46875 v -0.82177 c 0,-0.20775 -0.16725,-0.375 -0.375,-0.375 z m 0.375,2.625 c 1.45862,0 2.625,1.16637 2.625,2.625 0,1.45863 -1.16638,2.625 -2.625,2.625 -1.45863,0 -2.625,-1.16637 -2.625,-2.625 0,-1.45863 1.16637,-2.625 2.625,-2.625 z" style="color:#000;font-style:normal;font-variant:normal;font-weight:400;font-stretch:normal;font-size:medium;line-height:normal;font-family:sans-serif;font-variant-ligatures:normal;font-variant-position:normal;font-variant-caps:normal;font-variant-numeric:normal;font-variant-alternates:normal;font-feature-settings:normal;text-indent:0;text-align:start;text-decoration:none;text-decoration-line:none;text-decoration-style:solid;text-decoration-color:#000;letter-spacing:normal;word-spacing:normal;text-transform:none;writing-mode:lr-tb;direction:ltr;text-orientation:mixed;dominant-baseline:auto;baseline-shift:baseline;text-anchor:start;white-space:normal;shape-padding:0;clip-rule:nonzero;display:inline;overflow:visible;visibility:visible;opacity:1;isolation:auto;mix-blend-mode:normal;color-interpolation:sRGB;color-interpolation-filters:linearRGB;solid-color:#000;solid-opacity:1;vector-effect:none;fill:#4f555d;fill-opacity:1;fill-rule:nonzero;stroke:none;stroke-width:1;stroke-linecap:round;stroke-linejoin:round;stroke-miterlimit:4;stroke-dasharray:none;stroke-dashoffset:0;stroke-opacity:1;color-rendering:auto;image-rendering:auto;shape-rendering:auto;text-rendering:auto;enable-background:accumulate"/></g></svg>