<svg xmlns="http://www.w3.org/2000/svg" xmlns:osb="http://www.openswatchbook.org/uri/2009/osb" xmlns:svg="http://www.w3.org/2000/svg" id="svg7384" width="16.006" height="16" version="1.1" style="enable-background:new"><metadata id="metadata90"/><title id="title8473">Solus Symbolic Icon Theme</title><defs id="defs7386"><linearGradient id="linearGradient6882" osb:paint="solid"><stop id="stop6884" offset="0" style="stop-color:#555;stop-opacity:1"/></linearGradient><linearGradient id="linearGradient5606" osb:paint="solid"><stop id="stop5608" offset="0" style="stop-color:#000;stop-opacity:1"/></linearGradient><filter id="filter7554" style="color-interpolation-filters:sRGB"><feBlend id="feBlend7556" in2="BackgroundImage" mode="darken"/></filter></defs><g id="layer12" transform="translate(-336.99515,14.003342)" style="display:inline"><path id="path9162" d="m 345,-12 v 9 h 3.5 c 1.16667,0 1.88764,-0.6580868 2.19727,-1.2773438 C 351.00689,-4.8966007 351,-5.5 351,-5.5 c 0,0 0.007,-0.6033993 -0.30273,-1.2226562 C 350.38764,-7.3419132 349.66667,-8 348.5,-8 H 346 v -4 z m 1,5 h 2.5 c 0.83333,0 1.11236,0.3419132 1.30273,0.7226562 C 349.99311,-5.8966007 350,-5.5 350,-5.5 c 0,0 -0.007,0.3966007 -0.19727,0.7773438 C 349.61236,-4.3419132 349.33333,-4 348.5,-4 H 346 Z" style="color:#000;font-style:normal;font-variant:normal;font-weight:400;font-stretch:normal;font-size:medium;line-height:normal;font-family:sans-serif;font-variant-ligatures:normal;font-variant-position:normal;font-variant-caps:normal;font-variant-numeric:normal;font-variant-alternates:normal;font-feature-settings:normal;text-indent:0;text-align:start;text-decoration:none;text-decoration-line:none;text-decoration-style:solid;text-decoration-color:#000;letter-spacing:normal;word-spacing:normal;text-transform:none;writing-mode:lr-tb;direction:ltr;text-orientation:mixed;dominant-baseline:auto;baseline-shift:baseline;text-anchor:start;white-space:normal;shape-padding:0;clip-rule:nonzero;display:inline;overflow:visible;visibility:visible;opacity:1;isolation:auto;mix-blend-mode:normal;color-interpolation:sRGB;color-interpolation-filters:linearRGB;solid-color:#000;solid-opacity:1;vector-effect:none;fill:#4f555d;fill-opacity:1;fill-rule:evenodd;stroke:none;stroke-width:1px;stroke-linecap:butt;stroke-linejoin:miter;stroke-miterlimit:4;stroke-dasharray:none;stroke-dashoffset:0;stroke-opacity:1;color-rendering:auto;image-rendering:auto;shape-rendering:auto;text-rendering:auto;enable-background:new"/><path id="path6730-6" d="m 339,-10 v 1 h 2.5 c 0.83333,0 1.11236,0.3419132 1.30273,0.7226562 C 342.99311,-7.8966007 343,-7.5 343,-7.5 V -7 h -3 c -0.91667,0 -1.51264,0.5330865 -1.75977,1.0273438 C 337.9931,-5.478399 338,-5 338,-5 c 0,0 -0.007,0.4783993 0.24023,0.9726562 C 338.48736,-3.5330868 339.08333,-3 340,-3 h 4 v -4.5 c 0,0 0.007,-0.6033993 -0.30273,-1.2226562 C 343.38764,-9.3419132 342.66667,-10 341.5,-10 Z m 1,4 h 3 v 2 h -3 c -0.58333,0 -0.73736,-0.2169132 -0.86523,-0.4726562 C 339.00689,-4.7283993 339,-5 339,-5 c 0,0 0.007,-0.271601 0.13477,-0.5273438 C 339.26264,-5.7830865 339.41666,-6 340,-6 Z" style="color:#000;font-style:normal;font-variant:normal;font-weight:400;font-stretch:normal;font-size:medium;line-height:normal;font-family:sans-serif;font-variant-ligatures:normal;font-variant-position:normal;font-variant-caps:normal;font-variant-numeric:normal;font-variant-alternates:normal;font-feature-settings:normal;text-indent:0;text-align:start;text-decoration:none;text-decoration-line:none;text-decoration-style:solid;text-decoration-color:#000;letter-spacing:normal;word-spacing:normal;text-transform:none;writing-mode:lr-tb;direction:ltr;text-orientation:mixed;dominant-baseline:auto;baseline-shift:baseline;text-anchor:start;white-space:normal;shape-padding:0;clip-rule:nonzero;display:inline;overflow:visible;visibility:visible;opacity:1;isolation:auto;mix-blend-mode:normal;color-interpolation:sRGB;color-interpolation-filters:linearRGB;solid-color:#000;solid-opacity:1;vector-effect:none;fill:#4f555d;fill-opacity:1;fill-rule:evenodd;stroke:none;stroke-width:1px;stroke-linecap:butt;stroke-linejoin:miter;stroke-miterlimit:4;stroke-dasharray:none;stroke-dashoffset:0;stroke-opacity:1;color-rendering:auto;image-rendering:auto;shape-rendering:auto;text-rendering:auto;enable-background:new"/><path id="path9205" d="m 351.49023,-2.0039062 a 0.50005,0.50005 0 0 0 -0.34375,0.1503906 L 349.5,-0.20703125 347.85352,-1.8535156 a 0.50005,0.50005 0 0 0 -0.70704,0 L 345.5,-0.20703125 343.85352,-1.8535156 a 0.50005,0.50005 0 0 0 -0.70704,0 L 341.5,-0.20703125 339.85352,-1.8535156 a 0.50005,0.50005 0 0 0 -0.70704,0 l -2,1.99999998 a 0.50005,0.50005 0 1 0 0.70704,0.70703124 l 1.64648,-1.64648437 1.64648,1.64648437 a 0.50005,0.50005 0 0 0 0.70704,0 l 1.64648,-1.64648437 1.64648,1.64648437 a 0.50005,0.50005 0 0 0 0.70704,0 l 1.64648,-1.64648437 1.64648,1.64648437 a 0.50005,0.50005 0 0 0 0.70704,0 l 2,-2.00000002 a 0.50005,0.50005 0 0 0 -0.36329,-0.8574218 z" style="color:#000;font-style:normal;font-variant:normal;font-weight:400;font-stretch:normal;font-size:medium;line-height:normal;font-family:sans-serif;font-variant-ligatures:normal;font-variant-position:normal;font-variant-caps:normal;font-variant-numeric:normal;font-variant-alternates:normal;font-feature-settings:normal;text-indent:0;text-align:start;text-decoration:none;text-decoration-line:none;text-decoration-style:solid;text-decoration-color:#000;letter-spacing:normal;word-spacing:normal;text-transform:none;writing-mode:lr-tb;direction:ltr;text-orientation:mixed;dominant-baseline:auto;baseline-shift:baseline;text-anchor:start;white-space:normal;shape-padding:0;clip-rule:nonzero;display:inline;overflow:visible;visibility:visible;opacity:1;isolation:auto;mix-blend-mode:normal;color-interpolation:sRGB;color-interpolation-filters:linearRGB;solid-color:#000;solid-opacity:1;vector-effect:none;fill:#4f555d;fill-opacity:1;fill-rule:nonzero;stroke:none;stroke-width:1;stroke-linecap:round;stroke-linejoin:round;stroke-miterlimit:4;stroke-dasharray:none;stroke-dashoffset:0;stroke-opacity:1;marker:none;color-rendering:auto;image-rendering:auto;shape-rendering:auto;text-rendering:auto;enable-background:accumulate"/></g></svg>