<svg xmlns="http://www.w3.org/2000/svg" xmlns:osb="http://www.openswatchbook.org/uri/2009/osb" xmlns:svg="http://www.w3.org/2000/svg" id="svg7384" width="16" height="16" version="1.1" style="enable-background:new"><metadata id="metadata90"/><title id="title8473">Solus Symbolic Icon Theme</title><defs id="defs7386"><linearGradient id="linearGradient6882" osb:paint="solid"><stop id="stop6884" offset="0" style="stop-color:#555;stop-opacity:1"/></linearGradient><linearGradient id="linearGradient5606" osb:paint="solid"><stop id="stop5608" offset="0" style="stop-color:#000;stop-opacity:1"/></linearGradient><filter id="filter7554" style="color-interpolation-filters:sRGB"><feBlend id="feBlend7556" in2="BackgroundImage" mode="darken"/></filter></defs><g id="layer12" transform="translate(-657.00024,55.003326)" style="display:inline"><path id="rect6337" d="m 660.2502,-52 c -0.1385,0 -0.25,0.1115 -0.25,0.25 v 1.5 c 0,0.1385 0.1115,0.25 0.25,0.25 h 1.5 c 0.1385,0 0.25,-0.1115 0.25,-0.25 v -1.5 c 0,-0.1385 -0.1115,-0.25 -0.25,-0.25 z m 4,0 c -0.1385,0 -0.25,0.1115 -0.25,0.25 v 1.5 c 0,0.1385 0.1115,0.25 0.25,0.25 h 1.5 c 0.1385,0 0.25,-0.1115 0.25,-0.25 v -1.5 c 0,-0.1385 -0.1115,-0.25 -0.25,-0.25 z m 4,0 c -0.1385,0 -0.25,0.1115 -0.25,0.25 v 1.5 c 0,0.1385 0.1115,0.25 0.25,0.25 h 1.5 c 0.1385,0 0.25,-0.1115 0.25,-0.25 v -1.5 c 0,-0.1385 -0.1115,-0.25 -0.25,-0.25 z m -8,4 c -0.1385,0 -0.25,0.1115 -0.25,0.25 v 1.5 c 0,0.1385 0.1115,0.25 0.25,0.25 h 1.5 c 0.1385,0 0.25,-0.1115 0.25,-0.25 v -1.5 c 0,-0.1385 -0.1115,-0.25 -0.25,-0.25 z m 4,0 c -0.1385,0 -0.25,0.1115 -0.25,0.25 v 1.5 c 0,0.1385 0.1115,0.25 0.25,0.25 h 1.5 c 0.1385,0 0.25,-0.1115 0.25,-0.25 v -1.5 c 0,-0.1385 -0.1115,-0.25 -0.25,-0.25 z m 4,0 c -0.1385,0 -0.25,0.1115 -0.25,0.25 v 1.5 c 0,0.1385 0.1115,0.25 0.25,0.25 h 1.5 c 0.1385,0 0.25,-0.1115 0.25,-0.25 v -1.5 c 0,-0.1385 -0.1115,-0.25 -0.25,-0.25 z m -8,4 c -0.1385,0 -0.25,0.1115 -0.25,0.25 v 1.5 c 0,0.1385 0.1115,0.25 0.25,0.25 h 1.5 c 0.1385,0 0.25,-0.1115 0.25,-0.25 v -1.5 c 0,-0.1385 -0.1115,-0.25 -0.25,-0.25 z m 4,0 c -0.1385,0 -0.25,0.1115 -0.25,0.25 v 1.5 c 0,0.1385 0.1115,0.25 0.25,0.25 h 1.5 c 0.1385,0 0.25,-0.1115 0.25,-0.25 v -1.5 c 0,-0.1385 -0.1115,-0.25 -0.25,-0.25 z m 4,0 c -0.1385,0 -0.25,0.1115 -0.25,0.25 v 1.5 c 0,0.1385 0.1115,0.25 0.25,0.25 h 1.5 c 0.1385,0 0.25,-0.1115 0.25,-0.25 v -1.5 c 0,-0.1385 -0.1115,-0.25 -0.25,-0.25 z" style="opacity:1;fill:#4f555d;fill-opacity:1;stroke:none;stroke-width:2;stroke-linecap:round;stroke-linejoin:miter;stroke-miterlimit:4;stroke-dasharray:none;stroke-opacity:1"/></g></svg>