<svg xmlns="http://www.w3.org/2000/svg" xmlns:osb="http://www.openswatchbook.org/uri/2009/osb" xmlns:svg="http://www.w3.org/2000/svg" id="svg7384" width="16" height="16" version="1.1" style="enable-background:new"><metadata id="metadata90"/><title id="title8473">Solus Symbolic Icon Theme</title><defs id="defs7386"><linearGradient id="linearGradient5606" osb:paint="solid"><stop id="stop5608" offset="0" style="stop-color:#000;stop-opacity:1"/></linearGradient><filter id="filter7554" style="color-interpolation-filters:sRGB"><feBlend id="feBlend7556" in2="BackgroundImage" mode="darken"/></filter></defs><g id="layer12" transform="translate(-365.00022,-80.99664)" style="display:inline"><path id="path5977" d="m 375.00004,82.99664 0,12 -1,0 0,-12 z m 4,1 0,1 -2,0 0,-1 z m -7,0 0,2 -2,0 0,-2 z m -4,0 0,2 -2,0 0,-2 z m 11,3 0,1 -2,0 0,-1 z m -7,1 0,2 -2,0 0,-2 z m -4,0 0,2 -2,0 0,-2 z m 11,2 0,1 -2,0 0,-1 z m -7,2 0,2 -2,0 0,-2 z m -4,0 0,2 -2,0 0,-2 z m 11,1 0,1 -2,0 0,-1 z" style="color:#bebebe;display:inline;overflow:visible;visibility:visible;fill:#4c5263;fill-opacity:1;stroke:none;stroke-width:1;marker:none"/></g></svg>