<svg xmlns="http://www.w3.org/2000/svg" xmlns:osb="http://www.openswatchbook.org/uri/2009/osb" xmlns:svg="http://www.w3.org/2000/svg" id="svg7384" width="16" height="16" version="1.1" style="enable-background:new"><metadata id="metadata90"/><title id="title8473">Solus Symbolic Icon Theme</title><defs id="defs7386"><linearGradient id="linearGradient5606" osb:paint="solid"><stop id="stop5608" offset="0" style="stop-color:#000;stop-opacity:1"/></linearGradient><filter id="filter7554" color-interpolation-filters="sRGB"><feBlend id="feBlend7556" in2="BackgroundImage" mode="darken"/></filter></defs><g id="layer12" transform="translate(-451.0002,-102)" style="display:inline"><path id="path8910" d="m 453.5002,115 c -0.82235,0 -1.5,-0.67765 -1.5,-1.5 0,-0.82235 0.67765,-1.5 1.5,-1.5 0.82235,0 1.5,0.67765 1.5,1.5 0,0.82235 -0.67765,1.5 -1.5,1.5 z m 0,-4 c -0.82235,0 -1.5,-0.67765 -1.5,-1.5 0,-0.82235 0.67765,-1.5 1.5,-1.5 0.82235,0 1.5,0.67765 1.5,1.5 0,0.82235 -0.67765,1.5 -1.5,1.5 z m 0,-4 c -0.82235,0 -1.5,-0.67765 -1.5,-1.5 0,-0.82235 0.67765,-1.5 1.5,-1.5 0.82235,0 1.5,0.67765 1.5,1.5 0,0.82235 -0.67765,1.5 -1.5,1.5 z" style="color:#000;fill:#4c5263;fill-opacity:1;fill-rule:nonzero;stroke:none;stroke-width:1;marker:none;visibility:visible;display:inline;overflow:visible;enable-background:new"/><path id="path8912" d="m 459.0002,105 0,4 -3.0625,0 5.0625,7 5.1875,-7 -3.1875,0 0,-4 z" style="color:#000;fill:#4c5263;fill-opacity:1;stroke:none;stroke-width:2;marker:none;visibility:visible;display:inline;overflow:visible;enable-background:new"/></g></svg>