<svg xmlns="http://www.w3.org/2000/svg" xmlns:osb="http://www.openswatchbook.org/uri/2009/osb" xmlns:svg="http://www.w3.org/2000/svg" id="svg7384" width="16" height="16" version="1.1" style="enable-background:new"><metadata id="metadata90"/><title id="title8473">Solus Symbolic Icon Theme</title><defs id="defs7386"><linearGradient id="linearGradient6882" osb:paint="solid"><stop id="stop6884" offset="0" style="stop-color:#555;stop-opacity:1"/></linearGradient><linearGradient id="linearGradient5606" osb:paint="solid"><stop id="stop5608" offset="0" style="stop-color:#000;stop-opacity:1"/></linearGradient><filter id="filter7554" style="color-interpolation-filters:sRGB"><feBlend id="feBlend7556" in2="BackgroundImage" mode="darken"/></filter></defs><g id="layer14" transform="translate(-885.00018,595)" style="display:inline"><path id="rect6786" d="m 891.5002,-593.5 c -0.54636,0 -1,0.45364 -1,1 0,0.54636 0.45364,1 1,1 0.54636,0 1,-0.45364 1,-1 0,-0.54636 -0.45364,-1 -1,-1 z m -4.5,3 c -0.27613,3e-5 -0.49997,0.22387 -0.5,0.5 v 2.05469 c 6e-4,0.31742 0.29297,0.55396 0.60352,0.48828 0.13025,-0.0277 0.26332,-0.0416 0.39648,-0.043 1.11049,0 2,0.88951 2,2 0,1.11049 -0.88951,2 -2,2 -0.13436,-7e-5 -0.26876,-0.0141 -0.40039,-0.041 -0.30993,-0.063 -0.59974,0.17398 -0.59961,0.49024 V -581 c 3e-5,0.27613 0.22387,0.49997 0.5,0.5 h 2.05469 c 0.31742,-6e-4 0.55396,-0.29297 0.48828,-0.60352 -0.0277,-0.13025 -0.0416,-0.26332 -0.043,-0.39648 0,-1.11049 0.88951,-2 2,-2 1.11049,0 2,0.88951 2,2 -7e-5,0.13436 -0.0141,0.26876 -0.041,0.40039 -0.063,0.30993 0.17398,0.59974 0.49024,0.59961 h 2.05078 c 0.27613,-3e-5 0.49997,-0.22387 0.5,-0.5 v -9 c -3e-5,-0.27613 -0.22387,-0.49997 -0.5,-0.5 z m 11.5,4 c -0.54636,0 -1,0.45364 -1,1 0,0.54636 0.45364,1 1,1 0.54636,0 1,-0.45364 1,-1 0,-0.54636 -0.45364,-1 -1,-1 z" style="color:#000;font-style:normal;font-variant:normal;font-weight:400;font-stretch:normal;font-size:medium;line-height:normal;font-family:sans-serif;font-variant-ligatures:normal;font-variant-position:normal;font-variant-caps:normal;font-variant-numeric:normal;font-variant-alternates:normal;font-feature-settings:normal;text-indent:0;text-align:start;text-decoration:none;text-decoration-line:none;text-decoration-style:solid;text-decoration-color:#000;letter-spacing:normal;word-spacing:normal;text-transform:none;writing-mode:lr-tb;direction:ltr;text-orientation:mixed;dominant-baseline:auto;baseline-shift:baseline;text-anchor:start;white-space:normal;shape-padding:0;clip-rule:nonzero;display:inline;overflow:visible;visibility:visible;opacity:.2;isolation:auto;mix-blend-mode:normal;color-interpolation:sRGB;color-interpolation-filters:linearRGB;solid-color:#000;solid-opacity:1;vector-effect:none;fill:#4c5263;fill-opacity:1;fill-rule:nonzero;stroke:none;stroke-width:1;stroke-linecap:round;stroke-linejoin:round;stroke-miterlimit:4;stroke-dasharray:none;stroke-dashoffset:0;stroke-opacity:1;color-rendering:auto;image-rendering:auto;shape-rendering:auto;text-rendering:auto;enable-background:accumulate"/><path id="rect6917" d="m 891.5002,-594 c -0.20775,0 -0.40441,0.0415 -0.58398,0.11719 h -0.002 c -0.17894,0.0757 -0.3414,0.18515 -0.47656,0.32031 -0.13516,0.13516 -0.24461,0.29762 -0.32031,0.47656 v 0.002 c -0.0757,0.17953 -0.11715,0.37619 -0.11715,0.58394 0,0.65768 0.4162,1.20551 1,1.41016 V -591 h -1 -0.48438 -2.51562 c -0.554,0 -1,0.446 -1,1 v 2.51562 0.48438 1 h 0.0898 c 0.20465,-0.5838 0.75248,-1 1.41016,-1 0.20775,0 0.40441,0.0415 0.58398,0.11719 h 0.002 c 0.17894,0.0757 0.3414,0.18515 0.47656,0.32031 0.13516,0.13516 0.24463,0.29762 0.32031,0.47656 v 0.002 c 0.0757,0.17953 0.11719,0.37619 0.11719,0.58394 0,0.20775 -0.0415,0.40441 -0.11719,0.58398 v 0.002 c -0.0757,0.17894 -0.18515,0.3414 -0.32031,0.47656 -0.13516,0.13516 -0.29762,0.24463 -0.47656,0.32031 h -0.002 c -0.17949,0.0756 -0.37619,0.11715 -0.58394,0.11715 -0.65768,0 -1.20551,-0.4162 -1.41016,-1 h -0.0898 v 1 0.48438 V -581 c 0,0.554 0.446,1 1,1 h 2.51562 0.48438 1 v -0.0898 c -0.5838,-0.20465 -1,-0.75248 -1,-1.41016 0,-0.20775 0.0415,-0.40441 0.11719,-0.58398 v -0.002 c 0.0757,-0.17894 0.18515,-0.3414 0.32031,-0.47656 0.13516,-0.13516 0.29762,-0.24463 0.47656,-0.32031 h 0.002 c 0.17949,-0.0757 0.37619,-0.11719 0.58394,-0.11719 0.20775,0 0.40441,0.0415 0.58398,0.11719 h 0.002 c 0.17894,0.0757 0.3414,0.18515 0.47656,0.32031 0.13516,0.13516 0.24463,0.29762 0.32031,0.47656 v 0.002 c 0.0756,0.17949 0.11715,0.37619 0.11715,0.58394 0,0.65768 -0.4162,1.20551 -1,1.41016 V -580 h 1 0.48438 2.51562 c 0.554,0 1,-0.446 1,-1 v -2.51562 -0.48438 -1 h 0.0898 c 0.20465,0.5838 0.75248,1 1.41016,1 0.20775,0 0.40441,-0.0415 0.58398,-0.11719 0.0898,-0.0379 0.17609,-0.0849 0.25586,-0.13867 0.0799,-0.0537 0.15508,-0.11406 0.22266,-0.18164 0.13516,-0.13516 0.24461,-0.29762 0.32031,-0.47656 v -0.002 c 0.0757,-0.17953 0.11723,-0.37619 0.11723,-0.58394 0,-0.20775 -0.0415,-0.40441 -0.11719,-0.58398 v -0.002 c -0.0757,-0.17894 -0.18515,-0.3414 -0.32031,-0.47656 -0.13516,-0.13516 -0.29762,-0.24461 -0.47656,-0.32031 h -0.002 C 898.90461,-586.95852 898.70795,-587 898.5002,-587 c -0.65768,0 -1.20551,0.4162 -1.41016,1 h -0.0898 v -1 -3 c 0,-0.554 -0.446,-1 -1,-1 h -2.51562 -0.48438 -1 v -0.0898 c 0.5838,-0.20465 1,-0.75248 1,-1.41016 0,-0.20775 -0.0415,-0.40441 -0.11719,-0.58398 -0.15118,-0.35863 -0.43846,-0.64725 -0.79687,-0.79883 h -0.002 C 891.90461,-593.95852 891.70795,-594 891.5002,-594 Z m 0,1 a 0.5,0.5 0 0 1 0.5,0.5 0.5,0.5 0 0 1 -0.5,0.5 0.5,0.5 0 0 1 -0.5,-0.5 0.5,0.5 0 0 1 0.5,-0.5 z m -4.5,3 h 9 v 9 h -2.05078 a 2.5,2.5 0 0 0 0.0508,-0.5 2.5,2.5 0 0 0 -2.5,-2.5 2.5,2.5 0 0 0 -2.5,2.5 2.5,2.5 0 0 0 0.0547,0.5 h -2.05472 v -2.05078 a 2.5,2.5 0 0 0 0.5,0.0508 2.5,2.5 0 0 0 2.5,-2.5 2.5,2.5 0 0 0 -2.5,-2.5 2.5,2.5 0 0 0 -0.5,0.0547 z m 11.5,4 a 0.5,0.5 0 0 1 0.5,0.5 0.5,0.5 0 0 1 -0.5,0.5 0.5,0.5 0 0 1 -0.5,-0.5 0.5,0.5 0 0 1 0.5,-0.5 z" style="opacity:1;fill:#4c5263;fill-opacity:1;stroke:none"/></g></svg>