<svg xmlns="http://www.w3.org/2000/svg" xmlns:osb="http://www.openswatchbook.org/uri/2009/osb" xmlns:svg="http://www.w3.org/2000/svg" id="svg7384" width="16" height="16.001" version="1.1" style="enable-background:new"><metadata id="metadata90"/><title id="title8473">Solus Symbolic Icon Theme</title><defs id="defs7386"><linearGradient id="linearGradient6882" osb:paint="solid"><stop id="stop6884" offset="0" style="stop-color:#555;stop-opacity:1"/></linearGradient><linearGradient id="linearGradient5606" osb:paint="solid"><stop id="stop5608" offset="0" style="stop-color:#000;stop-opacity:1"/></linearGradient><filter id="filter7554" style="color-interpolation-filters:sRGB"><feBlend id="feBlend7556" in2="BackgroundImage" mode="darken"/></filter></defs><g id="layer14" transform="translate(-672.00061,227.00123)" style="display:inline"><rect id="rect8613-6" width="15.712" height="15.712" x="672.001" y="-226.712" style="color:#bebebe;display:inline;overflow:visible;visibility:visible;fill:none;stroke:none;stroke-width:1.99999988;marker:none;enable-background:accumulate"/><rect id="rect7837" width="12.01" height="12.01" x="319.972" y="-641.701" rx="2.4" ry="2.4" transform="rotate(45)" style="display:inline;opacity:.2;fill:#4f555d;fill-opacity:1;stroke:none;stroke-width:.99999994;stroke-linecap:round;stroke-linejoin:round;stroke-miterlimit:4;stroke-dasharray:none;stroke-dashoffset:0;stroke-opacity:1;enable-background:new"/><path id="rect8943" d="m 682.05493,-226.15378 c -1.12992,-1.12993 -2.97123,-1.12993 -4.10116,0 l -5.09796,5.09796 c -1.12993,1.12993 -1.12993,2.97124 0,4.10116 l 5.09796,5.09797 c 1.12993,1.12992 2.97124,1.12993 4.10116,10e-6 l 5.09798,-5.09798 c 1.12992,-1.12992 1.12991,-2.97123 -10e-6,-4.10116 z m -0.70657,0.70657 5.09796,5.09797 c 0.75043,0.75042 0.75042,1.93758 0,2.688 l -5.09797,5.09797 c -0.75041,0.75041 -1.93621,0.74906 -2.68664,-9.8e-4 l -5.09796,-5.09796 c -0.75042,-0.75042 -0.75042,-1.93487 -10e-6,-2.68528 l 5.09797,-5.09798 c 0.75042,-0.75041 1.93623,-0.75177 2.68665,-9.8e-4 z" style="color:#000;font-style:normal;font-variant:normal;font-weight:400;font-stretch:normal;font-size:medium;line-height:normal;font-family:sans-serif;font-variant-ligatures:normal;font-variant-position:normal;font-variant-caps:normal;font-variant-numeric:normal;font-variant-alternates:normal;font-feature-settings:normal;text-indent:0;text-align:start;text-decoration:none;text-decoration-line:none;text-decoration-style:solid;text-decoration-color:#000;letter-spacing:normal;word-spacing:normal;text-transform:none;writing-mode:lr-tb;direction:ltr;text-orientation:mixed;dominant-baseline:auto;baseline-shift:baseline;text-anchor:start;white-space:normal;shape-padding:0;clip-rule:nonzero;display:inline;overflow:visible;visibility:visible;opacity:1;isolation:auto;mix-blend-mode:normal;color-interpolation:sRGB;color-interpolation-filters:linearRGB;solid-color:#000;solid-opacity:1;vector-effect:none;fill:#4f555d;fill-opacity:1;fill-rule:nonzero;stroke:none;stroke-width:.99999994;stroke-linecap:round;stroke-linejoin:round;stroke-miterlimit:4;stroke-dasharray:none;stroke-dashoffset:0;stroke-opacity:1;color-rendering:auto;image-rendering:auto;shape-rendering:auto;text-rendering:auto;enable-background:new"/><path id="path9693-6" d="m 679.6877,-223.3438 c -0.17313,0 -0.3125,0.13938 -0.3125,0.3125 v 0.68482 c -0.38075,0.0707 -0.73943,0.20479 -1.06568,0.39062 l -0.4419,-0.52612 c -0.11125,-0.13263 -0.30805,-0.15036 -0.44067,-0.039 l -0.47851,0.40162 c -0.13263,0.11125 -0.14913,0.30805 -0.0379,0.44067 l 0.44066,0.5249 c 0,0 -10e-4,10e-4 -10e-4,10e-4 -0.24036,0.29095 -0.4301,0.62377 -0.56518,0.98267 l -0.67749,-0.11963 c -0.17049,-0.0301 -0.33126,0.0834 -0.36133,0.25391 l -0.10862,0.61523 c -0.03,0.1705 0.0834,0.33127 0.25391,0.36133 l 0.67261,0.11838 c 0.004,0.39223 0.0747,0.76822 0.2002,1.11939 l -0.59448,0.34302 c -0.14994,0.0865 -0.20132,0.27609 -0.11475,0.42603 l 0.3125,0.54199 c 0.0866,0.14992 0.27731,0.20008 0.42725,0.1135 l 0.5957,-0.34424 c 0.24696,0.2887 0.54066,0.53419 0.86913,0.72876 l -0.2356,0.64696 c -0.0591,0.16269 0.0241,0.34119 0.18678,0.4004 l 0.58715,0.21363 c 0.16268,0.0591 0.34119,-0.024 0.4004,-0.18678 l 0.23437,-0.64452 c 0.18509,0.0311 0.37401,0.0513 0.56763,0.0513 0.19361,0 0.38252,-0.0201 0.56762,-0.0513 l 0.23438,0.64452 c 0.0591,0.16269 0.2377,0.24599 0.40039,0.18678 l 0.58716,-0.21363 c 0.16268,-0.0591 0.24597,-0.23771 0.18676,-0.4004 l -0.23559,-0.64696 c 0.32824,-0.19452 0.62231,-0.44022 0.86914,-0.72876 l 0.5957,0.34424 c 0.14994,0.0865 0.34069,0.0365 0.42725,-0.1135 l 0.3125,-0.54199 c 0.0866,-0.14994 0.0351,-0.33947 -0.11475,-0.42603 l -0.59449,-0.34302 c 0.12545,-0.35117 0.19699,-0.72716 0.2002,-1.11939 l 0.67261,-0.11838 c 0.17049,-0.0301 0.28397,-0.19083 0.2539,-0.36133 l -0.10862,-0.61523 c -0.03,-0.1705 -0.19206,-0.28397 -0.36255,-0.25391 l -0.67628,0.11963 c -0.13507,-0.3589 -0.32603,-0.69293 -0.5664,-0.98388 l 0.44068,-0.52491 c 0.11125,-0.13261 0.0947,-0.32939 -0.0379,-0.44068 l -0.47851,-0.4016 c -0.13262,-0.11125 -0.3294,-0.0948 -0.44067,0.0379 l -0.4419,0.52734 c -0.32644,-0.18604 -0.68464,-0.31987 -1.06568,-0.39063 v -0.68481 c 0,-0.17313 -0.13937,-0.3125 -0.3125,-0.3125 z m 0.3125,2.1875 c 1.21552,0 2.1875,0.97198 2.1875,2.1875 0,1.21553 -0.97198,2.1875 -2.1875,2.1875 -1.21553,0 -2.1875,-0.97197 -2.1875,-2.1875 0,-1.21552 0.97197,-2.1875 2.1875,-2.1875 z" style="color:#000;font-style:normal;font-variant:normal;font-weight:400;font-stretch:normal;font-size:medium;line-height:normal;font-family:sans-serif;font-variant-ligatures:normal;font-variant-position:normal;font-variant-caps:normal;font-variant-numeric:normal;font-variant-alternates:normal;font-feature-settings:normal;text-indent:0;text-align:start;text-decoration:none;text-decoration-line:none;text-decoration-style:solid;text-decoration-color:#000;letter-spacing:normal;word-spacing:normal;text-transform:none;writing-mode:lr-tb;direction:ltr;text-orientation:mixed;dominant-baseline:auto;baseline-shift:baseline;text-anchor:start;white-space:normal;shape-padding:0;clip-rule:nonzero;display:inline;overflow:visible;visibility:visible;opacity:1;isolation:auto;mix-blend-mode:normal;color-interpolation:sRGB;color-interpolation-filters:linearRGB;solid-color:#000;solid-opacity:1;vector-effect:none;fill:#4f555d;fill-opacity:1;fill-rule:nonzero;stroke:none;stroke-width:1;stroke-linecap:round;stroke-linejoin:round;stroke-miterlimit:4;stroke-dasharray:none;stroke-dashoffset:0;stroke-opacity:1;color-rendering:auto;image-rendering:auto;shape-rendering:auto;text-rendering:auto;enable-background:accumulate"/></g></svg>