<svg xmlns="http://www.w3.org/2000/svg" xmlns:osb="http://www.openswatchbook.org/uri/2009/osb" xmlns:svg="http://www.w3.org/2000/svg" id="svg7384" width="16" height="16.003" version="1.1" style="enable-background:new"><metadata id="metadata90"/><title id="title8473">Solus Symbolic Icon Theme</title><defs id="defs7386"><linearGradient id="linearGradient6882" osb:paint="solid"><stop id="stop6884" offset="0" style="stop-color:#555;stop-opacity:1"/></linearGradient><linearGradient id="linearGradient5606" osb:paint="solid"><stop id="stop5608" offset="0" style="stop-color:#000;stop-opacity:1"/></linearGradient><filter id="filter7554" style="color-interpolation-filters:sRGB"><feBlend id="feBlend7556" in2="BackgroundImage" mode="darken"/></filter></defs><g id="layer14" transform="translate(-745.00018,575.00336)" style="display:inline"><path id="path6517" d="m 746.5002,-573.5 c 0,0 -1,0 -1,1 v 2.5 h 15 v -0.5 c 0,-1 -1,-1 -1,-1 h -6 c -1,0 -2.00003,-1.99997 -3,-2 z" style="color:#000;font-style:normal;font-variant:normal;font-weight:400;font-stretch:normal;font-size:medium;line-height:normal;font-family:Sans;-inkscape-font-specification:Sans;text-indent:0;text-align:start;text-decoration:none;text-decoration-line:none;letter-spacing:normal;word-spacing:normal;text-transform:none;writing-mode:lr-tb;direction:ltr;baseline-shift:baseline;text-anchor:start;display:inline;overflow:visible;visibility:visible;opacity:.4;fill:#4c5263;fill-opacity:1;stroke:none;stroke-width:1;stroke-miterlimit:4;stroke-dasharray:none;stroke-opacity:1;marker:none;enable-background:accumulate"/><path id="path6519" d="m 746.5,-574 c 0,0 -0.3534,-0.007 -0.72266,0.17773 C 745.40809,-573.63764 745,-573.16667 745,-572.5 v 11 c 0,0 -0.007,0.3534 0.17773,0.72266 0.18463,0.36925 0.6556,0.77734 1.32227,0.77734 h 13 c 0,0 0.35535,0.007 0.72461,-0.17773 C 760.59387,-560.36236 761,-560.83333 761,-561.5 v -9 c 0,-0.66667 -0.40613,-1.13764 -0.77539,-1.32227 C 759.85535,-572.00689 759.5,-572 759.5,-572 h -6 c -0.0833,0 -0.24189,-0.0574 -0.44922,-0.21289 -0.20733,-0.1555 -0.44727,-0.39062 -0.69726,-0.64063 -0.25,-0.25 -0.51008,-0.51487 -0.80274,-0.73437 -0.29266,-0.2195 -0.63412,-0.4121 -1.05078,-0.41211 z m 0,1 h 4 c 0.0833,0 0.24384,0.0574 0.45117,0.21289 0.20733,0.15551 0.44532,0.39062 0.69531,0.64063 0.25,0.25 0.51203,0.51487 0.80469,0.73437 0.29267,0.2195 0.63216,0.41211 1.04883,0.41211 h 6 c 0,0 0.1466,0.007 0.27734,0.0723 0.13075,0.0654 0.22266,0.0944 0.22266,0.42773 v 9 c 0,0.33333 -0.0919,0.36236 -0.22266,0.42773 C 759.6466,-561.00689 759.5,-561 759.5,-561 h -13 c -0.33333,0 -0.36236,-0.0939 -0.42773,-0.22461 C 746.00689,-561.35535 746,-561.5 746,-561.5 v -11 c 0,-0.33333 0.0939,-0.36236 0.22461,-0.42773 C 746.35535,-572.99311 746.5,-573 746.5,-573 Z" style="color:#000;font-style:normal;font-variant:normal;font-weight:400;font-stretch:normal;font-size:medium;line-height:normal;font-family:Sans;-inkscape-font-specification:Sans;font-variant-ligatures:normal;font-variant-position:normal;font-variant-caps:normal;font-variant-numeric:normal;font-variant-alternates:normal;font-feature-settings:normal;text-indent:0;text-align:start;text-decoration:none;text-decoration-line:none;text-decoration-style:solid;text-decoration-color:#000;letter-spacing:normal;word-spacing:normal;text-transform:none;writing-mode:lr-tb;direction:ltr;text-orientation:mixed;dominant-baseline:auto;baseline-shift:baseline;text-anchor:start;white-space:normal;shape-padding:0;clip-rule:nonzero;display:inline;overflow:visible;visibility:visible;opacity:1;isolation:auto;mix-blend-mode:normal;color-interpolation:sRGB;color-interpolation-filters:linearRGB;solid-color:#000;solid-opacity:1;vector-effect:none;fill:#4c5263;fill-opacity:1;fill-rule:nonzero;stroke:none;stroke-width:1;stroke-linecap:butt;stroke-linejoin:miter;stroke-miterlimit:4;stroke-dasharray:none;stroke-dashoffset:0;stroke-opacity:1;marker:none;color-rendering:auto;image-rendering:auto;shape-rendering:auto;text-rendering:auto;enable-background:accumulate"/><path id="path6522" d="m 745.5002,-570 h 15 v 1 h -15 z" style="opacity:1;fill:#4c5263;fill-opacity:1;stroke:none;stroke-width:1;stroke-linecap:round;stroke-linejoin:round;stroke-miterlimit:4;stroke-dasharray:none;stroke-dashoffset:0;stroke-opacity:1"/><path id="path6524" d="m 746.0002,-569 h 14 v 8 h -14 z" style="opacity:.2;fill:#4c5263;fill-opacity:1;stroke:none;stroke-width:1;stroke-linecap:round;stroke-linejoin:round;stroke-miterlimit:4;stroke-dasharray:none;stroke-dashoffset:0;stroke-opacity:1"/></g></svg>