<svg xmlns="http://www.w3.org/2000/svg" xmlns:osb="http://www.openswatchbook.org/uri/2009/osb" xmlns:svg="http://www.w3.org/2000/svg" id="svg7384" width="16" height="16.01" version="1.1" style="enable-background:new"><metadata id="metadata90"/><title id="title8473">Solus Symbolic Icon Theme</title><defs id="defs7386"><linearGradient id="linearGradient6882" osb:paint="solid"><stop id="stop6884" offset="0" style="stop-color:#555;stop-opacity:1"/></linearGradient><linearGradient id="linearGradient5606" osb:paint="solid"><stop id="stop5608" offset="0" style="stop-color:#000;stop-opacity:1"/></linearGradient><filter id="filter7554" style="color-interpolation-filters:sRGB"><feBlend id="feBlend7556" in2="BackgroundImage" mode="darken"/></filter></defs><g id="layer14" transform="translate(-785.00018,575)" style="display:inline"><path id="path7735" d="m 788,-573.99023 c 0,0 -0.23035,-0.007 -0.47461,0.11523 -0.24426,0.12213 -0.52539,0.4681 -0.52539,0.88477 v 13 c 0,0.41666 0.28113,0.76263 0.52539,0.88476 0.24426,0.12213 0.47461,0.11524 0.47461,0.11524 h 10 c 0.42532,0 0.79092,-0.28114 0.91016,-0.54297 0.11923,-0.26183 0.0879,-0.50196 0.0879,-0.50196 l 0.002,0.0449 v -9.70704 l -4.29297,-4.29296 z m 0,1 h 6.29297 L 798,-569.2832 v 9.29297 h -10 z m 10,13.02343 0.002,0.0215 c 0,0 -0.002,-0.002 -0.002,-0.002 0.002,-0.005 -0.0154,-0.0109 0,-0.0195 z" style="color:#000;font-style:normal;font-variant:normal;font-weight:400;font-stretch:normal;font-size:medium;line-height:normal;font-family:sans-serif;font-variant-ligatures:normal;font-variant-position:normal;font-variant-caps:normal;font-variant-numeric:normal;font-variant-alternates:normal;font-feature-settings:normal;text-indent:0;text-align:start;text-decoration:none;text-decoration-line:none;text-decoration-style:solid;text-decoration-color:#000;letter-spacing:normal;word-spacing:normal;text-transform:none;writing-mode:lr-tb;direction:ltr;text-orientation:mixed;dominant-baseline:auto;baseline-shift:baseline;text-anchor:start;white-space:normal;shape-padding:0;clip-rule:nonzero;display:inline;overflow:visible;visibility:visible;opacity:1;isolation:auto;mix-blend-mode:normal;color-interpolation:sRGB;color-interpolation-filters:linearRGB;solid-color:#000;solid-opacity:1;vector-effect:none;fill:#4c5263;fill-opacity:1;fill-rule:evenodd;stroke:none;stroke-width:1px;stroke-linecap:butt;stroke-linejoin:miter;stroke-miterlimit:4;stroke-dasharray:none;stroke-dashoffset:0;stroke-opacity:1;color-rendering:auto;image-rendering:auto;shape-rendering:auto;text-rendering:auto;enable-background:accumulate"/><path id="path7737" d="m 787.49996,-559.98993 v -13 c 0,-0.5 0.5,-0.5 0.5,-0.5 h 6.5 v 4 h 4 v 9.5 c 0,0 0.0446,0.5 -0.5,0.5 h -10 c 0,0 -0.5,0 -0.5,-0.5 z" style="opacity:.2;fill:#4c5263;fill-opacity:1;fill-rule:evenodd;stroke:none;stroke-width:1px;stroke-linecap:butt;stroke-linejoin:miter;stroke-opacity:1"/><path id="path7739" d="m 794,-573.49023 v 4.5 h 4.5 v -1 H 795 v -3.5 z" style="color:#000;font-style:normal;font-variant:normal;font-weight:400;font-stretch:normal;font-size:medium;line-height:normal;font-family:sans-serif;font-variant-ligatures:normal;font-variant-position:normal;font-variant-caps:normal;font-variant-numeric:normal;font-variant-alternates:normal;font-feature-settings:normal;text-indent:0;text-align:start;text-decoration:none;text-decoration-line:none;text-decoration-style:solid;text-decoration-color:#000;letter-spacing:normal;word-spacing:normal;text-transform:none;writing-mode:lr-tb;direction:ltr;text-orientation:mixed;dominant-baseline:auto;baseline-shift:baseline;text-anchor:start;white-space:normal;shape-padding:0;clip-rule:nonzero;display:inline;overflow:visible;visibility:visible;opacity:1;isolation:auto;mix-blend-mode:normal;color-interpolation:sRGB;color-interpolation-filters:linearRGB;solid-color:#000;solid-opacity:1;vector-effect:none;fill:#4c5263;fill-opacity:1;fill-rule:evenodd;stroke:none;stroke-width:1px;stroke-linecap:butt;stroke-linejoin:miter;stroke-miterlimit:4;stroke-dasharray:none;stroke-dashoffset:0;stroke-opacity:1;color-rendering:auto;image-rendering:auto;shape-rendering:auto;text-rendering:auto;enable-background:accumulate"/><path id="path7765" d="m 791.0002,-567 a 1,1 0 0 0 -1,1 1,1 0 0 0 1,1 1,1 0 0 0 1,-1 1,1 0 0 0 -1,-1 z m 2.48438,3 c -0.31376,0.0104 -0.60314,0.12875 -0.78907,0.29883 -0.18593,0.17007 -0.27237,0.35097 -0.33789,0.46679 -0.0655,0.11585 -0.10411,0.16684 -0.13086,0.1875 -0.0267,0.0207 -0.0574,0.0469 -0.22656,0.0469 h -2 v 1 h 2 c 0.33088,0 0.62797,-0.0936 0.83789,-0.25586 0.20992,-0.16222 0.31682,-0.35585 0.39063,-0.48633 0.0738,-0.13048 0.1205,-0.20051 0.14257,-0.2207 0.0221,-0.0202 0.0176,-0.0328 0.14649,-0.0371 0.14581,-0.005 0.13491,0.0115 0.14648,0.0215 0.0116,0.01 0.0538,0.0679 0.1211,0.19727 0.0673,0.12933 0.16316,0.32796 0.36914,0.50195 0.20597,0.174 0.50975,0.2793 0.8457,0.2793 h 1 v -1 h -1 c -0.16405,0 -0.17938,-0.0246 -0.20117,-0.043 -0.0218,-0.0184 -0.0621,-0.0746 -0.12695,-0.19922 -0.0649,-0.12459 -0.15175,-0.31763 -0.35352,-0.49219 -0.20177,-0.17453 -0.50866,-0.27646 -0.83398,-0.26562 z" style="color:#000;font-style:normal;font-variant:normal;font-weight:400;font-stretch:normal;font-size:medium;line-height:normal;font-family:sans-serif;font-variant-ligatures:normal;font-variant-position:normal;font-variant-caps:normal;font-variant-numeric:normal;font-variant-alternates:normal;font-feature-settings:normal;text-indent:0;text-align:start;text-decoration:none;text-decoration-line:none;text-decoration-style:solid;text-decoration-color:#000;letter-spacing:normal;word-spacing:normal;text-transform:none;writing-mode:lr-tb;direction:ltr;text-orientation:mixed;dominant-baseline:auto;baseline-shift:baseline;text-anchor:start;white-space:normal;shape-padding:0;clip-rule:nonzero;display:inline;overflow:visible;visibility:visible;opacity:1;isolation:auto;mix-blend-mode:normal;color-interpolation:sRGB;color-interpolation-filters:linearRGB;solid-color:#000;solid-opacity:1;vector-effect:none;fill:#4c5263;fill-opacity:1;fill-rule:evenodd;stroke:none;stroke-width:1px;stroke-linecap:butt;stroke-linejoin:miter;stroke-miterlimit:4;stroke-dasharray:none;stroke-dashoffset:0;stroke-opacity:1;color-rendering:auto;image-rendering:auto;shape-rendering:auto;text-rendering:auto;enable-background:accumulate"/></g></svg>