<svg xmlns="http://www.w3.org/2000/svg" xmlns:osb="http://www.openswatchbook.org/uri/2009/osb" xmlns:svg="http://www.w3.org/2000/svg" id="svg7384" width="16" height="16" version="1.1" style="enable-background:new"><metadata id="metadata90"/><title id="title8473">Solus Symbolic Icon Theme</title><defs id="defs7386"><linearGradient id="linearGradient6882" osb:paint="solid"><stop id="stop6884" offset="0" style="stop-color:#555;stop-opacity:1"/></linearGradient><linearGradient id="linearGradient5606" osb:paint="solid"><stop id="stop5608" offset="0" style="stop-color:#000;stop-opacity:1"/></linearGradient><filter id="filter7554" style="color-interpolation-filters:sRGB"><feBlend id="feBlend7556" in2="BackgroundImage" mode="darken"/></filter></defs><g id="layer14" transform="translate(-633.0002,227.03957)" style="display:inline"><path id="rect8300" d="m 634.50022,-222.53957 v 9 c 0,0.554 0.446,1 1,1 h 10 c 0.554,0 1,-0.446 1,-1 v -9 z" style="opacity:.2;fill:#4f555d;fill-opacity:1;stroke:none;stroke-width:.99999994;stroke-linecap:round;stroke-linejoin:round;stroke-miterlimit:4;stroke-dasharray:none;stroke-dashoffset:0;stroke-opacity:1"/><path id="rect8282" d="m 635.5,-225.03906 c -0.82235,0 -1.5,0.67765 -1.5,1.5 v 10 c 0,0.82235 0.67765,1.5 1.5,1.5 h 10 c 0.82235,0 1.5,-0.67765 1.5,-1.5 v -10 c 0,-0.82235 -0.67765,-1.5 -1.5,-1.5 z m 0,1 h 10 c 0.28565,0 0.5,0.21435 0.5,0.5 v 10 c 0,0.28565 -0.21435,0.5 -0.5,0.5 h -10 c -0.28565,0 -0.5,-0.21435 -0.5,-0.5 v -10 c 0,-0.28565 0.21435,-0.5 0.5,-0.5 z" style="color:#000;font-style:normal;font-variant:normal;font-weight:400;font-stretch:normal;font-size:medium;line-height:normal;font-family:sans-serif;font-variant-ligatures:normal;font-variant-position:normal;font-variant-caps:normal;font-variant-numeric:normal;font-variant-alternates:normal;font-feature-settings:normal;text-indent:0;text-align:start;text-decoration:none;text-decoration-line:none;text-decoration-style:solid;text-decoration-color:#000;letter-spacing:normal;word-spacing:normal;text-transform:none;writing-mode:lr-tb;direction:ltr;text-orientation:mixed;dominant-baseline:auto;baseline-shift:baseline;text-anchor:start;white-space:normal;shape-padding:0;clip-rule:nonzero;display:inline;overflow:visible;visibility:visible;opacity:1;isolation:auto;mix-blend-mode:normal;color-interpolation:sRGB;color-interpolation-filters:linearRGB;solid-color:#000;solid-opacity:1;vector-effect:none;fill:#4f555d;fill-opacity:1;fill-rule:nonzero;stroke:none;stroke-width:.99999988;stroke-linecap:round;stroke-linejoin:round;stroke-miterlimit:4;stroke-dasharray:none;stroke-dashoffset:0;stroke-opacity:1;color-rendering:auto;image-rendering:auto;shape-rendering:auto;text-rendering:auto;enable-background:accumulate"/><path id="path8290" d="m 634.50022,-223.03957 h 12 v 1 h -12 z" style="display:inline;fill:#4f555d;fill-opacity:1;stroke:none;enable-background:new"/><path id="path8311" d="m 634.50022,-222.53957 v -1 c 0,-0.554 0.446,-1 1,-1 h 10 c 0.554,0 1,0.446 1,1 v 1 z" style="opacity:.4;fill:#4f555d;fill-opacity:1;stroke:none;stroke-width:.99999994;stroke-linecap:round;stroke-linejoin:round;stroke-miterlimit:4;stroke-dasharray:none;stroke-dashoffset:0;stroke-opacity:1"/><path id="rect8313" d="m 637.00022,-220.03957 h 1 v 1 h -1 z m 2,0 h 1 v 1 h -1 z m 2,0 h 1 v 1 h -1 z m 2,0 h 1 v 1 h -1 z m -6,2 h 1 v 1 h -1 z m 2,0 h 1 v 1 h -1 z m 2,0 h 1 v 1 h -1 z m 2,0 h 1 v 1 h -1 z m -6,2 h 1 v 1 h -1 z m 2,0 h 1 v 1 h -1 z m 2,0 h 1 v 1 h -1 z m 2,0 h 1 v 1 h -1 z" style="opacity:1;fill:#4f555d;fill-opacity:1;stroke:none;stroke-width:1;stroke-linecap:round;stroke-linejoin:miter;stroke-miterlimit:4;stroke-dasharray:none;stroke-dashoffset:0;stroke-opacity:1"/></g></svg>