<svg xmlns="http://www.w3.org/2000/svg" xmlns:osb="http://www.openswatchbook.org/uri/2009/osb" xmlns:svg="http://www.w3.org/2000/svg" id="svg7384" width="16" height="16" version="1.1" style="enable-background:new"><metadata id="metadata90"/><title id="title8473">Solus Symbolic Icon Theme</title><defs id="defs7386"><linearGradient id="linearGradient6882" osb:paint="solid"><stop id="stop6884" offset="0" style="stop-color:#4c5263;stop-opacity:1"/></linearGradient><linearGradient id="linearGradient5606" osb:paint="solid"><stop id="stop5608" offset="0" style="stop-color:#000;stop-opacity:1"/></linearGradient><filter id="filter7554" style="color-interpolation-filters:sRGB"><feBlend id="feBlend7556" in2="BackgroundImage" mode="darken"/></filter></defs><g id="layer9" transform="translate(-285.0004,395.00335)" style="display:inline"><path id="path6787" d="m 299.99704,-387.00316 c 0,0.554 -0.446,1 -1,1 l -1.59375,0 -6.19141,-6.19141 -0.24609,-0.74609 c -0.26171,-1.04691 -0.2647,-1.06251 0.53125,-1.0625 0.43199,0 0.43388,0.0117 0.71875,0.5 l 3.6875,5.5 3.09375,0 c 0.554,0 1,0.446 1,1 z m -4.62109,1.78516 -3.16016,4.71484 c -0.2665,0.45685 -0.2833,0.49822 -0.65625,0.5 l -0.0625,0 c -0.79399,-9.7e-4 -0.78071,-0.0333 -0.53125,-1.03125 l 1.625,-4.96875 -4.5,0 -1.21875,1.78125 c -0.13925,0.20883 -0.1227,0.21873 -0.34375,0.21875 l -0.21875,0 c -0.42773,0 -0.28125,-0.4375 -0.28125,-0.4375 l 0.28125,-2.5625 -0.28125,-2.5625 c 0,0 -0.13986,-0.43749 0.25,-0.4375 l 0.25,0 c 0.21159,0 0.20423,0.009 0.34375,0.21875 l 1.21875,1.78125 4.5,0 2.78516,2.78516 z" style="fill:#4c5263;fill-opacity:1;stroke:none"/><path id="path6791" d="m 300.05954,-381.34698 -12.71875,-12.71875 -1.40625,1.40625 12.71875,12.71875 z" style="color:#000;display:inline;overflow:visible;visibility:visible;fill:#4c5263;fill-opacity:1;fill-rule:nonzero;stroke:none;stroke-width:1;marker:none;enable-background:accumulate"/></g></svg>