<svg xmlns="http://www.w3.org/2000/svg" xmlns:osb="http://www.openswatchbook.org/uri/2009/osb" xmlns:svg="http://www.w3.org/2000/svg" id="svg7384" width="16" height="16.001" version="1.1" style="enable-background:new"><metadata id="metadata90"/><title id="title8473">Solus Symbolic Icon Theme</title><defs id="defs7386"><linearGradient id="linearGradient6882" osb:paint="solid"><stop id="stop6884" offset="0" style="stop-color:#555;stop-opacity:1"/></linearGradient><linearGradient id="linearGradient5606" osb:paint="solid"><stop id="stop5608" offset="0" style="stop-color:#000;stop-opacity:1"/></linearGradient><filter id="filter7554" style="color-interpolation-filters:sRGB"><feBlend id="feBlend7556" in2="BackgroundImage" mode="darken"/></filter></defs><g id="layer9" transform="translate(-405.00018,555)" style="display:inline"><path id="path6645" d="m 411.0002,-555 v 1 l -2.00145,-4.8e-4 c -1,0 -0.99855,1.00048 -0.99855,1.00048 l -3e-5,12.00192 c 0,0.554 0.446,1 1,1 h 8 c 0.554,0 1,-0.446 1,-1 L 418.0002,-553 c 0,0 -0.001,-1.00048 -1.00145,-1.00048 L 415.0002,-554 v -1 z m 5.49855,1.99952 c 0,0 0.5,0 0.5,0.5 l -3e-5,11.00192 c 0,0 0,0.5 -0.5,0.5 h -7 c -0.5,0 -0.5,-0.5 -0.5,-0.5 l 0.001,-10.97567 c 0,0 -0.001,-0.52625 0.49862,-0.52625 z" style="fill:#4c5263;fill-opacity:1;stroke:none"/><path id="path6647" d="m 410.0002,-552 v 4.05664 l 2.14258,-3.57031 c 0.17506,-0.29272 0.48721,-0.47603 0.82812,-0.48633 z m 4,0 v 3 h 1.99805 v -3 z m 1.99805,5.94531 -2.14063,3.56836 c -0.181,0.30074 -0.50642,0.48456 -0.85742,0.48438 V -542 h -1 v -3 h -2 v 3.00195 h 5.99805 z" style="opacity:.2;fill:#4c5263;fill-opacity:1;stroke:none;stroke-width:2;stroke-linecap:round;stroke-linejoin:round;stroke-miterlimit:4;stroke-dasharray:none;stroke-dashoffset:0;stroke-opacity:1"/><path id="path6649" d="m 415.96504,-546 -2.10742,3.51367 c -0.181,0.30074 -0.50642,0.48456 -0.85742,0.48438 V -542 h -1 v -3 h -2 v 3.00195 h 5.99805 V -546 Z" style="opacity:1;fill:#4c5263;fill-opacity:1;stroke:none;stroke-width:2;stroke-linecap:round;stroke-linejoin:round;stroke-miterlimit:4;stroke-dasharray:none;stroke-dashoffset:0;stroke-opacity:1"/><path id="path6624-7" d="m 410.0002,-546 3,-5 v 3 h 3 l -3,5 v -3 z" style="display:inline;fill:#4c5263;fill-opacity:1;fill-rule:evenodd;stroke:none;stroke-width:1px;stroke-linecap:butt;stroke-linejoin:miter;stroke-opacity:1;enable-background:new"/></g></svg>