<svg xmlns="http://www.w3.org/2000/svg" xmlns:osb="http://www.openswatchbook.org/uri/2009/osb" xmlns:svg="http://www.w3.org/2000/svg" id="svg7384" width="16" height="16.001" version="1.1" style="enable-background:new"><metadata id="metadata90"/><title id="title8473">Solus Symbolic Icon Theme</title><defs id="defs7386"><linearGradient id="linearGradient6882" osb:paint="solid"><stop id="stop6884" offset="0" style="stop-color:#555;stop-opacity:1"/></linearGradient><linearGradient id="linearGradient5606" osb:paint="solid"><stop id="stop5608" offset="0" style="stop-color:#000;stop-opacity:1"/></linearGradient><filter id="filter7554" style="color-interpolation-filters:sRGB"><feBlend id="feBlend7556" in2="BackgroundImage" mode="darken"/></filter></defs><g id="layer9" transform="translate(-445.00018,575)" style="display:inline"><rect id="rect6674" width="10.001" height="5.999" x="561.999" y="-455.999" transform="matrix(0,-1,-1,0,0,0)" style="opacity:.2;fill:#f44336;fill-opacity:1;stroke:none;stroke-width:2;stroke-linecap:round;stroke-linejoin:round;stroke-miterlimit:4;stroke-dasharray:none;stroke-dashoffset:0;stroke-opacity:1"/><path id="path6680" d="m 451.0002,-575 v 1 l -2.00145,-4.8e-4 c -1,0 -0.99855,1.00048 -0.99855,1.00048 l -3e-5,12.00192 c 0,0.554 0.446,1 1,1 h 8 c 0.554,0 1,-0.446 1,-1 L 458.0002,-573 c 0,0 -0.001,-1.00048 -1.00145,-1.00048 L 455.0002,-574 v -1 z m 5.49855,1.99952 c 0,0 0.5,0 0.5,0.5 l -3e-5,11.00192 c 0,0 0,0.5 -0.5,0.5 h -7 c -0.5,0 -0.5,-0.5 -0.5,-0.5 l 0.001,-10.97567 c 0,0 -0.001,-0.52625 0.49862,-0.52625 z" style="fill:#f44336;fill-opacity:1;stroke:none"/></g></svg>