<svg xmlns="http://www.w3.org/2000/svg" xmlns:osb="http://www.openswatchbook.org/uri/2009/osb" xmlns:svg="http://www.w3.org/2000/svg" id="svg7384" width="16" height="16.02" version="1.1" style="enable-background:new"><metadata id="metadata90"/><title id="title8473">Solus Symbolic Icon Theme</title><defs id="defs7386"><linearGradient id="linearGradient6882" osb:paint="solid"><stop id="stop6884" offset="0" style="stop-color:#555;stop-opacity:1"/></linearGradient><linearGradient id="linearGradient5606" osb:paint="solid"><stop id="stop5608" offset="0" style="stop-color:#000;stop-opacity:1"/></linearGradient><filter id="filter7554" style="color-interpolation-filters:sRGB"><feBlend id="feBlend7556" in2="BackgroundImage" mode="darken"/></filter></defs><g id="layer9" transform="translate(-1137.0002,-24.980011)" style="display:inline"><path id="rect5886" d="m 1145.5002,25 c -3.047,0 -5.5,2.676 -5.5,6 v 4 c 0,3.324 2.453,6 5.5,6 3.047,0 5.5,-2.676 5.5,-6 v -4 c 0,-3.324 -2.453,-6 -5.5,-6 z m -0.5,1.29297 4.2402,4.23828 -2.9394,2.46875 2.9394,2.46875 -4.2402,4.23828 v -5.61328 l -2.4277,2.03906 -0.6446,-0.76562 2.8184,-2.36719 -2.8184,-2.36719 0.6446,-0.76562 2.4277,2.03906 z m 1,2.41406 v 3.24024 l 1.7598,-1.48047 z m 0,5.3457 v 3.24024 l 1.7598,-1.75977 z" style="fill:#4f555d;fill-opacity:1;stroke:none"/></g></svg>