<svg xmlns="http://www.w3.org/2000/svg" xmlns:osb="http://www.openswatchbook.org/uri/2009/osb" xmlns:svg="http://www.w3.org/2000/svg" id="svg7384" width="16" height="16.02" version="1.1" style="enable-background:new"><metadata id="metadata90"/><title id="title8473">Solus Symbolic Icon Theme</title><defs id="defs7386"><linearGradient id="linearGradient6882" osb:paint="solid"><stop id="stop6884" offset="0" style="stop-color:#4c5263;stop-opacity:1"/></linearGradient><linearGradient id="linearGradient5606" osb:paint="solid"><stop id="stop5608" offset="0" style="stop-color:#000;stop-opacity:1"/></linearGradient><filter id="filter7554" style="color-interpolation-filters:sRGB"><feBlend id="feBlend7556" in2="BackgroundImage" mode="darken"/></filter></defs><g id="layer9" transform="translate(-285.0002,355.01999)" style="display:inline"><path id="path6352" d="m 293.5002,-355 c -3.047,0 -5.5,2.676 -5.5,6 l 0,4 c 0,3.324 2.453,6 5.5,6 3.047,0 5.5,-2.676 5.5,-6 l 0,-4 c 0,-3.324 -2.453,-6 -5.5,-6 z m -0.5,1.29297 4.24023,4.23828 -2.93945,2.46875 2.93945,2.46875 -4.24023,4.23828 0,-5.61328 -2.42773,2.03906 -0.64454,-0.76562 2.81836,-2.36719 -2.81836,-2.36719 0.64454,-0.76562 2.42773,2.03906 0,-5.61328 z m 1,2.41406 0,3.24024 1.75977,-1.48047 -1.75977,-1.75977 z m 0,5.3457 0,3.24024 1.75977,-1.75977 -1.75977,-1.48047 z" style="opacity:.35;fill:#4c5263;fill-opacity:1;stroke:none"/></g></svg>