<svg xmlns="http://www.w3.org/2000/svg" xmlns:osb="http://www.openswatchbook.org/uri/2009/osb" xmlns:svg="http://www.w3.org/2000/svg" id="svg7384" width="16" height="16" version="1.1" style="enable-background:new"><metadata id="metadata90"/><title id="title8473">Solus Symbolic Icon Theme</title><defs id="defs7386"><linearGradient id="linearGradient6882" osb:paint="solid"><stop id="stop6884" offset="0" style="stop-color:#4c5263;stop-opacity:1"/></linearGradient><linearGradient id="linearGradient5606" osb:paint="solid"><stop id="stop5608" offset="0" style="stop-color:#000;stop-opacity:1"/></linearGradient><filter id="filter7554" style="color-interpolation-filters:sRGB"><feBlend id="feBlend7556" in2="BackgroundImage" mode="darken"/></filter></defs><g id="layer9" transform="translate(-404.00003,295)" style="display:inline"><path id="path9016" d="m 412.0002,-294 1.79297,1.79297 -1.79297,1.79297 -2.29297,-2.29297 -0.70703,-0.70703 -1.41406,1.41406 0.70703,0.70703 3,3 a 1.0001,1.0001 0 0 0 1.41406,0 l 2.5,-2.5 1.79297,1.79297 0,-5 -5,0 z" style="color:#000;font-style:normal;font-variant:normal;font-weight:400;font-stretch:normal;font-size:medium;line-height:normal;font-family:sans-serif;text-indent:0;text-align:start;text-decoration:none;text-decoration-line:none;text-decoration-style:solid;text-decoration-color:#000;letter-spacing:normal;word-spacing:normal;text-transform:none;direction:ltr;block-progression:tb;writing-mode:lr-tb;baseline-shift:baseline;text-anchor:start;white-space:normal;clip-rule:nonzero;display:inline;overflow:visible;visibility:visible;opacity:.35;isolation:auto;mix-blend-mode:normal;color-interpolation:sRGB;color-interpolation-filters:linearRGB;solid-color:#000;solid-opacity:1;fill:#525252;fill-opacity:1;fill-rule:evenodd;stroke:none;stroke-width:2;stroke-linecap:square;stroke-linejoin:round;stroke-miterlimit:4;stroke-dasharray:none;stroke-dashoffset:0;stroke-opacity:1;color-rendering:auto;image-rendering:auto;shape-rendering:auto;text-rendering:auto;enable-background:accumulate"/><path id="path8887-1" d="m 412.14473,-286.98633 c -2.67808,-0.0394 -5.25808,1.00686 -7.15234,2.90039 l -0.70117,0.70117 c -0.38825,0.38825 -0.38825,1.0141 0,1.40235 l 2.10351,2.10156 c 0.38823,0.38824 1.01214,0.38824 1.40039,0 l 1.20508,-1.20312 0,-2.25782 0,0 0.19727,-0.082 c 1.78668,-0.78535 3.82153,-0.7818 5.60546,0.01 l 0.19727,0.0723 0,0 0,2.25782 0.50391,0.50195 0.70117,0.70117 c 0.38825,0.38825 1.01216,0.38824 1.40039,0 l 2.10351,-2.10156 c 0.38825,-0.38825 0.38825,-1.0141 0,-1.40235 l -0.70117,-0.70117 c -1.82342,-1.8227 -4.28535,-2.8631 -6.86328,-2.90039 z" style="opacity:1;fill:#4d4d4d;fill-opacity:1;stroke:none;stroke-width:2;stroke-linecap:round;stroke-linejoin:miter;stroke-miterlimit:4;stroke-dasharray:none;stroke-opacity:1"/></g></svg>