<svg xmlns="http://www.w3.org/2000/svg" xmlns:osb="http://www.openswatchbook.org/uri/2009/osb" xmlns:svg="http://www.w3.org/2000/svg" id="svg7384" width="16" height="16" version="1.1" style="enable-background:new"><metadata id="metadata90"/><title id="title8473">Solus Symbolic Icon Theme</title><defs id="defs7386"><linearGradient id="linearGradient6882" osb:paint="solid"><stop id="stop6884" offset="0" style="stop-color:#555;stop-opacity:1"/></linearGradient><linearGradient id="linearGradient5606" osb:paint="solid"><stop id="stop5608" offset="0" style="stop-color:#000;stop-opacity:1"/></linearGradient><filter id="filter7554" style="color-interpolation-filters:sRGB"><feBlend id="feBlend7556" in2="BackgroundImage" mode="darken"/></filter></defs><g id="layer9" transform="translate(-1257.0002,55)" style="display:inline"><path id="path6940" d="m 1265.0022,-54.99609 c -2.216,0 -4,1.82162 -4,4.0625 l -0,2.43359 h 1 V -51 c 0,-1.662 1.338,-3 3,-3 1.662,0 3,1.338 3,3 v 2.5 h 1 l 0,-2.43359 c 0,-2.24 -1.784,-4.0625 -4,-4.0625 z" style="color:#000;display:inline;overflow:visible;visibility:visible;fill:#4f555d;fill-opacity:1;fill-rule:nonzero;stroke:none;stroke-width:1;marker:none;enable-background:accumulate"/><path id="rect6406-3" d="m 1260.5,-49 c -0.8224,0 -1.5,0.677649 -1.5,1.5 v 6 c 0,0.822351 0.6776,1.5 1.5,1.5 h 9 c 0.8224,0 1.5,-0.677649 1.5,-1.5 v -6 c 0,-0.822351 -0.6776,-1.5 -1.5,-1.5 z m 0,1 h 9 c 0.2856,0 0.5,0.214351 0.5,0.5 v 6 c 0,0.285649 -0.2144,0.5 -0.5,0.5 h -9 c -0.2856,0 -0.5,-0.214351 -0.5,-0.5 v -6 c 0,-0.285649 0.2144,-0.5 0.5,-0.5 z" style="color:#000;font-style:normal;font-variant:normal;font-weight:400;font-stretch:normal;font-size:medium;line-height:normal;font-family:sans-serif;font-variant-ligatures:normal;font-variant-position:normal;font-variant-caps:normal;font-variant-numeric:normal;font-variant-alternates:normal;font-feature-settings:normal;text-indent:0;text-align:start;text-decoration:none;text-decoration-line:none;text-decoration-style:solid;text-decoration-color:#000;letter-spacing:normal;word-spacing:normal;text-transform:none;writing-mode:lr-tb;direction:ltr;text-orientation:mixed;dominant-baseline:auto;baseline-shift:baseline;text-anchor:start;white-space:normal;shape-padding:0;clip-rule:nonzero;display:inline;overflow:visible;visibility:visible;opacity:1;isolation:auto;mix-blend-mode:normal;color-interpolation:sRGB;color-interpolation-filters:linearRGB;solid-color:#000;solid-opacity:1;vector-effect:none;fill:#4f555d;fill-opacity:1;fill-rule:nonzero;stroke:none;stroke-width:.99999994;stroke-linecap:round;stroke-linejoin:round;stroke-miterlimit:4;stroke-dasharray:none;stroke-dashoffset:0;stroke-opacity:1;color-rendering:auto;image-rendering:auto;shape-rendering:auto;text-rendering:auto;enable-background:new"/><rect id="rect7963" width="11" height="8" x="1259.5" y="-48.5" rx="1" ry="1" style="display:inline;opacity:1;fill:#4f555d;fill-opacity:1;stroke:none;stroke-width:.99999994;stroke-linecap:round;stroke-linejoin:round;stroke-miterlimit:4;stroke-dasharray:none;stroke-dashoffset:0;stroke-opacity:1;enable-background:new"/></g></svg>