<svg xmlns="http://www.w3.org/2000/svg" xmlns:osb="http://www.openswatchbook.org/uri/2009/osb" xmlns:svg="http://www.w3.org/2000/svg" id="svg7384" width="16" height="16.003" version="1.1" style="enable-background:new"><metadata id="metadata90"/><title id="title8473">Solus Symbolic Icon Theme</title><defs id="defs7386"><linearGradient id="linearGradient6882" osb:paint="solid"><stop id="stop6884" offset="0" style="stop-color:#4c5263;stop-opacity:1"/></linearGradient><linearGradient id="linearGradient5606" osb:paint="solid"><stop id="stop5608" offset="0" style="stop-color:#000;stop-opacity:1"/></linearGradient><filter id="filter7554" style="color-interpolation-filters:sRGB"><feBlend id="feBlend7556" in2="BackgroundImage" mode="darken"/></filter></defs><g id="layer9" transform="translate(-385.00021,295.00336)" style="display:inline"><path id="path6442" d="m 387.5002,-294 c -0.831,0 -1.5,0.669 -1.5,1.5 l 0,12 c 0,0.831 0.669,1.5 1.5,1.5 l 12,0 c 0.831,0 1.5,-0.669 1.5,-1.5 l 0,-12 c 0,-0.831 -0.669,-1.5 -1.5,-1.5 l -12,0 z m 5.5,2 1,0 c 1.662,0 3,1.338 3,3 l 0,2 c 0.554,0 1,0.446 1,1 l 0,4 c 0,0.554 -0.446,1 -1,1 l -7,0 c -0.554,0 -1,-0.446 -1,-1 l 0,-4 c 0,-1 1,-1 1,-1 l 1,0 2,0 3,0 0,-2 c 0,-1.108 -0.892,-2 -2,-2 l -1,0 c -1.108,0 -2.01816,0.89215 -2,2 l -1,0 c 0,-1.662 1.338,-3 3,-3 z m 0.5,6 c -0.82843,0 -1.5,0.67157 -1.5,1.5 8.9e-4,0.6349 0.40141,1.20048 1,1.41211 l 0,1.08789 1,0 0,-1.08789 c 0.59859,-0.21163 0.99911,-0.77721 1,-1.41211 0,-0.82843 -0.67157,-1.5 -1.5,-1.5 z" style="opacity:.35;fill:#4c5263;fill-opacity:1;stroke:none;stroke-width:2;stroke-linecap:round;stroke-linejoin:round;stroke-miterlimit:4;stroke-dasharray:none;stroke-opacity:1"/></g></svg>