<svg xmlns="http://www.w3.org/2000/svg" xmlns:osb="http://www.openswatchbook.org/uri/2009/osb" xmlns:svg="http://www.w3.org/2000/svg" id="svg7384" width="16" height="16.003" version="1.1" style="enable-background:new"><metadata id="metadata90"/><title id="title8473">Solus Symbolic Icon Theme</title><defs id="defs7386"><linearGradient id="linearGradient6882" osb:paint="solid"><stop id="stop6884" offset="0" style="stop-color:#555;stop-opacity:1"/></linearGradient><linearGradient id="linearGradient5606" osb:paint="solid"><stop id="stop5608" offset="0" style="stop-color:#000;stop-opacity:1"/></linearGradient><filter id="filter7554" style="color-interpolation-filters:sRGB"><feBlend id="feBlend7556" in2="BackgroundImage" mode="darken"/></filter></defs><g id="layer9" transform="translate(-937.0002,-83.996704)" style="display:inline"><path id="rect8115-2" d="m 938.0002,85 c -0.554,0 -1,0.446 -1,1 v 10 c 0,0.554 0.446,1 1,1 h 14 c 0.554,0 1,-0.446 1,-1 V 86 c 0,-0.554 -0.446,-1 -1,-1 z m 0,1 h 14 v 10 h -14 z m 4,2 v 2 h 1 v -2 z m 5,0 v 2 h 1 v -2 z m -5,4 v 1 h 1 4 1 v -1 h -1 -4 z m 6,1 v 1 h 1 v -1 z m -6,0 h -1 v 1 h 1 z" style="opacity:1;fill:#4f555d;fill-opacity:1;stroke:none;stroke-width:2;stroke-linecap:round;stroke-linejoin:miter;stroke-miterlimit:4;stroke-dasharray:none;stroke-dashoffset:0;stroke-opacity:1"/><path id="rect8117-2" d="m 938.00021,86 h 13.99999 l 1e-5,10 h -13.99999 z" style="opacity:.2;fill:#4f555d;fill-opacity:1;stroke:none;stroke-width:2;stroke-linecap:round;stroke-linejoin:miter;stroke-miterlimit:4;stroke-dasharray:none;stroke-dashoffset:0;stroke-opacity:1"/><path id="path4685-8" d="m 942.00021,100 v -1 c 1,0 1,-1 1,-1 v -2 h 4 v 2 c 0,0 0,1 1,1 v 1 z" style="display:inline;fill:#4f555d;fill-opacity:1;fill-rule:evenodd;stroke:none;stroke-width:1px;stroke-linecap:butt;stroke-linejoin:miter;stroke-opacity:1;enable-background:new"/></g></svg>