<svg xmlns="http://www.w3.org/2000/svg" xmlns:osb="http://www.openswatchbook.org/uri/2009/osb" xmlns:svg="http://www.w3.org/2000/svg" id="svg7384" width="16" height="16" version="1.1" style="enable-background:new"><metadata id="metadata90"/><title id="title8473">Solus Symbolic Icon Theme</title><defs id="defs7386"><linearGradient id="linearGradient6882" osb:paint="solid"><stop id="stop6884" offset="0" style="stop-color:#555;stop-opacity:1"/></linearGradient><linearGradient id="linearGradient5606" osb:paint="solid"><stop id="stop5608" offset="0" style="stop-color:#000;stop-opacity:1"/></linearGradient><filter id="filter7554" style="color-interpolation-filters:sRGB"><feBlend id="feBlend7556" in2="BackgroundImage" mode="darken"/></filter></defs><g id="layer9" transform="translate(-997.00037,-84.996643)" style="display:inline"><path id="path7582" d="m 1005.0002,88 c -2.7614,0 -5,2.23858 -5,5 0,2.76142 2.2386,5 5,5 2.7614,0 5,-2.23858 5,-5 0,-2.76142 -2.2386,-5 -5,-5 z m 0,1 c 2.2091,0 4,1.79086 4,4 0,2.20914 -1.7909,4 -4,4 z" style="opacity:1;fill:#4f555d;fill-opacity:1;stroke:none;stroke-width:2;stroke-linecap:round;stroke-linejoin:miter;stroke-miterlimit:4;stroke-dasharray:none;stroke-dashoffset:0;stroke-opacity:1"/><path id="path7578" d="m 1010.0002,88.5 c 0,-0.5 -0.5,-0.5 -0.5,-0.5 l -1.0156,-8.64e-4 1.5165,1.516419 z M 1001.5158,87.999136 1000.5002,88 c 0,0 -0.5,0 -0.5,0.5 l -5e-4,1.015569 z m 8.4853,8.485281 -1.5165,1.516419 L 1009.5002,98 c 0,0 0.5,0 0.5,-0.5 z m -10.00175,0 8.5e-4,1.015583 c 0,0.5 0.5,0.5 0.5,0.5 l 1.0152,8.5e-4 z" style="opacity:1;fill:#4f555d;fill-opacity:1;stroke:none;stroke-width:2;stroke-linecap:round;stroke-linejoin:miter;stroke-miterlimit:4;stroke-dasharray:none;stroke-dashoffset:0;stroke-opacity:1"/><path id="path7602" d="m 1011.7177,93.353534 c 0.3536,-0.353554 0,-0.707107 0,-0.707107 l -0.7175,-0.718749 v 2.144598 z m -5.6452,-6.353541 -0.7187,-0.717527 c 0,0 -0.3536,-0.353554 -0.7072,0 l -0.7184,0.717762 z m 0,12.000012 -2.1446,-5.7e-5 0.7187,0.717547 c 0,0 0.3536,0.353555 0.7072,0 z m -7.07229,-7.072305 -0.71752,0.718727 c -0.35356,0.353553 0,0.707107 0,0.707107 l 0.71725,0.718456 z" style="opacity:1;fill:#4f555d;fill-opacity:1;stroke:none;stroke-width:2;stroke-linecap:round;stroke-linejoin:miter;stroke-miterlimit:4;stroke-dasharray:none;stroke-dashoffset:0;stroke-opacity:1"/></g></svg>