<svg xmlns="http://www.w3.org/2000/svg" xmlns:osb="http://www.openswatchbook.org/uri/2009/osb" xmlns:svg="http://www.w3.org/2000/svg" id="svg7384" width="16" height="16.003" version="1.1" style="enable-background:new"><metadata id="metadata90"/><title id="title8473">Solus Symbolic Icon Theme</title><defs id="defs7386"><linearGradient id="linearGradient6882" osb:paint="solid"><stop id="stop6884" offset="0" style="stop-color:#555;stop-opacity:1"/></linearGradient><linearGradient id="linearGradient5606" osb:paint="solid"><stop id="stop5608" offset="0" style="stop-color:#000;stop-opacity:1"/></linearGradient><filter id="filter7554" style="color-interpolation-filters:sRGB"><feBlend id="feBlend7556" in2="BackgroundImage" mode="darken"/></filter></defs><g id="layer9" transform="translate(-284.99997,355.00342)" style="display:inline"><path id="path6620" d="m 287.5002,-352.46484 c -0.554,0 -1,0.446 -1,1 v 9 c 0,0.0762 0.027,0.14363 0.043,0.21484 0.19174,0.0838 0.4154,0.0394 0.56055,-0.11133 l 2.63086,-2.63086 c -0.98025,-0.13143 -1.73438,-0.96446 -1.73438,-1.99023 0,-1.11757 0.89199,-2.01758 2,-2.01758 h 6 c 1.10801,0 2,0.90001 2,2.01758 0,0.74358 -0.39957,1.38453 -0.99023,1.73437 l 2.13671,2.13672 c 0.0925,0.0966 0.21979,0.1523 0.35352,0.1543 v -8.50781 c 0,-0.554 -0.446,-1 -1,-1 z m 8.96484,2.5 a 0.5,0.5 0 0 1 0.0352,0 0.5,0.5 0 0 1 0.5,0.5 0.5,0.5 0 0 1 -0.5,0.5 0.5,0.5 0 0 1 -0.5,-0.5 0.5,0.5 0 0 1 0.46485,-0.5 z m -3.17187,5 0.85351,0.85351 c 0.19527,0.19519 0.51177,0.19519 0.70704,0 l 0.85351,-0.85351 z" style="opacity:.1;fill:#4c5263;fill-opacity:1;stroke:none;stroke-width:.99999994;stroke-linecap:round;stroke-linejoin:round;stroke-miterlimit:4;stroke-dasharray:none;stroke-dashoffset:0;stroke-opacity:1"/><path id="path6626" d="m 297.00997,-345.24805 c -0.29708,0.17596 -0.63898,0.28321 -1.00977,0.28321 h -0.29297 l -0.85351,0.85351 c -0.19527,0.19519 -0.51177,0.19519 -0.70704,0 l -0.85351,-0.85351 h -3.29297 c -0.091,0 -0.17791,-0.0156 -0.26563,-0.0274 l -2.63085,2.63086 c -0.14515,0.15074 -0.36881,0.19517 -0.56055,0.11133 0.10027,0.4467 0.47921,0.78516 0.95703,0.78516 h 11 c 0.554,0 1,-0.446 1,-1 v -0.49219 c -0.13373,-0.002 -0.26106,-0.0577 -0.35352,-0.1543 z" style="opacity:.2;fill:#4c5263;fill-opacity:1;stroke:none;stroke-width:.99999994;stroke-linecap:round;stroke-linejoin:round;stroke-miterlimit:4;stroke-dasharray:none;stroke-dashoffset:0;stroke-opacity:1"/><path id="rect6628" d="m 287.5,-352.96484 c -0.82235,0 -1.5,0.67764 -1.5,1.5 v 9 c 0,0.82235 0.67765,1.5 1.5,1.5 h 11 c 0.82235,0 1.5,-0.67765 1.5,-1.5 v -9 c 0,-0.82236 -0.67765,-1.5 -1.5,-1.5 z m 0,1 h 11 c 0.28565,0 0.5,0.21435 0.5,0.5 v 9 c 0,0.28564 -0.21435,0.5 -0.5,0.5 h -11 c -0.28565,0 -0.5,-0.21436 -0.5,-0.5 v -9 c 0,-0.28565 0.21435,-0.5 0.5,-0.5 z" style="color:#000;font-style:normal;font-variant:normal;font-weight:400;font-stretch:normal;font-size:medium;line-height:normal;font-family:sans-serif;font-variant-ligatures:normal;font-variant-position:normal;font-variant-caps:normal;font-variant-numeric:normal;font-variant-alternates:normal;font-feature-settings:normal;text-indent:0;text-align:start;text-decoration:none;text-decoration-line:none;text-decoration-style:solid;text-decoration-color:#000;letter-spacing:normal;word-spacing:normal;text-transform:none;writing-mode:lr-tb;direction:ltr;text-orientation:mixed;dominant-baseline:auto;baseline-shift:baseline;text-anchor:start;white-space:normal;shape-padding:0;clip-rule:nonzero;display:inline;overflow:visible;visibility:visible;opacity:.5;isolation:auto;mix-blend-mode:normal;color-interpolation:sRGB;color-interpolation-filters:linearRGB;solid-color:#000;solid-opacity:1;vector-effect:none;fill:#4c5263;fill-opacity:1;fill-rule:nonzero;stroke:none;stroke-width:.99999994;stroke-linecap:round;stroke-linejoin:round;stroke-miterlimit:4;stroke-dasharray:none;stroke-dashoffset:0;stroke-opacity:1;color-rendering:auto;image-rendering:auto;shape-rendering:auto;text-rendering:auto;enable-background:accumulate"/><path id="path6634" d="m 296.5002,-350.96484 c -0.8225,0 -1.5,0.67749 -1.5,1.5 0,0.16273 0.0331,0.31758 0.082,0.46484 h 0.91797 c 0.5874,0 1.10935,0.25798 1.47461,0.66211 0.31818,-0.27598 0.52539,-0.67713 0.52539,-1.12695 0,-0.82251 -0.6775,-1.5 -1.5,-1.5 z m 0,1 c 0.28206,0 0.5,0.21793 0.5,0.5 0,0.28206 -0.21794,0.5 -0.5,0.5 -0.28206,0 -0.5,-0.21794 -0.5,-0.5 0,-0.28207 0.21794,-0.5 0.5,-0.5 z m 1.21484,4.00781 c -0.17218,0.29298 -0.41383,0.53648 -0.70507,0.70898 l 2.13671,2.13672 a 0.50005,0.50005 0 1 0 0.70704,-0.70703 z m -8.96679,0.53711 -2.35157,2.35156 a 0.50005,0.50005 0 1 0 0.70704,0.70703 l 2.63085,-2.63086 c -0.37275,-0.05 -0.70847,-0.20117 -0.98632,-0.42773 z m 4.54492,0.45508 0.85351,0.85351 a 0.50005,0.50005 0 0 0 0.70704,0 l 0.85351,-0.85351 z" style="color:#000;font-style:normal;font-variant:normal;font-weight:400;font-stretch:normal;font-size:medium;line-height:normal;font-family:sans-serif;font-variant-ligatures:normal;font-variant-position:normal;font-variant-caps:normal;font-variant-numeric:normal;font-variant-alternates:normal;font-feature-settings:normal;text-indent:0;text-align:start;text-decoration:none;text-decoration-line:none;text-decoration-style:solid;text-decoration-color:#000;letter-spacing:normal;word-spacing:normal;text-transform:none;writing-mode:lr-tb;direction:ltr;text-orientation:mixed;dominant-baseline:auto;baseline-shift:baseline;text-anchor:start;white-space:normal;shape-padding:0;clip-rule:nonzero;display:inline;overflow:visible;visibility:visible;opacity:.5;isolation:auto;mix-blend-mode:normal;color-interpolation:sRGB;color-interpolation-filters:linearRGB;solid-color:#000;solid-opacity:1;vector-effect:none;fill:#4c5263;fill-opacity:1;fill-rule:evenodd;stroke:none;stroke-width:1px;stroke-linecap:round;stroke-linejoin:round;stroke-miterlimit:4;stroke-dasharray:none;stroke-dashoffset:0;stroke-opacity:1;color-rendering:auto;image-rendering:auto;shape-rendering:auto;text-rendering:auto;enable-background:new"/><path id="path8287" d="m 290.0002,-348 c -0.554,0 -1,0.446 -1,1 0,0.554 0.446,1 1,1 0.554,0 1,-0.446 1,-1 0,-0.554 -0.446,-1 -1,-1 z m 3,0 c -0.554,0 -1,0.446 -1,1 0,0.554 0.446,1 1,1 0.554,0 1,-0.446 1,-1 0,-0.554 -0.446,-1 -1,-1 z m 3,0 c -0.554,0 -1,0.446 -1,1 0,0.554 0.446,1 1,1 0.554,0 1,-0.446 1,-1 0,-0.554 -0.446,-1 -1,-1 z" style="color:#000;display:inline;overflow:visible;visibility:visible;fill:#4c5263;fill-opacity:1;fill-rule:nonzero;stroke:none;stroke-width:1;marker:none;enable-background:new"/></g></svg>