<svg xmlns="http://www.w3.org/2000/svg" xmlns:osb="http://www.openswatchbook.org/uri/2009/osb" xmlns:svg="http://www.w3.org/2000/svg" id="svg7384" width="16" height="16.003" version="1.1" style="enable-background:new"><metadata id="metadata90"/><title id="title8473">Solus Symbolic Icon Theme</title><defs id="defs7386"><linearGradient id="linearGradient5606" osb:paint="solid"><stop id="stop5608" offset="0" style="stop-color:#000;stop-opacity:1"/></linearGradient><filter id="filter7554" style="color-interpolation-filters:sRGB"><feBlend id="feBlend7556" in2="BackgroundImage" mode="darken"/></filter></defs><g id="layer14" transform="translate(-685.00037,311.00336)" style="display:inline"><path id="rect6613" d="m 694.0002,-311 c -1.64369,0 -2.99782,1.35287 -3,2.99609 l 2,0 c 0.002,-0.56217 0.43722,-0.99609 1,-0.99609 0.56278,0 0.99793,0.43392 1,0.99609 l 2,0 c -0.002,-1.64322 -1.35631,-2.99609 -3,-2.99609 z m -3,3 0,8 2,0 0,-8 -2,0 z m 4,0 0,8.5 c 0,1.39256 -1.10744,2.5 -2.5,2.5 -1.39256,0 -2.5,-1.10744 -2.5,-2.5 l 0,-7.5 -2,0 0,7.5 c 0,2.47344 2.02656,4.5 4.5,4.5 2.47344,0 4.5,-2.02656 4.5,-4.5 l 0,-8.5 -2,0 z" style="opacity:1;fill:#4c5263;fill-opacity:1;stroke:none;stroke-width:1;stroke-linecap:round;stroke-linejoin:round;stroke-miterlimit:4;stroke-dasharray:none;stroke-opacity:1"/></g></svg>