<svg xmlns="http://www.w3.org/2000/svg" xmlns:osb="http://www.openswatchbook.org/uri/2009/osb" xmlns:svg="http://www.w3.org/2000/svg" id="svg7384" width="16" height="16" version="1.1" style="enable-background:new"><metadata id="metadata90"/><title id="title8473">Solus Symbolic Icon Theme</title><defs id="defs7386"><linearGradient id="linearGradient6882" osb:paint="solid"><stop id="stop6884" offset="0" style="stop-color:#555;stop-opacity:1"/></linearGradient><linearGradient id="linearGradient5606" osb:paint="solid"><stop id="stop5608" offset="0" style="stop-color:#000;stop-opacity:1"/></linearGradient><filter id="filter7554" style="color-interpolation-filters:sRGB"><feBlend id="feBlend7556" in2="BackgroundImage" mode="darken"/></filter></defs><g id="layer9" transform="translate(-1157.0002,55.003361)" style="display:inline"><path id="path7165" d="m 1160.0004,-54 v 2 h 1 c 1.3833,0 2.5643,0.56298 3.5879,1.35547 1.0236,0.79248 1.914,1.81445 2.789,2.81445 0.875,1 1.7346,1.97803 2.6485,2.68555 0.9139,0.70751 1.8579,1.14453 2.9746,1.14453 v 1 c -1.3833,0 -2.5643,-0.56298 -3.5879,-1.35547 -1.0236,-0.79248 -1.914,-1.81445 -2.789,-2.81445 -0.875,-1 -1.7346,-1.97803 -2.6485,-2.68555 C 1163.0611,-50.56298 1162.1171,-51 1161.0004,-51 h -1 v 2 l -3,-2.5 z m 13,2 v 1 c -1.1167,0 -2.0607,0.43702 -2.9746,1.14453 -0.5755,0.44551 -1.128,1.0114 -1.6777,1.60938 -0.074,-0.0842 -0.1442,-0.1569 -0.2188,-0.24219 -0.1454,-0.16616 -0.3061,-0.33686 -0.4551,-0.50586 0.5503,-0.59486 1.1161,-1.16865 1.7383,-1.65039 1.0236,-0.79249 2.2046,-1.35547 3.5879,-1.35547 z m -7.3477,5.24609 c 0.074,0.0842 0.1442,0.1569 0.2188,0.24219 0.1457,0.16648 0.3078,0.33653 0.457,0.50586 -0.5503,0.59493 -1.1179,1.1686 -1.7402,1.65039 -1.0236,0.79249 -2.2046,1.35547 -3.5879,1.35547 h -1 v 2 l -3,-2.5 3,-2.5 v 2 h 1 c 1.1167,0 2.0607,-0.43702 2.9746,-1.14453 0.5752,-0.44534 1.1282,-1.01167 1.6777,-1.60938 z" style="color:#000;font-style:normal;font-variant:normal;font-weight:400;font-stretch:normal;font-size:medium;line-height:normal;font-family:sans-serif;font-variant-ligatures:normal;font-variant-position:normal;font-variant-caps:normal;font-variant-numeric:normal;font-variant-alternates:normal;font-feature-settings:normal;text-indent:0;text-align:start;text-decoration:none;text-decoration-line:none;text-decoration-style:solid;text-decoration-color:#000;letter-spacing:normal;word-spacing:normal;text-transform:none;writing-mode:lr-tb;direction:ltr;text-orientation:mixed;dominant-baseline:auto;baseline-shift:baseline;text-anchor:start;white-space:normal;shape-padding:0;clip-rule:nonzero;display:inline;overflow:visible;visibility:visible;opacity:1;isolation:auto;mix-blend-mode:normal;color-interpolation:sRGB;color-interpolation-filters:linearRGB;solid-color:#000;solid-opacity:1;vector-effect:none;fill:#4f555d;fill-opacity:1;fill-rule:evenodd;stroke:none;stroke-width:1px;stroke-linecap:butt;stroke-linejoin:miter;stroke-miterlimit:4;stroke-dasharray:none;stroke-dashoffset:0;stroke-opacity:1;color-rendering:auto;image-rendering:auto;shape-rendering:auto;text-rendering:auto;enable-background:accumulate"/></g></svg>