<svg xmlns="http://www.w3.org/2000/svg" xmlns:osb="http://www.openswatchbook.org/uri/2009/osb" xmlns:svg="http://www.w3.org/2000/svg" id="svg7384" width="16" height="16" version="1.1" style="enable-background:new"><metadata id="metadata90"/><title id="title8473">Solus Symbolic Icon Theme</title><defs id="defs7386"><linearGradient id="linearGradient6882" osb:paint="solid"><stop id="stop6884" offset="0" style="stop-color:#555;stop-opacity:1"/></linearGradient><linearGradient id="linearGradient5606" osb:paint="solid"><stop id="stop5608" offset="0" style="stop-color:#000;stop-opacity:1"/></linearGradient><filter id="filter7554" style="color-interpolation-filters:sRGB"><feBlend id="feBlend7556" in2="BackgroundImage" mode="darken"/></filter></defs><g id="layer9" transform="translate(-1137.0002,75.003357)" style="display:inline"><path id="path5092" d="m 1148.5004,-67.00336 c -1.933,0 -3.5,1.567 -3.5,3.5 0,1.933 1.567,3.5 3.5,3.5 1.933,0 3.5,-1.567 3.5,-3.5 0,-1.933 -1.567,-3.5 -3.5,-3.5 z m -0.5,1 h 1 v 5 h -1 v -3.5 h -1 v -0.5 c 1,0 1,-1 1,-1 z" style="color:#bebebe;display:inline;overflow:visible;visibility:visible;fill:#4f555d;fill-opacity:1;stroke:none;stroke-width:2;marker:none;enable-background:accumulate"/><path id="path7306" d="m 1149.0002,-74 v 2 h -7.625 c -2.4151,0 -4.375,1.9599 -4.375,4.375 v 0.25 c 0,0.99901 0.3479,1.90975 0.9121,2.64648 l 0.7598,-0.63281 c -0.4175,-0.56166 -0.6719,-1.25234 -0.6719,-2.01367 v -0.25 c 0,-1.8784 1.4966,-3.375 3.375,-3.375 h 7.625 v 2 l 3,-2.5 z m 3.0879,3.72852 -0.7598,0.63281 c 0.4175,0.56166 0.6719,1.25234 0.6719,2.01367 v 0.25 c 0,0.31322 -0.055,0.60967 -0.1328,0.89648 a 4.500083,4.4983196 0 0 1 0.6777,1.01172 c 0.2827,-0.57877 0.4551,-1.22107 0.4551,-1.9082 v -0.25 c 0,-0.99901 -0.3479,-1.90975 -0.9121,-2.64648 z M 1141.0002,-66 l -3,2.5 3,2.5 v -2 h 3.0332 a 4.500083,4.4983196 0 0 1 -0.033,-0.50195 4.500083,4.4983196 0 0 1 0.029,-0.49805 h -3.0293 z" style="color:#000;font-style:normal;font-variant:normal;font-weight:400;font-stretch:normal;font-size:medium;line-height:normal;font-family:sans-serif;font-variant-ligatures:normal;font-variant-position:normal;font-variant-caps:normal;font-variant-numeric:normal;font-variant-alternates:normal;font-feature-settings:normal;text-indent:0;text-align:start;text-decoration:none;text-decoration-line:none;text-decoration-style:solid;text-decoration-color:#000;letter-spacing:normal;word-spacing:normal;text-transform:none;writing-mode:lr-tb;direction:ltr;text-orientation:mixed;dominant-baseline:auto;baseline-shift:baseline;text-anchor:start;white-space:normal;shape-padding:0;clip-rule:nonzero;display:inline;overflow:visible;visibility:visible;opacity:1;isolation:auto;mix-blend-mode:normal;color-interpolation:sRGB;color-interpolation-filters:linearRGB;solid-color:#000;solid-opacity:1;vector-effect:none;fill:#4f555d;fill-opacity:1;fill-rule:evenodd;stroke:none;stroke-width:1px;stroke-linecap:butt;stroke-linejoin:miter;stroke-miterlimit:4;stroke-dasharray:none;stroke-dashoffset:0;stroke-opacity:1;color-rendering:auto;image-rendering:auto;shape-rendering:auto;text-rendering:auto;enable-background:accumulate"/></g></svg>