<svg xmlns="http://www.w3.org/2000/svg" xmlns:osb="http://www.openswatchbook.org/uri/2009/osb" xmlns:svg="http://www.w3.org/2000/svg" id="svg7384" width="16" height="16" version="1.1" style="enable-background:new"><metadata id="metadata90"/><title id="title8473">Solus Symbolic Icon Theme</title><defs id="defs7386"><linearGradient id="linearGradient6882" osb:paint="solid"><stop id="stop6884" offset="0" style="stop-color:#555;stop-opacity:1"/></linearGradient><linearGradient id="linearGradient5606" osb:paint="solid"><stop id="stop5608" offset="0" style="stop-color:#000;stop-opacity:1"/></linearGradient><filter id="filter7554" style="color-interpolation-filters:sRGB"><feBlend id="feBlend7556" in2="BackgroundImage" mode="darken"/></filter></defs><g id="layer9" transform="translate(-777.00354,94.99836)" style="display:inline"><path id="path7233" d="m 789.00339,-88.99503 -10e-6,4 0.25,2 h 1.5 l 0.25,-2 10e-6,-4 z m 0,7 v 2 h 2 v -2 z" class="error" style="color:#444;fill:#f44336;fill-opacity:1;stroke:none"/><path id="path9451" d="m 782.5002,-93 c -0.27613,3e-5 -0.49997,0.22387 -0.5,0.5 v 3 c 3e-5,0.27613 0.22387,0.49997 0.5,0.5 h 1.5 v 1 h -6 v 1 h 3 v 1 h -1.5 c -0.27613,3e-5 -0.49997,0.22387 -0.5,0.5 v 3 c 3e-5,0.27613 0.22387,0.49997 0.5,0.5 h 4 c 0.27613,-3e-5 0.49997,-0.22387 0.5,-0.5 v -3 c -3e-5,-0.27613 -0.22387,-0.49997 -0.5,-0.5 h -1.5 v -1 h 5 v 1 h -1.5 c -0.27613,3e-5 -0.49997,0.22387 -0.5,0.5 v 3 c 3e-5,0.27613 0.22387,0.49997 0.5,0.5 h 2.5 v -1 h -1.75 c -0.14715,0 -0.25,-0.10285 -0.25,-0.25 v -1.5 c 0,-0.14715 0.10285,-0.25 0.25,-0.25 h 1.75 v -1 -1 -1 h -3 v -1 h 1.5 c 0.27613,-3e-5 0.49997,-0.22387 0.5,-0.5 v -3 c -3e-5,-0.27613 -0.22387,-0.49997 -0.5,-0.5 z m 0.75,1 h 2.5 c 0.14715,0 0.25,0.10285 0.25,0.25 v 1.5 c 0,0.14715 -0.10285,0.25 -0.25,0.25 h -2.5 c -0.14715,0 -0.25,-0.10285 -0.25,-0.25 v -1.5 c 0,-0.14715 0.10285,-0.25 0.25,-0.25 z m -3,7 h 2.5 c 0.14715,0 0.25,0.10285 0.25,0.25 v 1.5 c 0,0.14715 -0.10285,0.25 -0.25,0.25 h -2.5 c -0.14715,0 -0.25,-0.10285 -0.25,-0.25 v -1.5 c 0,-0.14715 0.10285,-0.25 0.25,-0.25 z" style="color:#000;font-style:normal;font-variant:normal;font-weight:400;font-stretch:normal;font-size:medium;line-height:normal;font-family:sans-serif;font-variant-ligatures:normal;font-variant-position:normal;font-variant-caps:normal;font-variant-numeric:normal;font-variant-alternates:normal;font-feature-settings:normal;text-indent:0;text-align:start;text-decoration:none;text-decoration-line:none;text-decoration-style:solid;text-decoration-color:#000;letter-spacing:normal;word-spacing:normal;text-transform:none;writing-mode:lr-tb;direction:ltr;text-orientation:mixed;dominant-baseline:auto;baseline-shift:baseline;text-anchor:start;white-space:normal;shape-padding:0;clip-rule:nonzero;display:inline;overflow:visible;visibility:visible;opacity:.4;isolation:auto;mix-blend-mode:normal;color-interpolation:sRGB;color-interpolation-filters:linearRGB;solid-color:#000;solid-opacity:1;vector-effect:none;fill:#4f555d;fill-opacity:1;fill-rule:nonzero;stroke:none;stroke-width:1;stroke-linecap:round;stroke-linejoin:round;stroke-miterlimit:4;stroke-dasharray:none;stroke-dashoffset:0;stroke-opacity:1;color-rendering:auto;image-rendering:auto;shape-rendering:auto;text-rendering:auto;enable-background:accumulate"/></g></svg>