<svg xmlns="http://www.w3.org/2000/svg" xmlns:osb="http://www.openswatchbook.org/uri/2009/osb" xmlns:svg="http://www.w3.org/2000/svg" id="svg7384" width="16" height="16" version="1.1" style="enable-background:new"><metadata id="metadata90"/><title id="title8473">Solus Symbolic Icon Theme</title><defs id="defs7386"><linearGradient id="linearGradient6882" osb:paint="solid"><stop id="stop6884" offset="0" style="stop-color:#555;stop-opacity:1"/></linearGradient><linearGradient id="linearGradient5606" osb:paint="solid"><stop id="stop5608" offset="0" style="stop-color:#000;stop-opacity:1"/></linearGradient><filter id="filter7554" style="color-interpolation-filters:sRGB"><feBlend id="feBlend7556" in2="BackgroundImage" mode="darken"/></filter></defs><g id="layer9" transform="translate(-897.00354,54.998108)" style="display:inline"><path id="path2987-7-9-8-5-1-0" d="m 908.00323,-43.99813 v 1 c 0,0.27614 0.10029,0.53779 0.28125,0.71875 l 0.78125,0.78125 -0.78125,0.78125 c -0.18096,0.18096 -0.28125,0.44261 -0.28125,0.71875 v 1 h 1 c 0.27614,0 0.53779,-0.10029 0.71875,-0.28125 l 0.78125,-0.78125 0.78125,0.78125 c 0.18096,0.18096 0.44261,0.28125 0.71875,0.28125 h 1 v -1 c 0,-0.27614 -0.10029,-0.53779 -0.28125,-0.71875 l -0.78125,-0.78125 0.78125,-0.78125 c 0.18096,-0.18096 0.28125,-0.44261 0.28125,-0.71875 v -1 h -1 c -0.27614,0 -0.53779,0.10029 -0.71875,0.28125 l -0.78125,0.78125 -0.78125,-0.78125 c -0.18096,-0.18096 -0.44261,-0.28125 -0.71875,-0.28125 z" style="display:inline;fill:#4f555d;fill-opacity:1;stroke:none;enable-background:new"/><path id="path6837" d="m 907.50411,-49.99805 c -0.277,0 -0.5,0.223 -0.5,0.5 V -45 h 2 v -4.49805 c 0,-0.277 -0.223,-0.5 -0.5,-0.5 z" style="color:#bebebe;display:inline;overflow:visible;visibility:visible;opacity:.4;fill:#4f555d;fill-opacity:1;fill-rule:nonzero;stroke:none;stroke-width:1;marker:none;enable-background:accumulate"/><path id="path6839" d="m 904.50319,-47.99813 h 1.00003 c 0.277,0 0.5,0.223 0.5,0.5 v 6 c 0,0.277 -0.223,0.5 -0.5,0.5 h -1.00003 c -0.277,0 -0.5,-0.223 -0.5,-0.5 v -6 c 0,-0.277 0.223,-0.5 0.5,-0.5 z" style="color:#bebebe;display:inline;overflow:visible;visibility:visible;opacity:.4;fill:#4f555d;fill-opacity:1;fill-rule:nonzero;stroke:none;stroke-width:1;marker:none;enable-background:accumulate"/><path id="path6841" d="m 901.50319,-45.99813 h 1.00003 c 0.277,0 0.5,0.223 0.5,0.5 v 4 c 0,0.277 -0.223,0.5 -0.5,0.5 h -1.00003 c -0.277,0 -0.5,-0.223 -0.5,-0.5 v -4 c 0,-0.277 0.223,-0.5 0.5,-0.5 z" style="color:#bebebe;display:inline;overflow:visible;visibility:visible;opacity:.4;fill:#4f555d;fill-opacity:1;fill-rule:nonzero;stroke:none;stroke-width:1;marker:none;enable-background:accumulate"/><path id="path6843" d="m 898.50322,-43.99813 h 1.00002 c 0.277,0 0.5,0.223 0.5,0.5 v 2 c 0,0.277 -0.223,0.5 -0.5,0.5 h -1.00002 c -0.277,0 -0.5,-0.223 -0.5,-0.5 v -2 c 0,-0.277 0.223,-0.5 0.5,-0.5 z" style="color:#bebebe;display:inline;overflow:visible;visibility:visible;opacity:.4;fill:#4f555d;fill-opacity:1;fill-rule:nonzero;stroke:none;stroke-width:1;marker:none;enable-background:accumulate"/><path id="path6846" d="m 910.50411,-51.99805 c -0.277,0 -0.5,0.223 -0.5,0.5 V -45 h 2 v -6.49805 c 0,-0.277 -0.223,-0.5 -0.5,-0.5 z" style="color:#bebebe;display:inline;overflow:visible;visibility:visible;opacity:.4;fill:#4f555d;fill-opacity:1;fill-rule:nonzero;stroke:none;stroke-width:1;marker:none;enable-background:accumulate"/></g></svg>