<svg xmlns="http://www.w3.org/2000/svg" xmlns:osb="http://www.openswatchbook.org/uri/2009/osb" xmlns:svg="http://www.w3.org/2000/svg" id="svg7384" width="16.004" height="16" version="1.1" style="enable-background:new"><metadata id="metadata90"/><title id="title8473">Solus Symbolic Icon Theme</title><defs id="defs7386"><linearGradient id="linearGradient6882" osb:paint="solid"><stop id="stop6884" offset="0" style="stop-color:#555;stop-opacity:1"/></linearGradient><linearGradient id="linearGradient5606" osb:paint="solid"><stop id="stop5608" offset="0" style="stop-color:#000;stop-opacity:1"/></linearGradient><filter id="filter7554" style="color-interpolation-filters:sRGB"><feBlend id="feBlend7556" in2="BackgroundImage" mode="darken"/></filter></defs><g id="layer9" transform="translate(-796.9993,74.998405)" style="display:inline"><path id="path6763" d="m 805.03926,-72.99805 c -2.79613,0 -5.59318,1.06585 -7.72656,3.19922 0,0 -0.70516,0.69914 0,1.4043 0.3864,0.38639 1.0224,0.38384 1.40625,0 0.97375,-0.97376 2.11896,-1.66518 3.33594,-2.0957 0.24044,-1.41162 1.47381,-2.50391 2.94922,-2.50391 1.46673,0 2.6946,1.07898 2.94531,2.47852 1.24469,0.42801 2.41666,1.1276 3.41016,2.12109 0.38638,0.38639 1.0224,0.38384 1.40624,0 0.52951,-0.87517 0,-1.4043 0,-1.4043 -2.13337,-2.13338 -4.93043,-3.19922 -7.72656,-3.19922 z m -2.03515,4.28711 c -1.08057,0.32089 -2.09845,0.90705 -2.95118,1.75977 0,0 -0.70994,0.70413 0,1.41406 0.38902,0.38902 1.02956,0.38646 1.41602,0 0.45471,-0.45471 0.97956,-0.79222 1.53516,-1.03516 z m 4.50976,0.17969 c -0.36646,0.4966 -0.90281,0.87587 -1.50976,1.11914 v 0.51563 c 0.92864,0.18884 1.81478,0.639 2.53515,1.35937 0.38902,0.38902 1.02763,0.38646 1.41406,0 0.70994,-0.70428 0,-1.41406 0,-1.41406 -0.71659,-0.7166 -1.55076,-1.23904 -2.43945,-1.58008 z m -1.41406,3.74023 c -0.27513,0.61123 -0.89079,1.04688 -1.5957,1.04688 -0.52647,0 -0.99742,-0.24792 -1.32032,-0.625 -0.10215,0.0787 -0.20716,0.15248 -0.30078,0.24609 l 0.002,0.004 c 0,0 -0.70711,0.70695 0,1.41406 l 1.41406,1.41406 c 0.70711,0.70711 1.41406,0 1.41406,0 l 1.41406,-1.41406 c 0.7071,-0.70711 0,-1.41406 0,-1.41406 l -0.002,-0.004 c -0.30162,-0.30161 -0.65218,-0.52159 -1.02539,-0.66797 z" style="color:#000;display:inline;overflow:visible;visibility:visible;opacity:.4;fill:#4f555d;fill-opacity:1;fill-rule:nonzero;stroke:none;stroke-width:1.69602728;marker:none;enable-background:new"/><path id="path6754" d="m 805.00344,-71.99505 c 1.10457,0 2,0.89543 2,2 0,1.10457 -0.89543,2 -2,2 v 1 h -1 v -2 h 1 c 0.55229,0 1,-0.44772 1,-1 0,-0.55228 -0.44771,-1 -1,-1 -0.55228,0 -1,0.44772 -1,1 h -1 c 0,-1.10457 0.89543,-2 2,-2 z m -0.5,5.75 c 0.41421,0 0.75,0.33579 0.75,0.75 0,0.41421 -0.33579,0.75 -0.75,0.75 -0.41421,0 -0.75,-0.33579 -0.75,-0.75 0,-0.41421 0.33579,-0.75 0.75,-0.75 z" style="opacity:1;fill:#4f555d;fill-opacity:1;stroke:none;stroke-width:2;stroke-linecap:square;stroke-linejoin:miter;stroke-miterlimit:4;stroke-dasharray:none;stroke-opacity:1"/></g></svg>