<svg xmlns="http://www.w3.org/2000/svg" xmlns:osb="http://www.openswatchbook.org/uri/2009/osb" xmlns:svg="http://www.w3.org/2000/svg" id="svg7384" width="16" height="16" version="1.1" style="enable-background:new"><metadata id="metadata90"/><title id="title8473">Solus Symbolic Icon Theme</title><defs id="defs7386"><linearGradient id="linearGradient6882" osb:paint="solid"><stop id="stop6884" offset="0" style="stop-color:#555;stop-opacity:1"/></linearGradient><linearGradient id="linearGradient5606" osb:paint="solid"><stop id="stop5608" offset="0" style="stop-color:#000;stop-opacity:1"/></linearGradient><filter id="filter7554" style="color-interpolation-filters:sRGB"><feBlend id="feBlend7556" in2="BackgroundImage" mode="darken"/></filter></defs><g id="layer9" transform="translate(-797.00354,54.998131)" style="display:inline"><path id="path6838" d="m 810.50411,-51.99805 c -0.277,0 -0.5,0.223 -0.5,0.5 v 10 c 0,0.277 0.223,0.5 0.5,0.5 h 1 c 0.277,0 0.5,-0.223 0.5,-0.5 v -10 c 0,-0.277 -0.223,-0.5 -0.5,-0.5 z m -3,2 c -0.0865,0 -0.16355,0.028 -0.23438,0.0664 0.45087,0.52552 0.73438,1.19803 0.73438,1.9375 0,0.84052 -0.40406,1.50988 -1,1.99609 v 4.5 c 0,0.277 0.223,0.5 0.5,0.5 h 1 c 0.277,0 0.5,-0.223 0.5,-0.5 v -8 c 0,-0.277 -0.223,-0.5 -0.5,-0.5 z m -6,4 c -0.277,0 -0.5,0.223 -0.5,0.5 v 4 c 0,0.277 0.223,0.5 0.5,0.5 h 1 c 0.277,0 0.5,-0.223 0.5,-0.5 v -1.11914 c -0.15438,-0.26 -0.25,-0.5574 -0.25,-0.87695 0,-0.23116 0.1658,-0.39421 0.25,-0.59766 v -1.40625 c 0,-0.277 -0.223,-0.5 -0.5,-0.5 z m -3,2 c -0.277,0 -0.5,0.223 -0.5,0.5 v 2 c 0,0.277 0.223,0.5 0.5,0.5 h 1 c 0.277,0 0.5,-0.223 0.5,-0.5 v -2 c 0,-0.277 -0.223,-0.5 -0.5,-0.5 z m 6,0.25391 c -0.12624,0 -0.25,0.12376 -0.25,0.25 0,0.12624 0.12376,0.25 0.25,0.25 0.12624,0 0.25,-0.12376 0.25,-0.25 0,-0.12624 -0.12376,-0.25 -0.25,-0.25 z m 1.5,1.12695 c -0.30682,0.51674 -0.8649,0.87305 -1.5,0.87305 -0.17427,0 -0.34023,-0.0329 -0.5,-0.082 v 0.32812 c 0,0.277 0.223,0.5 0.5,0.5 h 1 c 0.277,0 0.5,-0.223 0.5,-0.5 z" style="color:#bebebe;display:inline;overflow:visible;visibility:visible;opacity:.4;fill:#4f555d;fill-opacity:1;fill-rule:nonzero;stroke:none;stroke-width:1;marker:none;enable-background:accumulate"/><path id="path6867" d="m 805.00344,-49.99505 c 1.10457,0 2,0.89543 2,2 0,1.10457 -0.89543,2 -2,2 v 1 h -1 v -2 h 1 c 0.55229,0 1,-0.44772 1,-1 0,-0.55228 -0.44771,-1 -1,-1 -0.55228,0 -1,0.44772 -1,1 h -1 c 0,-1.10457 0.89543,-2 2,-2 z m -0.5,5.75 c 0.41421,0 0.75,0.33579 0.75,0.75 0,0.41421 -0.33579,0.75 -0.75,0.75 -0.41421,0 -0.75,-0.33579 -0.75,-0.75 0,-0.41421 0.33579,-0.75 0.75,-0.75 z" style="opacity:1;fill:#4f555d;fill-opacity:1;stroke:none;stroke-width:2;stroke-linecap:square;stroke-linejoin:miter;stroke-miterlimit:4;stroke-dasharray:none;stroke-opacity:1"/></g></svg>