<svg xmlns="http://www.w3.org/2000/svg" xmlns:osb="http://www.openswatchbook.org/uri/2009/osb" xmlns:svg="http://www.w3.org/2000/svg" id="svg7384" width="16" height="16" version="1.1" style="enable-background:new"><metadata id="metadata90"/><title id="title8473">Solus Symbolic Icon Theme</title><defs id="defs7386"><linearGradient id="linearGradient5606" osb:paint="solid"><stop id="stop5608" offset="0" style="stop-color:#000;stop-opacity:1"/></linearGradient><filter id="filter7554" style="color-interpolation-filters:sRGB"><feBlend id="feBlend7556" in2="BackgroundImage" mode="darken"/></filter></defs><g id="layer9" transform="translate(-465.0004,435.00336)" style="display:inline"><path id="path5810" d="m 469.5002,-431 c -1.06313,0 -2.02683,0.38353 -2.79688,1 l 5.59961,0 c -0.77946,-0.62546 -1.7558,-0.99853 -2.80273,-1 z m -3.73828,7 c 0.8074,1.20511 2.17874,2 3.73828,2 1.52116,-0.002 2.89978,-0.77661 3.7207,-2 l -7.45898,0 z m 11.23828,0 0,0.99609 3,0 0,-0.99609 -3,0 z" style="display:inline;opacity:.35;fill:#4c5263;fill-opacity:1;stroke:none;stroke-width:31;stroke-miterlimit:4;stroke-dasharray:none;stroke-opacity:1;enable-background:new"/><path id="rect8040-5-9-7" d="m 468.0002,-429 c -1.108,0 -2,0.892 -2,2 0,1.108 0.892,2 2,2 1.108,0 2,-0.892 2,-2 0,-1.108 -0.892,-2 -2,-2 z m 5,0 c -1.108,0 -2,0.892 -2,2 0,1.108 0.892,2 2,2 1.108,0 2,-0.892 2,-2 0,-1.108 -0.892,-2 -2,-2 z m 5,0 c -1.108,0 -2,0.892 -2,2 0,1.108 0.892,2 2,2 1.108,0 2,-0.892 2,-2 0,-1.108 -0.892,-2 -2,-2 z" style="color:#000;display:inline;overflow:visible;visibility:visible;fill:#4c5263;fill-opacity:1;fill-rule:nonzero;stroke:none;stroke-width:1;marker:none;enable-background:new"/></g></svg>