<svg xmlns="http://www.w3.org/2000/svg" xmlns:osb="http://www.openswatchbook.org/uri/2009/osb" xmlns:svg="http://www.w3.org/2000/svg" id="svg7384" width="16" height="16" version="1.1" style="enable-background:new"><metadata id="metadata90"/><title id="title8473">Solus Symbolic Icon Theme</title><defs id="defs7386"><linearGradient id="linearGradient5606" osb:paint="solid"><stop id="stop5608" offset="0" style="stop-color:#000;stop-opacity:1"/></linearGradient><filter id="filter7554" style="color-interpolation-filters:sRGB"><feBlend id="feBlend7556" in2="BackgroundImage" mode="darken"/></filter></defs><g id="layer9" transform="translate(-485.0004,455.00336)" style="display:inline"><g id="g6549" transform="translate(40,0)"><path id="path6552" d="m 246,44 c 0,0 -1,0 -1,1 l 0,2 2,0 0,-1 10,0 0,1 2,0 0,-2 c 0,-1 -1,-1 -1,-1 l -12,0 z m -1,9 0,1 c 0,1 1,1 1,1 l 2,0 1,1 6,0 1,-1 2,0 c 0,0 1,0.129944 1,-1 l 0,-1 -2,0 -2,0 -1,1 -4,0 -1,-1 -2,0 -2,0 z" transform="translate(201.0002,-497)" style="opacity:.35;fill:#4c5263;fill-opacity:1;stroke:none;stroke-width:2;stroke-linecap:round;stroke-linejoin:round;stroke-miterlimit:4;stroke-dasharray:none;stroke-opacity:1"/></g><path id="rect8040-5-9" d="m 488.0002,-449 c -1.108,0 -2,0.892 -2,2 0,1.108 0.892,2 2,2 1.108,0 2,-0.892 2,-2 0,-1.108 -0.892,-2 -2,-2 z m 5,0 c -1.108,0 -2,0.892 -2,2 0,1.108 0.892,2 2,2 1.108,0 2,-0.892 2,-2 0,-1.108 -0.892,-2 -2,-2 z m 5,0 c -1.108,0 -2,0.892 -2,2 0,1.108 0.892,2 2,2 1.108,0 2,-0.892 2,-2 0,-1.108 -0.892,-2 -2,-2 z" style="color:#000;display:inline;overflow:visible;visibility:visible;fill:#4c5263;fill-opacity:1;fill-rule:nonzero;stroke:none;stroke-width:1;marker:none;enable-background:new"/></g></svg>