<svg xmlns="http://www.w3.org/2000/svg" xmlns:osb="http://www.openswatchbook.org/uri/2009/osb" xmlns:svg="http://www.w3.org/2000/svg" id="svg7384" width="16.003" height="16" version="1.1" style="enable-background:new"><metadata id="metadata90"/><title id="title8473">Solus Symbolic Icon Theme</title><defs id="defs7386"><linearGradient id="linearGradient6882" osb:paint="solid"><stop id="stop6884" offset="0" style="stop-color:#555;stop-opacity:1"/></linearGradient><linearGradient id="linearGradient5606" osb:paint="solid"><stop id="stop5608" offset="0" style="stop-color:#000;stop-opacity:1"/></linearGradient><filter id="filter7554" style="color-interpolation-filters:sRGB"><feBlend id="feBlend7556" in2="BackgroundImage" mode="darken"/></filter></defs><g id="layer9" transform="translate(-445.0002,614.99841)" style="display:inline"><path id="path6499" d="m 450.88235,-604.12235 0.003,0.003 c 0,0 -0.70711,0.7071 0,1.41421 l 1.41421,1.41421 c 0.70711,0.70711 1.41421,0 1.41421,0 l 1.41422,-1.41421 c 0.7071,-0.70711 0,-1.41421 0,-1.41421 l -0.003,-0.003 c -1.17157,-1.17157 -3.07106,-1.17158 -4.24264,0 z" style="color:#000;display:inline;overflow:visible;visibility:visible;fill:#4c5263;fill-opacity:1;fill-rule:nonzero;stroke:none;stroke-width:1.69602728;marker:none;enable-background:new"/><path id="path6501" d="m 448.05391,-605.53657 c 0.38902,0.38902 1.02775,0.38646 1.41421,0 1.95262,-1.95262 5.11844,-1.95262 7.07107,0 0.38902,0.38902 1.02776,0.38646 1.41421,0 0.70994,-0.70428 0,-1.41421 0,-1.41421 -2.73367,-2.73368 -7.16582,-2.73368 -9.89949,0 0,0 -0.70994,0.70428 0,1.41421 z" style="color:#000;display:inline;overflow:visible;visibility:visible;fill:#4c5263;fill-opacity:1;fill-rule:nonzero;stroke:none;stroke-width:1.69602728;marker:none;enable-background:new"/><path id="path6503" d="m 445.3136,-608.39428 c 0.3864,0.38639 1.02082,0.38384 1.40467,0 3.49097,-3.49098 9.15097,-3.49098 12.64195,0 0.38639,0.38639 1.0208,0.38384 1.40465,0 0.5295,-0.87517 1e-5,-1.40466 1e-5,-1.40466 -4.26676,-4.26676 -11.18453,-4.26675 -15.45128,0 0,0 -0.70516,0.6995 0,1.40466 z" style="color:#000;display:inline;overflow:visible;visibility:visible;fill:#4c5263;fill-opacity:1;fill-rule:nonzero;stroke:none;stroke-width:1.69602728;marker:none;enable-background:new"/></g></svg>