<svg xmlns="http://www.w3.org/2000/svg" xmlns:osb="http://www.openswatchbook.org/uri/2009/osb" xmlns:svg="http://www.w3.org/2000/svg" id="svg7384" width="16.003" height="16" version="1.1" style="enable-background:new"><metadata id="metadata90"/><title id="title8473">Solus Symbolic Icon Theme</title><defs id="defs7386"><linearGradient id="linearGradient6882" osb:paint="solid"><stop id="stop6884" offset="0" style="stop-color:#555;stop-opacity:1"/></linearGradient><linearGradient id="linearGradient5606" osb:paint="solid"><stop id="stop5608" offset="0" style="stop-color:#000;stop-opacity:1"/></linearGradient><filter id="filter7554" style="color-interpolation-filters:sRGB"><feBlend id="feBlend7556" in2="BackgroundImage" mode="darken"/></filter></defs><g id="layer9" transform="translate(-425.0002,614.99841)" style="display:inline"><path id="path6469" d="m 433.00411,-605.00195 c -0.76777,0 -1.53531,0.29311 -2.1211,0.8789 l 0.002,0.004 c 0,0 -0.70711,0.70695 0,1.41406 l 1.41406,1.41406 c 0.70711,0.70711 1.41406,0 1.41406,0 l 1.28707,-1.28719 v -1.64649 c -0.56871,-0.51061 -1.27928,-0.77734 -1.99609,-0.77734 z" style="color:#000;display:inline;overflow:visible;visibility:visible;opacity:.4;fill:#4c5263;fill-opacity:1;fill-rule:nonzero;stroke:none;stroke-width:1.69602728;marker:none;enable-background:new"/><path id="path6471" d="m 428.05391,-605.53657 c 0.38902,0.38902 1.02775,0.38646 1.41421,0 1.95262,-1.95262 5.11844,-1.95262 7.07107,0 0.38902,0.38902 1.02776,0.38646 1.41421,0 0.70994,-0.70428 0,-1.41421 0,-1.41421 -2.73367,-2.73368 -7.16582,-2.73368 -9.89949,0 0,0 -0.70994,0.70428 0,1.41421 z" style="color:#000;display:inline;overflow:visible;visibility:visible;opacity:.4;fill:#4c5263;fill-opacity:1;fill-rule:nonzero;stroke:none;stroke-width:1.69602728;marker:none;enable-background:new"/><path id="path6473" d="m 425.3136,-608.39428 c 0.3864,0.38639 1.02082,0.38384 1.40467,0 3.49097,-3.49098 9.15097,-3.49098 12.64195,0 0.38639,0.38639 1.0208,0.38384 1.40465,0 0.5295,-0.87517 1e-5,-1.40466 1e-5,-1.40466 -4.26676,-4.26676 -11.18453,-4.26675 -15.45128,0 0,0 -0.70516,0.6995 0,1.40466 z" style="color:#000;display:inline;overflow:visible;visibility:visible;opacity:.4;fill:#4c5263;fill-opacity:1;fill-rule:nonzero;stroke:none;stroke-width:1.69602728;marker:none;enable-background:new"/><path id="path2987-7-9-8-5-1" d="m 436.0002,-604 v 1 c 0,0.27614 0.10029,0.53779 0.28125,0.71875 l 0.78125,0.78125 -0.78125,0.78125 c -0.18096,0.18096 -0.28125,0.44261 -0.28125,0.71875 v 1 h 1 c 0.27614,0 0.53779,-0.10029 0.71875,-0.28125 l 0.78125,-0.78125 0.78125,0.78125 c 0.18096,0.18096 0.44261,0.28125 0.71875,0.28125 h 1 v -1 c 0,-0.27614 -0.10029,-0.53779 -0.28125,-0.71875 l -0.78125,-0.78125 0.78125,-0.78125 c 0.18096,-0.18096 0.28125,-0.44261 0.28125,-0.71875 v -1 h -1 c -0.27614,0 -0.53779,0.10029 -0.71875,0.28125 l -0.78125,0.78125 -0.78125,-0.78125 C 437.53799,-603.89971 437.27634,-604 437.0002,-604 Z" style="display:inline;fill:#4c5263;fill-opacity:1;stroke:none;enable-background:new"/></g></svg>