<svg xmlns="http://www.w3.org/2000/svg" xmlns:osb="http://www.openswatchbook.org/uri/2009/osb" xmlns:svg="http://www.w3.org/2000/svg" id="svg7384" width="16.004" height="16" version="1.1" style="enable-background:new"><metadata id="metadata90"/><title id="title8473">Solus Symbolic Icon Theme</title><defs id="defs7386"><linearGradient id="linearGradient6882" osb:paint="solid"><stop id="stop6884" offset="0" style="stop-color:#555;stop-opacity:1"/></linearGradient><linearGradient id="linearGradient5606" osb:paint="solid"><stop id="stop5608" offset="0" style="stop-color:#000;stop-opacity:1"/></linearGradient><filter id="filter7554" style="color-interpolation-filters:sRGB"><feBlend id="feBlend7556" in2="BackgroundImage" mode="darken"/></filter></defs><g id="layer9" transform="translate(-776.9993,74.998413)" style="display:inline"><path id="path6796" d="m 785.03926,-72.99805 c -2.79613,0 -5.59318,1.06585 -7.72656,3.19922 0,0 -0.70516,0.69914 0,1.4043 0.3864,0.38639 1.0224,0.38384 1.40625,0 2.83052,-2.83053 7.08533,-3.365 10.45508,-1.60547 h 2.82617 v 1.88281 c 0.27612,0.017 0.55773,-0.0694 0.76562,-0.27734 0.52951,-0.87517 0,-1.4043 0,-1.4043 -2.13337,-2.13338 -4.93043,-3.19922 -7.72656,-3.19922 z m -0.0351,3.9961 c -1.79146,0 -3.58434,0.68394 -4.95118,2.05078 0,0 -0.70994,0.70413 0,1.41406 0.38902,0.38902 1.02956,0.38646 1.41602,0 1.78245,-1.78245 4.57269,-1.9327 6.53125,-0.46094 v -2.32226 c -0.94618,-0.4486 -1.96997,-0.68164 -2.99609,-0.68164 z m 0,4 c -0.76777,0 -1.53531,0.29311 -2.1211,0.8789 l 0.002,0.004 c 0,0 -0.70711,0.70695 0,1.41406 l 1.41406,1.41406 c 0.70711,0.70711 1.41406,0 1.41406,0 l 1.41406,-1.41406 c 0.7071,-0.70711 0,-1.41406 0,-1.41406 l -0.002,-0.004 c -0.58578,-0.58578 -1.35333,-0.8789 -2.12109,-0.8789 z" style="color:#000;display:inline;overflow:visible;visibility:visible;opacity:.4;fill:#4f555d;fill-opacity:1;fill-rule:nonzero;stroke:none;stroke-width:1.69602728;marker:none;enable-background:new"/><path id="path6821" d="m 789.00344,-68.99505 -10e-6,4 0.25,2 h 1.5 l 0.25,-2 10e-6,-4 z m 0,7 v 2 h 2 v -2 z" class="error" style="color:#444;fill:#f44336;fill-opacity:1;stroke:none"/></g></svg>