<svg xmlns="http://www.w3.org/2000/svg" xmlns:osb="http://www.openswatchbook.org/uri/2009/osb" xmlns:svg="http://www.w3.org/2000/svg" id="svg7384" width="16" height="16" version="1.1" style="enable-background:new"><metadata id="metadata90"/><title id="title8473">Solus Symbolic Icon Theme</title><defs id="defs7386"><linearGradient id="linearGradient6882" osb:paint="solid"><stop id="stop6884" offset="0" style="stop-color:#555;stop-opacity:1"/></linearGradient><linearGradient id="linearGradient5606" osb:paint="solid"><stop id="stop5608" offset="0" style="stop-color:#000;stop-opacity:1"/></linearGradient><filter id="filter7554" style="color-interpolation-filters:sRGB"><feBlend id="feBlend7556" in2="BackgroundImage" mode="darken"/></filter></defs><g id="layer9" transform="translate(-877.00353,54.99813)" style="display:inline"><path id="path6800" d="m 887.50319,-49.99813 h 1 c 0.277,0 0.5,0.223 0.5,0.5 v 8.00003 c 0,0.277 -0.223,0.5 -0.5,0.5 h -1 c -0.277,0 -0.5,-0.223 -0.5,-0.5 v -8.00003 c 0,-0.277 0.223,-0.5 0.5,-0.5 z" style="color:#bebebe;display:inline;overflow:visible;visibility:visible;opacity:.4;fill:#4f555d;fill-opacity:1;fill-rule:nonzero;stroke:none;stroke-width:1;marker:none;enable-background:accumulate"/><path id="path6802" d="m 884.50319,-47.99813 h 1.00003 c 0.277,0 0.5,0.223 0.5,0.5 v 6 c 0,0.277 -0.223,0.5 -0.5,0.5 h -1.00003 c -0.277,0 -0.5,-0.223 -0.5,-0.5 v -6 c 0,-0.277 0.223,-0.5 0.5,-0.5 z" style="color:#bebebe;display:inline;overflow:visible;visibility:visible;opacity:.4;fill:#4f555d;fill-opacity:1;fill-rule:nonzero;stroke:none;stroke-width:1;marker:none;enable-background:accumulate"/><path id="path6804" d="m 881.50319,-45.99813 h 1.00003 c 0.277,0 0.5,0.223 0.5,0.5 v 4 c 0,0.277 -0.223,0.5 -0.5,0.5 h -1.00003 c -0.277,0 -0.5,-0.223 -0.5,-0.5 v -4 c 0,-0.277 0.223,-0.5 0.5,-0.5 z" style="color:#bebebe;display:inline;overflow:visible;visibility:visible;opacity:.4;fill:#4f555d;fill-opacity:1;fill-rule:nonzero;stroke:none;stroke-width:1;marker:none;enable-background:accumulate"/><path id="path6806" d="m 878.50322,-43.99813 h 1.00002 c 0.277,0 0.5,0.223 0.5,0.5 v 2 c 0,0.277 -0.223,0.5 -0.5,0.5 h -1.00002 c -0.277,0 -0.5,-0.223 -0.5,-0.5 v -2 c 0,-0.277 0.223,-0.5 0.5,-0.5 z" style="color:#bebebe;display:inline;overflow:visible;visibility:visible;fill:#4f555d;fill-opacity:1;fill-rule:nonzero;stroke:none;stroke-width:1;marker:none;enable-background:accumulate"/><path id="path6808" d="m 890.50325,-51.99813 h 0.99999 c 0.277,0 0.5,0.223 0.5,0.5 v 10 c 0,0.277 -0.223,0.5 -0.5,0.5 h -0.99999 c -0.277,0 -0.5,-0.223 -0.5,-0.5 v -10 c 0,-0.277 0.223,-0.5 0.5,-0.5 z" style="color:#bebebe;display:inline;overflow:visible;visibility:visible;opacity:.4;fill:#4f555d;fill-opacity:1;fill-rule:nonzero;stroke:none;stroke-width:1;marker:none;enable-background:accumulate"/></g></svg>