<svg xmlns="http://www.w3.org/2000/svg" xmlns:osb="http://www.openswatchbook.org/uri/2009/osb" xmlns:svg="http://www.w3.org/2000/svg" id="svg7384" width="16" height="16" version="1.1" style="enable-background:new"><metadata id="metadata90"/><title id="title8473">Solus Symbolic Icon Theme</title><defs id="defs7386"><linearGradient id="linearGradient6882" osb:paint="solid"><stop id="stop6884" offset="0" style="stop-color:#555;stop-opacity:1"/></linearGradient><linearGradient id="linearGradient5606" osb:paint="solid"><stop id="stop5608" offset="0" style="stop-color:#000;stop-opacity:1"/></linearGradient><filter id="filter7554" style="color-interpolation-filters:sRGB"><feBlend id="feBlend7556" in2="BackgroundImage" mode="darken"/></filter></defs><g id="layer9" transform="translate(-936.00018,74.998516)" style="display:inline"><path id="rect9684" d="m 940.0002,-73 c -1.108,0 -2,0.892 -2,2 v 8 c 0,1.108 0.892,2 2,2 h 8 c 1.108,0 2,-0.892 2,-2 v -8 c 0,-1.108 -0.892,-2 -2,-2 z m 4,3.01367 c 1.3979,0 2.79477,0.53305 3.86133,1.59961 10e-6,0 0.26473,0.26364 0,0.70117 -0.1919,0.1919 -0.50995,0.19318 -0.70313,0 -1.74528,-1.74528 -4.57308,-1.74528 -6.31836,0 -0.19192,0.1919 -0.50994,0.19318 -0.70312,0 -0.35254,-0.35254 0,-0.70117 0,-0.70117 1.06657,-1.06656 2.46538,-1.59961 3.86328,-1.59961 z m -0.0176,1.99805 c 0.89563,0 1.78933,0.34205 2.47266,1.02539 0,0 0.35493,0.35493 0,0.70703 -0.1932,0.19321 -0.51254,0.19449 -0.70703,0 -0.9762,-0.9762 -2.55702,-0.9762 -3.53321,0 -0.19322,0.19321 -0.51449,0.19449 -0.70898,0 -0.35493,-0.35492 0,-0.70703 0,-0.70703 0.68334,-0.68334 1.58094,-1.02539 2.47656,-1.02539 z m 0,2 c 0.38384,0 0.76575,0.1466 1.0586,0.43945 l 0.002,0.002 c 0,0 0.35351,0.35352 0,0.70704 l -0.70703,0.70507 c 0,0 -0.35352,0.35352 -0.70703,0 l -0.70703,-0.70507 c -0.35353,-0.35352 -10e-6,-0.70704 0,-0.70704 v -0.002 c 0.29286,-0.29286 0.6767,-0.43945 1.06054,-0.43945 z" style="opacity:1;fill:#4f555d;fill-opacity:1;stroke:none;stroke-width:1;stroke-linecap:round;stroke-linejoin:miter;stroke-miterlimit:4;stroke-dasharray:none;stroke-dashoffset:0;stroke-opacity:1"/></g></svg>