<svg xmlns="http://www.w3.org/2000/svg" xmlns:osb="http://www.openswatchbook.org/uri/2009/osb" xmlns:svg="http://www.w3.org/2000/svg" id="svg7384" width="16" height="16" version="1.1" style="enable-background:new"><metadata id="metadata90"/><title id="title8473">Solus Symbolic Icon Theme</title><defs id="defs7386"><linearGradient id="linearGradient5606" osb:paint="solid"><stop id="stop5608" offset="0" style="stop-color:#000;stop-opacity:1"/></linearGradient><filter id="filter7554" color-interpolation-filters="sRGB"><feBlend id="feBlend7556" in2="BackgroundImage" mode="darken"/></filter></defs><g id="layer9" transform="translate(-485.0004,351.00336)" style="display:inline"><path id="path6519" d="m 489.0002,-350 0,2 8,0 0,-2 -8,0 z m -2,3 c -0.5,0 -1,0.5 -1,1 l 0,4 c 0,0.5 0.5,1 1,1 l 1,0 0,-2 7,0 0,-2 4,0 0,4 c 0.5,0 1,-0.5 1,-1 l 0,-4 c 0,-0.5 -0.5,-1 -1,-1 l -12,0 z m 2,5 0,5 6,0 0,-5 -6,0 z" style="fill:#4c5263;fill-opacity:1;stroke:none"/><path id="rect7811-3" d="m 496.00039,-344.00339 0,4.01565 0.25001,1.98438 1.5,0 0.25,-2 -1e-5,-4.00003 z m 0,7 0,2 2,0 0,-2 z" class="error" style="color:#4c5263;fill:#e74c3c;fill-opacity:1;stroke:none;stroke-width:2;marker:none;visibility:visible;display:inline;overflow:visible;enable-background:accumulate"/></g></svg>