<svg xmlns="http://www.w3.org/2000/svg" xmlns:osb="http://www.openswatchbook.org/uri/2009/osb" xmlns:svg="http://www.w3.org/2000/svg" id="svg7384" width="16" height="16" version="1.1" style="enable-background:new"><metadata id="metadata90"/><title id="title8473">Solus Symbolic Icon Theme</title><defs id="defs7386"><linearGradient id="linearGradient6882" osb:paint="solid"><stop id="stop6884" offset="0" style="stop-color:#555;stop-opacity:1"/></linearGradient><linearGradient id="linearGradient5606" osb:paint="solid"><stop id="stop5608" offset="0" style="stop-color:#000;stop-opacity:1"/></linearGradient><filter id="filter7554" style="color-interpolation-filters:sRGB"><feBlend id="feBlend7556" in2="BackgroundImage" mode="darken"/></filter></defs><g id="layer9" transform="translate(-1237.0004,35.003361)" style="display:inline"><path id="path7888" d="m 1245.4883,-33.982422 c -0.7581,-0.05315 -1.5321,0.01588 -2.2969,0.220703 -3.059,0.819312 -5.1914,3.595867 -5.1914,6.761719 0,3.165852 2.1324,5.942407 5.1914,6.761719 3.0591,0.819311 6.2934,-0.520074 7.877,-3.261719 a 0.5005087,0.5005087 0 1 0 -0.8672,-0.5 c -1.3596,2.353819 -4.1253,3.498433 -6.752,2.794922 C 1240.8225,-21.908589 1239,-24.282118 1239,-27 c 0,-2.717882 1.8225,-5.091411 4.4492,-5.794922 2.6267,-0.703511 5.3924,0.441103 6.752,2.794922 a 0.5005087,0.5005087 0 1 0 0.8672,-0.5 c -1.1877,-2.056234 -3.3057,-3.322959 -5.5801,-3.482422 z" style="color:#000;font-style:normal;font-variant:normal;font-weight:400;font-stretch:normal;font-size:medium;line-height:normal;font-family:sans-serif;font-variant-ligatures:normal;font-variant-position:normal;font-variant-caps:normal;font-variant-numeric:normal;font-variant-alternates:normal;font-feature-settings:normal;text-indent:0;text-align:start;text-decoration:none;text-decoration-line:none;text-decoration-style:solid;text-decoration-color:#000;letter-spacing:normal;word-spacing:normal;text-transform:none;writing-mode:lr-tb;direction:ltr;text-orientation:mixed;dominant-baseline:auto;baseline-shift:baseline;text-anchor:start;white-space:normal;shape-padding:0;clip-rule:nonzero;display:inline;overflow:visible;visibility:visible;opacity:1;isolation:auto;mix-blend-mode:normal;color-interpolation:sRGB;color-interpolation-filters:linearRGB;solid-color:#000;solid-opacity:1;vector-effect:none;fill:#4f555d;fill-opacity:1;fill-rule:nonzero;stroke:none;stroke-width:1;stroke-linecap:round;stroke-linejoin:miter;stroke-miterlimit:4;stroke-dasharray:none;stroke-dashoffset:0;stroke-opacity:1;color-rendering:auto;image-rendering:auto;shape-rendering:auto;text-rendering:auto;enable-background:accumulate"/><path id="path7890" d="m 1248.0002,-29 4,-4 v 4 z" style="fill:#4f555d;fill-opacity:1;fill-rule:evenodd;stroke:none;stroke-width:1px;stroke-linecap:butt;stroke-linejoin:miter;stroke-opacity:1"/><path id="path6628-6" d="m 1245.0002,-31 c -1.108,0 -2,0.91085 -2,2.03125 V -28 h -1 v 1 2 1 h 1 4 1 v -1 -2 -1 h -1 v -0.96875 c 0,-1.1199 -0.892,-2.03125 -2,-2.03125 z m 0,1 c 0.554,0 1,0.4424 1,1 v 1 h -2 v -1 c 0,-0.5576 0.446,-1 1,-1 z" style="display:inline;fill:#4f555d;fill-opacity:1;stroke:none;enable-background:new"/></g></svg>