<svg xmlns="http://www.w3.org/2000/svg" xmlns:osb="http://www.openswatchbook.org/uri/2009/osb" xmlns:svg="http://www.w3.org/2000/svg" id="svg7384" width="16" height="16" version="1.1" style="enable-background:new"><metadata id="metadata90"/><title id="title8473">Solus Symbolic Icon Theme</title><defs id="defs7386"><linearGradient id="linearGradient6882" osb:paint="solid"><stop id="stop6884" offset="0" style="stop-color:#4c5263;stop-opacity:1"/></linearGradient><linearGradient id="linearGradient5606" osb:paint="solid"><stop id="stop5608" offset="0" style="stop-color:#000;stop-opacity:1"/></linearGradient><filter id="filter7554" style="color-interpolation-filters:sRGB"><feBlend id="feBlend7556" in2="BackgroundImage" mode="darken"/></filter></defs><g id="layer9" transform="translate(-445.00041,335.01034)" style="display:inline"><path id="path10649" d="m 453.0002,-335 -6,1.99023 0,7 c 0,2.07164 1.57494,3.52182 2.9375,4.46875 1.36256,0.94693 3.0625,1.54102 3.0625,1.54102 0,0 1.70434,-0.61672 3.0625,-1.57227 1.35816,-0.95555 2.9375,-2.39317 2.9375,-4.4375 l 0,-7 -6,-1.99023 z m -2.25,3.51172 0.61914,0.61914 1.63086,1.63086 1.63086,-1.63086 0.61914,-0.61914 1.23828,1.23828 -0.61914,0.61914 -1.63086,1.63086 1.63086,1.63086 0.61914,0.61914 -1.23828,1.23828 -0.61914,-0.61914 -1.63086,-1.63086 -1.63086,1.63086 -0.61914,0.61914 -1.23633,-1.23828 0.61719,-0.61914 1.63086,-1.63086 -1.63086,-1.63086 -0.61719,-0.61914 1.23633,-1.23828 z" class="error" style="color:#bebebe;font-style:normal;font-variant:normal;font-weight:400;font-stretch:normal;font-size:medium;line-height:normal;font-family:Sans;-inkscape-font-specification:Sans;text-indent:0;text-align:start;text-decoration:none;text-decoration-line:none;letter-spacing:normal;word-spacing:normal;text-transform:none;direction:ltr;block-progression:tb;writing-mode:lr-tb;baseline-shift:baseline;text-anchor:start;display:inline;overflow:visible;visibility:visible;opacity:1;fill:#f44336;fill-opacity:1;stroke:none;stroke-width:2;marker:none;enable-background:accumulate"/></g></svg>