<svg xmlns="http://www.w3.org/2000/svg" xmlns:osb="http://www.openswatchbook.org/uri/2009/osb" xmlns:svg="http://www.w3.org/2000/svg" id="svg7384" width="16" height="16.003" version="1.1" style="enable-background:new"><metadata id="metadata90"/><title id="title8473">Solus Symbolic Icon Theme</title><defs id="defs7386"><linearGradient id="linearGradient6882" osb:paint="solid"><stop id="stop6884" offset="0" style="stop-color:#555;stop-opacity:1"/></linearGradient><linearGradient id="linearGradient5606" osb:paint="solid"><stop id="stop5608" offset="0" style="stop-color:#000;stop-opacity:1"/></linearGradient><filter id="filter7554" style="color-interpolation-filters:sRGB"><feBlend id="feBlend7556" in2="BackgroundImage" mode="darken"/></filter></defs><g id="layer9" transform="translate(-1237.0317,-4.9967194)" style="display:inline"><path id="path3810-3" d="m 1245.0002,5 c -1.0685,-0.0284 -2.0284,0.93145 -2,2 h -4 c 0,0 -1,0 -1,1 v 11 c 0,1 1,1 1,1 h 9 v -2 -1 h -7 v -1 h 7 v -2 h -7 v -1 h 7 v -2 h -7 v -1 h 8 v 1 0 h 1.8438 1.1562 V 8 c 0,-1 -1,-1 -1,-1 h -4 c 0.047,-1.08177 -0.9306,-2.02193 -2,-2 z m 0,1 c 0.8368,-0.0296 1.3543,1.15278 0.7188,1.71875 -0.5427,0.60179 -1.6776,0.18423 -1.7188,-0.625 -0.072,-0.57256 0.4231,-1.10726 1,-1.09375 z" style="color:#000;display:inline;overflow:visible;visibility:visible;fill:#4f555d;fill-opacity:1;fill-rule:nonzero;stroke:none;stroke-width:4;marker:none;enable-background:accumulate"/><path id="path5140-8-2" d="m 1249.0004,12 0,4.00003 0.25,2 h 1.5 l 0.25,-2 0,-4.00003 z m 0,7 v 2 h 2 v -2 z" class="warning" style="color:#bebebe;display:inline;overflow:visible;visibility:visible;fill:#ff9800;fill-opacity:1;stroke:none;stroke-width:2;marker:none;enable-background:accumulate"/></g></svg>