<svg xmlns="http://www.w3.org/2000/svg" xmlns:osb="http://www.openswatchbook.org/uri/2009/osb" xmlns:svg="http://www.w3.org/2000/svg" id="svg7384" width="16" height="16.003" version="1.1" style="enable-background:new"><metadata id="metadata90"/><title id="title8473">Solus Symbolic Icon Theme</title><defs id="defs7386"><linearGradient id="linearGradient6882" osb:paint="solid"><stop id="stop6884" offset="0" style="stop-color:#555;stop-opacity:1"/></linearGradient><linearGradient id="linearGradient5606" osb:paint="solid"><stop id="stop5608" offset="0" style="stop-color:#000;stop-opacity:1"/></linearGradient><filter id="filter7554" style="color-interpolation-filters:sRGB"><feBlend id="feBlend7556" in2="BackgroundImage" mode="darken"/></filter></defs><g id="layer9" transform="translate(-1257.0317,-4.9967194)" style="display:inline"><path id="path8641" d="m 1265.0002,5 c -1.0685,-0.0284 -2.0284,0.93145 -2,2 h -4 c 0,0 -1,0 -1,1 v 11 c 0,1 1,1 1,1 h 8 v -3 h -6 v -1 h 6 v -1 h 5 V 8 c 0,-1 -1,-1 -1,-1 h -4 c 0.047,-1.08177 -0.9306,-2.02193 -2,-2 z m 0,1 c 0.8368,-0.0296 1.3543,1.15278 0.7188,1.71875 -0.5427,0.60179 -1.6776,0.18423 -1.7188,-0.625 -0.072,-0.57256 0.4231,-1.10726 1,-1.09375 z m -4,4 h 8 v 1 h -8 z m 0,3 h 8 v 1 h -8 z" style="color:#000;display:inline;overflow:visible;visibility:visible;opacity:.35;fill:#4f555d;fill-opacity:1;fill-rule:nonzero;stroke:none;stroke-width:4;marker:none;enable-background:accumulate"/><path id="path5658-8" d="m 1268.0002,16 v 1 c 0,0.27614 0.1003,0.53779 0.2813,0.71875 l 0.7812,0.78125 -0.7812,0.78125 c -0.181,0.18096 -0.2813,0.44261 -0.2813,0.71875 v 1 h 1 c 0.2761,0 0.5378,-0.10029 0.7188,-0.28125 l 0.7812,-0.78125 0.7813,0.78125 c 0.1809,0.18096 0.4426,0.28125 0.7187,0.28125 h 1 v -1 c 0,-0.27614 -0.1003,-0.53779 -0.2812,-0.71875 l -0.7813,-0.78125 0.7813,-0.78125 c 0.1809,-0.18096 0.2812,-0.44261 0.2812,-0.71875 v -1 h -1 c -0.2761,0 -0.5378,0.10029 -0.7187,0.28125 l -0.7813,0.78125 -0.7812,-0.78125 C 1269.538,16.10029 1269.2763,16 1269.0002,16 Z" style="display:inline;fill:#4f555d;fill-opacity:1;stroke:none;enable-background:new"/></g></svg>