<svg xmlns="http://www.w3.org/2000/svg" xmlns:osb="http://www.openswatchbook.org/uri/2009/osb" xmlns:svg="http://www.w3.org/2000/svg" id="svg7384" width="16.01" height="16.007" version="1.1" style="enable-background:new"><metadata id="metadata90"/><title id="title8473">Solus Symbolic Icon Theme</title><defs id="defs7386"><linearGradient id="linearGradient6882" osb:paint="solid"><stop id="stop6884" offset="0" style="stop-color:#555;stop-opacity:1"/></linearGradient><linearGradient id="linearGradient5606" osb:paint="solid"><stop id="stop5608" offset="0" style="stop-color:#000;stop-opacity:1"/></linearGradient><filter id="filter7554" style="color-interpolation-filters:sRGB"><feBlend id="feBlend7556" in2="BackgroundImage" mode="darken"/></filter></defs><g id="layer9" transform="translate(-1256.9904,35.010132)" style="display:inline"><path id="rect6763" d="m 1258.4904,-33.5 c -0.554,0 -1,0.446 -1,1 v 11 c 0,0.554 0.446,1 1,1 h 8.5098 V -25 h 4.4902 v -7.5 c 0,-0.554 -0.446,-1 -1,-1 z" style="opacity:.07999998;fill:#4f555d;fill-opacity:1;stroke:none;stroke-width:1;stroke-linecap:round;stroke-linejoin:miter;stroke-miterlimit:4;stroke-dasharray:none;stroke-dashoffset:0;stroke-opacity:1"/><path id="rect6767" d="m 1258.4904,-34 c -0.8223,0 -1.5,0.67765 -1.5,1.5 v 11 c 0,0.82235 0.6777,1.5 1.5,1.5 h 8.5098 v -1 h -2 v -2 h 2 v -1 h -9 v 1 h 6 v 2 h -5.5098 c -0.2856,0 -0.5,-0.21435 -0.5,-0.5 v -11 c 0,-0.28565 0.2144,-0.5 0.5,-0.5 h 12 c 0.2857,0 0.5,0.21435 0.5,0.5 v 7.5 h 1 v -7.5 c 0,-0.82235 -0.6776,-1.5 -1.5,-1.5 z" style="color:#000;font-style:normal;font-variant:normal;font-weight:400;font-stretch:normal;font-size:medium;line-height:normal;font-family:sans-serif;font-variant-ligatures:normal;font-variant-position:normal;font-variant-caps:normal;font-variant-numeric:normal;font-variant-alternates:normal;font-feature-settings:normal;text-indent:0;text-align:start;text-decoration:none;text-decoration-line:none;text-decoration-style:solid;text-decoration-color:#000;letter-spacing:normal;word-spacing:normal;text-transform:none;writing-mode:lr-tb;direction:ltr;text-orientation:mixed;dominant-baseline:auto;baseline-shift:baseline;text-anchor:start;white-space:normal;shape-padding:0;clip-rule:nonzero;display:inline;overflow:visible;visibility:visible;opacity:.4;isolation:auto;mix-blend-mode:normal;color-interpolation:sRGB;color-interpolation-filters:linearRGB;solid-color:#000;solid-opacity:1;vector-effect:none;fill:#4f555d;fill-opacity:1;fill-rule:nonzero;stroke:none;stroke-width:1;stroke-linecap:round;stroke-linejoin:miter;stroke-miterlimit:4;stroke-dasharray:none;stroke-dashoffset:0;stroke-opacity:1;color-rendering:auto;image-rendering:auto;shape-rendering:auto;text-rendering:auto;enable-background:accumulate"/><path id="path6779" d="m 1268.0004,-24.00336 v 1 c 0,0.27614 0.1003,0.53779 0.2812,0.71875 l 0.7813,0.78125 -0.7813,0.78125 c -0.1809,0.18096 -0.2812,0.44261 -0.2812,0.71875 v 1 h 1 c 0.2761,0 0.5378,-0.10029 0.7187,-0.28125 l 0.7813,-0.78125 0.7812,0.78125 c 0.181,0.18096 0.4427,0.28125 0.7188,0.28125 h 1 v -1 c 0,-0.27614 -0.1003,-0.53779 -0.2813,-0.71875 l -0.7812,-0.78125 0.7812,-0.78125 c 0.181,-0.18096 0.2813,-0.44261 0.2813,-0.71875 v -1 h -1 c -0.2761,0 -0.5378,0.10029 -0.7188,0.28125 l -0.7812,0.78125 -0.7813,-0.78125 c -0.1809,-0.18096 -0.4426,-0.28125 -0.7187,-0.28125 z" style="display:inline;fill:#4f555d;fill-opacity:1;stroke:none;enable-background:new"/></g></svg>