<svg xmlns="http://www.w3.org/2000/svg" xmlns:osb="http://www.openswatchbook.org/uri/2009/osb" xmlns:svg="http://www.w3.org/2000/svg" id="svg7384" width="16" height="16.003" version="1.1" style="enable-background:new"><metadata id="metadata90"/><title id="title8473">Solus Symbolic Icon Theme</title><defs id="defs7386"><linearGradient id="linearGradient6882" osb:paint="solid"><stop id="stop6884" offset="0" style="stop-color:#4c5263;stop-opacity:1"/></linearGradient><linearGradient id="linearGradient5606" osb:paint="solid"><stop id="stop5608" offset="0" style="stop-color:#000;stop-opacity:1"/></linearGradient><filter id="filter7554" style="color-interpolation-filters:sRGB"><feBlend id="feBlend7556" in2="BackgroundImage" mode="darken"/></filter></defs><g id="layer9" transform="translate(-345.00043,435.00336)" style="display:inline"><path id="path6391" d="m 353.0002,-433.00391 c -1.65686,0 -3,1.3432 -3,3 0,1.6568 1.34314,3 3,3 1.65686,0 3,-1.3432 3,-3 0,-1.6568 -1.34314,-3 -3,-3 z m 0,8 c -6.00023,0.003 -6,4.00391 -6,4.00391 l 0,1 6.76172,0 a 4.5,4.5 0 0 1 -0.76172,-2.5 4.5,4.5 0 0 1 0.74219,-2.47266 c -0.24077,-0.0146 -0.4788,-0.0314 -0.74219,-0.0312 z" style="color:#000;font-style:normal;font-variant:normal;font-weight:400;font-stretch:normal;font-size:medium;line-height:normal;font-family:Sans;-inkscape-font-specification:Sans;text-indent:0;text-align:start;text-decoration:none;text-decoration-line:none;letter-spacing:normal;word-spacing:normal;text-transform:none;direction:ltr;block-progression:tb;writing-mode:lr-tb;baseline-shift:baseline;text-anchor:start;display:inline;overflow:visible;visibility:visible;opacity:.35;fill:#4d4d4d;fill-opacity:1;stroke:none;stroke-width:2;marker:none;enable-background:accumulate"/><path id="path6393" d="m 357.5002,-426 c -1.933,0 -3.5,1.567 -3.5,3.5 0,1.933 1.567,3.5 3.5,3.5 1.933,0 3.5,-1.567 3.5,-3.5 0,-1.933 -1.567,-3.5 -3.5,-3.5 z m -0.5,1 1,0 0,2 2,0 0,1 -3,0 z" style="color:#000;clip-rule:nonzero;display:inline;overflow:visible;visibility:visible;opacity:1;isolation:auto;mix-blend-mode:normal;color-interpolation:sRGB;color-interpolation-filters:linearRGB;solid-color:#000;solid-opacity:1;fill:#4d4d4d;fill-opacity:1;fill-rule:evenodd;stroke:none;stroke-width:1;stroke-linecap:butt;stroke-linejoin:miter;stroke-miterlimit:4;stroke-dasharray:none;stroke-dashoffset:0;stroke-opacity:1;color-rendering:auto;image-rendering:auto;shape-rendering:auto;text-rendering:auto;enable-background:accumulate"/></g></svg>