<svg xmlns="http://www.w3.org/2000/svg" xmlns:osb="http://www.openswatchbook.org/uri/2009/osb" xmlns:svg="http://www.w3.org/2000/svg" id="svg7384" width="16" height="16" version="1.1" style="enable-background:new"><metadata id="metadata90"/><title id="title8473">Solus Symbolic Icon Theme</title><defs id="defs7386"><linearGradient id="linearGradient5606" osb:paint="solid"><stop id="stop5608" offset="0" style="stop-color:#000;stop-opacity:1"/></linearGradient><filter id="filter7554" color-interpolation-filters="sRGB"><feBlend id="feBlend7556" in2="BackgroundImage" mode="darken"/></filter></defs><g id="layer9" transform="translate(-285.00018,251)" style="display:inline"><path id="path5072" d="m 289.0002,-243 c -1.65685,0 -3,1.34315 -3,3 0,1.65685 1.34315,3 3,3 1.55869,0 2.82243,-1.19843 2.96875,-2.71875 0.29974,-0.17924 0.65661,-0.28125 1.03125,-0.28125 0.37464,0 0.73151,0.10201 1.03125,0.28125 0.14632,1.52032 1.41006,2.71875 2.96875,2.71875 1.65685,0 3,-1.34315 3,-3 0,-1.65685 -1.34315,-3 -3,-3 -1.39107,0 -2.53544,0.96568 -2.875,2.25 -0.35167,-0.1447 -0.72114,-0.25 -1.125,-0.25 -0.40386,0 -0.77333,0.1053 -1.125,0.25 -0.33956,-1.28432 -1.48393,-2.25 -2.875,-2.25 z m 0,1.25 c 0.9665,0 1.75,0.7835 1.75,1.75 0,0.9665 -0.7835,1.75 -1.75,1.75 -0.9665,0 -1.75,-0.7835 -1.75,-1.75 0,-0.9665 0.7835,-1.75 1.75,-1.75 z m 8,0 c 0.9665,0 1.75,0.7835 1.75,1.75 0,0.9665 -0.7835,1.75 -1.75,1.75 -0.9665,0 -1.75,-0.7835 -1.75,-1.75 0,-0.9665 0.7835,-1.75 1.75,-1.75 z" style="fill:#4c5263;fill-opacity:1;stroke:none"/><path id="path5868" d="m 289.0002,-250 -0.75,3 9.5,0 -0.75,-3 -4,0.5 z m -1,4 -3,2 16,0 -3,-2 z" style="fill:#4c5263;fill-opacity:1;stroke:none"/></g></svg>