<svg xmlns="http://www.w3.org/2000/svg" xmlns:osb="http://www.openswatchbook.org/uri/2009/osb" xmlns:svg="http://www.w3.org/2000/svg" id="svg7384" width="16" height="16" version="1.1" style="enable-background:new"><metadata id="metadata90"/><title id="title8473">Solus Symbolic Icon Theme</title><defs id="defs7386"><linearGradient id="linearGradient6882" osb:paint="solid"><stop id="stop6884" offset="0" style="stop-color:#555;stop-opacity:1"/></linearGradient><linearGradient id="linearGradient5606" osb:paint="solid"><stop id="stop5608" offset="0" style="stop-color:#000;stop-opacity:1"/></linearGradient><filter id="filter7554" style="color-interpolation-filters:sRGB"><feBlend id="feBlend7556" in2="BackgroundImage" mode="darken"/></filter></defs><g id="layer9" transform="translate(-997.00018,-165)" style="display:inline"><path id="path6913" d="m 1005.0002,165 c -2.0711,0 -3.8347,1.26792 -4.5938,3.0625 -1.92778,0.2866 -3.4062,1.92992 -3.4062,3.9375 0,2.20914 1.79086,4 4,4 h 8.5 c 1.933,0 3.5,-1.567 3.5,-3.5 0,-1.79654 -1.3508,-3.2687 -3.0938,-3.46875 C 1009.4519,166.73786 1007.4271,165 1005.0002,165 Z m 0,1 c 1.9495,0 3.5626,1.3942 3.9258,3.22656 l 0.1406,0.71485 0.7266,0.084 c 1.2489,0.14333 2.207,1.17931 2.207,2.47459 0,1.39256 -1.1074,2.5 -2.5,2.5 h -8.5 c -1.6687,0 -3,-1.3313 -3,-3 0,-1.51663 1.1013,-2.73344 2.5527,-2.94922 l 0.5567,-0.082 0.2187,-0.51758 c 0.6084,-1.43845 2.009,-2.4512 3.6719,-2.4512 z" style="fill:#4f555d;fill-opacity:1;stroke:none"/><path id="rect6932" d="m 1000.0002,177 v 1.13281 l -0.98242,-0.5664 -0.5,0.86718 0.98047,0.56641 -0.98047,0.56641 0.5,0.86718 0.98242,-0.5664 V 181 h 1 v -1.13281 l 0.9824,0.5664 0.5,-0.86718 -0.9804,-0.56641 0.9804,-0.56641 -0.5,-0.86718 -0.9824,0.5664 V 177 Z" style="opacity:.35;fill:#4f555d;fill-opacity:1;stroke:none;stroke-width:4;stroke-linecap:round;stroke-linejoin:round;stroke-miterlimit:4;stroke-dasharray:none;stroke-opacity:1"/><path id="path6939" d="m 1005.0002,177 v 1.13281 l -0.9824,-0.5664 -0.5,0.86718 0.9804,0.56641 -0.9804,0.56641 0.5,0.86718 0.9824,-0.5664 V 181 h 1 v -1.13281 l 0.9824,0.5664 0.5,-0.86718 -0.9804,-0.56641 0.9804,-0.56641 -0.5,-0.86718 -0.9824,0.5664 V 177 Z" style="opacity:.35;fill:#4f555d;fill-opacity:1;stroke:none;stroke-width:4;stroke-linecap:round;stroke-linejoin:round;stroke-miterlimit:4;stroke-dasharray:none;stroke-opacity:1"/><path id="path6941" d="m 1010.0002,177 v 1.13281 l -0.9824,-0.5664 -0.5,0.86718 0.9804,0.56641 -0.9804,0.56641 0.5,0.86718 0.9824,-0.5664 V 181 h 1 v -1.13281 l 0.9824,0.5664 0.5,-0.86718 -0.9804,-0.56641 0.9804,-0.56641 -0.5,-0.86718 -0.9824,0.5664 V 177 Z" style="opacity:.35;fill:#4f555d;fill-opacity:1;stroke:none;stroke-width:4;stroke-linecap:round;stroke-linejoin:round;stroke-miterlimit:4;stroke-dasharray:none;stroke-opacity:1"/><path id="path6915" d="m 1005,165.5 c -1.866,0 -3.45,1.14143 -4.1328,2.75586 l -0.1094,0.25976 -0.2773,0.041 h -0 c -1.68551,0.25058 -2.97855,1.68468 -2.97855,3.44336 0,1.93464 1.56536,3.5 3.50005,3.5 h 8.5 c 1.6576,0 3,-1.34236 3,-3 0,-1.5412 -1.1581,-2.79872 -2.6485,-2.9707 h -0 l -0.3633,-0.043 -0.07,-0.35742 C 1009.0073,167.06703 1007.1879,165.5 1005,165.5 Z" style="color:#000;font-style:normal;font-variant:normal;font-weight:400;font-stretch:normal;font-size:medium;line-height:normal;font-family:sans-serif;font-variant-ligatures:normal;font-variant-position:normal;font-variant-caps:normal;font-variant-numeric:normal;font-variant-alternates:normal;font-feature-settings:normal;text-indent:0;text-align:start;text-decoration:none;text-decoration-line:none;text-decoration-style:solid;text-decoration-color:#000;letter-spacing:normal;word-spacing:normal;text-transform:none;writing-mode:lr-tb;direction:ltr;text-orientation:mixed;dominant-baseline:auto;baseline-shift:baseline;text-anchor:start;white-space:normal;shape-padding:0;clip-rule:nonzero;display:inline;overflow:visible;visibility:visible;opacity:.2;isolation:auto;mix-blend-mode:normal;color-interpolation:sRGB;color-interpolation-filters:linearRGB;solid-color:#000;solid-opacity:1;vector-effect:none;fill:#4f555d;fill-opacity:1;fill-rule:nonzero;stroke:none;stroke-width:1;stroke-linecap:butt;stroke-linejoin:miter;stroke-miterlimit:4;stroke-dasharray:none;stroke-dashoffset:0;stroke-opacity:1;color-rendering:auto;image-rendering:auto;shape-rendering:auto;text-rendering:auto;enable-background:accumulate"/></g></svg>