<svg xmlns="http://www.w3.org/2000/svg" xmlns:osb="http://www.openswatchbook.org/uri/2009/osb" xmlns:svg="http://www.w3.org/2000/svg" id="svg7384" width="16" height="16.001" version="1.1" style="enable-background:new"><metadata id="metadata90"/><title id="title8473">Solus Symbolic Icon Theme</title><defs id="defs7386"><linearGradient id="linearGradient6882" osb:paint="solid"><stop id="stop6884" offset="0" style="stop-color:#555;stop-opacity:1"/></linearGradient><linearGradient id="linearGradient5606" osb:paint="solid"><stop id="stop5608" offset="0" style="stop-color:#000;stop-opacity:1"/></linearGradient><filter id="filter7554" style="color-interpolation-filters:sRGB"><feBlend id="feBlend7556" in2="BackgroundImage" mode="darken"/></filter></defs><g id="layer9" transform="translate(-937.0002,-144.99609)" style="display:inline"><path id="path10188" d="m 945.0002,147.5 c 3.03756,0 5.5,2.46244 5.5,5.5 0,3.03756 -2.46244,5.5 -5.5,5.5 -3.03756,0 -5.5,-2.46244 -5.5,-5.5 0,-3.03756 2.46244,-5.5 5.5,-5.5 z" style="color:#bebebe;display:inline;overflow:visible;visibility:visible;opacity:.2;fill:#4f555d;fill-opacity:1;stroke:none;stroke-width:2;marker:none;enable-background:accumulate"/><path id="path6112" d="m 945.0002,144.99609 -0.5,1.03125 c 0.16526,-0.0117 0.33177,-0.0312 0.5,-0.0312 0.16823,0 0.33474,0.0197 0.5,0.0312 z m 0,2 c -3.31371,0 -6,2.68629 -6,6 0,3.31371 2.68629,6 6,6 3.31371,0 6,-2.68629 6,-6 0,-3.31371 -2.68629,-6 -6,-6 z m -5.65625,0.34375 0.375,1.09375 c 0.21793,-0.25121 0.46754,-0.50082 0.71875,-0.71875 z m 11.3125,0 -1.09375,0.375 c 0.25121,0.21793 0.50082,0.46754 0.71875,0.71875 z M 945.0002,148 a 5,5 0 0 1 5,5 5,5 0 0 1 -5,5 5,5 0 0 1 -5,-5 5,5 0 0 1 5,-5 z m -6.96875,4.49609 -1.03125,0.5 1.03125,0.5 c -0.0117,-0.16526 -0.0312,-0.33177 -0.0312,-0.5 0,-0.16823 0.0196,-0.33474 0.0312,-0.5 z m 13.9375,0 c 0.0117,0.16526 0.0312,0.33177 0.0312,0.5 0,0.16823 -0.0198,0.33474 -0.0312,0.5 l 1.03125,-0.5 z m -12.25,5.0625 -0.375,1.09375 1.09375,-0.375 c -0.25121,-0.21793 -0.50082,-0.46754 -0.71875,-0.71875 z m 10.5625,0 c -0.21793,0.25121 -0.46754,0.50082 -0.71875,0.71875 l 1.09375,0.375 z m -5.78125,2.40625 0.5,1.03125 0.5,-1.03125 c -0.16526,0.0117 -0.33177,0.0312 -0.5,0.0312 -0.16823,0 -0.33474,-0.0197 -0.5,-0.0312 z" style="color:#bebebe;display:inline;overflow:visible;visibility:visible;fill:#4f555d;fill-opacity:1;stroke:none;stroke-width:2;marker:none;enable-background:accumulate"/></g></svg>