<svg xmlns="http://www.w3.org/2000/svg" xmlns:osb="http://www.openswatchbook.org/uri/2009/osb" xmlns:svg="http://www.w3.org/2000/svg" id="svg7384" width="16.002" height="16.005" version="1.1" style="enable-background:new"><metadata id="metadata90"/><title id="title8473">Solus Symbolic Icon Theme</title><defs id="defs7386"><linearGradient id="linearGradient6882" osb:paint="solid"><stop id="stop6884" offset="0" style="stop-color:#4c5263;stop-opacity:1"/></linearGradient><linearGradient id="linearGradient5606" osb:paint="solid"><stop id="stop5608" offset="0" style="stop-color:#000;stop-opacity:1"/></linearGradient><filter id="filter7554" style="color-interpolation-filters:sRGB"><feBlend id="feBlend7556" in2="BackgroundImage" mode="darken"/></filter></defs><g id="layer9" transform="translate(-424.99838,395.00531)" style="display:inline"><path id="path6240" d="m 432.7502,-393.96875 c -2.76278,0.10144 -5.3087,1.80458 -6.3125,4.5625 -1.26383,3.47234 0.36867,7.32457 3.6875,8.8125 -0.0932,-0.33746 -0.14688,-0.70692 -0.125,-1.0625 0.0277,-1.00125 0.58397,-1.88737 1.375,-2.46875 -1.56688,-1.73319 -2.13559,-4.24646 -1.28125,-6.59375 0.51416,-1.41265 1.47444,-2.50836 2.65625,-3.25 z" style="color:#bebebe;display:inline;overflow:visible;visibility:visible;fill:#4c5263;fill-opacity:1;fill-rule:nonzero;stroke:none;stroke-width:1;marker:none;enable-background:accumulate"/><circle id="path6317" cx="274.524" cy="-511.759" r="7" transform="matrix(0.93969262,0.34202014,-0.34202014,0.93969262,0,0)" style="color:#bebebe;display:inline;overflow:visible;visibility:visible;opacity:0;fill:#8c5f5f;fill-opacity:1;fill-rule:nonzero;stroke:none;stroke-width:1;marker:none;enable-background:accumulate"/><path id="path6258" d="m 436.0002,-386 c -1.31168,0 -2.40482,0.85843 -2.8125,2.03125 -1.23083,0.15597 -2.1875,1.19557 -2.1875,2.46875 0,1.38071 1.11929,2.5 2.5,2.5 l 2.5,0 2.5,0 c 1.38071,0 2.5,-1.11929 2.5,-2.5 0,-1.27318 -0.95667,-2.31278 -2.1875,-2.46875 C 438.40502,-385.14157 437.31188,-386 436.0002,-386 Z" style="fill:#4c5263;fill-opacity:1;stroke:none"/></g></svg>