<svg xmlns="http://www.w3.org/2000/svg" xmlns:osb="http://www.openswatchbook.org/uri/2009/osb" xmlns:svg="http://www.w3.org/2000/svg" id="svg7384" width="16" height="16" version="1.1" style="enable-background:new"><metadata id="metadata90"/><title id="title8473">Solus Symbolic Icon Theme</title><defs id="defs7386"><linearGradient id="linearGradient6882" osb:paint="solid"><stop id="stop6884" offset="0" style="stop-color:#555;stop-opacity:1"/></linearGradient><linearGradient id="linearGradient5606" osb:paint="solid"><stop id="stop5608" offset="0" style="stop-color:#000;stop-opacity:1"/></linearGradient><filter id="filter7554" style="color-interpolation-filters:sRGB"><feBlend id="feBlend7556" in2="BackgroundImage" mode="darken"/></filter></defs><g id="layer9" transform="translate(-977.00018,-145)" style="display:inline"><path id="path6934" d="m 985.0002,145 c -2.0711,0 -3.8347,1.26792 -4.5938,3.0625 -1.92778,0.2866 -3.4062,1.92992 -3.4062,3.9375 0,2.20914 1.79086,4 4,4 h 5.0977 c 0.077,-0.19953 0.1963,-0.38385 0.3593,-0.54688 L 986.9104,155 h -5.9102 c -1.6687,0 -3,-1.3313 -3,-3 0,-1.51663 1.1013,-2.73344 2.5527,-2.94922 l 0.5567,-0.082 0.2187,-0.51758 c 0.6084,-1.43848 2.009,-2.4512 3.6719,-2.4512 1.9495,0 3.5626,1.3942 3.9258,3.22656 l 0.1406,0.71485 0.7266,0.084 c 1.2489,0.14331 2.207,1.17931 2.207,2.47459 0,1.39256 -1.1074,2.5 -2.5,2.5 H 988.09 l 0.4532,0.45312 c 0.163,0.16307 0.2819,0.34735 0.3593,0.54688 h 0.5977 c 1.933,0 3.5,-1.567 3.5,-3.5 0,-1.79654 -1.3508,-3.2687 -3.0938,-3.46875 C 989.4519,146.73786 987.4271,145 985.0002,145 Z" style="fill:#4f555d;fill-opacity:1;stroke:none"/><path id="path6954" d="m 985.0002,145.5 c -1.8659,0 -3.45,1.14143 -4.1328,2.75586 l -0.1094,0.25976 -0.2773,0.041 v 0 c -1.68546,0.2506 -2.9785,1.6847 -2.9785,3.44338 0,1.93464 1.56536,3.5 3.5,3.5 h 5.418 c 0.014,-0.0151 0.024,-0.0321 0.039,-0.0469 l 1.0429,-1.04296 1.043,1.04296 c 0.015,0.0148 0.025,0.0317 0.039,0.0469 h 0.9179 c 1.6576,0 3,-1.34236 3,-3 0,-1.5412 -1.158,-2.79872 -2.6484,-2.9707 v 0 l -0.3633,-0.043 -0.07,-0.35742 c -0.4086,-2.0618 -2.2281,-3.62888 -4.416,-3.62888 z" style="color:#000;font-style:normal;font-variant:normal;font-weight:400;font-stretch:normal;font-size:medium;line-height:normal;font-family:sans-serif;font-variant-ligatures:normal;font-variant-position:normal;font-variant-caps:normal;font-variant-numeric:normal;font-variant-alternates:normal;font-feature-settings:normal;text-indent:0;text-align:start;text-decoration:none;text-decoration-line:none;text-decoration-style:solid;text-decoration-color:#000;letter-spacing:normal;word-spacing:normal;text-transform:none;writing-mode:lr-tb;direction:ltr;text-orientation:mixed;dominant-baseline:auto;baseline-shift:baseline;text-anchor:start;white-space:normal;shape-padding:0;clip-rule:nonzero;display:inline;overflow:visible;visibility:visible;opacity:.2;isolation:auto;mix-blend-mode:normal;color-interpolation:sRGB;color-interpolation-filters:linearRGB;solid-color:#000;solid-opacity:1;vector-effect:none;fill:#4f555d;fill-opacity:1;fill-rule:nonzero;stroke:none;stroke-width:1;stroke-linecap:butt;stroke-linejoin:miter;stroke-miterlimit:4;stroke-dasharray:none;stroke-dashoffset:0;stroke-opacity:1;color-rendering:auto;image-rendering:auto;shape-rendering:auto;text-rendering:auto;enable-background:accumulate"/><path id="path6962" d="m 987.5002,152.99609 -0.34375,0.34375 -1.40625,1.40625 c -0.4532,0.45315 -0.75,1.0626 -0.75,1.75 0,1.37479 1.1252,2.5 2.5,2.5 1.3748,0 2.5,-1.12521 2.5,-2.5 0,-0.6874 -0.2969,-1.29685 -0.75,-1.75 l -1.40625,-1.40625 z m 0,1.41407 1.04297,1.04296 c 0.2905,0.29059 0.45703,0.64352 0.45703,1.04297 0,0.82916 -0.6708,1.5 -1.5,1.5 -0.8292,0 -1.5,-0.67084 -1.5,-1.5 0,-0.39955 0.16653,-0.75244 0.45703,-1.04297 z m -5,0.58593 -0.34375,0.34375 -1.40625,1.40625 c -0.4532,0.45315 -0.75,1.0626 -0.75,1.75 0,1.37479 1.1252,2.5 2.5,2.5 1.3748,0 2.5,-1.12521 2.5,-2.5 0,-0.6874 -0.2969,-1.29685 -0.75,-1.75 l -1.40625,-1.40625 z m 0,1.41407 1.04297,1.04296 c 0.2905,0.29059 0.45703,0.64352 0.45703,1.04297 0,0.82916 -0.6708,1.5 -1.5,1.5 -0.8292,0 -1.5,-0.67084 -1.5,-1.5 0,-0.39955 0.16653,-0.75244 0.45703,-1.04297 z" style="color:#000;font-style:normal;font-variant:normal;font-weight:400;font-stretch:normal;line-height:normal;font-family:Sans;-inkscape-font-specification:Sans;text-indent:0;text-align:start;text-decoration:none;text-decoration-line:none;letter-spacing:normal;word-spacing:normal;text-transform:none;writing-mode:lr-tb;direction:ltr;baseline-shift:baseline;text-anchor:start;display:inline;overflow:visible;visibility:visible;fill:#4f555d;fill-opacity:1;stroke:none;stroke-width:1px;marker:none;enable-background:accumulate"/></g></svg>