<svg xmlns="http://www.w3.org/2000/svg" xmlns:osb="http://www.openswatchbook.org/uri/2009/osb" xmlns:svg="http://www.w3.org/2000/svg" id="svg7384" width="16" height="16.003" version="1.1" style="enable-background:new"><metadata id="metadata90"/><title id="title8473">Solus Symbolic Icon Theme</title><defs id="defs7386"><linearGradient id="linearGradient6882" osb:paint="solid"><stop id="stop6884" offset="0" style="stop-color:#4c5263;stop-opacity:1"/></linearGradient><linearGradient id="linearGradient5606" osb:paint="solid"><stop id="stop5608" offset="0" style="stop-color:#000;stop-opacity:1"/></linearGradient><filter id="filter7554" style="color-interpolation-filters:sRGB"><feBlend id="feBlend7556" in2="BackgroundImage" mode="darken"/></filter></defs><g id="layer10" transform="translate(-425.0002,475.00287)" style="display:inline;filter:url(#filter7554)"><path id="path4-8" d="m 431.0002,-468 0,5 1,0 0,4 3,-5 -1,0 1.5,-4 z" style="display:inline;fill:#4d4d4d;fill-opacity:1;stroke:none;enable-background:new"/><path id="path6162" d="m 433.0002,-475 c -2.07107,0 -3.83471,1.26792 -4.59375,3.0625 -1.92783,0.2866 -3.40625,1.92992 -3.40625,3.9375 0,2.20914 1.79086,4 4,4 l 1,0 0,-4 0,-1 6.94336,0 -1.5,4 1.32226,0 -0.5996,1 1.33398,0 c 1.933,0 3.5,-1.567 3.5,-3.5 0,-1.79654 -1.35079,-3.2687 -3.09375,-3.46875 C 437.45188,-473.26214 435.42707,-475 433.0002,-475 Z m -1,8 0,3 0.93164,0 1.125,-3 -2.05664,0 z" style="display:inline;fill:#4d4d4d;fill-opacity:1;stroke:none;enable-background:new"/></g></svg>