<svg xmlns="http://www.w3.org/2000/svg" xmlns:osb="http://www.openswatchbook.org/uri/2009/osb" xmlns:svg="http://www.w3.org/2000/svg" id="svg7384" width="16" height="16" version="1.1" style="enable-background:new"><metadata id="metadata90"/><title id="title8473">Solus Symbolic Icon Theme</title><defs id="defs7386"><linearGradient id="linearGradient6882" osb:paint="solid"><stop id="stop6884" offset="0" style="stop-color:#555;stop-opacity:1"/></linearGradient><linearGradient id="linearGradient5606" osb:paint="solid"><stop id="stop5608" offset="0" style="stop-color:#000;stop-opacity:1"/></linearGradient><filter id="filter7554" style="color-interpolation-filters:sRGB"><feBlend id="feBlend7556" in2="BackgroundImage" mode="darken"/></filter></defs><g id="layer9" transform="translate(-937.0002,-164.99664)" style="display:inline"><path id="path10134" d="m 947,173.5 c 1.09355,0 1.99831,0.71283 2.33984,1.69531 l 0.10157,0.29297 0.30859,0.0391 c 0.98796,0.1252 1.75,0.94996 1.75,1.97266 0,1.11049 -0.88952,2 -2,2 h -2.5 -2.5 c -1.11048,0 -2,-0.88951 -2,-2 0,-1.0227 0.76204,-1.84746 1.75,-1.97266 l 0.30859,-0.0391 0.10157,-0.29297 C 945.00169,174.21283 945.90645,173.5 947,173.5 Z" style="color:#000;font-style:normal;font-variant:normal;font-weight:400;font-stretch:normal;font-size:medium;line-height:normal;font-family:sans-serif;font-variant-ligatures:normal;font-variant-position:normal;font-variant-caps:normal;font-variant-numeric:normal;font-variant-alternates:normal;font-feature-settings:normal;text-indent:0;text-align:start;text-decoration:none;text-decoration-line:none;text-decoration-style:solid;text-decoration-color:#000;letter-spacing:normal;word-spacing:normal;text-transform:none;writing-mode:lr-tb;direction:ltr;text-orientation:mixed;dominant-baseline:auto;baseline-shift:baseline;text-anchor:start;white-space:normal;shape-padding:0;clip-rule:nonzero;display:inline;overflow:visible;visibility:visible;opacity:.2;isolation:auto;mix-blend-mode:normal;color-interpolation:sRGB;color-interpolation-filters:linearRGB;solid-color:#000;solid-opacity:1;vector-effect:none;fill:#4f555d;fill-opacity:1;fill-rule:nonzero;stroke:none;stroke-width:1;stroke-linecap:butt;stroke-linejoin:miter;stroke-miterlimit:4;stroke-dasharray:none;stroke-dashoffset:0;stroke-opacity:1;color-rendering:auto;image-rendering:auto;shape-rendering:auto;text-rendering:auto;enable-background:new"/><path id="path10142" d="m 947.0002,173 c -1.3117,0 -2.4048,0.85843 -2.8125,2.03125 -1.2308,0.15597 -2.1875,1.19557 -2.1875,2.46875 0,1.38071 1.1193,2.5 2.5,2.5 h 2.5 2.5 c 1.3807,0 2.5,-1.11929 2.5,-2.5 0,-1.27318 -0.9567,-2.31278 -2.1875,-2.46875 C 949.405,173.85843 948.3119,173 947.0002,173 Z m 0,1 c 0.87541,0 1.59182,0.56722 1.86719,1.35938 l 0.20508,0.58593 0.61523,0.0781 c 0.74511,0.0944 1.3125,0.70433 1.3125,1.47656 0,0.84026 -0.65975,1.5 -1.5,1.5 h -2.5 -2.5 c -0.84025,0 -1.5,-0.65974 -1.5,-1.5 0,-0.77223 0.56739,-1.38214 1.3125,-1.47656 l 0.61523,-0.0781 0.20508,-0.58593 C 945.40838,174.56723 946.12479,174 947.0002,174 Z" style="display:inline;fill:#4f555d;fill-opacity:1;stroke:none;enable-background:new"/><path id="path10157" d="m 944.0002,165 -0.5,1.03125 c 0.16191,-0.0133 0.3348,-0.0312 0.5,-0.0312 h 0.5 z m -4.9375,2.0625 0.34375,1.0625 c 0.21905,-0.25922 0.45953,-0.4997 0.71875,-0.71875 z m 9.875,0 -1.09375,0.375 h -0.0625 c 0.13917,0.11095 0.27498,0.22511 0.40625,0.34375 0.13127,0.11864 0.25799,0.24175 0.375,0.375 z m -10.9375,4.4375 -1,0.5 1.03125,0.5 c -0.0148,-0.16931 -0.0312,-0.3264 -0.0312,-0.5 0,-0.0275 -0.002,-0.0836 0,-0.15625 0.006,-0.11583 0.0223,-0.23224 0.0312,-0.34375 z m 11.96875,0 c 0.0148,0.16931 0.0312,0.3264 0.0312,0.5 0,0.0275 0.002,0.0836 0,0.15625 -0.006,0.11583 -0.0223,0.23224 -0.0312,0.34375 h 0.0312 l 1,-0.5 -1.03125,-0.5 z m -10.53125,4.34375 -0.375,1.09375 1.09375,-0.375 h 0.0625 c -0.13917,-0.11095 -0.27498,-0.22511 -0.40625,-0.34375 -0.13127,-0.11864 -0.25799,-0.24175 -0.375,-0.375 z" style="color:#bebebe;display:inline;overflow:visible;visibility:visible;fill:#4f555d;fill-opacity:1;fill-rule:nonzero;stroke:none;stroke-width:2;marker:none;enable-background:accumulate"/><path id="path10165" d="m 944.0002,167 c -2.76142,0 -5,2.23858 -5,5 0.002,2.04786 1.2527,3.88743 3.15625,4.64258 0.12161,-0.32876 0.32681,-0.60876 0.56641,-0.85547 A 4,4 0 0 1 940.0002,172 a 4,4 0 0 1 4,-4 4,4 0 0 1 4,4 4,4 0 0 1 -0.16406,1.12695 c 0.32933,0.0984 0.63613,0.24802 0.90625,0.44727 0.16963,-0.50756 0.25667,-1.03906 0.25781,-1.57422 0,-2.76142 -2.23858,-5 -5,-5 z" style="opacity:1;fill:#4f555d;fill-opacity:1;stroke:none;stroke-width:2;stroke-linecap:round;stroke-linejoin:round;stroke-miterlimit:4;stroke-dasharray:none;stroke-dashoffset:0;stroke-opacity:1"/><path id="path10170" d="m 944.0002,167.5 a 4.5,4.5 0 0 0 -4.5,4.5 4.5,4.5 0 0 0 3.37305,4.35156 c 0.31661,-0.44213 0.80654,-0.75193 1.37695,-0.82422 l 0.30859,-0.0391 0.10157,-0.29297 c 0.34153,-0.98244 1.24629,-1.69527 2.33984,-1.69527 0.41068,0 0.79522,0.0997 1.13281,0.27734 A 4.5,4.5 0 0 0 948.5002,172 a 4.5,4.5 0 0 0 -4.5,-4.5 z" style="opacity:.4;fill:#4f555d;fill-opacity:1;stroke:none;stroke-width:2;stroke-linecap:round;stroke-linejoin:round;stroke-miterlimit:4;stroke-dasharray:none;stroke-dashoffset:0;stroke-opacity:1"/></g></svg>