<svg xmlns="http://www.w3.org/2000/svg" xmlns:osb="http://www.openswatchbook.org/uri/2009/osb" xmlns:svg="http://www.w3.org/2000/svg" id="svg7384" width="16" height="16" version="1.1" style="enable-background:new"><metadata id="metadata90"/><title id="title8473">Solus Symbolic Icon Theme</title><defs id="defs7386"><linearGradient id="linearGradient6882" osb:paint="solid"><stop id="stop6884" offset="0" style="stop-color:#555;stop-opacity:1"/></linearGradient><linearGradient id="linearGradient5606" osb:paint="solid"><stop id="stop5608" offset="0" style="stop-color:#000;stop-opacity:1"/></linearGradient><filter id="filter7554" style="color-interpolation-filters:sRGB"><feBlend id="feBlend7556" in2="BackgroundImage" mode="darken"/></filter></defs><g id="layer9" transform="translate(-977.0002,-164.99664)" style="display:inline"><path id="path10111" d="m 987,173.5 c 1.09355,0 1.99831,0.71283 2.33984,1.69531 l 0.10157,0.29297 0.30859,0.0391 c 0.98796,0.1252 1.75,0.94996 1.75,1.97266 0,1.11049 -0.88952,2 -2,2 h -2.5 -2.5 c -1.11048,0 -2,-0.88951 -2,-2 0,-1.0227 0.76204,-1.84746 1.75,-1.97266 l 0.30859,-0.0391 0.10157,-0.29297 C 985.00169,174.21283 985.90645,173.5 987,173.5 Z" style="color:#000;font-style:normal;font-variant:normal;font-weight:400;font-stretch:normal;font-size:medium;line-height:normal;font-family:sans-serif;font-variant-ligatures:normal;font-variant-position:normal;font-variant-caps:normal;font-variant-numeric:normal;font-variant-alternates:normal;font-feature-settings:normal;text-indent:0;text-align:start;text-decoration:none;text-decoration-line:none;text-decoration-style:solid;text-decoration-color:#000;letter-spacing:normal;word-spacing:normal;text-transform:none;writing-mode:lr-tb;direction:ltr;text-orientation:mixed;dominant-baseline:auto;baseline-shift:baseline;text-anchor:start;white-space:normal;shape-padding:0;clip-rule:nonzero;display:inline;overflow:visible;visibility:visible;opacity:.2;isolation:auto;mix-blend-mode:normal;color-interpolation:sRGB;color-interpolation-filters:linearRGB;solid-color:#000;solid-opacity:1;vector-effect:none;fill:#4f555d;fill-opacity:1;fill-rule:nonzero;stroke:none;stroke-width:1;stroke-linecap:butt;stroke-linejoin:miter;stroke-miterlimit:4;stroke-dasharray:none;stroke-dashoffset:0;stroke-opacity:1;color-rendering:auto;image-rendering:auto;shape-rendering:auto;text-rendering:auto;enable-background:new"/><path id="path10081" d="m 985.0002,165.5 c -1.867,0 -3.4491,1.14133 -4.13281,2.75781 l -0.10938,0.25781 -0.27734,0.041 c -1.68963,0.25121 -2.98047,1.68127 -2.98047,3.44338 0,1.93892 1.56108,3.5 3.5,3.5 h 3.4668 l 0.0918,-0.0117 0.10157,-0.29297 c 0.34152,-0.9825 1.24628,-1.69533 2.33983,-1.69533 1.09355,0 1.99831,0.71283 2.33984,1.69531 l 0.10157,0.29297 0.0781,0.01 c 1.65345,-0.0107 2.98047,-1.34197 2.98047,-2.99805 0,-1.54591 -1.15443,-2.80096 -2.65039,-2.97266 l -0.36328,-0.041 -0.0703,-0.35742 C 989.00734,167.06603 987.18837,165.5 985.0002,165.5 Z" style="color:#000;font-style:normal;font-variant:normal;font-weight:400;font-stretch:normal;font-size:medium;line-height:normal;font-family:sans-serif;font-variant-ligatures:normal;font-variant-position:normal;font-variant-caps:normal;font-variant-numeric:normal;font-variant-alternates:normal;font-feature-settings:normal;text-indent:0;text-align:start;text-decoration:none;text-decoration-line:none;text-decoration-style:solid;text-decoration-color:#000;letter-spacing:normal;word-spacing:normal;text-transform:none;writing-mode:lr-tb;direction:ltr;text-orientation:mixed;dominant-baseline:auto;baseline-shift:baseline;text-anchor:start;white-space:normal;shape-padding:0;clip-rule:nonzero;display:inline;overflow:visible;visibility:visible;opacity:.4;isolation:auto;mix-blend-mode:normal;color-interpolation:sRGB;color-interpolation-filters:linearRGB;solid-color:#000;solid-opacity:1;vector-effect:none;fill:#4f555d;fill-opacity:1;fill-rule:nonzero;stroke:none;stroke-width:1;stroke-linecap:butt;stroke-linejoin:miter;stroke-miterlimit:4;stroke-dasharray:none;stroke-dashoffset:0;stroke-opacity:1;color-rendering:auto;image-rendering:auto;shape-rendering:auto;text-rendering:auto;enable-background:accumulate"/><path id="path10106" d="m 985.0002,165 c -2.07107,0 -3.83471,1.26792 -4.59375,3.0625 -1.92783,0.2866 -3.40625,1.92992 -3.40625,3.9375 0,2.20914 1.79086,4 4,4 h 2.19531 c 0.29123,-0.24925 0.65225,-0.42166 1.05469,-0.47266 l 0.30859,-0.0391 0.10157,-0.29297 c 0.0234,-0.0674 0.0554,-0.13061 0.084,-0.19531 h -3.74416 c -1.6687,0 -3,-1.3313 -3,-3 0,-1.51663 1.1013,-2.73344 2.55273,-2.94922 l 0.55665,-0.082 0.21874,-0.51758 C 981.93671,167.01277 983.33727,166 985.0002,166 c 1.94948,0 3.56259,1.3942 3.92578,3.22656 l 0.14258,0.71485 0.72461,0.084 c 1.24896,0.14331 2.20703,1.17931 2.20703,2.47459 0,1.39256 -1.10744,2.5 -2.5,2.5 h -0.24414 c 0.0286,0.0647 0.0606,0.12793 0.084,0.19531 l 0.10157,0.29297 0.30859,0.0391 c 0.29548,0.0375 0.56592,0.14379 0.80664,0.29297 1.41317,-0.45007 2.44334,-1.75802 2.44334,-3.32035 0,-1.79654 -1.35079,-3.2687 -3.09375,-3.46875 C 989.45188,166.73786 987.42707,165 985.0002,165 Z" style="opacity:1;fill:#4f555d;fill-opacity:1;stroke:none"/><path id="path10090" d="m 987.0002,173 c -1.3117,0 -2.4048,0.85843 -2.8125,2.03125 -1.2308,0.15597 -2.1875,1.19557 -2.1875,2.46875 0,1.38071 1.1193,2.5 2.5,2.5 h 2.5 2.5 c 1.3807,0 2.5,-1.11929 2.5,-2.5 0,-1.27318 -0.9567,-2.31278 -2.1875,-2.46875 C 989.405,173.85843 988.3119,173 987.0002,173 Z m 0,1 c 0.87541,0 1.59182,0.56722 1.86719,1.35938 l 0.20508,0.58593 0.61523,0.0781 c 0.74511,0.0944 1.3125,0.70433 1.3125,1.47656 0,0.84026 -0.65975,1.5 -1.5,1.5 h -2.5 -2.5 c -0.84025,0 -1.5,-0.65974 -1.5,-1.5 0,-0.77223 0.56739,-1.38214 1.3125,-1.47656 l 0.61523,-0.0781 0.20508,-0.58593 C 985.40838,174.56723 986.12479,174 987.0002,174 Z" style="display:inline;fill:#4f555d;fill-opacity:1;stroke:none;enable-background:new"/></g></svg>